<svg width="120" height="120" fill="none" xmlns="http://www.w3.org/2000/svg"><path d="M60 0a60 60 0 1 0 0 120A60 60 0 0 0 60 0" fill="#D2E3ED"/><path d="M100.257 46.319h3.406a2.734 2.734 0 0 0 2.731-3.822 2.725 2.725 0 0 0-1.617-1.486 2.732 2.732 0 0 0-1.114-.138H97.37l-1.097-3.849a8.178 8.178 0 0 0-7.87-5.946H61.578a8.217 8.217 0 0 0-7.87 5.946l-1.097 3.849h-6.273a2.731 2.731 0 0 0-2.079 4.734 2.733 2.733 0 0 0 2.078.712h3.407l-3.06 2.463a8.12 8.12 0 0 0-3.079 6.37v25.516a2.752 2.752 0 0 0 2.733 2.732H13.623v5.446h92.714V83.4h-2.675a2.75 2.75 0 0 0 2.732-2.732V55.15a8.18 8.18 0 0 0-3.059-6.37l-3.079-2.462zM51.803 83.4a2.732 2.732 0 0 0 2.713-2.732v-2.733h40.968v2.733A2.752 2.752 0 0 0 98.14 83.4H51.803z" fill="#000"/><path d="M38.16 72.488H13.604v5.446h24.554v-5.446z" fill="#000"/><path d="M38.16 67.023H13.604v5.446h24.554v-5.446zm0 10.913H13.604v5.445h24.554v-5.445z" fill="#fff"/><path d="M38.16 61.578H13.604v5.446h24.554v-5.446z" fill="#000"/><path d="M21.168 61.579c0-4.407 1.25-9.622 4.772-9.622 3.521 0 4.772 5.138 4.772 9.622h1.366c0-6.023-2.04-10.911-6.138-10.911-4.099 0-6.197 4.888-6.197 10.91h1.425z" fill="#000"/><path d="m97.293 45.643-2.328-8.178a6.85 6.85 0 0 0-6.562-4.946H61.578a6.89 6.89 0 0 0-6.562 4.946l-2.328 8.178h44.605z" fill="#71B1CA"/><path d="m102.431 49.84-3.54-2.828H51.07l-3.54 2.828a6.772 6.772 0 0 0-2.56 5.312V72.47a4.08 4.08 0 0 0 4.1 4.08h51.821a4.097 4.097 0 0 0 4.099-4.08V55.152a6.78 6.78 0 0 0-2.56-5.312z" fill="#F16661"/><path d="M84.554 56.133H65.465a4.772 4.772 0 0 0-4.772 4.772v6.812a4.772 4.772 0 0 0 4.772 4.773h19.09a4.772 4.772 0 0 0 4.772-4.773v-6.812a4.772 4.772 0 0 0-4.773-4.772zM53.207 51.36a4.772 4.772 0 1 0 0 9.544 4.772 4.772 0 0 0 0-9.545z" fill="#000"/><path d="M53.207 59.539a3.406 3.406 0 1 1 0-6.812 3.406 3.406 0 0 1 0 6.812z" fill="#FED085"/><path d="M96.812 51.36a4.772 4.772 0 1 0 4.792 4.772 4.791 4.791 0 0 0-4.792-4.773z" fill="#000"/><path d="M96.812 59.539a3.406 3.406 0 1 1 3.425-3.407 3.424 3.424 0 0 1-3.425 3.407z" fill="#FED085"/></svg>