<svg width="144" height="112" fill="none" xmlns="http://www.w3.org/2000/svg"><g clip-path="url(#a)"><path d="M71 68c14.912 0 27-12.088 27-27S85.912 14 71 14 44 26.088 44 41s12.088 27 27 27Z" fill="#C7332D"/><path d="M58.068 19s-8.42-9.844-1.033-19c0 0 8.186 8.016 1.033 19Z" fill="#C7332D"/><path d="M58 19s-11.366-.18-12-9.99c0 0 10.127-.7 12 9.99Z" fill="#C7332D"/><path d="M64 81h14V70H64v11Z" fill="#CF9E76"/><path d="M92.368 77H49.632C46.522 77 44 79.582 44 82.767v61.466c0 3.185 2.522 5.767 5.632 5.767h42.736c3.11 0 5.632-2.582 5.632-5.767V82.767C98 79.582 95.478 77 92.368 77Z" fill="#000"/><path d="M71 71c14.912 0 27-11.193 27-25S85.912 21 71 21 44 32.193 44 46s12.088 25 27 25Z" fill="#176FC7"/><path d="M70.5 71C82.926 71 93 60.703 93 48S82.926 25 70.5 25 48 35.297 48 48s10.074 23 22.5 23Z" fill="#CF9E76"/><path d="M58.67 32.651A20.875 20.875 0 0 1 64.309 30a11.125 11.125 0 0 0 3.525 10.099 11.145 11.145 0 0 0 10.413 2.47 12.365 12.365 0 0 0 4.38 17.077 12.388 12.388 0 0 0 6.247 1.678H89c-.352.601-.726 1.19-1.133 1.753a21.447 21.447 0 0 1-15.904 8.87A21.467 21.467 0 0 1 54.968 65.4a21.431 21.431 0 0 1-5.833-17.242 21.426 21.426 0 0 1 9.535-15.508Z" fill="#CF9E76"/><path d="M70.145 24a23.097 23.097 0 0 0-10.78 2.683A24.645 24.645 0 0 0 51 33.997c.24.153.482.308.737.445a11.08 11.08 0 0 0 9.467.496 7.943 7.943 0 0 0 1.057 3.833 7.617 7.617 0 0 0 2.76 2.783 7.305 7.305 0 0 0 3.734.996 7.31 7.31 0 0 0 3.718-1.054 7.912 7.912 0 0 0 1.31 3.748 7.565 7.565 0 0 0 2.94 2.579 7.283 7.283 0 0 0 7.43-.591 11.858 11.858 0 0 0 3.137 5.695A11.257 11.257 0 0 0 92.889 56 25.116 25.116 0 0 0 94 48.663C94 35.04 83.32 24 70.145 24Z" fill="#176FC7"/><path d="M74 77s30.656-.531 33 35.316V147h-.707l-7.473-9.899-8.177-8.462L74 77ZM70 77s-31.585-.531-34 35.316V147h.728l7.7-9.899 8.425-8.462L70 77Z" fill="#231F20"/><path fill-rule="evenodd" clip-rule="evenodd" d="M66.971 45s-3.137 5.016-9.328.836c-1.028 2.331-3.5 2.227-5.643 2.18 3.35 1.564 6.215-.826 6.215-.826s.244 2.804-3.102 2.719c1.926 1.328 5.648-1.64 5.648-1.64s.252 2.076-1.687 3.257c2.064-.35 2.801-.988 3.948-3.262-.25-.826.832 2.516-.838 3.527-1.67 1.01 5.317-1.7 4.787-6.79V45Z" fill="#010101"/><path fill-rule="evenodd" clip-rule="evenodd" d="M77 61.881c-4.069 1.48-4.689-3.685-6.503-1.015-1.851-2.5-1.846 1.225-6.497 1.05 3.3 1.225 2.807 3.094 6.506 3.084 2.735 0 3.209-1.258 6.494-3.12v.001Z" fill="#C7332D"/><path d="M79.5 103a2.5 2.5 0 1 0 0-5 2.5 2.5 0 0 0 0 5ZM86.5 103a2.5 2.5 0 1 0 0-5 2.5 2.5 0 0 0 0 5ZM93.5 103a2.5 2.5 0 1 0 0-5 2.5 2.5 0 0 0 0 5Z" fill="#EAECEE"/><path fill-rule="evenodd" clip-rule="evenodd" d="M82 78.192A23.505 23.505 0 0 0 74.609 77h-6.43A23.527 23.527 0 0 0 61 78.116c.497 2.503 1.809 4.752 3.714 6.37A10.484 10.484 0 0 0 71.466 87a10.478 10.478 0 0 0 6.767-2.467c1.916-1.604 3.242-3.844 3.755-6.344l.012.004Z" fill="#CF9E76"/><path d="M72 87h-1v51h1V87Z" fill="#fff"/><path d="M82 78c-.498 2.541-1.814 4.824-3.726 6.464-1.912 1.64-4.304 2.535-6.771 2.536-2.468 0-4.86-.893-6.773-2.531-1.913-1.638-3.23-3.92-3.73-6.462" stroke="#fff" stroke-miterlimit="10"/></g><defs><clipPath id="a"><path fill="#fff" d="M0 0h144v112H0z"/></clipPath></defs></svg>