<svg width="64" height="64" fill="none" xmlns="http://www.w3.org/2000/svg"><path fill-rule="evenodd" clip-rule="evenodd" d="M34.256 2a29.49 29.49 0 0 1 15.895 5.972 29.838 29.838 0 0 1 10.437 14.816c2.833 8.962 1.453 19.136-4.601 27.232-9.912 13.253-28.603 15.918-41.744 5.94-12.35-9.377-15.395-26.576-7.48-39.611L2.458 17.51 2 15.786l6.275-1.694.132-.18.141.106 1.155-.312 2.064 7.762-1.712.462-1.32-4.967c-7.718 12.223-4.94 28.555 6.717 37.405 12.252 9.302 29.682 6.824 38.933-5.546 5.652-7.557 6.944-17.057 4.296-25.431a27.839 27.839 0 0 0-9.739-13.826 27.49 27.49 0 0 0-14.82-5.569L34.256 2Zm-.28 28.305C36.84 31.415 40 32.64 40 36.184c0 3.185-2.264 5.778-5.925 6.667v3L30.604 46v-2.852a15.136 15.136 0 0 1-6.604-2L25.547 38c1.925 1 3.85 1.593 5.811 1.593 2.567 0 3.925-1.223 3.925-2.926 0-1.642-1.83-2.386-3.978-3.257l-.098-.04c-2.867-1.148-6.188-2.481-6.188-6.333 0-2.815 1.774-5.667 5.811-6.407v-2.482L34.34 18v2.518c1.66.149 3.283.593 4.905 1.334l-1.283 3.111c-1.547-.74-3.358-1.148-4.905-1.148-2.453 0-3.585 1.26-3.585 2.74 0 1.482 1.17 2.334 2.754 3.038.548.246 1.142.476 1.75.712Z" fill="#000"/></svg>