<svg width="47" height="55" viewBox="0 0 47 55" fill="none" xmlns="http://www.w3.org/2000/svg">
<path fill-rule="evenodd" clip-rule="evenodd" d="M30.9531 11.4582H1.92688C1.34938 11.4582 0.875 10.9434 0.875 10.3136C0.875 9.68382 1.34938 9.1665 1.92688 9.1665H30.9531C31.5306 9.1665 32.005 9.68382 32.005 10.3136C32.005 10.9434 31.5306 11.4582 30.9531 11.4582Z" fill="black"/>
<path fill-rule="evenodd" clip-rule="evenodd" d="M30.9531 43.5417H1.92688C1.34938 43.5417 0.875 43.0269 0.875 42.3971C0.875 41.7673 1.34938 41.25 1.92688 41.25H30.9531C31.5306 41.25 32.005 41.7673 32.005 42.3971C32.005 43.0269 31.5306 43.5417 30.9531 43.5417Z" fill="black"/>
<path fill-rule="evenodd" clip-rule="evenodd" d="M19.4948 6.87516H13.3852C12.8077 6.87516 12.3333 6.36035 12.3333 5.73058C12.3333 5.10081 12.8077 4.5835 13.3852 4.5835H19.4948C20.0723 4.5835 20.5467 5.10081 20.5467 5.73058C20.5467 6.36035 20.0723 6.87516 19.4948 6.87516Z" fill="black"/>
<circle cx="16.9167" cy="48.1252" r="1.375" stroke="black" stroke-width="1.83333"/>
<path fill-rule="evenodd" clip-rule="evenodd" d="M5.45833 2.29167H28.375C29.6407 2.29167 30.6667 3.31768 30.6667 4.58333V50.4167C30.6667 51.6823 29.6407 52.7083 28.375 52.7083H5.45834C4.19268 52.7083 3.16667 51.6823 3.16667 50.4167V4.58333C3.16667 3.31768 4.19268 2.29167 5.45833 2.29167ZM0.875 4.58333C0.875 2.05203 2.92703 0 5.45833 0H28.375C30.9063 0 32.9583 2.05203 32.9583 4.58333V13.7508H30.6674V36.6675H32.9583V50.4167C32.9583 52.948 30.9063 55 28.375 55H5.45834C2.92703 55 0.875 52.948 0.875 50.4167V4.58333Z" fill="black"/>
<path fill-rule="evenodd" clip-rule="evenodd" d="M33.2296 33.4868C34.3673 33.9631 35.6155 34.2257 36.921 34.2257C42.1976 34.2257 46.4792 29.9521 46.4792 24.6754C46.4792 19.3986 42.1976 15.125 36.921 15.125C31.6443 15.125 27.3627 19.3986 27.3628 24.6754C27.3628 26.3574 27.7996 27.9417 28.5659 29.3166L27 35.1542L33.2296 33.4868Z" fill="black"/>
</svg>
