<svg width="140" height="29" viewBox="0 0 140 29" fill="none" xmlns="http://www.w3.org/2000/svg">
<g clip-path="url(#clip0_493_6290)">
<path d="M51.2626 15.0041C50.202 14.1738 48.9646 13.3436 47.6094 12.5133C46.4309 11.8016 45.3114 11.09 44.3097 10.4376C43.3081 9.78528 42.4831 9.07362 41.8939 8.24336C41.3047 7.41309 41.0101 6.46422 41.0101 5.27812C41.0101 3.91411 41.4815 2.78732 42.3653 1.95706C43.2491 1.12679 44.4276 0.711654 45.7828 0.711654C47.2559 0.711654 48.4343 1.06749 49.3182 1.83845C50.202 2.55011 50.9091 3.55829 51.3804 4.68508C51.8518 5.87117 52.1464 7.05726 52.2054 8.36197H53.0892C53.0892 6.70143 53.0892 5.33742 53.0892 4.32924C53.0892 3.32106 53.1481 2.4908 53.1481 1.89775C53.207 1.3047 53.207 0.770961 53.266 0.296523H52.3821C52.3232 0.88957 52.2054 1.3047 52.0875 1.60122C51.9697 1.89775 51.7929 2.01636 51.4983 2.01636C51.3215 2.01636 51.1448 1.95705 50.9091 1.89775C50.7323 1.77914 50.4377 1.66053 50.1431 1.48262C49.6128 1.12679 49.0235 0.770963 48.3165 0.474439C47.6094 0.177916 46.6077 0 45.3114 0C44.0151 0 42.8367 0.237217 41.6582 0.711654C40.5387 1.18609 39.5959 1.95705 38.9478 2.96523C38.2407 3.97341 37.8872 5.27812 37.8872 6.82004C37.8872 8.30266 38.1818 9.54806 38.8299 10.6155C39.4781 11.683 40.3619 12.5726 41.4225 13.3436C42.4831 14.1145 43.6616 14.9448 44.899 15.6564C46.1363 16.3681 47.1969 17.1391 48.1397 17.7914C49.0825 18.5031 49.7895 19.274 50.2609 20.045C50.7912 20.8753 51.0269 21.8241 51.0269 22.8916C51.0269 24.137 50.7912 25.1452 50.2609 25.9161C49.7895 26.6871 49.1414 27.2802 48.3754 27.636C47.6094 27.9918 46.7845 28.1697 45.9006 28.1697C44.1919 28.1697 42.8956 27.7546 41.835 26.9243C40.8333 26.0941 40.0673 24.9673 39.5959 23.6033C39.1246 22.2393 38.8299 20.7566 38.7121 19.1554H37.8283C37.8283 20.9939 37.8283 22.5358 37.8283 23.7812C37.8283 25.0266 37.8283 25.9754 37.7693 26.7464C37.7693 27.5174 37.7104 28.1697 37.6515 28.7035H38.5353C38.5943 28.1104 38.7121 27.6953 38.8299 27.3988C38.9478 27.1022 39.1246 26.9836 39.4192 26.9836C39.7138 26.9836 40.1852 27.1616 40.7744 27.5174C41.3636 27.8732 42.0707 28.1697 42.8367 28.5256C43.6616 28.8221 44.7811 29 46.1363 29C47.6683 29 49.0235 28.7035 50.3198 28.1697C51.5572 27.636 52.6178 26.8057 53.3249 25.6789C54.0909 24.5521 54.4444 23.1881 54.4444 21.4683C54.4444 20.045 54.1498 18.7996 53.5017 17.7914C53.1481 16.7832 52.3232 15.8344 51.2626 15.0041Z" fill="black"/>
<path d="M5.06734 0.415116C4.06565 0.415116 3.06397 0.415122 2.18013 0.355817C1.29629 0.355817 0.589226 0.296509 0 0.296509V1.06747C0.883838 1.06747 1.59091 1.18608 2.00336 1.364C2.47474 1.54191 2.76936 1.83844 2.94613 2.31287C3.1229 2.78731 3.18181 3.49896 3.18181 4.44784V24.137C3.18181 25.0859 3.1229 25.7975 2.94613 26.272C2.76936 26.7464 2.47474 27.0429 2.00336 27.2208C1.53198 27.3988 0.883838 27.4581 0 27.5174V28.2883C0.530303 28.229 1.29629 28.229 2.18013 28.1697C3.06397 28.1697 4.00673 28.1697 5.06734 28.1697C6.0101 28.1697 6.89394 28.1697 7.77778 28.1697C8.66162 28.1697 9.42761 28.229 10.0168 28.2883V27.5174C9.133 27.4581 8.42592 27.3395 8.01346 27.2208C7.54208 27.0429 7.24748 26.7464 7.07071 26.272C6.89394 25.7975 6.83501 25.0859 6.83501 24.137V4.44784C6.83501 3.49896 6.89394 2.72801 7.07071 2.31287C7.24748 1.83844 7.54208 1.54191 8.01346 1.364C8.48484 1.18608 9.133 1.06747 10.0168 1.06747V0.296509C9.42761 0.296509 8.66162 0.355817 7.77778 0.355817C6.89394 0.415122 5.95117 0.415116 5.06734 0.415116Z" fill="black"/>
<path d="M33.2323 0.415089C32.5841 0.415089 31.8771 0.415095 31.1111 0.35579C30.3451 0.35579 29.6969 0.296482 29.2255 0.296482V1.06744C30.2272 1.06744 30.9932 1.24536 31.5235 1.48258C32.0538 1.71979 32.3484 2.07563 32.5252 2.60937C32.702 3.14311 32.7609 3.91407 32.7609 4.86294V21.8241L18.8552 0.237183C18.4427 0.237183 17.9713 0.296482 17.441 0.296482C16.9107 0.296482 16.3804 0.35579 15.7912 0.35579C15.143 0.35579 14.4949 0.355787 13.7878 0.296482C13.1397 0.296482 12.5505 0.237183 12.138 0.237183V1.00814C13.0218 1.00814 13.7289 1.12675 14.1414 1.30466C14.6128 1.48257 14.9074 1.7791 15.0841 2.25354C15.2609 2.72798 15.3198 3.43964 15.3198 4.38851V23.6625C15.3198 24.6114 15.2609 25.3824 15.0841 25.9161C14.9074 26.4499 14.6128 26.865 14.1414 27.0429C13.67 27.2801 13.0218 27.3987 12.138 27.458V28.229C12.6094 28.1697 13.1397 28.1697 13.7878 28.1104C14.436 28.1104 15.143 28.1104 15.7912 28.1104C16.4983 28.1104 17.2053 28.1104 17.9713 28.1104C18.7373 28.1104 19.3266 28.1697 19.7979 28.229V27.458C18.7963 27.3987 18.0303 27.2801 17.5 27.0429C16.9697 26.8057 16.675 26.4499 16.4983 25.9161C16.3215 25.3824 16.2626 24.6114 16.2626 23.6625V2.72798L32.8198 28.4662H33.2912H33.7626V4.92225C33.7626 3.97337 33.8215 3.20241 33.9983 2.66867C34.175 2.13493 34.4697 1.7791 34.941 1.54188C35.4124 1.30467 36.0606 1.18606 36.9444 1.12675V0.35579C36.5319 0.35579 36.0016 0.415089 35.2946 0.415089C34.5875 0.415089 33.8804 0.415089 33.2323 0.415089Z" fill="black"/>
<path d="M79.0738 0.296509C78.3668 0.296509 77.3651 0.296512 76.2456 0.355817C75.0671 0.355817 74.0654 0.415116 73.1227 0.415116C72.2388 0.415116 71.355 0.415116 70.4711 0.415116C69.5873 0.355812 68.8802 0.355813 68.291 0.296509V1.06747C69.1749 1.06747 69.8819 1.18608 70.2944 1.364C70.7658 1.54191 71.0604 1.83844 71.2371 2.31287C71.4139 2.78731 71.4728 3.49896 71.4728 4.44784V24.137C71.4728 25.0859 71.4139 25.7975 71.2371 26.272C71.0604 26.7464 70.7658 27.0429 70.2944 27.2208C69.823 27.3988 69.1749 27.4581 68.291 27.5174V28.2883C68.8213 28.229 69.5873 28.229 70.4711 28.1697C71.355 28.1697 72.2978 28.1697 73.1816 28.1697C73.7708 28.1697 74.419 28.1697 75.0671 28.1697C75.7742 28.1697 76.4223 28.229 77.0705 28.229C77.7186 28.229 78.2489 28.2883 78.6614 28.2883C81.6664 28.2883 84.259 27.6953 86.3802 26.5092C88.5015 25.3231 90.1513 23.6626 91.2708 21.4683C92.3903 19.3333 92.9206 16.7832 92.9206 13.9366C92.9206 9.54804 91.8011 6.10837 89.5031 3.79549C87.323 1.48261 83.7876 0.296509 79.0738 0.296509ZM88.1479 21.5276C87.4998 23.544 86.4392 25.0859 84.8483 26.0941C83.2573 27.1615 81.0772 27.636 78.19 27.636C76.9526 27.636 76.1866 27.3988 75.8331 26.9836C75.4796 26.5092 75.2439 25.6196 75.2439 24.2556V4.44784C75.2439 3.08383 75.4207 2.13496 75.7742 1.71983C76.1277 1.24539 76.9526 1.06747 78.1311 1.06747C80.8415 1.06747 83.0217 1.54191 84.6126 2.49078C86.2035 3.43966 87.323 4.92228 88.0301 6.87933C88.7371 8.83639 89.0907 11.2679 89.0907 14.2331C89.0907 17.0797 88.7371 19.5112 88.1479 21.5276Z" fill="black"/>
<path d="M139.529 25.9754C139.175 26.4498 138.88 26.8056 138.586 27.0428C138.291 27.2801 137.938 27.458 137.466 27.458C136.877 27.458 136.465 27.2208 136.17 26.7463C135.875 26.2126 135.64 25.3823 135.345 24.2555L134.343 20.2228C133.99 18.5623 133.401 17.3762 132.635 16.6052C131.869 15.8343 130.572 15.3005 128.805 15.004C128.628 15.004 128.451 14.9447 128.333 14.9447C129.217 14.8261 130.042 14.6482 130.749 14.3516C132.104 13.8179 133.165 13.1656 133.931 12.3946C134.697 11.6236 135.227 10.7341 135.581 9.84449C135.875 8.95492 136.052 8.12465 136.052 7.29439C136.052 5.98968 135.699 4.80359 134.991 3.79541C134.284 2.72793 133.224 1.89766 131.869 1.30461C130.454 0.711563 128.687 0.415039 126.566 0.415039C126.094 0.415039 125.269 0.415043 124.15 0.474347C123.03 0.474347 121.852 0.533656 120.614 0.533656C119.731 0.533656 118.847 0.533652 117.963 0.474347C117.079 0.474347 116.372 0.415039 115.783 0.415039V1.186C116.667 1.186 117.374 1.30461 117.786 1.48253C118.257 1.66044 118.552 1.95697 118.729 2.4314C118.906 2.90584 118.965 3.61749 118.965 4.56637V24.2555C118.965 25.2044 118.906 25.9161 118.729 26.3905C118.552 26.8649 118.257 27.1615 117.786 27.3394C117.315 27.5173 116.667 27.5766 115.783 27.6359V28.4069C116.313 28.3476 117.079 28.3475 117.963 28.2882C118.847 28.2882 119.789 28.2882 120.85 28.2882C121.793 28.2882 122.677 28.2882 123.56 28.2882C124.444 28.2882 125.21 28.3476 125.8 28.4069V27.6359C124.916 27.5766 124.209 27.458 123.796 27.3394C123.325 27.1615 123.03 26.8649 122.853 26.3905C122.677 25.9161 122.618 25.2044 122.618 24.2555V15.1226H125.623H126.33C127.39 15.1226 128.156 15.3598 128.687 15.8343C129.217 16.3087 129.63 16.9611 129.924 17.7913C130.219 18.6216 130.513 19.6298 130.749 20.7566L131.633 24.73C131.986 26.4498 132.576 27.5766 133.283 28.1103C133.99 28.6441 134.874 28.9999 135.816 28.9999C136.877 28.9999 137.702 28.7627 138.291 28.3476C138.88 27.9324 139.47 27.2801 140 26.4498L139.529 25.9754ZM123.148 1.77905C123.502 1.30461 124.326 1.1267 125.505 1.1267C127.921 1.1267 129.571 1.71975 130.572 2.84653C131.574 3.97332 132.045 5.63385 132.045 7.70952C132.045 8.95492 131.869 10.0224 131.515 11.0306C131.161 12.0388 130.513 12.8097 129.512 13.4028C128.51 13.9958 127.096 14.2923 125.21 14.2923H122.559V4.56637C122.618 3.14305 122.794 2.25349 123.148 1.77905Z" fill="black"/>
<path d="M113.367 23.3067C113.367 22.1206 113.426 21.1717 113.485 20.46H112.601C112.424 22.1799 112.13 23.6032 111.776 24.6114C111.423 25.6195 110.774 26.3905 109.95 26.8056C109.125 27.2801 107.828 27.458 106.178 27.458H103.291C102.407 27.458 101.7 27.3987 101.288 27.2208C100.817 27.1022 100.522 26.7463 100.345 26.2719C100.168 25.7975 100.109 25.0858 100.109 24.1369V14.6482H102.702C103.881 14.6482 104.705 14.8854 105.177 15.4191C105.648 15.9529 106.002 16.6052 106.12 17.3762C106.237 18.2065 106.414 19.0367 106.473 19.867H107.357C107.239 18.3844 107.18 17.1983 107.18 16.4273C107.18 15.6563 107.121 14.8854 107.121 14.233C107.121 13.5807 107.121 12.869 107.121 12.0388C107.121 11.2678 107.18 10.0817 107.239 8.59909H106.355C106.296 9.07353 106.179 9.60727 106.12 10.2003C106.061 10.7934 105.884 11.3864 105.707 11.9202C105.471 12.4539 105.177 12.9283 104.705 13.2842C104.234 13.64 103.586 13.8179 102.702 13.8179H100.109V4.44776C100.109 3.49889 100.168 2.72793 100.345 2.3128C100.522 1.83836 100.817 1.54184 101.288 1.42323C101.759 1.30462 102.407 1.186 103.291 1.186H106.532C107.946 1.186 108.948 1.36392 109.655 1.77905C110.362 2.13488 110.833 2.78723 111.128 3.73611C111.423 4.62568 111.658 5.87108 111.776 7.4723H112.66C112.66 7.17578 112.601 6.81995 112.601 6.40482C112.601 5.98968 112.542 5.51524 112.542 5.04081C112.542 4.56637 112.542 3.91402 112.601 3.08375C112.66 2.19418 112.719 1.30461 112.837 0.415039C111.658 0.474344 110.244 0.474351 108.712 0.533656C107.18 0.533656 105.825 0.533656 104.588 0.533656H102.349C101.465 0.533656 100.463 0.533656 99.4024 0.533656C98.3418 0.533656 97.2812 0.533652 96.2206 0.474347C95.16 0.474347 94.0994 0.415039 93.1566 0.415039V1.186C94.0405 1.186 94.7475 1.30461 95.16 1.48253C95.6314 1.66044 95.926 1.95697 96.1027 2.4314C96.2795 2.90584 96.3384 3.61749 96.3384 4.56637V24.2555C96.3384 25.2044 96.2795 25.9161 96.1027 26.3905C95.926 26.8649 95.6314 27.1615 95.16 27.3394C94.6886 27.5173 94.0405 27.5766 93.1566 27.6359V28.4069C94.0994 28.4069 95.16 28.3476 96.2206 28.3476C97.2812 28.3476 98.3418 28.3476 99.4024 28.2882C100.463 28.2882 101.406 28.2882 102.349 28.2882H104.588C105.884 28.2882 107.416 28.2882 109.066 28.2882C110.774 28.2882 112.248 28.3476 113.603 28.4069C113.485 27.3987 113.426 26.4498 113.367 25.5009C113.367 24.5521 113.367 23.8404 113.367 23.3067Z" fill="black"/>
<path d="M61.2795 0.415116C60.2778 0.415116 59.2761 0.415122 58.3923 0.355817C57.5085 0.355817 56.8014 0.296509 56.2122 0.296509V1.06747C57.096 1.06747 57.8031 1.18608 58.2155 1.364C58.6869 1.54191 58.9815 1.83844 59.1583 2.31287C59.3351 2.78731 59.394 3.49896 59.394 4.44784V24.137C59.394 25.0859 59.3351 25.7975 59.1583 26.272C58.9815 26.7464 58.6869 27.0429 58.2155 27.2208C57.7441 27.3988 57.096 27.4581 56.2122 27.5174V28.2883C56.7425 28.229 57.5085 28.229 58.3923 28.1697C59.2761 28.1697 60.2189 28.1697 61.2795 28.1697C62.2223 28.1697 63.1061 28.1697 63.9899 28.1697C64.8738 28.1697 65.6398 28.229 66.229 28.2883V27.5174C65.3452 27.4581 64.6381 27.3395 64.2256 27.2208C63.7543 27.0429 63.4596 26.7464 63.2829 26.272C63.1061 25.7975 63.0472 25.0859 63.0472 24.137V4.44784C63.0472 3.49896 63.1061 2.72801 63.2829 2.31287C63.4596 1.83844 63.7543 1.54191 64.2256 1.364C64.697 1.18608 65.3452 1.06747 66.229 1.06747V0.296509C65.6398 0.296509 64.8738 0.355817 63.9899 0.355817C63.1061 0.415122 62.1633 0.415116 61.2795 0.415116Z" fill="black"/>
</g>
<defs>
<clipPath id="clip0_493_6290">
<rect width="140" height="29" fill="white"/>
</clipPath>
</defs>
</svg>
