<svg width="120" height="29" viewBox="0 0 120 29" fill="none" xmlns="http://www.w3.org/2000/svg">
<g clip-path="url(#clip0_493_6304)">
<path d="M22.9333 26.9958C22.637 27.2316 22.2815 27.4084 21.8074 27.4084C21.2148 27.4084 20.8 27.1727 20.5037 26.7011C20.2074 26.1706 19.9704 25.3454 19.6741 24.2255L18.6667 20.2174C18.3111 18.567 17.7185 17.3881 16.9482 16.6219C16.1778 15.8556 14.8741 15.3251 13.1556 15.0304C12.9778 15.0304 12.8 14.9715 12.6815 14.9715C13.5704 14.8536 14.4 14.6767 15.0519 14.382C16.4148 13.8515 17.4222 13.2032 18.2519 12.4369C19.0222 11.6706 19.5556 10.7865 19.9111 9.90235C20.2074 9.01821 20.3852 8.193 20.3852 7.3678C20.3852 6.07105 20.0296 4.95113 19.3185 3.89015C18.6074 2.82917 17.5407 2.06292 16.1778 1.41454C14.7556 0.825111 12.9778 0.530396 10.8444 0.530396C10.3704 0.530396 9.54075 0.530399 8.41482 0.589342C7.2889 0.589342 6.10371 0.64828 4.85927 0.64828C3.97038 0.64828 3.08149 0.648285 2.1926 0.589342C1.30371 0.589342 0.592593 0.530396 0 0.530396V1.29666C0.888889 1.29666 1.60001 1.41454 2.01482 1.59137C2.48889 1.7682 2.78519 2.06292 2.96296 2.53447C3.14074 3.00601 3.20001 3.71332 3.20001 4.65641V24.1076C3.20001 25.0507 3.14074 25.758 2.96296 26.2296C2.78519 26.7011 2.48889 26.9958 2.01482 27.1727C1.54075 27.3495 0.888889 27.4084 0 27.4674V28.2337C0.533333 28.1747 1.30371 28.1747 2.1926 28.1158C3.08149 28.1158 4.02963 28.1158 5.0963 28.1158C6.04445 28.1158 6.93334 28.1158 7.82223 28.1158C8.71112 28.1158 9.48148 28.1747 10.0741 28.2337V27.4674C9.18519 27.4084 8.47408 27.2906 8.05926 27.1727C7.58519 26.9958 7.28889 26.7011 7.11111 26.2296C6.93333 25.758 6.87408 25.0507 6.87408 24.1076V15.1483H9.8963H10.6074C11.6741 15.1483 12.4445 15.3841 12.9778 15.8556C13.5111 16.3271 13.9259 16.9755 14.2222 17.8007C14.5185 18.6259 14.8148 19.628 15.0519 20.7479L15.9407 24.6971C16.2963 26.3475 16.8889 27.4674 17.6 28.0568C18.3111 28.6462 19.2 28.941 20.1481 28.941C21.2148 28.941 22.0445 28.7052 22.637 28.2926C23.2296 27.88 23.8222 27.2316 24.3556 26.4064L23.763 25.9938C23.5259 26.4064 23.2296 26.7601 22.9333 26.9958ZM7.52593 2.00397C7.88149 1.53243 8.71112 1.3556 9.8963 1.3556C12.2667 1.3556 13.9852 1.94503 14.9926 3.06495C16 4.18487 16.4741 5.77633 16.4741 7.89828C16.4741 9.07714 16.2963 10.1971 15.9407 11.1991C15.5852 12.2011 14.9333 12.9674 13.9259 13.5568C12.9185 14.1463 11.4963 14.441 9.65926 14.441H6.99259V4.7743C6.93334 3.35966 7.11112 2.47552 7.52593 2.00397Z" fill="#D71B31"/>
<path d="M42.8445 1.70935C40.9482 0.589427 38.7557 0 36.2668 0C33.8371 0 31.6445 0.589426 29.7482 1.82723C27.852 3.06504 26.3705 4.77439 25.3038 6.95529C24.2371 9.13618 23.7038 11.7297 23.7038 14.6179C23.7038 17.624 24.2371 20.1585 25.2445 22.2805C26.3112 24.4024 27.7334 25.9939 29.6297 27.1728C31.526 28.2927 33.7186 28.8821 36.2075 28.8821C38.6371 28.8821 40.8297 28.2927 42.726 27.0549C44.6223 25.8171 46.1038 24.1077 47.1705 21.9268C48.2371 19.7459 48.7705 17.1524 48.7705 14.2642C48.7705 11.2581 48.2371 8.72358 47.2297 6.60163C46.1631 4.42073 44.6816 2.82927 42.8445 1.70935ZM43.7334 21.5732C43.0223 23.6362 42.0742 25.2866 40.7705 26.4655C39.526 27.6443 38.0445 28.2337 36.326 28.2337C34.726 28.2337 33.2445 27.7033 31.9408 26.5833C30.6371 25.4634 29.5705 23.8719 28.8001 21.8089C28.0297 19.7459 27.6149 17.3293 27.6149 14.5589C27.6149 11.8476 27.9705 9.4309 28.6816 7.36789C29.3927 5.30488 30.3408 3.65447 31.6445 2.47561C32.889 1.29675 34.3705 0.707315 36.089 0.707315C37.7482 0.707315 39.1705 1.23781 40.5334 2.35772C41.8371 3.47764 42.9038 5.06911 43.6742 7.07317C44.4445 9.13618 44.8594 11.5528 44.8594 14.3232C44.8001 17.0935 44.4445 19.4512 43.7334 21.5732Z" fill="#D71B31"/>
<path d="M119.822 25.4634C119.763 24.5203 119.763 23.813 119.763 23.3414C119.763 22.1626 119.822 21.2195 119.882 20.5122H118.993C118.815 22.2215 118.519 23.5772 118.163 24.6382C117.807 25.6402 117.156 26.3475 116.326 26.8191C115.496 27.2906 114.193 27.4675 112.533 27.4675H109.63C108.741 27.4675 108.03 27.4085 107.615 27.2317C107.141 27.1138 106.845 26.7601 106.667 26.2886C106.489 25.8171 106.43 25.1097 106.43 24.1666V14.7358H109.037C110.222 14.7358 110.993 14.9715 111.526 15.502C112 16.0325 112.356 16.6809 112.474 17.4471C112.593 18.2723 112.77 19.0386 112.83 19.9228H113.719C113.6 18.4492 113.541 17.2703 113.541 16.5041C113.541 15.7378 113.482 14.9715 113.482 14.3232C113.482 13.6748 113.482 12.9675 113.482 12.1423C113.482 11.376 113.541 10.1971 113.6 8.72357H112.711C112.652 9.19511 112.533 9.7256 112.474 10.315C112.415 10.9045 112.237 11.4939 112.059 12.0244C111.822 12.5549 111.526 13.0264 111.052 13.3801C110.578 13.7337 109.926 13.9106 109.037 13.9106H106.43V4.65649C106.43 3.7134 106.489 2.94714 106.667 2.53454C106.845 2.063 107.141 1.76828 107.615 1.65039C108.089 1.53251 108.741 1.41462 109.63 1.41462H112.889C114.311 1.41462 115.319 1.59145 116.03 2.00405C116.741 2.35771 117.215 3.00608 117.511 3.94917C117.808 4.83332 118.045 6.07112 118.163 7.60364H119.052C119.052 7.30893 118.993 6.95527 118.993 6.54266C118.993 6.13006 118.933 5.65852 118.933 5.18698C118.933 4.71544 118.933 4.06706 118.993 3.24186C119.052 2.35771 119.111 1.47356 119.23 0.589417C118.045 0.64836 116.622 0.648358 115.082 0.707301C113.541 0.707301 112.178 0.707301 110.933 0.707301H108.682C107.793 0.707301 106.785 0.707301 105.719 0.707301C104.652 0.707301 103.585 0.707297 102.519 0.648354C101.452 0.648354 100.385 0.589417 99.4371 0.589417V1.35568C100.326 1.35568 101.037 1.47356 101.452 1.65039C101.926 1.82722 102.222 2.12193 102.4 2.59348C102.578 3.06502 102.637 3.77234 102.637 4.71543V24.1666C102.637 25.1097 102.578 25.8171 102.4 26.2886C102.222 26.7601 101.926 27.0549 101.452 27.2317C100.978 27.4085 100.326 27.4675 99.4371 27.5264V28.2927C100.385 28.2927 101.452 28.2337 102.519 28.2337C103.585 28.2337 104.652 28.2337 105.719 28.1748C106.785 28.1748 107.733 28.1748 108.682 28.1748H110.933C112.237 28.1748 113.719 28.1748 115.437 28.1748C117.096 28.1748 118.637 28.2337 120 28.2927C119.882 27.3496 119.822 26.4065 119.822 25.4634Z" fill="#D71B31"/>
<path d="M70.222 0.707301C69.5702 0.707301 68.8591 0.707297 68.0887 0.648354C67.3183 0.648354 66.6665 0.589417 66.1924 0.589417V1.35568C67.0813 1.35568 67.7924 1.53251 68.3257 1.76828C68.8591 2.00405 69.2146 2.35771 69.4517 2.88819C69.6887 3.41868 69.8072 4.18494 69.8072 5.12803V17.3882C69.8072 19.3333 69.5702 21.0427 69.1554 22.6341C68.7405 24.1667 67.9702 25.4045 66.8443 26.2886C65.7776 27.1727 64.1776 27.5854 62.222 27.5854C60.7998 27.5854 59.7331 27.3496 58.8442 26.8191C58.0146 26.2886 57.3628 25.5813 56.948 24.6971C56.5331 23.813 56.2961 22.752 56.1183 21.5732C55.9998 20.3943 55.9405 19.0975 55.9405 17.8008V4.83332C55.9405 3.89023 55.9998 3.12396 56.1776 2.71136C56.3554 2.23982 56.6517 1.94511 57.1257 1.76828C57.5998 1.59145 58.2517 1.47356 59.1405 1.47356V0.707301C58.5479 0.707301 57.7776 0.766248 56.8887 0.766248C55.9998 0.766248 55.0517 0.825185 54.1628 0.825185C53.1554 0.825185 52.1479 0.825191 51.2591 0.766248C50.3702 0.766248 49.6591 0.707301 49.0665 0.707301V1.47356C49.9554 1.47356 50.6665 1.59145 51.0813 1.76828C51.5554 1.94511 51.8517 2.23982 52.0294 2.71136C52.2072 3.18291 52.2665 3.89023 52.2665 4.83332V17.1524C52.2665 18.9207 52.3257 20.3943 52.5035 21.5732C52.6813 22.752 52.9776 23.754 53.3924 24.5793C53.8072 25.4045 54.3998 26.1707 55.1702 26.878C56.0591 27.7032 57.0665 28.2337 58.1924 28.5284C59.3183 28.8232 60.5628 29 61.8072 29C63.4665 29 64.8887 28.6463 66.1331 27.9979C67.3776 27.3496 68.3257 26.4654 69.0368 25.3455C69.6294 24.3435 70.0442 23.1646 70.2813 21.8089C70.5183 20.4532 70.6368 18.8618 70.6368 17.0345V5.24592C70.6368 4.30283 70.6961 3.53657 70.8739 3.00608C71.0517 2.47559 71.348 2.12194 71.822 1.88616C72.2961 1.65039 72.948 1.53251 73.8368 1.47356V0.707301C73.422 0.707301 72.8887 0.766248 72.1776 0.766248C71.585 0.648361 70.9331 0.707301 70.222 0.707301Z" fill="#D71B31"/>
<path d="M94.5185 16.5631C93.9259 16.5631 93.2741 16.5631 92.6222 16.5631C91.9111 16.5631 91.2592 16.5632 90.6074 16.5042C89.9555 16.5042 89.4222 16.4453 88.9481 16.4453V17.2115C90.0741 17.2115 90.9037 17.3294 91.437 17.5062C92.0296 17.6831 92.3852 18.0367 92.6222 18.5672C92.8593 19.0977 92.9185 19.864 92.9185 20.9839V24.7562C92.9185 25.2278 92.8592 25.6404 92.7407 25.9351C92.6222 26.2298 92.2667 26.5835 91.7926 26.8782C91.3778 27.114 90.8444 27.4087 90.1333 27.7034C89.4222 27.9981 88.5926 28.116 87.6444 28.116C84.4444 28.116 82.0741 26.9961 80.5333 24.8152C78.9926 22.6343 78.2222 19.1566 78.2222 14.5001C78.2222 12.3782 78.4 10.492 78.8148 8.78266C79.2296 7.07331 79.8222 5.65868 80.5926 4.42088C81.363 3.24201 82.2518 2.29893 83.3185 1.65055C84.3852 1.00218 85.5704 0.70746 86.8741 0.70746C88.1778 0.70746 89.4815 1.00217 90.7259 1.53266C91.9704 2.06315 92.9778 2.82941 93.7481 3.7725C94.3407 4.47982 94.8148 5.36396 95.0518 6.42494C95.2889 7.42697 95.5259 8.48795 95.7037 9.60787H96.5926C96.5926 7.30909 96.5926 5.48185 96.6518 4.12616C96.6518 2.71153 96.7111 1.59161 96.7704 0.589575H95.8815C95.7037 2.18104 95.4074 3.00624 94.8741 3.00624C94.6963 3.00624 94.4 2.88835 94.1037 2.59364C93.1556 1.88632 92.2074 1.29689 91.1407 0.825344C90.0741 0.294856 88.7111 0.059082 86.9926 0.059082C84.563 0.059082 82.3704 0.648517 80.4741 1.88632C78.5778 3.12413 77.037 4.83348 75.9704 7.07332C74.8444 9.31315 74.3111 11.9656 74.3111 14.9717C74.3111 17.8599 74.8444 20.3944 75.8518 22.4575C76.8592 24.5794 78.3407 26.1709 80.2963 27.2908C82.2518 28.4107 84.563 28.9412 87.2889 28.9412C88.5926 28.9412 89.7185 28.7644 90.6667 28.3518C91.6148 27.9981 92.563 27.4676 93.4518 26.8192C93.8667 26.5245 94.1037 26.3477 94.2815 26.2888C94.4593 26.2298 94.5778 26.1709 94.7555 26.1709C95.1111 26.1709 95.3481 26.4066 95.5259 26.9371C95.7037 27.4676 95.8222 27.9392 95.8222 28.4107H96.5926V20.6302C96.5926 19.6871 96.6518 18.9209 96.7111 18.4493C96.8296 17.9778 97.0074 17.6831 97.3037 17.5062C97.6 17.3294 98.0148 17.2705 98.6074 17.2115V16.4453C98.1333 16.4453 97.5407 16.5042 96.8296 16.5042C96.1778 16.5042 95.3481 16.5631 94.5185 16.5631Z" fill="#D71B31"/>
</g>
<defs>
<clipPath id="clip0_493_6304">
<rect width="120" height="29" fill="white"/>
</clipPath>
</defs>
</svg>
