<svg xmlns="http://www.w3.org/2000/svg" width="62" height="29" fill="none"><path fill="#000" d="M23.347.118c-.715 0-1.49 0-2.263-.059C20.25.06 19.476 0 18.642 0v.827c1.131 0 2.025.236 2.62.59.596.355.894.946.953 1.772 0 .827-.238 1.95-.834 3.426l-6.67 17.128-7.445-19.49c-.357-.945-.536-1.595-.476-2.068.06-.472.297-.827.774-1.004.476-.177 1.191-.295 2.084-.295V.059c-.595 0-1.31.06-2.263.06S5.48.176 4.407.176c-.774 0-1.548 0-2.382-.059C1.191.118.536.06 0 .06v.827c.417 0 .893.236 1.43.532.535.354.952 1.004 1.37 2.067L12.804 29h.7150000000000001l9.648-24.57c.477-1.24 1.013-2.067 1.549-2.599.595-.532 1.131-.827 1.667-.945V.059c-.417 0-.834.06-1.31.06zM61.226 17.719c-.477-1.004-1.37-1.89-2.562-2.599-1.19-.768-2.918-1.24-5.062-1.535v-.06c1.549-.472 2.74-1.063 3.693-1.83q1.34-1.152 1.965-2.481a6.5 6.5 0 0 0 .596-2.776c0-1.89-.715-3.367-2.144-4.607C56.282.65 54.138.059 51.22.059c-.477 0-1.31 0-2.502.06-1.19 0-2.382.058-3.692.058-.894 0-1.787 0-2.74-.059-.953 0-1.668-.059-2.263-.059v.827c.953 0 1.608.118 2.084.295.477.177.775.473.953.945.179.473.238 1.24.238 2.186v20.14c0 .945-.059 1.713-.238 2.185-.178.473-.476.827-.953.945-.476.178-1.19.296-2.084.296v.827c.595-.06 1.31-.06 2.263-.118h2.8c1.667 0 3.156 0 4.347.059s2.085.059 2.68.059c2.025 0 3.812-.355 5.3-1.004 1.49-.65 2.621-1.595 3.396-2.776.774-1.182 1.19-2.54 1.19-4.076a8.4 8.4 0 0 0-.774-3.13M47.706 1.536c.357-.473 1.191-.71 2.442-.71 2.025 0 3.514.532 4.407 1.537s1.31 2.54 1.31 4.547c0 1.182-.178 2.245-.476 3.249s-.953 1.83-1.787 2.422q-1.34.885-3.752.885h-2.74V4.312c0-1.418.179-2.363.596-2.776m8.338 24.452c-1.191 1.24-3.157 1.83-5.837 1.83-.834 0-1.489-.058-1.906-.236-.416-.177-.714-.472-.893-.945-.179-.472-.238-1.18-.238-2.126V14.234h3.454c2.62 0 4.467.59 5.599 1.713 1.131 1.122 1.727 2.776 1.727 4.843-.12 2.186-.715 3.957-1.906 5.198M32.995.118c-1.072 0-2.084 0-2.978-.059C29.064.06 28.35 0 27.754 0v.827c.953 0 1.608.118 2.085.295s.774.473.953.945c.178.473.238 1.24.238 2.186v20.14c0 .945-.06 1.713-.239 2.185-.178.473-.476.827-.952.945-.477.178-1.192.296-2.085.296v.827c.596-.06 1.31-.06 2.263-.119h5.837c.953 0 1.727.06 2.382.119v-.71c-.953-.058-1.608-.176-2.084-.294-.477-.178-.775-.473-.953-.945-.179-.473-.238-1.24-.238-2.186v-20.2c0-1.003.06-1.712.238-2.185.178-.472.476-.827.953-.945.476-.177 1.19-.295 2.084-.295V.059c-.655 0-1.43.06-2.382.06z"/></svg>