<svg width="36" height="36" viewBox="0 0 36 36" fill="none" xmlns="http://www.w3.org/2000/svg">
<path d="M18 36C27.9411 36 36 27.9411 36 18C36 8.05887 27.9411 0 18 0C8.05887 0 0 8.05887 0 18C0 27.9411 8.05887 36 18 36Z" fill="#C67F92"/>
<path d="M23.5409 13.1716C22.1911 13.8806 20.9535 14.7852 19.8682 15.8561C20.5456 14.294 20.9862 12.6396 21.1757 10.9475C21.1757 8.87111 14.824 8.83063 14.824 10.9475C14.824 12.1255 15.6487 14.4244 16.2644 15.9781C15.1415 14.8597 13.859 13.9139 12.4588 13.1716C10.5328 12.3956 8.1217 18.2721 10.0855 19.0634C11.5188 19.4475 12.9992 19.6266 14.4827 19.5955C13.1978 20.334 12.0286 21.2577 11.0129 22.3369C9.74475 23.9813 14.7496 27.8924 16.0424 26.2158C16.7752 25.2659 17.5413 22.8712 17.9996 21.2629C18.4578 22.8712 19.224 25.2659 19.9574 26.2158C21.2501 27.8924 26.255 23.9813 24.9868 22.3369C23.9711 21.2577 22.8019 20.334 21.517 19.5955C23.0005 19.6266 24.4809 19.4474 25.9142 19.0634C27.878 18.2721 25.4669 12.3956 23.5409 13.1716M19.9584 18.4499L19.9486 18.4581C19.7671 18.5941 19.5626 18.6963 19.3449 18.7599C19.2765 18.7798 19.2071 18.7963 19.1371 18.8091C19.2191 18.8857 19.2956 18.968 19.3662 19.0552C19.5214 19.2469 19.6442 19.4627 19.7298 19.694C19.7408 19.7257 19.7528 19.759 19.7665 19.794C19.8731 20.0806 20.0191 20.4721 19.7818 20.6641C19.72 20.7146 19.6423 20.7415 19.5625 20.7401C19.3361 20.7058 19.1228 20.6125 18.944 20.4694C18.9085 20.4459 18.8757 20.4245 18.8467 20.4065C18.6385 20.2731 18.4536 20.1065 18.2993 19.9132C18.1796 19.764 18.079 19.6006 17.9996 19.4266C17.9208 19.6005 17.8205 19.7638 17.701 19.9127C17.5472 20.1055 17.3628 20.2717 17.1552 20.4049L17.0809 20.4519C16.7981 20.6318 16.446 20.855 16.2157 20.6625C16.0331 20.5093 16.1009 20.179 16.2693 19.6962C16.3546 19.4642 16.4775 19.2479 16.633 19.0558C16.7035 18.9685 16.7801 18.8863 16.8621 18.8097C16.7921 18.7971 16.7221 18.7807 16.651 18.7605C16.4332 18.6966 16.2285 18.5941 16.0468 18.4581L16.015 18.4334C15.7788 18.2503 15.4551 17.9992 15.5158 17.7242C15.5797 17.4316 15.9888 17.401 16.2879 17.3791L16.365 17.3731C16.5923 17.3569 16.8206 17.3821 17.0388 17.4475C17.1505 17.4806 17.2591 17.5238 17.363 17.5766C17.3315 17.4234 17.3156 17.2675 17.3155 17.1112C17.3145 16.8647 17.3538 16.6198 17.432 16.386L17.4445 16.3505C17.59 15.9382 17.7322 15.5969 17.9996 15.5969C18.2408 15.5969 18.3906 15.8857 18.5667 16.3838C18.6458 16.6179 18.6855 16.8635 18.6843 17.1106C18.6844 17.2662 18.6687 17.4214 18.6372 17.5738C18.7397 17.5226 18.8463 17.4803 18.9561 17.4475C19.1736 17.3823 19.4011 17.3569 19.6276 17.3725L19.6303 17.3731L19.6861 17.3775C19.9814 17.4015 20.3855 17.4344 20.4752 17.7067C20.5572 17.9577 20.2778 18.2016 19.9584 18.4499L19.9584 18.4499Z" stroke="white" stroke-linecap="round" stroke-linejoin="round"/>
</svg>
