<svg width="36" height="36" viewBox="0 0 36 36" fill="none" xmlns="http://www.w3.org/2000/svg">
<path d="M18 36C27.9411 36 36 27.9411 36 18C36 8.05887 27.9411 0 18 0C8.05887 0 0 8.05887 0 18C0 27.9411 8.05887 36 18 36Z" fill="#BE9B83"/>
<path d="M25.1324 22.2183L21.1587 16.8369C21.757 16.6134 22.3092 16.2819 22.7878 15.8589L18.0001 9.375L13.2118 15.8589C13.6904 16.2819 14.2426 16.6134 14.8409 16.8369L10.8672 22.2183C10.8672 22.2183 12.6992 24.0531 16.4987 24.4579V26.625H19.5014V24.4579C23.3003 24.0531 25.1323 22.2183 25.1323 22.2183" stroke="white" stroke-linecap="round" stroke-linejoin="round"/>
</svg>
