<svg width="36" height="36" viewBox="0 0 36 36" fill="none" xmlns="http://www.w3.org/2000/svg">
<path d="M18 36C27.9411 36 36 27.9411 36 18C36 8.05887 27.9411 0 18 0C8.05887 0 0 8.05887 0 18C0 27.9411 8.05887 36 18 36Z" fill="#65C6B7"/>
<path d="M23.6653 9.375L22.3878 10.5847M23.1715 15.1775C23.7024 17.3706 20.0297 16.8391 18.5846 16.5505C18.5326 16.54 18.4846 16.5148 18.4465 16.4778C18.4084 16.4409 18.3816 16.3938 18.3694 16.3421C18.3572 16.2904 18.36 16.2363 18.3776 16.1862C18.3952 16.1361 18.4267 16.0921 18.4686 16.0593C19.6261 15.156 22.6539 13.0396 23.1715 15.1775V15.1775ZM18.0461 17.7087C19.43 18.2144 22.8426 19.6724 21.2475 21.2685C19.6928 22.8243 18.2095 19.4418 17.6914 18.0671C17.6727 18.0174 17.6686 17.9634 17.6797 17.9115C17.6907 17.8595 17.7165 17.8119 17.7538 17.7741C17.7912 17.7364 17.8386 17.7101 17.8904 17.6985C17.9422 17.6869 17.9963 17.6905 18.0461 17.7087V17.7087ZM15.1774 23.1715C13.0401 22.6534 15.1559 19.6261 16.0599 18.4686C16.0925 18.4267 16.1365 18.3951 16.1866 18.3775C16.2367 18.3599 16.2908 18.357 16.3424 18.3692C16.3941 18.3815 16.4412 18.4083 16.4781 18.4464C16.5149 18.4846 16.5401 18.5326 16.5505 18.5846C16.8391 20.0292 17.3712 23.7024 15.1774 23.1715ZM22.3878 10.5847L10.5847 22.3878C12.1545 23.9309 14.2703 24.7914 16.4715 24.782C18.6727 24.7725 20.781 23.894 22.3375 22.3375C23.8939 20.781 24.7725 18.6727 24.782 16.4715C24.7914 14.2703 23.9309 12.1545 22.3878 10.5847V10.5847ZM10.5847 22.3878L9.375 23.6653C11.27 25.5603 13.8402 26.625 16.5202 26.625C19.2001 26.625 21.7703 25.5603 23.6653 23.6653C25.5603 21.7703 26.625 19.2001 26.625 16.5202C26.625 13.8402 25.5603 11.27 23.6653 9.375L10.5847 22.3878Z" stroke="white" stroke-linecap="round" stroke-linejoin="round"/>
</svg>
