<svg width="36" height="36" viewBox="0 0 36 36" fill="none" xmlns="http://www.w3.org/2000/svg">
<path d="M18 36C27.9411 36 36 27.9411 36 18C36 8.05887 27.9411 0 18 0C8.05887 0 0 8.05887 0 18C0 27.9411 8.05887 36 18 36Z" fill="#E08282"/>
<path d="M19.8631 10.9912C19.8631 10.9912 15.4123 14.7753 19.0148 19.3975C19.8818 20.392 20.3661 21.663 20.3808 22.9824C20.3954 24.3017 19.9395 25.5831 19.0947 26.5967" stroke="white" stroke-linecap="round" stroke-linejoin="round"/>
<path d="M19.404 13.5195C19.404 13.5195 18.905 15.6004 21.1278 18.7939C23.9581 22.8601 19.0938 26.5966 19.0938 26.5966" stroke="white" stroke-linecap="round" stroke-linejoin="round"/>
<path d="M23.1286 9.4502C23.1286 9.4502 18.6505 12.4223 22.2434 17.7243C25.0255 21.8299 22.6181 24.0742 22.6181 24.0742" stroke="white" stroke-linecap="round" stroke-linejoin="round"/>
<path d="M22.6821 11.8125C22.6821 11.8125 21.8483 13.8559 24.1531 17.049C27.0305 21.0353 22.6194 24.0743 22.6194 24.0743" stroke="white" stroke-linecap="round" stroke-linejoin="round"/>
<path d="M15.9338 18.9027C15.7731 18.9456 15.6073 18.9661 15.441 18.9636C14.9607 18.9459 14.4938 18.8002 14.0887 18.5416C13.6836 18.283 13.3549 17.9209 13.1367 17.4927C13.1155 17.4601 13.0864 17.4334 13.0523 17.4149C13.0181 17.3964 12.9799 17.3867 12.941 17.3867C12.9022 17.3867 12.8639 17.3964 12.8298 17.4149C12.7956 17.4334 12.7666 17.4601 12.7453 17.4927C11.8199 18.9604 10.5153 19.1146 9.94912 18.903C9.9117 18.893 9.87243 18.8921 9.83457 18.9003C9.79672 18.9086 9.76137 18.9257 9.73145 18.9503C9.70154 18.9749 9.67792 19.0063 9.66256 19.0418C9.6472 19.0774 9.64053 19.1161 9.64312 19.1548V20.8576C9.6509 21.8457 9.96674 22.8067 10.5466 23.6067C11.1265 24.4068 11.9415 25.0059 12.8781 25.3208C12.919 25.3331 12.9626 25.3331 13.0035 25.3208C13.9402 25.006 14.7553 24.4069 15.3353 23.6068C15.9152 22.8068 16.2311 21.8457 16.2389 20.8576V19.1548C16.2412 19.1163 16.2345 19.0777 16.2191 19.0423C16.2037 19.0069 16.1802 18.9757 16.1505 18.9511C16.1207 18.9265 16.0856 18.9093 16.0479 18.9009C16.0103 18.8925 15.9712 18.8931 15.9338 18.9027V18.9027Z" stroke="white" stroke-miterlimit="10"/>
</svg>
