<svg width="36" height="36" viewBox="0 0 36 36" fill="none" xmlns="http://www.w3.org/2000/svg">
<path d="M18 36C27.9411 36 36 27.9411 36 18C36 8.05887 27.9411 0 18 0C8.05887 0 0 8.05887 0 18C0 27.9411 8.05887 36 18 36Z" fill="#7AC071"/>
<path d="M12.8887 18.5326L15.3209 21.1434L19.8322 15.6826" stroke="white" stroke-linecap="round" stroke-linejoin="round"/>
<path d="M19.3959 25.2633C18.5151 25.7706 17.5978 26.2115 16.6514 26.5822C16.5627 26.6062 16.4692 26.6062 16.3805 26.5822C16.3108 26.5628 9.39062 24.6087 9.39062 17.8816V13.0619C9.391 12.982 9.40998 12.9033 9.44606 12.832C9.48214 12.7607 9.53432 12.6988 9.59848 12.6512C9.66264 12.6036 9.73701 12.5716 9.81569 12.5577C9.89437 12.5438 9.97521 12.5484 10.0518 12.5712C11.2751 12.9836 14.094 12.683 16.0935 9.82179C16.1436 9.75746 16.2078 9.70543 16.281 9.66963C16.3543 9.63384 16.4348 9.61523 16.5163 9.61523C16.5979 9.61523 16.6783 9.63384 16.7516 9.66963C16.8249 9.70543 16.889 9.75746 16.9391 9.82179C18.5953 12.1919 20.5607 12.6893 21.9179 12.6893C22.2764 12.6942 22.6341 12.6544 22.9827 12.5706C23.0592 12.5486 23.1398 12.5445 23.2181 12.5588C23.2964 12.573 23.3704 12.6052 23.4342 12.6527C23.498 12.7003 23.55 12.762 23.586 12.833C23.6221 12.904 23.6412 12.9823 23.6419 13.0619V17.38" stroke="white" stroke-linecap="round" stroke-linejoin="round"/>
<path d="M23.6035 17.9621C23.6309 17.7693 23.644 17.5747 23.6426 17.3799" stroke="white" stroke-linecap="round" stroke-linejoin="round"/>
<path d="M23.625 26.625C24.8676 26.625 25.875 25.6176 25.875 24.375C25.875 23.1324 24.8676 22.125 23.625 22.125C22.3824 22.125 21.375 23.1324 21.375 24.375C21.375 25.6176 22.3824 26.625 23.625 26.625Z" stroke="white" stroke-linecap="round" stroke-linejoin="round"/>
<path d="M21.375 24.375C22.6176 24.375 23.625 23.3676 23.625 22.125C23.625 20.8824 22.6176 19.875 21.375 19.875C20.1324 19.875 19.125 20.8824 19.125 22.125C19.125 23.3676 20.1324 24.375 21.375 24.375Z" stroke="white" stroke-linecap="round" stroke-linejoin="round"/>
<path d="M24.375 23.625C25.6176 23.625 26.625 22.6176 26.625 21.375C26.625 20.1324 25.6176 19.125 24.375 19.125C23.1324 19.125 22.125 20.1324 22.125 21.375C22.125 22.6176 23.1324 23.625 24.375 23.625Z" stroke="white" stroke-linecap="round" stroke-linejoin="round"/>
</svg>
