<svg width="36" height="36" viewBox="0 0 36 36" fill="none" xmlns="http://www.w3.org/2000/svg">
<path d="M18 36C27.9411 36 36 27.9411 36 18C36 8.05887 27.9411 0 18 0C8.05887 0 0 8.05887 0 18C0 27.9411 8.05887 36 18 36Z" fill="#C4B8BC"/>
<path d="M16.2593 16.1951H16.2737" stroke="white" stroke-linecap="round" stroke-linejoin="round"/>
<path d="M11.7593 17.6951H11.7737" stroke="white" stroke-linecap="round" stroke-linejoin="round"/>
<path d="M23.7593 19.1951H23.7737" stroke="white" stroke-linecap="round" stroke-linejoin="round"/>
<path d="M23.7593 16.1951H23.7737" stroke="white" stroke-linecap="round" stroke-linejoin="round"/>
<path d="M10.8818 21.3118H14.9556C15.9179 21.3118 16.8408 21.694 17.5212 22.3745H18.5839C19.2643 21.694 20.1872 21.3118 21.1494 21.3118H25.9732" stroke="white" stroke-linecap="round" stroke-linejoin="round"/>
<path d="M19.2624 24.6904C18.7569 23.2124 18.1487 19.3793 19.6794 10.1951C19.6794 10.1951 17.4888 18.9577 17.4888 25.5298C17.4888 25.8203 17.6042 26.0989 17.8096 26.3043C18.015 26.5097 18.2936 26.6251 18.5841 26.6251C18.8746 26.6251 19.1532 26.5097 19.3586 26.3043C19.564 26.0989 19.6794 25.8203 19.6794 25.5298C19.6777 25.3675 19.6393 25.2077 19.5671 25.0623C19.4949 24.917 19.3907 24.7898 19.2624 24.6904Z" stroke="white" stroke-linecap="round" stroke-linejoin="round"/>
<path d="M14.625 19.1265C15.0392 19.1265 15.375 18.7907 15.375 18.3765C15.375 17.9623 15.0392 17.6265 14.625 17.6265C14.2108 17.6265 13.875 17.9623 13.875 18.3765C13.875 18.7907 14.2108 19.1265 14.625 19.1265Z" stroke="white" stroke-linecap="round" stroke-linejoin="round"/>
<path d="M21.375 18.3765C21.7892 18.3765 22.125 18.0407 22.125 17.6265C22.125 17.2123 21.7892 16.8765 21.375 16.8765C20.9608 16.8765 20.625 17.2123 20.625 17.6265C20.625 18.0407 20.9608 18.3765 21.375 18.3765Z" stroke="white" stroke-linecap="round" stroke-linejoin="round"/>
</svg>
