<svg width="36" height="36" viewBox="0 0 36 36" fill="none" xmlns="http://www.w3.org/2000/svg">
<path d="M18 36C27.9411 36 36 27.9411 36 18C36 8.05887 27.9411 0 18 0C8.05887 0 0 8.05887 0 18C0 27.9411 8.05887 36 18 36Z" fill="#E08282"/>
<path d="M9.71875 14.5011C9.89357 14.2466 10.1277 14.0385 10.4009 13.8947C10.6742 13.7509 10.9783 13.6758 11.287 13.6758C11.5958 13.6758 11.8999 13.7509 12.1731 13.8947C12.4464 14.0385 12.6805 14.2466 12.8553 14.5011V14.5011C13.0301 14.7556 13.2643 14.9637 13.5375 15.1075C13.8107 15.2513 14.1148 15.3264 14.4236 15.3264C14.7324 15.3264 15.0365 15.2513 15.3097 15.1075C15.5829 14.9637 15.8171 14.7556 15.9919 14.5011C16.1985 14.2103 16.481 13.9818 16.8085 13.8405C17.1361 13.6992 17.4961 13.6505 17.8495 13.6997H18.2986C18.5187 13.6997 18.7298 13.6123 18.8854 13.4567C19.041 13.301 19.1285 13.09 19.1285 12.8699V12.8699C19.1285 12.6498 19.041 12.4387 18.8854 12.2831C18.7298 12.1275 18.5187 12.04 18.2986 12.04H17.7675" stroke="white" stroke-linecap="round" stroke-linejoin="round"/>
<path d="M9.71875 23.0929C9.89357 22.8384 10.1277 22.6303 10.4009 22.4865C10.6742 22.3427 10.9783 22.2676 11.287 22.2676C11.5958 22.2676 11.8999 22.3427 12.1731 22.4865C12.4464 22.6303 12.6805 22.8384 12.8553 23.0929C13.0301 23.3474 13.2643 23.5555 13.5375 23.6993C13.8107 23.8431 14.1148 23.9182 14.4236 23.9182C14.7324 23.9182 15.0365 23.8431 15.3097 23.6993C15.5829 23.5555 15.8171 23.3474 15.9919 23.0929V23.0929C16.137 22.8795 16.3245 22.6983 16.5428 22.5606C16.761 22.4229 17.0053 22.3316 17.2603 22.2924C17.5154 22.2533 17.7758 22.2671 18.0253 22.333C18.2748 22.3989 18.5081 22.5155 18.7105 22.6755C18.8442 22.7845 18.9512 22.9225 19.0236 23.079C19.0961 23.2355 19.1319 23.4064 19.1285 23.5788V23.5788C19.1284 23.8903 19.0047 24.1889 18.7845 24.4092C18.5643 24.6294 18.2656 24.7531 17.9541 24.7531" stroke="white" stroke-linecap="round" stroke-linejoin="round"/>
<path d="M9.71875 20.2278C9.88324 19.9883 10.1035 19.7925 10.3606 19.6572C10.6177 19.5219 10.9039 19.4512 11.1944 19.4512C11.4849 19.4512 11.771 19.5219 12.0281 19.6572C12.2852 19.7925 12.5055 19.9883 12.67 20.2278C12.8345 20.4672 13.0548 20.663 13.3119 20.7983C13.569 20.9336 13.8551 21.0043 14.1456 21.0043C14.4361 21.0043 14.7223 20.9336 14.9794 20.7983C15.2364 20.663 15.4567 20.4672 15.6213 20.2278V20.2278C15.7578 20.027 15.9343 19.8565 16.1396 19.7269C16.3449 19.5973 16.5748 19.5114 16.8148 19.4745C17.0548 19.4377 17.2998 19.4507 17.5346 19.5127C17.7693 19.5747 17.9888 19.6844 18.1793 19.835C18.305 19.9375 18.4058 20.0674 18.4739 20.2146C18.542 20.3619 18.5758 20.5227 18.5725 20.685V20.685" stroke="white" stroke-linecap="round" stroke-linejoin="round"/>
<path d="M9.71875 17.3889C9.88324 17.1494 10.1035 16.9536 10.3606 16.8183C10.6177 16.683 10.9039 16.6123 11.1944 16.6123C11.4849 16.6123 11.771 16.683 12.0281 16.8183C12.2852 16.9536 12.5055 17.1494 12.67 17.3889V17.3889C12.8345 17.6283 13.0548 17.8242 13.3119 17.9594C13.569 18.0947 13.8551 18.1654 14.1456 18.1654C14.4361 18.1654 14.7223 18.0947 14.9794 17.9594C15.2364 17.8242 15.4567 17.6283 15.6212 17.3889V17.3889C15.7578 17.1881 15.9342 17.0176 16.1396 16.888C16.3449 16.7584 16.5748 16.6725 16.8148 16.6357C17.0548 16.5988 17.2998 16.6118 17.5346 16.6738C17.7693 16.7358 17.9888 16.8455 18.1793 16.9961" stroke="white" stroke-linecap="round" stroke-linejoin="round"/>
<path d="M26.4357 15.9018C26.2751 15.9446 26.1092 15.9651 25.9429 15.9626C25.4626 15.9449 24.9958 15.7992 24.5907 15.5406C24.1856 15.282 23.8569 14.9199 23.6387 14.4917C23.6174 14.4592 23.5884 14.4324 23.5542 14.4139C23.5201 14.3954 23.4818 14.3857 23.443 14.3857C23.4041 14.3857 23.3659 14.3954 23.3317 14.4139C23.2975 14.4324 23.2685 14.4592 23.2473 14.4917C22.3219 15.9594 21.0173 16.1136 20.4511 15.9021C20.4137 15.8921 20.3744 15.8911 20.3365 15.8994C20.2987 15.9076 20.2633 15.9247 20.2334 15.9493C20.2035 15.9739 20.1799 16.0053 20.1645 16.0409C20.1492 16.0764 20.1425 16.1151 20.1451 16.1538V17.8567C20.1529 18.8447 20.4687 19.8057 21.0486 20.6058C21.6285 21.4058 22.4435 22.005 23.3801 22.3198C23.421 22.3321 23.4646 22.3321 23.5055 22.3198C24.4422 22.0051 25.2573 21.4059 25.8372 20.6059C26.4172 19.8058 26.7331 18.8448 26.7408 17.8567V16.1538C26.7432 16.1153 26.7364 16.0768 26.721 16.0414C26.7057 16.006 26.6822 15.9747 26.6524 15.9501C26.6227 15.9256 26.5875 15.9084 26.5499 15.9C26.5122 15.8916 26.4731 15.8922 26.4357 15.9018Z" stroke="white" stroke-miterlimit="10"/>
</svg>
