<svg width="48" height="48" viewBox="0 0 48 48" fill="none" xmlns="http://www.w3.org/2000/svg">
<path d="M24 48C37.2548 48 48 37.2548 48 24C48 10.7452 37.2548 0 24 0C10.7452 0 0 10.7452 0 24C0 37.2548 10.7452 48 24 48Z" fill="#F7BA4D"/>
<path d="M21.0832 14.655C21.0832 14.655 13.962 19.7004 19.7259 25.8634C24.5987 31.0735 19.8538 35.4622 19.8538 35.4622" stroke="white" stroke-linecap="round" stroke-linejoin="round"/>
<path d="M20.3502 18.0261C20.3502 18.0261 19.5518 20.8007 23.1084 25.0586C27.6368 30.4802 19.8538 35.4623 19.8538 35.4623" stroke="white" stroke-linecap="round" stroke-linejoin="round"/>
<path d="M26.31 12.5998C26.31 12.5998 19.1451 16.5626 24.8936 23.6319C29.345 29.106 25.4932 32.0985 25.4932 32.0985" stroke="white" stroke-linecap="round" stroke-linejoin="round"/>
<path d="M25.5935 15.7495C25.5935 15.7495 24.2594 18.4741 27.9471 22.7315C32.551 28.0466 25.4931 32.0985 25.4931 32.0985" stroke="white" stroke-linecap="round" stroke-linejoin="round"/>
<path d="M18.2962 23.924L20.6948 21.0229" stroke="white" stroke-linecap="round" stroke-linejoin="round"/>
<path d="M19.5159 25.6322L21.3829 23.3742" stroke="white" stroke-linecap="round" stroke-linejoin="round"/>
<path d="M21.8603 29.8872L22.8266 28.7185" stroke="white" stroke-linecap="round" stroke-linejoin="round"/>
<path d="M26.17 25.4168L28.1569 23.0137" stroke="white" stroke-linecap="round" stroke-linejoin="round"/>
<path d="M23.2434 20.9899L25.5153 18.242" stroke="white" stroke-linecap="round" stroke-linejoin="round"/>
<path d="M24.219 22.7327L25.0659 21.7083" stroke="white" stroke-linecap="round" stroke-linejoin="round"/>
<path d="M26.9207 27.5064L29.1985 24.7514" stroke="white" stroke-linecap="round" stroke-linejoin="round"/>
</svg>
