<svg width="36" height="36" viewBox="0 0 36 36" fill="none" xmlns="http://www.w3.org/2000/svg">
    <path
        d="M18 36C27.9411 36 36 27.9411 36 18C36 8.05887 27.9411 0 18 0C8.05887 0 0 8.05887 0 18C0 27.9411 8.05887 36 18 36Z"
        fill="#C6B9BD" />
    <path
        d="M21.5822 9.375H14.4178C11.6327 9.375 9.375 11.6327 9.375 14.4178V21.5822C9.375 24.3673 11.6327 26.625 14.4178 26.625H21.5822C24.3673 26.625 26.625 24.3673 26.625 21.5822V14.4178C26.625 11.6327 24.3673 9.375 21.5822 9.375Z"
        stroke="white" stroke-linecap="round" stroke-linejoin="round" />
    <path d="M18.735 9.375L16.875 13.875L14.625 15.375" stroke="white" stroke-linecap="round" stroke-linejoin="round" />
    <path d="M20.817 9.375L21.375 11.625L22.875 12.375L22.125 14.625V16.125" stroke="white" stroke-linecap="round"
        stroke-linejoin="round" />
    <path d="M19.125 20.625L17.625 21.375L18.375 24.375L18 26.625" stroke="white" stroke-linecap="round"
        stroke-linejoin="round" />
    <path d="M13.125 13.125L11.625 15.375L12.375 19.125L9.375 20.3985" stroke="white" stroke-linecap="round"
        stroke-linejoin="round" />
    <path d="M16.875 18.375L14.625 19.875L13.125 22.875H9.54375" stroke="white" stroke-linecap="round"
        stroke-linejoin="round" />
    <path d="M23.625 20.625L22.125 22.125L21.375 26.625" stroke="white" stroke-linecap="round"
        stroke-linejoin="round" />
    <path d="M26.625 14.625L24.375 16.125V18.375L26.625 21.1245" stroke="white" stroke-linecap="round"
        stroke-linejoin="round" />
</svg>