<svg width="36" height="36" viewBox="0 0 36 36" fill="none" xmlns="http://www.w3.org/2000/svg">
<path d="M18 36C27.9411 36 36 27.9411 36 18C36 8.05887 27.9411 0 18 0C8.05887 0 0 8.05887 0 18C0 27.9411 8.05887 36 18 36Z" fill="#A66F60"/>
<path d="M20.0733 9.48047C20.0733 9.48047 19.7355 12.8179 16.9436 12.6342C15.114 12.5138 15.6436 10.5397 16.9436 10.5397C17.6137 10.5964 18.2452 10.8766 18.7369 11.3354C20.0731 12.4653 20.3071 13.7658 19.2404 15.153C18.979 15.5075 18.6296 15.7877 18.2269 15.966C17.8241 16.1442 17.3818 16.2143 16.9436 16.1694C15.114 16.049 15.6436 14.0749 16.9436 14.0749C17.6043 14.1254 18.2299 14.3924 18.7235 14.8344C20.0808 15.9466 20.3166 17.2525 19.2643 18.6566C19.0043 19.0204 18.6526 19.309 18.245 19.493C17.8375 19.677 17.3885 19.75 16.9436 19.7046C15.114 19.5842 15.6436 17.6101 16.9436 17.6101C17.6137 17.6668 18.2452 17.947 18.7369 18.4058C19.384 18.9616 19.796 19.7424 19.8894 20.5903C19.9829 21.4382 19.7509 22.29 19.2404 22.9734C18.979 23.3279 18.6296 23.6081 18.2269 23.7863C17.8241 23.9646 17.3818 24.0347 16.9436 23.9898C15.114 23.8694 15.6436 21.8953 16.9436 21.8953C18.2436 21.8953 19.8496 24.084 19.3233 25.8713" stroke="white" stroke-linecap="round" stroke-linejoin="round"/>
<path d="M26.8233 9.48047C26.8233 9.48047 26.4856 12.8179 23.6937 12.6342C21.864 12.5138 22.3937 10.5397 23.6937 10.5397C24.3637 10.5964 24.9953 10.8766 25.4869 11.3354C26.8232 12.4653 27.0572 13.7658 25.9904 15.153C25.729 15.5075 25.3797 15.7877 24.9769 15.966C24.5741 16.1442 24.1318 16.2143 23.6937 16.1694C21.864 16.049 22.3937 14.0749 23.6937 14.0749C24.3544 14.1254 24.98 14.3924 25.4736 14.8344C26.1276 15.3853 26.5474 16.1644 26.6478 17.0136C26.7483 17.8628 26.5218 18.7184 26.0143 19.4066C25.7543 19.7704 25.4026 20.059 24.995 20.243C24.5875 20.427 24.1385 20.5 23.6936 20.4546C21.864 20.3342 22.3936 18.3601 23.6936 18.3601C24.3637 18.4168 24.9952 18.697 25.4869 19.1558C26.134 19.7116 26.546 20.4924 26.6394 21.3403C26.7329 22.1882 26.5009 23.04 25.9904 23.7234" stroke="white" stroke-linecap="round" stroke-linejoin="round"/>
<path d="M13.3231 9.48047C13.3231 9.48047 13.0158 12.5168 10.4757 12.3497C8.8111 12.2402 9.29295 10.4442 10.4757 10.4442C11.0853 10.4958 11.6599 10.7507 12.1072 11.1681C13.323 12.1961 13.5358 13.3793 12.5653 14.6413C12.3275 14.9639 12.0096 15.2188 11.6432 15.381C11.2767 15.5431 10.8743 15.6069 10.4757 15.566C8.8111 15.4565 9.29295 13.6605 10.4757 13.6605C11.0768 13.7064 11.646 13.9493 12.0951 14.3515C12.6901 14.8527 13.072 15.5616 13.1634 16.3341C13.2548 17.1067 13.0487 17.8851 12.5871 18.5113C12.3505 18.8423 12.0305 19.1048 11.6597 19.2722C11.2889 19.4397 10.8804 19.5061 10.4757 19.4647C8.81108 19.3552 9.29294 17.5592 10.4757 17.5592C11.0853 17.6108 11.6599 17.8657 12.1072 18.2831C12.696 18.7887 13.0708 19.4991 13.1558 20.2705C13.2408 21.042 13.0298 21.8169 12.5653 22.4387" stroke="white" stroke-linecap="round" stroke-linejoin="round"/>
</svg>
