<svg width="48" height="48" viewBox="0 0 48 48" fill="none" xmlns="http://www.w3.org/2000/svg">
<path d="M24 48C37.2548 48 48 37.2548 48 24C48 10.7452 37.2548 0 24 0C10.7452 0 0 10.7452 0 24C0 37.2548 10.7452 48 24 48Z" fill="#BE9B83"/>
<path d="M17.6885 20.5933C18.6857 20.5933 19.4942 22.4017 19.4942 23.399" stroke="white" stroke-linecap="round" stroke-linejoin="round"/>
<path d="M21.2999 20.5933C20.3026 20.5933 19.4942 22.4017 19.4942 23.399" stroke="white" stroke-linecap="round" stroke-linejoin="round"/>
<path d="M21.2999 20.5933C20.3026 20.5933 19.4942 18.7849 19.4942 17.7876" stroke="white" stroke-linecap="round" stroke-linejoin="round"/>
<path d="M17.6885 20.5933C18.6857 20.5933 19.4942 18.7849 19.4942 17.7876" stroke="white" stroke-linecap="round" stroke-linejoin="round"/>
<path d="M29.6885 18.5933C30.6857 18.5933 31.4942 20.4017 31.4942 21.399" stroke="white" stroke-linecap="round" stroke-linejoin="round"/>
<path d="M33.2999 18.5933C32.3026 18.5933 31.4942 20.4017 31.4942 21.399" stroke="white" stroke-linecap="round" stroke-linejoin="round"/>
<path d="M33.2999 18.5933C32.3026 18.5933 31.4942 16.7849 31.4942 15.7876" stroke="white" stroke-linecap="round" stroke-linejoin="round"/>
<path d="M29.6885 18.5933C30.6857 18.5933 31.4942 16.7849 31.4942 15.7876" stroke="white" stroke-linecap="round" stroke-linejoin="round"/>
<path d="M29.6885 23.5933V25.5933" stroke="white" stroke-linecap="round" stroke-linejoin="round"/>
<path d="M30.6885 24.5933H28.6885" stroke="white" stroke-linecap="round" stroke-linejoin="round"/>
<path d="M21.6789 14.5933H21.6982" stroke="white" stroke-linecap="round" stroke-linejoin="round"/>
<path d="M16.6789 24.5933H16.6982" stroke="white" stroke-linecap="round" stroke-linejoin="round"/>
<path d="M29.6789 12.5933H29.6982" stroke="white" stroke-linecap="round" stroke-linejoin="round"/>
<path d="M16.5093 28.4154H19.941C21.2241 28.4154 22.4545 28.9251 23.3618 29.8323H24.7787C25.6859 28.9251 26.9164 28.4154 28.1994 28.4154H31.6312" stroke="white" stroke-linecap="round" stroke-linejoin="round"/>
<path d="M25.4857 32.9728C24.8117 31.0022 24.0007 25.8913 26.0417 13.6457C26.0417 13.6457 23.1208 25.3293 23.1208 34.092C23.1218 34.4787 23.2761 34.8491 23.5499 35.1222C23.8237 35.3953 24.1946 35.5486 24.5813 35.5486C24.9679 35.5486 25.3388 35.3953 25.6126 35.1222C25.8864 34.8491 26.0407 34.4787 26.0417 34.092C26.0394 33.8756 25.9882 33.6625 25.8919 33.4687C25.7956 33.2749 25.6568 33.1054 25.4857 32.9728V32.9728Z" stroke="white" stroke-linecap="round" stroke-linejoin="round"/>
</svg>
