<svg width="36" height="36" viewBox="0 0 36 36" fill="none" xmlns="http://www.w3.org/2000/svg">
<path d="M18 36C27.9411 36 36 27.9411 36 18C36 8.05887 27.9411 0 18 0C8.05887 0 0 8.05887 0 18C0 27.9411 8.05887 36 18 36Z" fill="#C67F92"/>
<path d="M14.6134 10.9912C14.6134 10.9912 14.5086 11.0803 14.3441 11.2478" stroke="white" stroke-linecap="round" stroke-linejoin="round"/>
<path d="M13.4443 12.3577C12.6873 13.3919 12.3064 14.6537 12.3647 15.9341C12.423 17.2144 12.9171 18.4364 13.765 19.3975C14.5157 20.2476 14.9847 21.3094 15.1075 22.4369C15.2303 23.5644 15.0008 24.7022 14.4506 25.694" stroke="white" stroke-linecap="round" stroke-linejoin="round" stroke-dasharray="0.95 1.91"/>
<path d="M14.0736 26.3025C14.0025 26.4044 13.9262 26.5026 13.845 26.5966" stroke="white" stroke-linecap="round" stroke-linejoin="round"/>
<path d="M14.1552 13.5195C14.1306 13.6416 14.1162 13.7654 14.1122 13.8898" stroke="white" stroke-linecap="round" stroke-linejoin="round"/>
<path d="M14.2422 15.2651C14.5489 16.5381 15.1053 17.7376 15.8791 18.7939C17.9612 21.7852 15.879 24.5981 14.6327 25.8763" stroke="white" stroke-linecap="round" stroke-linejoin="round" stroke-dasharray="0.92 1.85"/>
<path d="M14.1296 26.3572C13.9539 26.5131 13.845 26.5967 13.845 26.5967" stroke="white" stroke-linecap="round" stroke-linejoin="round"/>
<path d="M18.6299 9.44971C18.5278 9.52049 18.4294 9.59646 18.3351 9.67731" stroke="white" stroke-linecap="round" stroke-linejoin="round"/>
<path d="M17.2985 10.814C16.3468 12.1758 15.5777 14.5261 17.7447 17.7239C19.4681 20.2672 19.2002 22.0962 18.7467 23.1199" stroke="white" stroke-linecap="round" stroke-linejoin="round" stroke-dasharray="1.03 2.06"/>
<path d="M18.3608 23.7896C18.2884 23.8908 18.2077 23.9859 18.1194 24.0736" stroke="white" stroke-linecap="round" stroke-linejoin="round"/>
<path d="M18.1822 11.812C18.14 11.9287 18.109 12.0492 18.0896 12.1717" stroke="white" stroke-linecap="round" stroke-linejoin="round"/>
<path d="M18.114 13.6895C18.3662 14.9113 18.8925 16.0598 19.6533 17.0486C21.6786 19.8545 20.0929 22.1909 18.9762 23.3287" stroke="white" stroke-linecap="round" stroke-linejoin="round" stroke-dasharray="1.02 2.03"/>
<path d="M18.414 23.8459C18.2339 23.9949 18.1194 24.0738 18.1194 24.0738" stroke="white" stroke-linecap="round" stroke-linejoin="round"/>
<path d="M22.6279 9.30566C22.6279 9.30566 18.9644 11.7371 21.9036 16.0745C24.1796 19.4332 22.2102 21.2693 22.2102 21.2693" stroke="white" stroke-linecap="round" stroke-linejoin="round" stroke-dasharray="1 2"/>
<path d="M22.2616 11.2383C22.2616 11.2383 21.5794 12.91 23.465 15.5222C25.8189 18.7833 22.2102 21.2693 22.2102 21.2693" stroke="white" stroke-linecap="round" stroke-linejoin="round" stroke-dasharray="1 2"/>
</svg>
