<svg width="36" height="36" viewBox="0 0 36 36" fill="none" xmlns="http://www.w3.org/2000/svg">
<path d="M18 36C27.9411 36 36 27.9411 36 18C36 8.05887 27.9411 0 18 0C8.05887 0 0 8.05887 0 18C0 27.9411 8.05887 36 18 36Z" fill="#C67F92"/>
<path d="M14.6131 10.9912C14.6131 10.9912 10.1623 14.7753 13.7648 19.3975C14.6318 20.392 15.1161 21.663 15.1308 22.9824C15.1454 24.3017 14.6895 25.5831 13.8447 26.5967" stroke="white" stroke-linecap="round" stroke-linejoin="round"/>
<path d="M14.154 13.5195C14.154 13.5195 13.655 15.6004 15.8778 18.7939C18.7081 22.8601 13.8438 26.5966 13.8438 26.5966" stroke="white" stroke-linecap="round" stroke-linejoin="round"/>
<path d="M18.6306 9.4502C18.6306 9.4502 14.1525 12.4223 17.7453 17.7243C20.5274 21.8299 18.1201 24.0742 18.1201 24.0742" stroke="white" stroke-linecap="round" stroke-linejoin="round"/>
<path d="M18.1821 11.8125C18.1821 11.8125 17.3483 13.8559 19.6531 17.049C22.5305 21.0353 18.1194 24.0743 18.1194 24.0743" stroke="white" stroke-linecap="round" stroke-linejoin="round"/>
<path d="M22.6277 9.30566C22.6277 9.30566 18.9643 11.7371 21.9035 16.0745C24.1795 19.4332 22.2101 21.2693 22.2101 21.2693" stroke="white" stroke-linecap="round" stroke-linejoin="round"/>
<path d="M22.2608 11.2383C22.2608 11.2383 21.5787 12.91 23.4642 15.5222C25.8182 18.7833 22.2095 21.2693 22.2095 21.2693" stroke="white" stroke-linecap="round" stroke-linejoin="round"/>
</svg>
