<svg width="36" height="36" viewBox="0 0 36 36" fill="none" xmlns="http://www.w3.org/2000/svg">
    <path
        d="M18 36C27.9411 36 36 27.9411 36 18C36 8.05887 27.9411 0 18 0C8.05887 0 0 8.05887 0 18C0 27.9411 8.05887 36 18 36Z"
        fill="#B28E86" />
    <path d="M18.8169 10.375L19.3749 12.625L20.8749 13.375L20.1249 15.625V17.125" stroke="white" stroke-linecap="round"
        stroke-linejoin="round" />
    <path d="M18.125 20.625L16.625 21.375L17.375 24.375L17 26.625" stroke="white" stroke-linecap="round"
        stroke-linejoin="round" />
    <path d="M14.125 11.125L12.625 13.375L13.375 17.125L10.375 18.3985" stroke="white" stroke-linecap="round"
        stroke-linejoin="round" />
    <path d="M16.875 18.375L14.625 19.875L13.125 22.875H9.54375" stroke="white" stroke-linecap="round"
        stroke-linejoin="round" />
    <path d="M22.625 21.625L21.125 23.125L20.375 27.625" stroke="white" stroke-linecap="round"
        stroke-linejoin="round" />
    <path d="M25.625 14.625L23.375 16.125V18.375L25.625 21.1245" stroke="white" stroke-linecap="round"
        stroke-linejoin="round" />
    <path d="M11.2593 8.94482H11.274" stroke="white" stroke-linecap="round" stroke-linejoin="round" />
    <path d="M26 12.0996H26.0148" stroke="white" stroke-linecap="round" stroke-linejoin="round" />
    <path d="M7.50928 16.4448H7.52404" stroke="white" stroke-width="1.5" stroke-linecap="round"
        stroke-linejoin="round" />
    <path d="M21.2593 7.44482H21.274" stroke="white" stroke-width="1.5" stroke-linecap="round"
        stroke-linejoin="round" />
    <path d="M23.5164 26.9375V26.9523" stroke="white" stroke-width="1.5" stroke-linecap="round"
        stroke-linejoin="round" />
    <path d="M13.5164 26.936V26.9508" stroke="white" stroke-width="1.5" stroke-linecap="round"
        stroke-linejoin="round" />
    <path d="M27.2664 19.4375V19.4523" stroke="white" stroke-width="1.5" stroke-linecap="round"
        stroke-linejoin="round" />
    <path d="M29.2664 17.4375V17.4523" stroke="white" stroke-linecap="round" stroke-linejoin="round" />
    <path d="M21.2664 19.4375V19.4523" stroke="white" stroke-linecap="round" stroke-linejoin="round" />
    <path d="M17 18.0996V18.1144" stroke="white" stroke-linecap="round" stroke-linejoin="round" />
    <path d="M12 29.0991V29.1139" stroke="white" stroke-linecap="round" stroke-linejoin="round" />
</svg>