<svg width="48" height="48" viewBox="0 0 48 48" fill="none" xmlns="http://www.w3.org/2000/svg">
<path d="M24 48C37.2548 48 48 37.2548 48 24C48 10.7452 37.2548 0 24 0C10.7452 0 0 10.7452 0 24C0 37.2548 10.7452 48 24 48Z" fill="#E2B0AA"/>
<path d="M23.459 29.513L24.262 31.071L21.747 35.462" stroke="white" stroke-linecap="round" stroke-linejoin="round"/>
<path d="M24.262 12.6L21.747 16.852L23.004 19.256" stroke="white" stroke-linecap="round" stroke-linejoin="round"/>
<path d="M28.093 12.6L25.578 16.852L28.093 21.661L25.578 26.192L28.093 31.071L25.578 35.462" stroke="white" stroke-linecap="round" stroke-linejoin="round"/>
<path d="M31.924 12.6L29.408 16.852L31.924 21.661L29.408 26.192L31.924 31.071L29.408 35.462" stroke="white" stroke-linecap="round" stroke-linejoin="round"/>
<path d="M23.2461 21.2028C23.0318 21.2599 22.8107 21.2872 22.589 21.2839C21.9486 21.2603 21.3261 21.0661 20.786 20.7213C20.2458 20.3765 19.8076 19.8936 19.5166 19.3227C19.4883 19.2793 19.4496 19.2437 19.4041 19.219C19.3585 19.1943 19.3075 19.1814 19.2557 19.1814C19.2039 19.1814 19.1529 19.1943 19.1074 19.219C19.0618 19.2437 19.0231 19.2793 18.9948 19.3227C17.7609 21.2797 16.0214 21.4852 15.2665 21.2032C15.2166 21.1899 15.1643 21.1886 15.1138 21.1996C15.0633 21.2105 15.0162 21.2334 14.9763 21.2662C14.9364 21.299 14.9049 21.3409 14.8844 21.3883C14.8639 21.4357 14.8551 21.4873 14.8585 21.5388V23.8093C14.8689 25.1267 15.29 26.4081 16.0632 27.4748C16.8364 28.5415 17.9231 29.3404 19.1719 29.7602C19.2264 29.7766 19.2845 29.7766 19.3391 29.7602C20.588 29.3405 21.6748 28.5417 22.4481 27.4749C23.2213 26.4082 23.6425 25.1268 23.6528 23.8093V21.5388C23.656 21.4875 23.647 21.4361 23.6265 21.3889C23.606 21.3417 23.5746 21.3001 23.535 21.2673C23.4953 21.2345 23.4485 21.2116 23.3983 21.2004C23.3481 21.1892 23.2959 21.19 23.2461 21.2028V21.2028Z" stroke="white" stroke-miterlimit="10"/>
</svg>
