<svg width="48" height="48" viewBox="0 0 48 48" fill="none" xmlns="http://www.w3.org/2000/svg">
<path d="M24 48C37.2548 48 48 37.2548 48 24C48 10.7452 37.2548 0 24 0C10.7452 0 0 10.7452 0 24C0 37.2548 10.7452 48 24 48Z" fill="#74B1C8"/>
<path d="M19.5 16.3C20.4941 16.3 21.3 15.4941 21.3 14.5C21.3 13.5059 20.4941 12.7 19.5 12.7C18.5059 12.7 17.7 13.5059 17.7 14.5C17.7 15.4941 18.5059 16.3 19.5 16.3Z" stroke="white" stroke-miterlimit="10"/>
<path d="M14.5 21.3C15.4941 21.3 16.3 20.4941 16.3 19.5C16.3 18.5059 15.4941 17.7 14.5 17.7C13.5059 17.7 12.7 18.5059 12.7 19.5C12.7 20.4941 13.5059 21.3 14.5 21.3Z" stroke="white" stroke-miterlimit="10"/>
<path d="M14.5 25.78C15.2069 25.78 15.78 25.2069 15.78 24.5C15.78 23.7931 15.2069 23.22 14.5 23.22C13.7931 23.22 13.22 23.7931 13.22 24.5C13.22 25.2069 13.7931 25.78 14.5 25.78Z" stroke="white" stroke-miterlimit="10"/>
<path d="M19.5 20.78C20.2069 20.78 20.78 20.2069 20.78 19.5C20.78 18.7931 20.2069 18.22 19.5 18.22C18.7931 18.22 18.22 18.7931 18.22 19.5C18.22 20.2069 18.7931 20.78 19.5 20.78Z" stroke="white" stroke-miterlimit="10"/>
<path d="M24.5 15.78C25.2069 15.78 25.78 15.2069 25.78 14.5C25.78 13.7931 25.2069 13.22 24.5 13.22C23.7931 13.22 23.22 13.7931 23.22 14.5C23.22 15.2069 23.7931 15.78 24.5 15.78Z" stroke="white" stroke-miterlimit="10"/>
<path d="M14.5 30.5C15.0523 30.5 15.5 30.0523 15.5 29.5C15.5 28.9477 15.0523 28.5 14.5 28.5C13.9477 28.5 13.5 28.9477 13.5 29.5C13.5 30.0523 13.9477 30.5 14.5 30.5Z" stroke="white" stroke-miterlimit="10"/>
<path d="M29.5 15.5C30.0523 15.5 30.5 15.0523 30.5 14.5C30.5 13.9477 30.0523 13.5 29.5 13.5C28.9477 13.5 28.5 13.9477 28.5 14.5C28.5 15.0523 28.9477 15.5 29.5 15.5Z" stroke="white" stroke-miterlimit="10"/>
<path d="M24.5 20.5C25.0523 20.5 25.5 20.0523 25.5 19.5C25.5 18.9477 25.0523 18.5 24.5 18.5C23.9477 18.5 23.5 18.9477 23.5 19.5C23.5 20.0523 23.9477 20.5 24.5 20.5Z" stroke="white" stroke-miterlimit="10"/>
<path d="M19.5 25.5C20.0523 25.5 20.5 25.0523 20.5 24.5C20.5 23.9477 20.0523 23.5 19.5 23.5C18.9477 23.5 18.5 23.9477 18.5 24.5C18.5 25.0523 18.9477 25.5 19.5 25.5Z" stroke="white" stroke-miterlimit="10"/>
<path d="M19.5 30.3C19.9418 30.3 20.3 29.9418 20.3 29.5C20.3 29.0582 19.9418 28.7 19.5 28.7C19.0582 28.7 18.7 29.0582 18.7 29.5C18.7 29.9418 19.0582 30.3 19.5 30.3Z" stroke="white" stroke-miterlimit="10"/>
<path d="M34.5 19.9C34.7209 19.9 34.9 19.7209 34.9 19.5C34.9 19.2791 34.7209 19.1 34.5 19.1C34.2791 19.1 34.1 19.2791 34.1 19.5C34.1 19.7209 34.2791 19.9 34.5 19.9Z" stroke="white" stroke-miterlimit="10"/>
<path d="M24.5 34.9C24.7209 34.9 24.9 34.7209 24.9 34.5C24.9 34.2791 24.7209 34.1 24.5 34.1C24.2791 34.1 24.1 34.2791 24.1 34.5C24.1 34.7209 24.2791 34.9 24.5 34.9Z" stroke="white" stroke-miterlimit="10"/>
<path d="M24.5 29.9C24.7209 29.9 24.9 29.7209 24.9 29.5C24.9 29.2791 24.7209 29.1 24.5 29.1C24.2791 29.1 24.1 29.2791 24.1 29.5C24.1 29.7209 24.2791 29.9 24.5 29.9Z" stroke="white" stroke-miterlimit="10"/>
<path d="M19.5 34.9C19.7209 34.9 19.9 34.7209 19.9 34.5C19.9 34.2791 19.7209 34.1 19.5 34.1C19.2791 34.1 19.1 34.2791 19.1 34.5C19.1 34.7209 19.2791 34.9 19.5 34.9Z" stroke="white" stroke-miterlimit="10"/>
<path d="M29.5 20.3C29.9418 20.3 30.3 19.9418 30.3 19.5C30.3 19.0582 29.9418 18.7 29.5 18.7C29.0582 18.7 28.7 19.0582 28.7 19.5C28.7 19.9418 29.0582 20.3 29.5 20.3Z" stroke="white" stroke-miterlimit="10"/>
<path d="M24.5 25.3C24.9418 25.3 25.3 24.9418 25.3 24.5C25.3 24.0582 24.9418 23.7 24.5 23.7C24.0582 23.7 23.7 24.0582 23.7 24.5C23.7 24.9418 24.0582 25.3 24.5 25.3Z" stroke="white" stroke-miterlimit="10"/>
<path d="M35.2461 26.2028C35.0318 26.2599 34.8107 26.2872 34.589 26.2839C33.9486 26.2603 33.3261 26.0661 32.786 25.7213C32.2458 25.3765 31.8076 24.8936 31.5166 24.3227C31.4883 24.2793 31.4496 24.2437 31.4041 24.219C31.3585 24.1943 31.3075 24.1814 31.2557 24.1814C31.2039 24.1814 31.1529 24.1943 31.1074 24.219C31.0618 24.2437 31.0231 24.2793 30.9948 24.3227C29.7609 26.2797 28.0214 26.4852 27.2665 26.2032C27.2166 26.1899 27.1642 26.1886 27.1138 26.1996C27.0633 26.2105 27.0162 26.2334 26.9763 26.2662C26.9364 26.299 26.9049 26.3408 26.8844 26.3883C26.8639 26.4357 26.8551 26.4873 26.8585 26.5388V28.8093C26.8689 30.1267 27.29 31.4081 28.0632 32.4748C28.8364 33.5415 29.9231 34.3404 31.1719 34.7602C31.2264 34.7766 31.2845 34.7766 31.3391 34.7602C32.588 34.3405 33.6748 33.5416 34.4481 32.4749C35.2213 31.4082 35.6425 30.1268 35.6528 28.8093V26.5388C35.656 26.4875 35.647 26.4361 35.6265 26.3889C35.606 26.3417 35.5746 26.3 35.535 26.2673C35.4953 26.2345 35.4485 26.2116 35.3983 26.2004C35.348 26.1892 35.2959 26.19 35.2461 26.2028Z" stroke="white" stroke-miterlimit="10"/>
</svg>
