<svg width="36" height="36" viewBox="0 0 36 36" fill="none" xmlns="http://www.w3.org/2000/svg">
<path d="M18 36C27.9411 36 36 27.9411 36 18C36 8.05887 27.9411 0 18 0C8.05887 0 0 8.05887 0 18C0 27.9411 8.05887 36 18 36Z" fill="#E2B0AA"/>
<path d="M17.5926 22.1348L18.1948 23.3033L16.3086 26.5965" stroke="white" stroke-linecap="round" stroke-linejoin="round"/>
<path d="M18.1948 9.4502L16.3086 12.6392L17.2513 14.4422" stroke="white" stroke-linecap="round" stroke-linejoin="round"/>
<path d="M21.0698 9.4502L19.1836 12.6392L21.0698 16.2459L19.1836 19.6442L21.0698 23.3034L19.1836 26.5967" stroke="white" stroke-linecap="round" stroke-linejoin="round"/>
<path d="M23.9417 9.4502L22.0547 12.6392L23.9417 16.2459L22.0547 19.6442L23.9417 23.3034L22.0547 26.5967" stroke="white" stroke-linecap="round" stroke-linejoin="round"/>
<path d="M17.4338 15.9027C17.2731 15.9456 17.1073 15.9661 16.941 15.9636C16.4607 15.9459 15.9938 15.8002 15.5887 15.5416C15.1836 15.283 14.8549 14.9209 14.6367 14.4927C14.6155 14.4601 14.5864 14.4334 14.5523 14.4149C14.5181 14.3964 14.4799 14.3867 14.441 14.3867C14.4022 14.3867 14.3639 14.3964 14.3298 14.4149C14.2956 14.4334 14.2666 14.4601 14.2453 14.4927C13.3199 15.9604 12.0153 16.1146 11.4491 15.903C11.4117 15.893 11.3724 15.8921 11.3346 15.9003C11.2967 15.9086 11.2614 15.9257 11.2315 15.9503C11.2015 15.9749 11.1779 16.0063 11.1626 16.0418C11.1472 16.0774 11.1405 16.1161 11.1431 16.1548V17.8576C11.1509 18.8457 11.4667 19.8067 12.0466 20.6067C12.6265 21.4068 13.4415 22.006 14.3781 22.3208C14.419 22.3331 14.4626 22.3331 14.5035 22.3208C15.4402 22.006 16.2553 21.4069 16.8353 20.6068C17.4152 19.8068 17.7311 18.8457 17.7389 17.8576V16.1548C17.7412 16.1163 17.7345 16.0777 17.7191 16.0423C17.7037 16.0069 17.6802 15.9757 17.6505 15.9511C17.6207 15.9265 17.5856 15.9093 17.5479 15.9009C17.5103 15.8925 17.4712 15.8931 17.4338 15.9027V15.9027Z" stroke="white" stroke-miterlimit="10"/>
</svg>
