<svg width="48" height="48" viewBox="0 0 48 48" fill="none" xmlns="http://www.w3.org/2000/svg">
<path d="M24 48C37.2548 48 48 37.2548 48 24C48 10.7452 37.2548 0 24 0C10.7452 0 0 10.7452 0 24C0 37.2548 10.7452 48 24 48Z" fill="#7AC071"/>
<path d="M17.185 24.711L20.428 28.192L26.443 20.911" stroke="white" stroke-linecap="round" stroke-linejoin="round"/>
<path d="M25.8611 33.685C24.6868 34.3614 23.4637 34.9492 22.2018 35.4435C22.0835 35.4755 21.9588 35.4755 21.8405 35.4435C21.7476 35.4177 12.5208 32.8122 12.5208 23.8427V17.4165C12.5213 17.31 12.5466 17.205 12.5947 17.11C12.6428 17.0149 12.7124 16.9324 12.7979 16.8689C12.8835 16.8054 12.9826 16.7627 13.0875 16.7442C13.1924 16.7257 13.3002 16.7318 13.4023 16.7622C15.0335 17.312 18.7919 16.9113 21.458 13.0963C21.5248 13.0105 21.6103 12.9411 21.708 12.8934C21.8057 12.8457 21.913 12.8209 22.0217 12.8209C22.1304 12.8209 22.2377 12.8457 22.3354 12.8934C22.4331 12.9411 22.5186 13.0105 22.5854 13.0963C24.7937 16.2564 27.4142 16.9196 29.2238 16.9196C29.7018 16.9262 30.1788 16.8731 30.6436 16.7614C30.7455 16.732 30.853 16.7266 30.9574 16.7456C31.0618 16.7646 31.1604 16.8075 31.2455 16.8709C31.3306 16.9343 31.3999 17.0166 31.448 17.1112C31.496 17.2059 31.5215 17.3104 31.5225 17.4165V23.1739" stroke="white" stroke-linecap="round" stroke-linejoin="round"/>
<path d="M31.4704 23.9503C31.5069 23.6931 31.5243 23.4336 31.5225 23.1739" stroke="white" stroke-linecap="round" stroke-linejoin="round"/>
<path d="M31.5 35.5C33.1569 35.5 34.5 34.1569 34.5 32.5C34.5 30.8431 33.1569 29.5 31.5 29.5C29.8431 29.5 28.5 30.8431 28.5 32.5C28.5 34.1569 29.8431 35.5 31.5 35.5Z" stroke="white" stroke-linecap="round" stroke-linejoin="round"/>
<path d="M28.5 32.5C30.1569 32.5 31.5 31.1569 31.5 29.5C31.5 27.8431 30.1569 26.5 28.5 26.5C26.8431 26.5 25.5 27.8431 25.5 29.5C25.5 31.1569 26.8431 32.5 28.5 32.5Z" stroke="white" stroke-linecap="round" stroke-linejoin="round"/>
<path d="M32.5 31.5C34.1569 31.5 35.5 30.1569 35.5 28.5C35.5 26.8431 34.1569 25.5 32.5 25.5C30.8431 25.5 29.5 26.8431 29.5 28.5C29.5 30.1569 30.8431 31.5 32.5 31.5Z" stroke="white" stroke-linecap="round" stroke-linejoin="round"/>
</svg>
