<svg width="36" height="36" viewBox="0 0 36 36" fill="none" xmlns="http://www.w3.org/2000/svg">
<path d="M18 36C27.9411 36 36 27.9411 36 18C36 8.05887 27.9411 0 18 0C8.05887 0 0 8.05887 0 18C0 27.9411 8.05887 36 18 36Z" fill="#C4B8BC"/>
<path d="M16.2598 16.1953H16.2742" stroke="white" stroke-linecap="round" stroke-linejoin="round"/>
<path d="M11.7598 17.6953H11.7742" stroke="white" stroke-linecap="round" stroke-linejoin="round"/>
<path d="M23.7598 19.1953H23.7742" stroke="white" stroke-linecap="round" stroke-linejoin="round"/>
<path d="M23.7598 16.1953H23.7742" stroke="white" stroke-linecap="round" stroke-linejoin="round"/>
<path d="M10.8828 21.3115H14.9566C15.9189 21.3115 16.8417 21.6938 17.5222 22.3742H18.5849C19.2653 21.6938 20.1881 21.3115 21.1504 21.3115H25.9742" stroke="white" stroke-linecap="round" stroke-linejoin="round"/>
<path d="M19.2639 24.6907C18.7584 23.2126 18.1502 19.3795 19.6809 10.1953C19.6809 10.1953 17.4902 18.958 17.4902 25.53C17.4902 25.8205 17.6056 26.0991 17.8111 26.3045C18.0165 26.5099 18.2951 26.6253 18.5856 26.6253C18.8761 26.6253 19.1547 26.5099 19.3601 26.3045C19.5655 26.0991 19.6809 25.8205 19.6809 25.53C19.6792 25.3677 19.6408 25.2079 19.5686 25.0626C19.4963 24.9172 19.3922 24.7901 19.2639 24.6907Z" stroke="white" stroke-linecap="round" stroke-linejoin="round"/>
<path d="M14.625 19.127C15.0392 19.127 15.375 18.7912 15.375 18.377C15.375 17.9627 15.0392 17.627 14.625 17.627C14.2108 17.627 13.875 17.9627 13.875 18.377C13.875 18.7912 14.2108 19.127 14.625 19.127Z" stroke="white" stroke-linecap="round" stroke-linejoin="round"/>
<path d="M21.375 18.377C21.7892 18.377 22.125 18.0412 22.125 17.627C22.125 17.2127 21.7892 16.877 21.375 16.877C20.9608 16.877 20.625 17.2127 20.625 17.627C20.625 18.0412 20.9608 18.377 21.375 18.377Z" stroke="white" stroke-linecap="round" stroke-linejoin="round"/>
</svg>
