<svg width="36" height="36" viewBox="0 0 36 36" fill="none" xmlns="http://www.w3.org/2000/svg">
<path d="M18 36C27.9411 36 36 27.9411 36 18C36 8.05887 27.9411 0 18 0C8.05887 0 0 8.05887 0 18C0 27.9411 8.05887 36 18 36Z" fill="#C67F92"/>
<path d="M14.6133 10.9912C14.6133 10.9912 10.1625 14.7753 13.765 19.3975C14.6321 20.392 15.1164 21.663 15.131 22.9824C15.1457 24.3017 14.6897 25.5831 13.8449 26.5967" stroke="white" stroke-linecap="round" stroke-linejoin="round"/>
<path d="M14.1552 13.5195C14.1552 13.5195 13.6562 15.6004 15.8791 18.7939C18.7093 22.8601 13.845 26.5966 13.845 26.5966" stroke="white" stroke-linecap="round" stroke-linejoin="round"/>
<path d="M18.63 9.44971C18.63 9.44971 14.1519 12.4218 17.7447 17.7238C20.5268 21.8294 18.1194 24.0737 18.1194 24.0737" stroke="white" stroke-linecap="round" stroke-linejoin="round"/>
<path d="M18.1822 11.812C18.1822 11.812 17.3484 13.8554 19.6532 17.0485C22.5307 21.0348 18.1195 24.0738 18.1195 24.0738" stroke="white" stroke-linecap="round" stroke-linejoin="round"/>
<path d="M22.6279 9.30566C22.6279 9.30566 18.9644 11.7371 21.9036 16.0745C24.1796 19.4332 22.2102 21.2693 22.2102 21.2693" stroke="white" stroke-linecap="round" stroke-linejoin="round"/>
<path d="M22.2616 11.2383C22.2616 11.2383 21.5794 12.91 23.465 15.5222C25.8189 18.7833 22.2102 21.2693 22.2102 21.2693" stroke="white" stroke-linecap="round" stroke-linejoin="round"/>
</svg>
