<svg width="36" height="36" viewBox="0 0 36 36" fill="none" xmlns="http://www.w3.org/2000/svg">
    <path
        d="M18 36C27.9411 36 36 27.9411 36 18C36 8.05887 27.9411 0 18 0C8.05887 0 0 8.05887 0 18C0 27.9411 8.05887 36 18 36Z"
        fill="#E08282" />
    <path
        d="M9.43359 16.9221C11.3496 16.3112 13.4082 16.3112 15.3242 16.9221C16.2654 17.3112 17.2775 17.4988 18.2956 17.473C19.3136 17.4472 20.315 17.2084 21.2352 16.7722C23.2685 15.9614 26.7038 17.0971 26.7038 17.0971"
        stroke="white" stroke-linecap="round" stroke-linejoin="round" />
    <path
        d="M9.43359 19.1721C11.3496 18.5612 13.4082 18.5612 15.3242 19.1721C16.2654 19.5612 17.2775 19.7488 18.2956 19.723C19.3136 19.6972 20.315 19.4584 21.2352 19.0222C23.2685 18.2114 26.7038 19.3471 26.7038 19.3471"
        stroke="white" stroke-linecap="round" stroke-linejoin="round" />
    <path d="M12.375 9.375V14.625" stroke="white" stroke-linecap="round" stroke-linejoin="round" />
    <path d="M10.875 13.125L12.375 14.625L13.875 13.125" stroke="white" stroke-linecap="round"
        stroke-linejoin="round" />
    <path d="M23.625 9.375V14.625" stroke="white" stroke-linecap="round" stroke-linejoin="round" />
    <path d="M22.125 13.125L23.625 14.625L25.125 13.125" stroke="white" stroke-linecap="round"
        stroke-linejoin="round" />
    <path d="M17.625 26.625V21.375" stroke="white" stroke-linecap="round" stroke-linejoin="round" />
    <path d="M19.125 22.875L17.625 21.375L16.125 22.875" stroke="white" stroke-linecap="round"
        stroke-linejoin="round" />
</svg>