<svg width="48" height="48" viewBox="0 0 48 48" fill="none" xmlns="http://www.w3.org/2000/svg">
    <path
        d="M24 48C37.2548 48 48 37.2548 48 24C48 10.7452 37.2548 0 24 0C10.7452 0 0 10.7452 0 24C0 37.2548 10.7452 48 24 48Z"
        fill="#6CC4B6" />
    <path
        d="M18.5125 35.3337C18.6918 34.5284 19.1544 33.8143 19.816 33.3215V33.3215C20.2356 33.0332 20.5787 32.6473 20.8158 32.1968C21.0528 31.7464 21.1767 31.245 21.1767 30.736C21.1767 30.2269 21.0528 29.7256 20.8158 29.2751C20.5787 28.8247 20.2356 28.4387 19.816 28.1505V28.1505C19.3965 27.8622 19.0534 27.4762 18.8163 27.0258C18.5793 26.5753 18.4554 26.074 18.4554 25.565C18.4554 25.056 18.5793 24.5546 18.8163 24.1041C19.0534 23.6537 19.3965 23.2677 19.816 22.9795L19.8162 22.9793C20.2357 22.6911 20.5788 22.3051 20.8159 21.8547C21.0529 21.4042 21.1768 20.9029 21.1768 20.3938C21.1768 19.8848 21.0529 19.3835 20.8159 18.933C20.5788 18.4826 20.2357 18.0966 19.8162 17.8083V17.8083C19.3966 17.5201 19.0535 17.1341 18.8164 16.6837C18.5794 16.2332 18.4555 15.7319 18.4555 15.2228C18.4555 14.7138 18.5794 14.2125 18.8164 13.762C19.0535 13.3116 19.3966 12.9256 19.8162 12.6373V12.6373"
        stroke="white" stroke-linecap="round" stroke-linejoin="round" />
    <path
        d="M27.9553 35.3337C28.1346 34.5284 28.5972 33.8143 29.2588 33.3215C29.6784 33.0332 30.0215 32.6473 30.2586 32.1968C30.4956 31.7464 30.6195 31.245 30.6195 30.736C30.6195 30.2269 30.4956 29.7256 30.2586 29.2751C30.0215 28.8247 29.6784 28.4387 29.2588 28.1505V28.1505C28.8393 27.8622 28.4962 27.4762 28.2591 27.0258C28.0221 26.5753 27.8982 26.074 27.8982 25.565C27.8982 25.056 28.0221 24.5546 28.2591 24.1041C28.4962 23.6537 28.8393 23.2677 29.2588 22.9795L29.259 22.9793C29.6785 22.6911 30.0216 22.3051 30.2587 21.8547C30.4957 21.4042 30.6196 20.9029 30.6196 20.3938C30.6196 19.8848 30.4957 19.3835 30.2587 18.933C30.0216 18.4826 29.6785 18.0966 29.259 17.8083C28.8394 17.5201 28.4963 17.1341 28.2592 16.6837C28.0222 16.2332 27.8983 15.7319 27.8983 15.2228C27.8983 14.7138 28.0222 14.2125 28.2592 13.762C28.4963 13.3116 28.8394 12.9256 29.259 12.6373V12.6373"
        stroke="white" stroke-linecap="round" stroke-linejoin="round" />
    <path
        d="M23.2339 35.3337C23.4132 34.5284 23.8758 33.8143 24.5374 33.3215V33.3215C24.957 33.0332 25.3001 32.6473 25.5372 32.1968C25.7742 31.7464 25.8981 31.245 25.8981 30.736C25.8981 30.2269 25.7742 29.7256 25.5372 29.2751C25.3001 28.8247 24.957 28.4387 24.5374 28.1505V28.1505C24.1179 27.8622 23.7748 27.4762 23.5377 27.0258C23.3007 26.5753 23.1768 26.074 23.1768 25.565C23.1768 25.056 23.3007 24.5546 23.5377 24.1041C23.7748 23.6537 24.1179 23.2677 24.5374 22.9795L24.5376 22.9793C24.9571 22.6911 25.3002 22.3051 25.5373 21.8547C25.7743 21.4042 25.8982 20.9029 25.8982 20.3938C25.8982 19.8848 25.7743 19.3835 25.5373 18.933C25.3002 18.4826 24.9571 18.0966 24.5376 17.8083C24.118 17.5201 23.7749 17.1341 23.5378 16.6837C23.3008 16.2332 23.1769 15.7319 23.1769 15.2228C23.1769 14.7138 23.3008 14.2125 23.5378 13.762C23.7749 13.3116 24.118 12.9256 24.5376 12.6373V12.6373"
        stroke="white" stroke-linecap="round" stroke-linejoin="round" />
    <path d="M33.5005 22.528V24.528" stroke="white" stroke-linecap="round" stroke-linejoin="round" />
    <path d="M34.5005 23.528H32.5005" stroke="white" stroke-linecap="round" stroke-linejoin="round" />
    <path d="M32.7934 31.8209L34.2076 33.2351" stroke="white" stroke-linecap="round" stroke-linejoin="round" />
    <path d="M34.2076 31.8209L32.7934 33.2351" stroke="white" stroke-linecap="round" stroke-linejoin="round" />
    <path d="M34.4909 26.528H34.5101" stroke="white" stroke-linecap="round" stroke-linejoin="round" />
    <path d="M15.4909 15.528H15.5101" stroke="white" stroke-linecap="round" stroke-linejoin="round" />
    <path d="M32.4909 15.528H32.5101" stroke="white" stroke-linecap="round" stroke-linejoin="round" />
    <path d="M12.6943 20.528C13.1732 20.528 13.6325 20.7183 13.9711 21.0569C14.3097 21.3955 14.5 21.8548 14.5 22.3337"
        stroke="white" stroke-linecap="round" stroke-linejoin="round" />
    <path
        d="M16.3057 20.528C16.0686 20.528 15.8338 20.5747 15.6147 20.6654C15.3956 20.7562 15.1965 20.8892 15.0289 21.0569C14.8612 21.2245 14.7282 21.4236 14.6374 21.6427C14.5467 21.8617 14.5 22.0965 14.5 22.3337"
        stroke="white" stroke-linecap="round" stroke-linejoin="round" />
    <path
        d="M16.3057 20.528C16.0686 20.528 15.8337 20.4813 15.6147 20.3906C15.3956 20.2998 15.1965 20.1668 15.0288 19.9991C14.8612 19.8315 14.7282 19.6324 14.6374 19.4133C14.5467 19.1942 14.5 18.9594 14.5 18.7223"
        stroke="white" stroke-linecap="round" stroke-linejoin="round" />
    <path
        d="M12.6943 20.528C12.9314 20.528 13.1662 20.4813 13.3853 20.3906C13.6044 20.2998 13.8035 20.1668 13.9711 19.9991C14.1388 19.8314 14.2718 19.6324 14.3626 19.4133C14.4533 19.1942 14.5 18.9594 14.5 18.7223"
        stroke="white" stroke-linecap="round" stroke-linejoin="round" />
    <path d="M14.5005 30.528V32.528" stroke="white" stroke-linecap="round" stroke-linejoin="round" />
    <path d="M15.5005 31.528H13.5005" stroke="white" stroke-linecap="round" stroke-linejoin="round" />
    <path d="M15.4909 28.528H15.5101" stroke="white" stroke-linecap="round" stroke-linejoin="round" />
</svg>