<svg width="37" height="36" viewBox="0 0 37 36" fill="none" xmlns="http://www.w3.org/2000/svg">
<path d="M18.5 36C28.4411 36 36.5 27.9411 36.5 18C36.5 8.05887 28.4411 0 18.5 0C8.55887 0 0.5 8.05887 0.5 18C0.5 27.9411 8.55887 36 18.5 36Z" fill="#EFA29E"/>
<path d="M27.125 19.7734H9.875" stroke="white" stroke-linecap="round" stroke-linejoin="round"/>
<path d="M9.875 22.125H11.375" stroke="white" stroke-linecap="round" stroke-linejoin="round"/>
<path d="M12.125 24.375H12.875" stroke="white" stroke-linecap="round" stroke-linejoin="round"/>
<path d="M15.125 24.375H15.875" stroke="white" stroke-linecap="round" stroke-linejoin="round"/>
<path d="M21.125 24.375H21.875" stroke="white" stroke-linecap="round" stroke-linejoin="round"/>
<path d="M18.125 24.375H18.875" stroke="white" stroke-linecap="round" stroke-linejoin="round"/>
<path d="M24.125 24.375H24.875" stroke="white" stroke-linecap="round" stroke-linejoin="round"/>
<path d="M13.625 22.125H15.125" stroke="white" stroke-linecap="round" stroke-linejoin="round"/>
<path d="M17.375 22.125H18.875" stroke="white" stroke-linecap="round" stroke-linejoin="round"/>
<path d="M21.125 22.125H22.625" stroke="white" stroke-linecap="round" stroke-linejoin="round"/>
<path d="M24.875 22.125H26.375" stroke="white" stroke-linecap="round" stroke-linejoin="round"/>
<path d="M9.93359 16.895C9.93359 16.895 13.0121 15.0999 15.8242 16.895C17.9841 18.2738 19.6079 18.0684 21.7352 16.6431C23.7685 15.2809 27.2038 17.189 27.2038 17.189" stroke="white" stroke-linecap="round" stroke-linejoin="round"/>
</svg>
