<svg width="36" height="36" viewBox="0 0 36 36" fill="none" xmlns="http://www.w3.org/2000/svg">
<path d="M18 36C27.9411 36 36 27.9411 36 18C36 8.05887 27.9411 0 18 0C8.05887 0 0 8.05887 0 18C0 27.9411 8.05887 36 18 36Z" fill="#FACE85"/>
<path d="M25.5486 25.7001C25.5476 26.1436 25.3708 26.5686 25.0568 26.8819C24.7429 27.1952 24.3174 27.3712 23.8739 27.3712C23.4304 27.3712 23.0049 27.1952 22.691 26.8819C22.377 26.5686 22.2002 26.1436 22.1992 25.7001C22.1992 24.7752 23.8739 22.708 23.8739 22.708C23.8739 22.708 25.5486 24.7752 25.5486 25.7001Z" stroke="white" stroke-miterlimit="10"/>
<path d="M24.0173 20.4661C24.0173 16.6501 21.2878 13.5566 17.9208 13.5566C14.5537 13.5566 11.8242 16.6501 11.8242 20.4661C11.8242 24.282 14.5537 27.3755 17.9208 27.3755C18.9524 27.3736 19.9627 27.0824 20.8372 26.5351" stroke="white" stroke-linecap="round" stroke-linejoin="round"/>
<path d="M11.88 21.405C11.88 21.405 6.44476 12.0449 17.3332 9.49219" stroke="white" stroke-linecap="round" stroke-linejoin="round"/>
<path d="M24.0169 20.4656C24.0169 20.4656 28.0813 12.7433 19.1396 8.67893C19.1396 8.67893 18.1269 8.16586 16.701 10.3047C15.0753 12.7433 18.6961 13.6144 18.6961 13.6144" stroke="white" stroke-linecap="round" stroke-linejoin="round"/>
<path d="M16.0728 19.3252C15.9433 19.4899 15.778 19.6231 15.5895 19.7146C15.401 19.8062 15.1942 19.8538 14.9847 19.8538C14.7751 19.8538 14.5683 19.8062 14.3798 19.7146C14.1913 19.6231 14.026 19.4899 13.8965 19.3252" stroke="white" stroke-linecap="round" stroke-linejoin="round"/>
<path d="M19.748 19.3252C19.8776 19.4899 20.0428 19.6231 20.2313 19.7146C20.4198 19.8062 20.6267 19.8538 20.8362 19.8538C21.0458 19.8538 21.2526 19.8062 21.4411 19.7146C21.6296 19.6231 21.7948 19.4899 21.9244 19.3252" stroke="white" stroke-linecap="round" stroke-linejoin="round"/>
<path d="M17.0449 24.6592C17.303 24.8344 17.6077 24.9281 17.9196 24.9281C18.2316 24.9281 18.5363 24.8344 18.7944 24.6592" stroke="white" stroke-linecap="round" stroke-linejoin="round"/>
<path d="M17.5527 22.2842C17.6529 22.3824 17.7875 22.4373 17.9277 22.4373C18.068 22.4373 18.2026 22.3824 18.3027 22.2842" stroke="white" stroke-linecap="round" stroke-linejoin="round"/>
</svg>
