<svg width="36" height="36" viewBox="0 0 36 36" fill="none" xmlns="http://www.w3.org/2000/svg">
<rect width="36" height="36" rx="18" fill="#FACE85"/>
<path d="M23 15.9333C23 17.2593 22.4732 18.5311 21.5355 19.4688C20.5979 20.4065 19.3261 20.9333 18 20.9333C16.6739 20.9333 15.4021 20.4065 14.4645 19.4688C13.5268 18.5311 13 17.2593 13 15.9333C13 13.1718 18 7 18 7C18 7 23 13.1718 23 15.9333Z" stroke="white" stroke-miterlimit="10"/>
<path d="M20.483 15.4199C20.5639 16.0189 20.4242 16.6268 20.0898 17.1303C19.7555 17.6338 19.2494 17.9985 18.666 18.1563" stroke="white" stroke-linecap="round" stroke-linejoin="round"/>
<path d="M30 24H6" stroke="white" stroke-linecap="round" stroke-linejoin="round"/>
<path d="M6 27.1353H8" stroke="white" stroke-linecap="round" stroke-linejoin="round"/>
<path d="M11 27.1353H13" stroke="white" stroke-linecap="round" stroke-linejoin="round"/>
<path d="M16 27.1353H18" stroke="white" stroke-linecap="round" stroke-linejoin="round"/>
<path d="M21 27.1353H23" stroke="white" stroke-linecap="round" stroke-linejoin="round"/>
<path d="M26 27.1353H28" stroke="white" stroke-linecap="round" stroke-linejoin="round"/>
<path d="M8 29H10" stroke="white" stroke-linecap="round" stroke-linejoin="round"/>
<path d="M13 29H15" stroke="white" stroke-linecap="round" stroke-linejoin="round"/>
<path d="M18 29H20" stroke="white" stroke-linecap="round" stroke-linejoin="round"/>
<path d="M23 29H25" stroke="white" stroke-linecap="round" stroke-linejoin="round"/>
<path d="M28 29H30" stroke="white" stroke-linecap="round" stroke-linejoin="round"/>
</svg>
