<svg width="48" height="48" viewBox="0 0 48 48" fill="none" xmlns="http://www.w3.org/2000/svg">
<path d="M24 48C37.2548 48 48 37.2548 48 24C48 10.7452 37.2548 0 24 0C10.7452 0 0 10.7452 0 24C0 37.2548 10.7452 48 24 48Z" fill="#F95B5E"/>
<path d="M22.5 12.5L12.5 20.5" stroke="white" stroke-linecap="round" stroke-linejoin="round" stroke-dasharray="0.5 2"/>
<path d="M27.5 12.5L26.7191 13.1247" stroke="white" stroke-linecap="round" stroke-linejoin="round"/>
<path d="M24.8847 14.5922L19.1981 19.1415" stroke="white" stroke-linecap="round" stroke-linejoin="round" stroke-dasharray="1.88 2.35"/>
<path d="M18.2809 19.8753L17.5 20.5" stroke="white" stroke-linecap="round" stroke-linejoin="round"/>
<path d="M31.5 27.5L20.5 35.5" stroke="white" stroke-linecap="round" stroke-linejoin="round"/>
<path d="M35.5 28.5L35.0904 28.7867" stroke="white" stroke-linecap="round" stroke-linejoin="round"/>
<path d="M33.4211 29.9552L26.7442 34.629" stroke="white" stroke-linecap="round" stroke-linejoin="round" stroke-dasharray="1.02 2.04"/>
<path d="M25.9096 35.2133L25.5 35.5" stroke="white" stroke-linecap="round" stroke-linejoin="round"/>
<path d="M29.5 15.5L15.5 26.5" stroke="white" stroke-linecap="round" stroke-linejoin="round"/>
<path d="M32.5 17.5L15.5 30.5" stroke="white" stroke-linecap="round" stroke-linejoin="round" stroke-dasharray="0.5 2"/>
<path d="M34.5 20.5L33.7137 21.1178" stroke="white" stroke-linecap="round" stroke-linejoin="round"/>
<path d="M31.7719 22.6435L22.2572 30.1193" stroke="white" stroke-linecap="round" stroke-linejoin="round" stroke-dasharray="1.98 2.47"/>
<path d="M21.2863 30.8822L20.5 31.5" stroke="white" stroke-linecap="round" stroke-linejoin="round"/>
</svg>
