<svg width="36" height="36" viewBox="0 0 36 36" fill="none" xmlns="http://www.w3.org/2000/svg">
<g clip-path="url(#clip0_2038_49107)">
<path d="M18 36C27.9411 36 36 27.9411 36 18C36 8.05887 27.9411 0 18 0C8.05887 0 0 8.05887 0 18C0 27.9411 8.05887 36 18 36Z" fill="#65C5B6"/>
<path d="M9.51562 25.1953C9.8748 25.1953 10.2193 25.338 10.4732 25.592C10.7272 25.846 10.8699 26.1904 10.8699 26.5496" stroke="white" stroke-linecap="round" stroke-linejoin="round"/>
<path d="M12.2234 25.1953C12.0456 25.1953 11.8695 25.2303 11.7051 25.2984C11.5408 25.3664 11.3915 25.4662 11.2658 25.592C11.14 25.7177 11.0403 25.867 10.9722 26.0313C10.9042 26.1956 10.8691 26.3717 10.8691 26.5496" stroke="white" stroke-linecap="round" stroke-linejoin="round"/>
<path d="M12.2234 25.1951C12.0456 25.1951 11.8695 25.1601 11.7051 25.092C11.5408 25.0239 11.3915 24.9242 11.2658 24.7984C11.14 24.6727 11.0403 24.5234 10.9722 24.3591C10.9042 24.1948 10.8691 24.0187 10.8691 23.8408" stroke="white" stroke-linecap="round" stroke-linejoin="round"/>
<path d="M9.51562 25.1951C9.8748 25.1951 10.2193 25.0524 10.4732 24.7984C10.7272 24.5445 10.8699 24.2 10.8699 23.8408" stroke="white" stroke-linecap="round" stroke-linejoin="round"/>
<path d="M25.2656 22.9453V24.4453" stroke="white" stroke-linecap="round" stroke-linejoin="round"/>
<path d="M26.0156 23.6953H24.5156" stroke="white" stroke-linecap="round" stroke-linejoin="round"/>
<path d="M23.7598 25.9453H23.7742" stroke="white" stroke-linecap="round" stroke-linejoin="round"/>
<path d="M18 26.625C21.1066 26.625 23.625 23.7708 23.625 20.25C23.625 16.7292 21.1066 13.875 18 13.875C14.8934 13.875 12.375 16.7292 12.375 20.25C12.375 23.7708 14.8934 26.625 18 26.625Z" stroke="white" stroke-linecap="round" stroke-linejoin="round"/>
<path d="M12.4274 21.1164C12.4274 21.1164 7.41259 12.4803 17.4589 10.125" stroke="white" stroke-linecap="round" stroke-linejoin="round"/>
<path d="M23.6098 20.6899C23.6098 20.6899 27.3756 13.125 19.1256 9.37496C19.1256 9.37496 18.1912 8.90158 16.8756 10.875C15.3756 13.125 18.7163 13.9287 18.7163 13.9287" stroke="white" stroke-linecap="round" stroke-linejoin="round"/>
<path d="M14.2871 19.1973C14.4066 19.3492 14.5591 19.4721 14.733 19.5566C14.9069 19.641 15.0978 19.6849 15.2911 19.6849C15.4845 19.6849 15.6753 19.641 15.8492 19.5566C16.0231 19.4721 16.1756 19.3492 16.2951 19.1973" stroke="white" stroke-linecap="round" stroke-linejoin="round"/>
<path d="M19.6875 19.1973C19.807 19.3492 19.9595 19.4721 20.1334 19.5566C20.3073 19.641 20.4982 19.6849 20.6915 19.6849C20.8848 19.6849 21.0757 19.641 21.2496 19.5566C21.4235 19.4721 21.576 19.3492 21.6955 19.1973" stroke="white" stroke-linecap="round" stroke-linejoin="round"/>
<path d="M17.1934 24.1191C17.4315 24.2808 17.7126 24.3672 18.0004 24.3672C18.2882 24.3672 18.5694 24.2808 18.8075 24.1191" stroke="white" stroke-linecap="round" stroke-linejoin="round"/>
</g>
<defs>
<clipPath id="clip0_2038_49107">
<rect width="36" height="36" fill="white"/>
</clipPath>
</defs>
</svg>
