<svg width="36" height="36" viewBox="0 0 36 36" fill="none" xmlns="http://www.w3.org/2000/svg">
<path d="M18 36C27.9411 36 36 27.9411 36 18C36 8.05887 27.9411 0 18 0C8.05887 0 0 8.05887 0 18C0 27.9411 8.05887 36 18 36Z" fill="#F9AE4B"/>
<path d="M26.3212 18H23.9414" stroke="white" stroke-linecap="round" stroke-linejoin="round"/>
<path d="M12.0459 18H9.67773" stroke="white" stroke-linecap="round" stroke-linejoin="round"/>
<path d="M18 12.0352V9.67773" stroke="white" stroke-linecap="round" stroke-linejoin="round"/>
<path d="M18 23.9336V26.3223" stroke="white" stroke-linecap="round" stroke-linejoin="round"/>
<path d="M23.9908 12.0088L22.2109 13.7886" stroke="white" stroke-linecap="round" stroke-linejoin="round"/>
<path d="M13.7997 22.2012L12.0098 23.9909" stroke="white" stroke-linecap="round" stroke-linejoin="round"/>
<path d="M23.9905 23.9903L22.1953 22.1953" stroke="white" stroke-linecap="round" stroke-linejoin="round"/>
<path d="M12.0098 12.0088L13.7838 13.7828" stroke="white" stroke-linecap="round" stroke-linejoin="round"/>
<path d="M18 22.125C20.2782 22.125 22.125 20.2782 22.125 18C22.125 15.7218 20.2782 13.875 18 13.875C15.7218 13.875 13.875 15.7218 13.875 18C13.875 20.2782 15.7218 22.125 18 22.125Z" stroke="white" stroke-linecap="round" stroke-linejoin="round"/>
</svg>
