<svg xmlns="http://www.w3.org/2000/svg" viewBox="0 0 128 97"><path d="M28.6 73.8c-3.4 0-6.1-2.7-6.1-6 0-.4-.2-.8-.4-1.1-.3-.3-.7-.4-1.1-.4-.8 0-1.5.7-1.5 1.5 0 3.3-2.7 6-6.1 6-.8 0-1.5.7-1.5 1.5s.7 1.5 1.5 1.5c3.3 0 6.1 2.7 6.1 6 0 .8.7 1.5 1.5 1.5s1.5-.7 1.5-1.5c0-3.3 2.7-6 6.1-6 .8 0 1.5-.7 1.5-1.5s-.7-1.5-1.5-1.5zM21 77.9c-.7-1-1.6-1.9-2.6-2.5 1-.7 1.9-1.5 2.6-2.5.7 1 1.6 1.9 2.6 2.5-1.1.6-1.9 1.4-2.6 2.5zM41.3 17.3c.4 0 .8-.2 1.1-.4.3-.3.4-.7.4-1.1 0-.4-.2-.8-.4-1.1-.6-.6-1.6-.6-2.2 0-.3.3-.4.7-.4 1.1 0 .4.2.8.4 1.1.4.2.8.4 1.1.4zM1.5 58.7 20.1 39.2 20.1 39.2c.4 0 .8-.2 1.1-.4.3-.3.4-.7.4-1.1 0-.4-.2-.8-.4-1.1-.6-.6-1.6-.6-2.2 0-.3.3-.4.7-.4 1.1 0 .4.2.8.4 1.1.3.2.7.4 1.1.4zM41.3 12.7c.8 0 1.5-.7 1.5-1.5V6.7c0-.8-.7-1.5-1.5-1.5s-1.5.7-1.5 1.5v4.5c0 .9.7 1.5 1.5 1.5zM77.8 24.1c.4 0 .8-.2 1.1-.4.3-.3.4-.7.4-1.1 0-.4-.2-.8-.4-1.1-.6-.6-1.6-.5-2.2 0-.3.3-.4.7-.4 1.1 0 .4.2.8.4 1.1.3.2.7.4 1.1.4zM45.9 17.3h4.6c.8 0 1.5-.7 1.5-1.5s-.7-1.5-1.5-1.5h-4.6c-.8 0-1.5.7-1.5 1.5s.7 1.5 1.5 1.5zM.4 56.2c-.2.3-.4.6-.4 1s.2.8.4 1.1c.3.3.7.4 1.1.4.4 0 .8-.2 1.1-.4.3-.3.4-.7.4-1.1 0-.4-.2-.8-.4-1.1-.6-.5-1.6-.5-2.2.1zM42.9 24.8v-4.5c0-.8-.7-1.5-1.5-1.5s-1.5.7-1.5 1.5v4.5c0 .8.7 1.5 1.5 1.5s1.5-.7 1.5-1.5zM41.3 17.3 103.6 84.8c-.3.3-.4.7-.4 1.1 0 .4.2.8.4 1.1.3.3.7.4 1.1.4.4 0 .8-.2 1.1-.4.3-.3.4-.7.4-1.1 0-.4-.2-.8-.4-1.1-.6-.6-1.6-.6-2.2 0zM95 33.6c-.3.3-.4.7-.4 1.1 0 .4.2.8.4 1.1.3.3.7.4 1.1.4.4 0 .8-.2 1.1-.4.3-.3.4-.7.4-1.1 0-.4-.2-.8-.4-1.1-.6-.6-1.6-.6-2.2 0zM38.3 15.8c0-.8-.7-1.5-1.5-1.5h-4.6c-.8 0-1.5.7-1.5 1.5s.7 1.5 1.5 1.5h4.6c.8 0 1.5-.7 1.5-1.5zM120.3 57.6c-.3.3-.4.7-.4 1.1 0 .4.2.8.4 1.1.3.3.7.4 1.1.4.4 0 .8-.2 1.1-.4.3-.3.4-.7.4-1.1s-.2-.8-.4-1.1c-.6-.5-1.6-.5-2.2 0zM6.8 30.6c-.3.3-.4.7-.4 1.1 0 .4.2.8.4 1.1.3.3.7.4 1.1.4.4 0 .8-.2 1.1-.4.3-.3.4-.7.4-1.1 0-.4-.2-.8-.4-1.1-.6-.6-1.6-.6-2.2 0zM26.1 97 25.1 94.4c-.3.3-.4.7-.4 1.1 0 .4.2.8.4 1.1.3.3.7.4 1.1.4.4 0 .8-.2 1.1-.4.3-.3.4-.7.4-1.1 0-.4-.2-.8-.4-1.1-.6-.5-1.7-.5-2.2 0zM126.5 7.5c-3.4 0-6.1-2.7-6.1-6 0-.8-.7-1.5-1.5-1.5-.3 0-.6.1-.8.3-.4.3-.7.7-.7 1.2 0 3.3-2.7 6-6.1 6-.8 0-1.5.7-1.5 1.5s.7 1.5 1.5 1.5c3.4 0 6.1 2.7 6.1 6 0 .8.7 1.5 1.5 1.5s1.5-.7 1.5-1.5c0-3.3 2.7-6 6.1-6 .8 0 1.5-.7 1.5-1.5s-.7-1.5-1.5-1.5zm-7.6 4.1c-.7-1-1.6-1.9-2.6-2.5 1-.7 1.9-1.5 2.6-2.5.7 1 1.6 1.9 2.6 2.5-1.1.6-1.9 1.5-2.6 2.5zM88.3 39.8h-2.1c-1.4 0-2.6-.8-3.3-2l-2.5-4.9c-1.2-2.5-3.7-4-6.5-4H55.2c-2.8 0-5.3 1.5-6.5 4l-2.5 4.9c-.6 1.2-1.9 2-3.3 2h-2.1c-3 0-5.5 2.5-5.5 5.5v33c0 3 2.5 5.5 5.5 5.5h47.4c3 0 5.5-2.5 5.5-5.5v-33c0-3-2.4-5.5-5.4-5.5zm1.8 38.5c0 1-.8 1.8-1.8 1.8H40.9c-1 0-1.8-.8-1.8-1.8v-33c0-1 .8-1.8 1.8-1.8H43c2.8 0 5.3-1.6 6.5-4l2.5-4.9c.6-1.2 1.9-2 3.3-2H74c1.4 0 2.6.8 3.3 2l2.5 4.9c1.2 2.5 3.7 4 6.5 4h2.1c1 0 1.8.8 1.8 1.8v33z"/><path d="M64.6 45.3c-8 0-14.6 6.6-14.6 14.7s6.5 14.7 14.6 14.7c8 0 14.6-6.6 14.6-14.7s-6.6-14.7-14.6-14.7zm0 25.6c-6 0-10.9-4.9-10.9-11s4.9-11 10.9-11 10.9 4.9 10.9 11-4.9 11-10.9 11z"/></svg>