<svg xmlns="http://www.w3.org/2000/svg" width="72" height="72" fill="none"><path fill="#2B80AD" d="M72 36c0 19.882-16.118 36-36 36S0 55.882 0 36 16.118 0 36 0s36 16.118 36 36Z"/><path fill="#fff" fill-rule="evenodd" d="M37.474 18.14c-.626 0-1.216.245-1.663.69L14.328 40.311a2.34 2.34 0 0 0-.687 1.63v.065c.008.592.237 1.18.687 1.632l15.37 15.37a2.346 2.346 0 0 0 1.664.687c.601 0 1.204-.229 1.663-.687l21.48-21.482c.44-.437.691-1.044.691-1.664V20.491a2.354 2.354 0 0 0-2.35-2.35H37.473Zm-6.96 39.987L15.218 42.83a1.227 1.227 0 0 1 0-1.73l21.373-21.378c.234-.232.541-.36.866-.36h15.294c.674 0 1.222.549 1.222 1.223v15.298c0 .323-.13.636-.359.864l-21.373 21.38a1.219 1.219 0 0 1-.865.347c-.316 0-.633-.115-.864-.347Z" clip-rule="evenodd"/><path fill="#fff" fill-rule="evenodd" d="M43.855 26.044a3.442 3.442 0 0 0 3.438 3.438 3.442 3.442 0 0 0 3.436-3.438 3.442 3.442 0 0 0-3.437-3.437 3.442 3.442 0 0 0-3.437 3.437Zm1.189 0a2.252 2.252 0 0 1 2.248-2.249c1.24 0 2.25 1.01 2.25 2.25a2.25 2.25 0 0 1-2.25 2.248 2.25 2.25 0 0 1-2.248-2.249ZM39.025 33.87l-.887.888c-.734-.574-1.592-.93-2.489-.989-1.114-.083-2.14.295-2.884 1.04-1.59 1.588-.776 3.765.235 5.694 1.152 2.108 1.288 3.43.436 4.28-1.051 1.053-2.911.902-4.147-.331v-.003l-.003-.002c-.806-.806-1.487-2.477-1.584-3.892a.601.601 0 0 0-.635-.553.595.595 0 0 0-.552.634c.101 1.47.725 3.134 1.542 4.202l-.883.884a.593.593 0 1 0 .842.84l.89-.891c.834.65 1.81.999 2.762.999.971 0 1.907-.344 2.609-1.043 1.668-1.672.666-4.052-.229-5.687-1.17-2.234-1.294-3.437-.443-4.29.5-.499 1.196-.733 1.966-.695.796.053 1.57.419 2.18 1.026l.002.003.002.002c.811.811 1.185 1.938.975 2.94a.594.594 0 1 0 1.163.245c.254-1.213-.091-2.538-.905-3.581l.878-.879a.593.593 0 0 0-.42-1.014.597.597 0 0 0-.42.173Z" clip-rule="evenodd"/></svg>