<svg xmlns="http://www.w3.org/2000/svg" width="72" height="72" fill="none"><path fill="#2B80AD" d="M72 36c0 19.882-16.118 36-36 36S0 55.882 0 36 16.118 0 36 0s36 16.118 36 36Z"/><path fill="#fff" fill-rule="evenodd" d="M47.634 16.427a3.346 3.346 0 0 1 2.867.846 3.486 3.486 0 0 1 .013 4.848 34.03 34.03 0 0 1-4.288 3.975.858.858 0 0 1-1.068 0 34.052 34.052 0 0 1-4.289-3.975 3.486 3.486 0 0 1 .034-4.868 3.349 3.349 0 0 1 4.789.276 3.349 3.349 0 0 1 1.942-1.102Zm1.24 1.041a2.349 2.349 0 0 0-2.738 1.175.5.5 0 0 1-.888 0 2.348 2.348 0 0 0-3.659-.662 2.486 2.486 0 0 0 .005 3.45l.01.012a33.044 33.044 0 0 0 4.088 3.801 33.038 33.038 0 0 0 4.087-3.8l.01-.012a2.486 2.486 0 0 0 .005-3.451 2.347 2.347 0 0 0-.92-.513ZM18.285 19.883a.5.5 0 0 1 .5.5v3.66a.5.5 0 1 1-1 0v-3.66a.5.5 0 0 1 .5-.5Z" clip-rule="evenodd"/><path fill="#fff" fill-rule="evenodd" d="M15.955 22.213a.5.5 0 0 1 .5-.5h3.66a.5.5 0 1 1 0 1h-3.66a.5.5 0 0 1-.5-.5ZM30.91 22.396a.5.5 0 0 1 0 .707l-2.588 2.588a.5.5 0 0 1-.707-.707l2.588-2.588a.5.5 0 0 1 .707 0Z" clip-rule="evenodd"/><path fill="#fff" fill-rule="evenodd" d="M27.615 22.396a.5.5 0 0 1 .707 0l2.588 2.587a.5.5 0 1 1-.707.708l-2.588-2.588a.5.5 0 0 1 0-.707ZM23.364 18.554a.5.5 0 0 1 .5-.5h.03a.5.5 0 0 1 0 1h-.03a.5.5 0 0 1-.5-.5ZM52.639 27.703a.5.5 0 0 1 .5-.5h.031a.5.5 0 0 1 0 1h-.031a.5.5 0 0 1-.5-.5ZM47.978 47.784a.5.5 0 0 1 .553-.441c2.244.252 4.4.97 6.007 2.232 1.622 1.274 2.67 3.096 2.67 5.482a.5.5 0 0 1-.5.5H51.22a.5.5 0 1 1 0-1h4.971c-.132-1.805-.984-3.185-2.27-4.196-1.419-1.114-3.38-1.786-5.501-2.024a.5.5 0 0 1-.441-.553ZM23.355 47.784a.5.5 0 0 1-.44.553c-2.122.238-4.083.91-5.502 2.024-1.286 1.01-2.138 2.391-2.27 4.197h4.971a.5.5 0 1 1 0 1h-5.489a.5.5 0 0 1-.5-.5c0-2.387 1.048-4.209 2.67-5.483 1.608-1.263 3.764-1.98 6.008-2.232a.5.5 0 0 1 .552.441ZM33.048 46.408a8.649 8.649 0 0 0-8.635 8.149h22.632a8.648 8.648 0 0 0-8.634-8.149h-5.363Zm-6.823 1.826a9.648 9.648 0 0 1 6.823-2.826h5.363a9.648 9.648 0 0 1 9.649 9.649.5.5 0 0 1-.5.5H23.9a.5.5 0 0 1-.5-.5 9.648 9.648 0 0 1 2.825-6.823ZM48.475 35.43a4.074 4.074 0 1 0 0 8.148 4.074 4.074 0 0 0 0-8.148ZM43.4 39.504a5.074 5.074 0 1 1 10.149 0 5.074 5.074 0 0 1-10.149 0ZM35.667 31.771a4.074 4.074 0 1 0 0 8.148 4.074 4.074 0 0 0 0-8.148Zm-5.075 4.074a5.074 5.074 0 1 1 10.149 0 5.074 5.074 0 0 1-10.149 0ZM22.859 35.43a4.074 4.074 0 1 0 0 8.148 4.074 4.074 0 0 0 0-8.148Zm-5.075 4.074a5.074 5.074 0 1 1 10.149 0 5.074 5.074 0 0 1-10.148 0Z" clip-rule="evenodd"/></svg>