<svg xmlns="http://www.w3.org/2000/svg" width="72" height="72" fill="none"><path fill="#2B80AD" d="M72 36c0 19.882-16.118 36-36 36S0 55.882 0 36 16.118 0 36 0s36 16.118 36 36Z"/><g fill="#fff" clip-path="url(#a)"><path d="M36.796 24.948 39.492 31c.238.498.714.913 1.269.913l6.343.829c1.269.165 1.824 1.906.793 2.901l-4.599 4.477a1.797 1.797 0 0 0-.476 1.492l1.19 6.55c.238 1.41-1.11 2.487-2.3 1.741l-5.55-3.233a1.614 1.614 0 0 0-1.507 0l-5.63 3.316c-1.14.636-2.498-.328-2.33-1.577l1.22-6.714c.07-.507-.043-1.015-.338-1.356l-4.816-4.696c-.951-.995-.475-2.653.873-2.901l6.343-.83A1.658 1.658 0 0 0 31.246 31l2.696-6.052c.555-1.243 2.3-1.243 2.854 0Zm1.273 6.686-2.7-6.06-2.718 6.099c-.424.887-1.23 1.51-2.203 1.733l-.27.051-6.262.816c-.08.015-.124.116-.1.198l.033.057 4.59 4.48c.762.637 1.11 1.62 1.039 2.676l-.03.29-1.207 6.633.007.022-.013.015 5.699-3.355c.85-.444 1.84-.482 2.762-.084l.25.119 5.575 3.248c-.013-.013-.02-.029-.029-.064l-1.208-6.65c-.144-.905.112-1.867.73-2.631l.197-.223 4.604-4.482c.077-.074.065-.183.074-.222l.013-.014-6.296-.824-.095-.003c-.988-.091-1.825-.716-2.324-1.599l-.118-.226ZM50.99 28.737c-.468 0-.848-.456-.848-1.017v-3.05c0-.562.38-1.018.847-1.018.468 0 .848.456.848 1.017v3.05c0 .562-.38 1.018-.848 1.018ZM50.99 18.584c-.468 0-.848-.455-.848-1.017v-3.05c0-.561.38-1.017.847-1.017.468 0 .848.456.848 1.017v3.05c0 .562-.38 1.017-.848 1.017ZM47.177 22.229h-3.05c-.562 0-1.017-.38-1.017-.848 0-.468.455-.847 1.017-.847h3.05c.562 0 1.017.38 1.017.847 0 .468-.456.848-1.017.848ZM57.482 22.229h-3.05c-.562 0-1.018-.38-1.018-.848 0-.468.456-.847 1.017-.847h3.05c.562 0 1.018.38 1.018.847 0 .468-.456.848-1.017.848ZM51.124 22.313c-.265 0-.529-.113-.722-.297a1.08 1.08 0 0 1-.295-.727c0-.266.112-.532.295-.726a1.06 1.06 0 0 1 1.444 0c.183.194.295.46.295.726 0 .266-.112.532-.295.727a1.066 1.066 0 0 1-.722.297ZM18.583 43.54a1.907 1.907 0 1 0 0-3.813 1.907 1.907 0 0 0 0 3.813ZM49.092 53.708a1.907 1.907 0 1 0 0-3.813 1.907 1.907 0 0 0 0 3.813ZM17.681 49.154c.385 0 .697.312.697.697 0 .299-.032.59-.092.871.275.838.939 1.501 1.777 1.777.28-.062.572-.093.87-.093.385 0 .697.312.697.697l-.01.115a.697.697 0 0 1-.687.813c-.3 0-.59-.03-.872-.09-.837.274-1.5.937-1.776 1.774.061.281.093.573.093.872a.697.697 0 0 1-.697.696l-.116-.01a.697.697 0 0 1-.813-.687c0-.298.031-.589.09-.87a2.792 2.792 0 0 0-1.774-1.777c-.28.061-.572.093-.871.093a.697.697 0 0 1-.697-.697l.01-.116a.698.698 0 0 1 .687-.813c.298 0 .59.031.87.09a2.791 2.791 0 0 0 1.778-1.776 4.016 4.016 0 0 1-.093-.87c0-.384.311-.696.697-.696l.115.01a.7.7 0 0 1 .117-.01Zm-.116 3.171-.023.032c-.247.328-.54.618-.87.862.34.25.642.552.893.893a4.19 4.19 0 0 1 .893-.894 4.19 4.19 0 0 1-.893-.893ZM25.81 18.261c.385 0 .697.312.697.697 0 .299-.032.59-.092.872.275.837.939 1.5 1.777 1.777.28-.063.571-.094.87-.094.385 0 .697.312.697.697l-.01.116a.697.697 0 0 1-.687.813c-.3 0-.59-.031-.872-.091-.837.274-1.5.937-1.776 1.775.061.28.093.572.093.871a.697.697 0 0 1-.697.697l-.116-.01a.697.697 0 0 1-.813-.687c0-.298.031-.59.09-.87a2.792 2.792 0 0 0-1.774-1.778c-.28.062-.572.093-.871.093a.697.697 0 0 1-.697-.697l.01-.116a.697.697 0 0 1 .687-.813c.298 0 .59.031.87.091a2.791 2.791 0 0 0 1.778-1.776 4.021 4.021 0 0 1-.093-.87c0-.385.311-.697.697-.697l.115.01a.7.7 0 0 1 .117-.01Zm-.116 3.172-.023.031c-.247.328-.54.619-.87.862.34.25.642.553.893.894a4.19 4.19 0 0 1 .893-.894 4.19 4.19 0 0 1-.893-.893Z"/></g><defs><clipPath id="a"><path fill="#fff" d="M13.5 13.5h45v45h-45z"/></clipPath></defs></svg>