<svg version="1.1" xmlns="http://www.w3.org/2000/svg" x="0" y="0" viewBox="0 0 24 24" xml:space="preserve"><path d="M24 11.6C23.8 5.3 18.7.2 12.4 0 5.5-.2-.2 5.5 0 12.4.2 18.7 5.3 23.8 11.6 24c7 .2 12.6-5.5 12.4-12.4zm-4.4 3.1c-.7 2-2.9 4.2-4.9 4.9-4.6 1.5-8.9-.9-10.3-4.7 5.5-1.3 5.1-7.7 5.1-7.7s.6 1.9.2 3.9c4.6-.1 5.9-3.8 6.2-6h.1c.4 1.8 1.3 4.1 3.8 5 .4 1.4.3 3-.2 4.6z"/><path d="M19.8 10.1c-2.4-.9-3.4-3.2-3.8-5h-.1c-.3 2.3-1.6 5.9-6.2 6 .4-1.9-.2-3.9-.2-3.9s.4 6.5-5.1 7.7c1.5 3.8 5.7 6.3 10.3 4.7 2-.7 4.2-2.9 4.9-4.9.5-1.6.6-3.2.2-4.6zm-6.1 7.7c-.3.2-.6.3-1 .4-.9.2-1.9-.1-2.6-.6l-.5-.4v-.1h.2c.6.1 1.1-.1 1.5-.5.1-.1.2-.1.4-.1s.4.1.5.2c.1-.2.3-.2.5-.2.1 0 .3.1.4.1.5.3 1 .6 1.5.5h.2v.1c-.1 0-1.1.6-1.1.6zM17 12c.1.6.4 1.1 1.4 1.2-.4.1-1.6-.2-2.4-.9.1.6.4 1.2 1.1 1.4-.4 0-1.4-.5-2.1-1.4 0 .6.1 1.2.6 1.6-1.9-1.1-2.1-2.4-2.2-2.7l.2-.1c.8 1.3 3.2.9 3.7-.1.1.1.5 1.2 2.2 1.3-.4.3-1.6.2-2.5-.3z" fill="#fff"/><path d="M14.7 17.1h-.2c-.5.1-1.1-.1-1.5-.4-.1-.1-.2-.1-.4-.1s-.4.1-.5.2c-.1-.2-.3-.3-.5-.3-.1 0-.3.1-.4.1-.5.3-1 .6-1.5.5h-.2v.1l.5.4c.8.6 1.7.8 2.6.6.4-.1.7-.2 1-.4l1.1-.7c0 .1 0 0 0 0zm4.7-4.7c-1.7-.1-2.1-1.2-2.2-1.3-.5 1-2.9 1.3-3.7.1l-.2.1c.1.3.3 1.6 2.2 2.7-.6-.4-.7-1-.6-1.6.6.9 1.7 1.4 2.1 1.4-.7-.2-1-.9-1.1-1.4.8.7 2 1 2.4.9-1-.1-1.2-.6-1.4-1.2 1 .4 2.2.5 2.5.3z"/></svg>
