<svg width="20" height="20" viewBox="0 0 20 20" fill="none" xmlns="http://www.w3.org/2000/svg">
<path fill-rule="evenodd" clip-rule="evenodd" d="M3.33316 15.1962C3.33316 15.0561 3.344 14.9193 3.354 14.7816H0.864956C1.09411 13.3187 2.5432 12.5466 4.15812 12.3492C4.35728 12.0332 4.58727 11.7372 4.84559 11.4693C2.40904 11.5157 0 12.6718 0 15.1962C0 15.4251 0.186657 15.6109 0.416646 15.6109H3.40983C3.36316 15.4807 3.33316 15.3422 3.33316 15.1962Z" fill="white"/>
<path fill-rule="evenodd" clip-rule="evenodd" d="M15.4153 15.6107H4.63833C4.40834 15.6107 4.22168 15.4249 4.22168 15.196C4.22168 12.6815 6.27824 10.6348 8.80478 10.6348H11.2488C13.7754 10.6348 15.8319 12.6815 15.8319 15.196C15.8319 15.4249 15.6453 15.6107 15.4153 15.6107Z" fill="white"/>
<path fill-rule="evenodd" clip-rule="evenodd" d="M15.8324 6.4873C14.9132 6.4873 14.1658 7.2312 14.1658 8.14594C14.1658 9.06068 14.9132 9.80458 15.8324 9.80458C16.7515 9.80458 17.4989 9.06068 17.4989 8.14594C17.4989 7.2312 16.7515 6.4873 15.8324 6.4873ZM15.8351 10.6346C14.4568 10.6346 13.3352 9.51834 13.3352 8.14665C13.3352 6.77495 14.4568 5.65869 15.8351 5.65869C17.2133 5.65869 18.335 6.77495 18.335 8.14665C18.335 9.51834 17.2133 10.6346 15.8351 10.6346Z" fill="white"/>
<path fill-rule="evenodd" clip-rule="evenodd" d="M4.1667 6.4873C3.24758 6.4873 2.50012 7.2312 2.50012 8.14594C2.50012 9.06068 3.24758 9.80458 4.1667 9.80458C5.08582 9.80458 5.83329 9.06068 5.83329 8.14594C5.83329 7.2312 5.08582 6.4873 4.1667 6.4873ZM4.1665 10.6346C2.78824 10.6346 1.66663 9.51834 1.66663 8.14665C1.66663 6.77495 2.78824 5.65869 4.1665 5.65869C5.54476 5.65869 6.66637 6.77495 6.66637 8.14665C6.66637 9.51834 5.54476 10.6346 4.1665 10.6346Z" fill="white"/>
<path fill-rule="evenodd" clip-rule="evenodd" d="M15.1553 11.4692C15.4144 11.7371 15.6436 12.0332 15.8427 12.35C17.4585 12.5465 18.9059 13.3186 19.1351 14.7815H16.6469C16.6577 14.9192 16.6677 15.056 16.6677 15.1962C16.6677 15.3422 16.6377 15.4807 16.5919 15.6109H19.5834C19.8142 15.6109 20 15.4259 20 15.1962C20 12.6717 17.5918 11.5157 15.1553 11.4692Z" fill="white"/>
<path fill-rule="evenodd" clip-rule="evenodd" d="M9.99975 8.97591C8.62149 8.97591 7.49988 7.85965 7.49988 6.48795C7.49988 5.11626 8.62149 4 9.99975 4C11.378 4 12.4996 5.11626 12.4996 6.48795C12.4996 7.85965 11.378 8.97591 9.99975 8.97591Z" fill="white"/>
</svg>
