<svg width="95" height="90" viewBox="0 0 95 90" fill="none" xmlns="http://www.w3.org/2000/svg">
<path d="M56.501 39.1221C50.873 39.1221 45.5667 38.3976 41.5594 37.0819C36.0084 35.2598 34.7839 32.947 34.7517 31.3038H34.751V27.1221H36.9635V31.2366C36.9635 33.6034 44.3962 36.9045 56.501 36.9045C68.6057 36.9045 76.0384 33.6034 76.0384 31.2366V27.1221H78.251L78.2503 31.3039C78.2182 32.9472 76.9936 35.2599 71.4427 37.0821C67.4354 38.3976 62.1289 39.1221 56.501 39.1221Z" fill="black"/>
<path d="M27.96 80.756C30.7529 82.1453 33.2839 83.4045 35.2215 84.3685L27.96 80.756Z" fill="white"/>
<path d="M28.5244 79.5967L35.7858 83.4718L34.6795 85.5449L27.4181 81.6697L28.5244 79.5967Z" fill="black"/>
<path d="M11.4816 73.6221L8.19214 71.9396C7.48407 71.5774 6.58524 70.81 6.32352 69.2111C6.07022 67.6631 6.48515 65.5728 7.49221 63.3255C8.42273 61.2489 9.76134 59.2613 11.1649 57.8721L13.001 59.5762C10.494 62.0572 8.47613 66.5552 8.84866 68.8314C8.96788 69.5597 9.28986 69.7243 9.39567 69.7786L12.6851 71.4609L11.4816 73.6221Z" fill="black"/>
<path d="M42.6223 71.5991C37.0343 68.5189 32.2354 65.8739 27.9502 63.512L42.6223 71.5991Z" fill="white"/>
<path d="M28.5654 62.5156L43.2372 70.3455L42.0272 72.6128L27.3554 64.783L28.5654 62.5156Z" fill="black"/>
<path d="M36.167 86.3721C35.5829 86.3721 35.0387 86.2437 34.5494 85.9903C31.9265 84.6318 31.8087 80.2247 34.2754 75.7391C36.2051 72.2298 39.1428 69.8721 41.5851 69.8721C42.1693 69.8721 42.7135 70.0006 43.2029 70.2539C45.8254 71.6122 45.9431 76.0192 43.4767 80.5052C41.547 84.0144 38.6093 86.3721 36.167 86.3721ZM41.5851 72.3011C40.3334 72.3011 38.1201 73.9069 36.4835 76.8827C34.5617 80.3776 34.7523 83.3419 35.7278 83.847C35.8522 83.9116 35.9958 83.9428 36.167 83.9428C37.4187 83.9428 39.632 82.3371 41.2686 79.3613C43.1902 75.8662 42.9999 72.902 42.0246 72.397C41.9 72.3326 41.7563 72.3011 41.5851 72.3011Z" fill="black"/>
<path d="M19.7511 89.3721C15.2713 89.3721 10.751 87.8906 10.751 84.5808V54.9529H13.2023V84.5808C13.2023 85.3331 14.3624 85.8849 14.8612 86.0872C16.1115 86.5944 17.8938 86.8853 19.751 86.8853C21.6081 86.8853 23.3905 86.5944 24.6408 86.0872C25.1396 85.8849 26.2996 85.3331 26.2996 84.5808V54.8721H28.751V84.5808C28.7513 87.8906 24.2309 89.3721 19.7511 89.3721Z" fill="black"/>
<path d="M10.751 72.8721H13.001V83.3721H10.751V72.8721Z" fill="black"/>
<path d="M13.3533 72.8721H10.751V53.522C10.751 51.2582 12.9941 50.1068 14.3311 49.6221L15.251 51.9582C14.6805 52.1651 13.3533 52.7318 13.3533 53.522V72.8721Z" fill="black"/>
<path d="M28.7508 83.3721H26.281V53.6204C26.281 52.7718 24.8614 52.189 24.251 51.9778L25.0528 49.6221C28.2705 50.7355 28.751 52.605 28.751 53.6203V83.3721H28.7508Z" fill="black"/>
<path d="M19.7509 58.6221C14.6201 58.6221 10.751 56.484 10.751 53.6487C10.751 52.0866 11.955 50.6647 14.0545 49.7473L15.0581 51.9253C13.9135 52.4254 13.2023 53.0858 13.2023 53.6487C13.2023 54.7031 15.7533 56.235 19.7508 56.235C23.7484 56.235 26.2995 54.7032 26.2995 53.6487C26.2995 53.0496 25.4822 52.3359 24.2174 51.8306L25.1478 49.6221C27.4377 50.5368 28.751 52.0044 28.751 53.6485C28.7511 56.484 24.8819 58.6221 19.7509 58.6221Z" fill="black"/>
<path d="M19.4551 54.1221C15.6305 54.1221 13.1593 52.8096 13.1593 50.7784C13.1593 49.2182 13.1247 47.2697 13.0881 45.2065C13.0061 40.5912 12.9132 35.36 13.1628 32.172C13.3432 29.8668 16.1081 27.3849 17.2885 26.4247C19.1029 24.949 21.6661 23.3721 23.4189 23.3721C24.6811 23.3721 25.529 24.2093 25.529 25.4556C25.529 27.0563 25.5656 30.0925 25.6078 33.608C25.6698 38.7614 25.7469 45.1749 25.7507 50.3742L25.751 50.7782C25.751 52.8096 23.2797 54.1221 19.4551 54.1221ZM23.266 25.634C22.4234 25.7362 20.6279 26.6171 18.7205 28.1682C16.526 29.9533 15.481 31.553 15.4188 32.3469C15.1776 35.4277 15.2695 40.6019 15.3507 45.1669C15.3874 47.2402 15.4223 49.1986 15.4223 50.7785C15.4223 51.0953 16.8354 51.8704 19.4551 51.8704C22.0747 51.8704 23.4878 51.0953 23.4878 50.7785L23.4875 50.3764C23.4838 45.1895 23.4067 38.7829 23.3448 33.6353C23.304 30.2381 23.2685 27.2878 23.266 25.634Z" fill="black"/>
<path d="M56.1256 63.8721C44.7531 63.8721 35.501 54.4908 35.501 42.9596C35.501 40.0627 36.0746 37.2576 37.2058 34.6221L39.2202 35.5111C38.2102 37.8644 37.6979 40.3705 37.6979 42.9596C37.6979 53.2624 45.9645 61.6444 56.1258 61.6444C66.287 61.6444 74.5539 53.2624 74.5539 42.9596C74.5539 40.4194 74.0603 37.9572 73.0871 35.6412L75.1082 34.768C76.1982 37.3616 76.751 40.1176 76.751 42.9596C76.7506 54.4908 67.4983 63.8721 56.1256 63.8721Z" fill="black"/>
<path d="M56.8761 59.3721C47.9847 59.3721 40.751 52.225 40.751 43.4401C40.751 41.1549 41.2307 38.9481 42.1766 36.8813L44.2083 37.789C43.3938 39.5688 42.9808 41.4701 42.9808 43.4401C42.9808 51.0102 49.2143 57.1688 56.8761 57.1688C64.5378 57.1688 70.7711 51.0102 70.7711 43.4401C70.7711 41.4669 70.3569 39.5629 69.5399 37.781L71.5709 36.8721C72.5197 38.9414 73.001 41.1513 73.001 43.4402C73.001 52.225 65.7674 59.3721 56.8761 59.3721Z" fill="black"/>
<mask id="mask0_236_25871" style="mask-type:alpha" maskUnits="userSpaceOnUse" x="77" y="64" width="10" height="11">
<path d="M78.4802 74.0335C77.7523 74.0335 77.1621 73.4442 77.1621 72.7153C77.1621 68.3536 80.7074 64.8068 85.0671 64.8068C85.7957 64.8068 86.3852 65.3957 86.3852 66.1249C86.3852 66.8537 85.7955 67.4429 85.0671 67.4429C82.1613 67.4429 79.7967 69.8076 79.7967 72.7153C79.7966 73.4444 79.207 74.0335 78.4802 74.0335Z" fill="white"/>
</mask>
<g mask="url(#mask0_236_25871)">
<mask id="mask1_236_25871" style="mask-type:alpha" maskUnits="userSpaceOnUse" x="59" y="0" width="113" height="88">
<path d="M59.5059 0.218872H171.248V87.3813H59.5059V0.218872Z" fill="white"/>
</mask>
<g mask="url(#mask1_236_25871)">
<path d="M72.7627 60.4044H90.7842V78.4355H72.7627V60.4044Z" fill="black"/>
</g>
</g>
<mask id="mask2_236_25871" style="mask-type:alpha" maskUnits="userSpaceOnUse" x="70" y="58" width="10" height="10">
<path d="M71.891 67.4432C71.1642 67.4432 70.5732 66.854 70.5732 66.1252C70.5732 65.3959 71.1642 64.807 71.891 64.807C74.7973 64.807 77.1617 62.4426 77.1617 59.535C77.1617 58.8056 77.7521 58.2168 78.4799 58.2168C79.2066 58.2168 79.7963 58.8058 79.7963 59.535C79.7962 63.8958 76.2509 67.4432 71.891 67.4432Z" fill="white"/>
</mask>
<g mask="url(#mask2_236_25871)">
<mask id="mask3_236_25871" style="mask-type:alpha" maskUnits="userSpaceOnUse" x="59" y="0" width="113" height="88">
<path d="M59.5049 0.219604H171.247V87.382H59.5049V0.219604Z" fill="white"/>
</mask>
<g mask="url(#mask3_236_25871)">
<path d="M66.1738 53.8143H84.1955V71.8449H66.1738V53.8143Z" fill="black"/>
</g>
</g>
<mask id="mask4_236_25871" style="mask-type:alpha" maskUnits="userSpaceOnUse" x="70" y="64" width="10" height="11">
<path d="M78.4799 74.0334C77.752 74.0334 77.1617 73.4442 77.1617 72.7152C77.1617 69.8076 74.7973 67.4429 71.891 67.4429C71.1642 67.4429 70.5732 66.8536 70.5732 66.1249C70.5732 65.3955 71.1642 64.8067 71.891 64.8067C76.251 64.8067 79.7963 68.3536 79.7963 72.7152C79.7962 73.4443 79.2066 74.0334 78.4799 74.0334Z" fill="white"/>
</mask>
<g mask="url(#mask4_236_25871)">
<mask id="mask5_236_25871" style="mask-type:alpha" maskUnits="userSpaceOnUse" x="59" y="0" width="113" height="88">
<path d="M171.247 0.21875H59.5049V87.3811H171.247V0.21875Z" fill="white"/>
</mask>
<g mask="url(#mask5_236_25871)">
<path d="M66.1738 60.4043H84.1955V78.4354H66.1738V60.4043Z" fill="black"/>
</g>
</g>
<mask id="mask6_236_25871" style="mask-type:alpha" maskUnits="userSpaceOnUse" x="77" y="58" width="10" height="10">
<path d="M85.0671 67.4432C80.7074 67.4432 77.1621 63.8958 77.1621 59.535C77.1621 58.8056 77.7525 58.2168 78.4802 58.2168C79.207 58.2168 79.7967 58.8058 79.7967 59.535C79.7967 62.4426 82.1613 64.807 85.0671 64.807C85.7957 64.807 86.3852 65.396 86.3852 66.1252C86.3852 66.854 85.7957 67.4432 85.0671 67.4432Z" fill="white"/>
</mask>
<g mask="url(#mask6_236_25871)">
<mask id="mask7_236_25871" style="mask-type:alpha" maskUnits="userSpaceOnUse" x="59" y="0" width="113" height="88">
<path d="M59.5059 0.219604H171.248V87.382H59.5059V0.219604Z" fill="white"/>
</mask>
<g mask="url(#mask7_236_25871)">
<path d="M72.7627 53.8143H90.7842V71.8449H72.7627V53.8143Z" fill="black"/>
</g>
</g>
<mask id="mask8_236_25871" style="mask-type:alpha" maskUnits="userSpaceOnUse" x="28" y="0" width="4" height="7">
<path d="M29.7693 6.59052C29.0421 6.59052 28.4512 5.99948 28.4512 5.27222V1.31816C28.4512 0.590617 29.0421 0 29.7693 0C30.4962 0 31.0869 0.590617 31.0869 1.31816V5.27222C31.0869 5.99948 30.4962 6.59052 29.7693 6.59052Z" fill="white"/>
</mask>
<g mask="url(#mask8_236_25871)">
<mask id="mask9_236_25871" style="mask-type:alpha" maskUnits="userSpaceOnUse" x="-7" y="-12" width="112" height="88">
<path d="M-6.86133 -11.5994H104.881V75.563H-6.86133V-11.5994Z" fill="white"/>
</mask>
<g mask="url(#mask9_236_25871)">
<path d="M35.4865 -4.40234H24.0518V10.9923H35.4865V-4.40234Z" fill="black"/>
</g>
</g>
<mask id="mask10_236_25871" style="mask-type:alpha" maskUnits="userSpaceOnUse" x="28" y="11" width="4" height="8">
<path d="M29.7693 18.4535C29.0421 18.4535 28.4512 17.8628 28.4512 17.1354V13.1806C28.4512 12.4529 29.0421 11.8623 29.7693 11.8623C30.4962 11.8623 31.0869 12.4531 31.0869 13.1806V17.1354C31.0869 17.8629 30.4962 18.4535 29.7693 18.4535Z" fill="white"/>
</mask>
<g mask="url(#mask10_236_25871)">
<mask id="mask11_236_25871" style="mask-type:alpha" maskUnits="userSpaceOnUse" x="-7" y="-12" width="112" height="88">
<path d="M-6.86133 -11.5997H104.881V75.5627H-6.86133V-11.5997Z" fill="white"/>
</mask>
<g mask="url(#mask11_236_25871)">
<path d="M24.0518 7.46008H35.4865V22.8556H24.0518V7.46008Z" fill="black"/>
</g>
</g>
<mask id="mask12_236_25871" style="mask-type:alpha" maskUnits="userSpaceOnUse" x="20" y="7" width="8" height="4">
<path d="M25.8175 10.5445H21.8642C21.1363 10.5445 20.5469 9.9547 20.5469 9.22633C20.5469 8.49906 21.1364 7.90845 21.8642 7.90845H25.8175C26.5443 7.90845 27.1347 8.49906 27.1347 9.22633C27.1345 9.95484 26.5443 10.5445 25.8175 10.5445Z" fill="white"/>
</mask>
<g mask="url(#mask12_236_25871)">
<mask id="mask13_236_25871" style="mask-type:alpha" maskUnits="userSpaceOnUse" x="-7" y="-12" width="112" height="88">
<path d="M-6.86035 -11.5994H104.882V75.563H-6.86035V-11.5994Z" fill="white"/>
</mask>
<g mask="url(#mask13_236_25871)">
<path d="M16.1475 3.5061H31.534V14.9469H16.1475V3.5061Z" fill="black"/>
</g>
</g>
<mask id="mask14_236_25871" style="mask-type:alpha" maskUnits="userSpaceOnUse" x="32" y="7" width="7" height="4">
<path d="M37.6757 10.5445H33.7224C32.9956 10.5445 32.4053 9.9547 32.4053 9.22633C32.4053 8.49906 32.9956 7.90845 33.7224 7.90845H37.6757C38.4036 7.90845 38.9931 8.49906 38.9931 9.22633C38.9931 9.95484 38.4035 10.5445 37.6757 10.5445Z" fill="white"/>
</mask>
<g mask="url(#mask14_236_25871)">
<mask id="mask15_236_25871" style="mask-type:alpha" maskUnits="userSpaceOnUse" x="-7" y="-12" width="112" height="88">
<path d="M-6.86035 -11.5994H104.882V75.563H-6.86035V-11.5994Z" fill="white"/>
</mask>
<g mask="url(#mask15_236_25871)">
<path d="M28.0059 3.5061H43.3921V14.9469H28.0059V3.5061Z" fill="black"/>
</g>
</g>
<mask id="mask16_236_25871" style="mask-type:alpha" maskUnits="userSpaceOnUse" x="28" y="7" width="4" height="4">
<path d="M29.7694 10.5441C29.4274 10.5441 29.0837 10.3995 28.8336 10.1624C28.5967 9.91205 28.4512 9.56925 28.4512 9.22576C28.4512 8.8838 28.5967 8.54058 28.8336 8.29041C29.3346 7.80294 30.2042 7.80294 30.7049 8.29041C30.9423 8.54058 31.087 8.8838 31.087 9.22576C31.087 9.56911 30.9423 9.91205 30.7049 10.1624C30.4552 10.3995 30.1112 10.5441 29.7694 10.5441Z" fill="white"/>
</mask>
<g mask="url(#mask16_236_25871)">
<mask id="mask17_236_25871" style="mask-type:alpha" maskUnits="userSpaceOnUse" x="-7" y="-12" width="112" height="88">
<path d="M-6.86035 -11.5997H104.882V75.5627H-6.86035V-11.5997Z" fill="white"/>
</mask>
<g mask="url(#mask17_236_25871)">
<path d="M24.0527 3.52222H35.4875V14.9466H24.0527V3.52222Z" fill="black"/>
</g>
</g>
<mask id="mask18_236_25871" style="mask-type:alpha" maskUnits="userSpaceOnUse" x="92" y="15" width="3" height="4">
<path d="M93.4597 18.4542C93.1167 18.4542 92.7742 18.31 92.5239 18.0725C92.2869 17.8222 92.1416 17.4793 92.1416 17.1363C92.1416 16.7791 92.2869 16.4379 92.5239 16.2006C93.0249 15.7131 93.9072 15.7131 94.3945 16.2006C94.6318 16.45 94.7769 16.7791 94.7769 17.1363C94.7769 17.4793 94.6318 17.8222 94.3945 18.0725C94.1442 18.31 93.8155 18.4542 93.4597 18.4542Z" fill="white"/>
</mask>
<g mask="url(#mask18_236_25871)">
<mask id="mask19_236_25871" style="mask-type:alpha" maskUnits="userSpaceOnUse" x="9" y="-14" width="113" height="88">
<path d="M9.39453 -13.1797H121.137V73.9827H9.39453V-13.1797Z" fill="white"/>
</mask>
<g mask="url(#mask19_236_25871)">
<path d="M87.7422 11.4325H99.1761V22.8568H87.7422V11.4325Z" fill="black"/>
</g>
</g>
<mask id="mask20_236_25871" style="mask-type:alpha" maskUnits="userSpaceOnUse" x="0" y="76" width="3" height="4">
<path d="M1.31814 79.4007C0.974594 79.4007 0.630498 79.256 0.381592 79.0189C0.143616 78.7687 0 78.4253 0 78.0824C0 77.74 0.143616 77.3964 0.381592 77.1471C0.88314 76.6593 1.76545 76.6593 2.25288 77.1471C2.48989 77.3964 2.63517 77.74 2.63517 78.0824C2.63517 78.4253 2.48989 78.7687 2.25288 79.0189C2.00315 79.256 1.66016 79.4007 1.31814 79.4007Z" fill="white"/>
</mask>
<g mask="url(#mask20_236_25871)">
<mask id="mask21_236_25871" style="mask-type:alpha" maskUnits="userSpaceOnUse" x="-110" y="0" width="113" height="88">
<path d="M-109.1 0.314453H2.64252V87.477H-109.1V0.314453Z" fill="white"/>
</mask>
<g mask="url(#mask21_236_25871)">
<path d="M-4.39941 72.3797H7.03449V83.803H-4.39941V72.3797Z" fill="black"/>
</g>
</g>
<mask id="mask22_236_25871" style="mask-type:alpha" maskUnits="userSpaceOnUse" x="3" y="26" width="4" height="4">
<path d="M4.8035 29.4757C4.44709 29.4757 4.11696 29.3305 3.86792 29.0931C3.62994 28.8429 3.48633 28.4998 3.48633 28.1574C3.48633 27.7997 3.62994 27.4706 3.86792 27.221C4.35591 26.7336 5.25136 26.7336 5.73921 27.221C5.97622 27.4706 6.1208 27.7997 6.1208 28.1574C6.1208 28.4998 5.97622 28.8429 5.73921 29.0931C5.48837 29.3306 5.14635 29.4757 4.8035 29.4757Z" fill="white"/>
</mask>
<g mask="url(#mask22_236_25871)">
<mask id="mask23_236_25871" style="mask-type:alpha" maskUnits="userSpaceOnUse" x="-19" y="-56" width="113" height="88">
<path d="M-18.6504 -55.4111H93.0917V31.7514H-18.6504V-55.4111Z" fill="white"/>
</mask>
<g mask="url(#mask23_236_25871)">
<path d="M-0.913086 22.4531H10.5199V33.877H-0.913086V22.4531Z" fill="black"/>
</g>
</g>
<mask id="mask24_236_25871" style="mask-type:alpha" maskUnits="userSpaceOnUse" x="50" y="5" width="3" height="3">
<path d="M51.3751 7.80895C51.0177 7.80895 50.6884 7.66386 50.4392 7.42642C50.2011 7.17611 50.0566 6.83317 50.0566 6.49093C50.0566 6.13498 50.2011 5.80575 50.4392 5.55447C50.9125 5.08084 51.8098 5.06714 52.3097 5.55447C52.5469 5.80562 52.6931 6.13484 52.6931 6.49093C52.6931 6.83317 52.5469 7.17611 52.3097 7.42642C52.0601 7.664 51.7169 7.80895 51.3751 7.80895Z" fill="white"/>
</mask>
<g mask="url(#mask24_236_25871)">
<mask id="mask25_236_25871" style="mask-type:alpha" maskUnits="userSpaceOnUse" x="-17" y="-14" width="112" height="88">
<path d="M-16.8779 -13.2808H94.8642V73.8818H-16.8779V-13.2808Z" fill="white"/>
</mask>
<g mask="url(#mask25_236_25871)">
<path d="M45.6582 0.79248H57.0931V12.2114H45.6582V0.79248Z" fill="black"/>
</g>
</g>
<mask id="mask26_236_25871" style="mask-type:alpha" maskUnits="userSpaceOnUse" x="90" y="68" width="3" height="3">
<path d="M91.4812 70.754C91.1382 70.754 90.7964 70.6085 90.5452 70.3713C90.3082 70.1209 90.1641 69.7781 90.1641 69.436C90.1641 69.0926 90.3082 68.7505 90.5452 68.4995C91.0464 68.012 91.9161 68.012 92.4171 68.4995C92.6541 68.7504 92.7984 69.0925 92.7984 69.436C92.7984 69.7781 92.6541 70.1209 92.4171 70.3713C92.166 70.6085 91.8238 70.754 91.4812 70.754Z" fill="white"/>
</mask>
<g mask="url(#mask26_236_25871)">
<mask id="mask27_236_25871" style="mask-type:alpha" maskUnits="userSpaceOnUse" x="-10" y="-17" width="113" height="88">
<path d="M-9.71289 -16.2411H102.029V70.9213H-9.71289V-16.2411Z" fill="white"/>
</mask>
<g mask="url(#mask27_236_25871)">
<path d="M85.7646 63.7325H97.1975V75.1564H85.7646V63.7325Z" fill="black"/>
</g>
</g>
<mask id="mask28_236_25871" style="mask-type:alpha" maskUnits="userSpaceOnUse" x="85" y="8" width="10" height="11">
<path d="M86.3844 18.1649C85.6554 18.1649 85.0664 17.574 85.0664 16.8467C85.0664 12.4851 88.6124 8.9375 92.973 8.9375C93.702 8.9375 94.2902 9.52826 94.2902 10.2557C94.2902 10.9836 93.702 11.5735 92.973 11.5735C90.0657 11.5735 87.7024 13.9389 87.7024 16.8467C87.7024 17.5741 87.1127 18.1649 86.3844 18.1649Z" fill="white"/>
</mask>
<g mask="url(#mask28_236_25871)">
<mask id="mask29_236_25871" style="mask-type:alpha" maskUnits="userSpaceOnUse" x="-18" y="2" width="113" height="88">
<path d="M-17.4453 2.34668H94.2968V89.5092H-17.4453V2.34668Z" fill="white"/>
</mask>
<g mask="url(#mask29_236_25871)">
<path d="M80.667 4.53516H98.6894V22.567H80.667V4.53516Z" fill="black"/>
</g>
</g>
<mask id="mask30_236_25871" style="mask-type:alpha" maskUnits="userSpaceOnUse" x="78" y="2" width="10" height="10">
<path d="M79.7957 11.5731C79.0668 11.5731 78.4785 10.9832 78.4785 10.2552C78.4785 9.52767 79.0668 8.93706 79.7957 8.93706C82.7031 8.93706 85.0663 6.57279 85.0663 3.6647C85.0663 2.93744 85.6554 2.34668 86.3843 2.34668C87.1126 2.34668 87.7022 2.93744 87.7022 3.6647C87.7023 8.02663 84.1565 11.5731 79.7957 11.5731Z" fill="white"/>
</mask>
<g mask="url(#mask30_236_25871)">
<mask id="mask31_236_25871" style="mask-type:alpha" maskUnits="userSpaceOnUse" x="-18" y="2" width="113" height="88">
<path d="M-17.4453 2.34668H94.2968V89.5092H-17.4453V2.34668Z" fill="white"/>
</mask>
<g mask="url(#mask31_236_25871)">
<path d="M74.0791 -2.05554H92.1016V15.9752H74.0791V-2.05554Z" fill="black"/>
</g>
</g>
<mask id="mask32_236_25871" style="mask-type:alpha" maskUnits="userSpaceOnUse" x="78" y="8" width="10" height="11">
<path d="M86.3843 18.1649C85.6553 18.1649 85.0663 17.574 85.0663 16.8467C85.0663 13.9389 82.7031 11.5735 79.7957 11.5735C79.0668 11.5735 78.4785 10.9836 78.4785 10.2557C78.4785 9.52812 79.0668 8.9375 79.7957 8.9375C84.1565 8.9375 87.7023 12.4851 87.7023 16.8467C87.7023 17.5741 87.1126 18.1649 86.3843 18.1649Z" fill="white"/>
</mask>
<g mask="url(#mask32_236_25871)">
<mask id="mask33_236_25871" style="mask-type:alpha" maskUnits="userSpaceOnUse" x="-18" y="2" width="113" height="88">
<path d="M-17.4453 2.34668H94.2968V89.5092H-17.4453V2.34668Z" fill="white"/>
</mask>
<g mask="url(#mask33_236_25871)">
<path d="M74.0791 4.53516H92.1016V22.567H74.0791V4.53516Z" fill="black"/>
</g>
</g>
<mask id="mask34_236_25871" style="mask-type:alpha" maskUnits="userSpaceOnUse" x="85" y="2" width="10" height="10">
<path d="M92.973 11.5731C88.6124 11.5731 85.0664 8.02663 85.0664 3.6647C85.0664 2.93744 85.6555 2.34668 86.3844 2.34668C87.1127 2.34668 87.7023 2.93744 87.7023 3.6647C87.7023 6.57279 90.0656 8.93706 92.9729 8.93706C93.7019 8.93706 94.29 9.52781 94.29 10.2552C94.29 10.9832 93.7019 11.5731 92.973 11.5731Z" fill="white"/>
</mask>
<g mask="url(#mask34_236_25871)">
<mask id="mask35_236_25871" style="mask-type:alpha" maskUnits="userSpaceOnUse" x="-18" y="2" width="113" height="88">
<path d="M-17.4453 2.34668H94.2968V89.5092H-17.4453V2.34668Z" fill="white"/>
</mask>
<g mask="url(#mask35_236_25871)">
<path d="M80.667 -2.05554H98.6894V15.9752H80.667V-2.05554Z" fill="black"/>
</g>
</g>
<path d="M56.5008 35.3721C50.853 35.3721 45.5268 34.523 41.5032 32.9817C37.149 31.3137 34.751 28.9663 34.751 26.3721C34.751 23.7778 37.149 21.4306 41.5032 19.7624C45.5268 18.221 50.8532 17.3721 56.5008 17.3721C62.1485 17.3721 67.4749 18.2211 71.4986 19.7624C75.853 21.4304 78.251 23.7778 78.251 26.3721C78.251 28.9663 75.853 31.3136 71.4986 32.9817C67.4749 34.523 62.1485 35.3721 56.5008 35.3721ZM56.5008 19.5553C44.9875 19.5553 36.964 23.1478 36.964 26.3719C36.964 29.5961 44.9875 33.1886 56.5008 33.1886C68.0143 33.1886 76.0378 29.5961 76.0378 26.3719C76.0378 23.1478 68.0143 19.5553 56.5008 19.5553Z" fill="black"/>
<path d="M62.1313 41.3721H50.8705C50.2322 41.3721 49.751 40.7251 49.751 39.8672V38.3721H51.526V39.3394H61.476V38.4282H63.251V39.8672C63.2508 40.7251 62.7695 41.3721 62.1313 41.3721Z" fill="black"/>
<path d="M55.001 60.8721C55.001 60.8721 55.0596 60.8085 55.1621 60.7222C55.2647 60.6369 55.4111 60.5324 55.5869 60.4395C55.7626 60.3454 55.9678 60.2651 56.1875 60.2076C56.4072 60.151 56.6416 60.1235 56.876 60.1221C57.1104 60.1224 57.3447 60.1492 57.5645 60.2058C57.7843 60.2624 57.9893 60.343 58.165 60.4373C58.3408 60.5308 58.4873 60.6357 58.5899 60.7214C58.6924 60.8079 58.751 60.8721 58.751 60.8721C58.751 60.8721 58.6923 60.936 58.5899 61.0228C58.4873 61.1085 58.3409 61.2136 58.165 61.3068C57.9893 61.4011 57.7841 61.4818 57.5645 61.5384C57.3447 61.5948 57.1104 61.6217 56.876 61.6221C56.6416 61.6206 56.4072 61.5933 56.1875 61.5366C55.9677 61.4791 55.7626 61.3988 55.5869 61.3046C55.4112 61.2116 55.2647 61.107 55.1621 61.0219C55.0595 60.9355 55.001 60.8721 55.001 60.8721Z" fill="black"/>
</svg>
