<svg xmlns="http://www.w3.org/2000/svg" xmlns:xlink="http://www.w3.org/1999/xlink" width="40" height="40"><defs><path id="a" d="M.029.251h31.063v30.278H.028z"/></defs><g fill="none" fill-rule="evenodd"><path fill="#000" fill-rule="nonzero" d="M4.8 23.578c-.04-.262-.075-.526-.101-.792-.817-7.99 4.35-15.235 11.826-17.173a15.87 15.87 0 012.318-.42 16.2 16.2 0 011.97-.078 15.58 15.58 0 013.915.577 14.857 14.857 0 00-9.93-2.484C6.517 4.073.476 11.585 1.331 19.958a15.254 15.254 0 006.782 11.21 15.916 15.916 0 01-2.088-3.422A16.047 16.047 0 014.8 23.578"/><g transform="translate(7.446 6.385)"><mask id="b" fill="#fff"><use xlink:href="#a"/></mask><path fill="#000" fill-rule="nonzero" d="M26.054 22.861a13.106 13.106 0 01-11.644 5.15 13.18 13.18 0 01-4.114-1.031 13.152 13.152 0 01-4.117-2.824c-2.29-2.327-3.677-5.497-3.621-8.967C2.671 8.2 8.597 2.605 15.766 2.716c1.841.03 3.655.44 5.322 1.205a13.093 13.093 0 012.872 1.801c2.867 2.371 4.666 5.927 4.602 9.87a12.41 12.41 0 01-2.508 7.27m-.247-18.835A15.63 15.63 0 0020.09.912a15.795 15.795 0 00-2.718-.558c-.09-.01-.18-.015-.269-.024-.431-.044-.864-.07-1.297-.077-.387-.004-.773.005-1.158.028a15.698 15.698 0 00-8.058 2.76C2.692 5.736.112 10.142.03 15.15a14.775 14.775 0 001.572 6.868c.404.807.881 1.577 1.425 2.301a15.448 15.448 0 002.619 2.712 15.668 15.668 0 008.721 3.45c.314.023.628.041.946.046 8.564.132 15.64-6.551 15.776-14.898.075-4.608-1.984-8.772-5.283-11.602" mask="url(#b)"/></g><path fill="#000" fill-rule="nonzero" d="M22.64 22.953l-.533.054-.51-4.86c.205-.039.397-.058.587-.077 1.636-.166 2.71.348 2.892 2.067.163 1.551-.627 2.632-2.435 2.816m-.991-7.04c-.78.08-2.236.322-3.117.544l1.376 13.081 2.855-.29-.433-4.111.4-.04c3.026-.308 5.594-1.872 5.222-5.404-.342-3.25-2.877-4.127-6.303-3.78"/></g></svg>
