<svg width="32" height="32" fill="none" xmlns="http://www.w3.org/2000/svg"><path d="M10.226 20.215C2.071 14.447 3.94 7.186 8.456 5.783c4.25-1.328 6.91 2.988 7.499 5.388.912-2.4 2.422-5.45 6.26-5.632 4.627-.221 6.64 5.375 4.374 8.655l1.74 1.878c2.262-3.042 2.032-7.358.212-9.811-1.74-2.386-3.82-3.263-6.317-3.263a7.721 7.721 0 0 0-6.198 3.1c-1.771-3.1-7.013-4.552-11.179-1.156C1.372 7.784-.439 15.704 8.606 22.03a8.734 8.734 0 0 1 1.62-1.816z" fill="#000"/><path d="M21.573 24.271c-5.463-.03-9.195 1.408-13.118 5.202.359-3.192 1.492-5.565 4.117-7.663a14.3 14.3 0 0 1 8.997-3.152V13.03l8.434 8.411c-2.802 2.807-5.605 5.611-8.412 8.412l-.018-5.583z" fill="#000"/></svg>