<svg width="26" height="27" viewBox="0 0 26 27" fill="none" xmlns="http://www.w3.org/2000/svg">
<g id="rewardBazaar">
<path id="Clip 2" fill-rule="evenodd" clip-rule="evenodd" d="M1.84934 19.3342H24.1489V18.1159H1.84934V19.3342ZM1.84934 22.1689H24.1489V20.9306H1.84934V22.1689ZM1.84934 25.0038H24.1489V23.7653H1.84934V25.0038ZM6.1744 11.1121C6.64117 11.526 7.25372 11.778 7.92466 11.778C9.12077 11.778 10.1335 10.979 10.4622 9.88714C10.7917 10.9799 11.8039 11.778 12.9992 11.778C14.1949 11.778 15.2076 10.9792 15.5364 9.8857C15.8654 10.9792 16.8779 11.778 18.0736 11.778C18.7163 11.778 19.3048 11.546 19.7638 11.163V16.5193H6.1744V11.1121ZM23.1485 11.778C24.6099 11.778 25.7992 10.5855 25.7992 9.11906V7.74523L21.9944 0.200195H18.4383H18.2011H14.887H14.6594H11.3396H11.1114H7.79697H7.56009H4.00426L0.199219 7.74523V9.11906C0.199219 9.86218 0.49696 10.5511 1.03692 11.0588C1.5335 11.526 2.17155 11.778 2.85134 11.778C2.90932 11.778 2.96772 11.776 3.02653 11.7723C3.62201 11.7337 4.16054 11.4883 4.58268 11.1077V16.5193H1.05358C0.613959 16.5193 0.257822 16.8767 0.257822 17.3175V25.802C0.257822 26.243 0.613959 26.6002 1.05358 26.6002H24.9446C25.3843 26.6002 25.7404 26.243 25.7404 25.802V17.3175C25.7404 16.8767 25.3843 16.5193 24.9446 16.5193H21.3553V11.0731C21.8276 11.5099 22.4568 11.778 23.1485 11.778Z" fill="black"/>
</g>
</svg>
