<svg width="24" height="24" viewBox="0 0 24 24" fill="none" xmlns="http://www.w3.org/2000/svg">
<g clip-path="url(#clip0_592_20921)">
<path d="M1 22.5V6H4V7.5C4 7.63261 4.05268 7.75979 4.14645 7.85355C4.24021 7.94732 4.36739 8 4.5 8C4.63261 8 4.75979 7.94732 4.85355 7.85355C4.94732 7.75979 5 7.63261 5 7.5V6H10V7.5C10 7.63261 10.0527 7.75979 10.1464 7.85355C10.2402 7.94732 10.3674 8 10.5 8C10.6326 8 10.7598 7.94732 10.8536 7.85355C10.9473 7.75979 11 7.63261 11 7.5V6H14V11H15V5.5C15 5.43433 14.9871 5.36929 14.962 5.30861C14.9369 5.24793 14.9001 5.1928 14.8536 5.14636C14.8072 5.09992 14.7521 5.0631 14.6914 5.03798C14.6307 5.01287 14.5657 4.99996 14.5 5H11V3.5C11 2.57174 10.6313 1.6815 9.97487 1.02513C9.3185 0.368749 8.42826 0 7.5 0C6.57174 0 5.6815 0.368749 5.02513 1.02513C4.36875 1.6815 4 2.57174 4 3.5V5H0.5C0.434328 4.99996 0.369293 5.01287 0.308613 5.03798C0.247933 5.0631 0.192799 5.09992 0.146362 5.14636C0.0999248 5.1928 0.0630965 5.24793 0.0379827 5.30861C0.0128688 5.36929 -3.80385e-05 5.43433 8.42054e-08 5.5V22.5C0.000434182 22.8977 0.158609 23.279 0.439819 23.5602C0.72103 23.8414 1.10231 23.9996 1.5 24H8V23H1.5C1.36742 22.9999 1.24029 22.9472 1.14655 22.8535C1.0528 22.7597 1.00009 22.6326 1 22.5ZM5 3.5C5 2.83696 5.26339 2.20107 5.73223 1.73223C6.20107 1.26339 6.83696 1 7.5 1C8.16304 1 8.79893 1.26339 9.26777 1.73223C9.73661 2.20107 10 2.83696 10 3.5V5H5V3.5Z" fill="black"/>
<path d="M23.5 12H9.5C9.43433 12 9.36929 12.0129 9.30861 12.038C9.24793 12.0631 9.1928 12.0999 9.14636 12.1464C9.09992 12.1928 9.0631 12.2479 9.03798 12.3086C9.01287 12.3693 8.99996 12.4343 9 12.5V22.5C9.00043 22.8977 9.15861 23.279 9.43982 23.5602C9.72103 23.8414 10.1023 23.9996 10.5 24H22.5C22.8977 23.9996 23.279 23.8414 23.5602 23.5602C23.8414 23.279 23.9996 22.8977 24 22.5V12.5C24 12.4343 23.9871 12.3693 23.962 12.3086C23.9369 12.2479 23.9001 12.1928 23.8536 12.1464C23.8072 12.0999 23.7521 12.0631 23.6914 12.038C23.6307 12.0129 23.5657 12 23.5 12ZM23 22.5C22.9999 22.6326 22.9472 22.7597 22.8535 22.8535C22.7597 22.9472 22.6326 22.9999 22.5 23H10.5C10.3674 22.9999 10.2403 22.9472 10.1465 22.8535C10.0528 22.7597 10.0001 22.6326 10 22.5V13H23V22.5Z" fill="black"/>
<path d="M16.5 20C17.4279 19.9989 18.3175 19.6298 18.9736 18.9736C19.6298 18.3175 19.9989 17.4279 20 16.5V15.5C20 15.3674 19.9473 15.2402 19.8536 15.1464C19.7598 15.0527 19.6326 15 19.5 15C19.3674 15 19.2402 15.0527 19.1464 15.1464C19.0527 15.2402 19 15.3674 19 15.5V16.5C19 17.163 18.7366 17.7989 18.2678 18.2678C17.7989 18.7366 17.163 19 16.5 19C15.837 19 15.2011 18.7366 14.7322 18.2678C14.2634 17.7989 14 17.163 14 16.5V15.5C14 15.3674 13.9473 15.2402 13.8536 15.1464C13.7598 15.0527 13.6326 15 13.5 15C13.3674 15 13.2402 15.0527 13.1464 15.1464C13.0527 15.2402 13 15.3674 13 15.5V16.5C13.0011 17.4279 13.3702 18.3175 14.0264 18.9736C14.6825 19.6298 15.5721 19.9989 16.5 20Z" fill="black"/>
</g>
<defs>
<clipPath id="clip0_592_20921">
<rect width="24" height="24" fill="white"/>
</clipPath>
</defs>
</svg>
