<svg viewBox="0 0 15 14" fill="none" xmlns="http://www.w3.org/2000/svg">
<path fill-rule="evenodd" clip-rule="evenodd" d="M3.43748 13.5C3.3477 13.5 3.25873 13.4694 3.18479 13.409C3.04382 13.2933 2.99345 13.0962 3.06089 12.9238L4.78705 8.50512L1.17222 5.87538C1.02759 5.77012 0.965438 5.58015 1.01906 5.4057C1.07228 5.23125 1.2291 5.113 1.40622 5.113H5.60849L7.11772 0.777756C7.17744 0.605404 7.33181 0.490921 7.51584 0.500566C7.69297 0.507695 7.84531 0.632661 7.89163 0.809208L9.02913 5.113H13.5938C13.7709 5.113 13.9273 5.23125 13.9809 5.4057C14.0346 5.58015 13.9724 5.77012 13.8278 5.87538L10.213 8.50512L11.9395 12.9238C12.0066 13.0957 11.9562 13.2933 11.8152 13.409C11.6738 13.5235 11.4772 13.531 11.3297 13.4241L7.5 10.6572L3.67026 13.4245C3.60039 13.4748 3.51873 13.5 3.43748 13.5Z" fill="#FFC003" stroke="#A05E0D" stroke-width="0.75"/>
</svg>