<svg width="32" height="32" fill="none" xmlns="http://www.w3.org/2000/svg"><path fill="#fff" d="M0 0h32v32H0z"/><path fill-rule="evenodd" clip-rule="evenodd" d="M11.478 25.755c8.983 0 13.899-7.556 13.899-14.096 0-.213 0-.425-.01-.638a10.031 10.031 0 0 0 2.439-2.57 9.792 9.792 0 0 1-2.81.783 4.972 4.972 0 0 0 2.152-2.744c-.943.57-1.99.976-3.105 1.198a4.844 4.844 0 0 0-3.563-1.565c-2.696 0-4.887 2.222-4.887 4.956 0 .386.048.763.124 1.13-4.058-.202-7.659-2.183-10.069-5.178a5.01 5.01 0 0 0-.657 2.493c0 1.72.867 3.236 2.172 4.125a4.889 4.889 0 0 1-2.21-.618v.067c0 2.396 1.686 4.406 3.915 4.86-.41.116-.838.174-1.286.174-.315 0-.62-.03-.915-.087.62 1.97 2.43 3.4 4.563 3.44a9.71 9.71 0 0 1-6.068 2.125c-.39 0-.781-.02-1.162-.068a13.753 13.753 0 0 0 7.478 2.212z" fill="#000"/></svg>