<svg width="50" height="32" viewBox="0 0 50 32" fill="none" xmlns="http://www.w3.org/2000/svg">
<rect x="0.5" y="0.5" width="49" height="31" rx="2.5" fill="#00D633"/>
<rect x="0.5" y="0.5" width="49" height="31" rx="2.5" stroke="#CCCCCC"/>
<path d="M26.1867 14.0986C29.9051 14.8211 31.6049 16.2178 31.6049 18.5778C31.6049 21.5363 28.9479 23.7202 24.8001 23.9513L24.3954 25.7013C24.3558 25.8723 24.1893 25.9949 23.9967 25.9949H20.8055C20.5426 25.9949 20.3485 25.7722 20.4092 25.5402L20.9214 23.5833C18.8654 23.0529 17.211 22.0211 16.2464 20.7475C16.1251 20.5873 16.1654 20.3682 16.3346 20.2487L18.5651 18.6759C18.7489 18.5463 19.0124 18.5843 19.1483 18.7558C20.3301 20.2471 22.1432 21.1305 24.3274 21.1305C26.2929 21.1305 27.7802 20.2635 27.7802 19.0113C27.7802 18.0479 27.0366 17.6145 24.5399 17.1329C20.2371 16.3141 18.5373 14.8693 18.5373 12.5093C18.5373 9.77107 21.0754 7.70262 24.9041 7.43397L25.322 5.62654C25.3616 5.4555 25.5279 5.33301 25.7207 5.33301H28.8689C29.1286 5.33301 29.322 5.55041 29.267 5.78054L28.783 7.80569C30.4305 8.26547 31.772 9.08759 32.607 10.1021C32.7364 10.2593 32.7032 10.482 32.5358 10.6064L30.501 12.1193C30.3241 12.2508 30.066 12.2221 29.9221 12.0608C28.8879 10.9011 27.2598 10.2456 25.4961 10.2456C23.5307 10.2456 22.3089 11.0162 22.3089 12.124C22.3089 13.0391 23.2651 13.5207 26.1867 14.0986Z" fill="white"/>
</svg>
