<svg xmlns="http://www.w3.org/2000/svg" width="50" height="32" viewBox="0 0 50 32" fill="none">
  <path fill-rule="evenodd" clip-rule="evenodd" d="M16.9616 14.7014C16.8612 14.5598 16.7207 14.4513 16.5581 14.3899C16.3887 14.3236 16.2083 14.29 16.0263 14.2907C15.9184 14.2905 15.8109 14.303 15.7059 14.3279C15.6068 14.3506 15.5123 14.3903 15.4267 14.4451C15.3446 14.4981 15.2761 14.5697 15.2269 14.654C15.1747 14.7468 15.1487 14.852 15.1515 14.9584C15.1427 15.1158 15.2135 15.2672 15.34 15.3615C15.4837 15.4638 15.6411 15.5452 15.8076 15.6034C15.9937 15.6719 16.1973 15.738 16.4185 15.8019C16.633 15.8625 16.8385 15.9512 17.0296 16.0658C17.2162 16.1787 17.3758 16.3312 17.4971 16.5124C17.6328 16.7348 17.6984 16.9927 17.6857 17.2528C17.6915 17.5051 17.6372 17.7551 17.5273 17.9822C17.4262 18.1845 17.2805 18.3612 17.1011 18.4991C16.9149 18.6398 16.7038 18.7442 16.4789 18.807C16.2361 18.8763 15.9847 18.9108 15.7322 18.9096C15.406 18.9106 15.0821 18.856 14.7743 18.7483C14.4671 18.6405 14.1939 18.4533 13.9824 18.2059L14.6989 17.5314C14.8138 17.7018 14.971 17.8395 15.1552 17.931C15.3408 18.0256 15.5464 18.0746 15.7548 18.0739C15.8669 18.0737 15.9785 18.0589 16.0867 18.0299C16.1937 18.0021 16.2955 17.9576 16.3885 17.898C16.4773 17.841 16.552 17.7646 16.6071 17.6747C16.6634 17.5806 16.6922 17.4726 16.6901 17.363C16.6999 17.1949 16.6301 17.0321 16.5015 16.9232C16.3606 16.8119 16.2028 16.7239 16.0339 16.6627C15.8478 16.5918 15.6442 16.5246 15.423 16.4611C15.2091 16.4006 15.0038 16.3131 14.8121 16.2005C14.6256 16.0902 14.4659 15.94 14.3444 15.7607C14.2084 15.5398 14.1427 15.2829 14.1558 15.0239C14.1495 14.7808 14.208 14.5405 14.3255 14.3275C14.4364 14.1344 14.5883 13.968 14.7706 13.8399C14.9617 13.7069 15.1749 13.6088 15.4004 13.5504C15.6365 13.4869 15.88 13.4548 16.1245 13.4551C16.402 13.4545 16.678 13.4965 16.9427 13.5798C17.2074 13.6632 17.4507 13.8033 17.6555 13.9903L16.9616 14.7014ZM13.1758 13.5867H12.2255V18.7776H13.1758V13.5867ZM6.52344 13.5869H8.62774C8.97344 13.5859 9.31716 13.639 9.64635 13.7445C9.96477 13.8449 10.2597 14.0082 10.5138 14.2246C10.7713 14.4478 10.9771 14.7243 11.1171 15.0348C11.2754 15.3962 11.3526 15.7878 11.3434 16.1821C11.3534 16.5826 11.2638 16.9793 11.0826 17.3367C10.9189 17.65 10.6902 17.925 10.4118 18.1431C10.1386 18.3553 9.82949 18.5167 9.49914 18.6196C9.18104 18.7221 8.84907 18.7753 8.51482 18.7773H6.52344V13.5869ZM8.18256 17.9421C8.4659 17.9435 8.74834 17.9102 9.02354 17.8428C9.27089 17.7843 9.50502 17.6799 9.71371 17.5349C9.91047 17.3947 10.0697 17.2084 10.1775 16.9924C10.2973 16.7395 10.3555 16.4619 10.3472 16.1823C10.3543 15.9059 10.3029 15.6312 10.1964 15.3759C10.1042 15.1622 9.96038 14.9746 9.7778 14.83C9.58948 14.686 9.37401 14.5813 9.14428 14.5222C8.88211 14.4538 8.61202 14.4205 8.34107 14.423H7.47363V17.9418H8.18256V17.9421ZM21.2162 14.2905C21.6489 14.2849 22.0613 14.4733 22.34 14.8038L23.0791 14.2764C22.8442 14.0012 22.5486 13.7841 22.2156 13.6423C21.8952 13.5155 21.5532 13.452 21.2086 13.4553C20.8218 13.4507 20.4374 13.5163 20.074 13.6488C19.7424 13.7703 19.4394 13.9587 19.184 14.2023C18.9311 14.4481 18.7322 14.7439 18.6001 15.0707C18.4554 15.4307 18.3837 15.8157 18.3889 16.2035C18.3838 16.5829 18.4557 16.9595 18.6001 17.3105C18.7336 17.6324 18.9324 17.9232 19.184 18.1646C19.4403 18.4061 19.7431 18.5931 20.074 18.7143C20.4375 18.8471 20.8221 18.9129 21.2091 18.9086C21.5898 18.9108 21.967 18.8361 22.3179 18.6887C22.67 18.5378 22.9748 18.2946 23.1999 17.9849L22.4154 17.4424C22.2633 17.6424 22.0689 17.8064 21.846 17.9226C21.6506 18.0208 21.435 18.0722 21.2162 18.0729C20.9585 18.0766 20.7029 18.0267 20.4657 17.9262C20.2478 17.8326 20.0515 17.6954 19.8888 17.523C19.7249 17.3473 19.5979 17.1406 19.5154 16.9151C19.4253 16.6685 19.3806 16.4077 19.3833 16.1453C19.3814 15.8972 19.4262 15.651 19.5154 15.4195C19.5999 15.2002 19.7267 14.9997 19.8888 14.8293C20.0518 14.6592 20.2482 14.5245 20.4657 14.4336C20.7035 14.3354 20.9589 14.2868 21.2162 14.2905ZM29.505 13.5867H30.5981L32.0539 17.5088L33.5553 13.5867H34.581L32.4239 18.7776H31.6018L29.505 13.5867ZM38.6916 13.5867H35.1543V18.7776H38.8274V17.9418H36.1046V16.5343H38.5559V15.6986H36.1046V14.4229H38.6916V13.5867ZM39.7629 13.5867H41.6184C41.8677 13.5861 42.1164 13.6094 42.3612 13.6563C42.5861 13.6975 42.8019 13.7781 42.9986 13.8945C43.1834 14.0056 43.3366 14.1621 43.4436 14.3491C43.7115 14.8909 43.6518 15.537 43.2891 16.0206C43.0539 16.2859 42.7259 16.4512 42.3726 16.4824L43.7905 18.7776H42.6441L41.4072 16.5782H40.713V18.7776H39.7627V13.5867H39.7629ZM41.8596 15.7681C41.7239 15.7804 41.5881 15.7865 41.4523 15.7865H41.4522H40.713V14.3789H41.5353C41.6599 14.3791 41.7843 14.3865 41.908 14.401C42.0289 14.4137 42.1471 14.4445 42.2588 14.4925C42.362 14.5371 42.4507 14.6094 42.5152 14.7014C42.5851 14.8105 42.6193 14.9387 42.6132 15.068C42.6216 15.2091 42.5846 15.349 42.5076 15.4675C42.4375 15.5627 42.3421 15.6364 42.2323 15.6802C42.1132 15.728 41.9876 15.7577 41.8596 15.7681Z" fill="black"/>
  <path fill-rule="evenodd" clip-rule="evenodd" d="M26.7096 13.4551C28.2104 13.4551 29.427 14.6759 29.427 16.1824C29.427 17.6888 28.2104 18.9096 26.7096 18.9096C25.2088 18.9096 23.9922 17.6889 23.9922 16.1824C23.9922 14.6758 25.2088 13.4551 26.7096 13.4551Z" fill="#EF7717"/>
</svg>