<svg xmlns="http://www.w3.org/2000/svg" width="50" height="32" viewBox="0 0 50 32" fill="none">
  <path fill-rule="evenodd" clip-rule="evenodd" d="M20.7038 15.3409C20.5967 16.0462 20.0598 16.0462 19.5406 16.0462H19.2451L19.4524 14.7291C19.4647 14.6494 19.5335 14.5908 19.6136 14.5908H19.7491C20.1027 14.5908 20.4363 14.5908 20.6087 14.7931C20.7115 14.9138 20.743 15.0932 20.7038 15.3409ZM20.4783 13.5H18.52C18.386 13.5 18.272 13.5977 18.2511 13.7305L17.4591 18.7704C17.4433 18.8699 17.5201 18.9595 17.6206 18.9595H18.5555C18.6895 18.9595 18.8035 18.8618 18.8244 18.7291L19.038 17.3694C19.0586 17.2364 19.1729 17.1386 19.3066 17.1386H19.9266C21.2166 17.1386 21.9611 16.5124 22.1555 15.2706C22.2431 14.7274 22.1592 14.3007 21.9058 14.0018C21.6275 13.6736 21.1338 13.5 20.4783 13.5Z" fill="#253B80"/>
  <path fill-rule="evenodd" clip-rule="evenodd" d="M25.0269 17.1498C24.9364 17.6875 24.5112 18.0484 23.9688 18.0484C23.6965 18.0484 23.4789 17.9608 23.3391 17.7947C23.2005 17.6297 23.1479 17.3949 23.192 17.1334C23.2764 16.6003 23.7088 16.2275 24.2429 16.2275C24.5092 16.2275 24.7256 16.3163 24.8682 16.4839C25.0111 16.6529 25.0678 16.8894 25.0269 17.1498ZM26.334 15.318H25.3962C25.3163 15.318 25.2476 15.3766 25.2353 15.4562L25.1934 15.7195L25.1279 15.6241C24.9249 15.3284 24.4721 15.2295 24.0203 15.2295C22.984 15.2295 22.0989 16.0172 21.9265 17.1222C21.8369 17.6735 21.9643 18.2005 22.2758 18.5681C22.5616 18.9061 22.9705 19.0469 23.457 19.0469C24.292 19.0469 24.755 18.508 24.755 18.508L24.7132 18.7696C24.6975 18.8696 24.7742 18.9592 24.8742 18.9592H25.7189C25.8532 18.9592 25.9666 18.8615 25.9878 18.7282L26.4946 15.5071C26.5109 15.408 26.4342 15.318 26.334 15.318Z" fill="#253B80"/>
  <mask id="mask0_4783_5876" style="mask-type:luminance" maskUnits="userSpaceOnUse" x="26" y="15" width="6" height="6">
    <path fill-rule="evenodd" clip-rule="evenodd" d="M31.4899 20.2334H26.957L26.957 15.3184H31.4899V20.2334Z" fill="white"/>
  </mask>
  <g mask="url(#mask0_4783_5876)">
    <path fill-rule="evenodd" clip-rule="evenodd" d="M31.3263 15.3184H30.3839C30.2943 15.3184 30.2096 15.3632 30.1586 15.4382L28.8589 17.3597L28.3079 15.5132C28.2733 15.3977 28.167 15.3184 28.0468 15.3184H27.1207C27.0082 15.3184 26.93 15.4287 26.9658 15.5351L28.0038 18.5923L27.0279 19.9747C26.9512 20.0839 27.0285 20.2336 27.1611 20.2336H28.1023C28.1917 20.2336 28.2756 20.1896 28.326 20.1161L31.4606 15.5756C31.5354 15.4669 31.4583 15.3184 31.3263 15.3184Z" fill="#253B80"/>
  </g>
  <path fill-rule="evenodd" clip-rule="evenodd" d="M34.6735 15.3409C34.5667 16.0462 34.0298 16.0462 33.5104 16.0462H33.2148L33.4227 14.7291C33.435 14.6494 33.5029 14.5908 33.5834 14.5908H33.7191C34.0722 14.5908 34.4061 14.5908 34.5787 14.7931C34.6812 14.9138 34.7127 15.0932 34.6735 15.3409ZM34.4472 13.5H32.4885C32.3548 13.5 32.2408 13.5977 32.2199 13.7305L31.4279 18.7704C31.4119 18.8699 31.4889 18.9595 31.5888 18.9595H32.5936C32.687 18.9595 32.7672 18.8911 32.7818 18.798L33.0065 17.3694C33.0272 17.2364 33.1411 17.1386 33.2749 17.1386H33.8945C35.1848 17.1386 35.9293 16.5124 36.1237 15.2706C36.2116 14.7274 36.1272 14.3007 35.8738 14.0018C35.596 13.6736 35.1026 13.5 34.4472 13.5Z" fill="#179BD7"/>
  <path fill-rule="evenodd" clip-rule="evenodd" d="M38.9945 17.1499C38.9046 17.6876 38.4788 18.0486 37.9365 18.0486C37.6645 18.0486 37.4465 17.9609 37.3065 17.7948C37.1682 17.6298 37.1158 17.395 37.1596 17.1335C37.2447 16.6004 37.6762 16.2277 38.2105 16.2277C38.4765 16.2277 38.693 16.3165 38.8356 16.484C38.9794 16.653 39.0361 16.8895 38.9945 17.1499ZM40.3012 15.3181H39.3643C39.2838 15.3181 39.2151 15.3768 39.2033 15.4564L39.1618 15.7196L39.096 15.6242C38.8929 15.3285 38.4405 15.2296 37.9887 15.2296C36.9524 15.2296 36.0675 16.0174 35.8952 17.1224C35.8058 17.6736 35.9327 18.2007 36.2442 18.5682C36.5306 18.9062 36.9389 19.047 37.4254 19.047C38.2604 19.047 38.7234 18.5082 38.7234 18.5082L38.6816 18.7697C38.6662 18.8697 38.7426 18.9594 38.8431 18.9594H39.6876C39.8213 18.9594 39.935 18.8617 39.9562 18.7283L40.4633 15.5072C40.4787 15.4081 40.402 15.3181 40.3012 15.3181Z" fill="#179BD7"/>
  <mask id="mask1_4783_5876" style="mask-type:luminance" maskUnits="userSpaceOnUse" x="40" y="13" width="3" height="6">
    <path fill-rule="evenodd" clip-rule="evenodd" d="M42.6361 13.5V18.9598H40.6016V13.5H42.6361V13.5Z" fill="white"/>
  </mask>
  <g mask="url(#mask1_4783_5876)">
    <path fill-rule="evenodd" clip-rule="evenodd" d="M41.4073 13.6385L40.6036 18.7707C40.5881 18.8702 40.6645 18.9598 40.7645 18.9598H41.5726C41.7069 18.9598 41.8205 18.8621 41.8414 18.7291L42.6341 13.6894C42.6498 13.59 42.5731 13.5 42.4734 13.5H41.5683C41.4884 13.5003 41.4197 13.5589 41.4073 13.6385Z" fill="#179BD7"/>
  </g>
  <path fill-rule="evenodd" clip-rule="evenodd" d="M9.32758 19.9388L9.47734 18.9841L9.14374 18.976H7.55078L8.65781 11.9315C8.66124 11.91 8.67241 11.8904 8.68873 11.8763C8.70505 11.862 8.72596 11.8545 8.74772 11.8545H11.4337C12.3254 11.8545 12.9407 12.0407 13.262 12.4083C13.4126 12.5804 13.5086 12.7606 13.5549 12.9592C13.6036 13.1673 13.6045 13.4159 13.5569 13.7191L13.5535 13.7412V13.9355L13.7041 14.0211C13.831 14.0887 13.9318 14.166 14.0091 14.2545C14.1379 14.4019 14.2213 14.5893 14.2565 14.8114C14.2929 15.0399 14.2808 15.3118 14.2213 15.6196C14.1526 15.9737 14.0414 16.282 13.8914 16.5344C13.7534 16.7669 13.5776 16.9597 13.3688 17.1091C13.1695 17.2508 12.9327 17.3586 12.665 17.4278C12.4055 17.4954 12.1097 17.5296 11.7853 17.5296H11.5763C11.4268 17.5296 11.2816 17.5839 11.1677 17.6808C11.0534 17.7793 10.9778 17.9147 10.9546 18.0624L10.9389 18.1483L10.6743 19.831L10.6622 19.8928C10.6591 19.9123 10.6537 19.9218 10.6456 19.9287C10.6385 19.9348 10.6282 19.9388 10.6181 19.9388H9.32758Z" fill="#253B80"/>
  <path fill-rule="evenodd" clip-rule="evenodd" d="M13.8434 13.7637C13.8354 13.8151 13.8262 13.8677 13.8159 13.9217C13.4617 15.747 12.2498 16.3775 10.7021 16.3775H9.91409C9.72482 16.3775 9.56532 16.5154 9.53583 16.7031L9.13236 19.2709L9.01811 19.9989C8.99892 20.1219 9.09342 20.2328 9.21712 20.2328H10.6148C10.7803 20.2328 10.9209 20.1121 10.947 19.9486L10.9607 19.877L11.2239 18.201L11.2407 18.109C11.2665 17.9446 11.4074 17.8239 11.5729 17.8239H11.7819C13.1361 17.8239 14.1962 17.2721 14.506 15.6754C14.6354 15.0084 14.5684 14.4514 14.2259 14.0597C14.1223 13.9416 13.9937 13.8436 13.8434 13.7637Z" fill="#179BD7"/>
  <path fill-rule="evenodd" clip-rule="evenodd" d="M13.4761 13.6159C13.422 13.6001 13.3661 13.5857 13.3088 13.5728C13.2513 13.5601 13.1923 13.5489 13.1316 13.5391C12.9191 13.5047 12.6863 13.4883 12.4369 13.4883H10.3317C10.2798 13.4883 10.2306 13.5001 10.1865 13.5213C10.0894 13.5682 10.0173 13.6604 9.9998 13.7734L9.55195 16.6205L9.53906 16.7036C9.56856 16.5159 9.72805 16.378 9.91733 16.378H10.7054C12.2531 16.378 13.4649 15.7472 13.8191 13.9222C13.8297 13.8682 13.8386 13.8156 13.8466 13.7642C13.757 13.7165 13.6599 13.6757 13.5554 13.6409C13.5296 13.6323 13.503 13.6239 13.4761 13.6159Z" fill="#222D65"/>
  <mask id="mask2_4783_5876" style="mask-type:luminance" maskUnits="userSpaceOnUse" x="7" y="11" width="7" height="9">
    <path fill-rule="evenodd" clip-rule="evenodd" d="M7.24609 11.5605V19.2712H13.8848V11.5605H7.24609V11.5605Z" fill="white"/>
  </mask>
  <g mask="url(#mask2_4783_5876)">
    <path fill-rule="evenodd" clip-rule="evenodd" d="M9.99905 13.7732C10.0165 13.6602 10.0887 13.568 10.1857 13.5214C10.2301 13.5001 10.2791 13.4884 10.3309 13.4884H12.4362C12.6856 13.4884 12.9184 13.5047 13.1308 13.5392C13.1916 13.549 13.2505 13.5602 13.3081 13.5729C13.3654 13.5858 13.4212 13.6002 13.4753 13.616C13.5022 13.624 13.5289 13.6323 13.5549 13.6407C13.6594 13.6755 13.7565 13.7165 13.8461 13.764C13.9515 13.0895 13.8453 12.6302 13.4819 12.2144C13.0813 11.7565 12.3583 11.5605 11.4331 11.5605H8.74713C8.55814 11.5605 8.39693 11.6985 8.36772 11.8862L7.24895 19.0034C7.22691 19.1442 7.33515 19.2712 7.4766 19.2712H9.13485L9.5512 16.62L9.99905 13.7732Z" fill="#253B80"/>
  </g>
</svg>