<svg xmlns="http://www.w3.org/2000/svg" width="50" height="32" viewBox="0 0 50 32" fill="none">
  <path fill-rule="evenodd" clip-rule="evenodd" d="M7.80771 13.7683C7.80771 13.7683 7.79162 13.8145 7.56547 14.4299C6.91948 13.9137 5.83681 13.9514 5.83681 14.7455C5.83681 15.677 8.09792 15.56 8.02764 17.2229C7.97133 18.5581 6.33375 18.8645 5.07031 18.2212C5.18081 17.986 5.29556 17.7593 5.37388 17.5735C6.32905 18.1404 7.15171 17.8804 7.28679 17.4245C7.65623 16.1768 5.08048 16.5622 5.08048 14.793C5.08048 14.049 5.93881 12.8922 7.80771 13.7683Z" fill="black"/>
  <path fill-rule="evenodd" clip-rule="evenodd" d="M10.25 13.666H13.2089C13.2089 13.666 13.2004 13.9335 13.2061 14.3142H10.991V15.6429H12.5622C12.5565 15.9077 12.5593 16.1158 12.5593 16.2524H10.991V17.9089H13.2061C13.2045 18.0371 13.2037 18.4247 13.2061 18.5448H10.2528L10.25 13.666Z" fill="black"/>
  <path fill-rule="evenodd" clip-rule="evenodd" d="M17.2985 16.0568C17.1198 16.0568 16.9879 16.0546 16.8066 16.0539C16.8069 15.1436 16.8084 14.2926 16.8084 14.2926C16.8084 14.2926 17.0242 14.2917 17.2283 14.2917C17.4235 14.2917 18.5602 14.2028 18.5968 15.1131C18.6329 16.0106 17.7382 16.0568 17.2985 16.0568ZM17.3419 13.6757C17.0796 13.6694 16.5309 13.6663 16.0625 13.6663L16.0642 18.545H16.8087C16.8087 18.545 16.8064 17.6137 16.8061 16.6955C16.9908 16.6924 17.374 16.682 17.6835 16.6732C18.1126 16.6605 19.2405 16.4451 19.2327 15.1071C19.2237 13.6034 17.6029 13.6816 17.3419 13.6757Z" fill="black"/>
  <path fill-rule="evenodd" clip-rule="evenodd" d="M36.4273 15.9245C36.2535 15.9245 36.128 15.9211 35.9519 15.9199C35.9525 15.063 35.9546 14.2734 35.9546 14.2734C35.9546 14.2734 36.158 14.2706 36.3553 14.2706C36.5436 14.2706 37.5507 14.2136 37.6359 15.0084C37.7371 15.9474 36.633 15.9245 36.4273 15.9245ZM38.0662 18.5445H38.9918L37.4554 16.3557C37.8689 16.2031 38.3482 15.8489 38.2878 15.0396C38.1795 13.5898 36.7678 13.6972 36.4656 13.6832C36.2109 13.6711 35.663 13.6641 35.1875 13.6665V18.5448H35.9546C35.9546 18.5448 35.9522 17.4531 35.9516 16.4883C36.2057 16.4892 36.2967 16.4846 36.6799 16.4744L38.0662 18.5445Z" fill="black"/>
  <path fill-rule="evenodd" clip-rule="evenodd" d="M24.7119 15.5042V13.6663H25.4649V18.3329H24.7119V16.1144L22.202 16.1177V18.3329H21.4492V13.6663H22.202V15.5042H24.7119Z" fill="black"/>
  <path fill-rule="evenodd" clip-rule="evenodd" d="M30.5864 13.4541C29.0221 13.4541 28.0039 14.5938 28.0039 15.9994C28.0039 17.4056 29.0221 18.545 30.5864 18.545C32.1506 18.545 33.1688 17.4056 33.1688 15.9994C33.1688 14.5938 32.1506 13.4541 30.5864 13.4541ZM30.5861 14.1465C29.4394 14.1465 28.7881 14.9759 28.7881 15.999C28.7881 17.0223 29.433 17.852 30.5861 17.852C31.7392 17.852 32.3841 17.0223 32.3841 15.999C32.3841 14.9759 31.7328 14.1465 30.5861 14.1465ZM42.3301 16.7473L43.9305 16.7374L43.1175 14.3594H43.1068L42.3301 16.7473ZM42.6815 13.5938H43.5721L45.3346 18.4294L44.5466 18.4275C44.5466 18.4275 44.3724 17.9395 44.14 17.2933L42.1519 17.3055C42.1519 17.3055 42.0721 17.5544 41.8353 18.4277H41.0752L42.6815 13.5938Z" fill="black"/>
</svg>