<svg xmlns="http://www.w3.org/2000/svg" width="143" height="100" fill="none"><g clip-path="url(#a)"><path fill="#D6844E" d="M127.996 47.153a5.74 5.74 0 1 0 0-11.48 5.74 5.74 0 0 0 0 11.48ZM35.228 48.932a5.74 5.74 0 1 0 0-11.479 5.74 5.74 0 0 0 0 11.48Z"/><path fill="#F37C79" fill-rule="evenodd" d="m78.199 94.31 13.31 7.713-40.19 69.353s-12.94-8.342-7.431-17.875l34.31-59.208v.016Z" clip-rule="evenodd"/><path fill="#F05450" fill-rule="evenodd" d="m83.764 94.31-13.31 7.713 40.189 69.353s12.941-8.341 7.431-17.874L83.764 94.31Z" clip-rule="evenodd"/><path fill="#FFC738" d="m121.45 37.107 13.446 8.195-34.422 54.084c-8.262-5.26-7.781-17.477-3.015-24.98l23.991-37.299ZM41.767 38.855l23.98 37.298c4.766 7.492 5.246 19.722-3.016 24.981L28.322 47.05l13.446-8.194Z"/><path fill="#FFC738" d="M68.817 75.049h24.96a18.176 18.176 0 0 1 16.789 11.218 18.158 18.158 0 0 1 1.384 6.954v28.52H50.644v-28.52A18.172 18.172 0 0 1 68.817 75.05Z"/><mask id="b" width="52" height="41" x="55" y="79" maskUnits="userSpaceOnUse" style="mask-type:luminance"><path fill="#fff" d="M81.133 105.352a5.42 5.42 0 0 1-5.313-6.475 5.418 5.418 0 1 1 5.313 6.475ZM65.797 90.834a5.418 5.418 0 1 1 0-10.836 5.418 5.418 0 0 1 0 10.836Zm30.264 0a5.418 5.418 0 1 1 0-10.836 5.418 5.418 0 0 1 0 10.836Zm-34.764 28.424a5.42 5.42 0 0 1-5.314-6.475 5.42 5.42 0 0 1 10.732 1.057 5.418 5.418 0 0 1-5.418 5.418Zm39.466 0a5.42 5.42 0 0 1-5.313-6.475 5.42 5.42 0 0 1 9.818-1.953 5.414 5.414 0 0 1-.675 6.84 5.419 5.419 0 0 1-3.83 1.588Z"/></mask><g mask="url(#b)"><path fill="#fff" d="M133.378 74.282H31.137v46.756h102.241V74.282Z"/></g><mask id="c" width="41" height="63" x="94" y="37" maskUnits="userSpaceOnUse" style="mask-type:luminance"><path fill="#fff" d="m121.45 37.107 13.446 8.195-34.422 54.084c-8.262-5.26-7.781-17.477-3.015-24.98l23.991-37.299Z"/></mask><g fill="#fff" mask="url(#c)"><path d="M112.835 79.664a5.418 5.418 0 1 1 .02 0h-.02Zm15.337-14.518a5.417 5.417 0 1 1 0-10.834 5.417 5.417 0 0 1 0 10.834ZM108.521 61.103a5.42 5.42 0 0 1-3.831-9.25 5.419 5.419 0 1 1 3.831 9.25Zm15.337-14.518a5.42 5.42 0 0 1-5.006-3.345 5.419 5.419 0 1 1 5.006 3.345Z"/></g><mask id="d" width="42" height="64" x="28" y="38" maskUnits="userSpaceOnUse" style="mask-type:luminance"><path fill="#fff" d="m41.767 38.855 23.98 37.298c4.766 7.492 5.246 19.722-3.016 24.981L28.322 47.05l13.446-8.194Z"/></mask><g fill="#fff" mask="url(#d)"><path d="M50.37 81.412a5.418 5.418 0 1 1 0-10.836 5.418 5.418 0 0 1 0 10.836ZM35.034 66.894a5.418 5.418 0 1 1 0-10.836 5.418 5.418 0 0 1 0 10.836ZM54.684 62.85a5.418 5.418 0 1 1 0-10.835 5.418 5.418 0 0 1 0 10.836ZM39.348 48.334a5.417 5.417 0 1 1 0-10.834 5.417 5.417 0 0 1 0 10.834Z"/></g><path fill="#D6844E" d="M75.314 75.049h9.088v-4.802h-9.088v4.802Z"/><path fill="#FFC839" d="m24.206 38.223-2.5-2.5-2.5 2.5 2.5 2.5 2.5-2.5ZM43.045 62.505l-1.906-.613-.613 1.905 1.906.614.613-1.906Z"/><path fill="#D6BBDA" d="m54.458 17.637-1.603-2.325-2.325 1.603 1.603 2.325 2.325-1.603Z"/><path fill="#FBF4DD" d="m22.48 12.041-.801-1.16-1.161.8.8 1.16 1.161-.8Z"/><path fill="#009AD1" d="m5.511 46.049-.8-1.16-1.16.8.8 1.16 1.16-.8ZM6.93 24.444l-.4-.582-.583.402.402.582.582-.402Z"/><path fill="#F49BBF" d="m13.281 8.688-1.997-1.997-1.997 1.997 1.997 1.997 1.997-1.997Z"/><path fill="#009AD1" d="m45.731 32.766-.35-2.023-2.023.35.35 2.023 2.023-.35Z"/><path fill="#9CD9E2" d="m40.413 7.413.796-1.38-1.38-.796-.796 1.38 1.38.796Z"/><path fill="#18BBB4" d="M33.038 1.698 34.3-.49l-2.188-1.263L30.85.435l2.188 1.263Z"/><path fill="#F49BBF" d="m52.49 43.36.442-.763-.764-.441-.44.763.763.441Z"/><path fill="#009AD1" d="m32.132 43.359.441-.764-.763-.44-.441.763.763.44Z"/><path fill="#FFC839" d="m71.162 9.645.441-.764-.763-.44-.441.763.763.441Z"/><path fill="#F49BBF" d="m24.936 24.425.247-1.344-1.344-.247-.247 1.344 1.344.247Z"/><path fill="#F37B7A" d="m36.936 22.963.328-1.787-1.787-.328-.328 1.787 1.787.328Z"/><path fill="#18BBB4" d="m52.404 50.058.247-1.344-1.344-.247-.246 1.344 1.343.247Z"/><path fill="#FBF4DD" d="m30.99 57.61.247-1.344-1.345-.247-.246 1.344 1.344.246Z"/><path fill="#FFE600" d="m63.303 19.954.247-1.344-1.344-.247-.247 1.344 1.344.247Z"/><path fill="#B9E1F5" d="m98.278 90.746-3.04-.978-.978 3.04 3.04.978.978-3.04Z"/><path fill="#FBF4DD" d="m116.977 18.865-2.565-3.69-3.69 2.565 2.565 3.69 3.69-2.565Z"/><path fill="#D6BBDA" d="m65.487 10.315-1.276-1.851-1.85 1.276 1.276 1.851 1.85-1.276Z"/><path fill="#FBF4DD" d="m133.944 53.085-1.932-2.802-2.803 1.932 1.933 2.803 2.802-1.933Z"/><path fill="#009AD1" d="m38.447 64.52-1.276-1.85-1.851 1.276 1.276 1.851 1.851-1.276ZM40.712 30.077l-.638-.926-.925.639.638.925.925-.638Z"/><path fill="#F49BBF" d="m50.829 4.964-3.182-3.182-3.183 3.182 3.183 3.182 3.182-3.182Z"/><path fill="#009AD1" d="m102.555 43.355-.557-3.226-3.225.558.557 3.225 3.225-.557Z"/><path fill="#9CD9E2" d="m94.076 2.937 1.27-2.202-2.2-1.27-1.272 2.2 2.202 1.272Z"/><path fill="#F49BBF" d="m113.332 60.233.703-1.217-1.218-.703-.703 1.217 1.218.703Z"/><path fill="#FFC839" d="m143.088 6.494.703-1.218-1.218-.703-.703 1.218 1.218.703Z"/><path fill="#18BBB4" d="m113.667 70.458.392-2.137-2.137-.393-.392 2.137 2.137.393Z"/><path fill="#EE2B36" d="m79.056 82.94.394-2.145-2.145-.394-.394 2.145 2.145.394Z"/><path fill="#FFE600" d="m130.56 22.928.394-2.145-2.145-.394-.394 2.145 2.145.394Z"/><path fill="#744EA0" d="M105.344 59.538a3.778 3.778 0 0 0-3.619-.258 3.308 3.308 0 0 0-1.632 4.286l-.52 1.93c.184.062.356.156.508.278a4.404 4.404 0 0 0 2.697.894h.234c3.023 0 3.897-2.352 3.972-3.277v-.072c.203-1.644-.353-2.9-1.64-3.781Zm-1.665 2.816a.487.487 0 0 1-.202.298c-.104.07-.216.126-.334.167a.813.813 0 0 1-.397.04l.58-1.152a.61.61 0 0 1 .353.647Z"/><path fill="#632C11" d="M79.517 70.763c10.113 0 18.311-8.259 18.311-18.447 0-10.187-8.198-18.446-18.31-18.446-10.114 0-18.312 8.259-18.312 18.447 0 10.187 8.198 18.446 18.311 18.446Z"/><path fill="#AE714B" d="m84.343 70.513.036 2.871c-1.44.457-2.94.691-4.449.696-3.178.043-4.477-.497-4.572-.497l-.04-2.947 9.025-.123Z"/><path fill="#D6844E" d="M88.355 42.776a16.918 16.918 0 0 0-1.51-.894 15.696 15.696 0 0 0-2.55-1.029c.073.432.112.869.116 1.307a8.075 8.075 0 0 1-8.048 8.103 7.984 7.984 0 0 1-2.1-.29 8.993 8.993 0 0 1-7.651 13.624h-.091c.254.437.524.862.794 1.271a15.42 15.42 0 0 0 27.983-9.088 15.567 15.567 0 0 0-6.943-13.005Z"/><path fill="#000" fill-rule="evenodd" d="M82.985 52.845s2.061 3.463 6.125.576c.679 1.612 2.304 1.54 3.71 1.505-2.2 1.08-4.084-.568-4.084-.568s-.159 1.934 2.038 1.875c-1.263.918-3.71-1.132-3.71-1.132a2.467 2.467 0 0 0 1.108 2.248c-1.354-.242-1.839-.683-2.593-2.252.162-.572-.549 1.736.552 2.435 1.1.699-3.496-1.192-3.146-4.687Z" clip-rule="evenodd"/><path fill="#F15B4F" fill-rule="evenodd" d="M75.811 64.789c2.674.794 3.079-1.986 4.27-.552 1.22-1.359 1.216.663 4.27.572-2.172.663-1.843 1.68-4.273 1.672-1.8 0-2.11-.683-4.267-1.692Z" clip-rule="evenodd"/><path fill="#FAC5BE" d="M67.43 59.9c.473.243.985.399 1.513.46 2.086.274 4.096.159 5.816-1.235a6.002 6.002 0 0 0 1.85-2.677c.334-.135.66-.278.982-.433a15.57 15.57 0 0 1-.767 1.628c-.794 1.474-1.922 2.578-3.575 3.047-1.36.37-2.784.451-4.178.238a5.23 5.23 0 0 1-2.908-1.191l.107-.024c.38.098.769.16 1.16.186ZM80.892 53.918c.056.093.106.19.15.29.398.881.704 1.807 1.125 2.677a7.313 7.313 0 0 0 9.632 3.535 4.524 4.524 0 0 0 2.78-3.392c.23-1.073.501-2.133.652-3.222a1.843 1.843 0 0 1 .794-1.23c.648-.51.215-1.336.243-2.019.02-.453-.441-.397-.763-.42l-.862-.084c-2.038-.187-4.063-.465-6.288-.461-1.989-.022-3.97.26-5.874.834a2.877 2.877 0 0 1-.302.632 3.061 3.061 0 0 1-.417.941c-.073.258-.164.51-.274.755a5.56 5.56 0 0 1-.604 1.148l.008.016Zm2.752-2.78a5.96 5.96 0 0 1 .564-.251c1.446-.572 2.964-.68 4.588-.703.584.036 1.267.052 1.942.119 1.987.203 3.015 1.084 3.317 2.832a8.92 8.92 0 0 1-.123 3.821c-.361 1.383-1.064 2.574-2.455 3.07-2.502.89-4.921.704-7.034-1.052-1.53-1.263-2.157-3.038-2.383-4.953-.191-1.505.246-2.224 1.584-2.904v.02Z"/><path fill="#632C11" d="M83.978 34.462s4.655 27.721-17.874 29.159l-.66-12.27 4.72-10.14 13.814-6.75Z"/><path fill="#632C11" d="M72.03 44.225c5.352 0 9.692-4.37 9.692-9.763 0-5.392-4.34-9.763-9.692-9.763-5.353 0-9.692 4.37-9.692 9.763 0 5.392 4.34 9.763 9.692 9.763Z"/><path fill="#F05450" d="m65.426 38.877-1.213-1.76-1.76 1.214 1.214 1.76 1.76-1.214Z"/><path fill="#B9E1F5" d="M68.243 52.043 64.26 48.06l-3.983 3.983 3.983 3.983 3.983-3.983Z"/><path fill="#009AD1" d="m80.882 60.235.703-1.217-1.218-.703-.703 1.217 1.218.703Z"/><path fill="#F49BBF" d="m69.407 30.054.394-2.144-2.145-.394-.394 2.144 2.145.394Z"/><path fill="#F37B7A" d="m88.13 28.059.524-2.856-2.856-.524-.524 2.855 2.855.525Z"/><path fill="#FFE600" fill-rule="evenodd" d="M100.709 65.611H84.177l-.242-1.795H99.31a1.394 1.394 0 0 1 1.398 1.398v.397Z" clip-rule="evenodd"/><path fill="#EE2B36" fill-rule="evenodd" d="M87.81 65.611h-3.324l-.35-1.795h2.968l.707 1.795Z" clip-rule="evenodd"/><path fill="#fff" fill-rule="evenodd" d="M84.601 65.611h-.667l-3.273-.615v-.56l3.273-.62h.628l.04 1.795Z" clip-rule="evenodd"/><path fill="#744EA0" fill-rule="evenodd" d="M94.91 65.611h-3.33l-.798-1.795h3.42l.707 1.795ZM102.337 65.83l-4.322-.219-.794-1.795h2.34a1.591 1.591 0 0 1 1.473 1l1.303 1.014Z" clip-rule="evenodd"/></g><defs><clipPath id="a"><path fill="#fff" d="M0 0h143.789v100H0z"/></clipPath></defs></svg>