<svg xmlns="http://www.w3.org/2000/svg" viewBox="0 0 138 88"><path d="M8 4C5.8 4 4 5.8 4 8v72c0 2.2 1.8 4 4 4h122c2.2 0 4-1.8 4-4V8c0-2.2-1.8-4-4-4H8zm0-4h122c4.4 0 8 3.6 8 8v72c0 4.4-3.6 8-8 8H8c-4.4 0-8-3.6-8-8V8c0-4.4 3.6-8 8-8z" fill="#ccc"/><path d="M37.2 28.5c1.2-1.5 2-3.5 1.8-5.5-1.7.1-3.9 1.2-5.1 2.6-1.1 1.3-2.1 3.4-1.9 5.4 2 .2 3.9-1 5.2-2.5m1.6 2.5c-2.8-.2-5.2 1.6-6.6 1.6s-3.4-1.5-5.7-1.5c-2.9 0-5.6 1.7-7.1 4.3-3 5.2-.8 13 2.2 17.2 1.4 2.1 3.2 4.4 5.5 4.3 2.2-.1 3-1.4 5.6-1.4 2.6 0 3.4 1.4 5.7 1.3 2.4 0 3.8-2.1 5.3-4.2 1.7-2.4 2.3-4.7 2.4-4.8 0 0-4.6-1.8-4.6-7 0-4.3 3.5-6.4 3.7-6.5-2.1-2.9-5.3-3.2-6.4-3.3m21 11.4h5.6c4.2 0 6.6-2.3 6.6-6.2s-2.4-6.1-6.6-6.1h-5.6v12.3zM66.7 26C72.8 26 77 30.1 77 36.2s-4.3 10.2-10.4 10.2h-6.7V57H55V26h11.7zm25.7 22.3v-1.7l-5.3.4c-3 .2-4.5 1.3-4.5 3.3 0 1.9 1.6 3.1 4.1 3.1 3.3-.1 5.7-2.2 5.7-5.1zm-14.4 2c0-4 3-6.2 8.5-6.6l5.9-.4v-1.7c0-2.5-1.6-3.9-4.5-3.9-2.4 0-4.1 1.2-4.5 3.2h-4.3c.1-4 3.9-6.9 8.9-6.9 5.4 0 9 2.9 9 7.3v15.4h-4.4V53h-.1c-1.3 2.4-4 4-7 4-4.4 0-7.5-2.7-7.5-6.7zm23.3 14.6v-3.7c.3 0 1.1.1 1.5.1 2.2 0 3.4-.9 4.2-3.2l.4-1.4L99 34h5.2l5.8 18.4h.1L116 34h5l-8.7 23.8c-2 5.5-4.3 7.2-9.1 7.2-.4 0-1.6 0-1.9-.1" fill="#1a1919"/></svg>