<svg viewBox="0 0 138 88" xmlns="http://www.w3.org/2000/svg"><g fill-rule="nonzero" fill="none"><path d="M8 4C5.8 4 4 5.8 4 8v72c0 2.2 1.8 4 4 4h122c2.2 0 4-1.8 4-4V8c0-2.2-1.8-4-4-4H8zm0-4h122c4.4 0 8 3.6 8 8v72c0 4.4-3.6 8-8 8H8c-4.4 0-8-3.6-8-8V8c0-4.4 3.6-8 8-8z" fill="#CCC"/><path d="M24.152 50.748V36.253h3.676c1.269 0 2.33.182 3.183.547.875.344 1.575.848 2.1 1.514.525.666.897 1.471 1.116 2.416.24.923.361 1.965.361 3.125 0 1.267-.164 2.34-.492 3.22-.328.881-.766 1.6-1.313 2.159a4.865 4.865 0 0 1-1.87 1.16 6.731 6.731 0 0 1-2.166.354h-4.595zM19 32.001V55h10.108c1.794 0 3.347-.29 4.66-.87a9.265 9.265 0 0 0 3.314-2.448c.897-1.03 1.564-2.255 2.002-3.672.438-1.417.656-2.964.656-4.639 0-1.91-.273-3.575-.82-4.992a9.503 9.503 0 0 0-2.232-3.544 9 9 0 0 0-3.38-2.126 12.13 12.13 0 0 0-4.2-.708H19zm25.638 0V55h17.784v-4.252H49.788v-5.637h11.355v-3.93H49.79v-4.928H62.16V32H44.638zm27.744 9.309v-5.38h4.825c.459 0 .897.043 1.312.13.438.064.82.193 1.149.386.328.193.59.462.787.805.213.408.314.863.296 1.32 0 .967-.296 1.665-.886 2.095-.591.43-1.346.644-2.265.644h-5.218zM67.23 32v23h11.355c1.05 0 2.067-.129 3.052-.387 1.006-.257 1.892-.655 2.658-1.191a5.887 5.887 0 0 0 1.87-2.062c.46-.859.69-1.868.69-3.028 0-1.439-.361-2.663-1.083-3.672-.7-1.03-1.772-1.75-3.216-2.158 1.05-.494 1.837-1.128 2.363-1.9.547-.774.82-1.74.82-2.9 0-1.074-.186-1.976-.558-2.706a4.21 4.21 0 0 0-1.51-1.74 6.482 6.482 0 0 0-2.362-.966 14.858 14.858 0 0 0-3.052-.29H67.23zm5.152 19.07v-6.313h5.612c1.116 0 2.013.257 2.691.773.678.494 1.017 1.331 1.017 2.512 0 .601-.109 1.095-.328 1.482-.187.375-.47.697-.82.934-.35.215-.755.376-1.214.483-.476.088-.96.13-1.444.13h-5.514zM91.65 32v23H96.8V32H91.65zm16.176 4.253V55h5.152V36.253H120V32h-19.198v4.252h7.023z" fill="#000"/></g></svg>