<svg width="51" height="32" viewBox="0 0 51 32" fill="none" xmlns="http://www.w3.org/2000/svg">
<rect x="0.5" y="0.5" width="49.1818" height="31" rx="3.5" fill="#0F42F8" stroke="#CCCCCC"/>
<path d="M24.5652 19.2442L31.335 12.3947H26.1392V10.2518H36.6405L29.9198 17.1381H35.1741C35.474 17.9503 36.0199 18.7037 36.7692 19.2442H24.5652ZM38.1298 15.7012H44.9101C44.964 15.3955 45 15.0897 45 14.748C45 12.1042 43.1116 10 40.4498 10C37.6262 10 35.7019 12.0683 35.7019 14.748C35.7019 17.4277 37.6082 19.496 40.6297 19.496C42.3562 19.496 43.7051 18.7946 44.5504 17.5716L42.68 16.4925C42.2843 17.0141 41.5649 17.3917 40.6657 17.3917C39.4427 17.3917 38.4535 16.8882 38.1298 15.7012ZM38.0938 13.9027C38.3636 12.7517 39.2089 12.0862 40.4498 12.0862C41.421 12.0862 42.3922 12.6078 42.68 13.9027H38.0938ZM10.2336 10C8.92068 10 7.96747 10.4856 7.32001 11.3129V10.2518H5V22.2507H7.32001V18.1831C7.96747 19.0104 8.92068 19.496 10.2336 19.496C12.6435 19.496 14.6219 17.4277 14.6219 14.748C14.6219 12.0683 12.6435 10 10.2336 10ZM9.80191 17.2838C8.38111 17.2838 7.32001 16.2587 7.32001 14.748C7.32001 13.2373 8.38111 12.2121 9.80191 12.2121C11.2407 12.2121 12.3018 13.2373 12.3018 14.748C12.3018 16.2587 11.2407 17.2838 9.80191 17.2838ZM24.7671 17.8028L23.3424 19.2442H22.447V18.1831C21.7996 18.9924 20.8284 19.496 19.5155 19.496C17.1235 19.496 15.1452 17.4277 15.1452 14.748C15.1452 12.0683 17.1235 10 19.5155 10C20.8284 10 21.7996 10.5036 22.447 11.3129V10.2518H24.7671V17.8028ZM22.447 14.748C22.447 13.2373 21.3859 12.2121 19.9471 12.2121C18.5263 12.2121 17.4652 13.2373 17.4652 14.748C17.4652 16.2587 18.5263 17.2838 19.9471 17.2838C21.3859 17.2838 22.447 16.2587 22.447 14.748Z" fill="white"/>
</svg>
