<svg width="50" height="32" viewBox="0 0 50 32" fill="none" xmlns="http://www.w3.org/2000/svg">
<rect x="0.5" y="0.5" width="49" height="31" rx="3.5" fill="#008CFF"/>
<rect x="0.5" y="0.5" width="49" height="31" rx="3.5" stroke="#CCCCCC"/>
<g clip-path="url(#clip0_14827_16565)">
<path d="M10.9035 12C11.1871 12.4524 11.3149 12.9184 11.3149 13.507C11.3149 15.3844 9.65576 17.8233 8.30919 19.5358H5.23352L4 12.411L6.69308 12.1641L7.34526 17.2338C7.95464 16.2748 8.70662 14.7679 8.70662 13.7404C8.70662 13.178 8.6069 12.795 8.45101 12.4795L10.9035 12Z" fill="white"/>
<path d="M14.3939 15.1376C14.8895 15.1376 16.1371 14.9186 16.1371 14.2336C16.1371 13.9047 15.8964 13.7407 15.6126 13.7407C15.1163 13.7407 14.4649 14.3156 14.3939 15.1376ZM14.3371 16.4942C14.3371 17.3306 14.8186 17.6587 15.4569 17.6587C16.1519 17.6587 16.8174 17.4946 17.6824 17.07L17.3566 19.207C16.7471 19.4947 15.7973 19.6866 14.8754 19.6866C12.5369 19.6866 11.7 18.3167 11.7 16.604C11.7 14.3843 13.0614 12.0273 15.8682 12.0273C17.4135 12.0273 18.2776 12.8636 18.2776 14.0282C18.2778 15.9055 15.7834 16.4806 14.3371 16.4942Z" fill="white"/>
<path d="M26.0496 13.6447C26.0496 13.9187 26.0066 14.3161 25.9637 14.5758L25.1557 19.5085H22.5334L23.2705 14.9868C23.2845 14.8641 23.3274 14.6172 23.3274 14.4802C23.3274 14.1513 23.1147 14.0692 22.8589 14.0692C22.5192 14.0692 22.1787 14.2198 21.952 14.3297L21.1159 19.5086H18.4788L19.6835 12.1234H21.9659L21.9948 12.7129C22.5333 12.3704 23.2423 12 24.2483 12C25.5812 11.9999 26.0496 12.6578 26.0496 13.6447Z" fill="white"/>
<path d="M33.8348 12.8358C34.5859 12.3157 35.295 12.0273 36.2727 12.0273C37.6192 12.0273 38.0876 12.6852 38.0876 13.6722C38.0876 13.9462 38.0447 14.3436 38.002 14.6033L37.1948 19.536H34.5717L35.323 14.9187C35.3368 14.7953 35.3659 14.6447 35.3659 14.5492C35.3659 14.1789 35.1531 14.0967 34.8973 14.0967C34.5717 14.0967 34.2461 14.2337 34.0043 14.3572L33.1683 19.5361H30.546L31.2971 14.9188C31.3109 14.7953 31.3393 14.6448 31.3393 14.5493C31.3393 14.1789 31.1262 14.0968 30.8715 14.0968C30.5311 14.0968 30.1913 14.2474 29.9645 14.3573L29.1277 19.5362H26.4915L27.6962 12.151H29.9507L30.0216 12.7675C30.546 12.398 31.2544 12.0276 32.2042 12.0276C33.0266 12.0273 33.5648 12.3699 33.8348 12.8358Z" fill="white"/>
<path d="M43.306 14.9872C43.306 14.3843 43.1499 13.9732 42.6825 13.9732C41.6476 13.9732 41.435 15.7406 41.435 16.6447C41.435 17.3306 41.6337 17.755 42.1011 17.755C43.0792 17.755 43.306 15.8912 43.306 14.9872ZM38.77 16.5355C38.77 14.2066 40.0456 12.0273 42.9803 12.0273C45.1917 12.0273 46.0001 13.2882 46.0001 15.0285C46.0001 17.3305 44.7383 19.7144 41.7327 19.7144C39.5071 19.7144 38.77 18.3029 38.77 16.5355Z" fill="white"/>
</g>
<defs>
<clipPath id="clip0_14827_16565">
<rect width="42" height="7.71429" fill="white" transform="translate(4 12)"/>
</clipPath>
</defs>
</svg>
