<svg xmlns="http://www.w3.org/2000/svg" viewBox="0 0 113 111"><path d="M60.1 71.8c1.1-.2 2-.6 2.9-1.2l2.9-1.7-.1-.2h-.1c-.2 0-.3.1-.5.1-.8.1-1.6 0-2.3-.2-.7-.2-1.4-.6-2-1.1-.3-.2-.7-.4-1.1-.4h-.3-.1c-.1 0-.2 0-.2.1-.1 0-.1 0-.2.1 0 0-.1 0-.1.1-.1 0-.2.1-.2.1l-.3.3c-.1-.1-.2-.2-.3-.2-.3-.3-.7-.5-1.1-.5-.4 0-.8.2-1.1.4-1.3 1-2.9 1.6-4.5 1.3-.2 0-.3-.1-.5-.1l-.1.2v.1l1.5 1.1c2.2 1.5 5 2.2 7.8 1.7zM68.5 59.7c-1.4-1.1-1.8-2.6-1.9-4v-.6c1.8 2.5 4.9 4.1 5.9 4.1v-.1c-2-.7-2.8-2.5-3.1-4.2 2.4 2.1 5.9 2.9 6.9 2.6v-.1c-2.9-.4-3.5-1.8-3.9-3.4 2.7 1.5 6.2 1.6 7.2 1.2v-.1c-4.9-.1-6.2-3.5-6.2-3.6v0c-1.3 2.8-8.4 3.9-10.6.2l-.5.2c.2.8.6 4.6 6.2 7.8z"/><path d="M87.5 17c-5.1 0-9.6 2.9-11.9 7.1-4.9-2.9-10.5-4.6-16.5-4.8-20-.6-36.5 15.8-35.8 35.8.5 18.1 15.3 32.9 33.5 33.5 20 .6 36.4-15.8 35.8-35.8-.1-3.2-.7-6.4-1.6-9.3 5.7-1.6 9.9-6.8 9.9-13 .1-7.4-6-13.5-13.4-13.5zM36.3 62.3C51 59 51.1 42.8 51 40.3c.3 1.2 1.4 6 .4 10.9h.1c13.3-.2 17-10.8 18-17.4h.1c1.1 5.2 3.9 11.7 10.9 14.5 1.1 4.2 1 8.8-.5 13.5C78.1 67.6 71.8 74 66 76c-7 2.3-13.7 1.5-19.2-1.5-4.7-2.7-8.5-7-10.5-12.2zm54-20.9c-.9.2-1.9.4-2.8.4-6.2 0-11.2-5-11.2-11.2 0-1.9.5-3.6 1.3-5.2 1.9-3.6 5.6-6.1 10-6.1 6.2 0 11.2 5 11.2 11.2-.1 5.2-3.7 9.6-8.5 10.9z"/><path d="M93.9 29.9h-4.7v-4.7c0-.6-.5-1.1-1.1-1.1s-1.1.5-1.1 1.1v4.7h-4.7c-.6 0-1.1.5-1.1 1.1 0 .6.5 1.1 1.1 1.1H87v4.7c0 .6.5 1.1 1.1 1.1s1.1-.5 1.1-1.1v-4.7h4.7c.6 0 1.1-.5 1.1-1.1 0-.6-.5-1.1-1.1-1.1zM19.5 9H15c-.8 0-1.5.7-1.5 1.5S14.1 12 15 12h4.5c.8 0 1.5-.7 1.5-1.5S20.3 9 19.5 9zM1.5 12H6c.8 0 1.5-.7 1.5-1.5S6.8 9 6 9H1.5C.7 9 0 9.7 0 10.5S.7 12 1.5 12zM10.5 21c.8 0 1.5-.7 1.5-1.5V15c0-.8-.7-1.5-1.5-1.5S9 14.1 9 15v4.5c0 .8.7 1.5 1.5 1.5zM10.5 7.5c.8 0 1.5-.7 1.5-1.5V1.5c0-.8-.7-1.5-1.5-1.5S9 .7 9 1.5V6c0 .8.7 1.5 1.5 1.5zM10.5 12c.4 0 .8-.2 1.1-.4.3-.3.4-.7.4-1.1 0-.4-.2-.8-.4-1.1-.6-.5-1.6-.5-2.2 0-.2.3-.4.7-.4 1.1 0 .4.2.8.4 1.1.3.2.7.4 1.1.4zM16.5 73.5c-3.3 0-6-2.7-6-6 0-.8-.7-1.5-1.5-1.5s-1.5.7-1.5 1.5c0 3.3-2.7 6-6 6-.8 0-1.5.7-1.5 1.5s.7 1.5 1.5 1.5c3.3 0 6 2.7 6 6 0 .8.7 1.5 1.5 1.5s1.5-.7 1.5-1.5c0-3.3 2.7-6 6-6 .8 0 1.5-.7 1.5-1.5s-.7-1.5-1.5-1.5zm-7.5 4c-.7-1-1.5-1.9-2.5-2.5 1-.7 1.9-1.5 2.5-2.5.7 1 1.5 1.9 2.5 2.5-1 .6-1.8 1.5-2.5 2.5zM70.8 3.7c.5 0 .9-.2 1.2-.5.3-.3.5-.8.5-1.2 0-.5-.2-.9-.5-1.2-.7-.6-1.9-.6-2.5 0-.3.2-.5.6-.5 1.1 0 .5.2.9.5 1.2.4.4.8.6 1.3.6zM55.1 103c0-.7-.6-1.3-1.3-1.3-2.8 0-5-2.3-5-5 0-.7-.6-1.3-1.3-1.3h-.4c-.7 0-1.3.6-1.3 1.3 0 2.8-2.3 5-5 5-.7 0-1.3.6-1.3 1.3v.4c0 .7.6 1.3 1.3 1.3 2.8 0 5 2.3 5 5 0 .7.6 1.3 1.3 1.3h.4c.7 0 1.3-.6 1.3-1.3 0-2.8 2.3-5 5-5 .7 0 1.3-.6 1.3-1.3v-.2c-.1-.1 0-.2 0-.2zm-7.7 2.8c-.6-1.1-1.5-2-2.6-2.6 1.1-.6 2-1.5 2.6-2.6.6 1.1 1.5 2 2.6 2.6-1.1.6-2 1.5-2.6 2.6zM3.2 96.8c-.3.3-.5.8-.5 1.2 0 .5.2.9.5 1.2.3.3.8.5 1.2.5.5 0 .9-.2 1.2-.5.4-.3.6-.7.6-1.2s-.2-.9-.5-1.2c-.7-.7-1.9-.7-2.5 0zM47 13.9c.5 0 .9-.2 1.2-.5.3-.3.5-.8.5-1.2 0-.5-.2-.9-.5-1.2-.7-.6-1.8-.6-2.5 0-.3.3-.5.8-.5 1.2 0 .5.2.9.5 1.2.4.3.8.5 1.3.5zM112.3 3.9c-.7-.6-1.8-.6-2.5 0-.3.3-.5.8-.5 1.2 0 .5.2.9.5 1.2.3.3.8.5 1.2.5.5 0 .9-.2 1.2-.5.3-.3.5-.8.5-1.2.1-.5-.1-.9-.4-1.2zM107 93c-.3.3-.5.8-.5 1.2 0 .5.2.9.5 1.2.3.3.8.5 1.2.5.5 0 .9-.2 1.2-.5.3-.3.5-.8.5-1.2 0-.5-.2-.9-.5-1.2-.6-.6-1.8-.6-2.4 0zM6 50c-.3.3-.5.8-.5 1.2 0 .5.2.9.5 1.2.3.3.8.5 1.2.5.5 0 .9-.2 1.2-.5.4-.2.6-.7.6-1.1 0-.5-.2-.9-.5-1.2-.7-.7-1.9-.7-2.5-.1z"/></svg>