<svg width="36" height="36" viewBox="0 0 36 36" fill="none" xmlns="http://www.w3.org/2000/svg">
<path d="M18 36C27.9411 36 36 27.9411 36 18C36 8.05887 27.9411 0 18 0C8.05887 0 0 8.05887 0 18C0 27.9411 8.05887 36 18 36Z" fill="#FFAA4D"/>
<path d="M22.9249 12.1249C24.2016 13.964 24.3656 18.3004 21.3061 20.4052C24.2244 14.8457 20.6707 9.05835 15.3087 9.38849C15.6779 9.67898 15.9756 10.0502 16.1791 10.4735C16.3826 10.8969 16.4864 11.3613 16.4826 11.8311C16.4826 13.8823 14.9937 14.3586 14.2084 15.3269C13.6152 16.0682 13.2059 16.9394 13.0138 17.8693C12.8217 18.7991 12.8524 19.7612 13.1032 20.6769C12.4046 20.0909 11.8452 19.3567 11.4654 18.5277C11.0856 17.6987 10.895 16.7956 10.9074 15.8838C10.4227 16.7618 10.1158 17.7268 10.0043 18.7235C9.89283 19.7203 9.97895 20.7292 10.2577 21.6927C10.5365 22.6561 11.0025 23.5551 11.629 24.3383C12.2556 25.1215 13.0304 25.7735 13.9091 26.257C14.1359 26.3963 14.3723 26.5193 14.6165 26.625C13.494 23.7235 16.1097 21.2165 16.1097 21.2165C16.1097 21.2165 16.5822 22.7547 17.5256 23.008C17.1797 20.7938 18.332 18.9607 19.5909 18.6137C19.5444 20.0605 19.513 21.0655 21.2352 23.4761C21.5009 23.862 21.6836 24.2988 21.7718 24.7589C21.8599 25.2191 21.8515 25.6925 21.7472 26.1492C25.8416 23.8068 28.3621 16.5224 22.9249 12.1249" stroke="white" stroke-linecap="round" stroke-linejoin="round"/>
</svg>
