<svg width="48" height="48" viewBox="0 0 48 48" fill="none" xmlns="http://www.w3.org/2000/svg">
<path d="M24 48C37.2548 48 48 37.2548 48 24C48 10.7452 37.2548 0 24 0C10.7452 0 0 10.7452 0 24C0 37.2548 10.7452 48 24 48Z" fill="#F9AE4B"/>
<path d="M33.6987 22.4937H31.7805" stroke="white" stroke-linecap="round" stroke-linejoin="round"/>
<path d="M16.1925 23.4937H13.2885" stroke="white" stroke-linecap="round" stroke-linejoin="round"/>
<path d="M23.493 16.1795V13.2886" stroke="white" stroke-linecap="round" stroke-linejoin="round"/>
<path d="M22.493 31.7694V33.6986" stroke="white" stroke-linecap="round" stroke-linejoin="round"/>
<path d="M30.84 16.1472L28.6575 18.3297" stroke="white" stroke-linecap="round" stroke-linejoin="round"/>
<path d="M18.3421 28.6453L16.1472 30.84" stroke="white" stroke-linecap="round" stroke-linejoin="round"/>
<path d="M16.1472 16.1472L18.3226 18.3226" stroke="white" stroke-linecap="round" stroke-linejoin="round"/>
<path d="M22.4511 28.4443C21.5693 28.2585 20.7532 27.8405 20.0871 27.2335C19.421 26.6265 18.9291 25.8526 18.6623 24.9918C18.3955 24.1311 18.3635 23.2147 18.5696 22.3374C18.7757 21.4601 19.2124 20.6538 19.8345 20.0018C20.4566 19.3498 21.2416 18.8759 22.1083 18.629C22.975 18.382 23.8919 18.3711 24.7642 18.5973C25.6366 18.8235 26.4326 19.2786 27.0701 19.9156C27.7076 20.5525 28.1634 21.3482 28.3903 22.2203" stroke="white" stroke-linecap="round" stroke-linejoin="round"/>
<path d="M34.967 25.7832C34.6996 25.8478 34.4252 25.8786 34.1501 25.8748C33.3782 25.8593 32.6229 25.6483 31.9548 25.2613C31.2867 24.8743 30.7278 24.3241 30.3304 23.6622C30.2921 23.6126 30.243 23.5725 30.1868 23.5448C30.1305 23.5172 30.0687 23.5028 30.0061 23.5028C29.9434 23.5028 29.8816 23.5172 29.8254 23.5448C29.7691 23.5725 29.72 23.6126 29.6817 23.6622C28.1477 25.87 25.9851 26.1018 25.0466 25.7837C24.9877 25.7662 24.9255 25.7628 24.865 25.7736C24.8045 25.7844 24.7473 25.8092 24.6981 25.8459C24.6489 25.8827 24.6089 25.9304 24.5813 25.9854C24.5537 26.0403 24.5394 26.1009 24.5393 26.1623V28.7238C24.5393 33.9145 29.8483 35.4223 29.9018 35.4372C29.9699 35.4557 30.0417 35.4557 30.1097 35.4372C30.1637 35.4223 35.4727 33.9145 35.4727 28.7238V26.1623C35.4724 26.1011 35.4579 26.0408 35.4304 25.9861C35.4028 25.9314 35.363 25.8838 35.314 25.8471C35.2651 25.8104 35.2082 25.7855 35.148 25.7744C35.0878 25.7633 35.0259 25.7663 34.967 25.7832V25.7832Z" stroke="white" stroke-linecap="round" stroke-linejoin="round"/>
<path d="M31.3 28.298L32.509 31.8L33.699 28.298" stroke="white" stroke-linecap="round" stroke-linejoin="round"/>
<path d="M29.4553 28.2983V30.3255C29.4553 30.7167 29.2999 31.0918 29.0234 31.3683C28.7468 31.6449 28.3717 31.8003 27.9806 31.8003V31.8003C27.5894 31.8003 27.2143 31.6449 26.9377 31.3683C26.6612 31.0918 26.5058 30.7167 26.5058 30.3255V28.2983" stroke="white" stroke-linecap="round" stroke-linejoin="round"/>
</svg>
