<svg width="36" height="36" viewBox="0 0 36 36" fill="none" xmlns="http://www.w3.org/2000/svg">
<path d="M18 36C27.9411 36 36 27.9411 36 18C36 8.05887 27.9411 0 18 0C8.05887 0 0 8.05887 0 18C0 27.9411 8.05887 36 18 36Z" fill="#F9AE4B"/>
<path d="M9.28906 20.6455H16.4937C17.4409 20.6455 18.3492 21.0218 19.0189 21.6915H20.0649C20.7346 21.0218 21.643 20.6455 22.5901 20.6455H26.4019" stroke="white" stroke-linecap="round" stroke-linejoin="round"/>
<path d="M20.5219 24.0276C20.0391 22.6162 19.4584 18.9558 20.9201 10.1855C20.9201 10.1855 18.8281 18.5533 18.8281 24.8291C18.8281 25.1066 18.9383 25.3726 19.1345 25.5688C19.3306 25.7649 19.5967 25.8751 19.8741 25.8751C20.1515 25.8751 20.4176 25.7649 20.6137 25.5688C20.8099 25.3726 20.9201 25.1066 20.9201 24.8291C20.9184 24.6742 20.8817 24.5216 20.8128 24.3828C20.7438 24.244 20.6444 24.1226 20.5219 24.0276V24.0276Z" stroke="white" stroke-linecap="round" stroke-linejoin="round"/>
<path d="M16.125 18.0005C16.125 18.6967 15.8484 19.3644 15.3562 19.8567C14.8639 20.3489 14.1962 20.6255 13.5 20.6255C12.8038 20.6255 12.1361 20.3489 11.6438 19.8567C11.1516 19.3644 10.875 18.6967 10.875 18.0005C10.875 16.5508 13.5 13.3105 13.5 13.3105C13.5 13.3105 16.125 16.5508 16.125 18.0005Z" stroke="white" stroke-miterlimit="10"/>
<path d="M14.8035 17.7305C14.846 18.0449 14.7726 18.3641 14.5971 18.6284C14.4216 18.8927 14.1559 19.0842 13.8496 19.167" stroke="white" stroke-linecap="round" stroke-linejoin="round"/>
<path d="M13.125 22.875H13.875" stroke="white" stroke-linecap="round" stroke-linejoin="round"/>
<path d="M10.125 22.875H10.875" stroke="white" stroke-linecap="round" stroke-linejoin="round"/>
<path d="M16.125 22.875H16.875" stroke="white" stroke-linecap="round" stroke-linejoin="round"/>
<path d="M14.625 25.125H15.375" stroke="white" stroke-linecap="round" stroke-linejoin="round"/>
<path d="M11.625 25.125H12.375" stroke="white" stroke-linecap="round" stroke-linejoin="round"/>
<path d="M22.875 22.875H23.625" stroke="white" stroke-linecap="round" stroke-linejoin="round"/>
<path d="M25.875 22.875H26.625" stroke="white" stroke-linecap="round" stroke-linejoin="round"/>
<path d="M24.375 25.125H25.125" stroke="white" stroke-linecap="round" stroke-linejoin="round"/>
</svg>
