<svg width="36" height="36" viewBox="0 0 36 36" fill="none" xmlns="http://www.w3.org/2000/svg">
<path d="M18 36C27.9411 36 36 27.9411 36 18C36 8.05887 27.9411 0 18 0C8.05887 0 0 8.05887 0 18C0 27.9411 8.05887 36 18 36Z" fill="#BC9A84"/>
<path d="M14.6131 10.9902C14.6131 10.9902 10.1623 14.7743 13.7648 19.3965C14.6318 20.391 15.1161 21.662 15.1308 22.9814C15.1454 24.3007 14.6895 25.5821 13.8447 26.5957" stroke="white" stroke-linecap="round" stroke-linejoin="round"/>
<path d="M14.154 13.5186C14.154 13.5186 13.655 15.5994 15.8778 18.7929C18.7081 22.8591 13.8438 26.5956 13.8438 26.5956" stroke="white" stroke-linecap="round" stroke-linejoin="round"/>
<path d="M18.6306 9.44922C18.6306 9.44922 14.1525 12.4213 17.7453 17.7233C20.5274 21.8289 18.1201 24.0732 18.1201 24.0732" stroke="white" stroke-linecap="round" stroke-linejoin="round"/>
<path d="M18.1821 11.8115C18.1821 11.8115 17.3483 13.855 19.6531 17.048C22.5305 21.0343 18.1194 24.0733 18.1194 24.0733" stroke="white" stroke-linecap="round" stroke-linejoin="round"/>
<path d="M22.6277 9.30469C22.6277 9.30469 18.9643 11.7361 21.9035 16.0735C24.1795 19.4323 22.2101 21.2683 22.2101 21.2683" stroke="white" stroke-linecap="round" stroke-linejoin="round"/>
<path d="M22.2608 11.2373C22.2608 11.2373 21.5787 12.909 23.4642 15.5212C25.8182 18.7823 22.2095 21.2684 22.2095 21.2684" stroke="white" stroke-linecap="round" stroke-linejoin="round"/>
</svg>
