<svg width="36" height="36" viewBox="0 0 36 36" fill="none" xmlns="http://www.w3.org/2000/svg">
    <path
        d="M18 36C27.9411 36 36 27.9411 36 18C36 8.05887 27.9411 0 18 0C8.05887 0 0 8.05887 0 18C0 27.9411 8.05887 36 18 36Z"
        fill="#E08282" />
    <path
        d="M19.8633 10.9912C19.8633 10.9912 15.4125 14.7753 19.015 19.3975C19.8821 20.392 20.3664 21.663 20.381 22.9824C20.3957 24.3017 19.9397 25.5831 19.0949 26.5967"
        stroke="white" stroke-linecap="round" stroke-linejoin="round" />
    <path
        d="M19.4052 13.5196C19.4052 13.5196 18.9062 15.6005 21.129 18.794C23.9593 22.8601 19.0949 26.5967 19.0949 26.5967"
        stroke="white" stroke-linecap="round" stroke-linejoin="round" />
    <path
        d="M23.13 9.44983C23.13 9.44983 18.6519 12.4219 22.2447 17.7239C25.0269 21.8295 22.6195 24.0738 22.6195 24.0738"
        stroke="white" stroke-linecap="round" stroke-linejoin="round" />
    <path
        d="M22.6823 11.8121C22.6823 11.8121 21.8484 13.8556 24.1533 17.0486C27.0307 21.035 22.6195 24.0739 22.6195 24.0739"
        stroke="white" stroke-linecap="round" stroke-linejoin="round" />
    <path
        d="M15.9346 18.9021C15.7739 18.9449 15.608 18.9654 15.4417 18.9629C14.9615 18.9452 14.4946 18.7995 14.0895 18.5409C13.6844 18.2823 13.3557 17.9202 13.1375 17.492C13.1162 17.4595 13.0872 17.4327 13.053 17.4142C13.0189 17.3957 12.9806 17.386 12.9418 17.386C12.9029 17.386 12.8647 17.3957 12.8305 17.4142C12.7964 17.4327 12.7673 17.4595 12.7461 17.492C11.8207 18.9597 10.5161 19.1139 9.94989 18.9024C9.91246 18.8924 9.87319 18.8915 9.83534 18.8997C9.79748 18.9079 9.76213 18.925 9.73221 18.9496C9.7023 18.9742 9.67868 19.0056 9.66332 19.0412C9.64796 19.0767 9.6413 19.1154 9.64389 19.1541V20.857C9.65166 21.845 9.96751 22.806 10.5474 23.6061C11.1273 24.4061 11.9423 25.0053 12.8789 25.3201C12.9198 25.3324 12.9634 25.3324 13.0043 25.3201C13.941 25.0054 14.7561 24.4062 15.336 23.6062C15.916 22.8061 16.2319 21.8451 16.2396 20.857V19.1541C16.242 19.1156 16.2352 19.0771 16.2199 19.0417C16.2045 19.0063 16.181 18.975 16.1512 18.9504C16.1215 18.9259 16.0864 18.9087 16.0487 18.9003C16.011 18.8919 15.9719 18.8925 15.9346 18.9021V18.9021Z"
        stroke="white" stroke-miterlimit="10" />
</svg>