<svg width="36" height="36" viewBox="0 0 36 36" fill="none" xmlns="http://www.w3.org/2000/svg">
<path d="M18 36C27.9411 36 36 27.9411 36 18C36 8.05887 27.9411 0 18 0C8.05887 0 0 8.05887 0 18C0 27.9411 8.05887 36 18 36Z" fill="#FACE85"/>
<path d="M11.1604 26.541C11.1604 26.541 9.32774 24.41 11.3836 20.9223C13.4395 17.4347 11.0165 15.8193 11.3836 13.8002C11.7507 11.781 13.5129 9.02761 18.0652 9.43142C22.6175 9.83524 28.067 16.298 23.8452 26.5039C23.8452 26.5039 24.9615 21.787 18.3589 17.3612C13.572 14.1525 13.9902 12.5519 13.9902 12.5519C13.9902 12.5519 12.6726 14.2499 13.3293 15.6358C13.9894 17.0287 13.1751 17.354 13.6965 17.9486C14.1131 18.4238 14.8712 20.5185 16.0827 19.8209C17.2943 19.1234 18.319 18.6568 18.5425 18.1306C17.9299 18.9906 17.3896 19.8998 16.9271 20.8489C16.56 21.6198 14.394 21.0692 13.2559 22.0237C12.1179 22.9782 10.83 23.8978 11.1604 26.541Z" stroke="white" stroke-linecap="round" stroke-linejoin="round"/>
<path d="M19.2123 17.9668C19.2123 17.9668 18.5454 20.1986 21.1731 21.5849C21.7983 21.8914 22.3556 22.3204 22.812 22.8464C23.2683 23.3724 23.6143 23.9846 23.8296 24.6468" stroke="white" stroke-linecap="round" stroke-linejoin="round"/>
</svg>
