<svg width="36" height="36" viewBox="0 0 36 36" fill="none" xmlns="http://www.w3.org/2000/svg">
<g clip-path="url(#clip0_2038_51905)">
<path d="M18 36C27.9411 36 36 27.9411 36 18C36 8.05887 27.9411 0 18 0C8.05887 0 0 8.05887 0 18C0 27.9411 8.05887 36 18 36Z" fill="#FF585A"/>
<path d="M20.7656 19.1953C21.5135 19.1953 22.1199 20.5516 22.1199 21.2996" stroke="white" stroke-linecap="round" stroke-linejoin="round"/>
<path d="M23.4734 19.1953C22.7254 19.1953 22.1191 20.5516 22.1191 21.2996" stroke="white" stroke-linecap="round" stroke-linejoin="round"/>
<path d="M23.4734 19.1951C22.7254 19.1951 22.1191 17.8388 22.1191 17.0908" stroke="white" stroke-linecap="round" stroke-linejoin="round"/>
<path d="M20.7656 19.1951C21.5135 19.1951 22.1199 17.8388 22.1199 17.0908" stroke="white" stroke-linecap="round" stroke-linejoin="round"/>
<path d="M18.5156 11.6953C19.2635 11.6953 19.8699 13.0516 19.8699 13.7996" stroke="white" stroke-linecap="round" stroke-linejoin="round"/>
<path d="M21.2234 11.6953C20.4754 11.6953 19.8691 13.0516 19.8691 13.7996" stroke="white" stroke-linecap="round" stroke-linejoin="round"/>
<path d="M21.2234 11.6951C20.4754 11.6951 19.8691 10.3388 19.8691 9.59082" stroke="white" stroke-linecap="round" stroke-linejoin="round"/>
<path d="M18.5156 11.6951C19.2635 11.6951 19.8699 10.3388 19.8699 9.59082" stroke="white" stroke-linecap="round" stroke-linejoin="round"/>
<path d="M14.0156 22.1953C14.7635 22.1953 15.3699 23.5516 15.3699 24.2996" stroke="white" stroke-linecap="round" stroke-linejoin="round"/>
<path d="M16.7234 22.1953C15.9754 22.1953 15.3691 23.5516 15.3691 24.2996" stroke="white" stroke-linecap="round" stroke-linejoin="round"/>
<path d="M16.7234 22.1951C15.9754 22.1951 15.3691 20.8388 15.3691 20.0908" stroke="white" stroke-linecap="round" stroke-linejoin="round"/>
<path d="M14.0156 22.1951C14.7635 22.1951 15.3699 20.8388 15.3699 20.0908" stroke="white" stroke-linecap="round" stroke-linejoin="round"/>
<path d="M11.7656 13.1953C12.5135 13.1953 13.1199 14.5516 13.1199 15.2996" stroke="white" stroke-linecap="round" stroke-linejoin="round"/>
<path d="M14.4734 13.1953C13.7254 13.1953 13.1191 14.5516 13.1191 15.2996" stroke="white" stroke-linecap="round" stroke-linejoin="round"/>
<path d="M14.4734 13.1951C13.7254 13.1951 13.1191 11.8388 13.1191 11.0908" stroke="white" stroke-linecap="round" stroke-linejoin="round"/>
<path d="M11.7656 13.1951C12.5135 13.1951 13.1199 11.8388 13.1199 11.0908" stroke="white" stroke-linecap="round" stroke-linejoin="round"/>
<path d="M15.5156 16.1953C15.8748 16.1953 16.2193 16.338 16.4732 16.592C16.7272 16.846 16.8699 17.1904 16.8699 17.5496" stroke="white" stroke-linecap="round" stroke-linejoin="round"/>
<path d="M18.2234 16.1953C18.0456 16.1953 17.8695 16.2303 17.7051 16.2984C17.5408 16.3664 17.3915 16.4662 17.2658 16.592C17.14 16.7177 17.0403 16.867 16.9722 17.0313C16.9042 17.1956 16.8691 17.3717 16.8691 17.5496" stroke="white" stroke-linecap="round" stroke-linejoin="round"/>
<path d="M18.2234 16.1951C18.0456 16.1951 17.8695 16.1601 17.7051 16.092C17.5408 16.0239 17.3915 15.9242 17.2658 15.7984C17.14 15.6727 17.0403 15.5234 16.9722 15.3591C16.9042 15.1948 16.8691 15.0187 16.8691 14.8408" stroke="white" stroke-linecap="round" stroke-linejoin="round"/>
<path d="M15.5156 16.1951C15.8748 16.1951 16.2193 16.0524 16.4732 15.7984C16.7272 15.5445 16.8699 15.2 16.8699 14.8408" stroke="white" stroke-linecap="round" stroke-linejoin="round"/>
<path d="M23.7656 15.4453C24.1248 15.4453 24.4693 15.588 24.7232 15.842C24.9772 16.096 25.1199 16.4404 25.1199 16.7996" stroke="white" stroke-linecap="round" stroke-linejoin="round"/>
<path d="M26.4734 15.4453C26.2956 15.4453 26.1195 15.4803 25.9551 15.5484C25.7908 15.6164 25.6415 15.7162 25.5158 15.842C25.39 15.9677 25.2903 16.117 25.2222 16.2813C25.1542 16.4456 25.1191 16.6217 25.1191 16.7996" stroke="white" stroke-linecap="round" stroke-linejoin="round"/>
<path d="M26.4734 15.4451C26.2956 15.4451 26.1195 15.4101 25.9551 15.342C25.7908 15.2739 25.6415 15.1742 25.5158 15.0484C25.39 14.9227 25.2903 14.7734 25.2222 14.6091C25.1542 14.4448 25.1191 14.2687 25.1191 14.0908" stroke="white" stroke-linecap="round" stroke-linejoin="round"/>
<path d="M23.7656 15.4451C24.1248 15.4451 24.4693 15.3024 24.7232 15.0484C24.9772 14.7945 25.1199 14.45 25.1199 14.0908" stroke="white" stroke-linecap="round" stroke-linejoin="round"/>
<path d="M9.51562 19.9453C9.8748 19.9453 10.2193 20.088 10.4732 20.342C10.7272 20.596 10.8699 20.9404 10.8699 21.2996" stroke="white" stroke-linecap="round" stroke-linejoin="round"/>
<path d="M12.2234 19.9453C12.0456 19.9453 11.8695 19.9803 11.7051 20.0484C11.5408 20.1164 11.3915 20.2162 11.2658 20.342C11.14 20.4677 11.0403 20.617 10.9722 20.7813C10.9042 20.9456 10.8691 21.1217 10.8691 21.2996" stroke="white" stroke-linecap="round" stroke-linejoin="round"/>
<path d="M12.2234 19.9451C12.0456 19.9451 11.8695 19.9101 11.7051 19.842C11.5408 19.7739 11.3915 19.6742 11.2658 19.5484C11.14 19.4227 11.0403 19.2734 10.9722 19.1091C10.9042 18.9448 10.8691 18.7687 10.8691 18.5908" stroke="white" stroke-linecap="round" stroke-linejoin="round"/>
<path d="M9.51562 19.9451C9.8748 19.9451 10.2193 19.8024 10.4732 19.5484C10.7272 19.2945 10.8699 18.95 10.8699 18.5908" stroke="white" stroke-linecap="round" stroke-linejoin="round"/>
<path d="M19.2656 24.4453C19.6248 24.4453 19.9693 24.588 20.2232 24.842C20.4772 25.096 20.6199 25.4404 20.6199 25.7996" stroke="white" stroke-linecap="round" stroke-linejoin="round"/>
<path d="M21.9734 24.4453C21.7956 24.4453 21.6195 24.4803 21.4551 24.5484C21.2908 24.6164 21.1415 24.7162 21.0158 24.842C20.89 24.9677 20.7903 25.117 20.7222 25.2813C20.6542 25.4456 20.6191 25.6217 20.6191 25.7996" stroke="white" stroke-linecap="round" stroke-linejoin="round"/>
<path d="M21.9734 24.4451C21.7956 24.4451 21.6195 24.4101 21.4551 24.342C21.2908 24.2739 21.1415 24.1742 21.0158 24.0484C20.89 23.9227 20.7903 23.7734 20.7222 23.6091C20.6542 23.4448 20.6191 23.2687 20.6191 23.0908" stroke="white" stroke-linecap="round" stroke-linejoin="round"/>
<path d="M19.2656 24.4451C19.6248 24.4451 19.9693 24.3024 20.2232 24.0484C20.4772 23.7945 20.6199 23.45 20.6199 23.0908" stroke="white" stroke-linecap="round" stroke-linejoin="round"/>
</g>
<defs>
<clipPath id="clip0_2038_51905">
<rect width="36" height="36" fill="white"/>
</clipPath>
</defs>
</svg>
