<svg width="36" height="36" viewBox="0 0 36 36" fill="none" xmlns="http://www.w3.org/2000/svg">
<path d="M18 36C27.9411 36 36 27.9411 36 18C36 8.05887 27.9411 0 18 0C8.05887 0 0 8.05887 0 18C0 27.9411 8.05887 36 18 36Z" fill="#74B1C8"/>
<path d="M13.2088 26.6169C13.3309 26.0686 13.6459 25.5823 14.0964 25.2467C14.3822 25.0504 14.6158 24.7876 14.7772 24.4809C14.9387 24.1741 15.023 23.8327 15.023 23.4861C15.023 23.1394 14.9387 22.798 14.7772 22.4913C14.6158 22.1846 14.3822 21.9217 14.0964 21.7254V21.7254C13.8108 21.5292 13.5771 21.2663 13.4157 20.9596C13.2543 20.6529 13.1699 20.3114 13.1699 19.9648C13.1699 19.6182 13.2543 19.2768 13.4157 18.9701C13.5771 18.6633 13.8108 18.4005 14.0964 18.2042L14.0965 18.2041C14.3822 18.0078 14.6159 17.745 14.7773 17.4383C14.9387 17.1315 15.0231 16.7901 15.0231 16.4435C15.0231 16.0969 14.9387 15.7555 14.7773 15.4487C14.6159 15.142 14.3822 14.8791 14.0965 14.6829C13.8108 14.4866 13.5772 14.2238 13.4157 13.917C13.2543 13.6103 13.17 13.2689 13.17 12.9222C13.17 12.5756 13.2543 12.2342 13.4157 11.9275C13.5772 11.6207 13.8108 11.3579 14.0965 11.1616V11.1616C15.3319 10.1893 15.1682 9.47754 15.1682 9.47754" stroke="white" stroke-linecap="round" stroke-linejoin="round"/>
<path d="M22.7377 26.617C20.8356 21.812 22.0262 11.1616 22.0262 11.1616V9.47754" stroke="white" stroke-linecap="round" stroke-linejoin="round"/>
<path d="M18.4425 26.6247C18.7851 24.6395 18.6402 22.6008 18.0203 20.684C17.2224 18.2201 17.2224 15.5671 18.0203 13.1031C18.4887 11.9523 18.724 10.72 18.7125 9.47754" stroke="white" stroke-miterlimit="10" stroke-linecap="round"/>
</svg>
