<svg width="36" height="36" viewBox="0 0 36 36" fill="none" xmlns="http://www.w3.org/2000/svg">
<g clip-path="url(#clip0_7301_200921)">
<path d="M18 36C27.9411 36 36 27.9411 36 18C36 8.05887 27.9411 0 18 0C8.05887 0 0 8.05887 0 18C0 27.9411 8.05887 36 18 36Z" fill="#C67F92"/>
<path d="M13.5799 12.1616C12.7597 13.199 12.3291 14.4911 12.3629 15.8131C12.3968 17.1351 12.8929 18.4035 13.765 19.3976C14.5502 20.2879 15.0264 21.4084 15.1222 22.5917C15.2181 23.775 14.9286 24.9575 14.2969 25.9626" stroke="white" stroke-width="0.5" stroke-linecap="round" stroke-linejoin="round"/>
<path d="M14.1857 14.9717C14.4607 16.3553 15.0391 17.6607 15.8791 18.794C18.1028 21.9887 15.5765 24.98 14.3916 26.1154" stroke="white" stroke-width="0.5" stroke-linecap="round" stroke-linejoin="round"/>
<path d="M17.5658 10.4609C16.5147 11.7474 15.3769 14.2297 17.7448 17.724C19.6997 20.6089 19.0923 22.5748 18.5583 23.4888" stroke="white" stroke-width="0.5" stroke-linecap="round" stroke-linejoin="round"/>
<path d="M18.0616 13.3186C18.2557 14.68 18.8046 15.9664 19.6532 17.0486C21.8494 20.0911 19.7997 22.5818 18.706 23.5905" stroke="white" stroke-width="0.5" stroke-linecap="round" stroke-linejoin="round"/>
<path d="M22.6279 9.30566C22.6279 9.30566 18.9644 11.7371 21.9036 16.0745C24.1796 19.4332 22.2102 21.2693 22.2102 21.2693" stroke="white" stroke-width="0.5" stroke-linecap="round" stroke-linejoin="round"/>
<path d="M22.2616 11.2383C22.2616 11.2383 21.5794 12.91 23.465 15.5222C25.8189 18.7833 22.2102 21.2693 22.2102 21.2693" stroke="white" stroke-width="0.5" stroke-linecap="round" stroke-linejoin="round"/>
</g>
<defs>
<clipPath id="clip0_7301_200921">
<rect width="36" height="36" fill="white"/>
</clipPath>
</defs>
</svg>
