<svg width="36" height="36" viewBox="0 0 36 36" fill="none" xmlns="http://www.w3.org/2000/svg">
<path d="M18 36C27.9411 36 36 27.9411 36 18C36 8.05887 27.9411 0 18 0C8.05887 0 0 8.05887 0 18C0 27.9411 8.05887 36 18 36Z" fill="#A66F60"/>
<path d="M13.8846 26.4998C14.0191 25.8958 14.366 25.3602 14.8623 24.9906V24.9906C15.1769 24.7745 15.4343 24.485 15.6121 24.1471C15.7899 23.8093 15.8828 23.4333 15.8828 23.0515C15.8828 22.6697 15.7899 22.2937 15.6121 21.9559C15.4343 21.618 15.1769 21.3285 14.8623 21.1124V21.1124C14.5476 20.8962 14.2903 20.6067 14.1125 20.2689C13.9347 19.931 13.8418 19.555 13.8418 19.1733C13.8418 18.7915 13.9347 18.4155 14.1125 18.0776C14.2903 17.7398 14.5476 17.4503 14.8623 17.2341L14.8624 17.234C15.177 17.0179 15.4344 16.7284 15.6121 16.3905C15.7899 16.0527 15.8828 15.6767 15.8828 15.2949C15.8828 14.9132 15.7899 14.5371 15.6121 14.1993C15.4344 13.8615 15.177 13.572 14.8624 13.3558V13.3558C14.5477 13.1396 14.2904 12.8501 14.1126 12.5123C13.9348 12.1745 13.8419 11.7984 13.8419 11.4167C13.8419 11.0349 13.9348 10.6589 14.1126 10.321C14.2904 9.9832 14.5477 9.6937 14.8624 9.47754V9.47754" stroke="white" stroke-linecap="round" stroke-linejoin="round"/>
<path d="M20.9667 26.4998C21.1011 25.8958 21.4481 25.3602 21.9443 24.9906C22.259 24.7745 22.5163 24.485 22.6941 24.1471C22.8719 23.8093 22.9648 23.4333 22.9648 23.0515C22.9648 22.6697 22.8719 22.2937 22.6941 21.9559C22.5163 21.618 22.259 21.3285 21.9443 21.1124V21.1124C21.6296 20.8962 21.3723 20.6067 21.1945 20.2689C21.0167 19.931 20.9238 19.555 20.9238 19.1733C20.9238 18.7915 21.0167 18.4155 21.1945 18.0776C21.3723 17.7398 21.6296 17.4503 21.9443 17.2341L21.9444 17.234C22.2591 17.0179 22.5164 16.7284 22.6942 16.3905C22.872 16.0527 22.9649 15.6767 22.9649 15.2949C22.9649 14.9132 22.872 14.5371 22.6942 14.1993C22.5164 13.8615 22.2591 13.572 21.9444 13.3558C21.6297 13.1396 21.3724 12.8501 21.1946 12.5123C21.0168 12.1745 20.9239 11.7984 20.9239 11.4167C20.9239 11.0349 21.0168 10.6589 21.1946 10.321C21.3724 9.9832 21.6297 9.6937 21.9444 9.47754V9.47754" stroke="white" stroke-linecap="round" stroke-linejoin="round"/>
<path d="M17.4256 26.4998C17.5601 25.8958 17.907 25.3602 18.4033 24.9906V24.9906C18.7179 24.7745 18.9753 24.485 19.1531 24.1471C19.3309 23.8093 19.4238 23.4333 19.4238 23.0515C19.4238 22.6697 19.3309 22.2937 19.1531 21.9559C18.9753 21.618 18.7179 21.3285 18.4033 21.1124V21.1124C18.0886 20.8962 17.8313 20.6067 17.6535 20.2689C17.4757 19.931 17.3828 19.555 17.3828 19.1733C17.3828 18.7915 17.4757 18.4155 17.6535 18.0776C17.8313 17.7398 18.0886 17.4503 18.4033 17.2341L18.4034 17.234C18.718 17.0179 18.9754 16.7284 19.1532 16.3905C19.3309 16.0527 19.4238 15.6767 19.4238 15.2949C19.4238 14.9132 19.3309 14.5371 19.1532 14.1993C18.9754 13.8615 18.718 13.572 18.4034 13.3558C18.0887 13.1396 17.8314 12.8501 17.6536 12.5123C17.4758 12.1745 17.3829 11.7984 17.3829 11.4167C17.3829 11.0349 17.4758 10.6589 17.6536 10.321C17.8314 9.9832 18.0887 9.6937 18.4034 9.47754V9.47754" stroke="white" stroke-linecap="round" stroke-linejoin="round"/>
</svg>
