<svg width="36" height="36" viewBox="0 0 36 36" fill="none" xmlns="http://www.w3.org/2000/svg">
<path d="M18 36C27.9411 36 36 27.9411 36 18C36 8.05887 27.9411 0 18 0C8.05887 0 0 8.05887 0 18C0 27.9411 8.05887 36 18 36Z" fill="#BE9B83"/>
<path d="M13.2676 15.4453C14.0155 15.4453 14.6218 16.8016 14.6218 17.5496" stroke="white" stroke-linecap="round" stroke-linejoin="round"/>
<path d="M15.9754 15.4453C15.2274 15.4453 14.6211 16.8016 14.6211 17.5496" stroke="white" stroke-linecap="round" stroke-linejoin="round"/>
<path d="M15.9754 15.4451C15.2274 15.4451 14.6211 14.0888 14.6211 13.3408" stroke="white" stroke-linecap="round" stroke-linejoin="round"/>
<path d="M13.2676 15.4451C14.0155 15.4451 14.6218 14.0888 14.6218 13.3408" stroke="white" stroke-linecap="round" stroke-linejoin="round"/>
<path d="M22.2676 13.9453C23.0155 13.9453 23.6218 15.3016 23.6218 16.0496" stroke="white" stroke-linecap="round" stroke-linejoin="round"/>
<path d="M24.9754 13.9453C24.2274 13.9453 23.6211 15.3016 23.6211 16.0496" stroke="white" stroke-linecap="round" stroke-linejoin="round"/>
<path d="M24.9754 13.9451C24.2274 13.9451 23.6211 12.5888 23.6211 11.8408" stroke="white" stroke-linecap="round" stroke-linejoin="round"/>
<path d="M22.2676 13.9451C23.0155 13.9451 23.6218 12.5888 23.6218 11.8408" stroke="white" stroke-linecap="round" stroke-linejoin="round"/>
<path d="M22.2676 17.6953V19.1953" stroke="white" stroke-linecap="round" stroke-linejoin="round"/>
<path d="M23.0176 18.4453H21.5176" stroke="white" stroke-linecap="round" stroke-linejoin="round"/>
<path d="M16.2598 10.9453H16.2742" stroke="white" stroke-linecap="round" stroke-linejoin="round"/>
<path d="M12.5098 18.4453H12.5242" stroke="white" stroke-linecap="round" stroke-linejoin="round"/>
<path d="M22.2598 9.44531H22.2742" stroke="white" stroke-linecap="round" stroke-linejoin="round"/>
<path d="M12.3828 21.3115H14.9566C15.9189 21.3115 16.8417 21.6938 17.5222 22.3742H18.5849C19.2653 21.6938 20.1881 21.3115 21.1504 21.3115H23.7242" stroke="white" stroke-linecap="round" stroke-linejoin="round"/>
<path d="M19.1155 24.7297C18.6099 23.2517 18.0017 19.4186 19.5325 10.2344C19.5325 10.2344 17.3418 18.9971 17.3418 25.5691C17.3426 25.8591 17.4583 26.1369 17.6636 26.3417C17.869 26.5465 18.1471 26.6615 18.4371 26.6615C18.7271 26.6615 19.0053 26.5465 19.2106 26.3417C19.416 26.1369 19.5317 25.8591 19.5325 25.5691C19.5307 25.4068 19.4923 25.247 19.4201 25.1016C19.3479 24.9563 19.2438 24.8291 19.1155 24.7297V24.7297Z" stroke="white" stroke-linecap="round" stroke-linejoin="round"/>
</svg>
