<svg width="36" height="36" viewBox="0 0 36 36" fill="none" xmlns="http://www.w3.org/2000/svg">
<path d="M18 36C27.9411 36 36 27.9411 36 18C36 8.05887 27.9411 0 18 0C8.05887 0 0 8.05887 0 18C0 27.9411 8.05887 36 18 36Z" fill="#A8857E"/>
<path d="M18.9984 16.2764C19.9684 17.0999 20.0481 17.7203 19.1205 18.7364C18.8683 19.0071 18.5565 19.2153 18.2099 19.3445C17.8632 19.4737 17.4912 19.5204 17.1234 19.4809C15.5325 19.3927 15.993 17.9468 17.1234 17.9468C17.6823 17.9785 18.2199 18.1718 18.6711 18.5031C19.8513 19.3177 20.0564 20.2743 19.1414 21.3028C18.8894 21.5809 18.5753 21.7954 18.2245 21.9288C17.8738 22.0622 17.4965 22.1107 17.1234 22.0704C15.5325 21.9822 15.993 20.5362 17.1234 20.5362C17.6894 20.572 18.2321 20.7748 18.6827 21.119C18.9538 21.2921 19.1836 21.5224 19.3561 21.7938C19.5286 22.0652 19.6396 22.371 19.6813 22.6899C19.7231 23.0087 19.6945 23.3328 19.5976 23.6394C19.5007 23.9461 19.3379 24.2277 19.1205 24.4647C18.8683 24.7354 18.5566 24.9436 18.2099 25.0728C17.8633 25.202 17.4913 25.2487 17.1234 25.2092C15.5325 25.121 15.993 23.6751 17.1234 23.6751C18.2538 23.6751 19.6503 25.2782 19.1926 26.5874" stroke="white" stroke-linecap="round" stroke-linejoin="round"/>
<path d="M19.8448 9.40723C19.7742 10.0679 19.4524 10.6762 18.9458 11.1062C18.4393 11.5362 17.7868 11.7549 17.1234 11.7172C15.5325 11.6291 15.993 10.1831 17.1234 10.1831C17.6894 10.2188 18.2321 10.4216 18.6827 10.7659C19.8447 11.5935 20.0481 12.5461 19.1205 13.5622C18.8683 13.8329 18.5565 14.0411 18.2099 14.1703C17.8632 14.2995 17.4912 14.3462 17.1234 14.3067C15.5325 14.2185 15.993 12.7726 17.1234 12.7726C17.6823 12.8043 18.2199 12.9976 18.6711 13.3289C19.8513 14.1435 20.0564 15.1001 19.1414 16.1286C18.8894 16.4067 18.5753 16.6212 18.2245 16.7546C17.8738 16.888 17.4965 16.9365 17.1234 16.8962C15.5325 16.808 15.993 15.362 17.1234 15.362C17.6894 15.3977 18.2321 15.6005 18.6827 15.9448" stroke="white" stroke-linecap="round" stroke-linejoin="round"/>
<path d="M26.5947 9.33105C26.5242 9.99175 26.2024 10.6 25.6958 11.03C25.1893 11.46 24.5368 11.6788 23.8734 11.6411C22.2825 11.5529 22.743 10.1069 23.8734 10.1069C24.4394 10.1427 24.982 10.3455 25.4327 10.6897C26.5947 11.5174 26.7981 12.47 25.8705 13.486C25.6183 13.7567 25.3065 13.9649 24.9599 14.0941C24.6132 14.2234 24.2412 14.2701 23.8734 14.2305C22.2825 14.1424 22.743 12.6964 23.8734 12.6964C24.4323 12.7281 24.9699 12.9214 25.4211 13.2527C26.6013 14.0673 26.8064 15.0239 25.8914 16.0524C25.6394 16.3305 25.3253 16.545 24.9745 16.6784C24.6238 16.8118 24.2465 16.8603 23.8734 16.82C22.2825 16.7318 22.743 15.2858 23.8734 15.2858C24.4394 15.3216 24.9821 15.5244 25.4327 15.8686C25.7037 16.0417 25.9336 16.272 26.1061 16.5434C26.2786 16.8148 26.3896 17.1206 26.4313 17.4395C26.4731 17.7583 26.4445 18.0824 26.3476 18.389C26.2507 18.6957 26.0879 18.9774 25.8705 19.2143C25.6183 19.485 25.3066 19.6932 24.9599 19.8224C24.6132 19.9516 24.2413 19.9983 23.8734 19.9588C22.2825 19.8706 22.743 18.4247 23.8734 18.4247C25.0038 18.4247 26.4003 20.0278 25.9426 21.337" stroke="white" stroke-linecap="round" stroke-linejoin="round"/>
<path d="M13.0947 9.33105C13.0242 9.99175 12.7024 10.6 12.1958 11.03C11.6893 11.46 11.0368 11.6788 10.3734 11.6411C8.78248 11.5529 9.243 10.1069 10.3734 10.1069C10.9394 10.1427 11.482 10.3455 11.9327 10.6897C13.0947 11.5174 13.2981 12.47 12.3705 13.486C12.1183 13.7567 11.8065 13.9649 11.4599 14.0941C11.1132 14.2234 10.7412 14.2701 10.3734 14.2305C8.78248 14.1424 9.243 12.6964 10.3734 12.6964C10.9323 12.7281 11.4699 12.9214 11.9211 13.2527C13.1013 14.0673 13.3064 15.0239 12.3914 16.0524C12.1394 16.3305 11.8253 16.545 11.4745 16.6784C11.1238 16.8118 10.7465 16.8603 10.3734 16.82C8.78249 16.7318 9.24302 15.2858 10.3734 15.2858C10.9394 15.3216 11.4821 15.5244 11.9327 15.8686C12.2038 16.0417 12.4336 16.272 12.6061 16.5434C12.7786 16.8148 12.8896 17.1206 12.9313 17.4395C12.9731 17.7583 12.9445 18.0824 12.8476 18.389C12.7507 18.6957 12.5879 18.9774 12.3705 19.2143C12.1183 19.485 11.8066 19.6932 11.4599 19.8224C11.1133 19.9516 10.7413 19.9983 10.3734 19.9588C8.78249 19.8706 9.24302 18.4247 10.3734 18.4247C11.5038 18.4247 12.9003 20.0278 12.4426 21.337" stroke="white" stroke-linecap="round" stroke-linejoin="round"/>
</svg>
