<svg width="36" height="36" viewBox="0 0 36 36" fill="none" xmlns="http://www.w3.org/2000/svg">
<path d="M18 36C27.9411 36 36 27.9411 36 18C36 8.05887 27.9411 0 18 0C8.05887 0 0 8.05887 0 18C0 27.9411 8.05887 36 18 36Z" fill="#74B1C8"/>
<path d="M14.6254 12.2254C15.371 12.2254 15.9754 11.621 15.9754 10.8754C15.9754 10.1298 15.371 9.52539 14.6254 9.52539C13.8798 9.52539 13.2754 10.1298 13.2754 10.8754C13.2754 11.621 13.8798 12.2254 14.6254 12.2254Z" stroke="white" stroke-miterlimit="10"/>
<path d="M10.8754 15.9754C11.621 15.9754 12.2254 15.371 12.2254 14.6254C12.2254 13.8798 11.621 13.2754 10.8754 13.2754C10.1298 13.2754 9.52539 13.8798 9.52539 14.6254C9.52539 15.371 10.1298 15.9754 10.8754 15.9754Z" stroke="white" stroke-miterlimit="10"/>
<path d="M10.876 19.335C11.4062 19.335 11.836 18.9052 11.836 18.375C11.836 17.8448 11.4062 17.415 10.876 17.415C10.3458 17.415 9.91602 17.8448 9.91602 18.375C9.91602 18.9052 10.3458 19.335 10.876 19.335Z" stroke="white" stroke-miterlimit="10"/>
<path d="M14.626 15.585C15.1562 15.585 15.586 15.1552 15.586 14.625C15.586 14.0948 15.1562 13.665 14.626 13.665C14.0958 13.665 13.666 14.0948 13.666 14.625C13.666 15.1552 14.0958 15.585 14.626 15.585Z" stroke="white" stroke-miterlimit="10"/>
<path d="M18.376 11.835C18.9062 11.835 19.336 11.4052 19.336 10.875C19.336 10.3448 18.9062 9.91504 18.376 9.91504C17.8458 9.91504 17.416 10.3448 17.416 10.875C17.416 11.4052 17.8458 11.835 18.376 11.835Z" stroke="white" stroke-miterlimit="10"/>
<path d="M10.875 22.875C11.2892 22.875 11.625 22.5392 11.625 22.125C11.625 21.7108 11.2892 21.375 10.875 21.375C10.4608 21.375 10.125 21.7108 10.125 22.125C10.125 22.5392 10.4608 22.875 10.875 22.875Z" stroke="white" stroke-miterlimit="10"/>
<path d="M22.125 11.625C22.5392 11.625 22.875 11.2892 22.875 10.875C22.875 10.4608 22.5392 10.125 22.125 10.125C21.7108 10.125 21.375 10.4608 21.375 10.875C21.375 11.2892 21.7108 11.625 22.125 11.625Z" stroke="white" stroke-miterlimit="10"/>
<path d="M18.375 15.375C18.7892 15.375 19.125 15.0392 19.125 14.625C19.125 14.2108 18.7892 13.875 18.375 13.875C17.9608 13.875 17.625 14.2108 17.625 14.625C17.625 15.0392 17.9608 15.375 18.375 15.375Z" stroke="white" stroke-miterlimit="10"/>
<path d="M14.625 19.125C15.0392 19.125 15.375 18.7892 15.375 18.375C15.375 17.9608 15.0392 17.625 14.625 17.625C14.2108 17.625 13.875 17.9608 13.875 18.375C13.875 18.7892 14.2108 19.125 14.625 19.125Z" stroke="white" stroke-miterlimit="10"/>
<path d="M14.6254 22.7254C14.9568 22.7254 15.2254 22.4568 15.2254 22.1254C15.2254 21.794 14.9568 21.5254 14.6254 21.5254C14.294 21.5254 14.0254 21.794 14.0254 22.1254C14.0254 22.4568 14.294 22.7254 14.6254 22.7254Z" stroke="white" stroke-miterlimit="10"/>
<path d="M25.8762 14.9252C26.0419 14.9252 26.1762 14.7909 26.1762 14.6252C26.1762 14.4595 26.0419 14.3252 25.8762 14.3252C25.7105 14.3252 25.5762 14.4595 25.5762 14.6252C25.5762 14.7909 25.7105 14.9252 25.8762 14.9252Z" stroke="white" stroke-miterlimit="10"/>
<path d="M18.3762 26.1752C18.5419 26.1752 18.6762 26.0409 18.6762 25.8752C18.6762 25.7095 18.5419 25.5752 18.3762 25.5752C18.2105 25.5752 18.0762 25.7095 18.0762 25.8752C18.0762 26.0409 18.2105 26.1752 18.3762 26.1752Z" stroke="white" stroke-miterlimit="10"/>
<path d="M18.3762 22.4252C18.5419 22.4252 18.6762 22.2909 18.6762 22.1252C18.6762 21.9595 18.5419 21.8252 18.3762 21.8252C18.2105 21.8252 18.0762 21.9595 18.0762 22.1252C18.0762 22.2909 18.2105 22.4252 18.3762 22.4252Z" stroke="white" stroke-miterlimit="10"/>
<path d="M14.6262 26.1752C14.7919 26.1752 14.9262 26.0409 14.9262 25.8752C14.9262 25.7095 14.7919 25.5752 14.6262 25.5752C14.4605 25.5752 14.3262 25.7095 14.3262 25.8752C14.3262 26.0409 14.4605 26.1752 14.6262 26.1752Z" stroke="white" stroke-miterlimit="10"/>
<path d="M22.1254 15.2254C22.4568 15.2254 22.7254 14.9568 22.7254 14.6254C22.7254 14.294 22.4568 14.0254 22.1254 14.0254C21.794 14.0254 21.5254 14.294 21.5254 14.6254C21.5254 14.9568 21.794 15.2254 22.1254 15.2254Z" stroke="white" stroke-miterlimit="10"/>
<path d="M18.3754 18.9754C18.7068 18.9754 18.9754 18.7068 18.9754 18.3754C18.9754 18.044 18.7068 17.7754 18.3754 17.7754C18.044 17.7754 17.7754 18.044 17.7754 18.3754C17.7754 18.7068 18.044 18.9754 18.3754 18.9754Z" stroke="white" stroke-miterlimit="10"/>
<path d="M26.4357 19.6527C26.2751 19.6956 26.1092 19.7161 25.9429 19.7136C25.4626 19.6959 24.9958 19.5502 24.5907 19.2916C24.1856 19.033 23.8569 18.6709 23.6387 18.2427C23.6174 18.2101 23.5884 18.1834 23.5542 18.1649C23.5201 18.1464 23.4818 18.1367 23.443 18.1367C23.4041 18.1367 23.3659 18.1464 23.3317 18.1649C23.2975 18.1834 23.2685 18.2101 23.2473 18.2427C22.3219 19.7104 21.0173 19.8646 20.4511 19.653C20.4137 19.643 20.3744 19.6421 20.3365 19.6503C20.2987 19.6586 20.2633 19.6757 20.2334 19.7003C20.2035 19.7249 20.1799 19.7563 20.1645 19.7918C20.1492 19.8274 20.1425 19.8661 20.1451 19.9048V21.6076C20.1529 22.5957 20.4687 23.5567 21.0486 24.3567C21.6285 25.1568 22.4435 25.756 23.3801 26.0708C23.421 26.0831 23.4646 26.0831 23.5055 26.0708C24.4422 25.756 25.2573 25.1569 25.8372 24.3568C26.4172 23.5568 26.7331 22.5957 26.7408 21.6076V19.9048C26.7432 19.8663 26.7364 19.8277 26.721 19.7923C26.7057 19.7569 26.6822 19.7257 26.6524 19.7011C26.6227 19.6765 26.5875 19.6594 26.5499 19.6509C26.5122 19.6425 26.4731 19.6431 26.4357 19.6527Z" stroke="white" stroke-miterlimit="10"/>
</svg>
