<svg xmlns="http://www.w3.org/2000/svg" xmlns:xlink="http://www.w3.org/1999/xlink" width="128" height="128" viewBox="0 0 128 128">
  <defs>
    <polygon id="pennyless-a" points="0 117 127 117 127 0 0 0"/>
  </defs>
  <g fill="none" fill-rule="evenodd" transform="translate(1 3)">
    <g fill="#000" fill-rule="nonzero" transform="translate(4 103)">
      <path d="M9.48447482 6.77271614C8.73655623 6.77271614 8.12954984 6.16588078 8.12954984 5.41817291L8.12954984 1.35454323C8.12954984.606835366 8.73655623 0 9.48447482 0 10.2323934 0 10.8393998.606835366 10.8393998 1.35454323L10.8393998 5.41817291C10.8393998 6.16588078 10.2323934 6.77271614 9.48447482 6.77271614zM9.48447482 18.9636052C8.73655623 18.9636052 8.12954984 18.3567698 8.12954984 17.609062L8.12954984 13.5454323C8.12954984 12.7977244 8.73655623 12.1908891 9.48447482 12.1908891 10.2323934 12.1908891 10.8393998 12.7977244 10.8393998 13.5454323L10.8393998 17.609062C10.8393998 18.3567698 10.2323934 18.9636052 9.48447482 18.9636052zM5.4196999 10.8363458L1.35492497 10.8363458C.607006388 10.8363458 0 10.2295105 0 9.4818026 0 8.73409474.607006388 8.12725937 1.35492497 8.12725937L5.4196999 8.12725937C6.16761848 8.12725937 6.77462487 8.73409474 6.77462487 9.4818026 6.77462487 10.2295105 6.16761848 10.8363458 5.4196999 10.8363458zM17.6140247 10.8363458L13.5492497 10.8363458C12.8013312 10.8363458 12.1943248 10.2295105 12.1943248 9.4818026 12.1943248 8.73409474 12.8013312 8.12725937 13.5492497 8.12725937L17.6140247 8.12725937C18.3619432 8.12725937 18.9689496 8.73409474 18.9689496 9.4818026 18.9689496 10.2295105 18.3619432 10.8363458 17.6140247 10.8363458zM9.5 11C9.11 11 8.72 10.8339623 8.435 10.5622642 8.165 10.2754717 8 9.88301887 8 9.49056604 8 9.09811321 8.165 8.70566038 8.435 8.41886792 9.005 7.86037736 9.995 7.86037736 10.565 8.41886792 10.835 8.70566038 11 9.09811321 11 9.49056604 11 9.88301887 10.835 10.2754717 10.565 10.5622642 10.28 10.8339623 9.89 11 9.5 11z"/>
    </g>
    <g fill="#000" fill-rule="nonzero" transform="translate(2)">
      <path d="M28.5 5C28.11 5 27.72 4.83396226 27.435 4.56226415 27.165 4.2754717 27 3.88301887 27 3.49056604 27 3.08150943 27.165 2.69056604 27.435 2.41886792 28.005 1.86037736 29.01 1.86037736 29.565 2.41886792 29.835 2.70415094 30 3.08150943 30 3.49056604 30 3.88301887 29.835 4.2754717 29.565 4.56226415 29.28 4.83396226 28.905 5 28.5 5zM91.5 118C91.11 118 90.72 117.833962 90.435 117.562264 90.165 117.275472 90 116.898113 90 116.490566 90 116.098113 90.165 115.70566 90.435 115.418868 90.99 114.860377 91.995 114.860377 92.565 115.418868 92.835 115.70566 93 116.098113 93 116.490566 93 116.883019 92.835 117.275472 92.565 117.562264 92.28 117.833962 91.89 118 91.5 118zM117.5 38C117.11 38 116.7185 37.8339623 116.435 37.5622642 116.1635 37.2754717 116 36.8830189 116 36.490566 116 36.0981132 116.1635 35.7041509 116.435 35.4188679 117.005 34.8603774 118.01 34.8603774 118.565 35.4188679 118.835 35.7041509 119 36.0981132 119 36.490566 119 36.8830189 118.835 37.2754717 118.565 37.5622642 118.28 37.8339623 117.89 38 117.5 38zM35.5 107C35.0935 107 34.7185 106.833962 34.435 106.562264 34.1635 106.275472 34 105.883019 34 105.490566 34 105.081509 34.1635 104.704151 34.435 104.418868 34.99 103.860377 36.01 103.860377 36.565 104.418868 36.835 104.704151 37 105.081509 37 105.490566 37 105.883019 36.835 106.275472 36.565 106.562264 36.28 106.833962 35.89 107 35.5 107zM74.5 3C74.0935 3 73.7185 2.83364947 73.435 2.56143951 73.1635 2.27410678 73 1.88091462 73 1.48772245 73 1.07940752 73.1635.701338131 73.435.414005398 73.9735-.130414519 74.995-.145537294 75.565.414005398 75.835.701338131 76 1.07940752 76 1.48772245 76 1.88091462 75.835 2.27410678 75.565 2.56143951 75.28 2.83364947 74.89 3 74.5 3zM1.5 29C1.11 29 .72 28.8339623.435 28.5622642.165 28.2754717 0 27.8830189 0 27.490566 0 27.0981132.165 26.7041509.435 26.4188679.99 25.8603774 1.995 25.8603774 2.565 26.4188679 2.835 26.7041509 3 27.0981132 3 27.490566 3 27.8830189 2.835 28.2754717 2.565 28.5622642 2.28 28.8339623 1.89 29 1.5 29z"/>
    </g>
    <g fill="#000" fill-rule="nonzero" transform="translate(109 100)">
      <path d="M6.14285714 13C5.51085714 13 5 12.488 5 11.8571429 5 8.07542857 8.07542857 5 11.8571429 5 12.4891429 5 13 5.512 13 6.14285714 13 6.77371429 12.4891429 7.28571429 11.8571429 7.28571429 9.336 7.28571429 7.28571429 9.336 7.28571429 11.8571429 7.28571429 12.488 6.77485714 13 6.14285714 13zM1.14285714 8C.510857143 8 0 7.488 0 6.85714286 0 6.22628571.510857143 5.71428571 1.14285714 5.71428571 3.664 5.71428571 5.71428571 3.664 5.71428571 1.14285714 5.71428571.512 6.22514286 0 6.85714286 0 7.48914286 0 8 .512 8 1.14285714 8 4.92457143 4.92457143 8 1.14285714 8z"/>
      <path d="M6.85714286 13C6.22514286 13 5.71428571 12.488 5.71428571 11.8571429 5.71428571 9.336 3.664 7.28571429 1.14285714 7.28571429.510857143 7.28571429 0 6.77371429 0 6.14285714 0 5.512.510857143 5 1.14285714 5 4.92457143 5 8 8.07542857 8 11.8571429 8 12.488 7.48914286 13 6.85714286 13zM11.8571429 8C8.07542857 8 5 4.92457143 5 1.14285714 5 .512 5.51085714 0 6.14285714 0 6.77485714 0 7.28571429.512 7.28571429 1.14285714 7.28571429 3.664 9.336 5.71428571 11.8571429 5.71428571 12.4891429 5.71428571 13 6.22628571 13 6.85714286 13 7.488 12.4891429 8 11.8571429 8z"/>
    </g>
    <g fill="#000" fill-rule="nonzero" transform="translate(104 2)">
      <path d="M10.0887488 18.9636052C9.21859425 18.9636052 8.51238183 18.2572109 8.51238183 17.3833048 8.51238183 12.1540906 12.7543854 7.90150217 17.9705839 7.90150217 18.8423148 7.90150217 19.5469509 8.60789646 19.5469509 9.4818026 19.5469509 10.3557087 18.8423148 11.062103 17.9705839 11.062103 14.4931183 11.062103 11.6651158 13.897162 11.6651158 17.3833048 11.6651158 18.2572109 10.9589034 18.9636052 10.0887488 18.9636052zM2.20691381 11.062103C1.33675922 11.062103.630546802 10.3557087.630546802 9.4818026.630546802 8.60789646 1.33675922 7.90150217 2.20691381 7.90150217 5.68437942 7.90150217 8.51238183 5.06644319 8.51238183 1.58030043 8.51238183.706394294 9.21859425 0 10.0887488 0 10.9589034 0 11.6651158.706394294 11.6651158 1.58030043 11.6651158 6.80951457 7.42311223 11.062103 2.20691381 11.062103z"/>
      <path d="M10.0887488 18.9636052C9.21859425 18.9636052 8.51238183 18.2572109 8.51238183 17.3833048 8.51238183 13.897162 5.68437942 11.062103 2.20691381 11.062103 1.33675922 11.062103.630546802 10.3557087.630546802 9.4818026.630546802 8.60789646 1.33675922 7.90150217 2.20691381 7.90150217 7.42311223 7.90150217 11.6651158 12.1540906 11.6651158 17.3833048 11.6651158 18.2572109 10.9589034 18.9636052 10.0887488 18.9636052zM17.9705839 11.062103C12.7543854 11.062103 8.51238183 6.80951457 8.51238183 1.58030043 8.51238183.706394294 9.21859425 0 10.0887488 0 10.9589034 0 11.6651158.706394294 11.6651158 1.58030043 11.6651158 5.06644319 14.4931183 7.90150217 17.9705839 7.90150217 18.8423148 7.90150217 19.5469509 8.60789646 19.5469509 9.4818026 19.5469509 10.3557087 18.8423148 11.062103 17.9705839 11.062103z"/>
    </g>
    <g transform="translate(0 2)">
      <path fill="#FEFEFE" d="M99,82.9629206 C99,84.6333143 97.6290217,86 95.9533815,86 L15.0466185,86 C13.3709783,86 12,84.6333143 12,82.9629206 L12,16.0370794 C12,14.3666857 13.3709783,13 15.0466185,13 L95.9533815,13 C97.6290217,13 99,14.3666857 99,16.0370794 L99,82.9629206 Z"/>
      <path fill="#231F20" d="M13.5681735,82.3545344 C13.5681735,84.034278 14.9301984,85.4086137 16.5948954,85.4086137 L94.4051046,85.4086137 C96.0698016,85.4086137 97.4318265,84.034278 97.4318265,82.3545344 L97.4318265,17.6454656 C97.4318265,15.965722 96.0698016,14.5913863 94.4051046,14.5913863 L16.5948954,14.5913863 C14.9301984,14.5913863 13.5681735,15.965722 13.5681735,17.6454656 L13.5681735,82.3545344 Z M100,84.9459207 C100,86.6249008 98.6372185,88 96.9732781,88 L14.0267219,88 C12.3620248,88 11,86.6249008 11,84.9459207 L11,15.0540793 C11,13.3743357 12.3620248,12 14.0267219,12 L96.9732781,12 C98.6372185,12 100,13.3743357 100,15.0540793 L100,84.9459207 Z"/>
      <mask id="pennyless-b" fill="#fff">
        <use xlink:href="#pennyless-a"/>
      </mask>
      <polygon fill="#231F20" points="12 39 99 39 99 26 12 26" mask="url(#pennyless-b)"/>
      <polygon fill="#231F20" points="12 62 99 62 99 49 12 49" mask="url(#pennyless-b)"/>
      <polygon fill="#231F20" points="12 86 99 86 99 73 12 73" mask="url(#pennyless-b)"/>
      <path fill="#231F20" d="M71.2731274,19 C70.3196066,19 69.5462547,18.2145944 69.5462547,17.2471667 C69.5462547,9.66962903 63.4693731,3.50411741 56.0007634,3.50411741 C48.5306269,3.50411741 42.4537453,9.66962903 42.4537453,17.2471667 C42.4537453,18.2145944 41.6811568,19 40.7268726,19 C39.7733519,19 39,18.2145944 39,17.2471667 C39,7.73709743 46.6266391,0 56.0007634,0 C65.3741243,0 73,7.73709743 73,17.2471667 C73,18.2145944 72.2274115,19 71.2731274,19" mask="url(#pennyless-b)"/>
      <path fill="#FEFEFE" d="M71,76.5003813 C71,91.1357966 82.8642034,103 97.4996187,103 C112.135034,103 124,91.1357966 124,76.5003813 C124,61.864966 112.135034,50 97.4996187,50 C82.8642034,50 71,61.864966 71,76.5003813" mask="url(#pennyless-b)"/>
      <path fill="#231F20" d="M97.5,51.310746 C83.6105061,51.310746 72.3099879,62.6105061 72.3099879,76.5007581 C72.3099879,90.390252 83.6105061,101.690012 97.5,101.690012 C111.389494,101.690012 122.690012,90.390252 122.690012,76.5007581 C122.690012,62.6105061 111.389494,51.310746 97.5,51.310746 M97.5,104 C82.3361085,104 70,91.6638915 70,76.5007581 C70,61.3368666 82.3361085,49 97.5,49 C112.663133,49 125,61.3368666 125,76.5007581 C125,91.6638915 112.663133,104 97.5,104" mask="url(#pennyless-b)"/>
      <path fill="#FEFEFE" d="M78,76.5 C78,86.7174976 86.2832559,95 96.5,95 C106.717498,95 115,86.7174976 115,76.5 C115,66.2825024 106.717498,58 96.5,58 C86.2832559,58 78,66.2825024 78,76.5" mask="url(#pennyless-b)"/>
      <path fill="#231F20" d="M97,59.3377819 C87.2607762,59.3377819 79.3377819,67.2607762 79.3377819,77 C79.3377819,86.7399908 87.2607762,94.6629851 97,94.6629851 C106.739224,94.6629851 114.662218,86.7399908 114.662218,77 C114.662218,67.2607762 106.739224,59.3377819 97,59.3377819 M97,97 C85.972235,97 77,88.027765 77,77 C77,65.972235 85.972235,57 97,57 C108.027765,57 117,65.972235 117,77 C117,88.027765 108.027765,97 97,97" mask="url(#pennyless-b)"/>
      <path fill="#FEFEFE" d="M126,56 L116.67148,56 C114.068793,58.1316259 106.471079,59.6736691 97.5,59.6736691 C88.528921,59.6736691 80.9312074,58.1316259 78.3285199,56 L69,56 L69,59.6736691 L69.0076213,59.6736691 C69.0053349,59.721554 69,59.7679424 69,59.8158273 C69,64.8878849 81.7604091,69 97.5,69 C113.239591,69 126,64.8878849 126,59.8158273 C126,59.7679424 125.994665,59.721554 125.992379,59.6736691 L126,59.6736691 L126,56 Z" mask="url(#pennyless-b)"/>
      <path fill="#231F20" d="M69.3096382,58.8468318 L69.3649725,58.8468318 L69.3111542,60.1748115 C69.3096382,64.1728528 80.4757953,68.6127705 96.5,68.6127705 C112.523447,68.6127705 123.690362,64.1728528 123.690362,60.1881304 L123.68354,60.0972481 L123.626689,58.8468318 L123.690362,58.8468318 L123.690362,57.3872295 L115.960995,57.3872295 C112.81831,59.734502 105.284508,61.2348448 96.5,61.2348448 C87.7147335,61.2348448 80.1816897,59.734502 77.0382471,57.3872295 L69.3096382,57.3872295 L69.3096382,58.8468318 Z M96.5,71 C88.8092913,71 81.563531,69.9783567 76.0968061,68.123886 C69.6962203,65.951327 67.6010972,63.3306238 67.1190066,61.2348448 L67.006822,61.2348448 L67.001516,60.312702 C67,60.2711781 67,60.2296543 67,60.1881304 C67,60.1724611 67,60.1567917 67,60.1403389 L67,60.0400548 L67,55 L77.8500694,55 L78.1714631,55.2765645 C80.1665296,56.9962785 86.7528265,58.8468318 96.5,58.8468318 C106.246416,58.8468318 112.832712,56.9962785 114.827779,55.2765645 L115.149173,55 L126,55 L126,61.2348448 L125.880993,61.2348448 C125.398903,63.3306238 123.302264,65.951327 116.903194,68.123886 C111.436469,69.9783567 104.189951,71 96.5,71 L96.5,71 Z" mask="url(#pennyless-b)"/>
      <path fill="#FEFEFE" d="M69,56.5003869 C69,61.7466498 81.759647,66 97.5,66 C113.239591,66 126,61.7466498 126,56.5003869 C126,51.2533502 113.239591,47 97.5,47 C81.759647,47 69,51.2533502 69,56.5003869" mask="url(#pennyless-b)"/>
      <path fill="#231F20" d="M96.5,48.3183696 C80.4765533,48.3183696 69.3096382,52.6302174 69.3096382,56.5 C69.3096382,60.3697826 80.4765533,64.6808696 96.5,64.6808696 C112.523447,64.6808696 123.690362,60.3697826 123.690362,56.5 C123.690362,52.6302174 112.523447,48.3183696 96.5,48.3183696 M96.5,67 C88.8092913,67 81.563531,66.0078261 76.0968061,64.206087 C68.5781643,61.7286957 67,58.6479348 67,56.5 C67,54.3520652 68.5781643,51.2713043 76.0968061,48.7931522 C81.563531,46.9921739 88.8092913,46 96.5,46 C104.190709,46 111.436469,46.9921739 116.903194,48.7931522 C124.421836,51.2713043 126,54.3520652 126,56.5 C126,58.6479348 124.421836,61.7286957 116.903194,64.206087 C111.436469,66.0078261 104.190709,67 96.5,67" mask="url(#pennyless-b)"/>
      <path fill="#FEFEFE" d="M77,54.5 C77,57.5380212 85.9545799,60 97,60 C108.04542,60 117,57.5380212 117,54.5 C117,51.4627562 108.04542,49 97,49 C85.9545799,49 77,51.4627562 77,54.5" mask="url(#pennyless-b)"/>
      <path fill="#231F20" d="M97.4996153,50.3039888 C85.1051944,50.3039888 78.3443914,53.0758809 78.3443914,54.5 C78.3443914,55.924875 85.1051944,58.6967671 97.4996153,58.6967671 C109.894036,58.6967671 116.654839,55.924875 116.654839,54.5 C116.654839,53.0758809 109.894036,50.3039888 97.4996153,50.3039888 M97.4996153,61 C91.9706372,61 86.7578864,60.43005 82.8223558,59.3937086 C78.2951491,58.2031632 76,56.556053 76,54.5 C76,52.443947 78.2951491,50.7968368 82.8223558,49.6055355 C86.7578864,48.5707059 91.9698678,48 97.4996153,48 C103.029363,48 108.241344,48.5707059 112.176875,49.6055355 C116.704081,50.7968368 119,52.443947 119,54.5 C119,56.556053 116.704081,58.2031632 112.176875,59.3937086 C108.241344,60.43005 103.029363,61 97.4996153,61" mask="url(#pennyless-b)"/>
      <path fill="#231F20" d="M89.1053537 56C88.6898498 56 88.2924744 55.7635392 88.1046637 55.361192 87.8457896 54.8067823 88.0836347 54.1468747 88.6361896 53.8871315L92.4264842 52.1045807C92.9790391 51.8455651 93.6367389 52.0842087 93.8948879 52.6378908 94.1544872 53.1930281 93.9166421 53.8529357 93.3640872 54.1126788L89.5737926 55.8945021C89.4222389 55.9658041 89.2627086 56 89.1053537 56M102.106025 58C101.690541 58 101.29246 57.7642738 101.104659 57.361211 100.845797 56.8068178 101.083631 56.1469298 101.636159 55.8871944L105.426269 54.1046966C105.978797 53.8456888 106.63719 54.0835977 106.895326 54.6379909 107.154188 55.1923841 106.916354 55.852272 106.364551 56.1120074L102.574441 57.8945052C102.422895 57.9658051 102.262647 58 102.106025 58M92.2089751 59C91.7562361 59 91.3225264 58.7420784 91.1163756 58.302893 90.8309359 57.6952202 91.0886245 56.970165 91.6920122 56.6826982L101.275648 52.1175658C101.87745 51.8293005 102.598185 52.0896176 102.883624 52.696492 103.169064 53.3041648 102.911376 54.0300185 102.307988 54.3174853L92.7243522 58.8826177C92.5578457 58.9616711 92.3818246 59 92.2089751 59" mask="url(#pennyless-b)"/>
      <g mask="url(#pennyless-b)">
        <g transform="translate(0 31)">
          <path fill="#020303" d="M25.7210125,54.9531919 C25.7171583,54.5238895 25.3672,54.1762151 24.9339917,54.1830174 L12.8665958,54.2570872 C12.4333875,54.2654012 12.0842,54.6123198 12.0880542,55.0416221 L12.1127208,58.6181337 L12.1412417,62.0790058 C12.1450958,62.509064 12.4950542,62.8567384 12.9236375,62.8544709 L24.9956583,62.7751105 C25.4288667,62.7675523 25.7780542,62.4206337 25.7742,61.9905756 L25.7456792,58.5281919 L25.7210125,54.9531919 Z M35.0373042,7.5810407 L2.12195,7.80098256 L7.88315833,51.832436 L7.88547083,51.8838314 C7.889325,52.3138895 8.2431375,52.6570291 8.67172083,52.6540058 L16.5820125,52.6033663 L21.1969917,52.5746453 L29.1072833,52.5224942 C29.5404917,52.514936 29.8842833,52.1642384 29.885825,51.7387151 L29.8835125,51.6873198 L35.0373042,7.5810407 Z M35.0419292,2.18679651 C35.0118667,2.13842442 34.9810333,2.09080814 34.8029708,2.08929651 L20.8478042,2.1860407 L16.232825,2.21476163 L2.27765833,2.31150581 C2.098825,2.31075 2.06722083,2.36138953 2.03947083,2.40825 C2.0040125,2.46418023 1.913825,2.65540116 1.91767917,3.0854593 L1.987825,6.1676686 L35.14445,5.94621512 L35.1752833,2.86476163 C35.1714292,2.43470349 35.0835542,2.24272674 35.0419292,2.18679651 L35.0419292,2.18679651 Z M34.7944917,0.534587209 C35.2477417,0.533831395 36.7292833,0.691040698 36.7416167,2.85871512 L36.7046167,6.8063314 L31.4529292,51.77575 C31.4321167,53.0409826 30.3961167,54.0658663 29.1149917,54.0772035 L27.120075,54.0855174 C27.2272208,54.3500523 27.2896583,54.6402849 27.2912,54.9426105 L27.3397625,61.9754593 C27.3505542,63.2648779 26.2991375,64.32075 25.0033667,64.329064 L12.9413667,64.4076686 C11.6455958,64.4167384 10.5826167,63.37825 10.5710542,62.0895872 L10.5232625,55.0567384 C10.5217208,54.753657 10.5795333,54.4634244 10.6789708,54.1951105 L8.684825,54.2124942 C7.408325,54.2185407 6.35845,53.2080174 6.31759583,51.946564 L0.4407625,7.0504593 L0.347491667,3.0960407 C0.335929167,0.936680233 1.81130417,0.753773256 2.26455417,0.753017442 L16.2251167,0.66080814 L20.8347,0.627552326 L34.7944917,0.534587209 Z"/>
          <path fill="#FEFEFE" d="M34.8027396 2.08899419C34.9808021 2.09050581 35.0116354 2.13812209 35.0424687 2.18649419 35.0833229 2.24242442 35.1711979 2.43440116 35.1750521 2.8644593L35.1442187 5.9466686 1.98759375 6.16736628 1.91744792 3.08515698C1.91359375 2.65509884 2.00378125 2.46387791 2.04001042 2.40794767 2.06776042 2.36108721 2.09936458 2.31044767 2.27819792 2.31120349L16.2325937 2.2144593 20.8475729 2.18573837 34.8027396 2.08899419zM2.12171875 7.80113372L35.0370729 7.58119186 29.8832813 51.6867151 29.8855938 51.7388663C29.8840521 52.1636337 29.5402604 52.5150872 29.1070521 52.5226453L21.1975313 52.5740407 16.5817813 52.6027616 8.67226042 52.654157C8.24290625 52.6571802 7.88909375 52.3140407 7.88601042 51.8839826L7.88369792 51.8325872 2.12171875 7.80113372zM24.9343771 54.1833198C25.3675854 54.1757616 25.7175438 54.523436 25.7213979 54.9534942L25.7452938 58.5284942 25.3845438 58.5322733 12.4738563 58.6139012 12.1123354 58.6176802 12.0876688 55.0419244C12.0845854 54.6118663 12.4337729 54.2649477 12.8669813 54.2573895L24.9343771 54.1833198z"/>
          <path fill="#FEFEFE" d="M25.3845438,58.5321977 L25.7452938,58.5284186 L25.7745854,61.9900465 C25.7784396,62.4208605 25.4284813,62.7677791 24.9960438,62.7745814 L12.9232521,62.8546977 C12.4946687,62.8569651 12.1454812,62.5092907 12.1416271,62.0784767 L12.1123354,58.6176047 L12.4738562,58.6138256 L12.4831062,59.7762674 L25.3976479,59.688593 L25.3845438,58.5321977 Z"/>
          <polygon fill="#020303" points="12.474 58.614 25.384 58.532 25.398 59.689 12.483 59.776"/>
        </g>
      </g>
      <polygon stroke="#020303" stroke-width=".9" points="12 90.066 24.987 90 25 90.93 12.009 91" mask="url(#pennyless-b)"/>
      <path stroke="#020303" stroke-width=".9" d="M34.1282065,32.0000026 L20.7024435,32.0902414 L16.2694436,32.122522 L2.84368057,32.2120272 C2.40779362,32.2127608 0.989678405,32.3903039 1.00005667,34.4863389 L1.0904958,38.3247903 L6.74145882,81.9042723 C6.78148925,83.1287324 7.79114577,84.1096211 9.01874576,84.1037519 L10.9365001,84.086878 C10.8401305,84.3473234 10.7845327,84.6290446 10.7860153,84.9232378 L10.8327175,91.7498414 C10.8430958,93.0007129 11.8653544,94.0087466 13.1114871,93.9999428 L24.7121587,93.9236433 C25.9582913,93.9155731 26.9694305,92.8906655 26.9583109,91.6390604 L26.91235,84.8124568 C26.9108674,84.5189972 26.8508218,84.237276 26.7470392,83.9804989 L28.6655348,83.9724288 C29.8975826,83.961424 30.8938957,82.966596 30.9139109,81.7384677 L35.9644174,38.0878217 L36,34.2559732 C35.9888804,32.1518679 34.5633522,31.999269 34.1282065,32.0000026 Z" mask="url(#pennyless-b)"/>
      <path stroke="#020303" stroke-width=".9" d="M2.12173061 33.3127664C2.14926557 33.2668149 2.18062482 33.2171577 2.35807233 33.2178988L16.2050967 33.1230313 20.7835483 33.0948675 34.6305726 33C34.8080202 33.0014823 34.8378497 33.0489161 34.8684441 33.0956087 34.9089817 33.150454 34.9961757 33.3387067 35 33.7604225L34.9694056 36.7828423 2.07048499 37 2.00011788 33.976839C1.99629358 33.5551232 2.08654705 33.3676116 2.12173061 33.3127664zM25.9700177 89.5098625L25.9999793 93.1025909C26.0031331 93.5489364 25.6459594 93.9089937 25.2028433 93.9168381L12.8547261 93.9999886C12.4163407 94.0023419 12.0583786 93.6415002 12.0552247 93.1943702L12.0252631 89.6024263 12.0000323 85.8912477C11.99609 85.4449022 12.3532637 85.0848449 12.7963798 85.0770005L25.1405547 85.0001255C25.5828824 84.9922811 25.9408446 85.3531228 25.9447869 85.7994684L25.9700177 89.5098625zM29.8329547 83.0348433L29.8352732 83.0861563C29.8337275 83.5109976 29.4890518 83.8618879 29.0547294 83.8686793L21.1240955 83.9207469 16.4972483 83.9494218 8.56661437 83.9999802C8.13692888 84.0029986 7.78220651 83.660409 7.77834243 83.2317946L7.77602398 83.179727 2 39.2195894 35 39 29.8329547 83.0348433z" mask="url(#pennyless-b)"/>
      <path fill="#FEFEFE" d="M63,111 C65.3080532,112.153508 67.398749,113.199218 69,114" mask="url(#pennyless-b)"/>
      <polygon fill="#020303" points="62.983 110 69 113.178 68.017 115 62 111.822" mask="url(#pennyless-b)"/>
      <path fill="#020303" d="M49.8746545,105 L47.4377552,103.718018 C46.9137225,103.442046 46.2476416,102.857721 46.0540733,101.639765 C45.8656571,100.45934 46.1733055,98.8675334 46.9196105,97.155035 C47.6085074,95.5727953 48.6006368,94.0589967 49.6398702,93 L51,94.2989084 C49.1430695,96.1887649 47.6482515,99.6159696 47.9242518,101.34981 C48.012572,101.904698 48.2510363,102.030541 48.3290524,102.071753 L50.7659517,103.353735 L49.8746545,105 Z" mask="url(#pennyless-b)"/>
      <path fill="#FEFEFE" d="M74,104 C69.8106076,101.714988 66.2129802,99.7518428 63,98" mask="url(#pennyless-b)"/>
      <polygon fill="#020303" points="62.843 97 74 102.532 73.157 104 62 98.468" mask="url(#pennyless-b)"/>
      <path fill="#020303" d="M73.4123333 103.766329C72.5284536 103.766329 70.9667611 104.934315 69.8113147 107.098804 68.4549531 109.64011 68.5896325 111.796504 69.2777487 112.163753 69.3653271 112.210856 69.4668886 112.233671 69.5875849 112.233671 70.4714646 112.233671 72.0338931 111.065685 73.1886035 108.901932 74.5457011 106.359154 74.4110217 104.203496 73.7221696 103.836247 73.6345911 103.789144 73.5330296 103.766329 73.4123333 103.766329M69.5875849 114C69.1754512 114 68.7912836 113.906532 68.4461216 113.722539 66.5944636 112.734867 66.5113009 109.528979 68.252566 106.266421 69.6148152 103.714811 71.6887311 102 73.4123333 102 73.825203 102 74.2093705 102.094204 74.5545325 102.278197 76.4054546 103.265133 76.4886173 106.471021 74.7473523 109.732843 73.385103 112.285189 71.3119231 114 69.5875849 114M56.5 117C53.2647192 117 50 115.883309 50 113.388931L50 91.0612305 51.7707201 91.0612305 51.7707201 113.388931C51.7707201 113.955314 52.6082428 114.371681 52.9688632 114.524757 53.8711504 114.906682 55.1590806 115.125581 56.5 115.125581 57.8409194 115.125581 59.1288496 114.906682 60.0311368 114.524757 60.3917572 114.371681 61.2292799 113.955314 61.2292799 113.388931L61.2292799 91 63 91 63 113.388931C63 115.883309 59.7352808 117 56.5 117" mask="url(#pennyless-b)"/>
      <path fill="#020303" d="M51.734789,105 L50,105 L50,90.018832 C50,88.2662886 51.4948479,87.3756007 52.3868989,87 L53,88.8086497 C52.6194799,88.9691762 51.734789,89.4071172 51.734789,90.018832 L51.734789,105 Z" mask="url(#pennyless-b)"/>
      <path fill="#020303" d="M56.5,95 C52.7944407,95 50,93.3368377 50,91.1320437 C50,89.9170521 50.8699049,88.8109756 52.3859828,88.0978764 L53.1109035,89.791947 C52.2836843,90.1805088 51.7707201,90.6941758 51.7707201,91.1320437 C51.7707201,91.9518503 53.6128284,93.1440286 56.5,93.1440286 C59.3871716,93.1440286 61.2292799,91.9518503 61.2292799,91.1320437 C61.2292799,90.6654752 60.6390399,90.1105971 59.7257133,89.7176198 L60.3976449,88 C62.0513474,88.7116274 63,89.8530278 63,91.1320437 C63,93.3368377 60.2055593,95 56.5,95" mask="url(#pennyless-b)"/>
      <g mask="url(#pennyless-b)">
        <g transform="translate(52 68)">
          <path fill="#FEFEFE" d="M8.06646154,20.4293419 L8.06646154,20.7312774 C8.06646154,20.9712774 7.02030769,21.5519226 5.08953846,21.5519226 C3.15876923,21.5519226 2.11261538,20.9712774 2.11261538,20.7312774 C2.11261538,19.5467613 2.08953846,18.0680516 2.05876923,16.5119226 C1.99723077,13.0745032 1.93569231,9.18030968 2.11261538,6.85772903 C2.15876923,6.2616 2.928,5.0616 4.54338462,3.71450323 C5.95107692,2.54547097 7.28184615,1.88740645 7.89723077,1.8099871 C7.90492308,3.05643871 7.928,5.27063226 7.95876923,7.8332129 C8.00492308,11.7041806 8.05876923,16.5274065 8.06646154,20.4293419"/>
          <path fill="#020303" d="M5.08946154,21.5520774 C7.02023077,21.5520774 8.06638462,20.9714323 8.06638462,20.7306581 L8.06638462,20.4294968 C8.05869231,16.5275613 8.00484615,11.7043355 7.95869231,7.83336774 C7.92792308,5.2707871 7.90484615,3.05581935 7.89715385,1.81014194 C7.28176923,1.88756129 5.951,2.54562581 4.54330769,3.71465806 C2.92792308,5.06175484 2.15869231,6.26175484 2.11253846,6.85788387 C1.93561538,9.18046452 1.99715385,13.0746581 2.05869231,16.5120774 C2.08946154,18.0682065 2.11253846,19.5469161 2.11253846,20.7306581 C2.11253846,20.9714323 3.15869231,21.5520774 5.08946154,21.5520774 M9.73561538,20.4294968 L9.73561538,20.7306581 C9.73561538,22.2643355 7.91253846,23.2467871 5.08946154,23.2467871 C2.26638462,23.2467871 0.443307692,22.2643355 0.443307692,20.7306581 C0.443307692,19.5624 0.420230769,18.0914323 0.389461538,16.5430452 C0.327923077,13.0669161 0.258692308,9.12627097 0.443307692,6.72627097 C0.581769231,4.99130323 2.62023077,3.12627097 3.48946154,2.40627097 C4.82792308,1.29143226 6.72023077,0.106916129 8.01253846,0.106916129 C8.94330769,0.106916129 9.56638462,0.73323871 9.56638462,1.67852903 C9.56638462,2.87852903 9.59715385,5.1624 9.62792308,7.81014194 C9.67407692,11.6888516 9.72792308,16.5198194 9.73561538,20.4294968"/>
        </g>
      </g>
    </g>
  </g>
</svg>
