<svg width="36" height="36" viewBox="0 0 36 36" fill="none" xmlns="http://www.w3.org/2000/svg">
<path d="M18 36C27.9411 36 36 27.9411 36 18C36 8.05887 27.9411 0 18 0C8.05887 0 0 8.05887 0 18C0 27.9411 8.05887 36 18 36Z" fill="#F2BC86"/>
<path d="M19.125 9.37598H16.875C15.2181 9.37598 13.875 10.7191 13.875 12.376V20.626C13.875 22.2828 15.2181 23.626 16.875 23.626H19.125C20.7819 23.626 22.125 22.2828 22.125 20.626V12.376C22.125 10.7191 20.7819 9.37598 19.125 9.37598Z" stroke="white" stroke-linecap="round" stroke-linejoin="round"/>
<path d="M16.1319 24.7512C15.2397 24.6752 14.4021 24.2898 13.7639 23.6618C13.1257 23.0337 12.727 22.2024 12.6367 21.3115" stroke="white" stroke-linecap="round" stroke-linejoin="round"/>
<path d="M10.875 26.626V16.126C10.875 14.3138 12.1604 12.0518 13.8692 11.7021" stroke="white" stroke-linecap="round" stroke-linejoin="round"/>
<path d="M22.125 11.7012C23.8366 12.0487 25.1249 14.3119 25.1249 16.1262V26.6262" stroke="white" stroke-linecap="round" stroke-linejoin="round"/>
<path d="M13.875 13.126C13.875 13.126 18.375 10.876 22.125 13.126" stroke="white" stroke-linecap="round" stroke-linejoin="round"/>
<path d="M14.8262 22.8143C15.7057 22.1463 16.7752 21.7758 17.8795 21.7566C18.9838 21.7374 20.0655 22.0705 20.9678 22.7075" stroke="white" stroke-linecap="round" stroke-linejoin="round"/>
</svg>
