<svg width="48" height="48" viewBox="0 0 48 48" fill="none" xmlns="http://www.w3.org/2000/svg">
<path d="M24 48C37.2548 48 48 37.2548 48 24C48 10.7452 37.2548 0 24 0C10.7452 0 0 10.7452 0 24C0 37.2548 10.7452 48 24 48Z" fill="#DFAFAA"/>
<path d="M34.0031 16.2861L13.9968 16.2992" stroke="white" stroke-linecap="round" stroke-linejoin="round"/>
<path d="M14 21.1573C14.7116 21.2792 15.3473 21.6149 15.7912 22.1034C16.0513 22.4136 16.3963 22.6649 16.7965 22.8356C17.1966 23.0064 17.6399 23.0914 18.088 23.0835C18.5361 23.0755 18.9756 22.9748 19.3685 22.79C19.7615 22.6052 20.096 22.3418 20.3434 22.0227C20.5907 21.7035 20.9253 21.4402 21.3183 21.2554C21.7112 21.0706 22.1507 20.9698 22.5988 20.9619C23.0469 20.9539 23.4901 21.039 23.8903 21.2097C24.2904 21.3805 24.6354 21.6318 24.8956 21.9419C25.1557 22.252 25.5008 22.5034 25.9009 22.6742C26.3011 22.8449 26.7443 22.93 27.1924 22.922C27.6405 22.9141 28.08 22.8134 28.473 22.6286C28.8659 22.4437 29.2005 22.1804 29.4478 21.8613C29.6952 21.5421 30.0298 21.2788 30.4227 21.0939C30.8156 20.9091 31.2551 20.8084 31.7032 20.8004C32.1513 20.7925 32.5946 20.8776 32.9947 21.0483C33.3949 21.219 33.7399 21.4703 34 21.7805" stroke="white" stroke-linecap="round" stroke-linejoin="round"/>
<path d="M33.9998 27.2032L14.0001 27.084" stroke="white" stroke-linecap="round" stroke-linejoin="round" stroke-dasharray="0.5 2"/>
<path d="M14 31.6615C16.2189 31.0505 18.6028 31.0505 20.8217 31.6615C21.9116 32.0505 23.0838 32.2381 24.2628 32.2123C25.4417 32.1865 26.6014 31.9478 27.667 31.5115C30.0217 30.7007 34 31.8365 34 31.8365" stroke="white" stroke-linecap="round" stroke-linejoin="round"/>
</svg>
