<svg width="36" height="36" viewBox="0 0 36 36" fill="none" xmlns="http://www.w3.org/2000/svg">
<path d="M18 36C27.9411 36 36 27.9411 36 18C36 8.05887 27.9411 0 18 0C8.05887 0 0 8.05887 0 18C0 27.9411 8.05887 36 18 36Z" fill="#C67F92"/>
<path d="M25.6189 25.7001C25.6179 26.1436 25.4411 26.5686 25.1271 26.8819C24.8132 27.1952 24.3877 27.3712 23.9442 27.3712C23.5007 27.3712 23.0752 27.1952 22.7613 26.8819C22.4473 26.5686 22.2705 26.1436 22.2695 25.7001C22.2695 24.7752 23.9442 22.708 23.9442 22.708C23.9442 22.708 25.6189 24.7752 25.6189 25.7001Z" stroke="white" stroke-miterlimit="10"/>
<path d="M24.0706 20.9428C24.0706 17.1268 21.3581 13.5566 17.9911 13.5566C14.624 13.5566 11.8945 16.6501 11.8945 20.4661C11.8945 24.282 14.6241 27.3755 17.9911 27.3755C19.0227 27.3735 20.0331 27.0824 20.9075 26.5351" stroke="white" stroke-linecap="round" stroke-linejoin="round"/>
<path d="M11.953 21.405C11.953 21.405 6.51627 12.0449 17.4048 9.49219" stroke="white" stroke-linecap="round" stroke-linejoin="round"/>
<path d="M24.0721 20.9424C24.0721 20.9424 28.1535 12.7433 19.2119 8.67893C19.2119 8.67893 18.1992 8.16586 16.7733 10.3047C15.1475 12.7433 18.7684 13.6144 18.7684 13.6144" stroke="white" stroke-linecap="round" stroke-linejoin="round"/>
<path d="M16.1431 19.3252C16.0136 19.4899 15.8483 19.6231 15.6598 19.7146C15.4713 19.8062 15.2645 19.8538 15.055 19.8538C14.8454 19.8538 14.6386 19.8062 14.4501 19.7146C14.2616 19.6231 14.0963 19.4899 13.9668 19.3252" stroke="white" stroke-linecap="round" stroke-linejoin="round"/>
<path d="M19.8203 19.3252C19.9499 19.4899 20.1151 19.6231 20.3036 19.7146C20.4921 19.8062 20.6989 19.8538 20.9085 19.8538C21.118 19.8538 21.3249 19.8062 21.5133 19.7146C21.7018 19.6231 21.8671 19.4899 21.9966 19.3252" stroke="white" stroke-linecap="round" stroke-linejoin="round"/>
<path d="M17.3359 24.6934C17.5295 24.8248 17.758 24.895 17.992 24.895C18.2259 24.895 18.4545 24.8248 18.648 24.6934" stroke="white" stroke-linecap="round" stroke-linejoin="round"/>
<path d="M14.8438 21.6104L15.7704 23.7283" stroke="white" stroke-linecap="round" stroke-linejoin="round" stroke-dasharray="0.5 1.5"/>
<path d="M13.8281 22.2412L14.7547 24.3592" stroke="white" stroke-linecap="round" stroke-linejoin="round" stroke-dasharray="0.5 1.5"/>
<path d="M21.1297 21.6104L20.2031 23.7283" stroke="white" stroke-linecap="round" stroke-linejoin="round" stroke-dasharray="0.5 1.5"/>
<path d="M22.1454 22.2412L21.2188 24.3592" stroke="white" stroke-linecap="round" stroke-linejoin="round" stroke-dasharray="0.5 1.5"/>
<path d="M17.625 22.2842C17.7251 22.3824 17.8598 22.4373 18 22.4373C18.1402 22.4373 18.2749 22.3824 18.375 22.2842" stroke="white" stroke-linecap="round" stroke-linejoin="round"/>
</svg>
