<svg width="36" height="36" viewBox="0 0 36 36" fill="none" xmlns="http://www.w3.org/2000/svg">
<path d="M18 36C27.9411 36 36 27.9411 36 18C36 8.05887 27.9411 0 18 0C8.05887 0 0 8.05887 0 18C0 27.9411 8.05887 36 18 36Z" fill="#EFA29E"/>
<path d="M26.625 19.7734H9.375" stroke="white" stroke-linecap="round" stroke-linejoin="round"/>
<path d="M9.375 22.125H10.875" stroke="white" stroke-linecap="round" stroke-linejoin="round"/>
<path d="M11.625 24.375H12.375" stroke="white" stroke-linecap="round" stroke-linejoin="round"/>
<path d="M14.625 24.375H15.375" stroke="white" stroke-linecap="round" stroke-linejoin="round"/>
<path d="M20.625 24.375H21.375" stroke="white" stroke-linecap="round" stroke-linejoin="round"/>
<path d="M17.625 24.375H18.375" stroke="white" stroke-linecap="round" stroke-linejoin="round"/>
<path d="M23.625 24.375H24.375" stroke="white" stroke-linecap="round" stroke-linejoin="round"/>
<path d="M13.125 22.125H14.625" stroke="white" stroke-linecap="round" stroke-linejoin="round"/>
<path d="M16.875 22.125H18.375" stroke="white" stroke-linecap="round" stroke-linejoin="round"/>
<path d="M20.625 22.125H22.125" stroke="white" stroke-linecap="round" stroke-linejoin="round"/>
<path d="M24.375 22.125H25.875" stroke="white" stroke-linecap="round" stroke-linejoin="round"/>
<path d="M9.43359 16.8945C9.43359 16.8945 12.5121 15.0994 15.3242 16.8945C17.4841 18.2733 19.1079 18.0679 21.2352 16.6426C23.2685 15.2804 26.7038 17.1885 26.7038 17.1885" stroke="white" stroke-linecap="round" stroke-linejoin="round"/>
</svg>
