<svg width="36" height="36" viewBox="0 0 36 36" fill="none" xmlns="http://www.w3.org/2000/svg">
<path d="M18 36C27.9411 36 36 27.9411 36 18C36 8.05887 27.9411 0 18 0C8.05887 0 0 8.05887 0 18C0 27.9411 8.05887 36 18 36Z" fill="#DFAFAA"/>
<path d="M26.5917 18.2314C25.9825 18.0957 25.4423 17.7458 25.0695 17.2453V17.2453C24.8515 16.9279 24.5594 16.6683 24.2187 16.489C23.8779 16.3096 23.4986 16.2159 23.1136 16.2159C22.7285 16.2159 22.3492 16.3096 22.0084 16.489C21.6677 16.6683 21.3757 16.9279 21.1576 17.2453V17.2453C20.9396 17.5627 20.6476 17.8222 20.3068 18.0016C19.966 18.1809 19.5867 18.2746 19.2017 18.2746C18.8166 18.2746 18.4373 18.1809 18.0965 18.0016C17.7558 17.8222 17.4638 17.5627 17.2457 17.2453L17.2456 17.2452C17.0276 16.9278 16.7356 16.6682 16.3948 16.4889C16.0541 16.3095 15.6748 16.2158 15.2897 16.2158C14.9046 16.2158 14.5253 16.3095 14.1846 16.4889C13.8438 16.6682 13.5518 16.9278 13.3338 17.2452V17.2452C13.1157 17.5626 12.8237 17.8221 12.4829 18.0015C12.1422 18.1808 11.7629 18.2745 11.3778 18.2745C10.9927 18.2745 10.6135 18.1808 10.2727 18.0015C9.93192 17.8221 9.63991 17.5626 9.42188 17.2452V17.2452" stroke="white" stroke-linecap="round" stroke-linejoin="round"/>
<path d="M26.5917 21.2314C25.9825 21.0957 25.4423 20.7458 25.0695 20.2453V20.2453C24.8515 19.9279 24.5594 19.6683 24.2187 19.489C23.8779 19.3096 23.4986 19.2159 23.1136 19.2159C22.7285 19.2159 22.3492 19.3096 22.0084 19.489C21.6677 19.6683 21.3757 19.9279 21.1576 20.2453V20.2453C20.9396 20.5627 20.6476 20.8222 20.3068 21.0016C19.966 21.1809 19.5867 21.2746 19.2017 21.2746C18.8166 21.2746 18.4373 21.1809 18.0965 21.0016C17.7558 20.8222 17.4638 20.5627 17.2457 20.2453L17.2456 20.2452C17.0276 19.9278 16.7356 19.6682 16.3948 19.4889C16.0541 19.3095 15.6748 19.2158 15.2897 19.2158C14.9046 19.2158 14.5253 19.3095 14.1846 19.4889C13.8438 19.6682 13.5518 19.9278 13.3338 20.2452V20.2452C13.1157 20.5626 12.8237 20.8221 12.4829 21.0015C12.1422 21.1808 11.7629 21.2745 11.3778 21.2745C10.9927 21.2745 10.6135 21.1808 10.2727 21.0015C9.93192 20.8221 9.63991 20.5626 9.42188 20.2452V20.2452" stroke="white" stroke-linecap="round" stroke-linejoin="round"/>
</svg>
