<svg width="48" height="48" viewBox="0 0 48 48" fill="none" xmlns="http://www.w3.org/2000/svg">
<path d="M24 48C37.2548 48 48 37.2548 48 24C48 10.7452 37.2548 0 24 0C10.7452 0 0 10.7452 0 24C0 37.2548 10.7452 48 24 48Z" fill="#C49A6C"/>
<path d="M31 32.728C31.9543 32.728 32.728 31.9544 32.728 31C32.728 30.0457 31.9543 29.272 31 29.272C30.0457 29.272 29.272 30.0457 29.272 31C29.272 31.9544 30.0457 32.728 31 32.728Z" fill="white"/>
<path d="M23 19.44C23.7953 19.44 24.44 18.7953 24.44 18C24.44 17.2047 23.7953 16.56 23 16.56C22.2047 16.56 21.56 17.2047 21.56 18C21.56 18.7953 22.2047 19.44 23 19.44Z" fill="white"/>
<path d="M24.5 27.9C25.8255 27.9 26.9 26.8255 26.9 25.5C26.9 24.1745 25.8255 23.1 24.5 23.1C23.1745 23.1 22.1 24.1745 22.1 25.5C22.1 26.8255 23.1745 27.9 24.5 27.9Z" fill="white"/>
<path d="M16.5 30.5C17.6046 30.5 18.5 29.6046 18.5 28.5C18.5 27.3954 17.6046 26.5 16.5 26.5C15.3954 26.5 14.5 27.3954 14.5 28.5C14.5 29.6046 15.3954 30.5 16.5 30.5Z" fill="white"/>
<path d="M30 18.296C30.7158 18.296 31.296 17.7158 31.296 17C31.296 16.2842 30.7158 15.704 30 15.704C29.2842 15.704 28.704 16.2842 28.704 17C28.704 17.7158 29.2842 18.296 30 18.296Z" fill="white"/>
<path d="M22 33.72C22.3976 33.72 22.72 33.3976 22.72 33C22.72 32.6024 22.3976 32.28 22 32.28C21.6024 32.28 21.28 32.6024 21.28 33C21.28 33.3976 21.6024 33.72 22 33.72Z" fill="white"/>
<path d="M16 21.72C16.3976 21.72 16.72 21.3976 16.72 21C16.72 20.6024 16.3976 20.28 16 20.28C15.6024 20.28 15.28 20.6024 15.28 21C15.28 21.3976 15.6024 21.72 16 21.72Z" fill="white"/>
<path d="M31.1939 24.7085C31.5915 24.7085 31.9139 24.3861 31.9139 23.9885C31.9139 23.5908 31.5915 23.2685 31.1939 23.2685C30.7962 23.2685 30.4739 23.5908 30.4739 23.9885C30.4739 24.3861 30.7962 24.7085 31.1939 24.7085Z" fill="white"/>
</svg>
