<svg width="36" height="36" viewBox="0 0 36 36" fill="none" xmlns="http://www.w3.org/2000/svg">
<path d="M18 36C27.9411 36 36 27.9411 36 18C36 8.05887 27.9411 0 18 0C8.05887 0 0 8.05887 0 18C0 27.9411 8.05887 36 18 36Z" fill="#EC7486"/>
<path d="M9.375 20.625H10.875" stroke="white" stroke-linecap="round" stroke-linejoin="round"/>
<path d="M11.625 22.875H12.375" stroke="white" stroke-linecap="round" stroke-linejoin="round"/>
<path d="M15.375 22.875H16.125" stroke="white" stroke-linecap="round" stroke-linejoin="round"/>
<path d="M19.125 22.875H19.875" stroke="white" stroke-linecap="round" stroke-linejoin="round"/>
<path d="M22.875 22.875H23.625" stroke="white" stroke-linecap="round" stroke-linejoin="round"/>
<path d="M13.125 20.625H14.625" stroke="white" stroke-linecap="round" stroke-linejoin="round"/>
<path d="M16.875 20.625H18.375" stroke="white" stroke-linecap="round" stroke-linejoin="round"/>
<path d="M20.625 20.625H22.125" stroke="white" stroke-linecap="round" stroke-linejoin="round"/>
<path d="M24.375 20.625H25.875" stroke="white" stroke-linecap="round" stroke-linejoin="round"/>
<path d="M26.625 16.875H22.5C22.1433 16.875 21.7902 16.8047 21.4606 16.6683C21.1311 16.5318 20.8317 16.3317 20.5795 16.0795L19.9205 15.4205C19.6683 15.1683 19.3689 14.9682 19.0394 14.8317C18.7098 14.6953 18.3567 14.625 18 14.625V14.625C17.6433 14.625 17.2902 14.6953 16.9606 14.8317C16.6311 14.9682 16.3317 15.1683 16.0795 15.4205L15.4205 16.0795C15.1683 16.3317 14.8689 16.5318 14.5394 16.6683C14.2098 16.8047 13.8567 16.875 13.5 16.875H9.375" stroke="white" stroke-linecap="round" stroke-linejoin="round"/>
</svg>
