<svg width="36" height="36" viewBox="0 0 36 36" fill="none" xmlns="http://www.w3.org/2000/svg">
<path d="M18 36C27.9411 36 36 27.9411 36 18C36 8.05887 27.9411 0 18 0C8.05887 0 0 8.05887 0 18C0 27.9411 8.05887 36 18 36Z" fill="#C6B9BD"/>
<path d="M20.0067 24.7761C19.5287 25.3467 18.9331 25.8074 18.2606 26.1266C17.5881 26.4457 16.8545 26.6158 16.1102 26.6253C13.0668 26.6253 10.5996 23.7986 10.5996 20.3117C10.5996 16.8248 13.0668 13.998 16.1102 13.998C17.3264 14.0521 18.4924 14.4988 19.4334 15.2712C20.3744 16.0436 21.0398 17.1001 21.3299 18.2824" stroke="white" stroke-linecap="round" stroke-linejoin="round"/>
<path d="M10.6502 21.1697C10.6502 21.1697 5.73694 12.6168 15.5788 10.2842" stroke="white" stroke-linecap="round" stroke-linejoin="round"/>
<path d="M22.4366 17.2532C22.5494 14.7959 21.6761 11.5925 17.2126 9.54147C17.2126 9.54147 16.2972 9.07264 15.0083 11.027C13.5388 13.2554 16.8116 14.0513 16.8116 14.0513" stroke="white" stroke-linecap="round" stroke-linejoin="round"/>
<path d="M14.4398 19.2695C14.3236 19.4198 14.1746 19.5414 14.0041 19.6251C13.8336 19.7088 13.6462 19.7523 13.4562 19.7523C13.2663 19.7523 13.0789 19.7088 12.9084 19.6251C12.7379 19.5414 12.5888 19.4198 12.4727 19.2695" stroke="white" stroke-linecap="round" stroke-linejoin="round"/>
<path d="M17.7617 19.2695C17.8779 19.4198 18.027 19.5414 18.1975 19.6251C18.368 19.7088 18.5554 19.7523 18.7453 19.7523C18.9352 19.7523 19.1226 19.7088 19.2931 19.6251C19.4636 19.5414 19.6127 19.4198 19.7289 19.2695" stroke="white" stroke-linecap="round" stroke-linejoin="round"/>
<path d="M15.3184 24.1436C15.551 24.3035 15.8267 24.3892 16.109 24.3892C16.3913 24.3892 16.667 24.3035 16.8996 24.1436" stroke="white" stroke-linecap="round" stroke-linejoin="round"/>
<path d="M15.7559 21.9736C15.8459 22.0632 15.9678 22.1135 16.0948 22.1135C16.2219 22.1135 16.3437 22.0632 16.4338 21.9736" stroke="white" stroke-linecap="round" stroke-linejoin="round"/>
<path d="M25.2668 21.1207C23.9768 24.2603 22.0145 24.336 21.8226 24.353L21.0787 26.6259H20.8201C20.8621 25.8253 20.9767 25.0302 21.1626 24.2504C21.1626 24.2504 19.5707 23.0968 21.1626 20.6251L21.649 21.3764C21.6181 20.8147 21.6261 20.2515 21.673 19.6909C21.754 19.2857 22.7406 18.3559 23.9834 17.6468C25.2263 16.9377 25.5302 16.4109 25.6112 16.1476C25.6923 15.8842 27.536 18.1939 25.6923 20.2199C25.218 20.5177 24.7159 20.7687 24.193 20.9695L25.2668 21.1207Z" stroke="white" stroke-linecap="round" stroke-linejoin="round"/>
<path d="M25.1498 18.3984C25.1498 18.3984 25.1918 18.6997 23.9832 19.9153C23.0859 20.7487 22.4127 21.7943 22.0254 22.956" stroke="white" stroke-linecap="round" stroke-linejoin="round"/>
</svg>
