<svg width="36" height="36" viewBox="0 0 36 36" fill="none" xmlns="http://www.w3.org/2000/svg">
<path d="M18 36C27.9411 36 36 27.9411 36 18C36 8.05887 27.9411 0 18 0C8.05887 0 0 8.05887 0 18C0 27.9411 8.05887 36 18 36Z" fill="#C2986F"/>
<path d="M16.5567 13.7009C17.2778 13.4326 18.0341 13.2705 18.8018 13.2197C21.5306 13.2324 23.6132 15.2817 24.1401 15.9003C24.6671 16.5189 24.9878 16.5189 24.9878 16.5189C24.9878 16.5189 18.8935 12.5095 12.8221 16.5418C12.8221 16.5418 11.3099 16.3815 10.9434 15.7858" stroke="white" stroke-linecap="round" stroke-linejoin="round"/>
<path d="M12.8223 16.5424C12.8223 16.5424 18.046 23.9885 24.3465 16.9319C24.409 16.8138 24.5008 16.7139 24.6132 16.6416C24.7256 16.5694 24.8547 16.5273 24.988 16.5195" stroke="white" stroke-linecap="round" stroke-linejoin="round"/>
<path d="M21.4423 15.1641C21.7096 15.6551 21.8454 16.2069 21.8365 16.7659C21.8276 17.3249 21.6742 17.8721 21.3914 18.3543C21.1085 18.8365 20.7057 19.2374 20.2221 19.518C19.7386 19.7986 19.1907 19.9493 18.6317 19.9556C18.0726 19.9619 17.5215 19.8235 17.0317 19.5538C16.542 19.2842 16.1303 18.8925 15.8367 18.4167C15.543 17.941 15.3774 17.3974 15.3559 16.8387C15.3344 16.2801 15.4578 15.7254 15.714 15.2285" stroke="white" stroke-linecap="round" stroke-linejoin="round"/>
<path d="M11.8359 14.7324C12.2763 15.3801 12.9465 15.8361 13.7106 16.008" stroke="white" stroke-linecap="round" stroke-linejoin="round"/>
<path d="M12.8223 13.9307C12.8223 13.9307 13.7118 15.4657 14.6239 15.5686" stroke="white" stroke-linecap="round" stroke-linejoin="round"/>
<path d="M14.0586 13.335C14.0586 13.335 14.4789 15.0063 15.5174 15.236" stroke="white" stroke-linecap="round" stroke-linejoin="round"/>
<path d="M15.1367 12.8076C15.1367 12.8076 15.412 14.665 16.5574 14.9621" stroke="white" stroke-linecap="round" stroke-linejoin="round"/>
<path d="M20.5138 16.6631C20.5138 17.1718 20.3117 17.6597 19.952 18.0194C19.5923 18.3791 19.1044 18.5812 18.5957 18.5812" stroke="white" stroke-linecap="round" stroke-linejoin="round"/>
<path d="M25.1244 20.6251C19.1244 25.1251 13.6995 22.2706 11.918 20.3633" stroke="white" stroke-linecap="round" stroke-linejoin="round"/>
</svg>
