<svg width="36" height="36" viewBox="0 0 36 36" fill="none" xmlns="http://www.w3.org/2000/svg">
<path d="M18 36C27.9411 36 36 27.9411 36 18C36 8.05887 27.9411 0 18 0C8.05887 0 0 8.05887 0 18C0 27.9411 8.05887 36 18 36Z" fill="#C49A6C"/>
<path d="M16.5567 12.2009C17.2778 11.9326 18.0341 11.7705 18.8018 11.7197C21.5306 11.7324 23.6132 13.7817 24.1401 14.4003C24.6671 15.0189 24.9878 15.0189 24.9878 15.0189C24.9878 15.0189 18.8935 11.0095 12.8221 15.0418C12.8221 15.0418 11.3099 14.8815 10.9434 14.2858" stroke="white" stroke-linecap="round" stroke-linejoin="round"/>
<path d="M12.8223 15.0424C12.8223 15.0424 18.046 22.4885 24.3465 15.4319C24.409 15.3138 24.5008 15.2139 24.6132 15.1416C24.7256 15.0694 24.8547 15.0273 24.988 15.0195" stroke="white" stroke-linecap="round" stroke-linejoin="round"/>
<path d="M21.4423 13.6641C21.7096 14.1551 21.8454 14.7069 21.8365 15.2659C21.8276 15.8249 21.6742 16.3721 21.3914 16.8543C21.1085 17.3365 20.7057 17.7374 20.2221 18.018C19.7386 18.2986 19.1907 18.4493 18.6317 18.4556C18.0726 18.4619 17.5215 18.3235 17.0317 18.0538C16.542 17.7842 16.1303 17.3925 15.8367 16.9167C15.543 16.441 15.3774 15.8974 15.3559 15.3387C15.3344 14.7801 15.4578 14.2254 15.714 13.7285" stroke="white" stroke-linecap="round" stroke-linejoin="round"/>
<path d="M11.8359 13.2324C12.2763 13.8801 12.9465 14.3361 13.7106 14.508" stroke="white" stroke-linecap="round" stroke-linejoin="round"/>
<path d="M12.8223 12.4307C12.8223 12.4307 13.7118 13.9657 14.6239 14.0686" stroke="white" stroke-linecap="round" stroke-linejoin="round"/>
<path d="M14.0586 11.835C14.0586 11.835 14.4789 13.5063 15.5174 13.736" stroke="white" stroke-linecap="round" stroke-linejoin="round"/>
<path d="M15.1367 11.3076C15.1367 11.3076 15.412 13.165 16.5574 13.4621" stroke="white" stroke-linecap="round" stroke-linejoin="round"/>
<path d="M20.5138 15.1631C20.5138 15.6718 20.3117 16.1597 19.952 16.5194C19.5923 16.8791 19.1044 17.0812 18.5957 17.0812" stroke="white" stroke-linecap="round" stroke-linejoin="round"/>
<path d="M13.3125 19.8716C13.3125 19.8716 16.011 22.0858 21.92 20.5705C26.4028 19.4209 26.3254 23.8652 22.4525 24.7738C19.0314 25.5764 13.6998 24.5209 11.9182 22.6135C10.1367 20.7061 10.9113 18.4411 13.3125 19.8716Z" stroke="white" stroke-linecap="round" stroke-linejoin="round"/>
</svg>
