<svg width="36" height="36" viewBox="0 0 36 36" fill="none" xmlns="http://www.w3.org/2000/svg">
<path d="M18 36C27.9411 36 36 27.9411 36 18C36 8.05887 27.9411 0 18 0C8.05887 0 0 8.05887 0 18C0 27.9411 8.05887 36 18 36Z" fill="#EFA29E"/>
<path d="M18.0165 27.3755C21.3835 27.3755 24.113 24.282 24.113 20.4661C24.113 16.6501 21.3835 13.5566 18.0165 13.5566C14.6494 13.5566 11.9199 16.6501 11.9199 20.4661C11.9199 24.282 14.6494 27.3755 18.0165 27.3755Z" stroke="white" stroke-linecap="round" stroke-linejoin="round"/>
<path d="M11.976 21.405C11.976 21.405 6.5402 12.0449 17.4286 9.49219" stroke="white" stroke-linecap="round" stroke-linejoin="round"/>
<path d="M24.0955 20.9424C24.0955 20.9424 28.1769 12.7433 19.2353 8.67893C19.2353 8.67893 18.2226 8.16586 16.7967 10.3047C15.171 12.7433 18.7918 13.6144 18.7918 13.6144" stroke="white" stroke-linecap="round" stroke-linejoin="round"/>
<path d="M16.1666 19.3252C16.037 19.4899 15.8718 19.6231 15.6833 19.7146C15.4948 19.8062 15.288 19.8538 15.0784 19.8538C14.8689 19.8538 14.662 19.8062 14.4735 19.7146C14.285 19.6231 14.1198 19.4899 13.9902 19.3252" stroke="white" stroke-linecap="round" stroke-linejoin="round"/>
<path d="M19.8438 19.3252C19.9733 19.4899 20.1386 19.6231 20.327 19.7146C20.5155 19.8062 20.7224 19.8538 20.9319 19.8538C21.1415 19.8538 21.3483 19.8062 21.5368 19.7146C21.7253 19.6231 21.8905 19.4899 22.0201 19.3252" stroke="white" stroke-linecap="round" stroke-linejoin="round"/>
<path d="M17.1406 24.6592C17.3987 24.8344 17.7034 24.9281 18.0153 24.9281C18.3273 24.9281 18.632 24.8344 18.8901 24.6592" stroke="white" stroke-linecap="round" stroke-linejoin="round"/>
<path d="M17.625 22.2842C17.7251 22.3824 17.8598 22.4373 18 22.4373C18.1402 22.4373 18.2749 22.3824 18.375 22.2842" stroke="white" stroke-linecap="round" stroke-linejoin="round"/>
</svg>
