<svg width="36" height="36" viewBox="0 0 36 36" fill="none" xmlns="http://www.w3.org/2000/svg">
<path d="M18 36C27.9411 36 36 27.9411 36 18C36 8.05887 27.9411 0 18 0C8.05887 0 0 8.05887 0 18C0 27.9411 8.05887 36 18 36Z" fill="#A66F60"/>
<path d="M9.375 20.625H10.875" stroke="white" stroke-linecap="round" stroke-linejoin="round"/>
<path d="M11.625 22.875H12.375" stroke="white" stroke-linecap="round" stroke-linejoin="round"/>
<path d="M15.375 22.875H16.125" stroke="white" stroke-linecap="round" stroke-linejoin="round"/>
<path d="M19.125 22.875H19.875" stroke="white" stroke-linecap="round" stroke-linejoin="round"/>
<path d="M22.875 22.875H23.625" stroke="white" stroke-linecap="round" stroke-linejoin="round"/>
<path d="M13.125 20.625H13.875" stroke="white" stroke-linecap="round" stroke-linejoin="round"/>
<path d="M16.875 20.625H17.625" stroke="white" stroke-linecap="round" stroke-linejoin="round"/>
<path d="M19.875 20.625H20.625" stroke="white" stroke-linecap="round" stroke-linejoin="round"/>
<path d="M22.875 20.625H23.625" stroke="white" stroke-linecap="round" stroke-linejoin="round"/>
<path d="M25.875 20.625H26.625" stroke="white" stroke-linecap="round" stroke-linejoin="round"/>
<path d="M9.375 15.375H13.5C14.0287 15.375 14.5411 15.5582 14.95 15.8934C15.3589 16.2286 15.639 16.6951 15.7427 17.2136L15.7573 17.2864C15.861 17.8049 16.1411 18.2714 16.55 18.6066C16.9589 18.9418 17.4713 19.125 18 19.125V19.125C18.5287 19.125 19.0411 18.9418 19.45 18.6066C19.8589 18.2714 20.139 17.8049 20.2427 17.2864L20.2573 17.2136C20.361 16.6951 20.6411 16.2286 21.05 15.8934C21.4589 15.5582 21.9713 15.375 22.5 15.375H26.625" stroke="white" stroke-linecap="round" stroke-linejoin="round"/>
<path d="M9.375 17.625C9.64275 17.689 9.87971 17.8445 10.0449 18.0647V18.0647C10.1378 18.2045 10.2634 18.3195 10.4108 18.3998C10.5581 18.4802 10.7228 18.5235 10.8906 18.5261C11.0584 18.5286 11.2243 18.4902 11.374 18.4143C11.5237 18.3384 11.6526 18.2272 11.7498 18.0904C11.8469 17.9535 11.9759 17.8423 12.1256 17.7664C12.2752 17.6905 12.4411 17.6522 12.609 17.6547C12.7768 17.6572 12.9414 17.7005 13.0888 17.7809C13.2361 17.8612 13.3617 17.9763 13.4547 18.116V18.116C13.5476 18.2558 13.6732 18.3708 13.8205 18.4511C13.9679 18.5315 14.1326 18.5748 14.3004 18.5773C14.4682 18.5799 14.6341 18.5415 14.7838 18.4656C14.9334 18.3897 15.0624 18.2785 15.1595 18.1417V18.1417C15.2454 18.0246 15.354 17.9262 15.4789 17.8522C15.6038 17.7783 15.7424 17.7304 15.8862 17.7115" stroke="white" stroke-linecap="round" stroke-linejoin="round"/>
<path d="M19.8711 18.1532C19.9714 18.275 20.0985 18.372 20.2425 18.4366C20.3864 18.5011 20.5434 18.5316 20.7011 18.5255C20.8587 18.5193 21.0129 18.4769 21.1514 18.4013C21.29 18.3258 21.4092 18.2193 21.4997 18.0901V18.0901C21.5969 17.9532 21.7258 17.842 21.8755 17.7661C22.0252 17.6902 22.1911 17.6519 22.3589 17.6544C22.5267 17.6569 22.6914 17.7002 22.8387 17.7806C22.9861 17.861 23.1117 17.976 23.2046 18.1157V18.1158C23.2976 18.2555 23.4232 18.3705 23.5705 18.4509C23.7178 18.5312 23.8825 18.5745 24.0503 18.5771C24.2181 18.5796 24.3841 18.5412 24.5337 18.4653C24.6834 18.3894 24.8124 18.2782 24.9095 18.1414V18.1414C25.0066 18.0045 25.1356 17.8933 25.2853 17.8174C25.435 17.7415 25.6009 17.7031 25.7687 17.7056C25.9366 17.7081 26.1012 17.7515 26.2486 17.8318C26.3959 17.9122 26.5215 18.0272 26.6145 18.167" stroke="white" stroke-linecap="round" stroke-linejoin="round"/>
<path d="M18 17.626C18.6213 17.626 19.125 17.1223 19.125 16.501C19.125 15.8797 18.6213 15.376 18 15.376C17.3787 15.376 16.875 15.8797 16.875 16.501C16.875 17.1223 17.3787 17.626 18 17.626Z" fill="white" stroke="white" stroke-linecap="round" stroke-linejoin="round"/>
</svg>
