<svg width="48" height="48" viewBox="0 0 48 48" fill="none" xmlns="http://www.w3.org/2000/svg">
<path d="M24 48C37.2548 48 48 37.2548 48 24C48 10.7452 37.2548 0 24 0C10.7452 0 0 10.7452 0 24C0 37.2548 10.7452 48 24 48Z" fill="#C6B9BD"/>
<path d="M28.7763 12.5H19.2237C15.5103 12.5 12.5 15.5103 12.5 19.2237V28.7763C12.5 32.4897 15.5103 35.5 19.2237 35.5H28.7763C32.4897 35.5 35.5 32.4897 35.5 28.7763V19.2237C35.5 15.5103 32.4897 12.5 28.7763 12.5Z" stroke="white" stroke-linecap="round" stroke-linejoin="round"/>
<path d="M24.98 12.5L22.5 18.5L19.5 20.5" stroke="white" stroke-linecap="round" stroke-linejoin="round"/>
<path d="M27.756 12.5L28.5 15.5L30.5 16.5L29.5 19.5V21.5" stroke="white" stroke-linecap="round" stroke-linejoin="round"/>
<path d="M25.5 27.5L23.5 28.5L24.5 32.5L24 35.5" stroke="white" stroke-linecap="round" stroke-linejoin="round"/>
<path d="M17.5 17.5L15.5 20.5L16.5 25.5L12.5 27.198" stroke="white" stroke-linecap="round" stroke-linejoin="round"/>
<path d="M22.5 24.5L19.5 26.5L17.5 30.5H12.725" stroke="white" stroke-linecap="round" stroke-linejoin="round"/>
<path d="M31.5 27.5L29.5 29.5L28.5 35.5" stroke="white" stroke-linecap="round" stroke-linejoin="round"/>
<path d="M35.5 19.5L32.5 21.5V24.5L35.5 28.166" stroke="white" stroke-linecap="round" stroke-linejoin="round"/>
</svg>
