<svg width="36" height="36" viewBox="0 0 36 36" fill="none" xmlns="http://www.w3.org/2000/svg">
<path d="M18 36C27.9411 36 36 27.9411 36 18C36 8.05887 27.9411 0 18 0C8.05887 0 0 8.05887 0 18C0 27.9411 8.05887 36 18 36Z" fill="#F95B5E"/>
<path d="M9.375 22.875H10.875" stroke="white" stroke-linecap="round" stroke-linejoin="round"/>
<path d="M11.625 25.125H12.375" stroke="white" stroke-linecap="round" stroke-linejoin="round"/>
<path d="M15.375 25.125H16.125" stroke="white" stroke-linecap="round" stroke-linejoin="round"/>
<path d="M19.125 25.125H19.875" stroke="white" stroke-linecap="round" stroke-linejoin="round"/>
<path d="M22.875 25.125H23.625" stroke="white" stroke-linecap="round" stroke-linejoin="round"/>
<path d="M13.125 22.875H14.625" stroke="white" stroke-linecap="round" stroke-linejoin="round"/>
<path d="M16.875 22.875H18.375" stroke="white" stroke-linecap="round" stroke-linejoin="round"/>
<path d="M20.625 22.875H22.125" stroke="white" stroke-linecap="round" stroke-linejoin="round"/>
<path d="M24.375 22.875H25.875" stroke="white" stroke-linecap="round" stroke-linejoin="round"/>
<path d="M17.9951 11.625V13.875" stroke="white" stroke-linecap="round" stroke-linejoin="round"/>
<path d="M13.875 13.125L15.375 14.625" stroke="white" stroke-linecap="round" stroke-linejoin="round"/>
<path d="M22.125 13.125L20.625 14.625" stroke="white" stroke-linecap="round" stroke-linejoin="round"/>
<path d="M26.625 19.125H22.5C22.1433 19.125 21.7902 19.0547 21.4606 18.9183C21.1311 18.7818 20.8317 18.5817 20.5795 18.3295L19.9205 17.6705C19.6683 17.4183 19.3689 17.2182 19.0394 17.0817C18.7098 16.9453 18.3567 16.875 18 16.875C17.6433 16.875 17.2902 16.9453 16.9606 17.0817C16.6311 17.2182 16.3317 17.4183 16.0795 17.6705L15.4205 18.3295C15.1683 18.5817 14.8689 18.7818 14.5394 18.9183C14.2098 19.0547 13.8567 19.125 13.5 19.125H9.375" stroke="white" stroke-linecap="round" stroke-linejoin="round"/>
</svg>
