<svg width="36" height="36" viewBox="0 0 36 36" fill="none" xmlns="http://www.w3.org/2000/svg">
<path d="M18 36C27.9411 36 36 27.9411 36 18C36 8.05887 27.9411 0 18 0C8.05887 0 0 8.05887 0 18C0 27.9411 8.05887 36 18 36Z" fill="#C80E14"/>
<path d="M9.375 21.375H10.875" stroke="white" stroke-linecap="round" stroke-linejoin="round"/>
<path d="M11.625 24.375H12.375" stroke="white" stroke-linecap="round" stroke-linejoin="round"/>
<path d="M15.375 24.375H16.125" stroke="white" stroke-linecap="round" stroke-linejoin="round"/>
<path d="M19.125 24.375H19.875" stroke="white" stroke-linecap="round" stroke-linejoin="round"/>
<path d="M22.875 24.375H23.625" stroke="white" stroke-linecap="round" stroke-linejoin="round"/>
<path d="M13.125 21.375H13.875" stroke="white" stroke-linecap="round" stroke-linejoin="round"/>
<path d="M22.125 21.375H22.875" stroke="white" stroke-linecap="round" stroke-linejoin="round"/>
<path d="M25.125 21.375H26.625" stroke="white" stroke-linecap="round" stroke-linejoin="round"/>
<path d="M9.375 16.875H13.1414C13.5817 16.875 14.0124 17.0042 14.38 17.2466C14.7476 17.489 15.036 17.8339 15.2094 18.2387L16.4318 21.0909C16.5634 21.3978 16.782 21.6594 17.0608 21.8432C17.3395 22.027 17.6661 22.125 18 22.125V22.125C18.3339 22.125 18.6604 22.027 18.9392 21.8432C19.2179 21.6594 19.4366 21.3979 19.5682 21.091L20.7906 18.2387C20.964 17.834 21.2524 17.489 21.62 17.2466C21.9876 17.0042 22.4183 16.875 22.8586 16.875H26.625" stroke="white" stroke-linecap="round" stroke-linejoin="round"/>
</svg>
