<svg xmlns="http://www.w3.org/2000/svg" viewBox="0 0 128 97"><path d="M28.6 73.8c-3.4 0-6.1-2.7-6.1-6 0-.4-.2-.8-.4-1.1-.3-.3-.7-.4-1.1-.4-.8 0-1.5.7-1.5 1.5 0 3.3-2.7 6-6.1 6-.8 0-1.5.7-1.5 1.5s.7 1.5 1.5 1.5c3.3 0 6.1 2.7 6.1 6 0 .8.7 1.5 1.5 1.5s1.5-.7 1.5-1.5c0-3.3 2.7-6 6.1-6 .8 0 1.5-.7 1.5-1.5s-.7-1.5-1.5-1.5zM21 77.9c-.7-1-1.6-1.9-2.6-2.5 1-.7 1.9-1.5 2.6-2.5.7 1 1.6 1.9 2.6 2.5-1.1.6-1.9 1.4-2.6 2.5zM41.3 17.3c.4 0 .8-.2 1.1-.4.3-.3.4-.7.4-1.1 0-.4-.2-.8-.4-1.1-.6-.6-1.6-.6-2.2 0-.3.3-.4.7-.4 1.1 0 .4.2.8.4 1.1.4.2.8.4 1.1.4zM38.3 15.7c0-.8-.7-1.5-1.5-1.5h-4.6c-.8 0-1.5.7-1.5 1.5s.7 1.5 1.5 1.5h4.6c.8.1 1.5-.6 1.5-1.5zM41.3 12.7c.8 0 1.5-.7 1.5-1.5V6.7c0-.8-.7-1.5-1.5-1.5s-1.5.7-1.5 1.5v4.5c0 .9.7 1.5 1.5 1.5zM45.9 17.3h4.6c.8 0 1.5-.7 1.5-1.5s-.7-1.5-1.5-1.5h-4.6c-.8 0-1.5.7-1.5 1.5s.7 1.5 1.5 1.5zM41.3 17.3 42.9 24.8v-4.5c0-.8-.7-1.5-1.5-1.5s-1.5.7-1.5 1.5v4.5c0 .8.7 1.5 1.5 1.5s1.5-.7 1.5-1.5zM20.1 39.2c.4 0 .8-.2 1.1-.4.3-.3.4-.7.4-1.1 0-.4-.2-.8-.4-1.1-.6-.6-1.6-.6-2.2 0-.3.3-.4.7-.4 1.1 0 .4.2.8.4 1.1.3.2.7.4 1.1.4zM.4 56.2c-.2.3-.4.6-.4 1s.2.8.4 1.1c.3.3.7.4 1.1.4.4 0 .8-.2 1.1-.4.3-.3.4-.7.4-1.1 0-.4-.2-.8-.4-1.1-.6-.5-1.6-.5-2.2.1zM77.8 24.1c.4 0 .8-.2 1.1-.4.3-.3.4-.7.4-1.1 0-.4-.2-.8-.4-1.1-.6-.6-1.6-.5-2.2 0-.3.3-.4.7-.4 1.1 0 .4.2.8.4 1.1.3.2.7.4 1.1.4zM104.7 87.3 103.6 84.8c-.3.3-.4.7-.4 1.1 0 .4.2.8.4 1.1.3.3.7.4 1.1.4.4 0 .8-.2 1.1-.4.3-.3.4-.7.4-1.1 0-.4-.2-.8-.4-1.1-.6-.6-1.6-.6-2.2 0zM120.3 57.6c-.3.3-.4.7-.4 1.1 0 .4.2.8.4 1.1.3.3.7.4 1.1.4.4 0 .8-.2 1.1-.4.3-.3.4-.7.4-1.1 0-.4-.2-.8-.4-1.1-.6-.5-1.6-.5-2.2 0zM95 33.6c-.3.3-.4.7-.4 1.1 0 .4.2.8.4 1.1.3.3.7.4 1.1.4.4 0 .8-.2 1.1-.4.3-.3.4-.7.4-1.1 0-.4-.2-.8-.4-1.1-.6-.6-1.6-.6-2.2 0zM25.1 94.4c-.3.3-.4.7-.4 1.1 0 .4.2.8.4 1.1.3.3.7.4 1.1.4.4 0 .8-.2 1.1-.4.3-.3.4-.7.4-1.1 0-.4-.2-.8-.4-1.1-.6-.5-1.7-.5-2.2 0zM6.8 30.6c-.3.3-.4.7-.4 1.1 0 .4.2.8.4 1.1.3.3.7.4 1.1.4.4 0 .8-.2 1.1-.4.3-.3.4-.7.4-1.1s-.1-.9-.4-1.1c-.6-.6-1.6-.6-2.2 0zM7.9 33.1 126.5 7.5c-3.4 0-6.1-2.7-6.1-6 0-.8-.7-1.5-1.5-1.5-.2 0-.4 0-.6.1-.5.2-.9.8-.9 1.4 0 3.3-2.7 6-6.1 6-.4 0-.8.2-1.1.4-.3.3-.4.6-.4 1.1 0 .5.3 1 .7 1.2.2.2.5.3.9.3 3.4 0 6.1 2.7 6.1 6 0 .8.7 1.5 1.5 1.5s1.5-.7 1.5-1.5c0-3.3 2.7-6 6.1-6 .8 0 1.5-.7 1.5-1.5-.1-.8-.8-1.5-1.6-1.5zm-7.6 4.1c-.7-1-1.6-1.9-2.6-2.5 1-.7 1.9-1.5 2.6-2.5.7 1 1.6 1.9 2.6 2.5-1.1.6-1.9 1.5-2.6 2.5zM78.9 45.1c-4.2 0-8 1.5-10.9 4.4l-4.2 4.1-4.2-4.1c-2.9-2.9-6.7-4.4-10.9-4.4-7.3 0-15.1 5.7-15.1 14.9 0 4 1.6 7.7 4.5 10.5l21.2 20.7c1.2 1.2 2.8 1.8 4.6 1.8 1.7 0 3.3-.7 4.5-1.8l21.2-20.7C92.4 67.7 94 63.9 94 60c0-9.2-7.9-14.9-15.1-14.9zm7.9 22.8L65.7 88.5c-1 1-2.8 1-3.8 0L40.7 67.9c-2.2-2.1-3.4-4.9-3.4-7.9 0-6.9 5.9-11.2 11.3-11.2 2.2 0 5.4.6 8.2 3.3l5.5 5.4c.7.7 1.9.7 2.7 0l5.5-5.4c2.8-2.7 6-3.3 8.2-3.3C84.1 48.8 90 53.1 90 60c.2 3-1 5.8-3.2 7.9z"/></svg>