<svg width="80" height="80" viewBox="0 0 80 80" fill="none" xmlns="http://www.w3.org/2000/svg">
<path d="M68.4615 38.9243V27.5398C68.4615 24.3961 65.9129 21.8475 62.7692 21.8475H42.8462L41.2975 17.2013C40.5226 14.8768 38.3475 13.3091 35.8973 13.3091H24.1799C21.7296 13.3091 19.5546 14.8768 18.7796 17.2013L17.2309 21.8475H8.69252C5.54882 21.8475 3.00024 24.3961 3.00024 27.5398V58.8473C3.00024 61.991 5.54882 64.5396 8.69252 64.5396H42.8462" stroke="black" stroke-width="2.05554" stroke-linecap="round" stroke-linejoin="round"/>
<path d="M30.0385 58.8473C38.6839 58.8473 45.6923 51.8389 45.6923 43.1936C45.6923 34.5482 38.6839 27.5398 30.0385 27.5398C21.3932 27.5398 14.3848 34.5482 14.3848 43.1936C14.3848 51.8389 21.3932 58.8473 30.0385 58.8473Z" stroke="black" stroke-width="2.05554" stroke-linecap="round" stroke-linejoin="round"/>
<path d="M21.5 43.1934C21.5 38.4778 25.3228 34.655 30.0384 34.655" stroke="black" stroke-width="2.05554" stroke-linecap="round" stroke-linejoin="round"/>
<path d="M62.7693 73.0781C70.6287 73.0781 77 66.7068 77 58.8474C77 50.988 70.6287 44.6167 62.7693 44.6167C54.9099 44.6167 48.5386 50.988 48.5386 58.8474C48.5386 66.7068 54.9099 73.0781 62.7693 73.0781Z" stroke="black" stroke-width="2.05554" stroke-linecap="round" stroke-linejoin="round"/>
<path d="M62.7588 53.2454V64.1326" stroke="black" stroke-width="2.05554" stroke-linecap="round" stroke-linejoin="round"/>
<path d="M58.5449 57.4695L62.7691 53.2454L66.9934 57.4695" stroke="black" stroke-width="2.05554" stroke-linecap="round" stroke-linejoin="round"/>
<path d="M54.231 30.3857H59.9232" stroke="black" stroke-width="2.05554" stroke-linecap="round" stroke-linejoin="round"/>
<path d="M65.4175 7.4939V11.5156" stroke="black" stroke-width="2.01086" stroke-linecap="round" stroke-linejoin="round"/>
<path d="M63.4067 9.50464H67.4285" stroke="black" stroke-width="2.01086" stroke-linecap="round" stroke-linejoin="round"/>
<path d="M57.4175 2.4939V6.51562" stroke="black" stroke-width="2.01086" stroke-linecap="round" stroke-linejoin="round"/>
<path d="M55.4067 4.50464H59.4285" stroke="black" stroke-width="2.01086" stroke-linecap="round" stroke-linejoin="round"/>
<path d="M2.00024 7.92529C3.04132 7.92531 4.03976 8.33889 4.77591 9.07505C5.51206 9.81121 5.92563 10.8096 5.92564 11.8507" stroke="black" stroke-width="2.17391" stroke-linecap="round" stroke-linejoin="round"/>
<path d="M9.85046 7.92529C9.33496 7.92528 8.82451 8.02681 8.34825 8.22408C7.87199 8.42134 7.43925 8.71049 7.07474 9.075C6.71023 9.43951 6.42109 9.87226 6.22382 10.3485C6.02656 10.8248 5.92503 11.3352 5.92505 11.8507" stroke="black" stroke-width="2.17391" stroke-linecap="round" stroke-linejoin="round"/>
<path d="M9.85046 7.92539C9.33496 7.92541 8.82452 7.82389 8.34826 7.62662C7.872 7.42936 7.43926 7.14022 7.07474 6.77571C6.71023 6.4112 6.42109 5.97846 6.22382 5.5022C6.02656 5.02594 5.92503 4.5155 5.92505 4" stroke="black" stroke-width="2.17391" stroke-linecap="round" stroke-linejoin="round"/>
<path d="M2 7.92539C3.04108 7.92538 4.03951 7.51182 4.77566 6.77567C5.51182 6.03951 5.92539 5.04108 5.92539 4" stroke="black" stroke-width="2.17391" stroke-linecap="round" stroke-linejoin="round"/>
<path d="M42 8.09937C44.1678 8.09937 45.9254 12.0307 45.9254 14.1987" stroke="black" stroke-width="2.17391" stroke-linecap="round" stroke-linejoin="round"/>
<path d="M49.8512 8.09937C47.6831 8.09937 45.9258 12.0307 45.9258 14.1987" stroke="black" stroke-width="2.17391" stroke-linecap="round" stroke-linejoin="round"/>
<path d="M49.8512 8.0993C47.6831 8.0993 45.9258 4.16802 45.9258 2" stroke="black" stroke-width="2.17391" stroke-linecap="round" stroke-linejoin="round"/>
<path d="M42 8.0993C44.1678 8.0993 45.9254 4.16802 45.9254 2" stroke="black" stroke-width="2.17391" stroke-linecap="round" stroke-linejoin="round"/>
</svg>
