<svg width="21" height="24" viewBox="0 0 21 24" fill="none" xmlns="http://www.w3.org/2000/svg">
<path d="M17.4286 10.4286V7.57143C17.4286 6.78246 16.789 6.14286 16 6.14286H11L10.6113 4.97682C10.4168 4.39346 9.87098 4 9.25605 4H6.31538C5.70045 4 5.15458 4.39346 4.96009 4.97682L4.57143 6.14286H2.42857C1.63961 6.14286 1 6.78246 1 7.57143V15.4286C1 16.2175 1.63961 16.8571 2.42857 16.8571H11" stroke="black" stroke-linecap="round" stroke-linejoin="round"/>
<path d="M7.78599 15.4294C9.95568 15.4294 11.7146 13.6705 11.7146 11.5008C11.7146 9.33115 9.95568 7.57227 7.78599 7.57227C5.6163 7.57227 3.85742 9.33115 3.85742 11.5008C3.85742 13.6705 5.6163 15.4294 7.78599 15.4294Z" stroke="black" stroke-linecap="round" stroke-linejoin="round"/>
<path d="M5.64258 11.4993C5.64258 10.3158 6.60197 9.35645 7.78544 9.35645" stroke="black" stroke-linecap="round" stroke-linejoin="round"/>
<path d="M16.0001 19.0003C17.9726 19.0003 19.5716 17.4013 19.5716 15.4289C19.5716 13.4564 17.9726 11.8574 16.0001 11.8574C14.0277 11.8574 12.4287 13.4564 12.4287 15.4289C12.4287 17.4013 14.0277 19.0003 16.0001 19.0003Z" stroke="black" stroke-linecap="round" stroke-linejoin="round"/>
<path d="M15.9971 14.0215V16.7538" stroke="black" stroke-linecap="round" stroke-linejoin="round"/>
<path d="M14.9404 15.0816L16.0006 14.0215L17.0607 15.0816" stroke="black" stroke-linecap="round" stroke-linejoin="round"/>
<path d="M13.8574 8.28516H15.286" stroke="black" stroke-linecap="round" stroke-linejoin="round"/>
</svg>
