<svg width="32" height="32" viewBox="0 0 32 32" fill="none" xmlns="http://www.w3.org/2000/svg">
<mask id="mask0_1410_141" style="mask-type:alpha" maskUnits="userSpaceOnUse" x="1" y="4" width="26" height="20">
<path d="M1 4.72852H26.8572V23.1285H1V4.72852Z" fill="white"/>
</mask>
<g mask="url(#mask0_1410_141)">
<path fill-rule="evenodd" clip-rule="evenodd" d="M3.50156 5.72865C2.67382 5.72865 2.00019 6.40227 2.00019 7.23001V20.6267C2.00019 21.4545 2.67382 22.1281 3.50156 22.1281H24.3554C25.1831 22.1281 25.8568 21.4545 25.8568 20.6267V7.23001C25.8568 6.40227 25.1831 5.72865 24.3554 5.72865H3.50156ZM24.3554 23.1286H3.50156C2.12199 23.1286 0.999695 22.0063 0.999695 20.6267V7.23001C0.999695 5.85045 2.12199 4.72815 3.50156 4.72815H24.3554C25.7362 4.72815 26.8573 5.85045 26.8573 7.23001V20.6267C26.8573 22.0063 25.7362 23.1286 24.3554 23.1286Z" fill="black"/>
</g>
<path fill-rule="evenodd" clip-rule="evenodd" d="M28.4994 27.5895H7.64429C6.26348 27.5895 5.14243 26.4672 5.14243 25.0877H6.14292C6.14292 25.9154 6.81655 26.589 7.64429 26.589H28.4994C29.3259 26.589 29.9995 25.9154 29.9995 25.0877V11.691C29.9995 10.8632 29.3259 10.1896 28.4994 10.1896V9.18909C29.8777 9.18909 31 10.3114 31 11.691V25.0877C31 26.4672 29.8777 27.5895 28.4994 27.5895Z" fill="black"/>
<path fill-rule="evenodd" clip-rule="evenodd" d="M1.4996 12.2267H26.3567V9.06738H1.4996V12.2267Z" fill="black"/>
<path fill-rule="evenodd" clip-rule="evenodd" d="M12.4783 15.7486H4.19339C3.8802 15.7486 3.62292 15.4926 3.62292 15.1794C3.62292 14.8662 3.8802 14.6089 4.19339 14.6089H12.4783C12.7915 14.6089 13.0487 14.8662 13.0487 15.1794C13.0487 15.4926 12.7915 15.7486 12.4783 15.7486Z" fill="black"/>
<path fill-rule="evenodd" clip-rule="evenodd" d="M7.26284 18.0273H4.193C3.8798 18.0273 3.62253 17.77 3.62253 17.458C3.62253 17.1448 3.8798 16.8876 4.193 16.8876H7.26284C7.57604 16.8876 7.83331 17.1448 7.83331 17.458C7.83331 17.77 7.57604 18.0273 7.26284 18.0273Z" fill="black"/>
<path fill-rule="evenodd" clip-rule="evenodd" d="M12.4783 18.0273H9.40842C9.09522 18.0273 8.83795 17.77 8.83795 17.458C8.83795 17.1448 9.09522 16.8876 9.40842 16.8876H12.4783C12.7915 16.8876 13.0487 17.1448 13.0487 17.458C13.0487 17.77 12.7915 18.0273 12.4783 18.0273Z" fill="black"/>
<path fill-rule="evenodd" clip-rule="evenodd" d="M17.6936 18.0273H14.6237C14.3105 18.0273 14.0533 17.77 14.0533 17.458C14.0533 17.1448 14.3105 16.8876 14.6237 16.8876H17.6936C18.0068 16.8876 18.264 17.1448 18.264 17.458C18.264 17.77 18.0068 18.0273 17.6936 18.0273Z" fill="black"/>
<path fill-rule="evenodd" clip-rule="evenodd" d="M22.2304 16.6206C21.4548 16.6206 20.8235 17.2519 20.8235 18.0275C20.8235 18.803 21.4548 19.4331 22.2304 19.4331C23.0059 19.4331 23.6373 18.803 23.6373 18.0275C23.6373 17.2519 23.0059 16.6206 22.2304 16.6206ZM22.2304 20.1838C21.041 20.1838 20.074 19.2156 20.074 18.0275C20.074 16.8381 21.041 15.8699 22.2304 15.8699C23.4198 15.8699 24.3867 16.8381 24.3867 18.0275C24.3867 19.2156 23.4198 20.1838 22.2304 20.1838Z" fill="black"/>
</svg>
