<svg xmlns="http://www.w3.org/2000/svg" xmlns:xlink="http://www.w3.org/1999/xlink" width="128" height="128"><defs><rect id="a" width="77" height="51" rx="5.349"/><filter id="b" width="113%" height="119.6%" x="-6.5%" y="-7.8%" filterUnits="objectBoundingBox"><feOffset dy="1" in="SourceAlpha" result="shadowOffsetOuter1"/><feGaussianBlur in="shadowOffsetOuter1" result="shadowBlurOuter1" stdDeviation="1.5"/><feColorMatrix in="shadowBlurOuter1" values="0 0 0 0 0 0 0 0 0 0 0 0 0 0 0 0 0 0 0.15 0"/></filter><rect id="e" width="77" height="51" rx="5.349"/><filter id="d" width="109.1%" height="113.7%" x="-4.5%" y="-4.9%" filterUnits="objectBoundingBox"><feOffset dy="1" in="SourceAlpha" result="shadowOffsetOuter1"/><feGaussianBlur in="shadowOffsetOuter1" result="shadowBlurOuter1" stdDeviation="1"/><feColorMatrix in="shadowBlurOuter1" values="0 0 0 0 0 0 0 0 0 0 0 0 0 0 0 0 0 0 0.25 0"/></filter></defs><g fill="none" fill-rule="evenodd"><g transform="rotate(10 -165.953 209.488)"><mask id="c" fill="#fff"><use xlink:href="#a"/></mask><g fill="#000"><use filter="url(#b)" xlink:href="#a"/><use xlink:href="#a"/></g><path fill="#FFF" d="M0 10h77v7H0z" mask="url(#c)"/></g><g transform="translate(13 38.553)"><use fill="#000" filter="url(#d)" xlink:href="#e"/><use fill="#FFF" xlink:href="#e"/><rect width="16" height="10" x="6" y="5" fill="#E3E3E3" rx="1.337"/><rect width="28" height="2" x="6" y="24" fill="#E3E3E3" rx="1"/><rect width="64" height="2" x="6" y="30" fill="#E3E3E3" rx="1"/><rect width="11" height="2" x="59" y="42" fill="#E3E3E3" rx="1" transform="matrix(1 0 0 -1 0 86)"/></g><path d="M89.813 27.565a2 2 0 0 1 2.657.968l3.381 7.25a2 2 0 1 1-3.625 1.69l-3.38-7.25a2 2 0 0 1 .967-2.658zm22.203 26.894a2 2 0 0 1 2.563-1.195L122.097 56a2 2 0 1 1-1.368 3.759l-7.518-2.737a2 2 0 0 1-1.195-2.563zm-3.298-27.15a2 2 0 0 1 1.196 2.563l-2.737 7.518a2 2 0 1 1-3.758-1.368l2.736-7.518a2 2 0 0 1 2.563-1.195zm3.442 17.42a2 2 0 0 1 .967-2.658l7.25-3.38a2 2 0 1 1 1.691 3.625l-7.25 3.38a2 2 0 0 1-2.658-.967z" fill="#000"/></g></svg>