<svg xmlns="http://www.w3.org/2000/svg" viewBox="0 0 104 104"><style>.st0{fill:#FFFFFF;} .st1{fill:#FEFEFE;}</style><path class="st0" d="M75.8 97H28.2C16.5 97 7 87.5 7 75.8V28.2C7 16.5 16.5 7 28.2 7h47.6C87.5 7 97 16.5 97 28.2v47.6C97 87.5 87.5 97 75.8 97"/><path d="M7 62h90V43H7v19zm0 17c1.5 10.2 10.3 18 20.8 18h47.4c10.5 0 19.3-7.8 20.8-18H7zm89-54C94.5 14.9 85.7 7 75.2 7H27.8C17.3 7 8.5 14.9 7 25h89z"/><path class="st1" d="M21.1 52c-.5-.2-1-.3-1.4-.7-.3-.2-.4-.6-.4-1 0-.8.7-1.3 1.6-1.3.7 0 1.2.4 1.4 1.1l1.1-.2c-.3-1.1-1.2-1.8-2.5-1.8-1.6-.1-2.6.8-2.7 2.2 0 .7.2 1.3.6 1.7.6.5 1.2.7 1.8 1 1.1.4 1.7.8 1.7 1.7 0 .8-.7 1.3-1.7 1.2-.8 0-1.3-.4-1.5-.9l-1.1.2c.4 1 1.2 1.6 2.5 1.7 1.6.1 2.8-.9 2.9-2.2.2-1.4-.6-2.1-2.3-2.7"/><path class="st1" d="M18.3 55.3c.4.9 1.2 1.5 2.4 1.5 1.5.1 2.7-.8 2.8-2.1.1-1.2-.5-1.9-2.3-2.6-.1 0-.2-.1-.3-.1-.4-.1-.8-.3-1.1-.5s-.5-.6-.4-1.1c0-.9.7-1.4 1.7-1.4.8 0 1.3.4 1.5 1.1l.9-.1c-.3-1-1.2-1.6-2.4-1.7-1.5-.1-2.5.7-2.6 2.1 0 .7.2 1.3.6 1.6.5.4 1 .6 1.5.8l.3.1c1.1.4 1.8.8 1.7 1.8 0 .4-.2.8-.5 1s-.8.4-1.3.3c-.8 0-1.3-.4-1.6-.9l-.9.2zm2.5 1.7h-.2c-1.3-.1-2.2-.7-2.6-1.8v-.1l1.2-.3v.1c.2.5.7.8 1.4.9.5 0 .9-.1 1.1-.3.3-.2.4-.5.4-.8 0-.8-.4-1.2-1.6-1.6-.1 0-.2-.1-.2-.1-.5-.2-1.1-.4-1.6-.9-.5-.4-.7-1-.7-1.8.1-1.4 1.2-2.3 2.8-2.3 1.4.1 2.3.8 2.6 1.9v.1l-1.3.2v-.1c-.2-.7-.6-1-1.3-1h-.1c-.8 0-1.3.5-1.4 1.2 0 .4.1.7.4.9.3.2.6.4 1 .5.1 0 .2.1.3.1 1.6.6 2.5 1.3 2.4 2.8.1 1.4-1 2.4-2.6 2.4zm6.8-.2H32v-1h-3.3v-2.9H32v-1h-3.3v-2.7H32v-1h-4.4v8.6z"/><path class="st1" d="M27.7 56.7h4.2v-.8h-3.3v-3.1h3.3V52h-3.3v-2.9h3.3v-.8h-4.2v8.4zm4.3.2h-4.6v-8.8H32v1.2h-3.3v2.5H32V53h-3.3v2.7H32v1.2zm5.3-4v-3.7h.7c1.3 0 2.1.6 2.1 1.8s-.7 1.9-1.9 1.9h-.9zm-1.1 4h1.1v-3h.9c1.8 0 3-1.2 3-2.9S40 48.1 38 48.1h-1.8v8.8z"/><path class="st1" d="M37.4 52.8h.8c1.1 0 1.8-.6 1.8-1.8 0-1.1-.7-1.7-2-1.7h-.6v3.5zm.8.2h-1v-3.9h.8c1.4 0 2.2.7 2.2 1.9s-.8 2-2 2zm-1.9 3.8h.9v-3h1c1.7 0 2.9-1.1 2.9-2.8s-1.2-2.8-3.1-2.8h-1.7v8.6zm1.1.2h-1.3v-9H38c2 0 3.3 1.2 3.3 3 0 1.7-1.3 3-3.1 3h-.8v3zm7.9-.1h1.1v-4h4.4v4h1.1v-8.8h-1.1v3.7h-4.4v-3.7h-1.1v8.8z"/><path class="st1" d="M50.9 56.8h.9v-8.6h-.9V52h-4.6v-3.7h-.9v8.6h.9v-4h4.6v3.9zm1.1.3h-1.3v-4h-4.2v4h-1.3v-9h1.3v3.7h4.2v-3.7H52v9zm8.5-.9c-.9 0-1.7-.3-2.3-.9-.7-.7-1-1.6-1-2.6s.3-1.9 1-2.6c.6-.6 1.4-.9 2.3-.9.9 0 1.7.3 2.3.9.7.7 1 1.6 1 2.6s-.3 1.9-1 2.6c-.5.6-1.3.9-2.3.9m.1 1c1.3 0 2.3-.4 3.1-1.2.9-.9 1.3-2 1.3-3.3s-.5-2.5-1.3-3.3c-.8-.8-1.8-1.2-3.1-1.2s-2.3.4-3.1 1.2c-.9.9-1.3 2-1.3 3.4s.5 2.5 1.3 3.3c.8.7 1.8 1.1 3.1 1.1"/><path class="st1" d="M60.5 49.3c-.9 0-1.7.3-2.2.9-.6.6-1 1.5-1 2.5s.3 1.9 1 2.5c.6.6 1.3.9 2.2.9s1.7-.3 2.2-.9c.6-.6 1-1.5 1-2.5s-.3-1.9-1-2.5c-.5-.6-1.3-.9-2.2-.9m0 7c-1 0-1.8-.3-2.4-1-.7-.7-1-1.6-1-2.7s.4-2 1-2.7c.6-.6 1.4-1 2.4-1s1.8.3 2.4 1c.7.7 1 1.6 1 2.7s-.4 2-1 2.7c-.6.7-1.4 1-2.4 1m.1-8.1c-1.2 0-2.2.4-3 1.2-.9.8-1.3 2-1.3 3.3s.4 2.4 1.3 3.3c.8.8 1.8 1.2 3 1.2s2.2-.4 3-1.2c.8-.8 1.3-2 1.3-3.3s-.5-2.4-1.3-3.3c-.8-.8-1.8-1.2-3-1.2m0 9.1c-1.3 0-2.4-.4-3.2-1.2-.9-.9-1.4-2.1-1.4-3.4 0-1.4.5-2.5 1.4-3.4.8-.8 1.9-1.2 3.2-1.2s2.3.4 3.2 1.2c.9.9 1.4 2.1 1.4 3.4s-.5 2.5-1.4 3.4c-.9.8-1.9 1.2-3.2 1.2m9.4-4.8v-3.3h.7c1.4 0 2.2.6 2.2 1.6 0 1.1-.7 1.7-2.1 1.7H70zm-1.1 4.1H70v-3.4l3 3.4h1.4l-3-3.3h.1c1.5 0 2.5-1.1 2.5-2.6 0-1.6-1.1-2.6-3.2-2.6h-1.9v8.5z"/><path class="st1" d="M70.1 52.4h.7c1.3 0 2-.6 2-1.6 0-1.2-1.1-1.5-2.1-1.5h-.6v3.1zm.7.2h-.9v-3.5h.8c1.9 0 2.3.9 2.3 1.7 0 1.1-.8 1.8-2.2 1.8zm2.2 3.9h1.1l-3-3.3h.3c1.4 0 2.4-1 2.4-2.5 0-1.6-1.1-2.5-3.1-2.5H69v8.2h.9v-3.6c0 .1 3.1 3.7 3.1 3.7zm1.6.2h-1.7l-2.8-3.2v3.3h-1.3v-8.6h2c2.1 0 3.3 1 3.3 2.7 0 1.5-1 2.6-2.5 2.7l3 3.1zm6.3-3l1.3-3.4c0-.1.1-.4.3-.8.1.3.2.5.3.8l1.3 3.4h-3.2zm-2.3 2.9h1.2l.8-2h4l.8 2h1.3L83 48.2h-1l-3.4 8.4z"/><path class="st1" d="M81 53.6h2.9l-1.3-3.2c-.1-.2-.1-.3-.2-.5-.1.3-.1.4-.2.5L81 53.6zm3.2.2h-3.5l1.4-3.5c0-.1.1-.4.3-.8l.1-.3.1.3c.1.5.2.7.2.8l1.4 3.5zm1.1 2.7h1.1l-3.5-8.2h-.8l-3.4 8.2h1l.8-2h4.1v.1l.7 1.9zm1.4.2h-1.5v-.1l-.7-1.9h-3.8l-.8 2h-1.4l.1-.1 3.5-8.5h.9v.1l3.7 8.5z"/></svg>
