<svg xmlns="http://www.w3.org/2000/svg" xmlns:xlink="http://www.w3.org/1999/xlink" width="128" height="128" viewBox="0 0 128 128"><defs><path id="a" d="M0 .268h110v93.868H0z"/></defs><g fill="none" fill-rule="evenodd"><g transform="translate(11 17.596)"><mask id="b" fill="#fff"><use xlink:href="#a"/></mask><path fill="#000" d="M87.583 45.264A31.812 31.812 0 0 1 84.28 56.31a71.366 71.366 0 0 0-3.18-.958c-1.046-1.713-3.222-4.72-6.323-6.174l-.562-.264-.592.184c-1.964.608-3.788 2.553-4.76 5.074-.972 2.522-.927 5.193.117 6.972l.315.537.59.187c1.18.37 2.405.507 3.58.507 2.084 0 4.006-.433 5.235-.79.48.245.967.49 1.474.735-1.93 2.23-4.14 4.27-6.468 5.947a31.51 31.51 0 0 1-17.698 5.41c-13.533 0-25.08-8.504-29.66-20.482 9.95-2.285 14.982-8.88 17.523-15.36 1.043.086 2.12.144 3.257.147v.008c.035 0 .07-.004.105-.005 18.1-.477 23.132-14.91 24.496-23.874.048 0 .073.026.097.05.03.03.056.057.113.057 1.473 7.08 5.257 16.06 14.825 19.864.91 3.528 1.215 7.298.82 11.184m21.06 21.2c-.43-.21-6.836-3.33-14.228-6.37 1.608-4.85 2.613-10.25 2.814-16.19.035-.714.054-1.43.054-2.155 0-22.91-18.48-41.482-41.276-41.482-22.798 0-41.278 18.57-41.278 41.48 0 11.47-6.706 24.007-14.73 26.798 0 0 24.134 30.977 55.788 14.793l.22 10.796c8.636 0 26.398-8.72 35.547-27.104a267.08 267.08 0 0 0 14.95 4.98c.225.07.455.1.682.1.973 0 1.882-.595 2.25-1.55l.4-1.04a2.43 2.43 0 0 0-1.195-3.057" mask="url(#b)"/></g><path fill="#000" d="M77.576 80.13c-.21 0-.42.104-.63.104a7.253 7.253 0 0 1-3.206-.264c-1.025-.316-1.998-.845-2.892-1.53-.407-.308-.91-.51-1.418-.525-.018 0-.036-.005-.054-.005-.136 0-.258.028-.383.048-.044.007-.093.007-.136.017-.11.023-.21.066-.31.1-.094.036-.19.063-.28.11-.05.024-.092.06-.14.09a3.035 3.035 0 0 0-.283.18c-.145.11-.282.23-.414.36-.016.015-.035.03-.05.045a2.496 2.496 0 0 0-.327-.38c-.425-.414-.994-.675-1.568-.675-.526 0-1.156.21-1.47.527-1.788 1.374-3.89 2.22-6.1 1.797-.21 0-.42-.107-.63-.107l-.106.21.04.03 2.062 1.45c3.05 2.22 6.835 3.17 10.41 2.43h.105a14.3 14.3 0 0 0 3.995-1.585l3.89-2.324-.09-.09-.016-.015zm10.08-25.026c-.017.033-.038.064-.054.096-2.006 3.834-11.537 5.145-14.56.115h-.005l-.627.317c.526 1.055 1.05 6.222 8.598 10.657l.023.013v-.105l-.12-.093c-1.966-1.482-2.448-3.576-2.415-5.71.002-.11.006-.22.01-.327 0-.034 0-.07.003-.104l.008.01c2.51 3.356 6.57 5.564 8.06 5.588l.027.002v-.106c-.157-.054-.29-.13-.436-.195-1.663-.73-2.643-2.04-3.213-3.513a10.855 10.855 0 0 1-.556-1.997c3.26 2.853 7.99 3.91 9.357 3.593v-.107h-.004c-3.72-.508-4.744-2.27-5.286-4.367l-.07-.283c3.68 2.008 8.514 2.22 9.777 1.585v-.105c-6.623-.106-8.41-4.755-8.515-4.966"/></g></svg>