<svg xmlns="http://www.w3.org/2000/svg" xmlns:xlink="http://www.w3.org/1999/xlink" width="128" height="128"><defs><path id="a" d="M18.913 85c.693 0 1.255.563 1.255 1.255 0 2.77 2.25 5.022 5.02 5.022a1.254 1.254 0 011.24 1.441 1.254 1.254 0 01-1.24 1.44 5.025 5.025 0 00-5.02 5.022 1.256 1.256 0 01-1.447 1.241 1.255 1.255 0 01-1.447-1.241c0-2.77-2.25-5.022-5.02-5.022a1.254 1.254 0 01-1.24-1.441 1.254 1.254 0 011.24-1.44c2.77 0 5.02-2.252 5.02-5.022a1.255 1.255 0 011.448-1.24c.061-.01.126-.015.19-.015zm-.192 5.112l-.084.137a7.578 7.578 0 01-2.517 2.469 7.576 7.576 0 012.601 2.605 7.596 7.596 0 012.601-2.606 7.585 7.585 0 01-2.601-2.605z"/><path id="b" d="M109.913 10c.693 0 1.255.563 1.255 1.255 0 2.77 2.25 5.022 5.02 5.022a1.254 1.254 0 011.24 1.441 1.254 1.254 0 01-1.24 1.44 5.025 5.025 0 00-5.02 5.022 1.256 1.256 0 01-1.447 1.241 1.255 1.255 0 01-1.447-1.241c0-2.77-2.25-5.022-5.02-5.022a1.254 1.254 0 01-1.24-1.441 1.254 1.254 0 011.24-1.44c2.77 0 5.02-2.252 5.02-5.022a1.255 1.255 0 011.448-1.24c.061-.01.126-.015.19-.015zm-.192 5.112l-.084.137a7.578 7.578 0 01-2.517 2.469 7.576 7.576 0 012.601 2.605 7.596 7.596 0 012.601-2.606 7.585 7.585 0 01-2.601-2.605z"/><path id="c" d="M38.758 106.486c-.477 0-.916-.193-1.248-.51a1.841 1.841 0 01-.51-1.247c0-.474.193-.913.51-1.248.631-.632 1.828-.65 2.494 0 .316.334.511.773.511 1.248 0 .456-.195.914-.511 1.247-.333.317-.79.51-1.246.51z"/><path id="d" d="M105.913 91c.693 0 1.255.563 1.255 1.255 0 2.77 2.25 5.022 5.02 5.022a1.254 1.254 0 011.24 1.441 1.254 1.254 0 01-1.24 1.44 5.025 5.025 0 00-5.02 5.022 1.256 1.256 0 01-1.447 1.241 1.255 1.255 0 01-1.447-1.241c0-2.77-2.25-5.022-5.02-5.022a1.254 1.254 0 01-1.24-1.441 1.254 1.254 0 011.24-1.44c2.77 0 5.02-2.252 5.02-5.022a1.255 1.255 0 011.448-1.24c.061-.01.126-.015.19-.015zm-.192 5.112l-.084.137a7.578 7.578 0 01-2.517 2.469 7.576 7.576 0 012.601 2.605 7.596 7.596 0 012.601-2.606 7.585 7.585 0 01-2.601-2.605z"/><path id="e" d="M51.322 12.441L48.571.581.118 11.86l4.477 19.296a3.227 3.227 0 003.874 2.417l1.181-.275V16.612c0-2.3 1.868-4.17 4.163-4.17h37.51z"/><path id="g" d="M49.771 4.284c-.407-1.739-2.156-2.821-3.907-2.417l-42.53 9.815a3.231 3.231 0 00-2.433 3.88l.156.666L49.927 4.95l-.156-.666z"/><path id="i" d="M48.124 1.245H2.99C1.6 1.245.47 2.365.47 3.746v26.276a2.511 2.511 0 002.52 2.501h45.134c1.391 0 2.52-1.12 2.52-2.501V3.746a2.511 2.511 0 00-2.52-2.501zM7.59 11.989c0-.46.376-.834.84-.834h5.306c.464 0 .84.374.84.834v4.402a.81.81 0 01-.138.43.825.825 0 01-.702.404H8.43a.837.837 0 01-.84-.834V11.99zm14.86 11.496H7.59V22.24h14.86v1.246zm17.966-8.049h-14.86v-2.492h14.86v2.492z"/></defs><g fill="none" fill-rule="evenodd"><path d="M19.483 26.474c.826 0 1.497.67 1.497 1.497v4.492a1.497 1.497 0 01-2.995 0V27.97c0-.826.671-1.497 1.498-1.497zm-4.493-4.491a1.498 1.498 0 110 2.994h-4.492a1.497 1.497 0 110-2.994h4.492zm13.478 0a1.498 1.498 0 110 2.994h-4.493a1.497 1.497 0 010-2.994h4.493zM19.483 13c.826 0 1.497.67 1.497 1.497v4.493a1.497 1.497 0 01-2.995 0v-4.493c0-.826.671-1.497 1.498-1.497zm0 11.977c-.39 0-.779-.165-1.063-.434a1.574 1.574 0 01-.435-1.063c0-.39.165-.779.435-1.063.569-.554 1.557-.554 2.126 0 .27.284.434.674.434 1.063 0 .39-.164.778-.434 1.063-.284.27-.674.434-1.063.434zM77.386 114.78c.662 0 1.198.536 1.198 1.197v3.593a1.198 1.198 0 01-2.396 0v-3.593c0-.661.537-1.198 1.198-1.198zm-3.594-3.595a1.199 1.199 0 010 2.396h-3.594a1.197 1.197 0 110-2.395h3.594zm10.783 0a1.199 1.199 0 010 2.396H80.98a1.199 1.199 0 010-2.396h3.595zM77.386 104c.662 0 1.198.537 1.198 1.198v3.592a1.199 1.199 0 01-2.396 0v-3.592c0-.661.537-1.198 1.198-1.198zm0 9.582c-.311 0-.623-.132-.85-.348a1.257 1.257 0 01-.348-.85c0-.311.132-.623.348-.85.455-.444 1.246-.444 1.7 0 .217.227.348.539.348.85 0 .311-.131.623-.347.85a1.26 1.26 0 01-.85.348z" fill="#000" fill-rule="nonzero"/><use fill="#000" xlink:href="#a"/><use fill="#000" xlink:href="#b"/><use fill="#000" xlink:href="#c"/><use fill="#000" xlink:href="#d"/><g transform="translate(32.6 29.2)"><g transform="translate(1.906 9.53)"><mask id="f" fill="#fff"><use xlink:href="#e"/></mask><path fill="#000" d="M-10.511 44.378h72.462v-54.517h-72.462z" mask="url(#f)"/></g><mask id="h" fill="#fff"><use xlink:href="#g"/></mask><path fill="#000" d="M-9.905 26.948h70.553V-8.938H-9.905z" mask="url(#h)"/><g transform="translate(13.341 22.87)"><mask id="j" fill="#fff"><use xlink:href="#i"/></mask><path fill="#000" d="M-10.25 43.244h71.614v-52.72H-10.25z" mask="url(#j)"/></g></g></g></svg>