<svg width="32" height="32" fill="none" xmlns="http://www.w3.org/2000/svg"><circle cx="16" cy="16" r="16" fill="#BEDDEF"/><path d="m22.392 14.825-.963-.576c-.58.178-1.296.83-1.846 1.749-.353.588-.577 1.184-.662 1.694l1.617.969c.41-.316.83-.795 1.182-1.383.55-.918.788-1.856.672-2.453Z" fill="#F16661" stroke="#F16661" stroke-width=".1" stroke-miterlimit="10"/><path d="m22.974 13.839-.938-.562-.513.856.938.562.513-.856ZM23.309 12.903l-.61-.366-.419.697.61.366.419-.697Z" fill="#F16661"/><path d="M20.376 17.026c1.657-.196 1.049-1.203.611-1.02-.045-.472-1.22-.534-.611 1.02Z" fill="#F3BEB5"/><path d="m17.518 16.544-.104-.435c-.063-.264-.824-.308-1.7-.098-.163.039-.32.084-.466.134.327-.303.478-.832.349-1.373-.178-.742-.814-1.225-1.422-1.08-.608.146-.958.865-.78 1.607.161.676.705 1.137 1.26 1.103-.283.16-.444.328-.412.465l.104.434c.063.264.824.308 1.7.099.875-.21 1.534-.593 1.471-.856Zm-2.938-.39c-.422-.01-.818-.395-.942-.913a1.288 1.288 0 0 1 .077-.86c.114-.235.298-.393.518-.446a.686.686 0 0 1 .179-.018c.422.01.818.395.942.914.072.302.045.608-.077.86-.114.234-.298.392-.518.445a.7.7 0 0 1-.18.018Z" fill="#017CA9"/><path d="M15.901 16.794c.562-.134.984-.38.944-.549-.04-.169-.528-.197-1.09-.063s-.984.38-.944.55c.04.168.529.196 1.09.062Z" fill="#fff"/><path d="m18.084 15.26-.889.304.658 1.92.89-.304-.659-1.92Z" fill="#fff" stroke="#0D0708" stroke-width=".098" stroke-miterlimit="10"/><path d="m18.648 16.905-.89.305.095.274.889-.304-.094-.275ZM18.46 16.357l-.889.304.094.275.89-.305-.095-.274ZM18.272 15.808l-.89.305.095.274.889-.305-.094-.274ZM18.084 15.26l-.889.304.094.274.89-.304-.095-.275Z" fill="#0D0708"/><path d="m17.612 14.54-.266-.775c-.047-.138-.222-.303-.272-.287-.055.02-.253.34-.193.515l.245.714.486-.167Z" fill="#CA2127"/><path d="m17.706 14.496-.68.233.257.751.68-.233-.257-.751Z" fill="#FDC56F"/><path d="m12.968 16.288-.716.754-.419-.405.717-.754.418.405Z" fill="#CA2127"/><path d="M10.587 14.708c-.624.631-.46 1.257-.396 1.319l.002.001c.064.055.906.539 1.643.61l.357-.375.358-.376c-.102-.74-.617-1.569-.674-1.631l-.001-.002c-.064-.061-.69-.2-1.29.454Z" fill="#0D0708"/><path d="m12.13 16.978.77-.81c.102.1.206.207.313.31l2.038 1.97c.16.155.222.342.162.555a.551.551 0 0 1-.418.404.513.513 0 0 1-.501-.14l-1.259-1.217-1.075-1.041-.03-.031Z" fill="#A56F5E"/><path d="m12.13 16.978.77-.81c.102.1.206.207.313.31l2.038 1.97c.16.155.222.342.162.555a.551.551 0 0 1-.418.404.513.513 0 0 1-.501-.14l-1.259-1.217-1.075-1.041-.03-.031Z" stroke="#A56F5E" stroke-width=".206" stroke-miterlimit="10"/><path d="M19.511 16.982h-.475c0-2.758-1.07-5.088-2.339-5.088-1.267 0-2.338 2.33-2.338 5.088h-.475c0-3.12 1.236-5.563 2.813-5.563 1.578 0 2.814 2.444 2.814 5.563ZM10.826 20.868v1.943h12.088v-1.943H10.826ZM10.826 24.754v1.943h12.088v-1.943H10.826ZM10.826 16.982v1.943h12.088v-1.943H10.826Z" fill="#000"/><path d="M10.826 18.913v1.943h12.088v-1.943H10.826ZM10.826 22.803v1.943h12.088v-1.943H10.826Z" fill="#fff"/><path d="m15.849 12.249.022.008-.022-.008Z" fill="#221F1F"/><path d="M16.091 7.154c.36.017 2.3 1.583 2.759 1.9.458.317.387 2.726.44 3.186.053.46-.616.239-.766-.69-.148-.916-.214-1.313-.326-1.492-.095-.152-1.58-.894-2.147-.993-.565-.1-1.24.194-1.677.58" fill="#000"/><path d="M16.863 7.407c.52.02 2.086.386 2.653.545.568.159 3.136 1.49 3.583 1.762.283.172-.043.679-.972.297-.892-.367-2.157-.912-2.605-1.016-.448-.104-2.902-.379-2.902-.379" fill="#000"/><path d="M14.374 9.646c-.417.406-.495.901.92 1.35.942.298 1.895.859 1.655 1.571-.455-.471-1.165-.692-1.235-.366l.038.014a8.944 8.944 0 0 0-.308-.101c-.999-.308-3.815-1.546-4.614-2.182-.799-.636-1.424-1.774-3.324-4.235 0 0 .848-.472 1.882-.548 1.034-.076 1.805.197 1.805.197.318.913.888 1.883 1.482 1.986.595.104 3.01-.241 3.752-.174 1.157 0 3.71.627 5.557.608.135.118.296.65-1.034.657-.733.004-3.849-.388-4.643-.39" fill="#000"/><path d="M16.986 7.44c.52.14 2.025 1.009 2.563 1.302.537.293 2.829 2.253 3.22 2.631.266.257-.33.6-1.169 0-.819-.584-1.892-1.387-2.32-1.596-.43-.21-2.806-1.017-2.806-1.017M16.949 12.567c-.118-.04-.45-.094-1.235-.364.047-.401 1.35-.076 1.235.364Z" fill="#000"/></svg>
