<svg xmlns="http://www.w3.org/2000/svg" xmlns:xlink="http://www.w3.org/1999/xlink" width="128" height="128"><defs><path id="a" d="M0 117h127V0H0z"/></defs><g fill="none" fill-rule="evenodd"><path d="M14.484 112.773a1.355 1.355 0 0 1-1.354-1.355v-4.063a1.355 1.355 0 0 1 2.71 0v4.063c0 .748-.608 1.355-1.356 1.355zm0 12.191a1.355 1.355 0 0 1-1.354-1.355v-4.064a1.355 1.355 0 0 1 2.71 0v4.064c0 .748-.608 1.355-1.356 1.355zm-4.064-8.128H6.355a1.355 1.355 0 0 1 0-2.709h4.065a1.355 1.355 0 0 1 0 2.71zm12.194 0h-4.065a1.355 1.355 0 0 1 0-2.709h4.065a1.355 1.355 0 0 1 0 2.71zM14.5 117c-.39 0-.78-.166-1.065-.438a1.592 1.592 0 0 1-.435-1.071c0-.393.165-.785.435-1.072.57-.559 1.56-.559 2.13 0 .27.287.435.68.435 1.072s-.165.784-.435 1.071A1.572 1.572 0 0 1 14.5 117zM31.5 8c-.39 0-.78-.166-1.065-.438A1.592 1.592 0 0 1 30 6.491c0-.41.165-.8.435-1.072.57-.559 1.575-.559 2.13 0 .27.285.435.663.435 1.072 0 .392-.165.784-.435 1.071-.285.272-.66.438-1.065.438zm63 113c-.39 0-.78-.166-1.065-.438a1.564 1.564 0 0 1-.435-1.071c0-.393.165-.785.435-1.072.555-.559 1.56-.559 2.13 0 .27.287.435.68.435 1.072s-.165.784-.435 1.071A1.572 1.572 0 0 1 94.5 121zm26-80a1.57 1.57 0 0 1-1.065-.438 1.585 1.585 0 0 1-.435-1.071c0-.393.163-.787.435-1.072.57-.559 1.575-.559 2.13 0 .27.285.435.68.435 1.072s-.165.784-.435 1.071A1.572 1.572 0 0 1 120.5 41zm-82 69c-.407 0-.782-.166-1.065-.438a1.585 1.585 0 0 1-.435-1.071c0-.41.163-.787.435-1.072.555-.559 1.575-.559 2.13 0 .27.285.435.663.435 1.072 0 .392-.165.784-.435 1.071A1.572 1.572 0 0 1 38.5 110zm39-104c-.406 0-.781-.166-1.065-.439A1.59 1.59 0 0 1 76 4.488c0-.409.163-.787.435-1.074.538-.544 1.56-.56 2.13 0 .27.287.435.665.435 1.074 0 .393-.165.786-.435 1.073A1.57 1.57 0 0 1 77.5 6zm-73 26c-.39 0-.78-.166-1.065-.438A1.592 1.592 0 0 1 3 30.491c0-.393.165-.787.435-1.072.555-.559 1.56-.559 2.13 0 .27.285.435.68.435 1.072s-.165.784-.435 1.071A1.572 1.572 0 0 1 4.5 32z" fill="#000" fill-rule="nonzero"/><g fill="#000" fill-rule="nonzero"><path d="M116.143 116a1.143 1.143 0 0 1-1.143-1.143 6.864 6.864 0 0 1 6.857-6.857 1.143 1.143 0 1 1 0 2.286 4.576 4.576 0 0 0-4.571 4.571c0 .631-.511 1.143-1.143 1.143zm-5-5a1.143 1.143 0 1 1 0-2.286 4.576 4.576 0 0 0 4.571-4.571 1.143 1.143 0 1 1 2.286 0 6.864 6.864 0 0 1-6.857 6.857z"/><path d="M116.857 116a1.143 1.143 0 0 1-1.143-1.143 4.576 4.576 0 0 0-4.571-4.571 1.143 1.143 0 1 1 0-2.286 6.864 6.864 0 0 1 6.857 6.857c0 .631-.51 1.143-1.143 1.143zm5-5a6.864 6.864 0 0 1-6.857-6.857 1.143 1.143 0 1 1 2.286 0 4.576 4.576 0 0 0 4.571 4.571 1.143 1.143 0 1 1 0 2.286z"/></g><g fill="#000" fill-rule="nonzero"><path d="M115.089 23.964c-.87 0-1.577-.707-1.577-1.58 0-5.23 4.242-9.482 9.459-9.482.871 0 1.576.706 1.576 1.58 0 .874-.705 1.58-1.576 1.58-3.478 0-6.306 2.835-6.306 6.321 0 .874-.706 1.58-1.576 1.58zm-7.882-7.902c-.87 0-1.576-.706-1.576-1.58 0-.874.706-1.58 1.576-1.58 3.477 0 6.305-2.836 6.305-6.322a1.578 1.578 0 0 1 3.153 0c0 5.23-4.242 9.482-9.458 9.482z"/><path d="M115.089 23.964c-.87 0-1.577-.707-1.577-1.58 0-3.487-2.828-6.322-6.305-6.322-.87 0-1.576-.706-1.576-1.58 0-.874.706-1.58 1.576-1.58 5.216 0 9.458 4.252 9.458 9.481 0 .874-.706 1.58-1.576 1.58zm7.881-7.902c-5.216 0-9.458-4.252-9.458-9.482a1.578 1.578 0 0 1 3.153 0c0 3.486 2.828 6.322 6.306 6.322.871 0 1.576.706 1.576 1.58 0 .874-.705 1.58-1.576 1.58z"/></g><g transform="translate(1 5)"><path fill="#FEFEFE" d="M99 82.963A3.05 3.05 0 0 1 95.953 86H15.047A3.05 3.05 0 0 1 12 82.963V16.037A3.05 3.05 0 0 1 15.047 13h80.906A3.05 3.05 0 0 1 99 16.037v66.926z"/><path fill="#231F20" d="M13.568 82.355c0 1.68 1.362 3.054 3.027 3.054h77.81c1.665 0 3.027-1.375 3.027-3.054v-64.71c0-1.68-1.362-3.054-3.027-3.054h-77.81c-1.665 0-3.027 1.375-3.027 3.054v64.71zM100 84.945c0 1.68-1.363 3.055-3.027 3.055H14.027C12.362 88 11 86.625 11 84.946V15.054C11 13.374 12.362 12 14.027 12h82.946c1.664 0 3.027 1.374 3.027 3.054v69.892z"/><mask id="b" fill="#fff"><use xlink:href="#a"/></mask><path fill="#231F20" d="M12 39h87V26H12zm0 23h87V49H12zm0 24h87V73H12zm59.273-67c-.953 0-1.727-.785-1.727-1.753 0-7.577-6.077-13.743-13.545-13.743-7.47 0-13.547 6.166-13.547 13.743 0 .968-.773 1.753-1.727 1.753-.954 0-1.727-.785-1.727-1.753C39 7.737 46.627 0 56 0c9.374 0 17 7.737 17 17.247 0 .968-.773 1.753-1.727 1.753" mask="url(#b)"/><path fill="#FEFEFE" d="M71 76.5C71 91.136 82.864 103 97.5 103c14.635 0 26.5-11.864 26.5-26.5C124 61.865 112.135 50 97.5 50 82.864 50 71 61.865 71 76.5" mask="url(#b)"/><path fill="#231F20" d="M97.5 51.31c-13.89 0-25.19 11.3-25.19 25.19s11.3 25.19 25.19 25.19 25.19-11.3 25.19-25.19-11.3-25.19-25.19-25.19m0 52.69C82.336 104 70 91.664 70 76.5 70 61.338 82.336 49 97.5 49c15.163 0 27.5 12.337 27.5 27.5 0 15.164-12.337 27.5-27.5 27.5" mask="url(#b)"/><path fill="#FEFEFE" d="M78 76.5C78 86.717 86.283 95 96.5 95S115 86.717 115 76.5 106.717 58 96.5 58 78 66.283 78 76.5" mask="url(#b)"/><path fill="#231F20" d="M97 59.338c-9.74 0-17.662 7.923-17.662 17.662 0 9.74 7.923 17.663 17.662 17.663 9.74 0 17.662-7.923 17.662-17.663S106.74 59.338 97 59.338M97 97c-11.028 0-20-8.972-20-20s8.972-20 20-20 20 8.972 20 20-8.972 20-20 20" mask="url(#b)"/><path fill="#FEFEFE" d="M126 56h-9.329c-2.602 2.132-10.2 3.674-19.171 3.674S80.931 58.132 78.329 56H69v3.674h.008c-.003.048-.008.094-.008.142C69 64.888 81.76 69 97.5 69s28.5-4.112 28.5-9.184c0-.048-.005-.094-.008-.142H126V56z" mask="url(#b)"/><path fill="#231F20" d="M69.31 58.847h.055l-.054 1.328c-.001 3.998 11.165 8.438 27.189 8.438 16.023 0 27.19-4.44 27.19-8.425l-.006-.09-.057-1.251h.063v-1.46h-7.729c-3.143 2.348-10.676 3.848-19.461 3.848-8.785 0-16.318-1.5-19.462-3.848H69.31v1.46zM96.5 71c-7.69 0-14.936-1.022-20.403-2.876-6.4-2.173-8.496-4.793-8.978-6.89h-.112l-.005-.921C67 60.27 67 60.23 67 60.188V55h10.85l.321.277c1.996 1.72 8.582 3.57 18.329 3.57 9.746 0 16.333-1.85 18.328-3.57l.321-.277H126v6.235h-.119c-.482 2.096-2.579 4.716-8.978 6.889C111.436 69.978 104.19 71 96.5 71z" mask="url(#b)"/><path fill="#FEFEFE" d="M69 56.5c0 5.247 12.76 9.5 28.5 9.5s28.5-4.253 28.5-9.5S113.24 47 97.5 47 69 51.253 69 56.5" mask="url(#b)"/><path fill="#231F20" d="M96.5 48.318c-16.023 0-27.19 4.312-27.19 8.182s11.167 8.18 27.19 8.18c16.023 0 27.19-4.31 27.19-8.18s-11.167-8.182-27.19-8.182M96.5 67c-7.69 0-14.936-.992-20.403-2.794C68.578 61.73 67 58.648 67 56.5c0-2.148 1.578-5.229 9.097-7.707C81.564 46.993 88.809 46 96.5 46c7.69 0 14.936.992 20.403 2.793 7.519 2.478 9.097 5.56 9.097 7.707 0 2.148-1.578 5.229-9.097 7.706C111.436 66.008 104.191 67 96.5 67" mask="url(#b)"/><path fill="#FEFEFE" d="M77 54.5c0 3.038 8.955 5.5 20 5.5s20-2.462 20-5.5c0-3.037-8.955-5.5-20-5.5s-20 2.463-20 5.5" mask="url(#b)"/><path fill="#231F20" d="M97.5 50.304c-12.395 0-19.156 2.772-19.156 4.196 0 1.425 6.761 4.197 19.156 4.197 12.394 0 19.155-2.772 19.155-4.197 0-1.424-6.761-4.196-19.155-4.196M97.5 61c-5.53 0-10.742-.57-14.678-1.606C78.295 58.204 76 56.556 76 54.5s2.295-3.703 6.822-4.894C86.758 48.57 91.97 48 97.5 48c5.53 0 10.741.57 14.677 1.606 4.527 1.19 6.823 2.838 6.823 4.894s-2.296 3.703-6.823 4.894C108.24 60.43 103.029 61 97.5 61" mask="url(#b)"/><path fill="#231F20" d="M89.105 56a1.11 1.11 0 0 1-.47-2.113l3.791-1.782a1.103 1.103 0 0 1 1.469.533 1.11 1.11 0 0 1-.53 1.475l-3.791 1.782a1.098 1.098 0 0 1-.469.105m13.001 2a1.11 1.11 0 0 1-.47-2.113l3.79-1.782a1.103 1.103 0 0 1 1.47.533 1.11 1.11 0 0 1-.531 1.474l-3.79 1.783a1.1 1.1 0 0 1-.469.105m-9.897 1c-.453 0-.886-.258-1.093-.697a1.22 1.22 0 0 1 .576-1.62l9.584-4.565a1.203 1.203 0 0 1 1.608.578 1.221 1.221 0 0 1-.576 1.621l-9.584 4.566a1.197 1.197 0 0 1-.515.117" mask="url(#b)"/><g mask="url(#b)"><path fill="#020303" d="M25.721 85.953a.775.775 0 0 0-.787-.77l-12.067.074a.785.785 0 0 0-.779.785l.025 3.576.028 3.461a.78.78 0 0 0 .783.775l12.072-.079a.784.784 0 0 0 .778-.784l-.028-3.463-.025-3.575zm9.316-47.372l-32.915.22 5.761 44.031.002.052a.78.78 0 0 0 .787.77l7.91-.05 4.615-.03 7.91-.052a.79.79 0 0 0 .779-.783l-.002-.052 5.153-44.106zm.005-5.394c-.03-.049-.061-.096-.239-.098l-13.955.097-4.615.029-13.955.097c-.18-.001-.21.05-.239.096-.035.056-.125.247-.121.677l.07 3.083 33.156-.222.031-3.081c-.004-.43-.091-.622-.133-.678zm-.248-1.652c.454-.001 1.935.156 1.948 2.324l-.037 3.947-5.252 44.97a2.351 2.351 0 0 1-2.338 2.301l-1.995.009c.107.264.17.554.171.857l.049 7.032a2.347 2.347 0 0 1-2.337 2.354l-12.062.079a2.35 2.35 0 0 1-2.37-2.318l-.048-7.033a2.44 2.44 0 0 1 .156-.862l-1.994.017a2.354 2.354 0 0 1-2.367-2.265L.44 38.05l-.094-3.954c-.011-2.16 1.464-2.342 1.918-2.343l13.96-.092 4.61-.033 13.96-.093z"/><path fill="#FEFEFE" d="M34.803 33.089c.178.002.209.05.24.097.04.056.128.248.132.678l-.03 3.083-33.157.22-.07-3.082c-.004-.43.086-.621.122-.677.028-.047.06-.098.238-.097l13.955-.097 4.615-.028 13.955-.097zM2.122 38.801l32.915-.22-5.154 44.106.003.052a.79.79 0 0 1-.779.784l-7.91.051-4.615.029-7.91.051a.778.778 0 0 1-.786-.77l-.002-.051L2.122 38.8zm22.812 46.382a.774.774 0 0 1 .787.77l.024 3.575-.36.004-12.911.082-.362.004-.024-3.576a.785.785 0 0 1 .779-.785l12.067-.074z"/><path fill="#FEFEFE" d="M25.385 89.532l.36-.004.03 3.462a.783.783 0 0 1-.779.785l-12.073.08a.78.78 0 0 1-.781-.777l-.03-3.46.362-.004.01 1.162 12.914-.087-.013-1.157z"/><path fill="#020303" d="M12.474 89.614l12.91-.082.014 1.157-12.915.087z"/></g><path stroke="#020303" stroke-width=".9" d="M12 90.066L24.987 90l.013.93-12.99.07z" mask="url(#b)"/><path stroke="#020303" stroke-width=".9" d="M34.128 32l-13.426.09-4.433.033-13.425.089c-.436 0-1.854.178-1.844 2.274l.09 3.839 5.651 43.58a2.275 2.275 0 0 0 2.278 2.199l1.918-.017c-.097.26-.152.542-.151.836l.047 6.827A2.268 2.268 0 0 0 13.11 94l11.601-.076a2.266 2.266 0 0 0 2.246-2.285l-.046-6.827a2.25 2.25 0 0 0-.165-.832l1.919-.008a2.272 2.272 0 0 0 2.248-2.234l5.05-43.65.036-3.832c-.011-2.104-1.437-2.257-1.872-2.256z" mask="url(#b)"/><path stroke="#020303" stroke-width=".9" d="M2.122 33.313c.027-.046.059-.096.236-.095l13.847-.095 4.579-.028L34.63 33c.177.001.207.049.237.096.041.054.128.243.132.664l-.03 3.023L2.07 37 2 33.977c-.004-.422.087-.61.122-.664zM25.97 89.51l.03 3.593a.81.81 0 0 1-.797.814L12.855 94a.804.804 0 0 1-.8-.806l-.03-3.592-.025-3.71a.808.808 0 0 1 .796-.815L25.141 85c.442-.008.8.353.804.8l.025 3.71zm3.863-6.475l.002.051a.79.79 0 0 1-.78.783l-7.93.052-4.628.028-7.93.051a.78.78 0 0 1-.789-.768l-.002-.052L2 39.22 35 39l-5.167 44.035z" mask="url(#b)"/><path fill="#FEFEFE" d="M63 111l6 3" mask="url(#b)"/><path fill="#020303" d="M62.983 110L69 113.178 68.017 115 62 111.822zm-13.108-5l-2.437-1.282c-.524-.276-1.19-.86-1.384-2.078-.188-1.18.12-2.772.866-4.485.689-1.582 1.68-3.096 2.72-4.155L51 94.299c-1.857 1.89-3.352 5.317-3.076 7.05.089.556.327.682.405.723l2.437 1.282-.891 1.646z" mask="url(#b)"/><path fill="#FEFEFE" d="M74 104l-11-6" mask="url(#b)"/><path fill="#020303" d="M62.843 97L74 102.532 73.157 104 62 98.468z" mask="url(#b)"/><path fill="#020303" d="M73.412 103.766c-.884 0-2.445 1.168-3.6 3.333-1.357 2.541-1.222 4.698-.534 5.065a.64.64 0 0 0 .31.07c.883 0 2.446-1.168 3.6-3.332 1.358-2.543 1.223-4.699.534-5.066a.64.64 0 0 0-.31-.07M69.588 114a2.4 2.4 0 0 1-1.142-.277c-1.852-.988-1.935-4.194-.193-7.457 1.362-2.551 3.436-4.266 5.16-4.266.412 0 .796.094 1.142.278 1.85.987 1.934 4.193.192 7.455-1.362 2.552-3.435 4.267-5.16 4.267M56.5 117c-3.235 0-6.5-1.117-6.5-3.611V91.06h1.77v22.328c0 .566.838.983 1.199 1.136.902.382 2.19.6 3.531.6 1.34 0 2.629-.218 3.531-.6.36-.153 1.198-.57 1.198-1.136V91H63v22.389c0 2.494-3.265 3.611-6.5 3.611" mask="url(#b)"/><path fill="#020303" d="M51.735 105H50V90.019c0-1.753 1.495-2.643 2.387-3.019L53 88.809c-.38.16-1.265.598-1.265 1.21V105z" mask="url(#b)"/><path fill="#020303" d="M56.5 95c-3.706 0-6.5-1.663-6.5-3.868 0-1.215.87-2.321 2.386-3.034l.725 1.694c-.827.389-1.34.902-1.34 1.34 0 .82 1.842 2.012 4.729 2.012s4.73-1.192 4.73-2.012c0-.467-.591-1.021-1.504-1.414L60.398 88C62.05 88.712 63 89.853 63 91.132 63 93.337 60.206 95 56.5 95" mask="url(#b)"/><g mask="url(#b)"><path fill="#FEFEFE" d="M60.066 88.43v.301c0 .24-1.046.82-2.976.82-1.931 0-2.977-.58-2.977-.82a225.4 225.4 0 0 0-.054-4.22c-.062-3.436-.123-7.33.054-9.653.046-.596.815-1.796 2.43-3.143 1.408-1.17 2.739-1.828 3.354-1.905.008 1.246.031 3.46.062 6.023.046 3.871.1 8.694.107 12.596"/><path fill="#020303" d="M57.09 89.552c1.93 0 2.976-.58 2.976-.821v-.302c-.007-3.901-.061-8.725-.107-12.596-.031-2.562-.054-4.777-.062-6.023-.615.078-1.946.736-3.354 1.905-1.615 1.347-2.384 2.547-2.43 3.143-.177 2.322-.116 6.217-.054 9.654.03 1.556.054 3.035.054 4.219 0 .24 1.046.821 2.976.821m4.647-1.123v.302c0 1.533-1.823 2.516-4.647 2.516-2.823 0-4.646-.983-4.646-2.516 0-1.169-.023-2.64-.054-4.188-.061-3.476-.13-7.417.054-9.817.139-1.735 2.177-3.6 3.046-4.32 1.339-1.115 3.231-2.3 4.524-2.3.93 0 1.553.627 1.553 1.573 0 1.2.031 3.483.062 6.131.046 3.879.1 8.71.108 12.62"/></g></g></g></svg>