<svg xmlns="http://www.w3.org/2000/svg" width="160" height="160" fill="none"><g clip-path="url(#a)"><path fill="#231F20" d="M79.995 159.494a79.5 79.5 0 0 0 73.455-49.069A79.503 79.503 0 0 0 95.518 2.024 79.5 79.5 0 0 0 .505 79.995a79.59 79.59 0 0 0 79.49 79.499"/><path fill="#231F20" d="M79.995 158.989A79.084 79.084 0 0 0 110.402 6.858a79.083 79.083 0 0 0-86.229 128.969 78.753 78.753 0 0 0 55.821 23.162V160A80.005 80.005 0 1 1 160 79.995 80.09 80.09 0 0 1 79.995 160z"/><path fill="#fff" d="m19.44 112.189 4.986-.455-2.893 4.046zm.424 5.998.496.87 4.936-7.08-.647-1.123-8.557.738.465.81 2.023-.183 2.458 4.299zM27.592 115.81l-2.781 2.134c-1.184.921-2.023 1.649-2.195 2.721a3.6 3.6 0 0 0 .84 2.781 3.43 3.43 0 0 0 2.609 1.558 5.06 5.06 0 0 0 3.095-1.416l2.771-2.144-.546-.708-2.741 2.114c-1.062.819-1.8 1.304-2.61 1.244a2.56 2.56 0 0 1-1.911-1.163 2.63 2.63 0 0 1-.617-2.104c.141-.799.789-1.345 1.891-2.195l2.741-2.114zM34.288 125.075l-4.916 4.926.637.637 4.916-4.926 2.144 2.144.587-.586-4.916-4.926-.597.597zM38.678 137.991l.718.556 4.753-6.17-.718-.546-2.063 2.67-4.076-3.135 2.063-2.68-.718-.557-4.754 6.17.718.556 2.175-2.832 4.086 3.146zM44.503 137.232a3.25 3.25 0 0 1 4.39-1.215 3.247 3.247 0 0 1 1.284 4.371 3.14 3.14 0 0 1-1.926 1.537 3.2 3.2 0 0 1-1.255.088 3.2 3.2 0 0 1-1.188-.411 3.03 3.03 0 0 1-1.74-3.166c.057-.428.206-.838.435-1.204m-.779-.435a4.148 4.148 0 1 0 5.604-1.497 3.995 3.995 0 0 0-4.556.269 4 4 0 0 0-1.038 1.228zM53.778 142.472l1.254-3.287 2.762 1.011c.333.104.637.284.89.526a1.63 1.63 0 0 1 .354 1.77 1.74 1.74 0 0 1-1.386 1.234 2.2 2.2 0 0 1-1.012-.182zm.708-4.349-2.781 7.262.829.323.95-2.498 2.833 1.092.789 3.156 1.011.385-.88-3.379a2.51 2.51 0 0 0 2.62-1.426 2.51 2.51 0 0 0-.597-2.923 3.4 3.4 0 0 0-1.011-.597zM62.281 140.871l-2.13 7.502.866.246 2.13-7.502zM70.79 143.483l.122-.647-6.23-1.234-.152.809 5.007.991-6.494 5.108-.131.678 6.574 1.304.162-.809-5.381-1.062zM78.498 143.463l-6.089-.455-.577 7.768 6.251.465.06-.809-5.35-.395.203-2.731 4.582.334.06-.809-4.582-.334.193-2.609 5.188.384zM81.846 150.371l-.385-6.069 2.296-.151c.686-.081 1.381.01 2.023.263a2.66 2.66 0 0 1 1.578 2.589 2.9 2.9 0 0 1-1.386 2.69 3.6 3.6 0 0 1-1.84.526zm-.85.89 3.287-.212a4.6 4.6 0 0 0 2.165-.648 3.93 3.93 0 0 0 1.155-5.422 3.93 3.93 0 0 0-1.499-1.364 4.74 4.74 0 0 0-2.306-.344l-3.287.212zM94.833 146.113l-.88-3.409 2.862-.738c.327-.1.672-.131 1.011-.091a1.61 1.61 0 0 1 1.295 1.234 1.72 1.72 0 0 1-.465 1.79 2.2 2.2 0 0 1-.94.455zm-1.942-3.955 1.952 7.536.86-.223-.628-2.589 2.933-.759 2.479 2.114 1.011-.263-2.68-2.235a2.5 2.5 0 0 0 1.213-2.863 2.45 2.45 0 0 0-2.134-1.83 3.2 3.2 0 0 0-1.203.121zM106.677 137.586l-5.664 2.296 2.933 7.222 5.806-2.357-.304-.748-4.976 2.013-1.022-2.539 4.248-1.73-.303-.748-4.258 1.73-.981-2.428 4.824-1.952zM110.631 136.454l3.358 6.078.789-.435-3.358-6.088 2.65-1.457-.404-.738-6.089 3.368.404.728zM118.339 136.838l-1.012-4.906 4.38 2.448zm5.927-1.011.809-.587-7.515-4.167-1.012.748 1.629 8.436.758-.547-.394-1.962 4.046-2.892zM121.666 127.752l-.682.587 5.074 5.895.682-.587zM123.193 126.43l5.513 5.492 4.005-4.015-.587-.587-3.378 3.378-4.915-4.905zM131.78 116.68l-3.782 4.794 6.119 4.815 3.874-4.916-.638-.496-3.317 4.208-2.155-1.699 2.843-3.601-.638-.506-2.842 3.611-2.053-1.618 3.227-4.086zM137.06 116.488l-3.034-1.811 1.517-2.539c.168-.307.399-.576.678-.788a1.61 1.61 0 0 1 1.8 0 1.73 1.73 0 0 1 .921 1.608c-.036.36-.158.707-.354 1.011zm-4.157-1.457 6.686 4.046.455-.759-2.296-1.375 1.558-2.6 3.246-.232.557-.921-3.48.294a2.49 2.49 0 0 0-1.143-2.893 2.46 2.46 0 0 0-2.811.192 3.6 3.6 0 0 0-.769.941zM49.56 67.858h4.218V89.27h-4.217v-9.103H39.274v9.103h-4.187V67.858h4.187v7.788h10.287zM20.23 85.406a6.817 6.817 0 0 1 0-13.594 6.81 6.81 0 0 1 6.068 3.51l3.631-2.023a11.065 11.065 0 1 0 .253 10.236l-3.762-2.023a6.82 6.82 0 0 1-6.19 3.894m52.595-17.548L82.32 89.26h-4.703l-2.134-4.744H64.206l-2.124 4.744h-4.5l9.547-21.402zm.738 12.38-3.722-8.486-3.752 8.486zm43.715.313h9.689v-4.319h-9.639v-4.248h10.904v-4.126h-15.243V89.26h16.244v-4.107h-11.905zm22.251 4.602V67.858h-4.339V89.26h15.597v-4.107zm-38.465-4.51-9.194-12.785h-5.492V89.26h4.046V73.39l11.399 15.87h3.388V67.858h-4.147zM21.534 51.078l-3.035-3.985 4.987.293zm4.855-3.54.475-.88-8.547-.476-.617 1.133 5.118 6.858.445-.82-1.193-1.587 2.336-4.35zM21.108 41.408l2.812 2.023c1.214.88 2.144 1.467 3.206 1.335a3.53 3.53 0 0 0 2.428-1.567 3.4 3.4 0 0 0 .789-2.883 4.97 4.97 0 0 0-2.215-2.569l-2.812-2.023-.526.728 2.771 2.023c1.083.79 1.75 1.366 1.922 2.145a2.59 2.59 0 0 1-.576 2.164 2.7 2.7 0 0 1-1.851 1.173c-.8.081-1.497-.394-2.62-1.214l-2.781-2.022zM29.463 32.316l5.007 4.773.617-.647-5.007-4.784 2.084-2.175-.597-.576-4.784 5.007.596.576zM42.925 29.534l.698-.556-4.845-6.049-.708.557 2.114 2.63-4.005 3.206-2.104-2.62-.708.556 4.855 6.049.698-.556-2.225-2.782 4.005-3.206zM43.876 24.123a3.23 3.23 0 0 1 5.583-3.247 3.114 3.114 0 0 1-1.153 4.41 3.034 3.034 0 0 1-4.43-1.163m-.768.455a4.128 4.128 0 0 0 7.556-1.027 4.128 4.128 0 0 0-6.07-4.617 4.127 4.127 0 0 0-1.486 5.644M53.364 19.53l-1.305-3.246 2.73-1.112a2.4 2.4 0 0 1 1.012-.223 1.61 1.61 0 0 1 1.446 1.011 1.72 1.72 0 0 1-.232 1.831 2.36 2.36 0 0 1-.87.567zm-2.428-3.66 2.903 7.19.82-.323-1.012-2.468 2.791-1.122 2.721 1.77 1.011-.405-2.943-1.861a2.498 2.498 0 0 0-1.497-4.49 3.6 3.6 0 0 0-1.173.282zM60.57 12.39l-.864.255 2.193 7.43.864-.254zM69.526 11.015l-.131-.638-6.2 1.244.162.8 4.986-.992-4.026 7.172.142.677 6.544-1.315-.162-.799-5.35 1.072zM78.063 9.609l-6.069.445.556 7.727 6.23-.445-.06-.81-5.33.385-.192-2.71 4.561-.334-.06-.81-4.562.334-.192-2.599 5.168-.374zM81.623 16.557l.405-6.068 2.286.151a4.2 4.2 0 0 1 1.931.496 2.66 2.66 0 0 1 1.224 2.761 2.9 2.9 0 0 1-1.638 2.529c-.591.26-1.24.361-1.882.293zm-.95.769 3.276.212a4.6 4.6 0 0 0 2.216-.343 3.68 3.68 0 0 0 2.204-3.237 3.63 3.63 0 0 0-1.679-3.51 4.74 4.74 0 0 0-2.235-.627l-3.277-.212zM95.47 15.748l.93-3.378 2.843.789c.343.075.664.227.94.445a1.575 1.575 0 0 1 .506 1.71 1.71 1.71 0 0 1-1.285 1.314c-.339.05-.685.023-1.011-.08zm.293-4.38-2.023 7.475.85.243.708-2.57 2.903.8 1.092 3.034 1.011.284-1.183-3.237a2.5 2.5 0 0 0 1.548-4.501 3.5 3.5 0 0 0-1.113-.486zM110.469 16.527l-5.593-2.387-3.044 7.13 5.734 2.448.314-.738-4.906-2.104 1.073-2.498 4.207 1.79.314-.738-4.208-1.8 1.022-2.398 4.774 2.043zM114.556 19.703l-3.49 5.977.779.456 3.49-5.978 2.599 1.517.425-.718-5.978-3.49-.425.719zM117.803 26.864l4.409-2.326-1.082 4.875zm2.7 5.35.789.607 1.831-8.364-1.012-.779-7.575 3.965.738.566 1.75-.93 3.914 3.034zM127.301 27.97l-5.254 5.707.663.61 5.254-5.708zM130.223 30.748l-5.704 5.24 3.813 4.156.607-.566-3.207-3.49 5.098-4.683zM139.043 41.682l-3.541-4.946-6.301 4.52 3.631 5.068.658-.475-3.105-4.34 2.205-1.587 2.67 3.722.657-.476-2.66-3.712 2.114-1.517 3.014 4.208zM137.303 47.123l3.085-1.608 1.385 2.6c.187.306.298.653.324 1.01a1.61 1.61 0 0 1-.89 1.558 1.73 1.73 0 0 1-1.841 0 2.3 2.3 0 0 1-.657-.809zm3.378-2.791-6.837 3.64.414.78 2.347-1.214 1.406 2.66-1.467 2.852.506.95 1.517-3.114a2.5 2.5 0 0 0 2.913.59 2.5 2.5 0 0 0 1.416-2.613 3.5 3.5 0 0 0-.404-1.133z"/></g><defs><clipPath id="a"><path fill="#fff" d="M0 0h160v160H0z"/></clipPath></defs></svg>