<svg width="54" height="25" viewBox="0 0 54 25" fill="none" xmlns="http://www.w3.org/2000/svg">
    <rect x="0.818115" y="0.5" width="52.3636" height="24" rx="3.27273" fill="#FFA8CD" />
    <path
        d="M13.6297 7.34375H11.3721C11.3721 9.20311 10.5218 10.8999 9.04371 12.0175L8.15283 12.6881L11.6151 17.4229H14.4598L11.2709 13.0641C12.7793 11.5603 13.6297 9.52824 13.6297 7.34375Z"
        fill="#0B051D" />
    <path d="M7.86922 7.34375H5.56104V17.4229H7.86922V7.34375Z" fill="#0B051D" />
    <path d="M17.3043 7.34375H15.1277V17.4229H17.3043V7.34375Z" fill="#0B051D" />
    <path
        d="M36.3975 10.2598C35.5673 10.2598 34.7777 10.5138 34.2513 11.2352V10.4528H32.186V17.4229H34.2816V13.7651C34.2816 12.7084 34.9903 12.1902 35.8407 12.1902C36.7518 12.1902 37.2782 12.7389 37.2782 13.7549V17.433H39.3535V12.9929C39.3535 11.3673 38.0679 10.2598 36.3975 10.2598Z"
        fill="#0B051D" />
    <path
        d="M23.885 10.4528V10.8999C23.2978 10.4935 22.5892 10.2598 21.8198 10.2598C19.7951 10.2598 18.155 11.9058 18.155 13.9378C18.155 15.9699 19.7951 17.6159 21.8198 17.6159C22.5892 17.6159 23.2978 17.3822 23.885 16.9758V17.4229H25.9603V10.4528H23.885ZM21.9919 15.7261C20.9491 15.7261 20.1089 14.9234 20.1089 13.9378C20.1089 12.9523 20.9491 12.1496 21.9919 12.1496C23.0346 12.1496 23.8749 12.9523 23.8749 13.9378C23.8749 14.9234 23.0346 15.7261 21.9919 15.7261Z"
        fill="#0B051D" />
    <path
        d="M29.1794 11.3564V10.4521H27.0535V17.4222H29.1895V14.1709C29.1895 13.0735 30.374 12.4842 31.194 12.4842C31.2041 12.4842 31.2143 12.4842 31.2143 12.4842V10.4521C30.374 10.4521 29.5945 10.8179 29.1794 11.3564Z"
        fill="#0B051D" />
    <path
        d="M45.8125 10.4528V10.8999C45.2253 10.4935 44.5167 10.2598 43.7473 10.2598C41.7225 10.2598 40.0825 11.9058 40.0825 13.9378C40.0825 15.9699 41.7225 17.6159 43.7473 17.6159C44.5167 17.6159 45.2253 17.3822 45.8125 16.9758V17.4229H47.8878V10.4528H45.8125ZM43.9194 15.7261C42.8766 15.7261 42.0364 14.9234 42.0364 13.9378C42.0364 12.9523 42.8766 12.1496 43.9194 12.1496C44.9621 12.1496 45.8024 12.9523 45.8024 13.9378C45.8125 14.9234 44.9621 15.7261 43.9194 15.7261Z"
        fill="#0B051D" />
</svg>