<svg width="53" height="17" viewBox="0 0 53 17" fill="none" xmlns="http://www.w3.org/2000/svg">
    <path
        d="M25.9321 12.5734L34.7737 3.62766H27.9877V0.828834H41.703L32.9255 9.82277H39.7878C40.1795 10.8835 40.8924 11.8675 41.8711 12.5734H25.9321ZM43.6481 7.94605H52.5035C52.574 7.54674 52.6209 7.14739 52.6209 6.70112C52.6209 3.24823 50.1546 0.5 46.6782 0.5C42.9904 0.5 40.4771 3.20126 40.4771 6.70112C40.4771 10.201 42.9669 12.9022 46.9131 12.9022C49.1681 12.9022 50.9297 11.9862 52.0337 10.3889L49.5909 8.97958C49.0741 9.66074 48.1345 10.154 46.9601 10.154C45.3628 10.154 44.0709 9.49632 43.6481 7.94605ZM43.6011 5.59716C43.9535 4.09386 45.0575 3.22474 46.6782 3.22474C47.9466 3.22474 49.215 3.90591 49.5909 5.59716H43.6011ZM7.21421 0.500001C5.49951 0.500001 4.25458 1.13421 3.40895 2.2147V0.828838H0.378906V16.5H3.40895V11.1875C4.25458 12.268 5.49951 12.9022 7.21421 12.9022C10.3617 12.9022 12.9456 10.201 12.9456 6.70112C12.9456 3.20126 10.3617 0.500001 7.21421 0.500001ZM6.65044 10.0131C4.79481 10.0131 3.40895 8.67419 3.40895 6.70112C3.40895 4.72805 4.79481 3.38916 6.65044 3.38916C8.5296 3.38916 9.91546 4.72805 9.91546 6.70112C9.91546 8.67419 8.5296 10.0131 6.65044 10.0131ZM26.1958 10.6908L24.3351 12.5734H23.1656V11.1875C22.32 12.2446 21.0516 12.9022 19.3369 12.9022C16.2129 12.9022 13.6291 10.201 13.6291 6.70112C13.6291 3.20126 16.2129 0.5 19.3369 0.5C21.0516 0.5 22.32 1.1577 23.1656 2.2147V0.828837H26.1958V10.6908ZM23.1656 6.70112C23.1656 4.72805 21.7797 3.38916 19.9006 3.38916C18.045 3.38916 16.6591 4.72805 16.6591 6.70112C16.6591 8.67419 18.045 10.0131 19.9006 10.0131C21.7797 10.0131 23.1656 8.67419 23.1656 6.70112Z"
        fill="white" />
</svg>