<svg xmlns="http://www.w3.org/2000/svg" xmlns:xlink="http://www.w3.org/1999/xlink" width="128" height="128"><defs><path id="a" d="M18.913 85c.693 0 1.255.563 1.255 1.255 0 2.77 2.25 5.022 5.02 5.022a1.254 1.254 0 011.24 1.441 1.254 1.254 0 01-1.24 1.44 5.026 5.026 0 00-5.02 5.022 1.255 1.255 0 01-1.447 1.24 1.257 1.257 0 01-1.447-1.24c0-2.77-2.25-5.022-5.02-5.022a1.254 1.254 0 01-1.24-1.441 1.254 1.254 0 011.24-1.44 5.025 5.025 0 005.02-5.022 1.255 1.255 0 011.448-1.24 1.22 1.22 0 01.19-.015zm-.192 5.112l-.084.137a7.586 7.586 0 01-2.517 2.469 7.58 7.58 0 012.601 2.605 7.584 7.584 0 012.601-2.606 7.579 7.579 0 01-2.601-2.605z"/><path id="b" d="M109.913 10c.693 0 1.255.563 1.255 1.255 0 2.77 2.25 5.022 5.02 5.022a1.254 1.254 0 011.24 1.441 1.254 1.254 0 01-1.24 1.44 5.026 5.026 0 00-5.02 5.022 1.255 1.255 0 01-1.447 1.24 1.257 1.257 0 01-1.447-1.24c0-2.77-2.25-5.022-5.02-5.022a1.254 1.254 0 01-1.24-1.441 1.254 1.254 0 011.24-1.44 5.025 5.025 0 005.02-5.022 1.255 1.255 0 011.448-1.24 1.22 1.22 0 01.19-.015zm-.192 5.112l-.084.137a7.586 7.586 0 01-2.517 2.469 7.58 7.58 0 012.601 2.605 7.584 7.584 0 012.601-2.606 7.579 7.579 0 01-2.601-2.605z"/><path id="c" d="M38.758 106.486c-.477 0-.916-.193-1.248-.51a1.843 1.843 0 01-.51-1.247c0-.474.193-.913.51-1.248.631-.632 1.828-.65 2.494 0 .316.334.511.773.511 1.248 0 .456-.195.914-.511 1.247-.333.317-.79.51-1.246.51z"/><path id="d" d="M105.913 91c.693 0 1.255.563 1.255 1.255 0 2.77 2.25 5.022 5.02 5.022a1.254 1.254 0 011.24 1.441 1.254 1.254 0 01-1.24 1.44 5.026 5.026 0 00-5.02 5.022 1.255 1.255 0 01-1.447 1.24 1.257 1.257 0 01-1.447-1.24c0-2.77-2.25-5.022-5.02-5.022a1.254 1.254 0 01-1.24-1.441 1.254 1.254 0 011.24-1.44 5.025 5.025 0 005.02-5.022 1.255 1.255 0 011.448-1.24 1.22 1.22 0 01.19-.015zm-.192 5.112l-.084.137a7.586 7.586 0 01-2.517 2.469 7.58 7.58 0 012.601 2.605 7.584 7.584 0 012.601-2.606 7.579 7.579 0 01-2.601-2.605z"/></defs><g fill="#000" fill-rule="evenodd"><path d="M19.483 26.474c.826 0 1.497.67 1.497 1.497v4.492a1.498 1.498 0 01-2.995 0V27.97c0-.826.671-1.497 1.498-1.497zm-4.493-4.491a1.498 1.498 0 010 2.994h-4.492a1.498 1.498 0 010-2.994h4.492zm13.478 0a1.498 1.498 0 010 2.994h-4.493a1.498 1.498 0 010-2.994h4.493zM19.483 13c.826 0 1.497.67 1.497 1.497v4.492a1.498 1.498 0 01-2.995 0v-4.492c0-.826.671-1.497 1.498-1.497zm0 11.977c-.39 0-.779-.165-1.063-.434a1.574 1.574 0 01-.435-1.063c0-.39.165-.779.435-1.063.569-.554 1.557-.554 2.126 0 .27.284.434.674.434 1.063 0 .39-.164.778-.434 1.063-.284.27-.674.434-1.063.434zM77.386 114.78c.662 0 1.198.536 1.198 1.197v3.593a1.198 1.198 0 01-2.396 0v-3.593c0-.661.537-1.198 1.198-1.198zm-3.594-3.594a1.198 1.198 0 010 2.396h-3.594a1.198 1.198 0 010-2.396h3.594zm10.783 0a1.198 1.198 0 010 2.396H80.98a1.198 1.198 0 010-2.396h3.595zM77.386 104c.662 0 1.198.537 1.198 1.198v3.593a1.198 1.198 0 01-2.396 0v-3.593c0-.661.537-1.198 1.198-1.198zm0 9.582a1.26 1.26 0 01-.85-.348 1.26 1.26 0 01-.348-.85c0-.311.132-.623.348-.85.455-.444 1.246-.444 1.7 0 .217.227.348.539.348.85 0 .311-.131.623-.347.85a1.26 1.26 0 01-.85.348z" fill-rule="nonzero"/><use xlink:href="#a"/><use xlink:href="#b"/><use xlink:href="#c"/><use xlink:href="#d"/><path d="M36.106 68.843a33.083 33.083 0 01-.203-1.583c-1.635-15.954 8.707-30.422 23.675-34.29a31.707 31.707 0 014.641-.84 32.11 32.11 0 013.942-.157c2.672.054 5.3.442 7.839 1.154a29.8 29.8 0 00-19.878-4.962c-16.578 1.728-28.673 16.732-26.96 33.447.973 9.5 6.203 17.533 13.577 22.388a31.956 31.956 0 01-4.181-6.833 31.983 31.983 0 01-2.452-8.324"/><path d="M91.27 78.806c-4.655 6.354-12.21 10.442-20.667 10.308a25.15 25.15 0 01-1.823-.103 24.914 24.914 0 01-7.948-2.046 24.99 24.99 0 01-4.373-2.501 25.267 25.267 0 01-3.58-3.093c-4.421-4.61-7.102-10.893-6.993-17.77.219-13.847 11.665-24.935 25.512-24.716a25.118 25.118 0 0110.28 2.389 25.092 25.092 0 014.388 2.646c.394.297.783.602 1.159.92 5.539 4.699 9.014 11.745 8.89 19.557a25.057 25.057 0 01-.311 3.538 24.96 24.96 0 01-4.534 10.871m-.477-37.323a29.961 29.961 0 00-16.292-7.28c-.173-.02-.348-.03-.52-.048a30.396 30.396 0 00-2.506-.152 30.533 30.533 0 00-2.238.056 29.832 29.832 0 00-15.56 5.467c-7.532 5.346-12.516 14.077-12.673 23.999a30.043 30.043 0 00.338 4.96 29.756 29.756 0 002.699 8.65 30.11 30.11 0 002.753 4.56 30.236 30.236 0 005.06 5.375 29.84 29.84 0 0016.844 6.835c.605.047 1.212.081 1.827.091 16.54.262 30.21-12.98 30.471-29.52.145-9.133-3.832-17.385-10.203-22.993"/><path d="M71.82 66.017l-1.016.107-.973-9.58c.394-.077.756-.116 1.12-.154 3.114-.328 5.16.687 5.504 4.076.31 3.058-1.194 5.19-4.636 5.551M69.933 52.14c-1.486.156-4.256.634-5.933 1.07L66.62 79l5.434-.57-.823-8.107.76-.08c5.761-.605 10.648-3.688 9.94-10.65-.65-6.411-5.477-8.138-11.998-7.453"/></g></svg>