<svg xmlns="http://www.w3.org/2000/svg" xmlns:xlink="http://www.w3.org/1999/xlink" width="128" height="128" viewBox="0 0 128 128"><defs><path id="a" d="M29.758 96.486c-.477 0-.916-.193-1.248-.51A1.843 1.843 0 0 1 28 94.73c0-.474.193-.913.51-1.248.63-.632 1.828-.65 2.494 0 .316.334.51.773.51 1.248 0 .456-.194.914-.51 1.247-.333.317-.79.51-1.246.51z"/><path id="b" d="M104.428 88.717a1.254 1.254 0 0 1-1.24 1.44 5.026 5.026 0 0 0-5.02 5.023 1.255 1.255 0 0 1-1.447 1.24 1.255 1.255 0 0 1-1.446-1.24c0-2.77-2.25-5.022-5.02-5.022a1.254 1.254 0 0 1-1.24-1.44 1.254 1.254 0 0 1 1.24-1.44 5.025 5.025 0 0 0 5.02-5.023 1.255 1.255 0 0 1 1.447-1.24 1.255 1.255 0 0 1 1.448 1.24c0 2.77 2.25 5.022 5.02 5.022a1.254 1.254 0 0 1 1.24 1.44zm-5.106 0a7.586 7.586 0 0 1-2.6-2.605 7.586 7.586 0 0 1-2.6 2.605 7.587 7.587 0 0 1 2.6 2.606 7.587 7.587 0 0 1 2.6-2.606z"/><path id="c" d="M0 .52h81V73H0z"/></defs><g fill="none" fill-rule="evenodd" transform="translate(9 10)"><path d="M10.483 14.486c-.827 0-1.498-.67-1.498-1.497V8.496a1.498 1.498 0 0 1 2.995 0v4.492c0 .825-.67 1.496-1.497 1.496zm0 13.474c-.827 0-1.498-.67-1.498-1.497V21.97a1.498 1.498 0 0 1 2.995 0v4.492c0 .826-.67 1.497-1.497 1.497zM5.99 18.977H1.498a1.498 1.498 0 0 1 0-2.994H5.99a1.498 1.498 0 0 1 0 2.994zm13.478 0h-4.493a1.498 1.498 0 0 1 0-2.994h4.493a1.498 1.498 0 0 1 0 2.994zm-8.985 0c-.39 0-.78-.165-1.063-.434a1.574 1.574 0 0 1-.435-1.063c0-.39.165-.78.435-1.063.57-.554 1.557-.554 2.126 0 .27.284.434.674.434 1.063 0 .39-.164.778-.434 1.063-.284.27-.674.434-1.063.434zM68.483 99.486c-.827 0-1.498-.67-1.498-1.497v-4.493a1.498 1.498 0 0 1 2.995 0v4.492c0 .825-.67 1.496-1.497 1.496zm0 13.474c-.827 0-1.498-.67-1.498-1.497v-4.492a1.498 1.498 0 0 1 2.995 0v4.493c0 .826-.67 1.497-1.497 1.497zm-4.493-8.983h-4.492a1.498 1.498 0 0 1 0-2.994h4.492a1.498 1.498 0 0 1 0 2.994zm13.478 0h-4.493a1.498 1.498 0 0 1 0-2.994h4.493a1.498 1.498 0 0 1 0 2.994zm-8.985 0c-.39 0-.78-.165-1.063-.434a1.574 1.574 0 0 1-.435-1.063c0-.39.165-.78.435-1.063.57-.554 1.557-.554 2.126 0 .27.284.434.674.434 1.063 0 .39-.164.778-.434 1.063-.284.27-.674.434-1.063.434zM16.473 80.486a1.497 1.497 0 1 1 0 2.994 5.995 5.995 0 0 0-5.99 5.988 1.497 1.497 0 1 1-2.995 0 5.995 5.995 0 0 0-5.99-5.988 1.497 1.497 0 1 1 0-2.994 5.995 5.995 0 0 0 5.99-5.99 1.497 1.497 0 1 1 2.995 0 5.995 5.995 0 0 0 5.99 5.99zm-4.963 1.497a9.055 9.055 0 0 1-2.525-2.525 9.055 9.055 0 0 1-2.525 2.525c1 .665 1.86 1.524 2.525 2.524.665-1 1.525-1.86 2.525-2.524zm97.963-74.497a1.497 1.497 0 1 1 0 2.994 5.995 5.995 0 0 0-5.99 5.988 1.497 1.497 0 1 1-2.995 0 5.995 5.995 0 0 0-5.99-5.988 1.497 1.497 0 1 1 0-2.994 5.995 5.995 0 0 0 5.99-5.99 1.497 1.497 0 1 1 2.995 0 5.995 5.995 0 0 0 5.99 5.99zm-4.963 1.497a9.055 9.055 0 0 1-2.525-2.525 9.055 9.055 0 0 1-2.525 2.525c1 .665 1.86 1.524 2.525 2.524.665-1 1.525-1.86 2.525-2.524z" fill="#000" fill-rule="nonzero"/><use fill="#000" xlink:href="#a"/><use fill="#000" xlink:href="#b"/><path fill="#000" d="M47.018 20.858c-.475 0-.915-.194-1.247-.51a1.842 1.842 0 0 1-.508-1.248c0-.477.192-.916.51-1.25.65-.65 1.844-.65 2.494 0 .316.334.51.773.51 1.25 0 .456-.194.914-.51 1.247-.334.317-.79.51-1.248.51z"/><g transform="translate(16 8)"><mask id="d" fill="#fff"><use xlink:href="#c"/></mask><path fill="#000" d="M72.837 26.326a6.773 6.773 0 0 1-.68 1.483c-.163-.123-.333-.236-.482-.37-1.062-1-2.012-2.423-2.154-3.564-.082-.568 0-1.012.16-1.353.165-.34.436-.648.862-.854.418-.205.935-.254 1.344-.11.413.137.725.43.958.88.47.902.427 2.57-.007 3.886M59.324 57.218l-.598.5-.1 11.9H53.64a.07.07 0 0 1-.06-.037l-3.066-5.602c2.05-1.057 3.933-2.413 5.457-4.15-3.166.565-6.054 1.097-8.943 1.412a74.623 74.623 0 0 1-8.555.487 72.43 72.43 0 0 1-8.554-.52l-1.082-.135c-.364-.04-.713-.13-1.077-.18a51.76 51.76 0 0 0-2.206-.33c-.74-.123-1.465-.305-2.232-.427-.38-.07-.77-.127-1.162-.188-.39-.068-.77-.157-1.177-.213.26.31.545.59.823.888.294.267.597.527.906.78.62.504 1.252 1.02 1.923 1.464a50.96 50.96 0 0 0 2.102 1.184l.013.007-3.023 5.523a.07.07 0 0 1-.06.037H18.51V65.19c0-4.7-2.1-9.077-5.76-12.007L3.4 45.69a.07.07 0 0 1-.026-.054v-8.8c0-.035.023-.062.056-.068l2.17-.376c3.04-.526 5.76-2.352 7.464-5.01A23.164 23.164 0 0 1 16.7 27.03l.53-.502v-9.705a7.864 7.864 0 0 1 5.324 4.164l.72 1.434 1.464-.644a32.964 32.964 0 0 1 5.985-1.954 11.245 11.245 0 0 0 2.834 2.018c-1.253.234-2.483.55-3.68.96l1.09 3.2c2.402-.82 4.957-1.24 7.593-1.24 2.635 0 5.19.42 7.59 1.24l1.09-3.2a26.057 26.057 0 0 0-3.677-.96c1.05-.527 2.01-1.21 2.842-2.025C58.36 22.53 67.14 31.28 67.14 41.635c0 5.814-2.777 11.348-7.816 15.583M38.06 12.574c-1.064-.374-2.373-.844-2.373-2.393 0-1.09.648-2.21 2.164-2.556V6.71l1.613-.055v.912c.65.07 1.296.25 1.958.553l-.58 1.507c-.646-.304-1.362-.483-1.914-.483-.772 0-1.117.4-1.117.843 0 .47.4.733.937.954 1.13.456 2.908.733 2.908 2.42 0 .91-.492 1.725-1.328 2.236-.268.163-.57.297-.905.39v1.135l-1.613.057V16.14a5.987 5.987 0 0 1-1.98-.48 6.474 6.474 0 0 1-.53-.252l.69-1.52c.704.33 1.448.55 2.136.55.896 0 1.268-.427 1.268-.884 0-.497-.606-.718-1.335-.98m37.81 16.784a9.618 9.618 0 0 1-.613-.115c.33-.584.613-1.198.824-1.848a10.73 10.73 0 0 0 .524-3.118c.013-1.068-.13-2.234-.685-3.37-.54-1.135-1.597-2.152-2.855-2.608a5.6 5.6 0 0 0-3.833-.01c-1.22.426-2.366 1.372-2.94 2.646-.3.626-.433 1.312-.464 1.97a5.955 5.955 0 0 0 .27 1.864c.376 1.147.998 2.072 1.677 2.852a10.358 10.358 0 0 0 2.34 1.977c.115.07.234.13.352.195a13.346 13.346 0 0 1-2.46 1.72c-3.57-6.896-10.677-12.28-19.452-14.646a11.203 11.203 0 0 0 1.226-5.092c0-6.208-5.033-11.26-11.22-11.26-6.19 0-11.223 5.05-11.223 11.26 0 1.833.448 3.56 1.227 5.092-1.298.348-2.57.755-3.803 1.236a11.206 11.206 0 0 0-7.62-4.736 2.867 2.867 0 0 0-3.282 2.837v8.87a26.32 26.32 0 0 0-3.63 4.476c-1.194 1.862-3.09 3.14-5.2 3.505l-2.17.376A3.44 3.44 0 0 0 0 36.836v8.8c0 1.056.47 2.04 1.294 2.698l9.353 7.493a11.935 11.935 0 0 1 4.49 9.362v4.945A2.864 2.864 0 0 0 17.995 73h5.672a3.44 3.44 0 0 0 3.017-1.79l3.185-5.82a27.147 27.147 0 0 0 8.59 1.41 27.008 27.008 0 0 0 8.94-1.482l3.225 5.89A3.44 3.44 0 0 0 53.64 73h5.498a2.868 2.868 0 0 0 2.855-2.84l.093-10.864c5.44-4.823 8.426-11.066 8.426-17.66 0-2.423-.415-4.767-1.175-6.993a16.938 16.938 0 0 0 3.26-2.187c.542-.467 1.057-.99 1.527-1.562a9.372 9.372 0 0 0 1.71-.008 11.48 11.48 0 0 0 5.166-1.8c-1.734.415-3.498.513-5.13.272" mask="url(#d)"/></g><path fill="#000" d="M38 41a3 3 0 1 0 0 6 3 3 0 0 0 0-6"/></g></svg>