<svg width="60" height="60" fill="none" xmlns="http://www.w3.org/2000/svg"><path d="M30 60c16.569 0 30-13.431 30-30C60 13.431 46.569 0 30 0 13.431 0 0 13.431 0 30c0 16.569 13.431 30 30 30z" fill="#BBD9EA"/><path d="M44.523 33.546h-4.998v-6.192c.54.498 1.257.801 2.046.801a3.025 3.025 0 003.02-3.021v-1.56L40.255 15H19.746l-4.335 8.574v1.56c0 .846.339 1.629.954 2.205a2.997 2.997 0 002.07.816c.066 0 .132-.003.198-.006a2.937 2.937 0 001.773-.756v6.15h-4.93v2.292h29.047v-2.289zm-6.813 0H22.22v-6.147c.532.471 1.23.756 1.996.756a3.026 3.026 0 002.892-2.148A3.025 3.025 0 0030 28.155a3.024 3.024 0 002.892-2.151 3.028 3.028 0 002.892 2.151c.732 0 1.404-.264 1.926-.699v6.09zM44.523 38.127H15.477v2.291h29.046v-2.291zM44.523 42.709H15.477V45h29.046V42.71z" fill="#000"/><path d="M44.523 35.835H15.477v2.292h29.046v-2.292zM44.523 40.418H15.477v2.292h29.046v-2.292z" fill="#fff"/></svg>