<svg width="147" height="20" viewBox="0 0 147 20" fill="none" xmlns="http://www.w3.org/2000/svg">
<g clip-path="url(#clip0_1321_610)">
<path fill-rule="evenodd" clip-rule="evenodd" d="M9.99065 1.72933C9.99065 1.72933 9.93193 1.89676 9.10653 4.12798C6.74888 2.25624 2.79749 2.39318 2.79749 5.2722C2.79749 8.64925 11.0498 8.22505 10.7933 14.2543C10.5878 19.0949 4.61115 20.206 0 17.8737C0.403282 17.021 0.822075 16.1988 1.10792 15.5253C4.59398 17.5805 7.59644 16.638 8.08946 14.985C9.4378 10.4616 0.0371152 11.8589 0.0371152 5.44445C0.0371152 2.74677 3.16975 -1.44712 9.99065 1.72933Z" fill="black"/>
<path fill-rule="evenodd" clip-rule="evenodd" d="M18.8989 1.35913H29.6981C29.6981 1.35913 29.667 2.32882 29.6877 3.7092H21.6034V8.52661H27.3376C27.3169 9.48666 27.3272 10.2411 27.3272 10.7364H21.6034V16.742H29.6877C29.682 17.2067 29.6789 18.6123 29.6877 19.0476H18.9093L18.8989 1.35913Z" fill="black"/>
<path fill-rule="evenodd" clip-rule="evenodd" d="M44.6205 10.0278C43.9685 10.0278 43.4868 10.0198 42.8254 10.0171C42.8264 6.71693 42.8317 3.63133 42.8317 3.63133C42.8317 3.63133 43.6195 3.62812 44.3645 3.62812C45.0766 3.62812 49.2252 3.30596 49.359 6.60616C49.4906 9.86034 46.2254 10.0278 44.6205 10.0278ZM44.7809 1.39338C43.8232 1.37037 41.8207 1.35913 40.1113 1.35913L40.1176 19.0476H42.8348C42.8348 19.0476 42.8264 15.6709 42.8254 12.3418C43.4993 12.3305 44.8979 12.2931 46.0274 12.261C47.5937 12.2149 51.71 11.4342 51.6817 6.58315C51.6488 1.13116 45.7333 1.41479 44.7809 1.39338Z" fill="black"/>
<path fill-rule="evenodd" clip-rule="evenodd" d="M114.445 9.54739C113.811 9.54739 113.353 9.53506 112.71 9.53078C112.712 6.42389 112.72 3.5614 112.72 3.5614C112.72 3.5614 113.462 3.55121 114.182 3.55121C114.87 3.55121 118.545 3.34434 118.856 6.22613C119.225 9.63046 115.196 9.54739 114.445 9.54739ZM120.427 19.0465H123.805L118.197 11.1107C119.707 10.5576 121.456 9.27352 121.235 6.33921C120.84 1.08264 115.688 1.47227 114.585 1.42136C113.655 1.37741 111.656 1.35222 109.92 1.3608V19.0476H112.72C112.72 19.0476 112.711 15.0896 112.709 11.5915C113.637 11.5947 113.969 11.5781 115.367 11.5411L120.427 19.0465Z" fill="black"/>
<path fill-rule="evenodd" clip-rule="evenodd" d="M71.689 8.02284V1.35913H74.4373V18.2785H71.689V10.2352L62.5285 10.247V18.2785H59.7812V1.35913H62.5285V8.02284H71.689Z" fill="black"/>
<path fill-rule="evenodd" clip-rule="evenodd" d="M93.119 0.590088C87.4099 0.590088 83.6938 4.72234 83.6938 9.81832C83.6938 14.9164 87.4099 19.0476 93.119 19.0476C98.8281 19.0476 102.544 14.9164 102.544 9.81832C102.544 4.72234 98.8281 0.590088 93.119 0.590088ZM93.119 3.10183C88.9338 3.10183 86.5568 6.10893 86.5568 9.81832C86.5568 13.5282 88.9105 16.5364 93.119 16.5364C97.3275 16.5364 99.6812 13.5282 99.6812 9.81832C99.6812 6.10893 97.3041 3.10183 93.119 3.10183ZM135.981 12.5317L141.822 12.4957L138.855 3.87398H138.816L135.981 12.5317ZM137.264 1.09762H140.514L146.946 18.6295L144.07 18.6226C144.07 18.6226 143.435 16.8534 142.586 14.5105L135.331 14.555C135.331 14.555 135.039 15.4573 134.175 18.6237H131.401L137.264 1.09762Z" fill="black"/>
</g>
<defs>
<clipPath id="clip0_1321_610">
<rect width="147" height="20" fill="white"/>
</clipPath>
</defs>
</svg>
