<svg width="24" height="24" viewBox="0 0 24 24" fill="none" xmlns="http://www.w3.org/2000/svg">
<path d="M21 3.5C21 3.43433 20.9871 3.36929 20.962 3.30861C20.9369 3.24793 20.9001 3.1928 20.8536 3.14636C20.8072 3.09992 20.7521 3.0631 20.6914 3.03798C20.6307 3.01287 20.5657 2.99996 20.5 3C19.8372 2.99922 19.2018 2.73558 18.7331 2.26691C18.2644 1.79824 18.0008 1.1628 18 0.5C18 0.367392 17.9473 0.240215 17.8536 0.146447C17.7598 0.0526784 17.6326 0 17.5 0C17.3674 0 17.2402 0.0526784 17.1464 0.146447C17.0527 0.240215 17 0.367392 17 0.5C16.9992 1.1628 16.7356 1.79824 16.2669 2.26691C15.7982 2.73558 15.1628 2.99922 14.5 3C14.3674 3 14.2402 3.05268 14.1464 3.14645C14.0527 3.24021 14 3.36739 14 3.5C14 3.63261 14.0527 3.75979 14.1464 3.85355C14.2402 3.94732 14.3674 4 14.5 4C15.1628 4.00078 15.7982 4.26442 16.2669 4.73309C16.7356 5.20176 16.9992 5.8372 17 6.5C17 6.63261 17.0527 6.75979 17.1464 6.85355C17.2402 6.94732 17.3674 7 17.5 7C17.6326 7 17.7598 6.94732 17.8536 6.85355C17.9473 6.75979 18 6.63261 18 6.5C18.0008 5.8372 18.2644 5.20176 18.7331 4.73309C19.2018 4.26442 19.8372 4.00078 20.5 4C20.5657 4.00004 20.6307 3.98713 20.6914 3.96202C20.7521 3.9369 20.8072 3.90008 20.8536 3.85364C20.9001 3.8072 20.9369 3.75207 20.962 3.69139C20.9871 3.63071 21 3.56567 21 3.5ZM17.5 4.726C17.2005 4.22107 16.7789 3.79949 16.274 3.5C16.7789 3.20051 17.2005 2.77893 17.5 2.274C17.7995 2.77893 18.2211 3.20051 18.726 3.5C18.2211 3.79949 17.7995 4.22107 17.5 4.726Z" fill="black"/>
<path d="M9.5 20C8.8372 19.9992 8.20176 19.7356 7.73309 19.2669C7.26442 18.7982 7.00078 18.1628 7 17.5C7 17.3674 6.94732 17.2402 6.85355 17.1464C6.75979 17.0527 6.63261 17 6.5 17C6.36739 17 6.24021 17.0527 6.14645 17.1464C6.05268 17.2402 6 17.3674 6 17.5C5.99922 18.1628 5.73558 18.7982 5.26691 19.2669C4.79824 19.7356 4.1628 19.9992 3.5 20C3.36739 20 3.24021 20.0527 3.14645 20.1464C3.05268 20.2402 3 20.3674 3 20.5C3 20.6326 3.05268 20.7598 3.14645 20.8536C3.24021 20.9473 3.36739 21 3.5 21C4.1628 21.0008 4.79824 21.2644 5.26691 21.7331C5.73558 22.2018 5.99922 22.8372 6 23.5C6 23.6326 6.05268 23.7598 6.14645 23.8536C6.24021 23.9473 6.36739 24 6.5 24C6.63261 24 6.75979 23.9473 6.85355 23.8536C6.94732 23.7598 7 23.6326 7 23.5C7.00078 22.8372 7.26442 22.2018 7.73309 21.7331C8.20176 21.2644 8.8372 21.0008 9.5 21C9.63261 21 9.75979 20.9473 9.85355 20.8536C9.94732 20.7598 10 20.6326 10 20.5C10 20.3674 9.94732 20.2402 9.85355 20.1464C9.75979 20.0527 9.63261 20 9.5 20ZM6.5 21.726C6.20051 21.2211 5.77893 20.7995 5.274 20.5C5.77893 20.2005 6.20051 19.7789 6.5 19.274C6.79949 19.7789 7.22107 20.2005 7.726 20.5C7.22107 20.7995 6.79949 21.2211 6.5 21.726Z" fill="black"/>
<path d="M17.5 19H17V18.5C17 18.3674 16.9473 18.2402 16.8536 18.1464C16.7598 18.0527 16.6326 18 16.5 18C16.3674 18 16.2402 18.0527 16.1464 18.1464C16.0527 18.2402 16 18.3674 16 18.5V19H15.5C15.3674 19 15.2402 19.0527 15.1464 19.1464C15.0527 19.2402 15 19.3674 15 19.5C15 19.6326 15.0527 19.7598 15.1464 19.8536C15.2402 19.9473 15.3674 20 15.5 20H16V20.5C16 20.6326 16.0527 20.7598 16.1464 20.8536C16.2402 20.9473 16.3674 21 16.5 21C16.6326 21 16.7598 20.9473 16.8536 20.8536C16.9473 20.7598 17 20.6326 17 20.5V20H17.5C17.6326 20 17.7598 19.9473 17.8536 19.8536C17.9473 19.7598 18 19.6326 18 19.5C18 19.3674 17.9473 19.2402 17.8536 19.1464C17.7598 19.0527 17.6326 19 17.5 19Z" fill="black"/>
<path d="M4.50984 7C4.64245 7 4.76963 6.94732 4.8634 6.85355C4.95717 6.75979 5.00984 6.63261 5.00984 6.5C5.00984 6.36739 4.95717 6.24021 4.8634 6.14645C4.76963 6.05268 4.64245 6 4.50984 6H4.4903C4.42514 6.00016 4.36067 6.01327 4.30062 6.03857C4.24057 6.06388 4.18616 6.10087 4.14054 6.1474C4.09492 6.19392 4.05901 6.24906 4.0349 6.30959C4.01078 6.37013 3.99894 6.43485 4.00007 6.5C4.00221 6.63363 4.05691 6.76105 4.15233 6.85463C4.24775 6.94822 4.37619 7.00045 4.50984 7Z" fill="black"/>
<path d="M20.5098 15H20.4903C20.4251 15.0002 20.3607 15.0133 20.3006 15.0386C20.2406 15.0639 20.1862 15.1009 20.1405 15.1474C20.0949 15.1939 20.059 15.2491 20.0349 15.3096C20.0108 15.3701 19.9989 15.4348 20.0001 15.5C20.0022 15.6336 20.0569 15.761 20.1523 15.8546C20.2477 15.9482 20.3762 16.0004 20.5098 16C20.6425 16 20.7696 15.9473 20.8634 15.8536C20.9572 15.7598 21.0098 15.6326 21.0098 15.5C21.0098 15.3674 20.9572 15.2402 20.8634 15.1464C20.7696 15.0527 20.6425 15 20.5098 15Z" fill="black"/>
<path d="M11.5098 11H11.4903C11.4251 11.0002 11.3607 11.0133 11.3006 11.0386C11.2406 11.0639 11.1862 11.1009 11.1405 11.1474C11.0949 11.1939 11.059 11.2491 11.0349 11.3096C11.0108 11.3701 10.9989 11.4348 11.0001 11.5C11.0022 11.6336 11.0569 11.761 11.1523 11.8546C11.2477 11.9482 11.3762 12.0004 11.5098 12C11.6425 12 11.7696 11.9473 11.8634 11.8536C11.9572 11.7598 12.0098 11.6326 12.0098 11.5C12.0098 11.3674 11.9572 11.2402 11.8634 11.1464C11.7696 11.0527 11.6425 11 11.5098 11Z" fill="black"/>
<path d="M11.5 10C11.5657 10 11.6307 9.98713 11.6914 9.96202C11.7521 9.9369 11.8072 9.90008 11.8536 9.85364C11.9001 9.8072 11.9369 9.75207 11.962 9.69139C11.9871 9.63071 12 9.56567 12 9.5V7.5C12 7.36739 11.9473 7.24021 11.8536 7.14645C11.7598 7.05268 11.6326 7 11.5 7C11.3674 7 11.2402 7.05268 11.1464 7.14645C11.0527 7.24021 11 7.36739 11 7.5V9.5C11 9.56567 11.0129 9.63071 11.038 9.69139C11.0631 9.75207 11.0999 9.8072 11.1464 9.85364C11.1928 9.90008 11.2479 9.9369 11.3086 9.96202C11.3693 9.98713 11.4343 10 11.5 10Z" fill="black"/>
<path d="M11.5 13C11.4343 13 11.3693 13.0129 11.3086 13.038C11.2479 13.0631 11.1928 13.0999 11.1464 13.1464C11.0999 13.1928 11.0631 13.2479 11.038 13.3086C11.0129 13.3693 11 13.4343 11 13.5V15.5C11 15.6326 11.0527 15.7598 11.1464 15.8536C11.2402 15.9473 11.3674 16 11.5 16C11.6326 16 11.7598 15.9473 11.8536 15.8536C11.9473 15.7598 12 15.6326 12 15.5V13.5C12 13.4343 11.9871 13.3693 11.962 13.3086C11.9369 13.2479 11.9001 13.1928 11.8536 13.1464C11.8072 13.0999 11.7521 13.0631 11.6914 13.038C11.6307 13.0129 11.5657 13 11.5 13Z" fill="black"/>
<path d="M16 11.5C16 11.4343 15.9871 11.3693 15.962 11.3086C15.9369 11.2479 15.9001 11.1928 15.8536 11.1464C15.8072 11.0999 15.7521 11.0631 15.6914 11.038C15.6307 11.0129 15.5657 11 15.5 11H13.5C13.3674 11 13.2402 11.0527 13.1464 11.1464C13.0527 11.2402 13 11.3674 13 11.5C13 11.6326 13.0527 11.7598 13.1464 11.8536C13.2402 11.9473 13.3674 12 13.5 12H15.5C15.5657 12 15.6307 11.9871 15.6914 11.962C15.7521 11.9369 15.8072 11.9001 15.8536 11.8536C15.9001 11.8072 15.9369 11.7521 15.962 11.6914C15.9871 11.6307 16 11.5657 16 11.5Z" fill="black"/>
<path d="M9.5 11H7.5C7.36739 11 7.24021 11.0527 7.14645 11.1464C7.05268 11.2402 7 11.3674 7 11.5C7 11.6326 7.05268 11.7598 7.14645 11.8536C7.24021 11.9473 7.36739 12 7.5 12H9.5C9.63261 12 9.75979 11.9473 9.85355 11.8536C9.94732 11.7598 10 11.6326 10 11.5C10 11.3674 9.94732 11.2402 9.85355 11.1464C9.75979 11.0527 9.63261 11 9.5 11Z" fill="black"/>
</svg>
