<svg width="32" height="32" fill="none" xmlns="http://www.w3.org/2000/svg"><path fill-rule="evenodd" clip-rule="evenodd" d="M22.005 8.197v1.111h6.175L21.204 22h9.019v-1.112h-7.161l6.977-12.691h-8.034ZM8.04 8 1.778 22h1.227l1.584-3.593h6.735L12.814 22h1.268L8.04 8Zm-.018 2.524 2.839 6.772H5.047l2.975-6.772ZM14.747 15.35a.58.58 0 1 0 1.158 0 .58.58 0 0 0-1.158 0ZM17.003 15.35a.578.578 0 1 0 1.157.002.578.578 0 0 0-1.157-.002ZM19.26 15.35a.579.579 0 1 0 1.158 0 .579.579 0 0 0-1.158 0Z" fill="#2B80AD"/></svg>