<svg width="32" height="32" fill="none" xmlns="http://www.w3.org/2000/svg"><path d="m30.43 12.161.671 13.57a5.314 5.314 0 0 1-1.457 3.944 5.335 5.335 0 0 1-3.869 1.66H6.351a5.344 5.344 0 0 1-3.869-1.66 5.322 5.322 0 0 1-1.457-3.943L1.813 9.78a5.319 5.319 0 0 1 1.65-3.593A5.339 5.339 0 0 1 7.14 4.719h8.908" stroke="#37B56D" stroke-linecap="round" stroke-linejoin="round"/><path d="M1.648 11.752a5.32 5.32 0 0 1 1.83-3.135 5.34 5.34 0 0 1 3.418-1.236h9.152M11.468 22.411l3.753 1.383-.924 2.497a1.332 1.332 0 0 1-1.713.787l-1.25-.46a1.332 1.332 0 0 1-.79-1.71l.924-2.497Z" stroke="#37B56D" stroke-linecap="round" stroke-linejoin="round"/><path d="m20.628 13.02-6.254-2.305-2.906 11.696 3.752 1.383 5.408-10.774ZM8.063 11.373H6.73a.666.666 0 0 0-.667.666v10.646c0 .367.298.665.667.665h1.333a.666.666 0 0 0 .667-.665V12.039a.666.666 0 0 0-.667-.666ZM6.063 20.689H8.73M27.396 25.623c0 2.358-1.915 3.05-4.277 3.05-2.363 0-4.278-.691-4.278-3.05 0-1.132.45-2.218 1.253-3.019a4.282 4.282 0 0 1 6.05 0 4.266 4.266 0 0 1 1.253 3.02v0Z" stroke="#37B56D" stroke-linecap="round" stroke-linejoin="round"/><path d="M24.786 21.353h-3.334l.795-3.327h1.844l.695 3.327ZM20.82 4.72a1.116 1.116 0 1 0 .001-2.232 1.116 1.116 0 0 0-.002 2.231Z" stroke="#37B56D" stroke-linecap="round" stroke-linejoin="round"/><path d="M23.58.727h-5.056a.59.59 0 0 0-.589.588V6.36c0 .155.062.305.173.415l7.066 7.053a.59.59 0 0 0 .832 0l5.056-5.046a.588.588 0 0 0 0-.831L23.996.899a.59.59 0 0 0-.416-.172v0Z" stroke="#37B56D" stroke-linecap="round" stroke-linejoin="round"/></svg>