<svg width="24" height="24" viewBox="0 0 24 24" fill="none" xmlns="http://www.w3.org/2000/svg">
<g id="fluent:call-20-regular" clip-path="url(#clip0_292_49553)">
<path id="Vector" d="M7.86127 0.257984L6.78547 0.582076C5.82756 0.870951 4.97211 1.42746 4.31981 2.18609C3.6675 2.94472 3.24548 3.87391 3.10342 4.86429C2.6578 7.96717 3.65408 11.5952 6.05626 15.7559C8.45244 19.9061 11.0902 22.5798 13.9935 23.7501C14.9264 24.1261 15.9476 24.2263 16.9357 24.0388C17.9238 23.8513 18.8373 23.3839 19.5676 22.6923L20.3808 21.9211C20.9089 21.4213 21.2376 20.7468 21.3057 20.023C21.3739 19.2991 21.1769 18.5751 20.7514 17.9855L18.7169 15.1647C18.4418 14.7839 18.0544 14.4987 17.6091 14.3491C17.1638 14.1995 16.6828 14.193 16.2336 14.3305L13.1563 15.2712L13.0768 15.2862C12.7377 15.3358 11.9544 14.6021 10.9792 12.9126C9.95887 11.1451 9.74881 10.1113 10.0294 9.8442L11.5943 8.38429C12.1666 7.85083 12.5575 7.1516 12.7123 6.3847C12.867 5.61779 12.7778 4.82169 12.4571 4.10808L11.4638 1.90095C11.1651 1.23678 10.6351 0.703878 9.97256 0.401594C9.31002 0.0993096 8.55867 0.0482681 7.86127 0.257984ZM10.0969 2.51612L11.0872 4.72325C11.28 5.15122 11.334 5.62886 11.2414 6.08905C11.1488 6.54925 10.9144 6.96888 10.571 7.28898L9.0016 8.75039C7.99781 9.70166 8.33091 11.3251 9.68129 13.6628C10.9506 15.8624 12.109 16.9487 13.3543 16.7597L13.5404 16.7207L16.6733 15.7649C16.823 15.7189 16.9834 15.7209 17.132 15.7707C17.2805 15.8205 17.4097 15.9155 17.5015 16.0425L19.5361 18.8633C19.7491 19.158 19.8479 19.5201 19.8139 19.8822C19.78 20.2443 19.6157 20.5818 19.3515 20.8318L18.5368 21.603C18.0152 22.0967 17.3628 22.4303 16.6571 22.564C15.9515 22.6978 15.2223 22.6262 14.5562 22.3578C12.0085 21.3315 9.60027 18.8903 7.35713 15.0057C5.10799 11.1121 4.19724 7.80062 4.58885 5.07735C4.69022 4.3698 4.99164 3.70593 5.45762 3.16393C5.9236 2.62192 6.53475 2.22433 7.21909 2.01798L8.2949 1.69389C8.64368 1.58908 9.01868 1.61471 9.34997 1.766C9.68125 1.91729 9.9462 2.1839 10.0954 2.51612H10.0969Z" fill="black"/>
</g>
<defs>
<clipPath id="clip0_292_49553">
<rect width="24" height="24" fill="white"/>
</clipPath>
</defs>
</svg>
