<svg width="17" height="25" viewBox="0 0 17 25" fill="none" xmlns="http://www.w3.org/2000/svg">
  <g clip-path="url(#clip0_19818_75872)">
    <path
      d="M16 8.93651C16 4.54917 12.6463 1 8.5 1C4.35372 1 1 4.54917 1 8.93651C1 10.2935 1.38344 11.8372 2.09161 13.5377C2.71264 15.0292 3.56758 16.6049 4.59956 18.2232C5.36556 19.4211 6.18092 20.583 7.0433 21.7056C7.40655 22.1786 7.77875 22.6439 8.15968 23.1012L8.5 23.5L8.84124 23.1003C10.1228 21.5538 11.3118 19.9246 12.4014 18.2222C13.4324 16.6059 14.2883 15.0292 14.9093 13.5377C15.6175 11.8372 16 10.2935 16 8.93651Z"
      fill="black" stroke="black" />
  </g>
  <defs>
    <clipPath id="clip0_19818_75872">
      <rect width="17" height="25" fill="white" />
    </clipPath>
  </defs>
</svg>