<svg width="33" height="32" viewBox="0 0 33 32" fill="none" xmlns="http://www.w3.org/2000/svg">
<g id="shop category">
<path id="Fill 1" fill-rule="evenodd" clip-rule="evenodd" d="M25.8101 28.784H6.30109C4.94022 28.784 3.67447 28.2391 2.7376 27.2516C1.80072 26.264 1.32429 24.9724 1.39629 23.6116L2.10116 9.28444C2.64871 7.11644 4.58379 5.56711 6.84774 5.56711H26.1265C28.4482 5.56711 30.4064 7.17333 30.9042 9.41422L31.6037 23.6133C31.6757 24.9733 31.1984 26.2658 30.2615 27.2524C29.3247 28.24 27.17 28.784 25.8101 28.784ZM25.9069 2.88889C28.322 2.88889 30.3202 4.63733 30.7246 6.96C29.6589 5.56533 27.9949 4.67822 26.1265 4.67822H6.84774C5.00511 4.67822 3.35003 5.55378 2.27983 6.92978C2.69582 4.62222 4.68778 2.88889 7.09307 2.88889H25.9069ZM31.7006 7.51556C31.5477 4.42222 29.0029 2 25.9069 2H7.09307C3.99802 2 1.45229 4.42222 1.29851 7.51556L0.508304 23.5671C0.423861 25.1707 0.985629 26.6969 2.09228 27.8631C3.19892 29.0302 4.69312 29.6729 6.30109 29.6729H26.6989C28.306 29.6729 29.7993 29.0302 30.906 27.864C32.0126 26.6987 32.5762 25.1724 32.4917 23.568L31.7006 7.51556Z" fill="black"/>
<path id="Fill 4" fill-rule="evenodd" clip-rule="evenodd" d="M13.8624 23.9999C13.7806 24.223 13.617 24.4008 13.401 24.5003C13.185 24.6025 12.9406 24.6114 12.7139 24.5288L11.4588 24.0639C11.234 23.9812 11.0553 23.8159 10.9557 23.599C10.8562 23.383 10.8464 23.1394 10.93 22.9145L11.7024 20.8203L14.6383 21.9039L13.8624 23.9999ZM14.6712 9.06742L20.0205 11.0425L14.9894 21.0861L11.9673 19.9705L14.6712 9.06742ZM21.0373 10.9963C21.0942 10.8834 21.0996 10.7519 21.0533 10.6345C21.0071 10.5163 20.9129 10.4248 20.7938 10.3812L14.513 8.06209C14.3948 8.01764 14.2641 8.02653 14.1512 8.08698C14.0392 8.14564 13.9584 8.24875 13.9281 8.37231L11.0153 20.1163L10.0962 22.607C9.93087 23.055 9.94954 23.5385 10.1478 23.9714C10.3469 24.4034 10.7042 24.7323 11.1513 24.8976L12.4064 25.3616C12.6082 25.4363 12.8179 25.4736 13.0268 25.4736C13.2819 25.4736 13.5361 25.4185 13.7752 25.3083C14.2063 25.1083 14.5335 24.7519 14.6961 24.3074L15.6214 21.8088L21.0373 10.9963Z" fill="black"/>
<path id="Fill 6" fill-rule="evenodd" clip-rule="evenodd" d="M8.02165 20.7491H6.68212C6.55856 20.7491 6.45723 20.6478 6.45723 20.5234V18.9589H8.24653V20.5234C8.24653 20.6478 8.14609 20.7491 8.02165 20.7491ZM6.68212 9.58469H8.02165C8.14609 9.58469 8.24653 9.68602 8.24653 9.80958V18.07H6.45723V9.80958C6.45723 9.68602 6.55856 9.58469 6.68212 9.58469ZM8.02165 8.6958H6.68212C6.06791 8.6958 5.56836 9.19625 5.56836 9.80958V20.5234C5.56836 21.1376 6.06791 21.638 6.68212 21.638H8.02165C8.63586 21.638 9.1354 21.1376 9.1354 20.5234V9.80958C9.1354 9.19625 8.63586 8.6958 8.02165 8.6958Z" fill="black"/>
<path id="Fill 8" fill-rule="evenodd" clip-rule="evenodd" d="M23.1416 26.1059C19.6884 26.1059 19.2893 24.6072 19.2893 23.481C19.2893 21.3565 21.0172 19.6294 23.1416 19.6294C25.266 19.6294 26.9931 21.3565 26.9931 23.481C26.9931 24.6072 26.594 26.1059 23.1416 26.1059ZM22.0305 18.7405L22.6172 16.281H23.7567L24.2696 18.7405H22.0305ZM25.2483 19.2561C25.2563 19.2028 25.2616 19.1485 25.2509 19.0943L24.5532 15.7468C24.5105 15.5396 24.3283 15.3921 24.1185 15.3921H22.2661C22.0599 15.3921 21.8812 15.5334 21.8332 15.7334L21.035 19.0819C21.0217 19.1396 21.0243 19.1992 21.0332 19.257C19.4795 20.0365 18.4004 21.6276 18.4004 23.481C18.4004 25.0845 19.2226 26.9948 23.1416 26.9948C27.0598 26.9948 27.882 25.0845 27.882 23.481C27.882 21.6276 26.8029 20.0356 25.2483 19.2561Z" fill="black"/>
</g>
</svg>
