<svg width="32" height="30" viewBox="0 0 32 30" fill="none" xmlns="http://www.w3.org/2000/svg">
<g id="Group 15">
<path id="Fill 1" fill-rule="evenodd" clip-rule="evenodd" d="M18.5761 27.3277C18.1342 27.3277 17.6903 27.3055 17.2455 27.2606L17.4862 24.8823C21.6816 25.3073 25.8009 23.2529 27.9836 19.6487C31.1172 14.4745 29.4571 7.71545 24.2827 4.58189C21.7763 3.06402 18.8285 2.61308 15.9828 3.31185C13.1371 4.01095 10.734 5.77634 9.21597 8.28279C8.30952 9.77977 7.78495 11.4167 7.65727 13.1483L5.27344 12.9724C5.42919 10.8614 6.06772 8.86695 7.1714 7.04459C9.02005 3.99202 11.9469 1.84197 15.4127 0.99071C18.8788 0.139118 22.4685 0.688669 25.5209 2.53732C28.5735 4.38598 30.7236 7.31283 31.575 10.7786C32.4263 14.2444 31.877 17.8343 30.0284 20.8869C27.6018 24.8937 23.2086 27.3277 18.5761 27.3277Z" fill="black"/>
<path id="Fill 3" fill-rule="evenodd" clip-rule="evenodd" d="M13.043 25.6934L18.4389 23.0107L18.064 29.0249L13.043 25.6934Z" fill="black"/>
<path id="Fill 5" fill-rule="evenodd" clip-rule="evenodd" d="M19.8692 18.4041V19.7525L17.9456 19.8182V18.585C16.8274 18.5192 15.7752 18.1574 14.9531 17.7137L15.7752 15.9048C16.6137 16.2995 17.5015 16.5626 18.3236 16.5626C19.3925 16.5626 19.8364 16.0529 19.8364 15.5102C19.8364 14.9184 19.1128 14.6554 18.2415 14.3429C16.9753 13.899 15.4134 13.3399 15.4134 11.4985C15.4134 10.1995 16.1863 8.86762 17.9949 8.45668V7.37146L19.9187 7.30566V8.39089C20.6912 8.47301 21.4641 8.68673 22.2534 9.04852L21.5628 10.8407C20.79 10.4791 19.935 10.2652 19.2774 10.2652C18.3566 10.2652 17.9456 10.7421 17.9456 11.2683C17.9456 11.8273 18.4223 12.1396 19.0635 12.4028C20.4117 12.9453 22.5327 13.2742 22.5327 15.2802C22.5327 16.7106 21.5135 17.9439 19.8692 18.4041Z" fill="black"/>
<path id="Fill 7" fill-rule="evenodd" clip-rule="evenodd" d="M1.26768 22.0466C1.25348 21.954 1.24123 21.8606 1.23144 21.7664C0.939844 18.9437 2.78474 16.3841 5.45495 15.6995C5.72319 15.6308 5.99927 15.5805 6.28287 15.5511C6.51846 15.5268 6.75307 15.5189 6.98605 15.5233C7.46262 15.5328 7.93152 15.6014 8.38442 15.7274C7.34229 15.0296 6.10082 14.7188 4.83829 14.8495C1.88091 15.1552 -0.276646 17.8099 0.0288234 20.7673C0.202538 22.4481 1.13544 23.8693 2.45086 24.7282C2.15519 24.361 1.90311 23.956 1.70507 23.5193C1.49674 23.06 1.34735 22.5663 1.26768 22.0466Z" fill="black"/>
<path id="Fill 10" fill-rule="evenodd" clip-rule="evenodd" d="M11.1808 24.1273C10.3441 25.2694 8.98586 26.0042 7.4657 25.9802C7.35533 25.9784 7.24627 25.9712 7.13802 25.9616C6.63337 25.9172 6.15239 25.7908 5.70945 25.5939C5.43141 25.4705 5.16839 25.3191 4.92333 25.1443C4.69166 24.9792 4.47615 24.7931 4.2799 24.5884C3.48513 23.7596 3.00317 22.6303 3.02276 21.3942C3.06211 18.9051 5.11957 16.912 7.60872 16.9513C7.96904 16.957 8.3186 17.0063 8.65362 17.0917C8.93264 17.1631 9.20104 17.2602 9.45655 17.3807C9.73639 17.5126 10.0006 17.6723 10.2453 17.8565C10.3161 17.9098 10.386 17.9645 10.4536 18.0218C11.4492 18.8664 12.0739 20.133 12.0515 21.5373C12.0481 21.7534 12.0286 21.9657 11.9957 22.1732C11.8815 22.8965 11.5952 23.5616 11.1808 24.1273ZM11.0949 17.4183C10.5269 16.9182 9.8528 16.5356 9.11011 16.3087C8.80594 16.2158 8.49084 16.1477 8.16643 16.1098C8.13541 16.1063 8.1039 16.1043 8.07288 16.1012C7.92431 16.0865 7.77443 16.0762 7.6226 16.0738C7.48725 16.0716 7.35337 16.0762 7.22015 16.0839C6.18406 16.1443 5.22357 16.4986 4.42325 17.0666C3.06945 18.0276 2.17345 19.5969 2.14521 21.3804C2.14031 21.6837 2.16219 21.9814 2.20594 22.2721C2.28872 22.8214 2.45492 23.3438 2.69117 23.8267C2.83239 24.1152 2.99762 24.3895 3.18602 24.6467C3.37672 24.9067 3.59011 25.1494 3.82341 25.3712C3.91125 25.4548 4.00202 25.5352 4.09541 25.6127C4.92921 26.3063 5.97525 26.7538 7.12333 26.8414C7.23206 26.8498 7.34129 26.856 7.45182 26.8578C10.4249 26.9048 12.882 24.5244 12.929 21.5513C12.9552 19.9097 12.2402 18.4264 11.0949 17.4183Z" fill="black"/>
<path id="Fill 12" fill-rule="evenodd" clip-rule="evenodd" d="M7.47019 21.7096L7.28668 21.7285L7.11068 20.0257C7.18203 20.0118 7.2475 20.005 7.31313 19.9983C7.87623 19.9398 8.24587 20.1202 8.30823 20.7228C8.3644 21.2663 8.0924 21.6453 7.47019 21.7096ZM7.12913 19.2427C6.86056 19.2704 6.35982 19.3553 6.05664 19.4329L6.53027 24.0175L7.51264 23.9161L7.36391 22.475L7.50138 22.461C8.54268 22.3532 9.42611 21.8053 9.29827 20.5674C9.18056 19.4278 8.30807 19.1209 7.12913 19.2427Z" fill="black"/>
</g>
</svg>
