<svg width="28" height="29" viewBox="0 0 28 29" fill="none" xmlns="http://www.w3.org/2000/svg">
<g id="Group">
<path id="Vector" fill-rule="evenodd" clip-rule="evenodd" d="M3.10707 24.0216C2.78684 21.3496 4.48784 18.8935 7.00629 18.1751C7.92366 17.9122 8.89405 17.8954 9.81997 18.1264C8.86764 17.6008 7.7742 17.3878 6.69422 17.5175C3.8413 17.8564 1.79741 20.4434 2.13819 23.285C2.30305 24.661 2.9962 25.8911 4.09017 26.7481C4.21974 26.8495 4.35353 26.9427 4.49047 27.0306C3.8478 26.3341 3.40157 25.4795 3.1974 24.5541C3.15859 24.3781 3.12845 24.2004 3.10707 24.0216Z" fill="black"/>
<path id="Vector_2" fill-rule="evenodd" clip-rule="evenodd" d="M9.74641 27.5846C8.97561 27.6761 8.19513 27.5323 7.50764 27.1719C7.13444 26.9755 6.79579 26.7194 6.50505 26.4139C6.47345 26.3813 6.44053 26.3492 6.41024 26.3152C5.89053 25.7343 5.56211 25.0076 5.46955 24.2336C5.21804 22.1355 6.72732 20.2243 8.83389 19.9742C9.10934 19.9419 9.38747 19.9394 9.66346 19.9668C9.81251 19.9813 9.95868 20.0063 10.103 20.0371C11.0197 20.2363 11.8328 20.762 12.3907 21.5161C12.6546 21.8736 12.8535 22.2748 12.9786 22.7012C13.0378 22.9026 13.0855 23.1099 13.1113 23.3253C13.3288 25.1404 12.2269 26.8132 10.562 27.3941C10.3026 27.4847 10.0306 27.5511 9.74641 27.5846ZM12.4534 19.6592C11.9525 19.2771 11.3867 18.9887 10.7832 18.8078C10.2811 18.6572 9.75892 18.5839 9.23472 18.5905C8.6979 18.5965 8.16519 18.6848 7.65512 18.8523C7.39861 18.9365 7.15159 19.04 6.91588 19.1607C5.0329 20.1232 3.8515 22.1813 4.11696 24.3943C4.12539 24.4654 4.14066 24.5339 4.15199 24.6034C4.17042 24.7166 4.18886 24.8299 4.21466 24.9405C4.33638 25.4668 4.54044 25.9705 4.81932 26.4332C5.08782 26.8822 5.42254 27.2881 5.81217 27.6372C6.38262 28.1466 7.05769 28.5248 7.78996 28.7454C8.27522 28.8927 8.77948 28.9679 9.2866 28.9687C9.49149 28.9687 9.69927 28.9564 9.90785 28.9316C12.7608 28.5927 14.8047 26.0052 14.4639 23.1644C14.2906 21.7186 13.5319 20.4814 12.4534 19.6592ZM14.8023 12.7288L14.8447 12.6898C15.0804 12.9518 15.353 13.1751 15.6411 13.2966C16.0158 13.4546 16.2468 13.3421 16.3279 13.1528C16.4158 12.9458 16.201 12.7472 15.9418 12.5091C15.5636 12.167 15.0991 11.7407 15.3722 11.0975C15.565 10.6443 16.0335 10.2935 16.7292 10.4173L16.8902 10.0381L16.971 10.0691L17.0782 10.11L17.1843 10.1505L17.5741 10.2998L17.4129 10.6785C17.6718 10.8213 17.9112 11.0104 18.1342 11.2535L17.977 11.4154L17.893 11.5023L17.8087 11.589L17.6262 11.7773C17.409 11.5366 17.1409 11.3356 16.9099 11.2384C16.5873 11.1023 16.3721 11.2079 16.2939 11.3917C16.2112 11.5866 16.3321 11.7667 16.5178 11.9532C16.611 12.0454 16.7208 12.1402 16.8306 12.2394C16.8885 12.2924 16.9454 12.3466 17.001 12.4019C17.1569 12.5605 17.2912 12.7348 17.3486 12.9344C17.3716 13.0139 17.3809 13.0967 17.3763 13.1794C17.3707 13.2798 17.3473 13.3786 17.3073 13.4709C17.0977 13.9642 16.5673 14.242 15.9331 14.1696C15.925 14.1688 15.9173 14.169 15.9094 14.1683L15.7093 14.6389L15.1926 14.4416L15.0251 14.3776L15.0551 14.3065L15.2078 13.9468C14.826 13.7585 14.5105 13.4767 14.2882 13.1999L14.8023 12.7288ZM8.38303 9.46054L9.19232 7.55649L9.54679 6.72218L9.82779 6.06117L9.85781 5.99085L10.0611 6.07644L11.9728 6.8823L13.8845 7.68843L14.4644 7.93282C13.2904 8.38579 12.2936 9.28909 11.765 10.5316C11.5167 11.1112 11.3863 11.7345 11.3814 12.3651C11.3765 12.9957 11.4973 13.6209 11.7366 14.2043C11.7455 14.2267 11.7574 14.2473 11.7669 14.2694L9.49201 13.3105L8.82783 13.0306L8.16418 12.7506L7.1637 12.3287L8.38303 9.46054ZM23.4953 16.58L22.5457 18.8136L17.9415 16.8726C18.3263 16.7237 18.6906 16.5263 19.0254 16.2851C19.1524 16.195 19.2748 16.0988 19.3923 15.9967C19.5145 15.8893 19.6301 15.7729 19.7415 15.6525C19.9258 15.4539 20.0952 15.2383 20.2458 15.006C20.2979 14.9259 20.3472 14.8432 20.3946 14.759C20.4834 14.6025 20.5666 14.4419 20.6385 14.2728C20.7907 13.9146 20.8921 13.5444 20.9534 13.1699C21.0951 12.3111 21.0035 11.4278 20.6672 10.6006C20.658 10.5782 20.6461 10.5574 20.6366 10.5353L21.3972 10.8558L22.1143 11.1586L22.8001 11.4473L25.2398 12.4757L24.0573 15.2575L23.7761 15.9188L23.4953 16.58ZM26.0938 15.3921L25.4966 15.3526L26.2076 13.6795L26.0938 15.3921ZM26.5508 8.52431L26.3548 11.4728L22.5504 9.86847C22.3375 9.24891 22.0003 8.67939 21.5594 8.19486L26.5508 8.52405V8.52431ZM9.13438 4.21216L5.3779 13.0493L8.06858 14.1835L7.9772 15.5561L11.9449 15.8179L14.3238 16.821L23.2691 20.5925L24.9343 16.6751L27.3629 16.8355L28 7.26022L14.2047 6.35006L9.13438 4.21216Z" fill="black"/>
<path id="Vector_3" fill-rule="evenodd" clip-rule="evenodd" d="M9.0737 23.9781L8.88567 24.0005L8.67735 22.2615C8.7503 22.246 8.81772 22.2381 8.88435 22.2299C9.46188 22.1615 9.84454 22.34 9.91828 22.9552C9.98491 23.5104 9.71154 23.9022 9.0737 23.9781ZM8.68367 21.4604C8.40821 21.4931 7.89493 21.5879 7.58496 21.6724L8.1459 26.3541L8.50986 26.3109L9.15323 26.2345L9.13032 26.0428L8.97705 24.7629L9.11821 24.7463C10.1856 24.6191 11.0841 24.0447 10.9327 22.7803C10.7931 21.6166 9.8922 21.3169 8.68367 21.4602" fill="black"/>
<g id="Group_2">
<mask id="mask0_7594_25548" style="mask-type:alpha" maskUnits="userSpaceOnUse" x="0" y="0" width="24" height="16">
<g id="b">
<path id="Vector_4" d="M0 0H23.5831V15.9168H0V0Z" fill="white"/>
</g>
</mask>
<g mask="url(#mask0_7594_25548)">
<path id="Vector_5" fill-rule="evenodd" clip-rule="evenodd" d="M14.3805 1.3568C16.5684 1.3568 18.6713 1.88956 20.558 2.90716L19.6791 3.81942L23.5828 4.77461L22.4617 0.930166L21.5339 1.89325C19.3668 0.650221 16.9247 0 14.3805 0C6.45087 0 -0.000244141 6.42505 -0.000244141 14.322C-0.000244141 14.8555 0.0295149 15.3922 0.0879794 15.9168L1.44162 15.7673C1.3885 15.2873 1.36195 14.8048 1.36209 14.322C1.36209 7.17297 7.20249 1.3568 14.3805 1.3568Z" fill="black"/>
</g>
</g>
<path id="Vector_6" fill-rule="evenodd" clip-rule="evenodd" d="M19.6498 26.1824L19.181 24.9868L16.6699 28.1131L20.6439 28.7154L20.1459 27.446C22.3876 26.4721 24.3356 24.9481 25.8388 22.9766L24.7544 22.1558C23.4039 23.9266 21.6581 25.2992 19.6498 26.1822" fill="black"/>
</g>
</svg>
