<svg width="24" height="24" viewBox="0 0 24 24" fill="none" xmlns="http://www.w3.org/2000/svg">
<g clip-path="url(#clip0_8984_11197)">
<path fill-rule="evenodd" clip-rule="evenodd" d="M11.9544 2.14663C6.48173 2.14663 2.04433 6.58797 2.04433 12.0678C2.04433 17.5477 6.48173 21.989 11.9544 21.989C14.1104 21.989 16.1043 21.3003 17.7305 20.1305C17.8577 20.039 18.0193 20.0094 18.1707 20.05L21.6706 20.9888L20.6419 17.1457C20.6076 17.0173 20.6235 16.8805 20.6865 16.7634C21.4378 15.3661 21.8644 13.7676 21.8644 12.0678C21.8644 6.58797 17.427 2.14663 11.9544 2.14663ZM1 12.0678C1 6.01225 5.90391 1.1023 11.9544 1.10229C18.0048 1.10229 22.9087 6.01225 22.9087 12.0678C22.9087 13.8699 22.474 15.5718 21.7035 17.0729L22.9133 21.5925C22.9615 21.7727 22.9099 21.9649 22.778 22.0968C22.646 22.2287 22.4538 22.2802 22.2736 22.2318L18.1357 21.1219C16.3763 22.3278 14.2469 23.0333 11.9544 23.0333C5.90391 23.0333 1 18.1234 1 12.0678Z" fill="white"/>
</g>
<path d="M13.3571 8.85714C12.505 8.85614 11.688 8.51717 11.0854 7.91459C10.4828 7.31202 10.1439 6.49503 10.1429 5.64286C10.1429 5.47236 10.0751 5.30885 9.95457 5.18829C9.83401 5.06773 9.6705 5 9.5 5C9.3295 5 9.16599 5.06773 9.04543 5.18829C8.92487 5.30885 8.85714 5.47236 8.85714 5.64286C8.85614 6.49503 8.51717 7.31202 7.9146 7.91459C7.31202 8.51717 6.49503 8.85614 5.64286 8.85714C5.47236 8.85714 5.30885 8.92487 5.18829 9.04543C5.06773 9.16599 5 9.3295 5 9.5C5 9.6705 5.06773 9.83401 5.18829 9.95457C5.30885 10.0751 5.47236 10.1429 5.64286 10.1429C6.49503 10.1439 7.31202 10.4828 7.9146 11.0854C8.51717 11.688 8.85614 12.505 8.85714 13.3571C8.85714 13.5276 8.92487 13.6912 9.04543 13.8117C9.16599 13.9323 9.3295 14 9.5 14C9.6705 14 9.83401 13.9323 9.95457 13.8117C10.0751 13.6912 10.1429 13.5276 10.1429 13.3571C10.1439 12.505 10.4828 11.688 11.0854 11.0854C11.688 10.4828 12.505 10.1439 13.3571 10.1429C13.5276 10.1429 13.6912 10.0751 13.8117 9.95457C13.9323 9.83401 14 9.6705 14 9.5C14 9.3295 13.9323 9.16599 13.8117 9.04543C13.6912 8.92487 13.5276 8.85714 13.3571 8.85714ZM9.5 11.3C9.11494 10.6508 8.3492 9.88506 7.7 9.5C8.3492 9.11494 9.11494 8.3492 9.5 7.7C9.88506 8.3492 10.6508 9.11494 11.3 9.5C10.6508 9.88506 9.88506 10.6508 9.5 11.3Z" fill="white"/>
<path d="M18.5 0.5C18.7652 0.5 19.0195 0.605432 19.207 0.792969C19.3943 0.980275 19.4997 1.23416 19.5 1.49902L19.5098 1.69727C19.5557 2.15498 19.7588 2.58496 20.0869 2.91309C20.462 3.28813 20.9706 3.49938 21.501 3.5H21.5C21.7652 3.5 22.0195 3.60543 22.207 3.79297C22.3946 3.98051 22.5 4.23479 22.5 4.5C22.5 4.76522 22.3946 5.01949 22.207 5.20703C22.0195 5.39457 21.7652 5.49902 21.5 5.49902C20.9698 5.4998 20.4618 5.712 20.0869 6.08691C19.7119 6.46196 19.5006 6.97058 19.5 7.50098C19.4997 7.76584 19.3943 8.01972 19.207 8.20703C19.0195 8.39457 18.7652 8.5 18.5 8.5C18.2348 8.5 17.9805 8.39457 17.793 8.20703C17.6057 8.01973 17.5003 7.76584 17.5 7.50098L17.4902 7.30273C17.4443 6.84502 17.2412 6.41504 16.9131 6.08691C16.538 5.71187 16.0294 5.50062 15.499 5.5C15.2342 5.49974 14.9803 5.39434 14.793 5.20703C14.6054 5.01949 14.5 4.76522 14.5 4.5C14.5 4.23478 14.6054 3.98051 14.793 3.79297C14.9803 3.60566 15.2342 3.50026 15.499 3.5C16.0294 3.49938 16.538 3.28813 16.9131 2.91309C17.2881 2.53804 17.4994 2.02942 17.5 1.49902C17.5003 1.23416 17.6057 0.980275 17.793 0.792969C17.9805 0.605432 18.2348 0.5 18.5 0.5Z" fill="white" stroke="black"/>
<path d="M17.0733 13.8391H17.0643C17.0343 13.8392 17.0047 13.8452 16.9771 13.8568C16.9495 13.8685 16.9245 13.8855 16.9035 13.9069C16.8825 13.9283 16.866 13.9536 16.8549 13.9815C16.8438 14.0093 16.8384 14.039 16.8389 14.069C16.8399 14.1304 16.865 14.189 16.9089 14.232C16.9528 14.2751 17.0118 14.2991 17.0733 14.2989C17.1342 14.2989 17.1927 14.2747 17.2358 14.2315C17.2789 14.1884 17.3032 14.13 17.3032 14.069C17.3032 14.008 17.2789 13.9496 17.2358 13.9064C17.1927 13.8633 17.1342 13.8391 17.0733 13.8391Z" fill="white"/>
<path d="M17.0688 13.3793C17.0989 13.3793 17.1288 13.3734 17.1567 13.3618C17.1846 13.3503 17.21 13.3334 17.2313 13.312C17.2527 13.2907 17.2696 13.2653 17.2812 13.2374C17.2927 13.2095 17.2987 13.1796 17.2986 13.1494V12.2299C17.2986 12.1689 17.2744 12.1104 17.2313 12.0673C17.1882 12.0242 17.1297 12 17.0688 12C17.0078 12 16.9493 12.0242 16.9062 12.0673C16.8631 12.1104 16.8389 12.1689 16.8389 12.2299V13.1494C16.8388 13.1796 16.8448 13.2095 16.8563 13.2374C16.8679 13.2653 16.8848 13.2907 16.9062 13.312C16.9275 13.3334 16.9529 13.3503 16.9808 13.3618C17.0087 13.3734 17.0386 13.3793 17.0688 13.3793Z" fill="white"/>
<path d="M17.0688 14.7587C17.0386 14.7586 17.0087 14.7646 16.9808 14.7761C16.9529 14.7877 16.9275 14.8046 16.9062 14.826C16.8848 14.8473 16.8679 14.8727 16.8563 14.9006C16.8448 14.9285 16.8388 14.9584 16.8389 14.9886V15.9081C16.8389 15.9691 16.8631 16.0275 16.9062 16.0706C16.9493 16.1138 17.0078 16.138 17.0688 16.138C17.1297 16.138 17.1882 16.1138 17.2313 16.0706C17.2744 16.0275 17.2986 15.9691 17.2986 15.9081V14.9886C17.2987 14.9584 17.2927 14.9285 17.2812 14.9006C17.2696 14.8727 17.2527 14.8473 17.2313 14.826C17.21 14.8046 17.1846 14.7877 17.1567 14.7761C17.1288 14.7646 17.0989 14.7586 17.0688 14.7587Z" fill="white"/>
<path d="M19.1381 14.069C19.1381 14.0388 19.1322 14.0089 19.1206 13.981C19.1091 13.9531 19.0922 13.9278 19.0708 13.9064C19.0495 13.8851 19.0241 13.8681 18.9962 13.8566C18.9683 13.845 18.9384 13.8391 18.9082 13.8391H17.9887C17.9277 13.8391 17.8692 13.8633 17.8261 13.9064C17.783 13.9496 17.7588 14.008 17.7588 14.069C17.7588 14.13 17.783 14.1884 17.8261 14.2315C17.8692 14.2747 17.9277 14.2989 17.9887 14.2989H18.9082C18.9384 14.2989 18.9683 14.293 18.9962 14.2814C19.0241 14.2699 19.0495 14.2529 19.0708 14.2316C19.0922 14.2102 19.1091 14.1849 19.1206 14.157C19.1322 14.1291 19.1381 14.0992 19.1381 14.069Z" fill="white"/>
<path d="M16.1494 13.8391H15.2299C15.1689 13.8391 15.1104 13.8633 15.0673 13.9064C15.0242 13.9496 15 14.008 15 14.069C15 14.13 15.0242 14.1884 15.0673 14.2315C15.1104 14.2747 15.1689 14.2989 15.2299 14.2989H16.1494C16.2104 14.2989 16.2689 14.2747 16.312 14.2315C16.3551 14.1884 16.3793 14.13 16.3793 14.069C16.3793 14.008 16.3551 13.9496 16.312 13.9064C16.2689 13.8633 16.2104 13.8391 16.1494 13.8391Z" fill="white"/>
<defs>
<clipPath id="clip0_8984_11197">
<rect width="21.931" height="21.931" fill="white" transform="translate(1 1.10229)"/>
</clipPath>
</defs>
</svg>
