<svg xmlns="http://www.w3.org/2000/svg" viewBox="0 0 20 16"><path d="M5.083 2H6.29v12H5.084zm1.824 0h2.465v12H6.907zm3.158 0h1v12h-1zM2.62 2h1.207v12H2.62zm14.197 0h1v12h-1zM11.27 2h1v12h-1zm1.85 0h2.465v12H13.12z"/><path d="M0 2.066v11.867C0 15.073.848 16 1.89 16h16.222c1.04 0 1.888-.928 1.888-2.067V2.066C20 .926 19.153 0 18.112 0H1.89C.85 0 0 .927 0 2.066zm.67 0C.67 1.302 1.214.68 1.89.68H18.11c.673 0 1.22.62 1.22 1.386v11.867c0 .765-.547 1.387-1.22 1.387H1.89c-.675 0-1.22-.62-1.22-1.387V2.066z"/></svg>
