<svg xmlns="http://www.w3.org/2000/svg" width="24" height="24" fill="none"><path stroke="#000" stroke-linecap="round" stroke-miterlimit="10" stroke-width=".85" d="M12.6 18.6v2c0 2.2 3.5.9 3.4 2.9H7.9c0-2.2 3.3-.4 3.3-2.7v-2M6.9 8l-2.4-.6c-.7-.2-1.2.6-1.4 1.5-.8 2.9.5 7.7 4.6 7.1M16.9 8l2.4-.6c.7-.2 1.2.6 1.4 1.5.5 2.9-.5 7.7-4.6 7.1"/><path fill="#fff" stroke="#000" stroke-linecap="round" stroke-miterlimit="10" stroke-width=".85" d="M11.8 18.6c-2.7 0-4.9-2.2-4.9-4.9V6.4h9.8v7.3c0 2.7-2.2 4.9-4.9 4.9Z"/><path stroke="#000" stroke-linecap="round" stroke-miterlimit="10" stroke-width=".85" d="m12.9 10.9-.7-1.4c-.1-.3-.5-.3-.7 0l-.7 1.4-1.5.2c-.3 0-.4.4-.2.6l1.1 1.1-.2 1.5c0 .3.3.5.5.4l1.3-.7 1.4.7c.3.1.6-.1.5-.4l-.3-1.5 1.1-1.1c.2-.2.1-.6-.2-.6l-1.4-.2Z"/><path fill="#fff" stroke="#000" stroke-linecap="round" stroke-miterlimit="10" stroke-width=".85" d="m4.7 1.7.4-.7.4.7c.3.5.7 1 1.2 1.2l.7.4-.6.4c-.6.3-1 .7-1.3 1.2l-.4.8-.4-.8C4.4 4.4 4 4 3.5 3.7l-.7-.4.7-.4c.5-.3.9-.7 1.2-1.2ZM3.6 18.7l.3-.5.3.5c.2.4.5.7.9.9l.5.3-.6.3c-.4.2-.7.5-.9.9l-.3.5-.2-.6c-.2-.4-.5-.7-.9-.9l-.5-.3.5-.3c.4-.1.7-.4.9-.8ZM13.4 5.2l.3-.5.3.5c.2.4.5.7.9.9l.5.3-.5.3c-.4.2-.7.5-.9.9l-.4.4-.3-.5c-.2-.4-.5-.7-.9-.9l-.4-.2.5-.3c.4-.2.7-.5.9-.9ZM20.1 2.9l.3-.5.3.5c.2.4.5.7.9.9l.4.3-.5.3c-.4.2-.7.5-.9.9l-.3.5-.3-.5c-.2-.4-.5-.7-.9-.9l-.5-.3.5-.3c.5-.2.8-.5 1-.9Z"/></svg>