<svg xmlns="http://www.w3.org/2000/svg" viewBox="0 0 90 90"><g><circle cx="45" cy="45" r="44"/><path fill="#fff" d="M64.251 35.875l-2.846-12.15L11.287 35.28l4.63 19.767a3.34 3.34 0 0 0 4.008 2.476l1.221-.281V40.147a4.294 4.294 0 0 1 4.307-4.272zM60.235 18.733a3.34 3.34 0 0 0-4.007-2.476L12.613 26.31a3.31 3.31 0 0 0-2.496 3.975l.16.682 50.118-11.553z"/><path fill="#fff" d="M71.739 37.584H25.453a2.573 2.573 0 0 0-2.584 2.563v26.917a2.574 2.574 0 0 0 2.584 2.563h46.286a2.574 2.574 0 0 0 2.583-2.563V40.147a2.573 2.573 0 0 0-2.583-2.563zM30.17 48.59a.858.858 0 0 1 .861-.854h5.442a.858.858 0 0 1 .861.854v4.51a.827.827 0 0 1-.141.44.85.85 0 0 1-.72.414h-5.442a.858.858 0 0 1-.861-.854zM45.41 60.368H30.17V59.09h15.24zm18.425-8.246h-15.24V49.57h15.24z"/></g></svg>
