<svg xmlns="http://www.w3.org/2000/svg" viewBox="0 0 104 104"><style>.st0{fill:#010101;}</style><path class="st0" d="M104 50.2C103.2 23.2 81 .9 53.7 0 23.6-.9-1 23.7 0 53.8.8 81 23 103.1 50.3 104c30.1.9 54.7-23.7 53.7-53.8zM19.5 64.4c22.1-5 22.2-29.2 22.1-32.9.5 1.8 2.2 9 .7 16.3h.1c20-.3 25.5-16.2 27.1-26.1l.1.1c1.6 7.7 5.8 17.5 16.3 21.7 1.6 6.2 1.5 13.2-.8 20.2-3 8.8-12.4 18.3-21.2 21.3-10.4 3.5-20.6 2.2-28.7-2.2-7.1-4.1-12.7-10.5-15.7-18.4z"/><path class="st0" d="M58.3 49c.6 1.4 1.4 6.8 9.4 11.5v-.1c-2.1-1.5-2.7-3.7-2.8-5.9v-.9c2.8 3.8 7.3 6.1 8.9 6.1v-.1c-1.1-.4-2-1-2.7-1.7-1.1-1.2-1.7-2.9-2-4.4 3.5 3.1 8.7 4.2 10.2 3.9v-.1c-4.3-.6-5.3-2.6-5.9-5 4 2.2 9.3 2.4 10.7 1.7v-.1c-7.3-.1-9.2-5.2-9.3-5.4 0 0 0 .1-.1.1 0 0 0-.1-.1-.1-2 4.1-12.6 5.7-16 .2l-.5.3c.1-.1.1 0 .2 0zm-3.2 29.7c1.6-.2 3-.9 4.4-1.7l4.4-2.5-.1-.2h-.1c-.2 0-.5.1-.7.1-1.2.2-2.4.1-3.5-.3s-2.1-.9-3.1-1.7c-.5-.3-1-.6-1.6-.6h-.2c-.1 0-.3 0-.4.1H54c-.1 0-.2.1-.3.1-.1 0-.2.1-.3.1 0 0-.1 0-.1.1-.1.1-.2.1-.4.2s-.3.2-.5.4l-.4-.4c-.5-.4-1.1-.7-1.7-.7s-1.3.2-1.6.6c-2 1.5-4.3 2.4-6.7 2-.2 0-.5-.1-.7-.1l-.1.2v.1l2.3 1.6c3.2 2.3 7.4 3.4 11.4 2.6h.2z"/></svg>
