<svg width="32" height="32" fill="none" xmlns="http://www.w3.org/2000/svg"><path d="M16 0a16 16 0 1 0 0 32 16 16 0 0 0 0-32" fill="#BEDDEF"/><path d="M25.718 12.776h.825a.662.662 0 1 0 0-1.318H25.02l-.266-.932a1.98 1.98 0 0 0-1.905-1.44h-6.494a1.99 1.99 0 0 0-1.905 1.44l-.266.932h-1.519a.66.66 0 0 0-.66.925.662.662 0 0 0 .66.393h.825l-.74.596a1.965 1.965 0 0 0-.746 1.542v6.177a.666.666 0 0 0 .661.662H4.746v1.318H27.19v-1.318h-.647a.666.666 0 0 0 .661-.662v-6.177a1.981 1.981 0 0 0-.74-1.542l-.746-.596Zm-11.73 8.977a.661.661 0 0 0 .657-.662v-.661h9.918v.661a.666.666 0 0 0 .643.662H13.988Z" fill="#000"/><path d="M10.685 19.11H4.741v1.32h5.944v-1.32Z" fill="#000"/><path d="M10.685 17.788H4.741v1.318h5.944v-1.318ZM10.685 20.43H4.741v1.317h5.944V20.43Z" fill="#fff"/><path d="M10.685 16.47H4.741v1.318h5.944v-1.319Z" fill="#000"/><path d="M6.572 16.47c0-1.067.303-2.33 1.156-2.33.852 0 1.155 1.244 1.155 2.33h.33c0-1.458-.493-2.641-1.485-2.641-.993 0-1.5 1.183-1.5 2.64h.344Z" fill="#000"/><path d="m25.001 12.612-.563-1.98a1.658 1.658 0 0 0-1.589-1.197h-6.494a1.668 1.668 0 0 0-1.588 1.197l-.564 1.98h10.798Z" fill="#71B1CA"/><path d="m26.245 13.628-.857-.685H13.812l-.857.685a1.64 1.64 0 0 0-.62 1.286v4.192a.988.988 0 0 0 .992.988h12.545a.992.992 0 0 0 .993-.988v-4.192a1.64 1.64 0 0 0-.62-1.286Z" fill="#F16661"/><path d="M21.917 15.151h-4.621c-.638 0-1.155.518-1.155 1.156v1.649c0 .638.517 1.155 1.155 1.155h4.621c.638 0 1.155-.517 1.155-1.155v-1.65c0-.637-.517-1.155-1.155-1.155ZM14.328 13.996a1.155 1.155 0 1 0 0 2.31 1.155 1.155 0 0 0 0-2.31Z" fill="#000"/><path d="M14.328 15.976a.824.824 0 1 1 0-1.649.824.824 0 0 1 0 1.65Z" fill="#FED085"/><path d="M24.885 13.996a1.156 1.156 0 1 0 .01 2.312 1.156 1.156 0 0 0-.01-2.312Z" fill="#000"/><path d="M24.884 15.976a.824.824 0 1 1 .01-1.648.824.824 0 0 1-.01 1.648Z" fill="#FED085"/></svg>
