<svg xmlns="http://www.w3.org/2000/svg" xmlns:xlink="http://www.w3.org/1999/xlink" width="128" height="128" viewBox="0 0 128 128"><defs><path id="a" d="M0 61.06h120V.648H0z"/></defs><g fill="none" fill-rule="evenodd"><path fill="#000" d="M31.494 38.94v31.013h-12.91v4.14h12.91v4.09H8.262v4.14h23.232v4.09h-16.27v4.138h109.76V70.177H125l-10.943-24.258H98.835v-6.98h-67.34zM5 90.55h5.407v-4.143H5v4.143z"/><g transform="translate(5 38.292)"><path fill="#FFF" d="M112.942 48.365c0 5.924-4.79 10.72-10.698 10.72-5.906 0-10.692-4.796-10.692-10.72 0-5.913 4.786-10.72 10.692-10.72 5.908 0 10.698 4.807 10.698 10.72"/><path fill="#000" d="M102.245 39.62c-4.81 0-8.72 3.923-8.72 8.745 0 4.82 3.91 8.744 8.72 8.744 4.812 0 8.726-3.924 8.726-8.745 0-4.822-3.913-8.746-8.725-8.746m0 21.44c-6.983 0-12.665-5.694-12.665-12.695s5.682-12.696 12.665-12.696c6.985 0 12.67 5.694 12.67 12.695 0 7-5.685 12.695-12.67 12.695"/><mask id="b" fill="#fff"><use xlink:href="#a"/></mask><path fill="#FFF" d="M30.42 41.26h59.473v-9.365H30.42v9.365zm0-20.268h59.473v-9.365H30.42v9.365zm76.12-9.42h-13v20.27h22.123l-9.124-20.27z" mask="url(#b)"/><path fill="#FFF" d="M57.758 48.365c0 5.924-4.79 10.72-10.7 10.72-5.91 0-10.698-4.796-10.698-10.72 0-5.913 4.788-10.72 10.7-10.72 5.908 0 10.698 4.807 10.698 10.72" mask="url(#b)"/><path fill="#000" d="M47.06 39.62c-4.813 0-8.728 3.923-8.728 8.745 0 4.82 3.915 8.744 8.727 8.744s8.727-3.924 8.727-8.745c0-4.822-3.915-8.746-8.727-8.746m0 21.44c-6.987 0-12.67-5.694-12.67-12.695S40.072 35.67 47.06 35.67c6.986 0 12.67 5.695 12.67 12.696 0 7-5.684 12.695-12.67 12.695" mask="url(#b)"/></g></g></svg>