<svg width="32" height="32" viewBox="0 0 32 32" fill="none" xmlns="http://www.w3.org/2000/svg">
<g clip-path="url(#clip0_5069_270899)">
<g clip-path="url(#clip1_5069_270899)">
<path fill-rule="evenodd" clip-rule="evenodd" d="M16 28.8C23.0692 28.8 28.8 23.0692 28.8 16C28.8 8.93075 23.0692 3.2 16 3.2C8.93075 3.2 3.2 8.93075 3.2 16C3.2 23.0692 8.93075 28.8 16 28.8ZM32 16C32 24.8366 24.8366 32 16 32C7.16344 32 0 24.8366 0 16C0 7.16344 7.16344 0 16 0C24.8366 0 32 7.16344 32 16Z" fill="#008048"/>
</g>
<g clip-path="url(#clip2_5069_270899)">
<path fill-rule="evenodd" clip-rule="evenodd" d="M18.0897 31.8648C17.4058 31.954 16.7083 32 16 32C15.2917 32 14.5942 31.954 13.9103 31.8648L14.3242 28.6916C14.8712 28.763 15.4305 28.8 16 28.8C16.5695 28.8 17.1288 28.763 17.6758 28.6916L18.0897 31.8648ZM9.87539 30.7859L11.1012 27.83C10.0623 27.3992 9.0911 26.8347 8.2093 26.157L6.25945 28.6944C7.36044 29.5405 8.57463 30.2465 9.87539 30.7859ZM3.30561 25.7405L5.84295 23.7907C5.16532 22.9089 4.60081 21.9377 4.17001 20.8988L1.21409 22.1246C1.75349 23.4254 2.45954 24.6396 3.30561 25.7405ZM0.135236 18.0897L3.30836 17.6758C3.23699 17.1288 3.2 16.5695 3.2 16C3.2 15.4305 3.237 14.8712 3.30836 14.3242L0.135237 13.9103C0.0460213 14.5942 0 15.2917 0 16C0 16.7083 0.0460212 17.4058 0.135236 18.0897ZM1.21409 9.87539L4.17001 11.1012C4.60081 10.0623 5.16532 9.0911 5.84295 8.2093L3.30561 6.25945C2.45954 7.36044 1.75349 8.57463 1.21409 9.87539ZM6.25946 3.30561L8.2093 5.84295C9.0911 5.16532 10.0623 4.60081 11.1012 4.17001L9.8754 1.21409C8.57464 1.75349 7.36044 2.45954 6.25946 3.30561ZM13.9103 0.135236C14.5942 0.0460211 15.2917 0 16 0C16.7083 0 17.4058 0.0460213 18.0898 0.135237L17.6758 3.30836C17.1288 3.237 16.5695 3.2 16 3.2C15.4305 3.2 14.8712 3.23699 14.3242 3.30836L13.9103 0.135236ZM22.1246 1.21409L20.8988 4.17001C21.9377 4.60081 22.9089 5.16532 23.7907 5.84295L25.7405 3.30561C24.6396 2.45954 23.4254 1.75349 22.1246 1.21409ZM28.6944 6.25946L26.157 8.2093C26.8347 9.0911 27.3992 10.0623 27.83 11.1012L30.7859 9.8754C30.2465 8.57464 29.5405 7.36044 28.6944 6.25946ZM31.8648 13.9103L28.6916 14.3242C28.763 14.8712 28.8 15.4305 28.8 16C28.8 16.5695 28.763 17.1288 28.6916 17.6758L31.8648 18.0898C31.954 17.4058 32 16.7083 32 16C32 15.2917 31.954 14.5942 31.8648 13.9103ZM30.7859 22.1246L27.83 20.8988C27.3992 21.9377 26.8347 22.9089 26.157 23.7907L28.6944 25.7405C29.5405 24.6396 30.2465 23.4254 30.7859 22.1246ZM25.7405 28.6944L23.7907 26.157C22.9089 26.8347 21.9377 27.3992 20.8988 27.83L22.1246 30.7859C23.4254 30.2465 24.6396 29.5405 25.7405 28.6944Z" fill="#008048"/>
</g>
<path fill-rule="evenodd" clip-rule="evenodd" d="M9.30911 15.771L7.19922 17.8282L12.8256 23.3139L25.4849 11.6568L23.375 9.59961L12.8256 19.1996L9.30911 15.771Z" fill="#008048"/>
</g>
<defs>
<clipPath id="clip0_5069_270899">
<rect width="32" height="32" fill="white"/>
</clipPath>
<clipPath id="clip1_5069_270899">
<rect width="16" height="32" fill="white" transform="translate(16)"/>
</clipPath>
<clipPath id="clip2_5069_270899">
<rect width="16" height="32" fill="white"/>
</clipPath>
</defs>
</svg>
