<svg width="78" height="78" viewBox="0 0 78 78" fill="none" xmlns="http://www.w3.org/2000/svg">
<rect width="78" height="78" fill="#EEEEEE"/>
<g clip-path="url(#clip0_7311_194925)">
<path d="M42.1284 8.35693C40.0445 13.96 39.8574 19.7752 40.3517 25.6329C40.699 29.7927 41.3002 33.9384 41.8479 38.0841C42.4757 42.8806 42.3422 47.6488 41.4872 52.3887C40.4987 57.7795 38.7754 62.8873 36.2372 67.6555C36.1437 67.8253 36.0368 67.9951 35.9433 68.1649C35.93 68.1932 35.8765 68.2073 35.7964 68.2498C36.1036 67.3301 36.4109 66.467 36.6647 65.5756C38.1074 60.6659 38.388 55.6147 38.201 50.5069C38.0273 45.767 37.3059 41.1119 36.6513 36.4428C35.4624 28.1373 36.6246 20.1997 39.991 12.6441C40.5654 11.3424 41.2334 10.0831 41.8746 8.8097C41.9414 8.63991 42.0349 8.49842 42.1284 8.35693Z" fill="black"/>
</g>
<defs>
<clipPath id="clip0_7311_194925">
<rect width="13.9286" height="59.8929" fill="white" transform="translate(32.0356 8.35693)"/>
</clipPath>
</defs>
</svg>
