<svg xmlns="http://www.w3.org/2000/svg" viewBox="0 0 20 9.6" fill="#ffffff"><path d="M5.1 4c0-.9.8-1.4.8-1.4-.5-.7-1.1-.8-1.4-.8-.6-.1-1.1.3-1.4.3-.3 0-.7-.3-1.2-.3-.6 0-1.2.4-1.5.9-.7 1.1-.2 2.8.5 3.8.2.5.6 1 1.1 1 .5 0 .7-.3 1.2-.3.6 0 .7.3 1.2.3s.8-.5 1.1-.9c.4-.5.5-1 .5-1.1.1 0-.9-.4-.9-1.5M4 1.2c.2-.3.4-.8.4-1.2-.4 0-.9.3-1.1.6-.3.2-.5.7-.4 1.1.4 0 .8-.2 1.1-.5m7.1 0c-.2-.2-.4-.3-.7-.4-.3-.1-.6-.1-1-.1H7.9v6.6h.6V4.6c.2 0 .4.1.7.1.3 0 .7 0 1-.1.3-.1.6-.2.8-.4.2-.2.4-.4.5-.7.1-.3.2-.6.2-.9 0-.3 0-.5-.1-.8-.2-.3-.3-.4-.5-.6m-.5 2.5c-.4.3-.8.4-1.4.4h-.4c-.1 0-.2 0-.3-.1V1.2h.8c.3 0 .5 0 .7.1.2.1.4.1.5.3.1.1.3.3.3.4.2.1.2.3.2.6 0 .5-.1.9-.4 1.1m4.6 3.1V4.4c0-.2 0-.4-.1-.7 0-.2-.1-.4-.2-.6-.1-.2-.3-.3-.5-.5-.2-.1-.5-.2-.8-.2-.2 0-.5 0-.7.1-.2.1-.5.2-.7.3l.2.5h.1c.2-.1.3-.2.5-.2.1-.1.3-.1.5-.1.3 0 .5 0 .6.1.1.1.3.2.3.3.1.1.1.3.1.4v.5c-.9 0-1.6.1-2.1.4-.5.3-.7.8-.7 1.3 0 .2 0 .3.1.5.2.3.3.5.4.6.1.1.3.2.5.3.2.1.4.1.6.1.2 0 .4 0 .5-.1.2 0 .3-.1.4-.2l.3-.3.1-.1.1.5h.6v-.1c0-.1-.1-.2-.1-.4m-.6-1v.3c0 .1-.1.2-.2.3l-.3.3c-.1.1-.2.1-.4.2-.1 0-.3.1-.5.1-.1 0-.2 0-.3-.1-.1 0-.2-.1-.3-.2-.1-.1-.1-.2-.2-.3 0-.1-.1-.2-.1-.4 0-.3.1-.5.2-.6.1-.2.3-.3.5-.4.2-.1.5-.1.7-.2h.7v1zm4.8-3.2l-1.1 3.1c-.1.1-.2.3-.3.5 0 .1-.1.2-.1.3 0-.1-.1-.2-.1-.3-.1-.2-.1-.4-.2-.5l-1.2-3.1h-.6L17.5 7c0 .1.1.2.1.2l-.1.2c-.1.3-.2.5-.4.7-.1.2-.3.3-.4.5-.1.1-.3.2-.4.3-.1 0-.2.1-.3.1h-.1l.2.5h.1c.1 0 .2-.1.3-.1.2-.1.3-.2.5-.4.2-.1.3-.3.4-.5.1-.2.3-.4.4-.6.1-.2.2-.5.4-.8.1-.3.3-.6.4-1L20 2.6h-.6z"/></svg>
