<svg width="924" height="145" xmlns="http://www.w3.org/2000/svg"><path d="M133.065 107.11c.332-.021.665-.021.996 0-11.924 22.526-35.34 37.872-62.062 37.872C31.8 145.979 0 113.515 0 73.428 0 33.562 31.802.874 70.561.874c26.838 0 50.36 15.681 62.172 38.542.335.442.442.662.774 1.323.112.113-22.526 16.455-22.749 16.126-.112-.442-.219-.774-.438-.996-6.522-16.233-21.975-27.054-39.759-26.722-23.742.222-43.29 19.875-43.29 44.278 0 24.628 19.548 44.509 43.29 44.509 17.23 0 32.247-10.605 39.091-25.622.335-.552.445-.993.668-1.435l22.745 16.233zM162.328 2.202h27.164v50.69h71.341V2.202h27.384v141.019h-27.384V81.268h-71.34v61.953h-27.165V2.202zm509.304 141.019V2.202h98.612v28.49h-71.119v28.157h65.707v28.16h-65.707v28.158h81.163v28.054H671.632zm147.199 0V2.202h27.605v112.965h76.64v28.054H818.829h.003zm-295.4 0h-27.605V2.202h38.317l60.404 84.808V2.202h27.386v141.019H600.07L523.43 36.878V143.22zM391.908 30.689l-24.07 56.32h49.25l-25.18-56.317v-.003zm-36.443 84.478L342.88 143.22h-32.692L372.692 2.202h38.207l62.946 141.019h-32.689l-12.695-28.054h-72.999.003z" fill="#000"/></svg>
