<svg width="93" height="21" viewBox="0 0 93 21" fill="none" xmlns="http://www.w3.org/2000/svg">
    <g clip-path="url(#clip0_10250_38443)">
        <path fill-rule="evenodd" clip-rule="evenodd"
            d="M7.5007 0.770281C5.54592 0.770281 4.56778 0.770281 3.52287 1.09508C2.36995 1.51289 1.46082 2.42203 1.04301 3.57645C0.709961 4.63185 0.709961 5.6085 0.709961 7.56402V13.4644C0.709961 15.4304 0.709961 16.3988 1.03476 17.452C1.45257 18.6057 2.3617 19.5148 3.51462 19.9326C4.56928 20.2672 5.54592 20.2672 7.5007 20.2672H13.4071C15.3641 20.2672 16.34 20.2672 17.3924 19.9326C18.5461 19.5148 19.4545 18.6057 19.8723 17.452C20.2054 16.3966 20.2054 15.4199 20.2054 13.4644V7.57231C20.2054 5.6145 20.2054 4.63785 19.8723 3.58469C19.4545 2.43103 18.5453 1.52189 17.3924 1.10408C16.3303 0.769531 15.3641 0.769531 13.3973 0.769531H7.49997L7.5007 0.770281Z"
            fill="#00D633" />
        <path
            d="M11.2469 9.57236C13.3011 10.0125 14.2401 10.8636 14.2401 12.3015C14.2401 14.1041 12.7723 15.4347 10.4808 15.5756L10.2573 16.6419C10.2354 16.7461 10.1435 16.8207 10.037 16.8207H8.2742C8.1289 16.8207 8.02168 16.6851 8.05525 16.5437L8.33817 15.3513C7.20238 15.0281 6.28839 14.3995 5.75559 13.6236C5.68851 13.5258 5.71076 13.3924 5.8043 13.3196L7.03643 12.3613C7.13799 12.2823 7.28353 12.3054 7.35859 12.4099C8.0115 13.3186 9.01314 13.8568 10.2198 13.8568C11.3056 13.8568 12.1272 13.3286 12.1272 12.5656C12.1272 11.9787 11.7164 11.7146 10.3372 11.4211C7.96015 10.9222 7.02108 10.0419 7.02108 8.60393C7.02108 6.93555 8.42322 5.67525 10.5383 5.51156L10.7692 4.4103C10.7911 4.30608 10.8829 4.23145 10.9894 4.23145H12.7286C12.8721 4.23145 12.9789 4.3639 12.9485 4.50413L12.6812 5.73805C13.5913 6.0182 14.3324 6.51911 14.7937 7.13727C14.8652 7.23304 14.8468 7.36872 14.7543 7.4445L13.6302 8.36633C13.5325 8.44644 13.3899 8.42896 13.3105 8.33069C12.7391 7.62404 11.8397 7.22469 10.8654 7.22469C9.77961 7.22469 9.10465 7.69423 9.10465 8.36919C9.10465 8.92676 9.63285 9.22023 11.2469 9.57236Z"
            fill="white" />
        <path
            d="M33.2097 4.57327C33.1701 4.46808 33.0694 4.39844 32.957 4.39844H30.7612C30.6488 4.39844 30.5481 4.46815 30.5085 4.57343L26.2785 15.822C26.2121 15.9986 26.3426 16.1871 26.5312 16.1871H28.1946C28.3075 16.1871 28.4085 16.1169 28.4478 16.011L29.3511 13.5765H34.326L35.2373 16.0117C35.2767 16.1172 35.3775 16.1871 35.4901 16.1871H37.1948C37.3836 16.1871 37.5141 15.9985 37.4475 15.8218L33.2097 4.57327ZM30.0735 11.6309L31.8221 6.90225L33.5953 11.6309H30.0735Z"
            fill="white" />
        <path
            d="M48.1453 14.4104C47.993 14.4234 47.8482 14.4298 47.6419 14.4298C46.9524 14.4298 46.5254 14.3395 46.5254 13.5843V9.35637H48.0368C48.1859 9.35637 48.3068 9.23552 48.3068 9.08638V7.82863C48.3068 7.67949 48.1859 7.55857 48.0368 7.55857H46.5254V5.33296C46.5254 5.18382 46.4045 5.06292 46.2554 5.06292H44.6938C44.5447 5.06292 44.4238 5.18382 44.4238 5.33296V7.55857H41.017V7.18097C41.017 6.2615 41.4194 6.03991 42.1664 6.03991C42.2936 6.03991 42.3879 6.03991 42.4799 6.0421C42.632 6.04583 42.7574 5.92432 42.7574 5.77222V4.50497C42.7574 4.36087 42.6441 4.24185 42.5001 4.23519C42.2927 4.22559 42.1376 4.22559 41.9037 4.22559C39.876 4.22559 38.8826 5.23534 38.8826 7.04134V7.55857H37.9705C37.8214 7.55857 37.7004 7.67949 37.7004 7.82863V9.08638C37.7004 9.23552 37.8214 9.35637 37.9705 9.35637H38.8826V15.9166C38.8826 16.0658 39.0035 16.1867 39.1527 16.1867H40.7471C40.8962 16.1867 41.017 16.0658 41.017 15.9166V9.35637H44.4238V13.9783C44.4238 15.7434 45.3268 16.2851 47.018 16.2851C47.4584 16.2851 47.8663 16.2526 48.2108 16.2007C48.3421 16.181 48.4383 16.0668 48.4383 15.9339V14.6794C48.4383 14.5213 48.3029 14.397 48.1453 14.4104Z"
            fill="white" />
        <path
            d="M53.5028 7.39453C51.081 7.39453 49.3489 9.34022 49.3489 11.8768C49.3489 14.5449 51.0811 16.3674 53.5849 16.3674C55.2063 16.3674 56.5518 15.5759 57.2184 14.1977C57.2872 14.0554 57.2147 13.8845 57.0663 13.8301L55.7734 13.3562C55.6413 13.3078 55.4929 13.3685 55.4357 13.4971C55.1188 14.2088 54.4334 14.586 53.5931 14.586C52.3946 14.586 51.549 13.7404 51.393 12.3448H57.1158C57.265 12.3448 57.3858 12.2239 57.3858 12.0747V11.6798C57.3858 9.29094 56.0313 7.39453 53.5028 7.39453ZM51.4833 10.8261C51.7706 9.71782 52.5177 9.14319 53.4864 9.14319C54.6686 9.14319 55.235 9.92303 55.2514 10.8261H51.4833Z"
            fill="white" />
        <path
            d="M63.6627 7.52015C63.571 7.51393 63.4699 7.50977 63.3544 7.50977C62.2707 7.50977 61.4005 8.027 61.0229 8.80692V7.8291C61.0229 7.67996 60.902 7.55904 60.7528 7.55904H59.1585C59.0093 7.55904 58.8884 7.67996 58.8884 7.8291V15.9171C58.8884 16.0662 59.0093 16.1871 59.1585 16.1871H60.7528C60.902 16.1871 61.0229 16.0662 61.0229 15.9171V11.7295C61.0229 10.3749 61.9588 9.6032 63.182 9.6032C63.3468 9.6032 63.4829 9.60891 63.6192 9.62038C63.777 9.63362 63.9126 9.50985 63.9126 9.35149V7.78948C63.9126 7.64809 63.8038 7.52972 63.6627 7.52015Z"
            fill="white" />
        <path
            d="M69.8885 7.39453C68.7887 7.39453 67.9677 7.82967 67.4423 8.46176V7.82879C67.4423 7.67965 67.3214 7.55873 67.1722 7.55873H65.5779C65.4288 7.55873 65.3079 7.67965 65.3079 7.82879V18.8557C65.3079 19.0048 65.4288 19.1258 65.5779 19.1258H67.1722C67.3214 19.1258 67.4423 19.0048 67.4423 18.8557V15.292C67.9677 15.9323 68.7887 16.3674 69.8885 16.3674C72.2857 16.3674 73.6652 14.3314 73.6652 11.8768C73.6652 9.43051 72.2857 7.39453 69.8885 7.39453ZM69.4206 14.5203C68.2632 14.5203 67.3931 13.6583 67.3931 12.1313V11.6388C67.3931 10.0872 68.2632 9.24167 69.4206 9.24167C70.7833 9.24167 71.5144 10.3171 71.5144 11.8768C71.5144 13.4449 70.7833 14.5203 69.4206 14.5203Z"
            fill="white" />
        <path
            d="M82.416 14.575C82.0834 14.5601 81.9481 14.3901 81.9481 14.0031V10.3827C81.9481 8.38792 80.6673 7.39453 78.5413 7.39453C76.7027 7.39453 75.4591 8.38719 74.9634 9.68712C74.9035 9.84342 74.9963 10.0163 75.1608 10.0503L76.6434 10.3578C76.7743 10.3849 76.9059 10.3125 76.9512 10.1872C77.1896 9.52942 77.6501 9.20058 78.4587 9.20058C79.4603 9.20058 79.8624 9.68492 79.8624 10.4649V10.6044L77.5968 11.0559C75.8977 11.3843 74.592 12.1068 74.592 13.7896C74.592 15.3247 75.8488 16.3346 77.5149 16.3346C78.6393 16.3346 79.5261 15.9815 80.0766 15.3741C80.3931 16.0471 81.141 16.3411 82.435 16.2147C82.5732 16.2012 82.6785 16.0843 82.6785 15.9456V14.8446C82.6785 14.6986 82.5622 14.5815 82.416 14.575ZM79.8624 13.1329C79.8624 14.1427 78.9025 14.6763 77.8929 14.6763C77.1698 14.6763 76.7019 14.3151 76.7019 13.683C76.7019 12.9523 77.2934 12.6978 78.0895 12.5336L79.8624 12.1642V13.1329Z"
            fill="white" />
        <path
            d="M90.9657 7.55859H89.3735C89.2579 7.55859 89.1549 7.63236 89.1176 7.74195L87.1934 13.4201L85.2202 7.74005C85.1829 7.63141 85.0806 7.55859 84.9651 7.55859H83.3223C83.1337 7.55859 83.0036 7.74707 83.0701 7.92362L86.0522 15.8583L85.7488 16.6053C85.4856 17.262 85.1654 17.4345 84.5337 17.4345C84.3904 17.4345 84.2815 17.4293 84.1675 17.4204C84.011 17.4081 83.8765 17.5322 83.8765 17.6896V18.9078C83.8765 19.0468 83.9825 19.1636 84.1207 19.1766C84.2822 19.1919 84.4394 19.1995 84.7304 19.1995C86.5778 19.1995 87.3491 18.2554 87.8747 16.8352L91.2187 7.92355C91.2852 7.74699 91.1544 7.55859 90.9657 7.55859Z"
            fill="white" />
    </g>
    <defs>
        <clipPath id="clip0_10250_38443">
            <rect width="92" height="21" fill="white" transform="translate(0.154541)" />
        </clipPath>
    </defs>
</svg>