<svg xmlns="http://www.w3.org/2000/svg" width="128" height="128"><g fill="none" fill-rule="evenodd"><path d="M14.484 11.773a1.355 1.355 0 0 1-1.354-1.355V6.355a1.355 1.355 0 0 1 2.71 0v4.063c0 .748-.608 1.355-1.356 1.355zm0 12.19a1.355 1.355 0 0 1-1.354-1.354v-4.064a1.355 1.355 0 0 1 2.71 0v4.064c0 .748-.608 1.355-1.356 1.355zm-4.064-8.127H6.355a1.355 1.355 0 0 1 0-2.709h4.065a1.355 1.355 0 0 1 0 2.71zm12.194 0h-4.065a1.355 1.355 0 0 1 0-2.709h4.065a1.355 1.355 0 0 1 0 2.71zM14.5 16c-.39 0-.78-.166-1.065-.438A1.592 1.592 0 0 1 13 14.491c0-.393.165-.785.435-1.072.57-.559 1.56-.559 2.13 0 .27.287.435.68.435 1.072s-.165.784-.435 1.071A1.572 1.572 0 0 1 14.5 16zM63.5 118c-.39 0-.78-.166-1.065-.438a1.592 1.592 0 0 1-.435-1.071c0-.41.165-.8.435-1.072.57-.559 1.575-.559 2.13 0 .27.285.435.663.435 1.072 0 .392-.165.784-.435 1.071-.285.272-.66.438-1.065.438zm-29-32c-.39 0-.78-.166-1.065-.438A1.564 1.564 0 0 1 33 84.491c0-.393.165-.785.435-1.072.555-.559 1.56-.559 2.13 0 .27.287.435.68.435 1.072s-.165.784-.435 1.071A1.572 1.572 0 0 1 34.5 86zm86-15a1.57 1.57 0 0 1-1.065-.438 1.585 1.585 0 0 1-.435-1.071c0-.393.163-.787.435-1.072.57-.559 1.575-.559 2.13 0 .27.285.435.68.435 1.072s-.165.784-.435 1.071A1.572 1.572 0 0 1 120.5 71zm-82 39c-.407 0-.782-.166-1.065-.438a1.585 1.585 0 0 1-.435-1.071c0-.41.163-.787.435-1.072.555-.559 1.575-.559 2.13 0 .27.285.435.663.435 1.072 0 .392-.165.784-.435 1.071A1.572 1.572 0 0 1 38.5 110zm39-104c-.406 0-.781-.166-1.065-.439A1.59 1.59 0 0 1 76 4.488c0-.409.163-.787.435-1.074.538-.544 1.56-.56 2.13 0 .27.287.435.665.435 1.074 0 .393-.165.786-.435 1.073A1.57 1.57 0 0 1 77.5 6zm-73 32c-.39 0-.78-.166-1.065-.438A1.592 1.592 0 0 1 3 36.491c0-.393.165-.787.435-1.072.555-.559 1.56-.559 2.13 0 .27.285.435.68.435 1.072s-.165.784-.435 1.071A1.572 1.572 0 0 1 4.5 38z" fill="#000" fill-rule="nonzero"/><g fill="#000" fill-rule="nonzero"><path d="M116.143 116a1.143 1.143 0 0 1-1.143-1.143 6.864 6.864 0 0 1 6.857-6.857 1.143 1.143 0 1 1 0 2.286 4.576 4.576 0 0 0-4.571 4.571c0 .631-.511 1.143-1.143 1.143zm-5-5a1.143 1.143 0 1 1 0-2.286 4.576 4.576 0 0 0 4.571-4.571 1.143 1.143 0 1 1 2.286 0 6.864 6.864 0 0 1-6.857 6.857z"/><path d="M116.857 116a1.143 1.143 0 0 1-1.143-1.143 4.576 4.576 0 0 0-4.571-4.571 1.143 1.143 0 1 1 0-2.286 6.864 6.864 0 0 1 6.857 6.857c0 .631-.51 1.143-1.143 1.143zm5-5a6.864 6.864 0 0 1-6.857-6.857 1.143 1.143 0 1 1 2.286 0 4.576 4.576 0 0 0 4.571 4.571 1.143 1.143 0 1 1 0 2.286z"/></g><path fill="#FEFEFE" d="M35 49c0 22.091 17.909 40 40 40 22.092 0 40-17.909 40-40S97.092 9 75 9C52.909 9 35 26.909 35 49"/><path fill="#231F20" d="M75 10.5c-21.229 0-38.5 17.271-38.5 38.5S53.771 87.5 75 87.5s38.5-17.271 38.5-38.5S96.229 10.5 75 10.5M75 91c-23.16 0-42-18.84-42-42S51.84 7 75 7s42 18.84 42 42-18.84 42-42 42"/><path fill="#FEFEFE" d="M47 48.5C47 64.24 59.76 77 75.5 77S104 64.24 104 48.5 91.24 20 75.5 20 47 32.76 47 48.5"/><path fill="#231F20" d="M75.5 21.536c-14.868 0-26.964 12.096-26.964 26.964 0 14.868 12.096 26.964 26.964 26.964 14.868 0 26.964-12.096 26.964-26.964 0-14.868-12.096-26.964-26.964-26.964M75.5 79C58.682 79 45 65.318 45 48.5 45 31.682 58.682 18 75.5 18 92.318 18 106 31.682 106 48.5 106 65.318 92.318 79 75.5 79"/><path fill="#FEFEFE" d="M119 18h-14.237c-3.973 3.279-15.57 5.652-29.263 5.652-13.693 0-25.29-2.373-29.263-5.652H32v5.652h.011c-.003.073-.011.145-.011.218C32 31.673 51.476 38 75.5 38S119 31.673 119 23.87c0-.073-.008-.145-.011-.218H119V18z"/><path fill="#231F20" d="M33.495 22.537h.084l-.082 1.895c-.002 5.763 17.044 12.16 41.503 12.16 24.46 0 41.505-6.397 41.505-12.138l-.01-.134-.085-1.783h.095v-2.13h-11.812C99.9 23.785 88.407 25.944 75 25.944s-24.901-2.159-29.693-5.537H33.495v2.13zM75 40c-11.733 0-22.788-1.47-31.13-4.14-9.77-3.127-12.962-6.9-13.691-9.916h-.168l-.008-1.311a6.201 6.201 0 0 1-.003-.18V17h16.537l.486.395c3.046 2.477 13.1 5.142 27.977 5.142s24.93-2.665 27.977-5.142l.486-.395H120v8.944h-.179c-.729 3.015-3.92 6.79-13.692 9.916C97.79 38.53 86.733 40 75 40z"/><path fill="#FEFEFE" d="M32 18c0 7.732 19.476 14 43.5 14S119 25.732 119 18 99.524 4 75.5 4 32 10.268 32 18"/><path fill="#231F20" d="M75 5.397c-24.46 0-41.505 6.379-41.505 12.103S50.541 29.603 75 29.603c24.46 0 41.505-6.379 41.505-12.103S99.459 5.397 75 5.397M75 33c-11.733 0-22.788-1.466-31.13-4.127C32.407 25.215 30 20.669 30 17.5c0-3.17 2.406-7.715 13.87-11.373C52.213 3.466 63.268 2 75 2s22.788 1.466 31.13 4.127C117.593 9.785 120 14.331 120 17.5c0 3.17-2.406 7.715-13.87 11.373C97.787 31.534 86.732 33 75 33"/><path fill="#FEFEFE" d="M44 16c0 4.418 13.655 8 30.5 8s30.5-3.582 30.5-8-13.655-8-30.5-8S44 11.582 44 16"/><path fill="#231F20" d="M75.5 9.52c-18.754 0-28.984 4.28-28.984 6.48s10.23 6.48 28.984 6.48 28.984-4.28 28.984-6.48S94.254 9.52 75.5 9.52m0 16.48c-8.36 0-16.242-.879-22.192-2.474C46.468 21.693 43 19.161 43 16c0-3.16 3.468-5.693 10.308-7.526C59.258 6.879 67.14 6 75.5 6s16.242.879 22.192 2.474C104.532 10.307 108 12.839 108 16c0 3.16-3.468 5.693-10.308 7.526C91.742 25.121 83.86 26 75.5 26"/><path fill="#231F20" d="M61.65 17c-.62 0-1.213-.353-1.494-.954a1.66 1.66 0 0 1 .793-2.203l5.703-2.686a1.645 1.645 0 0 1 2.192.796 1.66 1.66 0 0 1-.794 2.204l-5.702 2.686a1.635 1.635 0 0 1-.698.157m21 3c-.62 0-1.213-.353-1.494-.954a1.66 1.66 0 0 1 .793-2.203l5.703-2.686a1.645 1.645 0 0 1 2.192.797 1.66 1.66 0 0 1-.794 2.203l-5.702 2.686a1.635 1.635 0 0 1-.698.157M67.7 21a1.698 1.698 0 0 1-1.538-.99 1.742 1.742 0 0 1 .81-2.302l13.6-6.541a1.688 1.688 0 0 1 2.263.823 1.741 1.741 0 0 1-.81 2.302l-13.6 6.542a1.671 1.671 0 0 1-.725.166"/><g><path fill="#FEFEFE" d="M9 80V66.646S9 55.016 13.875 52c0 0 6.5 3.015 7.719 7.323 0 0 .406 1.292.406 6.462V80H9z"/><path fill="#231F20" d="M11.4 78.493h10.2V65.781c0-4.567-.323-5.95-.351-6.066l-.002-.006c-.733-2.518-4.276-4.854-6.271-5.922-1.312 1.225-2.327 3.568-2.96 6.855a36.262 36.262 0 0 0-.616 6.016v11.835zM9.7 82c-.939 0-1.7-.785-1.7-1.753v-13.59c0-1.314.167-12.942 5.943-16.418a1.657 1.657 0 0 1 1.539-.092c.769.347 7.55 3.533 9.017 8.54.132.436.501 2.103.501 7.094v14.466c0 .968-.761 1.753-1.7 1.753H9.7z"/><path fill="#FEFEFE" d="M9.186 112C8 112 7 110.821 7 109.426V78.109C7.37 77.477 10.3 76 15.5 76s8.13 1.477 8.5 2.109v31.317c0 1.395-1 2.574-2.185 2.574H9.185z"/><path fill="#231F20" d="M16.5 75C10.7 75 6 76.631 6 78.644V108.835C6 111.127 7.8 113 10 113h13c2.2 0 4-1.874 4-4.164V78.644C27 76.63 22.3 75 16.5 75m0 3.378c3.664 0 6.043.714 7 1.177v29.28c0 .489-.324.787-.5.787H10c-.176 0-.5-.298-.5-.786V79.555c.957-.463 3.336-1.177 7-1.177"/><path fill="#FEFEFE" d="M6.692 124A1.69 1.69 0 0 1 5 122.316v-12.632A1.69 1.69 0 0 1 6.692 108h18.616A1.69 1.69 0 0 1 27 109.684v12.632A1.69 1.69 0 0 1 25.308 124H6.692z"/><path fill="#231F20" d="M25.533 106H6.467C4.56 106 3 107.565 3 109.478v13.044C3 124.435 4.56 126 6.467 126h19.066c1.907 0 3.467-1.565 3.467-3.478v-13.044c0-1.913-1.56-3.478-3.467-3.478zM6.467 122.522h19.066v-13.044H6.467v13.044z"/></g><g><path fill="#000" d="M86.504 116a4.81 4.81 0 0 1-3.399-1.384l-15.78-15.531C65.18 96.975 64 94.171 64 91.187 64 84.277 69.84 80 75.25 80c3.129 0 5.939 1.138 8.125 3.29l3.125 3.074 3.125-3.075C91.81 81.138 94.62 80 97.75 80c5.411 0 11.25 4.278 11.25 11.187 0 2.984-1.181 5.789-3.324 7.898l-15.783 15.531A4.804 4.804 0 0 1 86.504 116z"/><path fill="#FFF" d="M75.357 83C71.337 83 67 86.172 67 91.296c0 2.212.879 4.29 2.476 5.854l15.633 15.304c.74.727 2.036.73 2.782 0l15.632-15.304c1.597-1.564 2.477-3.642 2.477-5.854 0-5.124-4.337-8.296-8.357-8.296-1.635 0-4.017.424-6.079 2.444l-4.08 3.994a1.412 1.412 0 0 1-1.969 0l-4.08-3.994C79.374 83.424 76.993 83 75.358 83z"/></g><g fill="#000" fill-rule="nonzero"><path d="M48.089 106.964c-.87 0-1.577-.707-1.577-1.58 0-5.23 4.242-9.482 9.459-9.482.871 0 1.576.706 1.576 1.58 0 .874-.705 1.58-1.576 1.58-3.478 0-6.306 2.835-6.306 6.321 0 .874-.706 1.58-1.576 1.58zm-7.882-7.902c-.87 0-1.576-.706-1.576-1.58 0-.874.706-1.58 1.576-1.58 3.477 0 6.305-2.836 6.305-6.322a1.578 1.578 0 0 1 3.153 0c0 5.23-4.242 9.482-9.458 9.482z"/><path d="M48.089 106.964c-.87 0-1.577-.707-1.577-1.58 0-3.487-2.828-6.322-6.305-6.322-.87 0-1.576-.706-1.576-1.58 0-.874.706-1.58 1.576-1.58 5.216 0 9.458 4.252 9.458 9.481 0 .874-.706 1.58-1.576 1.58zm7.882-7.902c-5.217 0-9.459-4.252-9.459-9.482a1.578 1.578 0 0 1 3.153 0c0 3.486 2.828 6.322 6.306 6.322.871 0 1.576.706 1.576 1.58 0 .874-.705 1.58-1.576 1.58z"/></g></g></svg>