<svg xmlns="http://www.w3.org/2000/svg" xmlns:xlink="http://www.w3.org/1999/xlink" width="128" height="128"><defs><path id="a" d="M35.758 99.486c-.477 0-.916-.193-1.248-.51A1.843 1.843 0 0 1 34 97.73c0-.474.193-.913.51-1.248.631-.632 1.828-.65 2.494 0 .316.334.511.773.511 1.248 0 .456-.195.914-.511 1.247-.333.317-.79.51-1.246.51z"/><path id="b" d="M112.428 108.717a1.254 1.254 0 0 1-1.24 1.44 5.026 5.026 0 0 0-5.02 5.023 1.255 1.255 0 0 1-1.447 1.24 1.255 1.255 0 0 1-1.447-1.24c0-2.77-2.25-5.022-5.02-5.022a1.254 1.254 0 0 1-1.24-1.44 1.254 1.254 0 0 1 1.24-1.44 5.025 5.025 0 0 0 5.02-5.023 1.255 1.255 0 0 1 1.447-1.24 1.255 1.255 0 0 1 1.447 1.24c0 2.77 2.25 5.022 5.02 5.022a1.254 1.254 0 0 1 1.24 1.44zm-5.106 0a7.586 7.586 0 0 1-2.601-2.605 7.586 7.586 0 0 1-2.6 2.605 7.587 7.587 0 0 1 2.6 2.606 7.587 7.587 0 0 1 2.6-2.606z"/></defs><g fill-rule="evenodd"><path d="M16.483 17.486a1.498 1.498 0 0 1-1.498-1.497v-4.492a1.498 1.498 0 0 1 2.995 0v4.492c0 .826-.67 1.497-1.497 1.497zm0 13.474c-.827 0-1.498-.67-1.498-1.497V24.97a1.498 1.498 0 0 1 2.995 0v4.492c0 .826-.67 1.497-1.497 1.497zm-4.493-8.983H7.498a1.498 1.498 0 0 1 0-2.994h4.492a1.498 1.498 0 0 1 0 2.994zm13.478 0h-4.493a1.498 1.498 0 0 1 0-2.994h4.493a1.498 1.498 0 0 1 0 2.994zm-8.985 0c-.39 0-.779-.165-1.063-.434a1.574 1.574 0 0 1-.435-1.063c0-.39.165-.779.435-1.063.569-.554 1.557-.554 2.126 0 .27.284.434.674.434 1.063 0 .39-.164.778-.434 1.063-.284.27-.674.434-1.063.434zM22.473 83.486a1.497 1.497 0 1 1 0 2.994 5.995 5.995 0 0 0-5.99 5.988 1.497 1.497 0 1 1-2.995 0 5.995 5.995 0 0 0-5.99-5.988 1.497 1.497 0 1 1 0-2.994 5.995 5.995 0 0 0 5.99-5.989 1.497 1.497 0 1 1 2.995 0 5.995 5.995 0 0 0 5.99 5.989zm-4.963 1.497a9.055 9.055 0 0 1-2.525-2.525 9.055 9.055 0 0 1-2.525 2.525c1 .665 1.86 1.524 2.525 2.524.665-1 1.525-1.86 2.525-2.524zm85.323-71.15a1.166 1.166 0 1 1 0 2.334 4.671 4.671 0 0 0-4.666 4.666 1.166 1.166 0 1 1-2.334 0 4.671 4.671 0 0 0-4.666-4.666 1.166 1.166 0 1 1 0-2.334 4.671 4.671 0 0 0 4.666-4.666 1.166 1.166 0 1 1 2.334 0 4.671 4.671 0 0 0 4.666 4.666zM98.967 15A7.055 7.055 0 0 1 97 13.033 7.055 7.055 0 0 1 95.033 15 7.055 7.055 0 0 1 97 16.967 7.055 7.055 0 0 1 98.967 15z" fill-rule="nonzero"/><use xlink:href="#a"/><use xlink:href="#b"/><path d="M53.018 23.858a1.81 1.81 0 0 1-1.247-.51 1.842 1.842 0 0 1-.509-1.248c0-.477.192-.916.509-1.249.65-.65 1.845-.65 2.495 0 .316.333.509.772.509 1.249 0 .456-.193.914-.509 1.247-.334.317-.79.51-1.248.51z"/><path fill-rule="nonzero" d="M32.763 58.938l27.73 10.655L72.476 97.34a2.75 2.75 0 0 0 5.147-.256l19.25-60.506.01-.04c.023-.075.036-.152.052-.23.015-.075.034-.148.044-.222.008-.07.008-.14.011-.212.004-.08.011-.162.008-.243-.002-.067-.015-.133-.022-.2-.01-.085-.016-.167-.033-.25-.013-.063-.035-.125-.053-.187-.025-.085-.047-.169-.079-.251-.02-.054-.05-.106-.074-.158a3.047 3.047 0 0 0-.132-.259c-.007-.011-.01-.023-.018-.036-.025-.038-.055-.071-.08-.108-.056-.079-.11-.157-.173-.23-.044-.05-.092-.096-.14-.144-.06-.06-.118-.12-.183-.174a2.944 2.944 0 0 0-.192-.14c-.046-.032-.087-.069-.135-.099l-.03-.012a2.738 2.738 0 0 0-.792-.314c-.021-.004-.04-.012-.06-.016a2.742 2.742 0 0 0-.83-.038c-.025.003-.05.003-.073.006-.179.023-.357.06-.533.12L32.865 53.768a2.75 2.75 0 0 0-.102 5.17zM74.916 92.95L64.55 68.334l26.4-27.084-16.034 51.7zm13.834-53.9l-26.507 26.4-24.093-9.219 50.6-17.181z"/></g></svg>