<svg xmlns="http://www.w3.org/2000/svg" xmlns:xlink="http://www.w3.org/1999/xlink" width="128" height="128"><defs><path id="a" d="M9.913 75c.693 0 1.255.563 1.255 1.255 0 2.77 2.25 5.022 5.02 5.022a1.254 1.254 0 011.24 1.441 1.254 1.254 0 01-1.24 1.44 5.025 5.025 0 00-5.02 5.022 1.256 1.256 0 01-1.447 1.241 1.255 1.255 0 01-1.447-1.241c0-2.77-2.25-5.022-5.02-5.022a1.254 1.254 0 01-1.24-1.441 1.254 1.254 0 011.24-1.44c2.77 0 5.02-2.252 5.02-5.022a1.255 1.255 0 011.448-1.24c.061-.01.126-.015.19-.015zm-.192 5.112l-.084.137a7.578 7.578 0 01-2.517 2.469 7.576 7.576 0 012.601 2.605 7.596 7.596 0 012.601-2.606 7.585 7.585 0 01-2.601-2.605z"/><path id="b" d="M100.913 0c.693 0 1.255.563 1.255 1.255 0 2.77 2.25 5.022 5.02 5.022a1.254 1.254 0 011.24 1.441 1.254 1.254 0 01-1.24 1.44 5.025 5.025 0 00-5.02 5.022 1.256 1.256 0 01-1.447 1.241 1.255 1.255 0 01-1.447-1.241c0-2.77-2.25-5.022-5.02-5.022a1.254 1.254 0 01-1.24-1.441 1.254 1.254 0 011.24-1.44c2.77 0 5.02-2.252 5.02-5.022a1.255 1.255 0 011.448-1.24c.061-.01.126-.015.19-.015zm-.192 5.112l-.084.137a7.578 7.578 0 01-2.517 2.469 7.576 7.576 0 012.601 2.605 7.596 7.596 0 012.601-2.606 7.585 7.585 0 01-2.601-2.605z"/><path id="c" d="M29.758 96.486c-.477 0-.916-.193-1.248-.51a1.841 1.841 0 01-.51-1.247c0-.474.193-.913.51-1.248.631-.632 1.828-.65 2.494 0 .316.334.511.773.511 1.248 0 .456-.195.914-.511 1.247-.333.317-.79.51-1.246.51z"/><path id="d" d="M96.913 81c.693 0 1.255.563 1.255 1.255 0 2.77 2.25 5.022 5.02 5.022a1.254 1.254 0 011.24 1.441 1.254 1.254 0 01-1.24 1.44 5.025 5.025 0 00-5.02 5.022 1.256 1.256 0 01-1.447 1.241 1.255 1.255 0 01-1.447-1.241c0-2.77-2.25-5.022-5.02-5.022a1.254 1.254 0 01-1.24-1.441 1.254 1.254 0 011.24-1.44c2.77 0 5.02-2.252 5.02-5.022a1.255 1.255 0 011.448-1.24c.061-.01.126-.015.19-.015zm-.192 5.112l-.084.137a7.578 7.578 0 01-2.517 2.469 7.576 7.576 0 012.601 2.605 7.596 7.596 0 012.601-2.606 7.585 7.585 0 01-2.601-2.605z"/></defs><g fill="#000" fill-rule="evenodd" transform="translate(9 10)"><path d="M27.125 65.835h55.75v-3.046h-55.75v3.046zm0 7.087h55.75v-3.096h-55.75v3.096zm0 7.087h55.75v-3.096h-55.75v3.096zm10.813-34.73a6.569 6.569 0 004.376 1.666c2.99 0 5.522-1.998 6.344-4.728.823 2.732 3.354 4.728 6.342 4.728 2.99 0 5.521-1.997 6.343-4.731.822 2.734 3.354 4.73 6.343 4.73 1.607 0 3.078-.58 4.225-1.537v13.39H37.938V45.28zm42.435 1.666c3.654 0 6.627-2.982 6.627-6.648v-3.434L77.488 18H32.512L23 36.863v3.434c0 1.858.744 3.58 2.094 4.85a6.563 6.563 0 004.974 1.783 6.412 6.412 0 003.89-1.661v13.529h-8.822c-1.1 0-1.99.893-1.99 1.995v21.212c0 1.102.89 1.995 1.99 1.995h59.728a1.992 1.992 0 001.989-1.995V60.793c0-1.102-.89-1.995-1.99-1.995H75.89V45.182a6.583 6.583 0 004.483 1.763z"/><path d="M10.483 16.474c.826 0 1.497.67 1.497 1.497v4.492a1.497 1.497 0 01-2.995 0V17.97c0-.826.671-1.497 1.498-1.497zM5.99 11.983a1.498 1.498 0 110 2.994H1.498a1.497 1.497 0 110-2.994H5.99zm13.478 0a1.498 1.498 0 110 2.994h-4.493a1.497 1.497 0 010-2.994h4.493zM10.483 3c.826 0 1.497.67 1.497 1.497V8.99a1.497 1.497 0 01-2.995 0V4.497c0-.826.671-1.497 1.498-1.497zm0 11.977c-.39 0-.779-.165-1.063-.434a1.574 1.574 0 01-.435-1.063c0-.39.165-.779.435-1.063.569-.554 1.557-.554 2.126 0 .27.284.434.674.434 1.063 0 .39-.164.778-.434 1.063-.284.27-.674.434-1.063.434zM68.386 104.78c.662 0 1.198.536 1.198 1.197v3.593a1.198 1.198 0 01-2.396 0v-3.593c0-.661.537-1.198 1.198-1.198zm-3.594-3.595a1.199 1.199 0 010 2.396h-3.594a1.197 1.197 0 110-2.395h3.594zm10.783 0a1.199 1.199 0 010 2.396H71.98a1.199 1.199 0 010-2.396h3.595zM68.386 94c.662 0 1.198.537 1.198 1.198v3.592a1.199 1.199 0 01-2.396 0v-3.592c0-.661.537-1.198 1.198-1.198zm0 9.582c-.311 0-.623-.132-.85-.348a1.257 1.257 0 01-.348-.85c0-.311.132-.623.348-.85.455-.444 1.246-.444 1.7 0 .217.227.348.539.348.85 0 .311-.131.623-.347.85a1.26 1.26 0 01-.85.348z" fill-rule="nonzero"/><use xlink:href="#a"/><use xlink:href="#b"/><use xlink:href="#c"/><use xlink:href="#d"/></g></svg>