<svg width="96" height="96" viewBox="0 0 96 96" fill="none" xmlns="http://www.w3.org/2000/svg">
<path d="M27.5599 42.0913C27.3827 42.0908 27.2095 42.0395 27.0607 41.9434C26.856 41.8123 26.7112 41.6059 26.6576 41.3689C26.6039 41.1318 26.6458 40.8832 26.7741 40.6768C29.1971 36.8736 30.4803 32.4561 30.472 27.9467V24.9606C30.472 24.7154 30.5694 24.4803 30.7428 24.3069C30.9162 24.1335 31.1513 24.0361 31.3965 24.0361C31.6417 24.0361 31.8768 24.1335 32.0502 24.3069C32.2236 24.4803 32.321 24.7154 32.321 24.9606V27.9375C32.3327 32.8005 30.9498 37.5649 28.3365 41.666C28.2529 41.7962 28.1381 41.9034 28.0024 41.9777C27.8667 42.052 27.7146 42.091 27.5599 42.0913Z" fill="black"/>
<path d="M16.6042 25.8847C16.359 25.8847 16.1238 25.7873 15.9505 25.6139C15.7771 25.4406 15.6797 25.2054 15.6797 24.9602V22.1868C15.6774 20.0691 16.4827 18.0303 17.9314 16.4857C19.3801 14.9412 21.3632 14.0071 23.4767 13.8739C25.5901 13.7407 27.6749 14.4184 29.306 15.7689C30.9372 17.1193 31.9921 19.0409 32.2557 21.1421C32.2875 21.3873 32.2207 21.6351 32.0699 21.831C31.919 22.0269 31.6965 22.1549 31.4514 22.1868C31.2062 22.2186 30.9584 22.1518 30.7624 22.001C30.5665 21.8501 30.4386 21.6277 30.4067 21.3825C30.1784 19.7698 29.3504 18.3026 28.0879 17.2735C26.8255 16.2445 25.2214 15.7293 23.5958 15.8308C21.9703 15.9323 20.4428 16.6431 19.3182 17.8212C18.1935 18.9994 17.5545 20.5583 17.5287 22.1868V24.9602C17.5287 25.2054 17.4313 25.4406 17.2579 25.6139C17.0845 25.7873 16.8494 25.8847 16.6042 25.8847Z" fill="black"/>
<path d="M12.5281 37.0707C12.3464 37.0699 12.1689 37.0156 12.0178 36.9146C11.8668 36.8135 11.7489 36.6702 11.6788 36.5025C11.6088 36.3348 11.5897 36.1502 11.624 35.9717C11.6583 35.7932 11.7445 35.6288 11.8717 35.4991L13.0273 34.3342C14.5747 32.8028 15.5169 30.7641 15.6806 28.5932C15.697 28.3594 15.8016 28.1405 15.9732 27.9809C16.1448 27.8213 16.3707 27.7328 16.605 27.7334C16.7321 27.7331 16.8578 27.759 16.9744 27.8094C17.091 27.8599 17.196 27.9338 17.2827 28.0266C17.3695 28.1195 17.4362 28.2292 17.4786 28.3489C17.5211 28.4687 17.5384 28.5959 17.5295 28.7226C17.3415 31.3329 16.219 33.7879 14.3678 35.6377L13.1845 36.7933C13.0988 36.8807 12.9967 36.9502 12.8841 36.9978C12.7714 37.0454 12.6504 37.0702 12.5281 37.0707Z" fill="black"/>
<path d="M33.0701 39.428C32.9459 39.4303 32.8228 39.405 32.7095 39.354C32.4841 39.2583 32.3058 39.0769 32.214 38.8499C32.1221 38.6228 32.1241 38.3685 32.2195 38.143C32.3027 37.9488 32.3767 37.7454 32.4414 37.542C32.4803 37.4267 32.5414 37.3202 32.6215 37.2285C32.7015 37.1368 32.7988 37.0618 32.9078 37.0077C33.0169 36.9536 33.1355 36.9215 33.2569 36.9133C33.3783 36.905 33.5002 36.9208 33.6155 36.9596C33.7308 36.9985 33.8374 37.0597 33.9291 37.1397C34.0208 37.2197 34.0958 37.317 34.1499 37.426C34.204 37.5351 34.236 37.6537 34.2443 37.7751C34.2525 37.8965 34.2368 38.0184 34.1979 38.1337C34.1147 38.3741 34.0223 38.6144 33.9206 38.8641C33.8498 39.0312 33.7314 39.1737 33.5802 39.274C33.4289 39.3743 33.2515 39.4278 33.0701 39.428Z" fill="black"/>
<path d="M34.1694 36.1376H33.929C33.8054 36.1098 33.6888 36.057 33.5865 35.9824C33.4841 35.9077 33.3982 35.8129 33.3341 35.7036C33.2699 35.5944 33.2289 35.4732 33.2136 35.3474C33.1982 35.2217 33.2089 35.0942 33.2449 34.9727C33.8634 32.6789 34.1743 30.3131 34.1694 27.9374V22.1871C34.1748 20.8337 33.9066 19.4931 33.3807 18.2459C32.8548 16.9988 32.0822 15.8709 31.1093 14.9299C30.9328 14.7583 30.8317 14.5236 30.8282 14.2774C30.8247 14.0312 30.9192 13.7937 31.0909 13.6172C31.2625 13.4406 31.4972 13.3395 31.7434 13.336C31.9896 13.3326 32.2271 13.427 32.4036 13.5987C33.5509 14.715 34.4621 16.0505 35.083 17.5259C35.704 19.0012 36.0221 20.5864 36.0183 22.1871V27.9374C36.0408 30.4724 35.7299 32.9994 35.0939 35.4534C35.0397 35.6551 34.9188 35.8325 34.7509 35.9568C34.5831 36.081 34.3781 36.1447 34.1694 36.1376Z" fill="black"/>
<path d="M10.5304 33.8353C10.4088 33.836 10.2881 33.8127 10.1755 33.7667C10.0629 33.7207 9.96043 33.6529 9.87405 33.5672C9.7874 33.4813 9.71862 33.379 9.67168 33.2664C9.62475 33.1537 9.60059 33.0329 9.60059 32.9109C9.60059 32.7888 9.62475 32.668 9.67168 32.5553C9.71862 32.4427 9.7874 32.3404 9.87405 32.2545L10.4102 31.7183C10.9096 31.2235 11.3057 30.6345 11.5755 29.9854C11.8452 29.3363 11.9834 28.6401 11.9819 27.9371V22.1869C11.9814 20.1558 12.4957 18.1578 13.4768 16.3794C14.4578 14.6009 15.8735 13.1001 17.5917 12.0171C19.3099 10.9341 21.2746 10.3042 23.3022 10.1863C25.3298 10.0684 27.3543 10.4662 29.1865 11.3427C29.3047 11.3891 29.412 11.4593 29.5018 11.5491C29.5917 11.6388 29.6621 11.7461 29.7086 11.8642C29.7552 11.9823 29.7769 12.1088 29.7724 12.2357C29.768 12.3625 29.7374 12.4872 29.6827 12.6017C29.6279 12.7163 29.5502 12.8183 29.4543 12.9015C29.3584 12.9847 29.2464 13.0473 29.1252 13.0853C29.0041 13.1233 28.8764 13.1359 28.7501 13.1224C28.6239 13.1089 28.5018 13.0695 28.3914 13.0067C26.8407 12.2643 25.127 11.9272 23.4105 12.0269C21.6941 12.1265 20.031 12.6598 18.5766 13.5767C17.1222 14.4937 15.924 15.7644 15.0941 17.2702C14.2641 18.7759 13.8295 20.4675 13.8308 22.1869V27.9371C13.8315 28.8817 13.6457 29.8171 13.284 30.6897C12.9223 31.5622 12.3918 32.3548 11.723 33.0218L11.1868 33.5672C11.1004 33.6529 10.998 33.7207 10.8853 33.7667C10.7727 33.8127 10.6521 33.836 10.5304 33.8353Z" fill="black"/>
<path d="M27.5599 42.0913C27.3827 42.0908 27.2095 42.0395 27.0607 41.9434C26.856 41.8123 26.7112 41.6059 26.6576 41.3689C26.6039 41.1318 26.6458 40.8832 26.7741 40.6768C29.1971 36.8736 30.4803 32.4561 30.472 27.9467V24.9606C30.472 24.7154 30.5694 24.4803 30.7428 24.3069C30.9162 24.1335 31.1513 24.0361 31.3965 24.0361C31.6417 24.0361 31.8768 24.1335 32.0502 24.3069C32.2236 24.4803 32.321 24.7154 32.321 24.9606V27.9375C32.3327 32.8005 30.9498 37.5649 28.3365 41.666C28.2529 41.7962 28.1381 41.9034 28.0024 41.9777C27.8667 42.052 27.7146 42.091 27.5599 42.0913Z" fill="black"/>
<path d="M16.6042 25.8847C16.359 25.8847 16.1238 25.7873 15.9505 25.6139C15.7771 25.4406 15.6797 25.2054 15.6797 24.9602V22.1868C15.6774 20.0691 16.4827 18.0303 17.9314 16.4857C19.3801 14.9412 21.3632 14.0071 23.4767 13.8739C25.5901 13.7407 27.6749 14.4184 29.306 15.7689C30.9372 17.1193 31.9921 19.0409 32.2557 21.1421C32.2875 21.3873 32.2207 21.6351 32.0699 21.831C31.919 22.0269 31.6965 22.1549 31.4514 22.1868C31.2062 22.2186 30.9584 22.1518 30.7624 22.001C30.5665 21.8501 30.4386 21.6277 30.4067 21.3825C30.1784 19.7698 29.3504 18.3026 28.0879 17.2735C26.8255 16.2445 25.2214 15.7293 23.5958 15.8308C21.9703 15.9323 20.4428 16.6431 19.3182 17.8212C18.1935 18.9994 17.5545 20.5583 17.5287 22.1868V24.9602C17.5287 25.2054 17.4313 25.4406 17.2579 25.6139C17.0845 25.7873 16.8494 25.8847 16.6042 25.8847Z" fill="black"/>
<path d="M12.5281 37.0707C12.3464 37.0699 12.1689 37.0156 12.0178 36.9146C11.8668 36.8135 11.7489 36.6702 11.6788 36.5025C11.6088 36.3348 11.5897 36.1502 11.624 35.9717C11.6583 35.7932 11.7445 35.6288 11.8717 35.4991L13.0273 34.3342C14.5747 32.8028 15.5169 30.7641 15.6806 28.5932C15.697 28.3594 15.8016 28.1405 15.9732 27.9809C16.1448 27.8213 16.3707 27.7328 16.605 27.7334C16.7321 27.7331 16.8578 27.759 16.9744 27.8094C17.091 27.8599 17.196 27.9338 17.2827 28.0266C17.3695 28.1195 17.4362 28.2292 17.4786 28.3489C17.5211 28.4687 17.5384 28.5959 17.5295 28.7226C17.3415 31.3329 16.219 33.7879 14.3678 35.6377L13.1845 36.7933C13.0988 36.8807 12.9967 36.9502 12.8841 36.9978C12.7714 37.0454 12.6504 37.0702 12.5281 37.0707Z" fill="black"/>
<path d="M22.7058 42.4698C22.5291 42.4698 22.356 42.4192 22.2072 42.3239C22.0584 42.2286 21.94 42.0926 21.866 41.9321C21.7921 41.7716 21.7657 41.5932 21.79 41.4182C21.8143 41.2431 21.8883 41.0787 22.0032 40.9444C24.1627 38.4095 25.6532 35.3743 26.339 32.1156C26.3962 31.8821 26.5421 31.6801 26.7458 31.5524C26.9494 31.4247 27.1948 31.3813 27.4299 31.4315C27.5498 31.4557 27.6638 31.5035 27.7651 31.572C27.8665 31.6406 27.9532 31.7286 28.0203 31.8309C28.0873 31.9333 28.1334 32.0479 28.1559 32.1682C28.1783 32.2885 28.1767 32.412 28.151 32.5316C27.3983 36.0935 25.7681 39.411 23.4084 42.1832C23.3182 42.278 23.209 42.3525 23.0879 42.4019C22.9667 42.4513 22.8365 42.4745 22.7058 42.4698Z" fill="black"/>
<path d="M16.299 38.5225C16.1774 38.5232 16.0568 38.4999 15.9441 38.4539C15.8315 38.4079 15.729 38.3401 15.6427 38.2544C15.4836 38.0777 15.3988 37.8466 15.4057 37.6091C15.4125 37.3715 15.5107 37.1457 15.6796 36.9786C16.8615 35.7973 17.797 34.393 18.4318 32.8473C19.0666 31.3015 19.3881 29.6451 19.3776 27.9741V22.1869C19.3776 20.9609 19.8646 19.7852 20.7314 18.9183C21.5983 18.0515 22.774 17.5645 24 17.5645C25.2259 17.5645 26.4016 18.0515 27.2685 18.9183C28.1354 19.7852 28.6224 20.9609 28.6224 22.1869V27.9372C28.6224 28.2053 28.6224 28.4641 28.6224 28.7322C28.6028 28.9774 28.4866 29.2047 28.2993 29.3643C28.1121 29.5238 27.8691 29.6023 27.6239 29.5827C27.3788 29.5631 27.1514 29.4469 26.9919 29.2597C26.8324 29.0724 26.7538 28.8295 26.7734 28.5843C26.7734 28.3717 26.7734 28.159 26.7734 27.9372V22.1869C26.7734 21.4513 26.4812 20.7459 25.9611 20.2257C25.441 19.7056 24.7355 19.4134 24 19.4134C23.2644 19.4134 22.559 19.7056 22.0388 20.2257C21.5187 20.7459 21.2265 21.4513 21.2265 22.1869V27.9372C21.2315 29.8538 20.8567 31.7524 20.1236 33.5232C19.3905 35.2941 18.3137 36.9021 16.9554 38.2544C16.869 38.3401 16.7666 38.4079 16.654 38.4539C16.5413 38.4999 16.4207 38.5232 16.299 38.5225Z" fill="black"/>
<path d="M18.9162 41.1388C18.7945 41.1395 18.6739 41.1162 18.5613 41.0702C18.4486 41.0242 18.3462 40.9564 18.2598 40.8707C18.1731 40.7848 18.1044 40.6825 18.0574 40.5698C18.0105 40.4572 17.9863 40.3364 17.9863 40.2143C17.9863 40.0923 18.0105 39.9714 18.0574 39.8588C18.1044 39.7461 18.1731 39.6439 18.2598 39.5579C18.5371 39.2806 18.8052 39.0032 19.0548 38.7074C19.2142 38.5211 19.4411 38.4057 19.6855 38.3866C19.93 38.3675 20.172 38.4463 20.3584 38.6057C20.5447 38.7651 20.6601 38.992 20.6792 39.2364C20.6982 39.4809 20.6194 39.7229 20.4601 39.9092C20.1735 40.242 19.8869 40.5564 19.5356 40.8337C19.3763 41.0116 19.1543 41.1209 18.9162 41.1388Z" fill="black"/>
<path d="M21.3658 38.0513C21.2006 38.0516 21.0384 38.0077 20.8959 37.9241C20.7535 37.8405 20.636 37.7202 20.5558 37.5758C20.4756 37.4314 20.4355 37.2681 20.4398 37.103C20.444 36.9379 20.4924 36.7769 20.58 36.6368C22.2152 34.0302 23.0805 31.0145 23.0761 27.9375V22.1872C23.0761 21.942 23.1735 21.7068 23.3469 21.5335C23.5202 21.3601 23.7554 21.2627 24.0006 21.2627C24.2457 21.2627 24.4809 21.3601 24.6543 21.5335C24.8276 21.7068 24.925 21.942 24.925 22.1872V27.9375C24.9285 31.3604 23.9673 34.7151 22.1516 37.6168C22.0683 37.75 21.9525 37.8598 21.815 37.9359C21.6775 38.0119 21.5229 38.0516 21.3658 38.0513Z" fill="black"/>
<path d="M38.7917 27.7338C38.5466 27.7338 38.3114 27.6364 38.138 27.463C37.9647 27.2897 37.8673 27.0545 37.8673 26.8093V22.1869C37.8673 19.2764 36.9515 16.4397 35.2497 14.0786C33.5479 11.7175 31.1464 9.95167 28.3852 9.03129C25.6241 8.11091 22.6434 8.08263 19.8653 8.95044C17.0872 9.81825 14.6525 11.5382 12.9063 13.8666C12.8334 13.9637 12.7422 14.0455 12.6377 14.1074C12.5332 14.1692 12.4176 14.2099 12.2974 14.2271C12.1772 14.2442 12.0548 14.2376 11.9372 14.2074C11.8196 14.1773 11.7091 14.1243 11.612 14.0515C11.5149 13.9786 11.433 13.8874 11.3712 13.7829C11.3093 13.6784 11.2686 13.5628 11.2515 13.4426C11.2343 13.3224 11.241 13.2 11.2711 13.0824C11.3012 12.9648 11.3542 12.8543 11.4271 12.7572C13.4062 10.1183 16.1655 8.1691 19.314 7.18558C22.4625 6.20205 25.8407 6.23411 28.9699 7.27721C32.0992 8.3203 34.821 10.3216 36.7497 12.9975C38.6784 15.6734 39.7162 18.8884 39.7162 22.1869V26.8093C39.7162 27.0545 39.6188 27.2897 39.4455 27.463C39.2721 27.6364 39.0369 27.7338 38.7917 27.7338Z" fill="black"/>
<path d="M9.20868 27.7337C8.96349 27.7337 8.72834 27.6363 8.55497 27.4629C8.3816 27.2895 8.2842 27.0544 8.2842 26.8092V22.1868C8.28123 20.1108 8.69298 18.0553 9.49527 16.1406C9.60298 15.9376 9.78246 15.782 9.9987 15.7041C10.2149 15.6262 10.4524 15.6317 10.6649 15.7194C10.8773 15.8072 11.0494 15.9709 11.1477 16.1787C11.2459 16.3865 11.2633 16.6234 11.1963 16.8432C10.4951 18.5375 10.1339 20.3531 10.1332 22.1868V26.8092C10.1332 27.0544 10.0358 27.2895 9.86239 27.4629C9.68901 27.6363 9.45387 27.7337 9.20868 27.7337Z" fill="black"/>
<path d="M14 67.5307V64.9781C14 64.4369 14.4492 64.0001 15.0058 64.0001C15.5624 64.0001 16.0116 64.4369 16.0116 64.9781V67.5307C16.0116 68.0719 15.5624 68.5087 15.0058 68.5087C14.4492 68.5087 14 68.0719 14 67.5307Z" fill="black"/>
<path d="M33 64.9781V67.5307C33 68.0687 32.5508 68.5087 31.9942 68.5087C31.4376 68.5087 30.9884 68.0719 30.9884 67.5307V64.9781C30.9884 64.4369 31.4376 64.0001 31.9942 64.0001C32.5508 64.0001 33 64.4369 33 64.9781Z" fill="black"/>
<path d="M21.8087 74.5191H21.4331C20.8768 74.5191 20.4276 74.0823 20.4273 73.5413C20.4273 73.0001 20.8766 72.5633 21.4331 72.5633H21.8087C23.0055 72.5633 23.2971 72.2797 23.2971 71.1159V68.9781C23.2971 68.4368 23.7464 68 24.3029 68C24.8595 68 25.3087 68.4368 25.3087 68.9781V71.1157C25.3087 73.3423 24.0983 74.5191 21.8087 74.5191Z" fill="black"/>
<path d="M28.2894 77.3978C28.6917 77.0228 29.3286 77.0392 29.7107 77.4303C30.0964 77.8217 30.079 78.4411 29.6803 78.8127C28.1048 80.2698 25.7918 81 23.4819 81C21.1689 81 18.8624 80.2666 17.3169 78.806C16.918 78.4313 16.9079 77.8119 17.2968 77.4239C17.6822 77.036 18.3192 77.0262 18.7181 77.4044C21.0182 79.5788 25.936 79.5753 28.2894 77.3978Z" fill="black"/>
<rect x="7" y="55" width="34" height="34" rx="3" stroke="black" stroke-width="2"/>
<rect x="78.3613" y="46.5615" width="16.6383" height="12.7987" rx="2.4519" stroke="black" stroke-width="1.8"/>
<path fill-rule="evenodd" clip-rule="evenodd" d="M90.4047 43.5873C90.4047 41.7248 89.216 39.9128 86.5577 39.9128C84.5393 39.9128 82.7106 41.7248 82.7106 43.5873V45.9821H90.4047V43.5873ZM86.5577 38.7129C89.6984 38.7129 91.6046 40.8953 91.6046 43.5873V47.1819H81.5107V43.5873C81.5107 40.8953 84.0568 38.7129 86.5577 38.7129Z" fill="black" stroke="black" stroke-width="0.5"/>
<path fill-rule="evenodd" clip-rule="evenodd" d="M49 41.2055C49 38.8828 50.8828 37 53.2055 37H81.4355C81.9 37 82.2766 37.3766 82.2766 37.8411C82.2766 38.3056 81.9 38.6822 81.4355 38.6822H53.2055C51.8119 38.6822 50.6822 39.8119 50.6822 41.2055V49.494C50.6822 50.8876 51.8119 52.0173 53.2055 52.0173H75.4102C75.8748 52.0173 76.2513 52.3939 76.2513 52.8584C76.2513 53.3229 75.8748 53.6995 75.4102 53.6995H53.2055C50.8828 53.6995 49 51.8166 49 49.494V41.2055Z" fill="black"/>
<path d="M62.0303 44.8169L63.6281 44.1773L64 45.2965L62.3747 45.8634L63.3939 47.2878L62.4848 48L61.4656 46.5029L60.5014 48L59.5785 47.2878L60.5978 45.8634L59 45.2965L59.3719 44.1773L60.9284 44.8169V43H62.0303V44.8169Z" fill="black"/>
<path d="M56.0303 44.8169L57.6281 44.1773L58 45.2965L56.3747 45.8634L57.3939 47.2878L56.4848 48L55.4656 46.5029L54.5014 48L53.5785 47.2878L54.5978 45.8634L53 45.2965L53.3719 44.1773L54.9284 44.8169V43H56.0303V44.8169Z" fill="black"/>
<path d="M68.0303 44.8169L69.6281 44.1773L70 45.2965L68.3747 45.8634L69.3939 47.2878L68.4848 48L67.4656 46.5029L66.5014 48L65.5785 47.2878L66.5978 45.8634L65 45.2965L65.3719 44.1773L66.9284 44.8169V43H68.0303V44.8169Z" fill="black"/>
<path d="M74.0303 44.8169L75.6281 44.1773L76 45.2965L74.3747 45.8634L75.3939 47.2878L74.4848 48L73.4656 46.5029L72.5014 48L71.5785 47.2878L72.5978 45.8634L71 45.2965L71.3719 44.1773L72.9284 44.8169V43H74.0303V44.8169Z" fill="black"/>
</svg>
