<svg width="970" height="90" xmlns="http://www.w3.org/2000/svg">
    <path d="M10,0 H960 Q970,0 970,10 V80 Q970,90 960,90 H10 Q0,90 0,80 V10 Q0,0 10,0 Z" fill="#f0f0f0"/>
    <g transform="translate(50, 24)">
        <path d="M10,0 H860 Q870,0 870,7.5 V7.5 Q870,15 860,15 H10 Q0,15 0,7.5 V7.5 Q0,0 10,0 Z" fill="#999999" fill-opacity="0.2" />
    </g>
    <g transform="translate(100, 54)">
        <path d="M10,0 H760 Q770,0 770,7.5 V7.5 Q770,15 760,15 H10 Q0,15 0,7.5 V7.5 Q0,0 10,0 Z" fill="#999999" fill-opacity="0.2" />
    </g>
    <path d="M10,0 H960 Q970,0 970,10 V80 Q970,90 960,90 H10 Q0,90 0,80 V10 Q0,0 10,0 Z" fill="#f0f0f0" opacity="0.2"/>
</svg>
