<svg width="147" height="20" viewBox="0 0 147 20" fill="none" xmlns="http://www.w3.org/2000/svg">
<g clip-path="url(#clip0_5596_15032)">
<path fill-rule="evenodd" clip-rule="evenodd" d="M9.99065 1.72908C9.99065 1.72908 9.93193 1.89652 9.10653 4.12773C6.74888 2.25599 2.79749 2.39294 2.79749 5.27196C2.79749 8.64901 11.0498 8.22481 10.7933 14.2541C10.5878 19.0947 4.61115 20.2058 0 17.8734C0.403282 17.0208 0.822075 16.1986 1.10792 15.5251C4.59398 17.5803 7.59644 16.6377 8.08946 14.9848C9.4378 10.4614 0.0371152 11.8586 0.0371152 5.44421C0.0371152 2.74653 3.16975 -1.44737 9.99065 1.72908Z" fill="black"/>
<path fill-rule="evenodd" clip-rule="evenodd" d="M18.8989 1.35938H29.6981C29.6981 1.35938 29.667 2.32907 29.6877 3.70945H21.6034V8.52685H27.3376C27.3169 9.48691 27.3272 10.2414 27.3272 10.7366H21.6034V16.7422H29.6877C29.682 17.207 29.6789 18.6125 29.6877 19.0478H18.9093L18.8989 1.35938Z" fill="black"/>
<path fill-rule="evenodd" clip-rule="evenodd" d="M44.6205 10.0281C43.9685 10.0281 43.4868 10.0201 42.8254 10.0174C42.8264 6.71718 42.8317 3.63157 42.8317 3.63157C42.8317 3.63157 43.6195 3.62836 44.3645 3.62836C45.0766 3.62836 49.2252 3.30621 49.359 6.60641C49.4906 9.86058 46.2254 10.0281 44.6205 10.0281ZM44.7809 1.39362C43.8232 1.37061 41.8207 1.35938 40.1113 1.35938L40.1176 19.0478H42.8348C42.8348 19.0478 42.8264 15.6711 42.8254 12.342C43.4993 12.3308 44.8979 12.2933 46.0274 12.2612C47.5937 12.2152 51.71 11.4344 51.6817 6.58339C51.6488 1.13141 45.7333 1.41503 44.7809 1.39362Z" fill="black"/>
<path fill-rule="evenodd" clip-rule="evenodd" d="M114.445 9.54763C113.811 9.54763 113.353 9.53531 112.71 9.53102C112.712 6.42413 112.72 3.56164 112.72 3.56164C112.72 3.56164 113.462 3.55146 114.182 3.55146C114.87 3.55146 118.545 3.34458 118.856 6.22637C119.225 9.63071 115.196 9.54763 114.445 9.54763ZM120.427 19.0468H123.805L118.197 11.111C119.707 10.5579 121.456 9.27376 121.235 6.33945C120.84 1.08288 115.688 1.47252 114.585 1.4216C113.655 1.37765 111.656 1.35247 109.92 1.36104V19.0478H112.72C112.72 19.0478 112.711 15.0899 112.709 11.5917C113.637 11.595 113.969 11.5783 115.367 11.5414L120.427 19.0468Z" fill="black"/>
<path fill-rule="evenodd" clip-rule="evenodd" d="M71.689 8.02308V1.35938H74.4373V18.2788H71.689V10.2354L62.5285 10.2472V18.2788H59.7812V1.35938H62.5285V8.02308H71.689Z" fill="black"/>
<path fill-rule="evenodd" clip-rule="evenodd" d="M93.119 0.589844C87.4099 0.589844 83.6938 4.72209 83.6938 9.81808C83.6938 14.9162 87.4099 19.0474 93.119 19.0474C98.8281 19.0474 102.544 14.9162 102.544 9.81808C102.544 4.72209 98.8281 0.589844 93.119 0.589844ZM93.119 3.10158C88.9338 3.10158 86.5568 6.10868 86.5568 9.81808C86.5568 13.528 88.9105 16.5362 93.119 16.5362C97.3275 16.5362 99.6812 13.528 99.6812 9.81808C99.6812 6.10868 97.3041 3.10158 93.119 3.10158ZM135.981 12.5315L141.822 12.4955L138.855 3.87373H138.816L135.981 12.5315ZM137.264 1.09738H140.514L146.946 18.6293L144.07 18.6224C144.07 18.6224 143.435 16.8532 142.586 14.5103L135.331 14.5547C135.331 14.5547 135.039 15.4571 134.175 18.6235H131.401L137.264 1.09738Z" fill="black"/>
</g>
<defs>
<clipPath id="clip0_5596_15032">
<rect width="147" height="20" fill="white"/>
</clipPath>
</defs>
</svg>
