<svg xmlns="http://www.w3.org/2000/svg" width="159" height="24" fill="none"><path fill="#21356B" d="M.3 1.794S-2.793 17.43 10.887 23.913c0 0 13.256-4.724 10.776-22.119 0 0-4.967 2.79-10.718-.905 0 0-4.723 3.695-10.654.905z"/><path fill="#fff" d="m5.518 11.67 1.805-1.805 2.868 2.87 5.887-5.883 1.762 1.76-7.563 7.564z"/><path fill="#787F8B" d="M70.172 21.913 68.7 17.56h-1.72l2.305 6.23h1.777l2.305-6.23h-1.72zM76.56 17.393c-.888 0-1.664.333-2.277.963s-.938 1.406-.938 2.34c0 .935.324 1.71.938 2.34A3.06 3.06 0 0 0 76.56 24a3.06 3.06 0 0 0 2.278-.964c.613-.637.937-1.405.937-2.34s-.324-1.71-.937-2.34c-.62-.66-1.368-.963-2.278-.963m1.178 4.52a1.55 1.55 0 0 1-1.178.493c-.458 0-.86-.167-1.177-.492-.325-.334-.459-.747-.459-1.24 0-.492.163-.912.459-1.238a1.55 1.55 0 0 1 1.177-.493c.458 0 .86.167 1.178.493.324.333.48.746.48 1.238 0 .493-.163.913-.48 1.24M82.165 17.56h-1.558v6.23h1.558zM87.207 22.167c-.24.138-.536.217-.832.217-.459 0-.86-.166-1.157-.47a1.74 1.74 0 0 1-.458-1.21c0-.493.162-.913.458-1.24.296-.333.698-.47 1.157-.47.296 0 .592.08.832.217.24.138.43.355.564.609l1.34-.797c-.24-.493-.621-.884-1.1-1.189-.48-.304-1.023-.441-1.608-.441-.91 0-1.664.304-2.278.934-.613.63-.91 1.406-.91 2.34 0 .935.297 1.71.91 2.34.62.63 1.368.935 2.278.935.592 0 1.128-.138 1.607-.442s.86-.688 1.129-1.188l-1.368-.797a1.5 1.5 0 0 1-.564.637M92.868 17.392c-.938 0-1.72.305-2.305.935-.592.63-.889 1.406-.889 2.34 0 .935.297 1.739.91 2.34.62.609 1.424.935 2.411.935 1.156 0 2.038-.442 2.658-1.326l-1.262-.746c-.296.413-.754.63-1.368.63-.937 0-1.501-.384-1.72-1.188h4.562c.056-.217.056-.442.056-.66 0-.934-.296-1.71-.86-2.34-.592-.637-1.319-.934-2.2-.934m-1.572 2.717c.077-.384.267-.717.536-.935.268-.217.62-.333 1.043-.333.346 0 .67.109.938.304.268.218.458.522.565.935h-3.089v.029zM30.414 17.364c-.86 0-1.502.304-1.96.913v-3.224h-1.558v8.737h1.558v-.746c.458.608 1.128.913 1.96.913s1.502-.334 2.094-.964.86-1.405.86-2.34-.296-1.71-.86-2.34c-.592-.609-1.29-.935-2.094-.935m.91 4.536c-.325.333-.727.492-1.206.492-.48 0-.889-.166-1.206-.492-.324-.334-.48-.747-.48-1.268 0-.522.163-.935.48-1.268.324-.333.726-.493 1.206-.493s.888.167 1.205.493c.325.333.48.746.48 1.268 0 .521-.162.963-.48 1.268M39.262 18.277c-.458-.609-1.128-.913-1.988-.913-.804 0-1.502.333-2.094.963s-.86 1.406-.86 2.34c0 .935.296 1.71.86 2.34.592.638 1.262.964 2.094.964s1.502-.304 1.988-.913v.747h1.559v-6.231h-1.559zm-.48 3.637c-.323.333-.725.492-1.205.492s-.888-.166-1.205-.492c-.325-.334-.48-.747-.48-1.268 0-.522.162-.935.48-1.268.324-.333.726-.493 1.205-.493s.889.167 1.206.493c.324.333.48.746.48 1.268 0 .521-.163.963-.48 1.268M46.644 18.61v-1.05h-4.561v1.492h2.44l-2.546 3.666v1.072h4.773v-1.514h-2.68zM52.384 18.277c-.459-.609-1.129-.913-1.989-.913-.803 0-1.501.333-2.094.963-.592.63-.86 1.406-.86 2.34 0 .935.296 1.71.86 2.34.593.638 1.262.964 2.094.964s1.502-.304 1.988-.913v.747h1.559v-6.231h-1.559zm-.48 3.637c-.324.333-.726.492-1.206.492-.479 0-.888-.166-1.205-.492q-.478-.488-.48-1.268c0-.522.163-.935.48-1.268.324-.333.726-.493 1.206-.493.479 0 .888.167 1.205.493.324.333.48.746.48 1.268 0 .521-.163.963-.48 1.268M59.9 18.277c-.459-.609-1.129-.913-1.989-.913-.804 0-1.502.333-2.094.963s-.86 1.406-.86 2.34c0 .935.296 1.71.86 2.34.592.638 1.262.964 2.094.964s1.502-.304 1.989-.913v.747h1.558v-6.231H59.9zm-.487 3.637c-.324.333-.726.492-1.206.492s-.888-.166-1.205-.492q-.478-.488-.48-1.268c0-.522.162-.935.48-1.268.324-.333.726-.493 1.205-.493s.889.167 1.206.493c.324.333.48.746.48 1.268 0 .521-.163.963-.48 1.268M64.27 18.61v-1.073h-1.557v6.231h1.558V20.79c0-.608.19-1.021.564-1.296a1.92 1.92 0 0 1 1.29-.305v-1.768c-.402 0-.775.11-1.128.305-.345.195-.592.5-.726.884"/><path fill="#21356B" d="m33.372 1.42 3.81 10.136h-2.579l-.718-2.04H30.28l-.719 2.04H27.1L30.91 1.42zm-2.55 6.249h2.52l-1.26-3.637zm14.303-3.344v7.23h-2.257l-.014-.82c-.308.44-1.07.982-2.11.982-1.041 0-1.701-.367-2.068-.85-.351-.5-.527-1.13-.527-2.171V4.325h2.345v4.048c0 .836.234 1.408 1.07 1.408.835 0 1.216-.66 1.216-1.613V4.325zm6.304.015v1.774h-1.598V8.71c0 .616.088.763.206.895.102.117.249.176.557.176.366 0 .703-.132.703-.132l.117 1.833c-.175.044-.82.235-1.67.235-.836 0-1.393-.25-1.76-.675-.366-.425-.512-1.027-.512-2.126V6.114h-1.026V4.34h1.026V2.374h2.36V4.34zm8.536 2.948v4.268h-2.36v-3.8c0-.88-.117-1.642-1.099-1.642s-1.29.822-1.29 1.892v3.55h-2.345V1.436h2.345V3.84c0 .733-.014 1.525-.014 1.525.366-.645 1.055-1.173 2.125-1.173 2.096 0 2.638 1.335 2.638 3.095m9.012.44c0 .352-.03.777-.03.777h-5.144c.103 1.041.894 1.51 1.847 1.51.938 0 1.758-.41 2.169-.689l.923 1.217c-.234.177-1.187 1.174-3.43 1.174-2.227 0-3.854-1.379-3.854-3.77s1.759-3.754 3.899-3.754 3.62 1.423 3.62 3.535m-5.16-.558h2.976c-.015-.66-.498-1.452-1.48-1.452-.968 0-1.466.763-1.495 1.452m13.772.118v4.268h-2.345v-3.77c0-.953-.147-1.672-1.114-1.672-1.011 0-1.29.822-1.29 1.863v3.579h-2.345V4.325h2.345l-.014 1.041h.03c.395-.645 1.054-1.173 2.095-1.173 2.096 0 2.638 1.35 2.638 3.095m6.257-2.948v1.774H82.25V8.71c0 .616.088.763.205.895.102.117.249.176.557.176.366 0 .703-.132.703-.132l.118 1.833c-.176.044-.821.235-1.671.235-.836 0-1.393-.25-1.76-.675-.365-.425-.512-1.027-.512-2.126V6.114h-1.026V4.34h1.026V2.374h2.36V4.34zm3.92-2.068c0 .733-.543 1.217-1.335 1.217-.79 0-1.333-.484-1.333-1.217 0-.72.542-1.218 1.334-1.218.791 0 1.333.499 1.333 1.218m-.162 2.053v7.23h-2.345v-7.23zm7.6 4.752.557 1.774c-.073.06-.835.866-2.756.866-1.978 0-3.81-1.35-3.81-3.755 0-2.42 1.861-3.77 3.84-3.77 1.846 0 2.682.764 2.682.764l-.513 1.774a2.97 2.97 0 0 0-1.861-.645c-.997 0-1.788.69-1.788 1.833s.717 1.863 1.817 1.863c1.099 0 1.832-.704 1.832-.704m10.841-1.701 2.564 4.18h-2.755l-2.125-3.872h-.748v3.872h-2.374V1.436h3.635c1.129 0 2.008.234 2.667.718.675.499 1.114 1.306 1.114 2.318 0 1.92-1.231 2.669-1.978 2.904m-.41-2.816c0-.514-.206-.807-.514-1.027-.293-.22-.674-.264-1.216-.264h-.938v2.596h.938c.542 0 .923-.059 1.216-.279.308-.22.514-.498.514-1.026m11.004 3.168c0 .352-.029.777-.029.777h-5.145c.103 1.041.895 1.51 1.847 1.51.938 0 1.759-.41 2.169-.689l.924 1.217c-.235.177-1.188 1.174-3.43 1.174-2.227 0-3.855-1.379-3.855-3.77s1.759-3.754 3.899-3.754 3.62 1.423 3.62 3.535m-5.159-.558h2.975c-.014-.66-.498-1.452-1.48-1.452-.967 0-1.465.763-1.495 1.452m11.558-2.845h2.419l-2.975 7.23h-2.199l-2.961-7.23h2.449l1.641 4.576zm6.096-2.053c0 .733-.542 1.217-1.334 1.217-.791 0-1.334-.484-1.334-1.217 0-.72.543-1.218 1.334-1.218.792 0 1.334.499 1.334 1.218m-.161 2.053v7.23h-2.345v-7.23zm9.109 3.403c0 .352-.029.777-.029.777h-5.144c.102 1.041.894 1.51 1.847 1.51.938 0 1.758-.41 2.169-.689l.923 1.217c-.235.177-1.187 1.174-3.43 1.174-2.228 0-3.854-1.379-3.854-3.77s1.759-3.754 3.899-3.754c2.139 0 3.619 1.423 3.619 3.535m-5.159-.558h2.976c-.015-.66-.498-1.452-1.481-1.452-.967 0-1.466.763-1.495 1.452m15.417-2.845h2.374l-2.374 7.23h-2.214l-1.407-4.429-1.421 4.43h-2.213l-2.375-7.231h2.375l1.275 4.62 1.392-4.62h1.92l1.392 4.62zm8.92 5.001c0 .748-.323 1.335-.85 1.76-.528.41-1.246.63-2.214.63-1.084 0-2.228-.336-3.048-1.114l.879-1.393c.586.499 1.554.88 2.14.88s.997-.147.997-.616c0-.47-1.056-.704-1.319-.792a7.5 7.5 0 0 1-1.026-.337c-.337-.147-1.232-.602-1.232-1.892 0-1.408 1.232-2.274 2.742-2.274 1.509 0 2.359.558 2.769.895l-.762 1.379c-.41-.323-1.231-.704-1.817-.704-.557 0-.865.146-.865.528 0 .38.557.557 1.056.704.498.146.717.22 1.026.337.322.117.688.308.938.543.234.234.586.704.586 1.466"/></svg>