<svg viewBox="0 0 56 46.9" xmlns="http://www.w3.org/2000/svg"><path d="m47.2 17.3-2.5-10.7-43.6 10.2 4 17.4c.4 1.6 1.9 2.5 3.5 2.2l1.1-.2v-15c0-2.1 1.7-3.8 3.8-3.8h33.7z"/><path d="m43.7 2.3c-.4-1.6-1.9-2.5-3.5-2.2l-38 8.8c-1.6.4-2.5 1.9-2.2 3.5l.2.6 43.7-10.2z"/><path d="m53.7 18.8h-6.2-34.1c-1.2 0-2.3 1-2.3 2.3v14.7 9c0 1.2 1 2.3 2.3 2.3h40.3c1.2 0 2.3-1 2.3-2.3v-23.7c0-1.3-1-2.3-2.3-2.3zm-36.2 9.7c0-.4.3-.8.8-.8h4.7c.4 0 .8.3.8.8v4c0 .1-.1.3-.1.4-.1.2-.4.4-.6.4h-.9-3.8c-.4 0-.8-.3-.8-.8v-4zm13.3 10.3h-13.3v-1.1h13.3zm16.1-7.2h-13.3v-1.1-1.2h5.1 8.2z"/></svg>
