<svg width="20" height="20" viewBox="0 0 20 20" fill="none" xmlns="http://www.w3.org/2000/svg">
<g id="1" clip-path="url(#clip0_3240_43459)">
<path id="Star 1" d="M7.73357 1.17497C8.95974 -0.136969 11.0403 -0.136968 12.2664 1.17497C12.878 1.82931 13.7425 2.18741 14.6376 2.15716C16.4323 2.09651 17.9035 3.56766 17.8428 5.36237C17.8126 6.25749 18.1707 7.12201 18.825 7.73357C20.137 8.95974 20.137 11.0403 18.825 12.2664C18.1707 12.878 17.8126 13.7425 17.8428 14.6376C17.9035 16.4323 16.4323 17.9035 14.6376 17.8428C13.7425 17.8126 12.878 18.1707 12.2664 18.825C11.0403 20.137 8.95974 20.137 7.73357 18.825C7.12201 18.1707 6.25749 17.8126 5.36237 17.8428C3.56766 17.9035 2.09651 16.4323 2.15716 14.6376C2.18741 13.7425 1.82931 12.878 1.17497 12.2664C-0.136968 11.0403 -0.136968 8.95974 1.17497 7.73357C1.82931 7.12201 2.18741 6.25749 2.15716 5.36237C2.09651 3.56766 3.56766 2.09651 5.36237 2.15716C6.2575 2.18741 7.12201 1.82931 7.73357 1.17497Z" fill="#C5015E"/>
<path id="Mask" fill-rule="evenodd" clip-rule="evenodd" d="M5.83274 9.50762L4.60754 10.7328L7.87473 14L15.2259 7.05723L14.0007 5.83203L7.87473 11.5496L5.83274 9.50762Z" fill="white"/>
</g>
<defs>
<clipPath id="clip0_3240_43459">
<rect width="20" height="20" fill="white"/>
</clipPath>
</defs>
</svg>
