<svg width="17" height="18" viewBox="0 0 17 18" fill="none" xmlns="http://www.w3.org/2000/svg">
<g id="Component 1">
<path id="Fill 4" fill-rule="evenodd" clip-rule="evenodd" d="M9.67628 1C9.4354 1 9.20836 1.09428 9.03625 1.2651L0.764663 9.53668C0.591248 9.71009 0.503027 9.93627 0.5 10.1642V10.1893C0.503027 10.4172 0.591248 10.6438 0.764663 10.8176L6.68282 16.7353C6.85926 16.9118 7.09149 17 7.32329 17C7.55465 17 7.78688 16.9118 7.96332 16.7353L16.234 8.46419C16.4031 8.29596 16.5 8.06244 16.5 7.82372V1.90513C16.5 1.40608 16.0939 1 15.5949 1H9.67628ZM6.99638 16.396L1.10774 10.5061C0.924872 10.3228 0.924872 10.0237 1.10774 9.84033L9.33703 1.60874C9.42696 1.51965 9.54528 1.47059 9.67049 1.47059H15.5591C15.8186 1.47059 16.0294 1.68148 16.0294 1.941V7.83128C16.0294 7.95567 15.9795 8.07617 15.8913 8.16397L7.662 16.396C7.57294 16.4851 7.45117 16.5294 7.32897 16.5294C7.20721 16.5294 7.08544 16.4851 6.99638 16.396Z" fill="black" stroke="black" stroke-width="0.30158"/>
<path id="Fill 1" fill-rule="evenodd" clip-rule="evenodd" d="M12.1333 4.04395C12.1333 4.77379 12.7272 5.36765 13.457 5.36765C14.1864 5.36765 14.7802 4.77379 14.7802 4.04395C14.7802 3.31456 14.1864 2.7207 13.457 2.7207C12.7272 2.7207 12.1333 3.31456 12.1333 4.04395ZM12.5912 4.04395C12.5912 3.56685 12.9794 3.17812 13.457 3.17812C13.9346 3.17812 14.3228 3.56685 14.3228 4.04395C14.3228 4.5215 13.9346 4.90978 13.457 4.90978C12.9794 4.90978 12.5912 4.5215 12.5912 4.04395Z" fill="black" stroke="black" stroke-width="0.30158"/>
</g>
</svg>
