<svg width="18" height="18" viewBox="0 0 18 18" fill="none" xmlns="http://www.w3.org/2000/svg">
  <g clip-path="url(#clip0_3692_11952)">
    <path
      d="M17.3307 5.59941C17.3307 5.59941 17.1646 4.42734 16.6533 3.9127C16.0059 3.23535 15.282 3.23203 14.95 3.19219C12.5727 3.01953 9.00332 3.01953 9.00332 3.01953H8.99668C8.99668 3.01953 5.42734 3.01953 3.05 3.19219C2.71797 3.23203 1.99414 3.23535 1.34668 3.9127C0.835352 4.42734 0.672656 5.59941 0.672656 5.59941C0.672656 5.59941 0.5 6.97734 0.5 8.35195V9.64023C0.5 11.0148 0.669336 12.3928 0.669336 12.3928C0.669336 12.3928 0.835351 13.5648 1.34336 14.0795C1.99082 14.7568 2.84082 14.7336 3.21934 14.8066C4.58066 14.9361 9 14.976 9 14.976C9 14.976 12.5727 14.9693 14.95 14.8C15.282 14.7602 16.0059 14.7568 16.6533 14.0795C17.1646 13.5648 17.3307 12.3928 17.3307 12.3928C17.3307 12.3928 17.5 11.0182 17.5 9.64023V8.35195C17.5 6.97734 17.3307 5.59941 17.3307 5.59941ZM7.24356 11.2041V6.42617L11.8355 8.82344L7.24356 11.2041Z"
      fill="black" />
  </g>
  <defs>
    <clipPath id="clip0_3692_11952">
      <rect width="17" height="17" fill="white" transform="translate(0.5 0.5)" />
    </clipPath>
  </defs>
</svg>