<svg width="24" height="24" viewBox="0 0 24 24" fill="none" xmlns="http://www.w3.org/2000/svg">
<g id="fluent:directions-20-regular" clip-path="url(#clip0_292_49548)">
<path id="Vector" d="M12.7386 9.78423C12.151 9.78423 11.5875 10.0176 11.172 10.4331C10.7566 10.8486 10.5232 11.4121 10.5232 11.9996V15.6919C10.5232 15.8878 10.4454 16.0756 10.3069 16.2141C10.1684 16.3526 9.98057 16.4304 9.78471 16.4304C9.58886 16.4304 9.40103 16.3526 9.26254 16.2141C9.12405 16.0756 9.04625 15.8878 9.04625 15.6919V11.9996C9.04625 11.0204 9.43526 10.0812 10.1277 9.38876C10.8201 8.69631 11.7593 8.3073 12.7386 8.3073H13.9098L12.9542 7.35173C12.8197 7.21246 12.7452 7.02592 12.7469 6.8323C12.7486 6.63868 12.8263 6.45346 12.9632 6.31654C13.1001 6.17963 13.2853 6.10196 13.4789 6.10028C13.6726 6.0986 13.8591 6.17303 13.9984 6.30755L16.2138 8.52293C16.3522 8.66142 16.43 8.84921 16.43 9.04503C16.43 9.24084 16.3522 9.42864 16.2138 9.56712L13.9984 11.7825C13.9303 11.853 13.8488 11.9093 13.7587 11.948C13.6686 11.9867 13.5717 12.0071 13.4736 12.0079C13.3756 12.0088 13.2783 11.9901 13.1876 11.953C13.0968 11.9158 13.0144 11.861 12.945 11.7917C12.8757 11.7223 12.8209 11.6399 12.7837 11.5491C12.7466 11.4584 12.7279 11.3611 12.7288 11.2631C12.7296 11.165 12.75 11.0681 12.7887 10.978C12.8274 10.8879 12.8837 10.8064 12.9542 10.7383L13.9098 9.78423H12.7386ZM9.3889 1.74976C9.73178 1.4068 10.1389 1.13474 10.5869 0.949122C11.0349 0.763505 11.5151 0.667969 12.0001 0.667969C12.4851 0.667969 12.9653 0.763505 13.4133 0.949122C13.8613 1.13474 14.2684 1.4068 14.6113 1.74976L22.2485 9.38841C22.5914 9.73129 22.8635 10.1384 23.0491 10.5864C23.2347 11.0344 23.3303 11.5146 23.3303 11.9996C23.3303 12.4846 23.2347 12.9648 23.0491 13.4128C22.8635 13.8609 22.5914 14.2679 22.2485 14.6108L14.6113 22.248C14.2684 22.5909 13.8613 22.863 13.4133 23.0486C12.9653 23.2342 12.4851 23.3298 12.0001 23.3298C11.5151 23.3298 11.0349 23.2342 10.5869 23.0486C10.1389 22.863 9.73178 22.5909 9.3889 22.248L1.75025 14.6108C1.40729 14.2679 1.13523 13.8609 0.94961 13.4128C0.763993 12.9648 0.668457 12.4846 0.668457 11.9996C0.668457 11.5146 0.763993 11.0344 0.94961 10.5864C1.13523 10.1384 1.40729 9.73129 1.75025 9.38841L9.3889 1.74976ZM13.5656 2.79395C13.1502 2.37863 12.5868 2.14531 11.9994 2.14531C11.4119 2.14531 10.8485 2.37863 10.4331 2.79395L2.79444 10.4341C2.37912 10.8495 2.1458 11.4129 2.1458 12.0003C2.1458 12.5878 2.37912 13.1512 2.79444 13.5666L10.4331 21.2053C10.8485 21.6206 11.4119 21.8539 11.9994 21.8539C12.5868 21.8539 13.1502 21.6206 13.5656 21.2053L21.2043 13.5666C21.6196 13.1512 21.8529 12.5878 21.8529 12.0003C21.8529 11.4129 21.6196 10.8495 21.2043 10.4341L13.5656 2.79395Z" fill="black"/>
</g>
<defs>
<clipPath id="clip0_292_49548">
<rect width="24" height="24" fill="white"/>
</clipPath>
</defs>
</svg>
