<svg width="28" height="28" viewBox="0 0 28 28" fill="none" xmlns="http://www.w3.org/2000/svg">
<g clip-path="url(#clip0_1302_6453)">
<path d="M27.8767 7.93682H26.71V4.03082C26.71 3.304 26.4213 2.60694 25.9073 2.093C25.3934 1.57905 24.6963 1.29032 23.9695 1.29032H20.0635V0.123657H23.9695C26.1279 0.123657 27.8767 1.87366 27.8767 4.03082V7.93682ZM7.93719 0.123657V1.29032H4.03119C3.30436 1.29032 2.60731 1.57905 2.09336 2.093C1.57942 2.60694 1.29069 3.304 1.29069 4.03082V7.93682H0.124023V4.03082C0.124023 1.87249 1.87402 0.123657 4.03119 0.123657H7.93719ZM0.124023 20.0632H1.29069V23.9692C1.29069 24.696 1.57942 25.393 2.09336 25.907C2.60731 26.4209 3.30436 26.7097 4.03119 26.7097H7.93719V27.8763H4.03119C1.87286 27.8763 0.124023 26.1263 0.124023 23.9692V20.0632ZM20.0635 27.8763V26.7097H23.9695C24.6963 26.7097 25.3934 26.4209 25.9073 25.907C26.4213 25.393 26.71 24.696 26.71 23.9692V20.0632H27.8767V23.9692C27.8767 26.1275 26.1267 27.8763 23.9695 27.8763H20.0635ZM5.10919 5.93832H6.27586V22.0617H5.10919V5.93832ZM7.60119 5.93832H8.76786V22.0617H7.60119V5.93832Z" fill="black"/>
<path d="M8.43164 5.93823H9.59831V22.0616H8.43164V5.93823ZM13.4168 5.93823H14.5835V22.0616H13.4168V5.93823ZM15.9088 5.93823H17.0755V22.0616H15.9088V5.93823Z" fill="black"/>
<path d="M16.7402 5.93823H17.9069V22.0616H16.7402V5.93823ZM19.2334 5.93823H20.4001V22.0616H19.2334V5.93823Z" fill="black"/>
<path d="M18.4024 5.93823H19.569V22.0616H18.4024V5.93823ZM21.725 5.93823H22.8917V22.0616H21.725V5.93823ZM11.7559 5.93823H12.9225V22.0616H11.7559V5.93823Z" fill="black"/>
</g>
<defs>
<clipPath id="clip0_1302_6453">
<rect width="28" height="28" fill="white"/>
</clipPath>
</defs>
</svg>
