<svg xmlns="http://www.w3.org/2000/svg" xmlns:xlink="http://www.w3.org/1999/xlink" width="32" height="32"><defs><path id="a" d="M22.81 5.53L21.587.258.052 5.271l1.99 8.576c.18.773.95 1.254 1.722 1.074l.525-.122V7.383c0-1.022.83-1.853 1.85-1.853h16.67z"/><path id="c" d="M22.12 1.904A1.445 1.445 0 0020.385.83L1.482 5.192A1.436 1.436 0 00.401 6.916l.069.296L22.19 2.2l-.07-.296z"/><path id="e" d="M21.388.553H1.33C.712.553.21 1.051.21 1.665v11.678c0 .614.502 1.112 1.12 1.112h20.06c.618 0 1.119-.498 1.119-1.112V1.665c0-.614-.501-1.112-1.12-1.112zM3.374 5.33c0-.205.167-.371.373-.371h2.358c.206 0 .374.166.374.37v1.957a.353.353 0 01-.062.191.367.367 0 01-.312.18H3.747a.372.372 0 01-.373-.371V5.329zm6.604 5.109H3.374v-.554h6.604v.554zm7.985-3.577h-6.604V5.753h6.604v1.108z"/></defs><g fill="none" fill-rule="evenodd" transform="translate(1.6 3.2)"><g transform="translate(.847 4.235)"><mask id="b" fill="#fff"><use xlink:href="#a"/></mask><path fill="#000" d="M-4.671 19.723h32.205V-4.506H-4.671z" mask="url(#b)"/></g><mask id="d" fill="#fff"><use xlink:href="#c"/></mask><path fill="#000" d="M-4.402 11.977h31.357V-3.972H-4.402z" mask="url(#d)"/><g transform="translate(5.93 10.165)"><mask id="f" fill="#fff"><use xlink:href="#e"/></mask><path fill="#000" d="M-4.555 19.22h31.828V-4.212H-4.555z" mask="url(#f)"/></g></g></svg>