<svg width="32" height="48" viewBox="0 0 32 48" fill="none" xmlns="http://www.w3.org/2000/svg">
<g clip-path="url(#clip0_1186_2816)">
<path d="M30.6651 0H6.89526V44.9212V48H31.9999V44.9212H30.6651V0Z" fill="black"/>
<path d="M29.9086 0.767822H7.6521V44.9139H29.9086V0.767822Z" fill="#FEC773"/>
<path d="M26.8749 15.343V12.0614C26.8731 9.88395 26.0194 7.79632 24.5016 6.25729C22.9838 4.71826 20.9259 3.85376 18.7804 3.85376C17.7177 3.85281 16.6653 4.06441 15.6832 4.47645C14.7012 4.8885 13.8088 5.49292 13.0571 6.25517C12.3053 7.01742 11.709 7.92254 11.3021 8.91882C10.8952 9.91509 10.6858 10.983 10.6858 12.0614V15.343H26.8749Z" fill="black"/>
<path d="M11.4424 14.5753V12.0616C11.4424 11.084 11.6322 10.116 12.0011 9.21286C12.3699 8.30975 12.9106 7.48927 13.592 6.79833C14.2735 6.10739 15.0825 5.55953 15.9728 5.18607C16.863 4.81261 17.817 4.62088 18.7803 4.62183C20.7246 4.62183 22.5892 5.40566 23.964 6.80089C25.3388 8.19612 26.1111 10.0885 26.1111 12.0616V14.5753H11.4424Z" fill="#010101"/>
<path d="M11.8564 21.0588H9.51514V29.2593H11.8564V21.0588Z" fill="#F6DFA5"/>
<path d="M11.5066 21.421V28.8897H9.87201V21.421H11.5066ZM12.2204 20.6965H9.1582V29.6141H12.2204V20.6965Z" fill="#030303"/>
<path d="M18.7803 22.3844C19.5766 22.3844 20.2222 21.7293 20.2222 20.9211C20.2222 20.1129 19.5766 19.4578 18.7803 19.4578C17.9839 19.4578 17.3384 20.1129 17.3384 20.9211C17.3384 21.7293 17.9839 22.3844 18.7803 22.3844Z" fill="#FEC773"/>
<path d="M18.7803 19.4942C19.0627 19.4942 19.3387 19.5792 19.5735 19.7384C19.8082 19.8976 19.9912 20.1238 20.0993 20.3886C20.2073 20.6533 20.2356 20.9446 20.1805 21.2257C20.1254 21.5067 19.9895 21.7649 19.7898 21.9675C19.5902 22.1701 19.3358 22.3081 19.0589 22.364C18.7819 22.4199 18.4949 22.3912 18.234 22.2816C17.9732 22.1719 17.7502 21.9862 17.5933 21.748C17.4365 21.5097 17.3527 21.2296 17.3527 20.943C17.3527 20.5588 17.5031 20.1903 17.7709 19.9185C18.0386 19.6468 18.4017 19.4942 18.7803 19.4942ZM18.7803 18.7698C18.2124 18.7698 17.6677 18.9987 17.2661 19.4063C16.8645 19.8139 16.6389 20.3666 16.6389 20.943C16.6389 21.5194 16.8645 22.0722 17.2661 22.4798C17.6677 22.8873 18.2124 23.1163 18.7803 23.1163C19.3483 23.1163 19.893 22.8873 20.2946 22.4798C20.6961 22.0722 20.9218 21.5194 20.9218 20.943C20.9218 20.3666 20.6961 19.8139 20.2946 19.4063C19.893 18.9987 19.3483 18.7698 18.7803 18.7698Z" fill="#030303"/>
<path d="M18.7803 19.4868C19.1824 19.4868 19.5084 19.156 19.5084 18.7479C19.5084 18.3399 19.1824 18.009 18.7803 18.009C18.3782 18.009 18.0522 18.3399 18.0522 18.7479C18.0522 19.156 18.3782 19.4868 18.7803 19.4868Z" fill="#F6DFA5"/>
<path d="M18.7802 18.2264C18.8819 18.2264 18.9812 18.257 19.0658 18.3143C19.1503 18.3716 19.2161 18.4531 19.255 18.5484C19.2939 18.6437 19.3041 18.7486 19.2843 18.8497C19.2645 18.9509 19.2155 19.0439 19.1436 19.1168C19.0718 19.1897 18.9802 19.2394 18.8805 19.2596C18.7808 19.2797 18.6775 19.2693 18.5835 19.2299C18.4896 19.1904 18.4094 19.1235 18.3529 19.0378C18.2964 18.952 18.2663 18.8511 18.2663 18.748C18.2653 18.6792 18.278 18.611 18.3034 18.5472C18.3289 18.4835 18.3668 18.4256 18.4147 18.377C18.4626 18.3284 18.5196 18.29 18.5824 18.2641C18.6452 18.2383 18.7125 18.2254 18.7802 18.2264ZM18.7802 17.7483C18.519 17.7483 18.2684 17.8536 18.0837 18.0411C17.8989 18.2286 17.7952 18.4829 17.7952 18.748C17.7952 18.8789 17.8207 19.0086 17.8703 19.1295C17.9199 19.2504 17.9925 19.3601 18.0841 19.4523C18.1757 19.5446 18.2843 19.6175 18.4038 19.667C18.5233 19.7164 18.6512 19.7414 18.7802 19.7404C19.0396 19.7404 19.2883 19.6359 19.4717 19.4498C19.6551 19.2636 19.7581 19.0112 19.7581 18.748C19.7591 18.6171 19.7345 18.4872 19.6858 18.366C19.637 18.2447 19.5651 18.1345 19.4742 18.0415C19.3833 17.9486 19.2752 17.8749 19.1561 17.8245C19.037 17.7742 18.9092 17.7483 18.7802 17.7483Z" fill="#030303"/>
<path d="M10.6856 26.6948C10.3855 26.692 10.093 26.5991 9.84481 26.4278C9.59666 26.2565 9.40401 26.0145 9.29112 25.7323C9.17823 25.4502 9.15015 25.1404 9.21042 24.842C9.27069 24.5437 9.41661 24.2701 9.6298 24.0557C9.84299 23.8414 10.1139 23.6959 10.4084 23.6375C10.703 23.5791 11.008 23.6105 11.2849 23.7277C11.5619 23.8449 11.7985 24.0427 11.965 24.2961C12.1314 24.5495 12.2203 24.8473 12.2203 25.1518C12.2203 25.3557 12.1805 25.5575 12.1032 25.7457C12.0259 25.9338 11.9126 26.1046 11.7699 26.2481C11.6272 26.3915 11.4579 26.5049 11.2718 26.5816C11.0857 26.6583 10.8864 26.6968 10.6856 26.6948Z" fill="black"/>
<path d="M10.6857 25.9269C10.5344 25.9284 10.386 25.8841 10.2595 25.7998C10.1329 25.7155 10.0339 25.595 9.975 25.4535C9.9161 25.312 9.89995 25.1559 9.92861 25.0051C9.95727 24.8542 10.0294 24.7154 10.136 24.6063C10.2425 24.4972 10.3786 24.4226 10.5269 24.3921C10.6753 24.3616 10.8292 24.3766 10.9692 24.435C11.1092 24.4935 11.2289 24.5928 11.3131 24.7204C11.3974 24.848 11.4423 24.9982 11.4423 25.1518C11.4424 25.3561 11.3629 25.5522 11.2212 25.6974C11.0795 25.8425 10.887 25.925 10.6857 25.9269Z" fill="#F6DFA5"/>
<path d="M11.4424 12.0615V14.5752H18.1736L12.7558 7.81641C11.8995 9.0613 11.4409 10.5433 11.4424 12.0615Z" fill="#BEDCED"/>
<path d="M24.3124 7.19351C23.6714 6.44004 22.887 5.82577 22.0063 5.38758C21.1256 4.94939 20.1667 4.69632 19.1873 4.64355V13.5829L24.3124 7.19351Z" fill="#BEDCED"/>
<path d="M18.3664 4.64355C17.387 4.69714 16.4284 4.95058 15.5478 5.38871C14.6672 5.82684 13.8827 6.44067 13.2412 7.19351L18.3664 13.5829V4.64355Z" fill="#BEDCED"/>
<path d="M26.111 12.0615C26.1125 10.5433 25.6539 9.0613 24.7976 7.81641L19.3584 14.5752H26.0896L26.111 12.0615Z" fill="#BEDCED"/>
<path d="M31.9072 35.6777H16.7317V38.7565H31.9072V35.6777Z" fill="white"/>
<path d="M31.9072 41.8425H16.7317V44.9213H31.9072V41.8425Z" fill="white"/>
<path d="M31.9072 38.7563H16.7317V41.8351H31.9072V38.7563Z" fill="black"/>
<path d="M27.7315 32.5988C27.6744 29.3172 26.5395 26.6948 24.3195 26.6948C22.0996 26.6948 20.9646 29.3172 20.9075 32.5988H16.7246V35.6776H31.9002V32.5988H27.7315ZM24.3124 27.4627C26.2111 27.4627 26.9178 30.172 26.9678 32.5988H21.6642C21.7141 30.172 22.4208 27.4627 24.3124 27.4627Z" fill="black"/>
<path d="M14.4617 34.6489H0V35.6776H14.4617V34.6489Z" fill="black"/>
<path d="M14.4689 37.7349H2.22705V38.7635H14.4689V37.7349Z" fill="black"/>
<path d="M14.4617 40.8137H4.44702V41.8424H14.4617V40.8137Z" fill="black"/>
</g>
<defs>
<clipPath id="clip0_1186_2816">
<rect width="32" height="48" fill="white"/>
</clipPath>
</defs>
</svg>
