<svg xmlns="http://www.w3.org/2000/svg" viewBox="0 0 24 24"><path d="M22.1 15.8c-.1 0-1.3-.6-2.7-1.2.3-.9.5-1.9.5-3v-.4c0-4.3-3.5-7.8-7.7-7.8-4.3 0-7.7 3.5-7.7 7.8 0 2.2-1.3 4.5-2.8 5 0 0 4.5 5.8 10.5 2.8v2c1.6 0 4.9-1.6 6.7-5.1.9.3 1.9.7 2.8.9h.1c.2 0 .4-.1.4-.3l.1-.2c.1-.2 0-.4-.2-.5zm-4-4c-.1.7-.3 1.4-.6 2.1-.2-.1-.4-.2-.6-.2-.2-.3-.6-.9-1.2-1.2h-.2c-.4.1-.7.5-.9 1-.2.5-.2 1 0 1.3l.1.1h.1c.2.1.4.1.7.1.4 0 .8-.1 1-.1.1 0 .2.1.3.1-.4.4-.9.8-1.3 1.1-1 .7-2.1 1-3.3 1-2.5 0-4.7-1.6-5.6-3.8 1.9-.5 2.8-1.7 3.3-2.9h.6c3.4-.1 4.3-2.8 4.6-4.5.3 1.3 1 3 2.8 3.7.2.8.3 1.5.2 2.2z"/><path d="M14.2 15h-.7c-.2-.1-.4-.2-.5-.3s-.2-.1-.3-.1h-.4s-.1 0-.1.1l-.1-.1c-.1-.1-.2-.1-.3-.1s-.2 0-.3.1c-.3.3-.7.4-1.1.3h-.1l.4.3c.6.4 1.3.6 2 .5.3-.1.5-.2.7-.3l.8-.4zm1.9-4.7c-.4.7-2.2 1-2.7 0l-.1.1c.1.2.2 1.2 1.6 2-.4-.3-.5-.7-.5-1.1v-.1c.5.6 1.2 1 1.5 1h-.1c-.3-.1-.5-.4-.6-.7 0-.1-.1-.2-.1-.4.6.5 1.5.7 1.8.7-.7-.1-.9-.4-1-.8v-.1c.7.4 1.6.4 1.8.3-1.3 0-1.6-.8-1.6-.9"/></svg>