<svg width="32" height="32" fill="none" xmlns="http://www.w3.org/2000/svg"><path fill="#fff" d="M0 0h32v32H0z"/><path fill-rule="evenodd" clip-rule="evenodd" d="M26 4.825H6.131c-.68 0-1.232.56-1.232 1.25v20.149c0 .69.552 1.25 1.232 1.25h10.696v-8.771h-2.91v-3.418h2.91v-2.521c0-2.926 1.762-4.518 4.335-4.518 1.232 0 2.292.093 2.6.134v3.057l-1.784.001c-1.4 0-1.67.675-1.67 1.664v2.183h3.337l-.435 3.418H20.31v8.77h5.69c.681 0 1.233-.559 1.233-1.25V6.076c0-.69-.552-1.25-1.233-1.25z" fill="#000"/></svg>