<svg width="24" height="24" fill="none" xmlns="http://www.w3.org/2000/svg"><path d="M21 3.5a.5.5 0 0 0-.5-.5A2.503 2.503 0 0 1 18 .5a.5.5 0 0 0-1 0A2.503 2.503 0 0 1 14.5 3a.5.5 0 0 0 0 1A2.503 2.503 0 0 1 17 6.5a.5.5 0 0 0 1 0A2.503 2.503 0 0 1 20.5 4a.5.5 0 0 0 .5-.5Zm-3.5 1.226A3.504 3.504 0 0 0 16.274 3.5c.505-.3.927-.721 1.226-1.226.3.505.721.927 1.226 1.226-.505.3-.927.721-1.226 1.226ZM9.5 20A2.503 2.503 0 0 1 7 17.5a.5.5 0 0 0-1 0A2.503 2.503 0 0 1 3.5 20a.5.5 0 0 0 0 1A2.503 2.503 0 0 1 6 23.5a.5.5 0 0 0 1 0A2.503 2.503 0 0 1 9.5 21a.5.5 0 0 0 0-1Zm-3 1.726A3.504 3.504 0 0 0 5.274 20.5c.505-.3.927-.721 1.226-1.226.3.505.721.927 1.226 1.226-.505.3-.927.721-1.226 1.226ZM17.5 19H17v-.5a.5.5 0 0 0-1 0v.5h-.5a.5.5 0 0 0 0 1h.5v.5a.5.5 0 0 0 1 0V20h.5a.5.5 0 0 0 0-1ZM4.51 7a.5.5 0 0 0 0-1h-.02a.492.492 0 0 0-.49.5.508.508 0 0 0 .51.5ZM20.51 15h-.02a.493.493 0 0 0-.49.5.508.508 0 0 0 .863.354.5.5 0 0 0-.353-.854ZM11.51 11h-.02a.493.493 0 0 0-.49.5.508.508 0 0 0 .863.354.5.5 0 0 0-.353-.854ZM11.5 10a.5.5 0 0 0 .5-.5v-2a.5.5 0 0 0-1 0v2a.5.5 0 0 0 .5.5ZM11.5 13a.5.5 0 0 0-.5.5v2a.5.5 0 0 0 1 0v-2a.5.5 0 0 0-.5-.5ZM16 11.5a.5.5 0 0 0-.5-.5h-2a.5.5 0 0 0 0 1h2a.5.5 0 0 0 .5-.5ZM9.5 11h-2a.5.5 0 0 0 0 1h2a.5.5 0 0 0 0-1Z" fill="#000"/></svg>