<svg xmlns="http://www.w3.org/2000/svg" xmlns:xlink="http://www.w3.org/1999/xlink" width="32" height="32"><defs><path id="a" d="M0 .397h18.092v20.35H0z"/></defs><g fill="none" fill-rule="evenodd"><path fill="#000" d="M24.139 20.977l1.163-1.823-1.186-.033-.569.922-.588-.921-1.285.031 1.187 1.871-1.263 1.932 1.199.032.653-1.032.657 1.032 1.295-.031z"/><path fill="#000" d="M18.84 27.362c4.802.557 9.233-2.912 9.763-7.641.537-4.798-2.912-9.153-7.698-9.722-4.77-.567-9.185 2.854-9.74 7.547-.575 4.873 2.852 9.256 7.675 9.816m2.422-20.445c6.516.776 11.186 6.673 10.419 13.156-.768 6.488-6.684 11.142-13.196 10.382-6.523-.761-11.222-6.748-10.411-13.267.8-6.428 6.722-11.041 13.188-10.27"/><path fill="#000" d="M21.906 5.645C10.627 2.45 1.734 14.626 7.616 24.129 4.17 21.64 2.078 14.709 5.734 9.167 9.8 3.003 17.615 2.568 21.906 5.645"/><g transform="translate(0 .137)"><mask id="b" fill="#fff"><use xlink:href="#a"/></mask><path fill="#000" d="M18.092 2.262C6.814-.93-2.08 11.244 3.802 20.747.356 18.258-1.736 11.327 1.92 5.784 5.986-.379 13.8-.814 18.092 2.262" mask="url(#b)"/></g><path fill="#000" d="M17.53 18.725c.827.04 1.541-.039 1.922-.798.315-.628.362-1.315-.08-1.896-.446-.584-1.1-.67-1.864-.514l.022 3.208m.007 1.607l-.025 2.656-1.88-.01-.038-8.84c1.527-.232 2.984-.324 4.41.21 1.001.375 1.59 1.303 1.593 2.469.004 1.34-.457 2.45-1.764 2.97-.704.282-1.49.361-2.296.545"/></g></svg>