<svg width="23" height="17" viewBox="0 0 23 17" fill="none" xmlns="http://www.w3.org/2000/svg">
<path d="M8.53023 0.400454C8.38911 0.400994 8.3269 0.487211 8.28556 0.543892L7.28148 2.56045H3.13023C2.08785 2.56045 1.24023 3.40805 1.24023 4.45045V14.7105C1.24023 15.7529 2.08785 16.6005 3.13023 16.6005H19.8702C20.9126 16.6005 21.7602 15.7529 21.7602 14.7105V4.45045C21.7602 3.40805 20.9126 2.56045 19.8702 2.56045H15.719L14.7149 0.543892C14.6683 0.455958 14.5698 0.398197 14.4702 0.400454H8.53023ZM8.69898 0.940455H14.3015L15.3056 2.94858C15.3498 3.03962 15.449 3.10115 15.5502 3.10045H19.8702C20.6228 3.10045 21.2202 3.69787 21.2202 4.45045V14.7105C21.2202 15.4631 20.6228 16.0605 19.8702 16.0605H3.13023C2.37766 16.0605 1.78023 15.4631 1.78023 14.7105V4.45045C1.78023 3.69787 2.37766 3.10045 3.13023 3.10045H7.45023C7.55148 3.10126 7.65063 3.03962 7.69491 2.94858L8.69898 0.940455ZM11.5002 5.26045C9.11759 5.26045 7.18023 7.19779 7.18023 9.58045C7.18023 11.9631 9.11759 13.9005 11.5002 13.9005C13.8829 13.9005 15.8202 11.9631 15.8202 9.58045C15.8202 7.1978 13.8829 5.26045 11.5002 5.26045ZM11.5002 5.80045C13.5911 5.80045 15.2802 7.48964 15.2802 9.58045C15.2802 11.6713 13.5911 13.3605 11.5002 13.3605C9.40946 13.3605 7.72023 11.6713 7.72023 9.58045C7.72023 7.48964 9.40946 5.80045 11.5002 5.80045Z" fill="black" stroke="black" stroke-width="0.5"/>
</svg>
