<svg xmlns="http://www.w3.org/2000/svg" width="32" height="32"><g fill-rule="evenodd"><path d="M31.22 11.625a12.956 12.956 0 00-5.908-8.039 12.948 12.948 0 00-9.864-1.51c-3.38.83-6.236 2.93-8.041 5.906a12.856 12.856 0 00-1.852 5.782l2.324.175c.127-1.69.64-3.29 1.524-4.747a10.627 10.627 0 016.602-4.852 10.64 10.64 0 018.098 1.24c5.05 3.056 6.67 9.652 3.613 14.702-1.99 3.283-5.628 5.247-9.433 5.154l.117-1.874-5.265 2.616 4.9 3.252.103-1.667c.132.004.265.01.397.01 4.52 0 8.806-2.374 11.175-6.283a12.97 12.97 0 001.51-9.866"/><path d="M1.646 22.622a5.532 5.532 0 014.895-6.34c.23-.021.46-.029.686-.024.464.01.923.075 1.363.198a5.237 5.237 0 00-3.459-.859 5.273 5.273 0 00-4.695 5.777A5.249 5.249 0 002.8 25.236a5.483 5.483 0 01-1.154-2.614"/><path d="M11.235 18.106a5.255 5.255 0 00-2.858-1.276c-.03-.003-.06-.004-.09-.01a5.355 5.355 0 00-.833-.015 5.261 5.261 0 00-4.893 6.035 5.26 5.26 0 001.843 3.261 5.228 5.228 0 002.954 1.198 5.27 5.27 0 005.667-5.16 5.265 5.265 0 00-1.79-4.033m.084 6.545a4.404 4.404 0 01-3.945 1.792 4.442 4.442 0 01-2.161-.798 4.392 4.392 0 01-.628-.545 4.386 4.386 0 01-1.227-3.114 4.414 4.414 0 014.474-4.337 4.48 4.48 0 011.803.419 4.419 4.419 0 01.974.628 4.397 4.397 0 01.71 5.955"/><path d="M7.365 19.885c-.26.027-.748.11-1.045.186l.462 4.473.96-.098-.146-1.408.135-.011c1.015-.105 1.877-.64 1.753-1.848-.116-1.112-.966-1.41-2.12-1.294m.336 2.407l-.18.019-.17-1.661c.07-.014.13-.02.197-.029.55-.053.907.121.971.709.052.53-.212.9-.818.962m15.577-4.607c0-1.046-.359-1.546-1-1.546-.64 0-.983.469-.983 1.515 0 1.045.328 1.53.968 1.53.64 0 1.015-.469 1.015-1.499zm-3.715.047c0-1.687.967-2.842 2.716-2.842 1.733 0 2.67.984 2.67 2.748 0 1.78-.953 2.81-2.701 2.81-1.733 0-2.685-.953-2.685-2.716zm-5.496 1.717L21.56 8.974l1.514.969-7.54 10.553-1.468-1.046zm1.858-7.556c0-1.047-.36-1.546-1-1.546s-.983.469-.983 1.515c0 1.046.328 1.53.968 1.53.64 0 1.015-.469 1.015-1.499zm-3.716.046c0-1.686.968-2.84 2.717-2.84 1.732 0 2.67.983 2.67 2.747 0 1.78-.954 2.81-2.702 2.81-1.733 0-2.685-.953-2.685-2.717z"/></g></svg>