<svg xmlns="http://www.w3.org/2000/svg" width="32" height="32"><g fill="#000" fill-rule="evenodd"><path d="M18.576 28.328c-.442 0-.886-.022-1.331-.067l.24-2.378a11.028 11.028 0 0010.498-5.234c3.134-5.174 1.474-11.933-3.7-15.067a10.904 10.904 0 00-8.3-1.27c-2.846.7-5.25 2.465-6.768 4.971a10.86 10.86 0 00-1.558 4.866l-2.384-.176a13.218 13.218 0 011.898-5.928 13.268 13.268 0 018.241-6.054A13.277 13.277 0 0125.52 3.538a13.268 13.268 0 016.054 8.241 13.272 13.272 0 01-1.546 10.108c-2.427 4.007-6.82 6.441-11.452 6.441"/><path d="M13.043 26.694l5.396-2.683-.375 6.014zm6.827-7.289v1.348l-1.924.066v-1.233c-1.119-.066-2.17-.428-2.993-.871l.822-1.81c.839.395 1.727.659 2.549.659 1.068 0 1.512-.51 1.512-1.053 0-.592-.723-.855-1.595-1.167-1.266-.444-2.828-1.003-2.828-2.845 0-1.299.773-2.63 2.582-3.041V8.372l1.924-.065v1.085a7.468 7.468 0 012.334.657l-.69 1.793c-.773-.362-1.628-.576-2.286-.576-.92 0-1.331.477-1.331 1.003 0 .56.476.872 1.118 1.135 1.348.542 3.469.871 3.469 2.877 0 1.43-1.02 2.664-2.664 3.124M1.268 23.047a5.673 5.673 0 015.015-6.495 5.642 5.642 0 012.101.176 5.346 5.346 0 00-3.546-.878 5.4 5.4 0 00-4.81 5.918 5.385 5.385 0 002.423 3.96 5.614 5.614 0 01-1.183-2.681"/><path d="M11.18 25.128a4.511 4.511 0 01-5.471 1.467 4.52 4.52 0 01-1.43-1.006 4.505 4.505 0 01-1.257-3.194 4.52 4.52 0 015.631-4.303c.28.072.548.169.803.29a4.408 4.408 0 01.997.64 4.51 4.51 0 01.727 6.106m-.086-6.71a5.389 5.389 0 00-2.928-1.308l-.094-.008a5.545 5.545 0 00-.45-.028 5.359 5.359 0 00-3.199.993 5.386 5.386 0 00-.328 8.546 5.364 5.364 0 003.356 1.245 5.4 5.4 0 005.478-5.306 5.382 5.382 0 00-1.835-4.133"/><path d="M7.47 22.71l-.183.019-.176-1.703c.072-.014.137-.02.203-.027.563-.059.932.122.995.724.056.544-.216.923-.838.987m-.341-2.467c-.269.028-.77.113-1.073.19l.474 4.585.982-.101-.149-1.442.138-.014c1.041-.107 1.925-.655 1.797-1.893-.118-1.14-.99-1.447-2.17-1.325"/></g></svg>
