<svg xmlns="http://www.w3.org/2000/svg" width="32" height="49" viewBox="0 0 32 49" fill="none">
<g clip-path="url(#clip0_1478_7343)">
<path d="M30.6653 0.5H6.89551V45.4212V48.5H32.0001V45.4212H30.6653V0.5Z" fill="black"/>
<path d="M29.9089 1.26782H7.65234V45.4139H29.9089V1.26782Z" fill="#FEC773"/>
<path d="M26.8747 15.843V12.5614C26.8728 10.384 26.0192 8.29632 24.5013 6.75729C22.9835 5.21826 20.9257 4.35376 18.7801 4.35376C17.7175 4.35281 16.665 4.56441 15.683 4.97645C14.701 5.3885 13.8086 5.99292 13.0568 6.75517C12.3051 7.51742 11.7087 8.42254 11.3018 9.41882C10.895 10.4151 10.6855 11.483 10.6855 12.5614V15.843H26.8747Z" fill="black"/>
<path d="M11.4424 15.0753V12.5616C11.4424 11.584 11.6322 10.616 12.0011 9.71286C12.3699 8.80975 12.9106 7.98927 13.592 7.29833C14.2735 6.60739 15.0825 6.05953 15.9728 5.68607C16.863 5.31261 17.817 5.12088 18.7803 5.12183V5.12183C20.7246 5.12183 22.5892 5.90566 23.964 7.30089C25.3388 8.69612 26.1111 10.5885 26.1111 12.5616V15.0753H11.4424Z" fill="#010101"/>
<path d="M11.8559 21.5588H9.51465V29.7593H11.8559V21.5588Z" fill="#F6DFA5"/>
<path d="M11.5066 21.921V29.3897H9.87201V21.921H11.5066ZM12.2204 21.1965H9.1582V30.1141H12.2204V21.1965Z" fill="#030303"/>
<path d="M18.7798 22.8844C19.5761 22.8844 20.2217 22.2293 20.2217 21.4211C20.2217 20.6129 19.5761 19.9578 18.7798 19.9578C17.9834 19.9578 17.3379 20.6129 17.3379 21.4211C17.3379 22.2293 17.9834 22.8844 18.7798 22.8844Z" fill="#FEC773"/>
<path d="M18.7801 19.9942C19.0625 19.9942 19.3385 20.0792 19.5732 20.2384C19.808 20.3976 19.991 20.6238 20.099 20.8886C20.2071 21.1533 20.2354 21.4446 20.1803 21.7257C20.1252 22.0067 19.9892 22.2649 19.7896 22.4675C19.5899 22.6701 19.3355 22.8081 19.0586 22.864C18.7817 22.9199 18.4946 22.8912 18.2338 22.7816C17.9729 22.6719 17.7499 22.4862 17.5931 22.248C17.4362 22.0097 17.3525 21.7296 17.3525 21.443C17.3525 21.0588 17.5029 20.6903 17.7706 20.4185C18.0383 20.1468 18.4015 19.9942 18.7801 19.9942V19.9942ZM18.7801 19.2698C18.2122 19.2698 17.6675 19.4987 17.2659 19.9063C16.8643 20.3139 16.6387 20.8666 16.6387 21.443V21.443C16.6387 22.0194 16.8643 22.5722 17.2659 22.9798C17.6675 23.3873 18.2122 23.6163 18.7801 23.6163V23.6163C19.348 23.6163 19.8927 23.3873 20.2943 22.9798C20.6959 22.5722 20.9215 22.0194 20.9215 21.443V21.443C20.9215 20.8666 20.6959 20.3139 20.2943 19.9063C19.8927 19.4987 19.348 19.2698 18.7801 19.2698V19.2698Z" fill="#030303"/>
<path d="M18.7798 19.9868C19.1819 19.9868 19.5079 19.656 19.5079 19.2479C19.5079 18.8399 19.1819 18.509 18.7798 18.509C18.3777 18.509 18.0518 18.8399 18.0518 19.2479C18.0518 19.656 18.3777 19.9868 18.7798 19.9868Z" fill="#F6DFA5"/>
<path d="M18.78 18.7264C18.8816 18.7264 18.981 18.757 19.0655 18.8143C19.15 18.8716 19.2159 18.9531 19.2548 19.0484C19.2937 19.1437 19.3039 19.2486 19.284 19.3497C19.2642 19.4509 19.2153 19.5439 19.1434 19.6168C19.0715 19.6897 18.9799 19.7394 18.8802 19.7596C18.7805 19.7797 18.6772 19.7693 18.5833 19.7299C18.4894 19.6904 18.4091 19.6235 18.3526 19.5378C18.2962 19.452 18.266 19.3511 18.266 19.248C18.2651 19.1792 18.2777 19.111 18.3032 19.0472C18.3287 18.9835 18.3665 18.9256 18.4144 18.877C18.4623 18.8284 18.5194 18.79 18.5822 18.7641C18.645 18.7383 18.7122 18.7254 18.78 18.7264V18.7264ZM18.78 18.2483C18.5187 18.2483 18.2682 18.3536 18.0834 18.5411C17.8987 18.7286 17.7949 18.9829 17.7949 19.248V19.248C17.7949 19.3789 17.8204 19.5086 17.87 19.6295C17.9196 19.7504 17.9923 19.8601 18.0839 19.9523C18.1754 20.0446 18.2841 20.1175 18.4036 20.167C18.523 20.2164 18.651 20.2414 18.78 20.2404V20.2404C19.0393 20.2404 19.2881 20.1359 19.4715 19.9498C19.6549 19.7636 19.7579 19.5112 19.7579 19.248V19.248C19.7588 19.1171 19.7342 18.9872 19.6855 18.866C19.6368 18.7447 19.5649 18.6345 19.474 18.5415C19.3831 18.4486 19.275 18.3749 19.1559 18.3245C19.0368 18.2742 18.909 18.2483 18.78 18.2483V18.2483Z" fill="#030303"/>
<path d="M10.6858 27.1948C10.3857 27.192 10.0932 27.0991 9.84505 26.9278C9.59691 26.7565 9.40426 26.5145 9.29137 26.2323C9.17848 25.9502 9.1504 25.6404 9.21066 25.342C9.27093 25.0437 9.41685 24.7701 9.63004 24.5557C9.84323 24.3414 10.1142 24.1959 10.4087 24.1375C10.7032 24.0791 11.0082 24.1105 11.2852 24.2277C11.5622 24.3449 11.7988 24.5427 11.9652 24.7961C12.1317 25.0495 12.2205 25.3473 12.2205 25.6518C12.2205 25.8557 12.1807 26.0575 12.1034 26.2457C12.0261 26.4338 11.9129 26.6046 11.7702 26.7481C11.6275 26.8915 11.4582 27.0049 11.272 27.0816C11.0859 27.1583 10.8867 27.1968 10.6858 27.1948Z" fill="black"/>
<path d="M10.686 26.4269C10.5346 26.4284 10.3862 26.3841 10.2597 26.2998C10.1332 26.2155 10.0342 26.095 9.97525 25.9535C9.91634 25.812 9.9002 25.6559 9.92886 25.5051C9.95751 25.3542 10.0297 25.2154 10.1362 25.1063C10.2427 24.9972 10.3788 24.9226 10.5272 24.8921C10.6755 24.8616 10.8294 24.8766 10.9694 24.935C11.1094 24.9935 11.2291 25.0928 11.3134 25.2204C11.3976 25.348 11.4426 25.4982 11.4426 25.6518C11.4426 25.8561 11.3631 26.0522 11.2214 26.1974C11.0797 26.3425 10.8873 26.425 10.686 26.4269V26.4269Z" fill="#F6DFA5"/>
<path d="M11.4424 12.5615V15.0752H18.1736L12.7558 8.31641C11.8995 9.5613 11.4409 11.0433 11.4424 12.5615V12.5615Z" fill="#BEDCED"/>
<path d="M24.3126 7.69351C23.6717 6.94004 22.8873 6.32577 22.0066 5.88758C21.1258 5.44939 20.167 5.19632 19.1875 5.14355V14.0829L24.3126 7.69351Z" fill="#BEDCED"/>
<path d="M18.3664 5.14355C17.387 5.19714 16.4284 5.45058 15.5478 5.88871C14.6672 6.32684 13.8827 6.94067 13.2412 7.69351L18.3664 14.0829V5.14355Z" fill="#BEDCED"/>
<path d="M26.111 12.5615C26.1125 11.0433 25.6539 9.5613 24.7976 8.31641L19.3584 15.0752H26.0896L26.111 12.5615Z" fill="#BEDCED"/>
<path d="M31.907 36.1777H16.7314V39.2565H31.907V36.1777Z" fill="white"/>
<path d="M31.907 42.3425H16.7314V45.4213H31.907V42.3425Z" fill="white"/>
<path d="M31.907 39.2563H16.7314V42.3351H31.907V39.2563Z" fill="black"/>
<path d="M27.7315 33.0988C27.6744 29.8172 26.5395 27.1948 24.3195 27.1948C22.0996 27.1948 20.9646 29.8172 20.9075 33.0988H16.7246V36.1776H31.9002V33.0988H27.7315ZM24.3124 27.9627C26.2111 27.9627 26.9178 30.672 26.9678 33.0988H21.6642C21.7141 30.672 22.4208 27.9627 24.3124 27.9627Z" fill="black"/>
<path d="M14.4617 35.1489H0V36.1776H14.4617V35.1489Z" fill="black"/>
<path d="M14.4693 38.2349H2.22754V39.2635H14.4693V38.2349Z" fill="black"/>
<path d="M14.462 41.3137H4.44727V42.3424H14.462V41.3137Z" fill="black"/>
</g>
<defs>
<clipPath id="clip0_1478_7343">
<rect width="32" height="48" fill="white" transform="translate(0 0.5)"/>
</clipPath>
</defs>
</svg>