<svg xmlns="http://www.w3.org/2000/svg" width="24" height="24"><g fill-rule="evenodd"><path d="M21.682 9.475a1.885 1.885 0 01-.193.421c-.046-.034-.094-.066-.137-.104-.301-.285-.571-.688-.612-1.012a.66.66 0 01.046-.384.504.504 0 01.244-.243.51.51 0 01.382-.03c.117.038.206.12.272.25.134.255.121.73-.002 1.102m-3.837 8.772l-.17.142-.028 3.379H16.23a.02.02 0 01-.017-.01l-.87-1.591a5.226 5.226 0 001.549-1.18c-.9.161-1.72.313-2.54.402a20.945 20.945 0 01-4.858-.009l-.307-.038c-.103-.012-.202-.038-.306-.052a14.456 14.456 0 00-.626-.093c-.21-.035-.416-.087-.634-.122-.107-.02-.218-.036-.33-.053-.11-.02-.219-.045-.334-.06.074.088.155.167.234.252.083.075.17.15.257.221.176.143.356.29.546.416.195.115.394.228.597.336l.004.002-.859 1.568c-.003.007-.01.01-.017.01H6.256V20.51a4.346 4.346 0 00-1.635-3.409l-2.656-2.127a.02.02 0 01-.007-.016V12.46a.02.02 0 01.016-.02l.616-.106a3.18 3.18 0 002.12-1.423c.281-.44.629-.857 1.031-1.236l.151-.142V6.777c.65.143 1.208.576 1.512 1.182l.204.407.416-.183a9.446 9.446 0 011.7-.555c.235.231.507.424.804.574a7.376 7.376 0 00-1.044.272l.31.91a6.585 6.585 0 012.155-.353 6.62 6.62 0 012.155.352l.31-.909a7.425 7.425 0 00-1.045-.272 3.19 3.19 0 00.807-.576c3.395.771 5.888 3.256 5.888 6.196 0 1.651-.788 3.223-2.219 4.425M11.807 5.57c-.302-.106-.674-.24-.674-.679 0-.31.184-.628.615-.726v-.26l.458-.015v.259c.184.02.368.07.555.157l-.164.428a1.375 1.375 0 00-.544-.137c-.22 0-.317.113-.317.24 0 .133.114.207.266.27.321.13.826.208.826.687 0 .259-.14.49-.377.635a1.011 1.011 0 01-.257.11v.323l-.458.016v-.295a1.71 1.71 0 01-.712-.208l.196-.432c.2.094.41.157.606.157.254 0 .36-.122.36-.251 0-.142-.172-.204-.38-.279m10.737 4.766a3.15 3.15 0 01-.174-.032c.094-.166.174-.34.234-.525.094-.288.143-.585.149-.885a2.095 2.095 0 00-.195-.958 1.488 1.488 0 00-.81-.74 1.59 1.59 0 00-1.088-.003 1.45 1.45 0 00-.835.752 1.438 1.438 0 00-.132.559c-.003.187.025.367.077.53.106.325.283.588.476.81.191.217.416.407.664.56.033.02.067.038.1.056a3.785 3.785 0 01-.698.489c-1.014-1.958-3.032-3.487-5.524-4.159a3.196 3.196 0 00-2.838-4.643A3.195 3.195 0 009.11 6.79c-.368.099-.73.215-1.08.351a3.179 3.179 0 00-2.164-1.344.81.81 0 00-.652.192.81.81 0 00-.28.613v2.519c-.396.393-.742.82-1.03 1.27-.34.53-.877.892-1.477.996l-.616.107A.976.976 0 001 12.46v2.498c0 .3.134.58.367.766l2.656 2.128a3.39 3.39 0 011.275 2.658v1.405c0 .448.364.813.811.813H7.72a.977.977 0 00.857-.508l.904-1.652a7.744 7.744 0 004.978-.021l.915 1.673c.172.314.5.508.857.508h1.561a.814.814 0 00.811-.806l.026-3.085c1.545-1.37 2.393-3.142 2.393-5.015 0-.687-.118-1.353-.334-1.985.325-.17.638-.372.926-.621.154-.133.3-.281.434-.444.164.014.327.014.485-.002A3.263 3.263 0 0024 10.26a3.883 3.883 0 01-1.457.076"/><path d="M7.247 11.37a.853.853 0 10.001 1.705.853.853 0 00-.001-1.705"/></g></svg>