<svg width="36" height="36" fill="none" xmlns="http://www.w3.org/2000/svg"><path fill-rule="evenodd" clip-rule="evenodd" d="M25.255 18.18h4.573l-2.125-3.359h-2.448v3.358Zm5.718 1.32H24.66c-.328 0-.595-.295-.595-.66v-4.68c0-.364.267-.66.595-.66h3.35c.194 0 .375.104.488.28l2.96 4.68a.725.725 0 0 1 .04.683.59.59 0 0 1-.526.357ZM21.245 27.08c-.026-.234-.07-.461-.07-.701 0-.24.044-.468.07-.701H12.87c.028.233.072.46.072.7 0 .24-.044.468-.072.701h8.375Z" fill="#000"/><path fill-rule="evenodd" clip-rule="evenodd" d="m35.864 18.586-5.692-7.755a.697.697 0 0 0-.564-.286h-4.884V6.801c0-.387-.315-.701-.703-.701H5.206a4.18 4.18 0 0 0-4.177 4.175v16.551c0 .386.316.7.701.7h1.603c-.027-.232-.07-.46-.07-.7 0-.24.043-.468.07-.7h-.9V10.273A2.777 2.777 0 0 1 5.206 7.5H23.32v3.746c0 .385.315.699.7.699h5.233l5.343 7.286v6.894h-3.814c.028.233.072.461.072.701 0 .24-.044.468-.072.7H35.3c.385 0 .7-.314.7-.7v-7.825a.698.698 0 0 0-.136-.415Z" fill="#000"/><path fill-rule="evenodd" clip-rule="evenodd" d="M6.978 15H.522C.235 15 0 14.662 0 14.25c0-.411.235-.75.522-.75h6.456c.287 0 .522.339.522.75 0 .412-.235.75-.522.75ZM8.374 12H.626C.282 12 0 11.662 0 11.25c0-.411.282-.75.626-.75h7.748c.344 0 .626.339.626.75 0 .412-.282.75-.626.75ZM14.887 12.107h-2.085a.806.806 0 0 1-.802-.803c0-.441.36-.804.802-.804h2.085c.441 0 .802.363.802.804 0 .44-.36.803-.802.803ZM5.41 18H.59c-.325 0-.59-.338-.59-.75 0-.411.265-.75.59-.75h4.82c.325 0 .59.339.59.75 0 .412-.265.75-.59.75ZM8.25 30a3.75 3.75 0 1 0 0-7.5 3.75 3.75 0 0 0 0 7.5Zm0 1.5a5.25 5.25 0 1 0 0-10.5 5.25 5.25 0 0 0 0 10.5ZM26.25 25.5a.75.75 0 1 0 0 1.5.75.75 0 0 0 0-1.5Zm2.25.75a2.25 2.25 0 1 1-4.5 0 2.25 2.25 0 0 1 4.5 0Z" fill="#000"/><path fill-rule="evenodd" clip-rule="evenodd" d="M8.25 25.5a.75.75 0 1 0 0 1.5.75.75 0 0 0 0-1.5Zm2.25.75a2.25 2.25 0 1 1-4.5 0 2.25 2.25 0 0 1 4.5 0ZM26.25 30a3.75 3.75 0 1 0 0-7.5 3.75 3.75 0 0 0 0 7.5Zm0 1.5a5.25 5.25 0 1 0 0-10.5 5.25 5.25 0 0 0 0 10.5Z" fill="#000"/></svg>