<svg xmlns="http://www.w3.org/2000/svg" viewBox="0 0 1080 540"><g fill="none" fill-rule="nonzero"><path d="M45 0c0 24.8 20.2 45 45 45l.744-.006c24.265-.393 43.86-19.992 44.25-44.257L135 0h90c0 24.8 20.2 45 45 45s45-20.2 45-45h90c0 24.8 20.2 45 45 45s45-20.2 45-45h90c0 24.8 20.2 45 45 45s45-20.2 45-45h90c0 24.8 20.2 45 45 45s45-20.2 45-45h90c0 24.8 20.2 45 45 45s45-20.2 45-45h45v45c-24.853 0-45 20.147-45 45 0 24.604 19.746 44.597 44.256 44.994l.744.006v270c-24.853 0-45 20.147-45 45 0 24.604 19.746 44.597 44.256 44.994l.744.006v45h-45c0-24.8-20.2-45-45-45s-45 20.2-45 45h-90c0-24.8-20.2-45-45-45s-45 20.2-45 45h-90c0-24.8-20.2-45-45-45s-45 20.2-45 45h-90c0-24.8-20.2-45-45-45s-45 20.2-45 45h-90c0-24.8-20.2-45-45-45s-45 20.2-45 45h-90l-.006-.744a45.672 45.672 0 00-.05-1.522l-.045-.756c-1.538-23.21-20.673-41.607-44.185-41.972L90 495c-24.8 0-45 20.2-45 45H0v-45c24.853 0 45-20.147 45-45 0-24.604-19.746-44.597-44.256-44.994L0 405V135c24.853 0 45-20.147 45-45C45 65.396 25.254 45.403.744 45.006L0 45V0h45zm855 405c-24.853 0-45 20.147-45 45s20.147 45 45 45 45-20.147 45-45-20.147-45-45-45zm-180 0c-24.853 0-45 20.147-45 45s20.147 45 45 45 45-20.147 45-45-20.147-45-45-45zm90-90c-24.8 0-45 20.2-45 45s20.2 45 45 45 45-20.2 45-45-20.2-45-45-45zm180 0c-24.8 0-45 20.2-45 45s20.2 45 45 45 45-20.2 45-45-20.2-45-45-45zm-360 0c-24.8 0-45 20.2-45 45s20.2 45 45 45 45-20.2 45-45-20.2-45-45-45zm-180 0c-24.8 0-45 20.2-45 45s20.2 45 45 45 45-20.2 45-45-20.2-45-45-45zm-180 0c-24.8 0-45 20.2-45 45s20.2 45 45 45 45-20.2 45-45-20.2-45-45-45zm-180 0c-24.8 0-45 20.2-45 45s20.2 45 45 45l.744-.006c24.265-.393 43.86-19.992 44.25-44.257L135 360c0-24.8-20.2-45-45-45zm630-90c-24.853 0-45 20.147-45 45s20.147 45 45 45 45-20.147 45-45-20.147-45-45-45zm180 0c-24.853 0-45 20.147-45 45s20.147 45 45 45 45-20.147 45-45-20.147-45-45-45zm90-90c-24.8 0-45 20.2-45 45s20.2 45 45 45 45-20.2 45-45-20.2-45-45-45zm-360 0c-24.8 0-45 20.2-45 45s20.2 45 45 45 45-20.2 45-45-20.2-45-45-45zm180 0c-24.8 0-45 20.2-45 45s20.2 45 45 45 45-20.2 45-45-20.2-45-45-45zm-540 0c-24.8 0-45 20.2-45 45s20.2 45 45 45 45-20.2 45-45-20.2-45-45-45zm180 0c-24.8 0-45 20.2-45 45s20.2 45 45 45 45-20.2 45-45-20.2-45-45-45zm-360 0c-24.8 0-45 20.2-45 45s20.2 45 45 45 45-20.2 45-45l-.006-.744a45.672 45.672 0 00-.05-1.522l-.045-.756c-1.538-23.21-20.673-41.607-44.185-41.972L90 135zm630-90c-24.853 0-45 20.147-45 45s20.147 45 45 45 45-20.147 45-45-20.147-45-45-45zm180 0c-24.853 0-45 20.147-45 45s20.147 45 45 45 45-20.147 45-45-20.147-45-45-45z" fill="#000"/><path d="M135 0c0 24.8-20.2 45-45 45-23.785 0-43.338-18.58-44.9-41.978l-.006-.085-.04-.718A45.455 45.455 0 0145 0h90zM45.006 179.257C45.404 154.798 65.448 135 90 135l.743.006c23.234.379 42.262 18.484 44.11 41.341l.051.694c.048.734.078 1.472.09 2.215L135 180c0 24.853-20.147 45-45 45-24.604 0-44.597-19.746-44.994-44.256L45 180l.006-.743zM180 45c-24.853 0-45 20.147-45 45s20.147 45 45 45 45-20.147 45-45-20.147-45-45-45zM180 225c-24.853 0-45 20.147-45 45s20.147 45 45 45 45-20.147 45-45-20.147-45-45-45zM360 45c-24.853 0-45 20.147-45 45s20.147 45 45 45 45-20.147 45-45-20.147-45-45-45zM540 45c-24.853 0-45 20.147-45 45s20.147 45 45 45 45-20.147 45-45-20.147-45-45-45zM495 0c0 24.853-20.147 45-45 45-24.604 0-44.597-19.746-44.994-44.256L405 0h90zM360 225c-24.853 0-45 20.147-45 45s20.147 45 45 45 45-20.147 45-45-20.147-45-45-45zM630 135c-24.853 0-45 20.147-45 45s20.147 45 45 45 45-20.147 45-45-20.147-45-45-45zM945 180c0-24.604 19.746-44.597 44.256-44.994L990 135l.744.006c24.51.397 44.256 20.39 44.256 44.994s-19.746 44.597-44.256 44.994L990 225c-24.853 0-45-20.147-45-45zM0 225v90c24.853 0 45-20.147 45-45 0-24.604-19.746-44.597-44.256-44.994L0 225zM540 225c-24.853 0-45 20.147-45 45s20.147 45 45 45 45-20.147 45-45-20.147-45-45-45zM450 315c24.604 0 44.597 19.746 44.994 44.256L495 360c0 24.853-20.147 45-45 45-24.604 0-44.597-19.746-44.994-44.256L405 360c0-24.853 20.147-45 45-45zM855 0c0 24.853-20.147 45-45 45-24.604 0-44.597-19.746-44.994-44.256L765 0h90zM810 135c24.604 0 44.597 19.746 44.994 44.256L855 180c0 24.853-20.147 45-45 45-24.604 0-44.597-19.746-44.994-44.256L765 180c0-24.853 20.147-45 45-45zM810 315c24.604 0 44.597 19.746 44.994 44.256L855 360c0 24.853-20.147 45-45 45-24.604 0-44.597-19.746-44.994-44.256L765 360c0-24.853 20.147-45 45-45zM945.006.744L945 0h90c0 24.552-19.798 44.596-44.257 44.994L990 45c-24.604 0-44.597-19.746-44.994-44.256zM1080 225v90c-24.853 0-45-20.147-45-45 0-24.604 19.746-44.597 44.256-44.994L1080 225zM180 405c-24.853 0-45 20.147-45 45s20.147 45 45 45 45-20.147 45-45-20.147-45-45-45zM360 405c-24.853 0-45 20.147-45 45s20.147 45 45 45 45-20.147 45-45-20.147-45-45-45zM540 405c-24.853 0-45 20.147-45 45s20.147 45 45 45 45-20.147 45-45-20.147-45-45-45zM135 540c0-24.8-20.2-45-45-45-23.785 0-43.338 18.58-44.9 41.978l-.006.085-.04.718A45.455 45.455 0 0045 540h90zM495 540c0-24.853-20.147-45-45-45-24.604 0-44.597 19.746-44.994 44.256L405 540h90zM855 540c0-24.853-20.147-45-45-45-24.604 0-44.597 19.746-44.994 44.256L765 540h90zM945.006 539.256L945 540h90c0-24.552-19.798-44.596-44.257-44.994L990 495c-24.604 0-44.597 19.746-44.994 44.256z" fill="#D0112B"/><path d="M135 0c0 24.8-20.2 45-45 45-23.785 0-43.338-18.58-44.9-41.978l-.006-.085-.04-.718A45.455 45.455 0 0145 0h90zM45.006 179.257C45.404 154.798 65.448 135 90 135l.743.006c23.234.379 42.262 18.484 44.11 41.341l.051.694c.048.734.078 1.472.09 2.215L135 180c0 24.853-20.147 45-45 45-24.604 0-44.597-19.746-44.994-44.256L45 180l.006-.743zM180 45c-24.853 0-45 20.147-45 45s20.147 45 45 45 45-20.147 45-45-20.147-45-45-45zM180 225c-24.853 0-45 20.147-45 45s20.147 45 45 45 45-20.147 45-45-20.147-45-45-45zM360 45c-24.853 0-45 20.147-45 45s20.147 45 45 45 45-20.147 45-45-20.147-45-45-45z" fill="#D0112B"/><path d="M360 45c-24.853 0-45 20.147-45 45s20.147 45 45 45 45-20.147 45-45-20.147-45-45-45zM540 45c-24.853 0-45 20.147-45 45s20.147 45 45 45 45-20.147 45-45-20.147-45-45-45zM495 0c0 24.853-20.147 45-45 45-24.604 0-44.597-19.746-44.994-44.256L405 0h90zM360 225c-24.853 0-45 20.147-45 45s20.147 45 45 45 45-20.147 45-45-20.147-45-45-45zM630 135c-24.853 0-45 20.147-45 45s20.147 45 45 45 45-20.147 45-45-20.147-45-45-45zM945 180c0-24.604 19.746-44.597 44.256-44.994L990 135l.744.006c24.51.397 44.256 20.39 44.256 44.994s-19.746 44.597-44.256 44.994L990 225c-24.853 0-45-20.147-45-45zM0 225v90c24.853 0 45-20.147 45-45 0-24.604-19.746-44.597-44.256-44.994L0 225zM540 225c-24.853 0-45 20.147-45 45s20.147 45 45 45 45-20.147 45-45-20.147-45-45-45zM855 0c0 24.853-20.147 45-45 45-24.604 0-44.597-19.746-44.994-44.256L765 0h90zM810 135c24.604 0 44.597 19.746 44.994 44.256L855 180c0 24.853-20.147 45-45 45-24.604 0-44.597-19.746-44.994-44.256L765 180c0-24.853 20.147-45 45-45zM945.006.744L945 0h90c0 24.552-19.798 44.596-44.257 44.994L990 45c-24.604 0-44.597-19.746-44.994-44.256zM1080 225v90c-24.853 0-45-20.147-45-45 0-24.604 19.746-44.597 44.256-44.994L1080 225zM180 405c-24.853 0-45 20.147-45 45s20.147 45 45 45 45-20.147 45-45-20.147-45-45-45zM360 405c-24.853 0-45 20.147-45 45s20.147 45 45 45 45-20.147 45-45-20.147-45-45-45zM540 405c-24.853 0-45 20.147-45 45s20.147 45 45 45 45-20.147 45-45-20.147-45-45-45zM135 540c0-24.8-20.2-45-45-45-23.785 0-43.338 18.58-44.9 41.978l-.006.085-.04.718A45.455 45.455 0 0045 540h90zM495 540c0-24.853-20.147-45-45-45-24.604 0-44.597 19.746-44.994 44.256L405 540h90zM855 540c0-24.853-20.147-45-45-45-24.604 0-44.597 19.746-44.994 44.256L765 540h90zM945.006 539.256L945 540h90c0-24.552-19.798-44.596-44.257-44.994L990 495c-24.604 0-44.597 19.746-44.994 44.256z" fill="#D0112B"/></g></svg>
