<svg width="62" height="29" viewBox="0 0 62 29" fill="none" xmlns="http://www.w3.org/2000/svg">
<g clip-path="url(#clip0_493_6299)">
<path d="M23.3468 0.118124C22.6321 0.118124 21.8578 0.11813 21.0836 0.0590668C20.2498 0.0590668 19.4755 0 18.6417 0V0.82689C19.7733 0.82689 20.6667 1.06314 21.2623 1.41752C21.8578 1.7719 22.1556 2.36253 22.2152 3.18942C22.2152 4.0163 21.977 5.13849 21.3814 6.61507L14.7109 23.7434L7.26609 4.25254C6.90874 3.30753 6.73007 2.65784 6.78963 2.18533C6.84919 1.71283 7.08742 1.35845 7.56388 1.18126C8.04035 1.00407 8.75504 0.885947 9.64842 0.885947V0.0590668C9.05283 0.0590668 8.33814 0.118124 7.38521 0.118124C6.43228 0.118124 5.47935 0.177191 4.40731 0.177191C3.63305 0.177191 2.8588 0.177188 2.02498 0.118124C1.19117 0.118124 0.536023 0.0590668 0 0.0590668V0.885947C0.416907 0.885947 0.893377 1.12221 1.4294 1.41752C1.96542 1.7719 2.38232 2.42159 2.79923 3.48473L12.805 29H12.9837H13.1624H13.341H13.5197L23.1681 4.42974C23.6446 3.18941 24.1806 2.36253 24.7166 1.83096C25.3122 1.29939 25.8482 1.00407 26.3843 0.885947V0.0590668C25.9673 0.0590668 25.5504 0.118124 25.074 0.118124C24.5975 0.118124 24.0615 0.118124 23.3468 0.118124Z" fill="black"/>
<path d="M61.2255 17.719C60.7491 16.7149 59.8557 15.8289 58.6645 15.1202C57.4734 14.3524 55.7462 13.8799 53.6021 13.5845V13.5255C55.1506 13.053 56.3418 12.4623 57.2947 11.6945C58.1881 10.9267 58.8432 10.0998 59.2601 9.21387C59.677 8.32792 59.8557 7.38291 59.8557 6.4379C59.8557 4.54788 59.141 3.0713 57.7116 1.83098C56.2822 0.649714 54.1381 0.059082 51.2198 0.059082C50.7433 0.059082 49.9095 0.0590766 48.7183 0.11814C47.5272 0.11814 46.336 0.177207 45.0257 0.177207C44.1323 0.177207 43.239 0.177203 42.286 0.11814C41.3331 0.11814 40.6184 0.059082 40.0228 0.059082V0.885962C40.9758 0.885962 41.6309 1.00409 42.1074 1.18128C42.5838 1.35847 42.8816 1.65379 43.0603 2.12629C43.239 2.5988 43.2985 3.36662 43.2985 4.31163V24.4522C43.2985 25.3972 43.239 26.165 43.0603 26.6375C42.8816 27.11 42.5838 27.4644 42.1074 27.5825C41.6309 27.7597 40.9162 27.8778 40.0228 27.8778V28.7047C40.6184 28.6456 41.3331 28.6456 42.286 28.5866C43.239 28.5866 44.1323 28.5866 45.0853 28.5866C46.7529 28.5866 48.2419 28.5866 49.433 28.6457C50.6242 28.7047 51.5176 28.7047 52.1131 28.7047C54.1381 28.7047 55.9249 28.3503 57.4138 27.7006C58.9028 27.0509 60.0344 26.1059 60.8086 24.9247C61.5829 23.7434 61.9998 22.385 61.9998 20.8493C61.9402 19.7862 61.702 18.723 61.2255 17.719ZM47.7058 1.53566C48.0632 1.06316 48.897 0.826905 50.1477 0.826905C52.1727 0.826905 53.6616 1.35847 54.555 2.36254C55.4484 3.36661 55.8653 4.90225 55.8653 6.9104C55.8653 8.09167 55.6866 9.1548 55.3888 10.1589C55.091 11.1629 54.4359 11.9898 53.6021 12.5805C52.7087 13.1711 51.458 13.4664 49.8499 13.4664H47.1102V4.31163C47.1102 2.89411 47.2889 1.9491 47.7058 1.53566ZM56.044 25.9878C54.8528 27.2281 52.8874 27.8188 50.2073 27.8188C49.3735 27.8188 48.7183 27.7597 48.3014 27.5825C47.8845 27.4053 47.5867 27.11 47.408 26.6375C47.2294 26.165 47.1698 25.4562 47.1698 24.5112V14.2342H50.6242C53.2447 14.2342 55.091 14.8249 56.2226 15.9471C57.3542 17.0693 57.9498 18.723 57.9498 20.7902C57.8307 22.9756 57.2351 24.7475 56.044 25.9878Z" fill="black"/>
<path d="M32.9951 0.118124C31.9231 0.118124 30.9106 0.11813 30.0172 0.0590668C29.0643 0.0590668 28.3496 0 27.754 0V0.82689C28.707 0.82689 29.3621 0.945016 29.8386 1.12221C30.315 1.29939 30.6128 1.5947 30.7915 2.06721C30.9702 2.53972 31.0297 3.30753 31.0297 4.25254V24.3931C31.0297 25.3381 30.9702 26.1059 30.7915 26.5784C30.6128 27.0509 30.315 27.4053 29.8386 27.5234C29.3621 27.7006 28.6474 27.8187 27.754 27.8187V28.6456C28.3496 28.5866 29.0643 28.5866 30.0172 28.5275C30.9702 28.5275 31.9231 28.5275 32.9951 28.5275C33.9481 28.5275 34.901 28.5275 35.8539 28.5275C36.8069 28.5275 37.5811 28.5866 38.2363 28.6456V27.9369C37.2833 27.8778 36.6282 27.7597 36.1517 27.6416C35.6753 27.4644 35.3775 27.169 35.1988 26.6965C35.0201 26.224 34.9606 25.4562 34.9606 24.5112V4.31161C34.9606 3.30754 35.0201 2.59878 35.1988 2.12628C35.3775 1.65377 35.6753 1.29939 36.1517 1.18126C36.6282 1.00407 37.3429 0.885947 38.2363 0.885947V0.0590668C37.5811 0.0590668 36.8069 0.118124 35.8539 0.118124C34.901 0.118124 33.9481 0.118124 32.9951 0.118124Z" fill="black"/>
</g>
<defs>
<clipPath id="clip0_493_6299">
<rect width="62" height="29" fill="white"/>
</clipPath>
</defs>
</svg>
