<svg width="12" height="12" viewBox="0 0 12 12" fill="none" xmlns="http://www.w3.org/2000/svg">
<circle cx="3.62023" cy="8.79119" r="2.17892" stroke="white" stroke-width="0.401786"/>
<path d="M0.807678 8.57492C0.807678 7.1411 1.97002 5.97876 3.40383 5.97876" stroke="white" stroke-width="0.401786" stroke-linecap="round"/>
<path fill-rule="evenodd" clip-rule="evenodd" d="M3.60751 8.88211L3.5281 8.8903L3.45195 8.15349C3.48282 8.14748 3.51115 8.14452 3.53955 8.14162C3.7832 8.11633 3.94314 8.19439 3.97012 8.45514C3.99442 8.69031 3.87673 8.85427 3.60751 8.88211ZM3.45991 7.81473C3.3437 7.82674 3.12703 7.86347 2.99585 7.89703L3.20079 9.88077L3.62585 9.8369L3.56149 9.21333L3.62098 9.20725C4.07154 9.16063 4.45379 8.92355 4.39848 8.38793C4.34755 7.89484 3.97003 7.76203 3.45991 7.81473Z" fill="white"/>
<path d="M6.80361 9.99107C9.46641 9.99107 11.625 7.92239 11.625 5.37054C11.625 2.81868 9.46641 0.75 6.80361 0.75C4.1408 0.75 1.98218 2.81868 1.98218 5.37054" stroke="white" stroke-width="0.401786"/>
<path d="M8.00892 6.17198C8.00892 5.55548 7.30959 5.42793 6.83768 5.22598C6.59888 5.125 6.42262 5.00276 6.42262 4.79018C6.42262 4.57759 6.59319 4.3969 6.96276 4.3969C7.19587 4.3969 7.46878 4.45536 7.70189 4.56165L7.89521 4.11522C7.65072 4.00893 7.40624 3.94515 7.15607 3.92389V3.5625L6.62731 3.58376V3.93984C6.01894 4.04613 5.75172 4.45536 5.75172 4.85927C5.75172 5.41199 6.25205 5.60332 6.68416 5.76807C7.01393 5.89562 7.29821 6.00191 7.29821 6.24107C7.29821 6.48554 7.09353 6.66093 6.70691 6.66093C6.41125 6.66093 6.12129 6.57589 5.83132 6.4324L5.59821 6.88414C5.8768 7.03826 6.22363 7.14987 6.59319 7.17113V7.58036L7.11627 7.5591V7.12861C7.66778 7.00106 8.00892 6.62904 8.00892 6.17198Z" fill="white"/>
<path d="M7.60713 8.58472L6.60266 9.99097L7.80802 11.1963" stroke="white" stroke-width="0.401786" stroke-linecap="round" stroke-linejoin="round"/>
</svg>
