<svg xmlns="http://www.w3.org/2000/svg" width="1248" height="64" fill="none"><g clip-path="url(#a)"><path fill="#000" d="M0 0h1248v64H0z"/><path fill="#fff" d="M-322-237h1575v630H-322z"/><circle cx="83" cy="-12" r="45" fill="#000"/><circle cx="263" cy="-12" r="45" fill="#000"/><circle cx="443" cy="-12" r="45" fill="#000"/><circle cx="623" cy="-12" r="45" fill="#000"/><circle cx="803" cy="-12" r="45" fill="#000"/><circle cx="983" cy="-12" r="45" fill="#000"/><circle cx="1163" cy="-12" r="45" fill="#000"/><circle cx="-7" cy="78" r="45" fill="#000"/><circle cx="173" cy="78" r="45" fill="#000"/><circle cx="353" cy="78" r="45" fill="#000"/><circle cx="533" cy="78" r="45" fill="#000"/><circle cx="713" cy="78" r="45" fill="#000"/><circle cx="893" cy="78" r="45" fill="#000"/><circle cx="1073" cy="78" r="45" fill="#000"/><circle cx="1253" cy="78" r="45" fill="#000"/></g><defs><clipPath id="a"><path fill="#fff" d="M0 0h1248v64H0z"/></clipPath></defs></svg>