<svg xmlns="http://www.w3.org/2000/svg" viewBox="0 0 52 12" fill="#FFF"><path class="st0" d="M3.5 6.1c2.4 0 3.2-.8 3.2-3.1C6.7 1 5.6.2 3.8.2c-.3 0-.7.1-1 .1v5.8h.7zm6.7 5.8c-.4.1-.7.1-.9.1-1.8 0-2-1.2-2.3-2.5-.4-1.6-.8-3.2-3.5-3.2h-.7v4.2c0 1 .3 1.3 1.2 1.3v.1H0v-.1c.9 0 1.2-.2 1.2-1.2v-9C1.2.6.9.3 0 .3V.1h3.9c2.9 0 4.6 1 4.6 3.1 0 1.8-1.1 2.8-3.8 3 5.7.1 2.7 5.4 5.6 5.6-.1 0-.1.1-.1.1zm9.6-5.5c0-3.9-1.8-6.2-4.5-6.2-2.5 0-3.9 2-3.9 5.4 0 3.9 1.8 6.1 4.5 6.1 2.6.1 3.9-1.9 3.9-5.3zM9.6 6c0-3.6 2.4-6 6.1-6s5.9 2.3 5.9 5.9c0 3.9-2.3 6.1-6 6.1s-6-2.2-6-6zM33.3.3c-.9 0-1.2.5-1.2 2.3v5.1c0 2.8-1.5 4.3-4.5 4.3s-4.7-1.4-4.7-4.2V1.6c0-1-.3-1.3-1.2-1.3V.1h4v.1c-.9 0-1.2.2-1.2 1.2v6.2c0 2.6.9 3.9 3.3 3.9 2.6 0 3.9-1.3 3.9-4.1V2.6c0-1.8-.3-2.3-1.4-2.3V.1h2.8l.2.2m10.8 5.9v.1c-.9 0-1.2.2-1.2 1.2v4h-.4c-.5 0-1 .1-1.5.2-.6.1-1.3.3-2.2.3-3.2 0-5.6-2-5.6-5.7 0-3.8 2.3-6.2 6.2-6.2 2.2 0 3.7.9 3.7 2.1 0 .7-.5 1-1 1-.3 0-.6-.1-.8-.5.2-.2.3-.5.3-.8 0-.8-.8-1.6-2.5-1.6-2.5 0-4 1.8-4 5.5 0 3.8 1.5 5.9 4.4 5.9.8 0 1.6-.2 2.2-.7V7.6c0-1-.3-1.2-1.2-1.2v-.2h3.6M52 8.7l-.4 3.1h-7.5v-.1c.9 0 1.2-.2 1.2-1.2V1.6c0-1-.3-1.3-1.2-1.3V.1h7.5v2.8h-.1C50.8.8 50.3.3 48.5.3h-1.6v5.4h1.3c1.2 0 1.4-.4 1.8-1.9h.1v4.1H50c-.4-1.5-.6-1.9-1.8-1.9h-1.3v5.8h1.4c2 0 2.6-.6 3.6-2.9h.1"/></svg>
