<svg viewBox="0 0 257 58" xmlns="http://www.w3.org/2000/svg"><path d="M13.124 57.785c4.88 0 8.42-2.49 11.268-6.268l-.26-.258c-3.193 2.875-5.74 3.863-8.85 3.863-6.95 0-11.137-4.766-11.137-14.298 0-8.63 4.1-13.18 10.23-13.18 3.542 0 5.7 1.845 5.7 4.207 0 .816-.302 1.59-.734 2.06.433.817 1.253 1.246 2.073 1.246 1.252 0 2.504-.902 2.504-2.576 0-3.178-3.67-5.582-8.807-5.582C5.612 27 0 34.085 0 42.887c0 9.273 5.7 14.898 13.124 14.898zM41.316 58c9.152 0 15.067-5.882 15.067-15.714 0-9.146-5.656-15.243-14.808-15.243-9.153 0-15.37 6.14-15.37 15.37 0 9.62 5.958 15.587 15.11 15.587zm.604-.644c-6.52 0-11.138-5.71-11.138-15.757 0-8.632 3.453-13.956 9.886-13.956 6.476 0 11.14 5.925 11.14 15.93 0 8.672-3.283 13.782-9.888 13.782zm50.597-3.564l-4.447-22.97c-.086-.43-.13-.773-.13-1.074 0-1.588.994-2.018 2.893-2.018v-.343h-5.698L76.457 52.16l-8.98-24.773h-6.13v.343c2.072 0 2.98.558 2.98 2.233 0 .3 0 .687-.087 1.116l-3.454 20.65c-.648 3.78-1.425 5.368-3.583 5.368v.343H64.5V57.1c-2.29 0-3.455-1.074-3.455-3.564 0-.6.086-1.288.216-2.017l3.282-19.794 9.455 25.718h1.036l8.98-25.416 4.36 21.983c.086.43.13.816.13 1.116 0 1.546-.994 1.975-2.893 1.975v.343h10.404V57.1c-2.417 0-3.022-.773-3.497-3.306zm39.416 0l-4.446-22.97c-.087-.43-.13-.773-.13-1.074 0-1.588.993-2.018 2.893-2.018v-.343h-5.7l-8.677 24.773-8.98-24.773h-6.13v.343c2.072 0 2.98.558 2.98 2.233 0 .3 0 .687-.087 1.116l-3.454 20.65c-.648 3.78-1.425 5.368-3.584 5.368v.343h7.296V57.1c-2.288 0-3.453-1.074-3.453-3.564 0-.6.087-1.288.217-2.017l3.28-19.794 9.455 25.718h1.037l8.978-25.416 4.36 21.983c.087.43.13.816.13 1.116 0 1.546-.993 1.975-2.892 1.975v.343h10.404V57.1c-2.418 0-3.022-.773-3.497-3.306zm32.595-26.405h-7.037v.343c2.635 0 3.498 1.46 3.498 6.14v12.494c0 6.87-3.11 10.39-9.843 10.39-6.26 0-8.505-3.133-8.505-10.046V30.865c0-2.49.733-3.135 3.022-3.135v-.343h-10.188v.343c2.417 0 3.107.773 3.107 3.35v16.143c0 7.084 4.146 10.69 11.7 10.69 7.47 0 11.183-3.735 11.183-11.12V33.655c0-4.594.777-5.925 3.065-5.925v-.343zm20.117-.043v.343c2.677 0 3.584 1.546 3.584 5.796V51.43l-16.407-24.043h-6.044v.343c2.417 0 3.15.773 3.15 3.35v20.393c0 3.865-.82 5.625-3.107 5.625v.343h7.34V57.1c-2.808 0-3.8-1.932-3.8-5.84V31.34l17.96 26.103h1.337V33.27c0-4.123.777-5.583 3.023-5.583v-.343h-7.038zm9.153 30.097h10.23V57.1c-2.416 0-3.15-.773-3.15-3.35V30.866c0-2.49.734-3.135 3.022-3.135v-.343h-10.19v.343c2.42 0 3.11.773 3.11 3.35v22.884c0 2.49-.734 3.134-3.022 3.134v.343zm35.14-30.053h-22.793l-.216 7.77h.344c1.64-5.838 2.633-7.384 5.698-7.384h3.584v26.19c0 2.49-.734 3.135-3.022 3.135v.343h10.19V57.1c-2.42 0-3.153-.773-3.153-3.35V27.774h3.498c3.15 0 4.144 1.546 5.742 7.385h.345l-.216-7.77zm21.155 0v.343c1.684 0 2.633.472 2.633 1.76 0 .902-.475 2.19-1.425 3.993l-5.87 10.82-7.598-13.74c-.345-.6-.475-1.115-.475-1.502 0-1.03 1.08-1.33 2.85-1.33v-.343h-10.88v.343c1.857 0 2.806.515 4.145 2.92l8.16 14.855v8.588c0 2.404-.778 3.005-3.282 3.005v.343h10.577V57.1c-2.504 0-3.28-.73-3.28-3.22v-8.974l6.26-11.463c2.374-4.464 3.453-5.71 5.093-5.71v-.343h-6.907zM125.05 16.805c1.33 0 1.757-.364 1.757-1.772V2.088c0-1.457-.4-1.894-1.807-1.894V0h5.925v.194c-1.33 0-1.758.364-1.758 1.773V14.91c0 1.458.427 1.895 1.833 1.895V17h-5.95v-.195M148 0v.194c-1.387 0-1.866.824-1.866 3.152V17h-.827L134.213 2.255v11.253c0 2.207.613 3.298 2.347 3.298V17h-4.534v-.194c1.414 0 1.92-.995 1.92-3.178V2.108c0-1.454-.453-1.89-1.946-1.89V.024h3.733l10.134 13.58V3.47c0-2.402-.56-3.274-2.214-3.274V0H148M154.574 7.765c2.173 1.21 4.426 2.47 4.426 5.445 0 2.925-2.465 4.79-5.91 4.79-3.58 0-5.09-1.99-5.09-3.403 0-.958.583-1.538 1.458-1.538.662 0 1.087.276 1.378.755-.37.277-.61.832-.61 1.437 0 1.135.822 2.42 3.208 2.42 2.173 0 3.79-1.008 3.79-3.15 0-2.37-2.015-3.53-4.055-4.69-2.175-1.26-4.4-2.546-4.4-5.32 0-2.772 2.358-4.512 5.433-4.512 2.544 0 4.082 1.21 4.082 2.673 0 .857-.53 1.335-1.353 1.335-.635 0-1.166-.277-1.378-.73.292-.303.504-.807.504-1.286 0-.832-.583-1.69-2.36-1.69-2.173 0-3.1 1.21-3.1 2.875 0 2.37 1.935 3.454 3.976 4.588M160.05 16.805c1.33 0 1.758-.364 1.758-1.772V2.088c0-1.457-.402-1.894-1.808-1.894V0h5.924v.194c-1.33 0-1.756.364-1.756 1.773V14.91c0 1.458.426 1.895 1.832 1.895V17h-5.95v-.195M181.318 8.62c0-5.69-2.413-8.356-7.454-8.356-.804 0-1.635.096-2.413.193V15.08c0 1.2.564 1.656 2.87 1.656 4.505 0 6.998-2.497 6.998-8.116zM184 8.452c0 7.155-5.47 8.548-9.84 8.548-1.395 0-2.44-.024-3.326-.048-.67-.024-1.233-.048-1.823-.048h-1.956v-.192c1.42 0 1.876-.36 1.876-1.753V2.16C168.93.72 168.5.29 167 .29V.096h1.716c1.555 0 3.513-.096 5.39-.096C180.7 0 184 2.81 184 8.452zM196 12.483L195.355 17h-11.303v-.195c1.368 0 1.806-.364 1.806-1.772V2.088c0-1.457-.413-1.894-1.858-1.894V0h11.355l.026 4.104h-.206c-1.135-3.084-1.807-3.837-4.49-3.837h-2.4v7.82h2.038c1.806 0 2.194-.583 2.787-2.817h.206v5.877h-.207c-.594-2.26-.982-2.817-2.788-2.817h-2.038v8.403h2.064c2.968 0 3.974-.826 5.445-4.275l.207.025M202.584 9.063c3.758 0 5.074-1.262 5.074-4.52 0-3.078-1.745-4.29-4.564-4.29-.51 0-1.1.075-1.637.202v8.608h1.127zM213 17.873c-.564.076-1.1.127-1.504.127-2.792 0-3.248-1.894-3.704-3.888-.537-2.297-1.128-4.77-5.315-4.77h-1.02v6.26c0 1.514.456 1.968 1.96 1.968v.203h-6.363v-.203c1.423 0 1.88-.378 1.88-1.842V2.272c0-1.515-.43-1.97-1.934-1.97v-.2h1.127c.672 0 1.557-.026 2.443-.052.94-.025 1.907-.05 2.712-.05 4.51 0 7.06 1.465 7.06 4.57 0 2.777-1.8 4.266-5.986 4.62 8.805.15 4.295 8.103 8.644 8.507v.176zM115.695 17.618l3.243-4.807C121.558 8.93 122 7.58 122 6.628 122 5.7 121.48 5 120.6 5c-.832 0-1.376.5-1.273 1.3.675 0 1.246.602 1.246 1.48 0 1.15-.7 3.203-2.465 5.857l-1.298 1.928-1.842-10.315-.18-.174-3.426.926.05.2c.235-.05.416-.075.598-.075.675 0 .986.475 1.246 1.852l1.842 10.113c-1.375 1.953-2.698 3.455-4.048 3.455-.57 0-.934-.325-1.064-.826-.545.05-.986.5-.986 1.126 0 .65.467 1.152 1.272 1.152 1.816 0 3.424-2.403 5.423-5.382M106.427 5.048l.58-2.975-.152-.073c-.83 1.62-2.893 3.025-4.83 3.314l-.025.218h2.113l-1.535 8.347c-.05.314-.075.604-.075.87 0 1.38.754 2.25 2.34 2.25 1.71 0 3.47-1.258 4.3-3.556l-.175-.05c-.83 1.768-1.912 2.64-3.07 2.64-.905 0-1.206-.582-1.206-1.453 0-.314.025-.677.1-1.04l1.535-8.008h3.597l.076-.435-.025-.05h-3.548M99.343 16.93c-.548 0-.782-.358-.782-1.02 0-.358.053-.765.158-1.275l1.693-9.56-.077-.075-4.403 1.3.025.178c.366-.102.653-.153.887-.153.625 0 .86.357.86 1.046 0 .306-.053.69-.13 1.122l-.496 2.702c-.703 3.67-2.084 5.505-3.803 5.505-1.225 0-1.642-.893-1.642-2.116 0-.382.054-.816.13-1.274l1.513-8.234L93.168 5 89 6.3l.026.178c.34-.102.6-.153.808-.153.52 0 .73.306.73.97 0 .38-.08.89-.183 1.53l-.858 4.79c-.078.46-.13.867-.13 1.275 0 1.86.91 3.11 2.89 3.11 1.824 0 3.284-1.377 4.247-3.696-.183.994-.183 1.274-.183 1.53 0 1.53.755 2.166 1.98 2.166 1.563 0 3.048-1.556 3.673-3.798l-.183-.05c-.73 1.707-1.563 2.777-2.474 2.777M85.395 16.955c-.568 0-.774-.434-.774-1.122 0-.33.053-.74.13-1.173l1.702-9.558-.103-.076-2.193.637C83.41 5.255 82.403 5 81.423 5 77.373 5 75 9.385 75 13.768c0 2.702 1.238 4.206 3.224 4.206 1.858 0 3.354-1.478 4.41-4.206-.18.765-.283 1.428-.283 1.99 0 1.503.723 2.242 1.936 2.242 1.6 0 3.095-1.53 3.714-3.773l-.155-.05c-.593 1.53-1.47 2.778-2.45 2.778M83.72 7.14c-.182 4.54-1.858 9.662-4.464 9.662-1.186 0-1.935-1.02-1.935-3.237 0-3.544 1.317-8.31 4.258-8.31.747 0 1.47.255 2.14.816.026.128.026.28.026.46 0 .178 0 .382-.025.61M68.357 11.96C72.11 11.96 74 10.123 74 8.032 74 6.198 72.557 5 70.43 5 66.52 5 64 9.18 64 13.208 64 16.343 65.732 18 68.226 18c2.178 0 4.173-1.275 5.38-3.85l-.157-.076c-1.103 1.938-2.494 2.804-4.07 2.804-1.863 0-3.044-1.452-3.044-4.154 0-.306 0-.612.026-.944.683.102 1.34.18 1.995.18m1.837-6.705c1.26 0 1.864 1.02 1.864 2.396 0 2.218-1.076 3.977-3.57 3.977-.603 0-1.312-.127-2.073-.356.34-2.803 1.6-6.015 3.78-6.015M55.223 17c5.108 0 8.234-2.01 8.234-5.255 0-2.204-1.713-3.414-5.028-3.656.57-.074 1.086-.195 1.548-.316C62.696 6.974 64 5.23 64 3.34 64 1.188 62.207 0 58.293 0h-2.69c-1.06.024-2.2.024-3.37.024v.194c1.224 0 1.686.29 1.686 1.138 0 .218-.03.46-.083.75l-2.554 12.91c-.272 1.355-.816 1.767-2.283 1.767v.193c1.332 0 2.61 0 3.75.024h2.473zM56.69.315c.57-.073 1.17-.097 1.55-.097 2.445 0 3.423.993 3.423 2.76 0 2.326-1.25 5.062-4.837 5.062H55.14L56.69.315zm-2.853 14.312l1.25-6.37h1.44c2.935 0 4.375.848 4.375 2.98 0 3.075-1.63 5.52-5.326 5.52-1.33 0-1.848-.29-1.848-1.21 0-.242.028-.557.11-.92z"/></svg>
