<svg xmlns="http://www.w3.org/2000/svg" viewBox="0 0 24 12" fill="#FFF"><path d="M11.1 0v.1c-.7 0-1.1.6-1.8 2.7L6 11.9h-.6L1.5 1.6C1 .4.7.1 0 .1V0h4.1v.1c-.8 0-1.2.1-1.2.6 0 .2.1.4.2.8l3.3 8.8 2.7-7.4c.2-.7.4-1.2.4-1.7C9.5.5 9.1.1 8.3.1V0h2.8m.5 11.8c.8 0 1.1-.2 1.1-1.2V1.4c0-1-.3-1.3-1.1-1.3V0h3.7v.1c-.8 0-1.1.2-1.1 1.2v9.1c0 1 .3 1.3 1.2 1.3v.1h-3.8M22.4 9c0-2.4-.8-3.2-2.9-3.2h-.8v4.9c0 .8.2 1.1 1.2 1.1 1.6 0 2.5-.8 2.5-2.8zM19.6.1c-.2 0-.6.1-1 .1v5.4h1c1.6 0 2.2-.9 2.2-2.8.1-1.9-.6-2.7-2.2-2.7zM24 8.8c0 2.2-1.5 3.2-4.4 3.2h-3.5v-.1c.8 0 1.1-.2 1.1-1.2V1.4c0-1-.3-1.3-1.1-1.3V0h3.8c2.4 0 3.5.9 3.5 2.8 0 1-.4 1.8-1 2.3-.5.3-1 .5-1.8.7 2.2 0 3.4.8 3.4 3z"/></svg>
