<svg xmlns="http://www.w3.org/2000/svg" viewBox="0 0 263.2 39.4"><path d="M122.9 29.5c2.2 0 3-.6 3-3.1V3.9c0-2.5-.7-3.3-3-3.3V.3h10v.3c-2.2 0-3 .6-3 3.1v22.5c0 2.5.7 3.3 3.1 3.3v.3h-10v-.3M159.7.3v.3c-2.2 0-3 1.4-3 5.5v23.8h-1.3L137.9 4.2v19.6c0 3.8 1 5.7 3.7 5.7v.3h-7.2v-.3c2.2 0 3-1.7 3-5.5V3.9c0-2.5-.7-3.3-3.1-3.3V.3h5.9l16 23.6V6.3c0-4.2-.9-5.7-3.5-5.7V.3h7M170.1 13c3.5 2 7.1 4.1 7.1 9.1 0 4.9-3.9 8-9.4 8-5.7 0-8.1-3.3-8.1-5.7 0-1.6.9-2.6 2.3-2.6 1.1 0 1.7.5 2.2 1.3-.6.5-1 1.4-1 2.4 0 1.9 1.3 4.1 5.1 4.1 3.5 0 6-1.7 6-5.3 0-4-3.2-5.9-6.5-7.9-3.5-2.1-7-4.3-7-8.9 0-4.6 3.8-7.6 8.7-7.6 4.1 0 6.5 2 6.5 4.5 0 1.4-.8 2.2-2.2 2.2-1 0-1.9-.5-2.2-1.2.5-.5.8-1.4.8-2.2 0-1.4-.9-2.8-3.8-2.8-3.5 0-4.9 2-4.9 4.8 0 4.1 3.1 5.9 6.4 7.8M178.3 29.5c2.2 0 3-.6 3-3.1V3.9c0-2.5-.7-3.3-3-3.3V.3h10v.3c-2.2 0-3 .6-3 3.1v22.5c0 2.5.7 3.3 3.1 3.3v.3h-10v-.3M212.8 15.3c0-10-3.8-14.7-11.7-14.7-1.3 0-2.6.2-3.8.3v25.7c0 2.1.9 2.9 4.5 2.9 7 .1 11-4.3 11-14.2zm4.2-.3c0 12.6-8.6 15-15.5 15-2.2 0-3.8 0-5.2-.1-1.1 0-1.9-.1-2.9-.1h-3.1v-.3c2.2 0 3-.6 3-3.1V3.9c0-2.5-.7-3.3-3-3.3V.3h2.7c2.4 0 5.5-.2 8.5-.2C211.8.1 217 5.1 217 15zM237 22l-1.1 7.9h-18.5v-.3c2.2 0 3-.6 3-3.1V3.9c0-2.5-.7-3.3-3-3.3V.3H236v7.1h-.3c-1.9-5.4-3-6.7-7.3-6.7h-3.9v13.6h3.3c3 0 3.6-1 4.6-4.9h.3v10.2h-.3c-1-3.9-1.6-4.9-4.6-4.9h-3.3v14.6h3.4c4.9 0 6.5-1.4 8.9-7.4l.2.1M246.8 15.3c5.9 0 8-2.1 8-7.6 0-5.2-2.7-7.2-7.2-7.2-.8 0-1.7.1-2.6.3v14.4h1.8zM263.2 30c-.9.1-1.7.2-2.4.2-4.4 0-5.1-3.2-5.8-6.5-.8-3.8-1.8-8-8.4-8H245v10.5c0 2.5.7 3.3 3.1 3.3v.3h-10v-.3c2.2 0 3-.6 3-3.1V3.9c0-2.5-.7-3.3-3-3.3V.3h1.8c1.1 0 2.4 0 3.8-.1 1.5 0 3-.1 4.3-.1 7.1 0 11.1 2.4 11.1 7.6 0 4.6-2.8 7.1-9.4 7.7 13.9.3 6.8 13.6 13.6 14.2v.4h-.1zM106.9 30.2l5.4-8.2c4.3-6.6 5.1-8.9 5.1-10.6 0-1.6-.9-2.8-2.3-2.8s-2.3.9-2.1 2.2c1.1 0 2.1 1 2.1 2.5 0 2-1.2 5.5-4.1 10l-2.1 3.3-3-17.6-.3-.3-5.6 1.6.1.3c.4-.1.7-.1 1-.1 1.1 0 1.6.8 2.1 3.2l3 17.3c-2.3 3.3-4.5 5.9-6.7 5.9-.9 0-1.5-.6-1.8-1.4-.9.1-1.6.9-1.6 1.9 0 1.1.8 2 2.1 2 2.8 0 5.4-4.1 8.7-9.2M93 9.2L94 4l-.3-.1c-1.4 2.9-4.9 5.4-8.2 5.9v.4H89L86.4 25c-.1.6-.1 1.1-.1 1.5 0 2.4 1.3 4 4 4 2.9 0 5.9-2.2 7.3-6.3l-.3-.2c-1.4 3.1-3.3 4.7-5.2 4.7-1.5 0-2.1-1-2.1-2.6 0-.6 0-1.2.2-1.8l2.6-14.2h6.1l.1-.8v-.1h-6M80.9 28.7c-.9 0-1.3-.6-1.3-1.7 0-.6.1-1.3.3-2.1l2.8-16.1-.1-.1-7.2 2.2v.3c.6-.2 1.1-.3 1.5-.3 1 0 1.4.6 1.4 1.8 0 .5-.1 1.2-.2 1.9l-1 4.4c-1.2 6.2-3.4 9.2-6.2 9.2-2 0-2.7-1.5-2.7-3.6 0-.6.1-1.4.2-2.1l2.5-13.8-.2-.1-6.8 2.2v.3c.6-.2 1-.3 1.3-.3.9 0 1.2.5 1.2 1.6 0 .6-.1 1.5-.3 2.6l-1.4 8c-.1.8-.2 1.5-.2 2.1 0 3.1 1.5 5.2 4.8 5.2 3 0 5.4-2.3 7-6.2-.3 1.7-.3 2.1-.3 2.6 0 2.6 1.2 3.6 3.3 3.6 2.6 0 5-2.6 6-6.4l-.4.1c-1.2 2.9-2.5 4.7-4 4.7M58.6 28.7c-.9 0-1.3-.7-1.3-1.9 0-.6.1-1.2.2-2l2.8-16.1-.2-.1-3.6 1.1C55.3 9 53.7 8.6 52 8.6c-6.7 0-10.7 7.4-10.7 14.7 0 4.5 2.1 7.1 5.4 7.1 3.1 0 5.6-2.5 7.3-7.1-.3 1.3-.5 2.4-.5 3.3 0 2.5 1.2 3.8 3.2 3.8 2.7 0 5.1-2.6 6.2-6.3l-.2-.1c-1 2.6-2.4 4.7-4.1 4.7m-2.7-16.5c-.3 7.6-3.1 16.2-7.4 16.2-2 0-3.2-1.7-3.2-5.4 0-5.9 2.2-14 7.1-14 1.2 0 2.4.4 3.6 1.4v.8c-.1.3-.1.6-.1 1M31.2 20.3c6.1 0 9.2-3.1 9.2-6.6 0-3.1-2.4-5.1-5.8-5.1-6.4 0-10.5 7-10.5 13.8 0 5.3 2.8 8 6.9 8 3.6 0 6.8-2.1 8.8-6.5l-.3-.1c-1.8 3.3-4.1 4.7-6.6 4.7-3 0-5-2.4-5-7v-1.6c1.2.2 2.2.4 3.3.4m3-11.3c2.1 0 3 1.7 3 4 0 3.7-1.8 6.7-5.8 6.7-1 0-2.1-.2-3.4-.6.6-4.7 2.6-10.1 6.2-10.1M9.8 30.1c8 0 13-3.6 13-9.3 0-3.9-2.7-6-7.9-6.5.9-.1 1.7-.3 2.4-.6 4.3-1.4 6.3-4.5 6.3-7.8 0-3.8-2.8-5.9-9-5.9H5.1v.3c1.9 0 2.7.5 2.7 2 0 .4 0 .8-.1 1.3l-4 22.8C3.2 29 2.3 29.7 0 29.7v.3h9.8zM12.1.6C13 .5 14 .4 14.6.4 18.5.4 20 2.2 20 5.3c0 4.1-2 8.9-7.6 8.9H9.7L12.1.6zM7.6 25.9l2-11.3h2.3c4.6 0 6.9 1.5 6.9 5.3 0 5.4-2.6 9.8-8.4 9.8-2.1 0-2.9-.5-2.9-2.1-.1-.5 0-1.1.1-1.7z"/></svg>
