<svg xmlns="http://www.w3.org/2000/svg" width="140" height="29" fill="none"><path fill="#000" d="M51.263 15.004c-1.061-.83-2.298-1.66-3.654-2.49a115 115 0 0 1-3.3-2.076c-1-.653-1.826-1.364-2.415-2.195-.59-.83-.884-1.779-.884-2.965 0-1.364.471-2.49 1.355-3.32.884-.831 2.063-1.246 3.418-1.246 1.473 0 2.651.355 3.535 1.126.884.712 1.591 1.72 2.062 2.847.472 1.186.766 2.372.825 3.677h.884V4.329c0-1.008.06-1.838.06-2.431.058-.593.058-1.127.117-1.601h-.884c-.059.593-.177 1.008-.294 1.304-.118.297-.295.415-.59.415-.176 0-.353-.059-.589-.118-.177-.119-.471-.237-.766-.415-.53-.356-1.12-.712-1.827-1.009S46.609 0 45.311 0a9.6 9.6 0 0 0-3.653.712c-1.12.474-2.062 1.245-2.71 2.253-.707 1.008-1.06 2.313-1.06 3.855 0 1.483.294 2.728.942 3.796s1.532 1.957 2.593 2.728c1.06.77 2.239 1.6 3.476 2.312s2.298 1.483 3.24 2.135c.944.712 1.65 1.483 2.122 2.254.53.83.766 1.78.766 2.847 0 1.245-.236 2.253-.766 3.024-.472.771-1.12 1.364-1.886 1.72a5.8 5.8 0 0 1-2.474.534c-1.71 0-3.005-.415-4.066-1.246-1.002-.83-1.768-1.957-2.24-3.32q-.706-2.047-.883-4.449h-.884v4.626c0 1.246 0 2.194-.059 2.965 0 .771-.059 1.424-.117 1.957h.883c.06-.593.177-1.008.295-1.304s.295-.415.59-.415c.294 0 .765.178 1.354.533s1.297.653 2.063 1.009c.825.296 1.944.474 3.3.474a10.75 10.75 0 0 0 4.183-.83c1.237-.534 2.298-1.364 3.005-2.491.766-1.127 1.12-2.49 1.12-4.21 0-1.424-.295-2.67-.943-3.678-.354-1.008-1.179-1.957-2.24-2.787M5.067.415c-1.001 0-2.003 0-2.887-.06C1.296.356.59.298 0 .298v.77c.884 0 1.59.12 2.003.297.472.178.766.474.943.949.177.474.236 1.186.236 2.135v19.689c0 .949-.06 1.66-.236 2.135-.177.474-.471.77-.943.949-.471.178-1.12.237-2.003.296v.771c.53-.059 1.296-.059 2.18-.118h5.5969999999999995c.885 0 1.65.059 2.24.118v-.77c-.884-.06-1.591-.178-2.004-.297-.47-.178-.766-.475-.942-.949-.177-.474-.236-1.186-.236-2.135V4.447c0-.948.059-1.719.236-2.134.176-.475.471-.771.942-.949.472-.178 1.12-.297 2.004-.297v-.77c-.59 0-1.355.059-2.24.059-.883.06-1.826.06-2.71.06M33.232.415c-.648 0-1.355 0-2.12-.06-.767 0-1.415-.059-1.886-.059v.771c1.001 0 1.767.178 2.297.416.53.237.825.593 1.002 1.126.177.534.236 1.305.236 2.254v16.961L18.855.237c-.412 0-.884.06-1.414.06s-1.06.059-1.65.059c-.648 0-1.296 0-2.003-.06-.648 0-1.238-.059-1.65-.059v.771c.884 0 1.59.119 2.003.297.472.178.766.474.943.949.177.474.236 1.186.236 2.135v19.274c0 .948-.06 1.72-.236 2.253-.177.534-.471.949-.943 1.127-.471.237-1.12.356-2.003.415v.771c.471-.06 1.002-.06 1.65-.119h4.183c.766 0 1.356.06 1.827.119v-.771c-1.002-.06-1.768-.178-2.298-.415s-.825-.593-1.002-1.127-.235-1.305-.235-2.253V2.728L32.82 28.466h.943V4.922c0-.949.059-1.72.235-2.253.177-.534.472-.89.943-1.127s1.12-.356 2.003-.415V.356c-.412 0-.942.06-1.65.06zM79.074.297c-.707 0-1.709 0-2.828.059-1.179 0-2.18.06-3.123.06H70.47c-.884-.06-1.59-.06-2.18-.12v.771c.884 0 1.59.12 2.003.297.472.178.766.474.943.949.177.474.236 1.186.236 2.135v19.689c0 .949-.06 1.66-.236 2.135-.177.474-.471.77-.943.949-.471.178-1.12.237-2.003.296v.771c.53-.059 1.296-.059 2.18-.118h4.596c.707 0 1.355.059 2.004.059.648 0 1.178.06 1.59.06 3.005 0 5.598-.594 7.72-1.78 2.12-1.186 3.77-2.846 4.89-5.04 1.12-2.136 1.65-4.686 1.65-7.532 0-4.389-1.12-7.829-3.418-10.142-2.18-2.312-5.715-3.498-10.43-3.498m9.074 21.23c-.648 2.017-1.709 3.559-3.3 4.567-1.59 1.067-3.77 1.542-6.658 1.542-1.237 0-2.003-.237-2.357-.652-.353-.475-.59-1.364-.59-2.728V4.448c0-1.364.178-2.313.531-2.728.354-.475 1.179-.653 2.357-.653 2.71 0 4.89.475 6.482 1.424 1.59.949 2.71 2.431 3.417 4.388s1.06 4.389 1.06 7.354c0 2.847-.353 5.278-.942 7.295M139.529 25.975c-.354.475-.649.83-.943 1.068-.295.237-.648.415-1.12.415-.589 0-1.001-.237-1.296-.712-.295-.533-.53-1.364-.825-2.49l-1.002-4.033c-.353-1.66-.942-2.847-1.708-3.618s-2.063-1.305-3.83-1.601c-.177 0-.354-.06-.472-.06.884-.118 1.709-.296 2.416-.592q2.033-.8 3.182-1.957a7.6 7.6 0 0 0 1.65-2.55c.294-.89.471-1.72.471-2.55 0-1.305-.353-2.491-1.061-3.5-.707-1.067-1.767-1.897-3.122-2.49q-2.122-.89-5.303-.89c-.472 0-1.297 0-2.416.06-1.12 0-2.298.059-3.536.059-.883 0-1.767 0-2.651-.06-.884 0-1.591-.059-2.18-.059v.771c.884 0 1.591.119 2.003.297.471.177.766.474.943.948.177.475.236 1.186.236 2.135v19.69c0 .948-.059 1.66-.236 2.134-.177.475-.472.771-.943.95-.471.177-1.119.237-2.003.296v.77c.53-.058 1.296-.058 2.18-.118h5.5969999999999995c.884 0 1.65.06 2.24.119v-.771c-.884-.06-1.591-.178-2.004-.297-.471-.177-.766-.474-.943-.948-.176-.475-.235-1.187-.235-2.135v-9.133h3.7119999999999997c1.06 0 1.826.237 2.357.711q.796.712 1.237 1.957c.295.83.589 1.839.825 2.966l.884 3.973c.353 1.72.943 2.847 1.65 3.38.707.534 1.591.89 2.533.89 1.061 0 1.886-.237 2.475-.652S139.47 27.28 140 26.45zM123.148 1.78c.354-.474 1.178-.652 2.357-.652 2.416 0 4.066.593 5.067 1.72 1.002 1.126 1.473 2.787 1.473 4.863 0 1.245-.176 2.312-.53 3.32s-1.002 1.78-2.003 2.373-2.416.89-4.302.89h-2.651V4.565c.059-1.423.235-2.313.589-2.787M113.367 23.307c0-1.186.059-2.135.118-2.847h-.884c-.177 1.72-.471 3.143-.825 4.151-.353 1.008-1.002 1.78-1.826 2.195-.825.474-2.122.652-3.772.652h-2.887c-.884 0-1.591-.06-2.003-.237-.471-.119-.766-.475-.943-.95-.177-.474-.236-1.185-.236-2.134v-9.489h2.593c1.179 0 2.003.237 2.475.771.471.534.825 1.186.943 1.957.117.83.294 1.66.353 2.491h.884c-.118-1.483-.177-2.669-.177-3.44s-.059-1.542-.059-2.194v-2.194c0-.771.059-1.957.118-3.44h-.884c-.059.475-.176 1.008-.235 1.601s-.236 1.186-.413 1.72c-.236.534-.53 1.008-1.002 1.364-.471.356-1.119.534-2.003.534h-2.593v-9.37c0-.95.059-1.72.236-2.135.177-.475.472-.771.943-.89a8 8 0 0 1 2.003-.237h3.241c1.414 0 2.416.178 3.123.593.707.356 1.178 1.008 1.473 1.957.295.89.53 2.135.648 3.736h.884c0-.296-.059-.652-.059-1.067s-.059-.89-.059-1.364 0-1.127.059-1.957c.059-.89.118-1.78.236-2.669-1.179.06-2.593.06-4.125.119h-9.309999999999999c-1.06 0-2.12 0-3.181-.06-1.061 0-2.122-.059-3.064-.059v.771c.883 0 1.59.119 2.003.297.471.177.766.474.943.948.177.475.235 1.186.235 2.135v19.69c0 .948-.058 1.66-.235 2.134-.177.475-.472.771-.943.95-.471.177-1.12.237-2.003.296v.77c.942 0 2.003-.058 3.064-.058s2.12 0 3.181-.06h9.664c1.708 0 3.182.06 4.537.119-.118-1.008-.177-1.957-.236-2.906zM61.28.415c-1.002 0-2.004 0-2.888-.06-.884 0-1.59-.058-2.18-.058v.77c.884 0 1.591.12 2.003.297.472.178.766.474.943.949.177.474.236 1.186.236 2.135v19.689c0 .949-.059 1.66-.236 2.135s-.471.77-.943.949c-.47.178-1.119.237-2.003.296v.771c.53-.059 1.296-.059 2.18-.118h5.5969999999999995c.885 0 1.65.059 2.24.118v-.77c-.884-.06-1.59-.178-2.003-.297-.472-.178-.766-.475-.943-.949s-.236-1.186-.236-2.135V4.447c0-.948.06-1.719.236-2.134.177-.475.471-.771.943-.949.471-.178 1.12-.297 2.003-.297v-.77c-.59 0-1.355.059-2.24.059-.883.06-1.826.06-2.71.06"/></svg>