<svg xmlns="http://www.w3.org/2000/svg" width="120" height="29" fill="none"><path fill="#D71B31" d="M22.933 26.996c-.296.236-.651.412-1.126.412-.592 0-1.007-.235-1.303-.707-.297-.53-.534-1.356-.83-2.476l-1.007-4.008c-.356-1.65-.949-2.829-1.719-3.595s-2.074-1.297-3.792-1.592c-.178 0-.356-.058-.475-.058.89-.118 1.719-.295 2.37-.59 1.364-.53 2.371-1.179 3.2-1.945a7.5 7.5 0 0 0 1.66-2.535c.296-.884.474-1.709.474-2.534 0-1.297-.355-2.417-1.067-3.478-.71-1.06-1.777-1.827-3.14-2.475Q14.045.53 10.844.53c-.474 0-1.303 0-2.43.06-1.125 0-2.31.058-3.555.058-.889 0-1.778 0-2.666-.059C1.303.59.593.53 0 .53v.767c.889 0 1.6.118 2.015.294.474.177.77.472.948.943.178.472.237 1.18.237 2.122v19.452c0 .943-.06 1.65-.237 2.122-.178.471-.474.766-.948.943s-1.126.235-2.015.294v.767c.533-.06 1.304-.06 2.193-.118h5.629c.89 0 1.66.059 2.252.118v-.767c-.889-.059-1.6-.176-2.015-.294-.474-.177-.77-.472-.948-.943-.178-.472-.237-1.18-.237-2.122v-8.96h3.7329999999999997c1.067 0 1.838.236 2.37.708q.801.707 1.245 1.945c.297.825.593 1.827.83 2.947l.889 3.95c.355 1.65.948 2.77 1.659 3.359.711.59 1.6.884 2.548.884 1.067 0 1.896-.236 2.489-.648s1.185-1.061 1.719-1.887l-.593-.412a3.6 3.6 0 0 1-.83 1.002M7.526 2.004c.355-.472 1.185-.648 2.37-.648 2.37 0 4.09.589 5.097 1.709s1.481 2.711 1.481 4.833c0 1.18-.178 2.3-.533 3.301s-1.008 1.768-2.015 2.358q-1.512.884-4.267.884H6.993V4.774c-.06-1.414.118-2.298.533-2.77M42.845 1.71C40.948.59 38.754 0 36.266 0c-2.43 0-4.623.59-6.519 1.827q-2.844 1.857-4.444 5.128c-1.067 2.181-1.6 4.775-1.6 7.663 0 3.006.533 5.54 1.54 7.663 1.067 2.121 2.49 3.713 4.386 4.892 1.896 1.12 4.089 1.71 6.578 1.71 2.43 0 4.622-.59 6.518-1.828q2.844-1.857 4.444-5.128c1.067-2.181 1.6-4.775 1.6-7.663 0-3.006-.533-5.54-1.54-7.662-1.067-2.181-2.548-3.773-4.385-4.893m.888 19.863c-.71 2.063-1.659 3.714-2.962 4.892q-1.868 1.77-4.445 1.769c-1.6 0-3.081-.53-4.385-1.65s-2.37-2.712-3.14-4.775c-.771-2.063-1.186-4.48-1.186-7.25 0-2.711.356-5.128 1.067-7.191.71-2.063 1.659-3.714 2.963-4.892Q33.512.706 36.089.707c1.66 0 3.081.53 4.444 1.65 1.304 1.12 2.37 2.712 3.141 4.716.77 2.063 1.185 4.48 1.185 7.25-.059 2.77-.415 5.128-1.126 7.25M119.822 25.463c-.059-.943-.059-1.65-.059-2.122 0-1.178.059-2.122.119-2.829h-.889c-.178 1.71-.474 3.065-.83 4.126a3.98 3.98 0 0 1-1.837 2.181c-.83.472-2.133.649-3.793.649h-2.903c-.889 0-1.6-.06-2.015-.236-.474-.118-.77-.472-.948-.943-.178-.472-.237-1.18-.237-2.122v-9.431h2.607c1.185 0 1.956.236 2.489.766.474.53.83 1.179.948 1.945.119.825.296 1.592.356 2.476h.889c-.119-1.474-.178-2.653-.178-3.419s-.059-1.533-.059-2.18v-2.182c0-.766.059-1.945.118-3.418h-.889c-.059.471-.178 1.002-.237 1.591-.059.59-.237 1.179-.415 1.71-.237.53-.533 1.001-1.007 1.355s-1.126.53-2.015.53h-2.607V4.657c0-.943.059-1.709.237-2.121.178-.472.474-.767.948-.885a8.2 8.2 0 0 1 2.015-.235h3.259c1.422 0 2.43.176 3.141.589.711.354 1.185 1.002 1.481 1.945.297.884.534 2.122.652 3.655h.889c0-.295-.059-.649-.059-1.061 0-.413-.06-.884-.06-1.356s0-1.12.06-1.945c.059-.884.118-1.768.237-2.653-1.185.06-2.608.06-4.148.118h-9.363c-1.067 0-2.134 0-3.2-.059-1.067 0-2.134-.059-3.082-.059v.767c.889 0 1.6.118 2.015.294.474.177.77.472.948.943.178.472.237 1.18.237 2.122v19.452c0 .943-.059 1.65-.237 2.122a1.5 1.5 0 0 1-.948.943c-.474.177-1.126.236-2.015.294v.767c.948 0 2.015-.06 3.082-.06s2.133 0 3.2-.058h9.718c1.659 0 3.2.059 4.563.118a23 23 0 0 1-.178-2.83M70.222.707c-.652 0-1.363 0-2.133-.059-.77 0-1.422-.059-1.897-.059v.767c.89 0 1.6.177 2.134.412.533.236.889.59 1.126 1.12s.355 1.297.355 2.24v12.26c0 1.945-.237 3.655-.652 5.246-.415 1.533-1.185 2.77-2.31 3.655-1.067.884-2.667 1.296-4.623 1.296-1.422 0-2.489-.235-3.378-.766-.83-.53-1.481-1.238-1.896-2.122s-.652-1.945-.83-3.124a38 38 0 0 1-.178-3.772V4.833c0-.943.06-1.709.238-2.122.177-.471.474-.766.948-.943s1.126-.294 2.015-.294V.707c-.593 0-1.363.06-2.252.06-.89 0-1.837.058-2.726.058-1.008 0-2.015 0-2.904-.059-.889 0-1.6-.059-2.193-.059v.767c.89 0 1.6.117 2.015.294.474.177.77.472.948.943.178.472.237 1.18.237 2.122v12.32c0 1.768.06 3.241.238 4.42q.266 1.768.888 3.006.623 1.238 1.778 2.299a6.93 6.93 0 0 0 3.022 1.65c1.126.295 2.37.472 3.615.472 1.66 0 3.082-.354 4.326-1.002a7.4 7.4 0 0 0 2.904-2.652q.888-1.504 1.244-3.537t.356-4.774V5.245c0-.942.06-1.708.237-2.239.178-.53.474-.884.948-1.12s1.126-.353 2.015-.412V.707c-.415 0-.948.06-1.66.06-.592-.119-1.244-.06-1.955-.06M94.519 16.563h-1.897c-.71 0-1.363 0-2.015-.059-.651 0-1.185-.059-1.659-.059v.767c1.126 0 1.956.117 2.489.294.593.177.948.53 1.185 1.061s.296 1.297.296 2.417v3.772c0 .472-.059.884-.177 1.18-.119.294-.474.648-.948.942-.415.236-.949.53-1.66.825-.71.295-1.54.413-2.489.413-3.2 0-5.57-1.12-7.11-3.3-1.541-2.182-2.312-5.66-2.312-10.316 0-2.122.178-4.008.593-5.717.415-1.71 1.007-3.124 1.778-4.362.77-1.179 1.659-2.122 2.725-2.77S85.57.707 86.875.707s2.608.295 3.852.826 2.252 1.296 3.022 2.24a6.2 6.2 0 0 1 1.304 2.652c.237 1.002.474 2.063.652 3.183h.889c0-2.299 0-4.126.059-5.482 0-1.414.06-2.534.118-3.536h-.888c-.178 1.591-.475 2.416-1.008 2.416-.178 0-.474-.118-.77-.412-.948-.708-1.897-1.297-2.963-1.769C90.074.295 88.71.06 86.993.06c-2.43 0-4.623.59-6.519 1.827s-3.437 2.947-4.504 5.187c-1.126 2.24-1.659 4.893-1.659 7.899 0 2.888.533 5.422 1.54 7.486 1.008 2.121 2.49 3.713 4.445 4.833s4.267 1.65 6.993 1.65c1.304 0 2.43-.177 3.378-.59.948-.353 1.896-.883 2.785-1.532.415-.294.652-.471.83-.53s.296-.118.474-.118c.355 0 .592.236.77.766s.296 1.002.296 1.474h.77v-7.78c0-.944.06-1.71.12-2.182.118-.471.295-.766.592-.943.296-.177.71-.236 1.303-.294v-.767c-.474 0-1.066.06-1.777.06-.652 0-1.482.058-2.311.058"/></svg>