<svg width="12" height="12" viewBox="0 0 12 12" fill="none" xmlns="http://www.w3.org/2000/svg">
<path fill-rule="evenodd" clip-rule="evenodd" d="M8.4187 6.05971H9.94277L9.23444 4.94029H8.4187V6.05971ZM10.3244 6.5H8.2207C8.11131 6.5 8.02221 6.40149 8.02221 6.27986V4.72014C8.02221 4.59851 8.11131 4.5 8.2207 4.5H9.3374C9.40174 4.5 9.46213 4.53467 9.49975 4.59356L10.4863 6.15327C10.5288 6.22042 10.5338 6.30848 10.5001 6.38112C10.466 6.45432 10.3982 6.5 10.3244 6.5Z" fill="white"/>
<path fill-rule="evenodd" clip-rule="evenodd" d="M7.08171 9.02623C7.07295 8.94857 7.05835 8.87266 7.05835 8.79266C7.05835 8.71266 7.07295 8.63675 7.08171 8.55908H4.29004C4.29938 8.63675 4.31398 8.71266 4.31398 8.79266C4.31398 8.87266 4.29938 8.94857 4.29004 9.02623H7.08171Z" fill="white"/>
<path fill-rule="evenodd" clip-rule="evenodd" d="M11.9544 6.19521L10.0572 3.61011C10.0134 3.54997 9.94329 3.51493 9.86913 3.51493H8.24111V2.26676C8.24111 2.13771 8.136 2.03319 8.00695 2.03319H1.73501C0.967127 2.03319 0.342896 2.65742 0.342896 3.42472V8.94192C0.342896 9.07039 0.448005 9.17491 0.576471 9.17491H1.11063C1.10187 9.09783 1.08727 9.02192 1.08727 8.94192C1.08727 8.86192 1.10187 8.78601 1.11063 8.70834H0.810631V3.42472C0.810631 2.91494 1.22523 2.49976 1.73501 2.49976H7.77337V3.74851C7.77337 3.87697 7.87848 3.9815 8.00695 3.9815H9.75118L11.5322 6.4101V8.70834H10.2608C10.2702 8.78601 10.2848 8.86192 10.2848 8.94192C10.2848 9.02192 10.2702 9.09783 10.2608 9.17491H11.7664C11.8948 9.17491 11.9999 9.07039 11.9999 8.94192V6.33361C11.9999 6.28397 11.9842 6.23551 11.9544 6.19521Z" fill="white"/>
<path fill-rule="evenodd" clip-rule="evenodd" d="M2.32607 5H0.173933C0.0782318 5 0 4.88713 0 4.75027C0 4.61287 0.0782318 4.5 0.173933 4.5H2.32607C2.42177 4.5 2.5 4.61287 2.5 4.75027C2.5 4.88713 2.42177 5 2.32607 5Z" fill="white"/>
<path fill-rule="evenodd" clip-rule="evenodd" d="M2.79128 3.99951H0.208719C0.0938781 3.99951 0 3.88664 0 3.74978C0 3.61238 0.0938781 3.49951 0.208719 3.49951H2.79128C2.90612 3.49951 3 3.61238 3 3.74978C3 3.88664 2.90612 3.99951 2.79128 3.99951Z" fill="white"/>
<path fill-rule="evenodd" clip-rule="evenodd" d="M4.96215 4.03498H4.26726C4.12011 4.03498 3.99982 3.91411 3.99982 3.76754C3.99982 3.62039 4.12011 3.49951 4.26726 3.49951H4.96215C5.1093 3.49951 5.22959 3.62039 5.22959 3.76754C5.22959 3.91411 5.1093 4.03498 4.96215 4.03498Z" fill="white"/>
<path fill-rule="evenodd" clip-rule="evenodd" d="M1.8036 5.99976H0.196398C0.0883362 5.99976 0 5.88689 0 5.75003C0 5.61262 0.0883362 5.49976 0.196398 5.49976H1.8036C1.91166 5.49976 2 5.61262 2 5.75003C2 5.88689 1.91166 5.99976 1.8036 5.99976Z" fill="white"/>
<path fill-rule="evenodd" clip-rule="evenodd" d="M2.75006 10C3.44042 10 4.00006 9.44036 4.00006 8.75C4.00006 8.05964 3.44042 7.5 2.75006 7.5C2.05971 7.5 1.50006 8.05964 1.50006 8.75C1.50006 9.44036 2.05971 10 2.75006 10ZM2.75006 10.5C3.71656 10.5 4.50006 9.7165 4.50006 8.75C4.50006 7.7835 3.71656 7 2.75006 7C1.78356 7 1.00006 7.7835 1.00006 8.75C1.00006 9.7165 1.78356 10.5 2.75006 10.5Z" fill="white"/>
<path fill-rule="evenodd" clip-rule="evenodd" d="M8.75 8.49976C8.61193 8.49976 8.5 8.61168 8.5 8.74976C8.5 8.88783 8.61193 8.99976 8.75 8.99976C8.88807 8.99976 9 8.88783 9 8.74976C9 8.61168 8.88807 8.49976 8.75 8.49976ZM9.5 8.74976C9.5 9.16397 9.16421 9.49976 8.75 9.49976C8.33579 9.49976 8 9.16397 8 8.74976C8 8.33554 8.33579 7.99976 8.75 7.99976C9.16421 7.99976 9.5 8.33554 9.5 8.74976Z" fill="white"/>
<path fill-rule="evenodd" clip-rule="evenodd" d="M2.75012 8.49976C2.61205 8.49976 2.50012 8.61168 2.50012 8.74976C2.50012 8.88783 2.61205 8.99976 2.75012 8.99976C2.88819 8.99976 3.00012 8.88783 3.00012 8.74976C3.00012 8.61168 2.88819 8.49976 2.75012 8.49976ZM3.50012 8.74976C3.50012 9.16397 3.16434 9.49976 2.75012 9.49976C2.33591 9.49976 2.00012 9.16397 2.00012 8.74976C2.00012 8.33554 2.33591 7.99976 2.75012 7.99976C3.16434 7.99976 3.50012 8.33554 3.50012 8.74976Z" fill="white"/>
<path fill-rule="evenodd" clip-rule="evenodd" d="M8.75 10C9.44036 10 10 9.44036 10 8.75C10 8.05964 9.44036 7.5 8.75 7.5C8.05964 7.5 7.5 8.05964 7.5 8.75C7.5 9.44036 8.05964 10 8.75 10ZM8.75 10.5C9.7165 10.5 10.5 9.7165 10.5 8.75C10.5 7.7835 9.7165 7 8.75 7C7.7835 7 7 7.7835 7 8.75C7 9.7165 7.7835 10.5 8.75 10.5Z" fill="white"/>
</svg>
