<svg width="32" height="32" viewBox="0 0 32 32" fill="none" xmlns="http://www.w3.org/2000/svg">
<path d="M14.1524 8.34863C13.6406 8.34863 13.1442 8.55841 12.7934 8.92463C12.4371 9.29619 12.2572 9.78241 12.2888 10.2926L13.5366 30.2731C13.5945 31.242 14.4137 32.0002 15.402 32.0002H26.8835C27.8718 32.0002 28.691 31.242 28.7489 30.2731L29.9967 10.2926C30.0274 9.78952 29.8429 9.29086 29.4921 8.92463C29.1404 8.55841 28.6458 8.34863 28.1331 8.34863H14.1524ZM13.1912 10.2402C13.175 9.97708 13.2672 9.72641 13.4516 9.53441C13.6352 9.34241 13.8848 9.23663 14.1524 9.23663H28.1331C28.4017 9.23663 28.6503 9.34241 28.8339 9.53441C29.0183 9.72641 29.1105 9.97708 29.0943 10.2402L27.8465 30.2206C27.8157 30.7202 27.3935 31.1113 26.8835 31.1113H15.402C14.892 31.1113 14.4698 30.7202 14.439 30.2206L13.1912 10.2402Z" fill="#98B8AD"/>
<path d="M23.925 4.67334V8.73682H18.3596V4.67334H23.925Z" stroke="#98B8AD"/>
<path d="M22.509 0.5V4.56348H19.7747V0.5H22.509Z" stroke="#98B8AD"/>
<path d="M13.551 5.56543C9.68372 5.56543 6.53711 8.65876 6.53711 12.4605V17.1405C6.53711 17.3859 6.73965 17.585 6.99011 17.585C7.23967 17.585 7.44131 17.3859 7.44131 17.1405V12.4605C7.44131 9.14854 10.1819 6.45432 13.551 6.45432H18.3116C18.562 6.45432 18.7646 6.25521 18.7646 6.00987C18.7646 5.76454 18.562 5.56543 18.3116 5.56543H13.551Z" fill="#98B8AD"/>
<path d="M3 23.4007C3 25.9669 4.3789 27.3242 6.99023 27.3242C9.60065 27.3242 10.9795 25.9669 10.9795 23.4007C10.9795 20.7322 9.38816 16.6958 6.99023 16.6958C4.59139 16.6958 3 20.7322 3 23.4007ZM3.9042 23.4007C3.9042 20.8611 5.40065 17.5847 6.99023 17.5847C8.5789 17.5847 10.0763 20.8611 10.0763 23.4007C10.0763 25.4709 9.0952 26.4354 6.99023 26.4354C4.88435 26.4354 3.9042 25.4709 3.9042 23.4007Z" fill="#98B8AD"/>
</svg>
