<svg width="32" height="32" viewBox="0 0 32 32" fill="none" xmlns="http://www.w3.org/2000/svg">
<g clip-path="url(#clip0_1218_177225)">
<path fill-rule="evenodd" clip-rule="evenodd" d="M13.0086 25.4971C13.0495 25.7636 12.9757 26.0319 12.8059 26.2329C12.6361 26.4339 12.3979 26.5401 12.1383 26.5249L10.621 26.4282C10.2637 26.4055 9.96057 26.1409 9.86723 25.7712L7.3979 15.936C7.46101 15.9114 7.52679 15.8915 7.5899 15.864L11.2859 14.2606L13.0086 25.4971ZM3.45568 14.8333C2.26812 14.2038 1.3899 13.0593 1.0459 11.6931C0.702789 10.3258 0.926789 8.86473 1.66012 7.68618C2.39346 6.50858 3.56679 5.72162 4.87968 5.52725L19.1872 3.41667L20.6352 9.18331L7.25479 14.985C6.02812 15.5179 4.64234 15.4619 3.45568 14.8333ZM21.6966 9.74651L19.8423 2.36328L4.75879 4.58858C3.19346 4.81898 1.79346 5.75765 0.919678 7.16186C0.0459005 8.56796 -0.221655 10.3078 0.187234 11.9386C0.597012 13.5675 1.64412 14.9319 3.06012 15.6819C3.83079 16.0915 4.67168 16.2963 5.51346 16.2963C5.85835 16.2963 6.20146 16.2612 6.5419 16.193L9.00857 26.0167C9.20146 26.7809 9.82812 27.3261 10.5677 27.3745L11.2726 27.419L11.5271 31.2015C11.5422 31.4528 11.7377 31.6452 11.9706 31.6452C11.9804 31.6452 11.9893 31.6452 11.9999 31.6443C12.2444 31.6272 12.4302 31.4025 12.4142 31.1408L12.1668 27.474C12.1748 27.474 12.1819 27.474 12.189 27.474C12.6761 27.474 13.1383 27.2569 13.4672 26.8672C13.8183 26.451 13.9712 25.8954 13.8859 25.3435L13.1615 20.618C13.2032 20.6313 13.2459 20.6445 13.2895 20.6445C13.3428 20.6445 13.405 20.635 13.4583 20.6066C13.5117 20.5876 13.5561 20.5497 13.6015 20.5118C13.6806 20.417 13.7339 20.2937 13.7339 20.1705C13.7339 20.0472 13.6806 19.9239 13.6015 19.8386C13.4761 19.7059 13.2806 19.6679 13.1117 19.7343C13.0823 19.7495 13.0601 19.7722 13.0343 19.7912L12.7588 17.9963L12.9446 17.9433C13.181 17.875 13.3223 17.6152 13.2583 17.362C13.1935 17.1089 12.9508 16.96 12.7135 17.0273L12.6148 17.0558L12.1303 13.8947L21.6966 9.74651Z" fill="#FFAE32"/>
<path fill-rule="evenodd" clip-rule="evenodd" d="M31.7816 4.52909C30.5781 3.75824 29.0127 4.17543 28.2918 5.45638C28.0643 5.86029 27.7025 6.14568 27.2741 6.25946C26.8438 6.37229 26.4012 6.30212 26.0225 6.0594C24.8216 5.2895 23.2554 5.70574 22.5318 6.98669C22.4056 7.2114 22.4741 7.50248 22.6838 7.63712C22.7558 7.68358 22.8349 7.70538 22.9123 7.70538C23.0634 7.70538 23.2101 7.6229 23.2945 7.47498C23.7647 6.64251 24.7834 6.37134 25.5647 6.87196C26.1461 7.24553 26.8296 7.35362 27.4892 7.17916C28.1478 7.00375 28.7034 6.56571 29.0536 5.94467C29.5229 5.1122 30.5407 4.84198 31.3247 5.34165C31.5345 5.47724 31.8074 5.40423 31.9345 5.17952C32.0607 4.95481 31.9923 4.66372 31.7816 4.52909Z" fill="#FFAE32"/>
<path fill-rule="evenodd" clip-rule="evenodd" d="M23.4996 3.36008C23.9271 3.24535 24.3725 3.31741 24.752 3.56014C25.9529 4.32909 27.5191 3.9138 28.2418 2.6319C28.7111 1.79848 29.7307 1.5292 30.5129 2.02983C30.7236 2.16541 30.9965 2.0924 31.1227 1.86769C31.2489 1.64298 31.1805 1.3519 30.9698 1.21726C29.7645 0.445471 28.2009 0.862656 27.48 2.1436C27.0107 2.97797 25.9929 3.24915 25.2098 2.74757C24.6276 2.37306 23.944 2.26497 23.2845 2.44037C22.6258 2.61483 22.0702 3.05383 21.7209 3.67486C21.5938 3.89863 21.6622 4.18971 21.8729 4.32529C21.944 4.3708 22.0231 4.39261 22.1014 4.39261C22.2525 4.39261 22.3991 4.31012 22.4827 4.16221C22.7094 3.75925 23.0711 3.47386 23.4996 3.36008Z" fill="#FFAE32"/>
</g>
<defs>
<clipPath id="clip0_1218_177225">
<rect width="32" height="32" fill="white"/>
</clipPath>
</defs>
</svg>
