<svg width="32" height="32" viewBox="0 0 32 32" fill="none" xmlns="http://www.w3.org/2000/svg">
<path fill-rule="evenodd" clip-rule="evenodd" d="M9.43559 28.5217C9.35203 29.9741 8.24803 31.111 6.9227 31.111C5.59737 31.111 4.49337 29.9732 4.40981 28.5217L3.91559 19.9421H9.92981L9.43559 28.5217ZM10.4009 19.0532H3.44448C3.32181 19.0532 3.20537 19.103 3.12092 19.1919C3.03737 19.2808 2.99292 19.4008 3.00092 19.5226L3.5227 28.5732C3.63292 30.495 5.12714 31.9999 6.9227 31.9999C8.71825 31.9999 10.2125 30.495 10.3227 28.5732L10.8445 19.5226C10.8516 19.4008 10.808 19.2808 10.7245 19.1919C10.64 19.103 10.5236 19.0532 10.4009 19.0532Z" fill="#CF142C"/>
<path fill-rule="evenodd" clip-rule="evenodd" d="M4.14 4.17422C3.89467 4.17422 3.69556 4.37333 3.69556 4.61867C3.69556 4.864 3.89467 5.06311 4.14 5.06311H6.47778V6.24533H4.836C4.58978 6.24533 4.39156 6.44444 4.39156 6.68978C4.39156 6.93511 4.58978 7.13422 4.836 7.13422H6.47778V8.34756H6.05289C5.80756 8.34756 5.60845 8.54667 5.60845 8.792C5.60845 9.03822 5.80756 9.23644 6.05289 9.23644H6.47778V18.0871H7.36667V9.23644H7.79245C8.03778 9.23644 8.23689 9.03822 8.23689 8.792C8.23689 8.54667 8.03778 8.34756 7.79245 8.34756H7.36667V7.13422H9.01022C9.25556 7.13422 9.45467 6.93511 9.45467 6.68978C9.45467 6.44444 9.25556 6.24533 9.01022 6.24533H7.36667V5.06311H9.70533C9.95067 5.06311 10.1498 4.864 10.1498 4.61867C10.1498 4.37333 9.95067 4.17422 9.70533 4.17422H7.36667V2.96978H9.70533C9.95067 2.96978 10.1498 2.77067 10.1498 2.52533C10.1498 2.27911 9.95067 2.08089 9.70533 2.08089H7.36667V0.888889H8.31422C8.55956 0.888889 8.75867 0.690667 8.75867 0.444444C8.75867 0.199111 8.55956 0 8.31422 0H7.36667H6.47778H5.53111C5.28578 0 5.08667 0.199111 5.08667 0.444444C5.08667 0.690667 5.28578 0.888889 5.53111 0.888889H6.47778V2.08089H4.14C3.89467 2.08089 3.69556 2.27911 3.69556 2.52533C3.69556 2.77067 3.89467 2.96978 4.14 2.96978H6.47778V4.17422H4.14Z" fill="#CF142C"/>
<path fill-rule="evenodd" clip-rule="evenodd" d="M27.3477 30.1644C27.3477 30.6861 26.9228 31.111 26.4011 31.111H18.9415C18.4197 31.111 17.9948 30.6861 17.9948 30.1644V18.7395H27.3477V30.1644ZM17.106 17.8506V30.1644C17.106 31.1768 17.93 31.9999 18.9415 31.9999H26.4011C27.4126 31.9999 28.2366 31.1768 28.2366 30.1644V17.8506H17.106Z" fill="#CF142C"/>
<path fill-rule="evenodd" clip-rule="evenodd" d="M25.0099 10.8599H20.3335V10.0208V8.21633V6.83678L20.3468 6.82789C20.3432 6.81011 20.3361 6.79589 20.3335 6.77722V6.51589C20.3459 5.82433 20.8117 4.96922 21.6108 4.17011C22.841 2.94167 24.2588 2.64478 24.7619 3.14522C24.9139 3.29722 24.9824 3.515 24.9948 3.78167V3.78078V3.78522C24.9966 3.82078 25.009 3.84656 25.0081 3.88478C25.0072 3.90878 24.9966 3.93545 24.9948 3.95945V6.19678C24.9992 6.19145 25.0055 6.18522 25.0099 6.17989V10.8599ZM25.8988 10.9203V3.91233C25.8988 3.91056 25.8979 3.90878 25.8979 3.907C25.8988 3.89989 25.8997 3.89189 25.8997 3.88478C25.8997 3.87589 25.8961 3.86789 25.8952 3.859C25.9006 3.32211 25.7299 2.85811 25.3912 2.51767C24.4428 1.57278 22.5068 2.01989 20.9824 3.54167C20.0064 4.51767 19.4597 5.57011 19.4446 6.50522V6.51233V10.9203C18.6472 11.1203 18.0535 11.8377 18.0535 12.6954V16.9274H18.9424V12.6954C18.9424 12.1737 19.3664 11.7488 19.889 11.7488H25.4544C25.9761 11.7488 26.401 12.1737 26.401 12.6954V16.9274H27.2899V12.6954C27.2899 11.8377 26.6952 11.1203 25.8988 10.9203Z" fill="#CF142C"/>
</svg>
