<svg width="32" height="32" viewBox="0 0 32 32" fill="none" xmlns="http://www.w3.org/2000/svg">
<path fill-rule="evenodd" clip-rule="evenodd" d="M28.0751 29.4738C28.0716 30.3769 27.3347 31.1111 26.4325 31.1111H19.476C19.036 31.1111 18.6227 30.9387 18.3125 30.6275C18.0022 30.3164 17.8325 29.9022 17.8342 29.4631L17.8529 23.6507L28.0938 23.6151L28.0751 29.4738ZM16.9676 22.7653L16.9453 29.4595C16.9427 30.1378 17.2049 30.7751 17.6831 31.2551C18.1614 31.7351 18.7978 32 19.476 32H26.4325C27.8236 32 28.9587 30.8684 28.964 29.4764L28.9862 22.7227L16.9676 22.7653Z" fill="#7AC071"/>
<path fill-rule="evenodd" clip-rule="evenodd" d="M12.7644 29.4684C12.7644 30.3742 12.0276 31.1111 11.1218 31.1111H6.94756C6.04267 31.1111 5.30489 30.3742 5.30489 29.4684V25.0427H12.7644V29.4684ZM14.1307 0.888889L12.7884 24.1538H5.28089L3.93867 0.888889H14.1307ZM3 0L4.416 24.608V29.4684C4.416 30.864 5.552 32 6.94756 32H11.1218C12.5182 32 13.6533 30.864 13.6533 29.4684V24.608L15.0702 0H3Z" fill="#7AC071"/>
<path fill-rule="evenodd" clip-rule="evenodd" d="M20.165 26.4343H25.7304V25.5454H20.165V26.4343Z" fill="#7AC071"/>
<path fill-rule="evenodd" clip-rule="evenodd" d="M21.3068 21.0147C23.8428 21.0147 25.4579 20.0289 26.1611 19.4796C26.5362 19.9596 27.1522 20.8627 27.3237 21.8032L28.2713 21.6298C27.9699 19.9738 26.6215 18.5249 26.5655 18.4636L26.2153 18.0947L25.8642 18.4618C25.8491 18.4778 24.3086 20.0512 21.3068 20.0512C18.9575 20.0512 18.0624 20.8983 17.7246 21.6094L18.5939 22.0227C18.7735 21.6467 19.3637 21.0147 21.3068 21.0147Z" fill="#7AC071"/>
</svg>
