<svg width="145" height="112" fill="none" xmlns="http://www.w3.org/2000/svg"><g clip-path="url(#a)"><path d="M111.748 61.57c-.629 0-1.258.052-1.86.131.013-.249.039-.485.039-.734 0-7.964-6.458-14.436-14.436-14.436-7.965 0-14.436 6.459-14.436 14.436 0 .996.104 1.979.301 2.922a3.304 3.304 0 0 1 2.934-1.769c1.821 0 3.302 1.48 3.302 3.301 0 1.821-1.48 3.302-3.302 3.302-.38 0-.733-.066-1.074-.184 2.542 4.114 7.087 6.852 12.275 6.852.629 0 1.258-.053 1.86-.132-.013.25-.04.485-.04.734 0 7.965 6.459 14.436 14.437 14.436s14.436-6.458 14.436-14.436c0-7.965-6.458-14.423-14.436-14.423Z" fill="#231F20"/><path d="M75.185 58.963c15.31 0 27.72-12.41 27.72-27.72 0-15.309-12.41-27.72-27.72-27.72-15.309 0-27.72 12.411-27.72 27.72 0 15.31 12.411 27.72 27.72 27.72Z" fill="#231F20"/><path d="M91.338 47.75c-17.344-3.053-22.191-17.633-23.252-29.056a12.407 12.407 0 0 1-.302-2.725c0-.42.026-.826.079-1.232 0-.236-.013-.471-.013-.694a23.366 23.366 0 0 0-3.747 1.52c-.786.406-1.546.851-2.28 1.336-6.34 4.179-10.545 11.344-10.545 19.519 0 10.532 6.956 19.44 16.52 22.375v9.93h13.754v-9.93a23.426 23.426 0 0 0 12.079-8.712c.432-.603.838-1.244 1.218-1.886-.066 0-.131-.013-.197-.013a13.843 13.843 0 0 1-3.314-.433Z" fill="#CF9E76"/><path d="m67.954 14.017-.118.04c0 .235.013.458.013.694.04-.25.066-.485.105-.734ZM94.73 48.182h-.065c.066 0 .131.013.197.013 0-.013.013-.013.013-.026-.053 0-.105.013-.144.013Z" fill="#231F20"/><path d="M102.054 110.944a7.872 7.872 0 0 0-7.873 7.873 7.872 7.872 0 0 0 7.873 7.873c3.773 0 6.93-2.659 7.703-6.196l-.04-3.498a7.881 7.881 0 0 0-7.663-6.052ZM71.229 78.063a7.872 7.872 0 0 0 7.873-7.873c0-.472-.04-.93-.118-1.376h-9.641c-2.044 0-4.048.236-5.96.669-.027.235-.04.471-.04.707 0 4.35 3.537 7.873 7.886 7.873ZM102.054 82.517c.55 0 1.074-.053 1.598-.157a27.023 27.023 0 0 0-9.249-9.55 7.725 7.725 0 0 0-.222 1.834 7.872 7.872 0 0 0 7.873 7.873ZM48.959 118.817a7.872 7.872 0 0 0-8.974-7.795l-.157 15.576c.406.066.825.105 1.245.105a7.877 7.877 0 0 0 7.886-7.886Z" fill="#000"/><path d="M109.757 120.494a7.87 7.87 0 0 1-7.703 6.196 7.872 7.872 0 0 1-7.873-7.873 7.872 7.872 0 0 1 7.873-7.873 7.881 7.881 0 0 1 7.663 6.052l-.118-12.851c0-4.847-1.1-10.008-3.144-14.75a27.038 27.038 0 0 0-2.803-7.048 7.968 7.968 0 0 1-1.598.157 7.872 7.872 0 0 1-7.873-7.873c0-.629.078-1.245.222-1.834a26.746 26.746 0 0 0-14.095-3.983h-1.323c.078.446.118.904.118 1.376a7.872 7.872 0 0 1-7.873 7.873 7.872 7.872 0 0 1-7.874-7.873c0-.236.014-.472.04-.707C53.558 71.71 45.763 79.32 43.3 89.067c-2.096 4.769-3.222 9.97-3.222 14.855l-.066 7.101a7.872 7.872 0 0 1 8.974 7.794 7.872 7.872 0 0 1-7.873 7.873c-.42 0-.839-.039-1.245-.105l-.249 25.938a7.872 7.872 0 0 1 9.367 7.729 7.872 7.872 0 0 1-7.873 7.874 8.587 8.587 0 0 1-1.651-.171l-.066 6.681 1.035-.013 13.664-.262 12.877-.249v-9.523c.786.065 1.585.104 2.397.104h10.965a27.5 27.5 0 0 0 2.568-.118v9.878l11.659.223 13.689.262 2.057.039-.55-54.483Z" fill="#EDEDED"/><path d="M71.23 122.249a7.872 7.872 0 0 1-7.874-7.873 7.872 7.872 0 0 1 7.873-7.873 7.872 7.872 0 0 1 7.874 7.873 7.872 7.872 0 0 1-7.873 7.873ZM85.613 102.036a7.872 7.872 0 0 1-7.873-7.873 7.872 7.872 0 0 1 7.873-7.873 7.872 7.872 0 0 1 7.873 7.873 7.872 7.872 0 0 1-7.873 7.873ZM55.129 102.036a7.872 7.872 0 0 1-7.873-7.873 7.872 7.872 0 0 1 7.873-7.873 7.872 7.872 0 0 1 7.873 7.873 7.872 7.872 0 0 1-7.873 7.873Z" fill="#000"/><path d="M64.693 68.722a3.301 3.301 0 1 0 0-6.602 3.301 3.301 0 0 0 0 6.602Z" fill="#C7332D"/><path d="M71.229 68.722a3.301 3.301 0 1 0 0-6.602 3.301 3.301 0 0 0 0 6.602Z" fill="#C7332D"/><path d="M77.753 68.722a3.301 3.301 0 1 0 0-6.602 3.301 3.301 0 0 0 0 6.602Z" fill="#C7332D"/><path d="M84.29 62.107c-1.27 0-2.371.72-2.934 1.768a3.3 3.3 0 0 0 1.86 4.664c.34.118.694.183 1.074.183a3.307 3.307 0 0 0 0-6.615Z" fill="#C7332D"/><path fill-rule="evenodd" clip-rule="evenodd" d="M69.945 32.042s-3.117 5.201-9.274.865c-1.022 2.424-3.485 2.306-5.62 2.266 3.327 1.625 6.183-.851 6.183-.851s.249 2.908-3.092 2.816c1.913 1.376 5.62-1.703 5.62-1.703s.25 2.149-1.676 3.38c2.056-.367 2.79-1.022 3.93-3.38-.25-.864.825 2.607-.839 3.655-1.664 1.048 5.292-1.768 4.768-7.048Z" fill="#010101"/><path fill-rule="evenodd" clip-rule="evenodd" d="M80.805 50.016c-4.048 1.205-4.664-3.013-6.471-.825-1.847-2.044-1.834.995-6.472.864 3.288.996 2.79 2.529 6.472 2.515 2.724-.026 3.196-1.035 6.471-2.554Z" fill="#C7332D"/><path d="M93.12 22.571c2.671-2.384 4.335-5.724 4.335-9.406C97.455 5.896 90.997 0 83.045 0c-4.939 0-9.288 2.266-11.895 5.725l18.222 8.83 3.747 8.016Z" fill="#000"/></g><defs><clipPath id="a"><path fill="#fff" transform="translate(.5)" d="M0 0h144v112H0z"/></clipPath></defs></svg>