<svg width="64" height="64" fill="none" xmlns="http://www.w3.org/2000/svg"><g clip-path="url(#a)" fill="#231F20"><path d="M63.297 16.489a1.29 1.29 0 0 0-.15-.16 1.287 1.287 0 0 0-.282-.299c-.02-.013-.047-.01-.069-.021-.018-.01-.026-.033-.046-.043L33.808 1.548a1.313 1.313 0 0 0-1.125-.022L.783 15.944c-.03.014-.043.046-.071.062-.034.018-.075.015-.107.036-.097.078-.181.17-.251.273a1.27 1.27 0 0 0-.155.169 1.327 1.327 0 0 0-.197.67L0 48.137c0 .525.305 1.002.78 1.218L32.524 63.77c.36.163.772.156 1.125-.02l29.099-14.417c.453-.224.74-.689.74-1.198V17.164a1.334 1.334 0 0 0-.19-.675ZM33.074 3.212 60.3 17.232l-13.003 6.37-27.77-14.018 13.547-6.372Zm-15.656 7.455L45.17 24.854l-12.314 6.17-28.59-14.257 13.152-6.1ZM2.106 17.55l29.638 14.896v28.722l-29.638-13.6V17.55ZM61.42 47.552l-27.03 13.355V32.414l27.03-13.356v28.494Z"/><path d="m18.278 33.043-10.45-4.987a1.317 1.317 0 0 0-1.748.645 1.342 1.342 0 0 0 .618 1.771l10.451 4.986c.176.085.368.129.563.128.62 0 1.156-.432 1.292-1.043a1.34 1.34 0 0 0-.726-1.5ZM12.47 35.58l-4.643-2.215a1.317 1.317 0 0 0-1.747.644 1.342 1.342 0 0 0 .618 1.772l4.643 2.214c.175.085.368.128.563.128.619 0 1.155-.433 1.291-1.043a1.34 1.34 0 0 0-.726-1.5Z"/></g><defs><clipPath id="a"><path fill="#fff" d="M0 0h64v64H0z"/></clipPath></defs></svg>