<svg width="21" height="20" viewBox="0 0 21 20" fill="none" xmlns="http://www.w3.org/2000/svg">
  <path fill-rule="evenodd" clip-rule="evenodd"
    d="M10.5 2.5C8.46312 2.5 8.20768 2.50899 7.40776 2.54701C6.60944 2.58494 6.06427 2.71702 5.58719 2.91016C5.09402 3.10978 4.67574 3.37692 4.25879 3.81124C3.84181 4.24559 3.58539 4.68127 3.39373 5.19502C3.20831 5.69195 3.08154 6.25987 3.0451 7.09142C3.0086 7.9247 3 8.19072 3 10.3125C3 12.4342 3.0086 12.7003 3.0451 13.5336C3.08154 14.3651 3.20831 14.9331 3.39373 15.43C3.58539 15.9437 3.84181 16.3794 4.25879 16.8138C4.67574 17.2481 5.09402 17.5152 5.58719 17.7149C6.06427 17.908 6.60944 18.0401 7.40776 18.078C8.20768 18.116 8.46312 18.125 10.5 18.125C12.5369 18.125 12.7923 18.116 13.5922 18.078C14.3905 18.0401 14.9357 17.908 15.4128 17.7149C15.906 17.5152 16.3242 17.2481 16.7412 16.8138C17.1582 16.3794 17.4146 15.9437 17.6062 15.43C17.7917 14.9331 17.9185 14.3651 17.9548 13.5336C17.9914 12.7003 18 12.4342 18 10.3125C18 8.19075 17.9914 7.9247 17.9548 7.09142C17.9185 6.25987 17.7917 5.69195 17.6062 5.19502C17.4146 4.68127 17.1582 4.24559 16.7412 3.81124C16.3242 3.37692 15.906 3.10978 15.4128 2.91016C14.9357 2.71702 14.3905 2.58494 13.5922 2.54701C12.7923 2.50899 12.5369 2.5 10.5 2.5ZM10.5 3.90766C12.5026 3.90766 12.7398 3.91559 13.5306 3.95318C14.2619 3.98794 14.659 4.11522 14.9233 4.22221C15.2733 4.36393 15.5232 4.53322 15.7856 4.80659C16.0481 5.07999 16.2106 5.34024 16.3467 5.70491C16.4494 5.9802 16.5715 6.3939 16.6049 7.15558C16.641 7.97938 16.6486 8.22648 16.6486 10.3125C16.6486 12.3985 16.641 12.6456 16.6049 13.4694C16.5715 14.2311 16.4494 14.6448 16.3467 14.9201C16.2106 15.2847 16.0481 15.545 15.7856 15.8184C15.5232 16.0918 15.2733 16.2611 14.9233 16.4028C14.659 16.5098 14.2619 16.6371 13.5306 16.6718C12.7399 16.7094 12.5027 16.7173 10.5 16.7173C8.49724 16.7173 8.26008 16.7094 7.46936 16.6718C6.73811 16.6371 6.34097 16.5098 6.07669 16.4028C5.72663 16.2611 5.47676 16.0918 5.21433 15.8184C4.9519 15.545 4.78934 15.2847 4.65329 14.9201C4.55061 14.6448 4.42843 14.2311 4.39505 13.4694C4.35897 12.6456 4.35135 12.3985 4.35135 10.3125C4.35135 8.22648 4.35897 7.97938 4.39505 7.15558C4.42843 6.3939 4.55061 5.9802 4.65329 5.70491C4.78934 5.34024 4.9519 5.07999 5.21433 4.80662C5.47676 4.53322 5.72663 4.36393 6.07669 4.22221C6.34097 4.11522 6.73811 3.98794 7.46933 3.95318C8.2602 3.91559 8.49739 3.90766 10.5 3.90766Z"
    fill="#090000" />
  <path fill-rule="evenodd" clip-rule="evenodd"
    d="M10.649 13.1046C9.27789 13.1046 8.16639 11.9407 8.16639 10.5049C8.16639 9.06916 9.27789 7.90524 10.649 7.90524C12.02 7.90524 13.1315 9.06916 13.1315 10.5049C13.1315 11.9407 12.02 13.1046 10.649 13.1046ZM10.649 6.5C8.53676 6.5 6.82446 8.29306 6.82446 10.5049C6.82446 12.7168 8.53676 14.5099 10.649 14.5099C12.7612 14.5099 14.4734 12.7168 14.4734 10.5049C14.4734 8.29306 12.7612 6.5 10.649 6.5Z"
    fill="#090000" />
  <path fill-rule="evenodd" clip-rule="evenodd"
    d="M15.7482 6.16627C15.7482 6.71925 15.3201 7.16751 14.7921 7.16751C14.264 7.16751 13.8359 6.71925 13.8359 6.16627C13.8359 5.61329 14.264 5.16504 14.7921 5.16504C15.3201 5.16504 15.7482 5.61329 15.7482 6.16627Z"
    fill="#090000" />
</svg>