<svg width="36" height="36" viewBox="0 0 36 36" fill="none" xmlns="http://www.w3.org/2000/svg">
  <rect x="1.5" y="1.5" width="33" height="33" rx="16.5" fill="black" fill-opacity="0.4" />
  <rect x="1.5" y="1.5" width="33" height="33" rx="16.5" stroke="white" stroke-width="3" />
  <path opacity="0.9" fill-rule="evenodd" clip-rule="evenodd"
    d="M26.2534 16.7535L13.0836 9.17666C12.6511 8.94111 12.1008 8.94111 11.7076 9.17666C11.2752 9.41221 11 9.88332 11 10.3937V25.5867C11 26.0971 11.2752 26.5289 11.7076 26.8037C11.9042 26.9215 12.1794 27 12.4153 27C12.6511 27 12.887 26.9215 13.1229 26.8037L26.2928 19.2268C26.7252 18.9913 27 18.5202 27 18.0098C26.9611 17.4602 26.6859 17.0284 26.2534 16.7535Z"
    fill="white" />
</svg>