<svg width="20" height="20" viewBox="0 0 20 20" fill="none" xmlns="http://www.w3.org/2000/svg">
  <path
    d="M15.5645 6.29487C14.0041 6.29487 12.7346 5.01393 12.7346 3.43945C12.7346 3.19672 12.5396 3 12.299 3H9.96649C9.72604 3 9.53096 3.19672 9.53096 3.43945V13.0889C9.53096 14.0145 8.78456 14.7675 7.86723 14.7675C6.9499 14.7675 6.20361 14.0145 6.20361 13.0889C6.20361 12.1632 6.9499 11.4101 7.86723 11.4101C8.10779 11.4101 8.30276 11.2134 8.30276 10.9707V8.6171C8.30276 8.37449 8.10779 8.17765 7.86723 8.17765C5.18341 8.17765 3 10.3809 3 13.0889C3 15.7969 5.18341 18 7.86723 18C10.551 18 12.7346 15.7969 12.7346 13.0889V8.8176C13.6013 9.28395 14.5659 9.52737 15.5645 9.52737C15.805 9.52737 16 9.33064 16 9.08791V6.73432C16 6.49171 15.805 6.29487 15.5645 6.29487Z"
    fill="black" />
</svg>