<svg xmlns="http://www.w3.org/2000/svg" viewBox="0 0 413 29" fill='#231F20'><path d="M26.9 27.7v.3h-9.3v-.3c2.1 0 2.8-.6 2.8-2.9V14.2H6.5v10.4c0 2.4.7 3.1 2.9 3.1v.3H.1v-.3c2.1 0 2.8-.6 2.8-2.9V3.4C2.9 1 2.2.3 0 .3V0h9.3v.3C7.2.3 6.5.9 6.5 3.2v10.5h13.8V3.4c0-2.4-.7-3.1-2.9-3.1V0h9.3v.3c-2.1 0-2.8.6-2.8 2.9v21.3c.1 2.5.8 3.2 3 3.2m17.3-9.2L38.7 3l-5.8 15.5h11.3zm9.5 9.2v.3h-10v-.3c2.1 0 3-.3 3-1.5 0-.5-.2-1.1-.5-1.9L44.3 19H32.7l-1.4 3.7c-.5 1.3-.7 2.3-.7 3.1 0 1.4.9 2 3 2v.2h-6.7v-.3c1.6 0 2.7-1.6 3.9-4.9L39.3 0h2.1l8.8 24.1c1 2.9 1.7 3.6 3.5 3.6zM63.4.4c-.7 0-1.5.1-2.3.3v15.5c1 .7 2.1 1 3 1 4.3 0 6.6-2.4 6.6-8.3.1-5.8-2.1-8.5-7.3-8.5m-2.2 17.2v7c0 2.4.8 3.1 3.5 3.1v.3h-9.8v-.3c2.1 0 2.7-.6 2.7-2.9V3.6c0-2.4-.6-3.1-2.8-3.1V.1h1.5c1.3 0 2.4 0 3.7-.1 1.3 0 2.6-.1 4-.1 7.2 0 10.7 3.1 10.7 8.6 0 6-3.9 9.1-10.7 9.1h-2.8M86.3.4c-.7 0-1.5.1-2.3.3v15.5c1 .7 2.1 1 3 1 4.3 0 6.6-2.4 6.6-8.3.1-5.8-2.2-8.5-7.3-8.5m-2.2 17.2v7c0 2.4.8 3.1 3.5 3.1v.3h-9.8v-.3c2.1 0 2.7-.6 2.7-2.9V3.6c0-2.4-.6-3.1-2.8-3.1V.1h1.5c1.3 0 2.4 0 3.7-.1 1.3 0 2.6-.1 4-.1C94 0 97.5 3.1 97.5 8.6c0 6-3.9 9.1-10.7 9.1-1-.1-2-.1-2.7-.1m33.3 3l-1 7.4H99.6v-.3c2 0 2.7-.6 2.7-2.9V3.4c0-2.4-.6-3.1-2.8-3.1V0h16.9l.1 6.7h-.3c-1.7-5.1-2.7-6.3-6.7-6.3h-3.6v12.9h3.1c2.7 0 3.3-.9 4.1-4.6h.3v9.7h-.3c-.9-3.7-1.4-4.6-4.1-4.6h-3.1v13.8h3.1c4.4 0 5.9-1.4 8.1-7h.3zM143.3 0v.3c-2.1 0-2.8 1.4-2.8 5.2V28h-1.2L122.7 3.7v18.5c0 3.6.9 5.4 3.5 5.4v.4h-6.8v-.3c2.1 0 2.9-1.7 2.9-5.2v-19c0-2.4-.7-3.1-2.9-3.1V.1h5.6l15.1 22.4V5.7c0-4-.8-5.4-3.3-5.4V0h6.5zm11 27.7v.3h-9.8v-.3c2.2 0 2.9-.6 2.9-2.9V3.4c0-2.4-.7-3.1-3-3.1V0h9.8v.3c-2.2 0-2.9.6-2.9 2.9v21.3c-.1 2.5.6 3.2 3 3.2M182.1 0v.3c-2.1 0-2.8 1.4-2.8 5.2V28h-1.2L161.5 3.7v18.5c0 3.6.9 5.4 3.5 5.4v.4h-6.8v-.3c2.1 0 2.9-1.7 2.9-5.2v-19c0-2.4-.7-3.1-2.9-3.1V.1h5.6l15.1 22.4V5.7c0-4-.8-5.4-3.3-5.4V0h6.5zM207 15v.3c-2.1 0-2.8.6-2.8 2.8v9.6c-.4-.1-.7-.1-1.1-.1-1.2 0-2.3.3-3.6.5-1.5.3-3.2.7-5.3.7-7.6 0-13.1-4.8-13.1-13.9 0-9.2 5.6-15.1 14.6-15.1 5.3 0 8.9 2.2 8.9 5.2 0 1.6-1.1 2.5-2.3 2.5-.8 0-1.6-.4-2-1.1.4-.5.7-1.1.7-1.9 0-2-2-4-6.1-4-6 0-9.6 4.4-9.6 13.4s3.6 14.2 10.2 14.2c2 0 3.7-.5 5.2-1.7v-8.1c0-2.3-.7-3-2.9-3V15h9.2zm15.4-3.4c-1-.8-2.1-1.2-3.3-1.2-4.5 0-6.5 7-6.5 12.1 0 3.2 1.1 4.7 3 4.7 4 0 6.5-7.5 6.8-14.1v-1.5zm6.5 11.9c-.9 3.3-3.2 5.5-5.7 5.5-1.9 0-3-1.1-3-3.3 0-.8.2-1.8.4-2.9-1.6 4-3.9 6.1-6.7 6.1-3.1 0-5-2.2-5-6.1 0-6.4 3.7-12.8 9.8-12.8 1.5 0 3 .4 4.2 1l3.4-.9.1.1-2.6 14c-.1.6-.2 1.2-.2 1.7 0 1 .3 1.7 1.2 1.7 1.5 0 2.8-1.8 3.7-4.1h.4zm5.1 0c-.1.6-.2 1.2-.2 1.7 0 1.4.4 2.3 1.8 2.3 1.7 0 3.3-1.4 4.5-4.2l.2.1c-1.2 3.7-3.8 5.7-6.3 5.7-2.4 0-3.5-1.4-3.5-3.7 0-.4 0-.9.1-1.4l2.2-13.3h-3.1v-.4c2.9-.5 5.9-2.7 7.1-5.3l.2.1-.8 4.7h5.4l.1.1-.1.7h-5.5L234 23.5zm18.9-11c3.3 2 6.8 4 6.8 8.8 0 4.7-3.8 7.7-9.1 7.7-5.5 0-7.8-3.2-7.8-5.5 0-1.5.9-2.5 2.3-2.5 1 0 1.6.4 2.1 1.2-.6.4-.9 1.3-.9 2.3 0 1.8 1.3 3.9 4.9 3.9 3.3 0 5.8-1.6 5.8-5.1 0-3.8-3.1-5.7-6.2-7.6-3.3-2-6.8-4.1-6.8-8.6s3.6-7.2 8.4-7.2c3.9 0 6.3 1.9 6.3 4.3 0 1.4-.8 2.2-2.1 2.2-1 0-1.8-.5-2.1-1.2.4-.5.8-1.3.8-2.1 0-1.3-.9-2.7-3.6-2.7-3.3 0-4.8 2-4.8 4.6-.1 3.9 2.9 5.7 6 7.5m27.7 8.1l-1 7.4h-16.8v-.3c2 0 2.7-.6 2.7-2.9V3.4c0-2.4-.6-3.1-2.8-3.1V0h16.9l.1 6.7h-.3c-1.7-5.1-2.7-6.3-6.7-6.3h-3.6v12.9h3.1c2.7 0 3.3-.9 4.1-4.6h.3v9.7h-.3c-.9-3.7-1.4-4.6-4.1-4.6h-3.1v13.8h3.1c4.4 0 5.9-1.4 8.1-7h.3zM291.3.4c-.7 0-1.5.1-2.3.3v15.5c1 .7 2.1 1 3 1 4.3 0 6.6-2.4 6.6-8.3.1-5.8-2.1-8.5-7.3-8.5m-2.2 17.2v7c0 2.4.8 3.1 3.5 3.1v.3h-9.8v-.3c2.1 0 2.7-.6 2.7-2.9V3.6c0-2.4-.6-3.1-2.8-3.1V.1h1.5c1.2 0 2.4 0 3.7-.1 1.3 0 2.6-.1 4-.1 7.2 0 10.7 3.1 10.7 8.6 0 6-3.9 9.1-10.7 9.1h-2.8m41.3 10.1v.3h-9.3v-.3c2.1 0 2.8-.6 2.8-2.9V14.2h-13.8v10.4c0 2.4.7 3.1 2.9 3.1v.3h-9.3v-.3c2.1 0 2.8-.6 2.8-2.9V3.4c0-2.4-.7-3.1-2.9-3.1V0h9.3v.3c-2.1 0-2.7.6-2.7 2.9v10.5H324V3.4c0-2.4-.7-3.1-2.9-3.1V0h9.3v.3c-2.1 0-2.8.6-2.8 2.9v21.3c-.1 2.5.6 3.2 2.8 3.2m24.8-12.1c0-9.4-4.2-15-9.9-15s-8.8 5-8.8 13.1c0 9.4 4.1 14.7 9.9 14.7 5.9 0 8.8-4.8 8.8-12.8m-22.8-1.1c0-8.7 5.5-14.5 13.7-14.5 8.1 0 13.2 5.8 13.2 14.4 0 9.2-5.3 14.6-13.4 14.6-8.2 0-13.5-5.6-13.5-14.5m39.2.1c5.6 0 7.5-2 7.5-7.3 0-5-2.6-6.9-6.8-6.9-.8 0-1.6.1-2.4.3v13.9h1.7zm15.5 14.2c-.9.1-1.6.2-2.3.2-4.2 0-4.8-3-5.5-6.3-.8-3.7-1.7-7.7-7.9-7.7h-1.5v10.1c0 2.5.7 3.2 2.9 3.2v.3h-9.5v-.3c2.1 0 2.8-.6 2.8-3V3.6c0-2.5-.7-3.2-2.9-3.2V.1h1.7c1 0 2.3 0 3.6-.1 1.4 0 2.8-.1 4-.1 6.7 0 10.6 2.4 10.6 7.3 0 4.5-2.7 6.9-8.9 7.4 13.1.2 6.4 13.1 12.9 13.7v.5z"/><path d="M403.5 18.5L397.9 3l-5.8 15.5h11.4zm9.5 9.2v.3h-10v-.3c2.1 0 3-.3 3-1.5 0-.5-.2-1.1-.5-1.9l-1.9-5.3H392l-1.4 3.7c-.5 1.3-.7 2.3-.7 3.1 0 1.4.9 2 3 2v.2h-6.7v-.3c1.6 0 2.7-1.6 3.9-4.9L398.5 0h2.1l8.8 24.1c1.1 2.9 1.8 3.6 3.6 3.6z"/></svg>
