<svg xmlns="http://www.w3.org/2000/svg" xmlns:xlink="http://www.w3.org/1999/xlink" xmlns:lucid="lucid" width="1760" height="1232"><g transform="translate(0 0)" lucid:page-tab-id="HWEp-vi-RSFO"><path d="M0 0h1760v1232H0z" fill="#fff"/><path d="M-520 48a8 8 0 0 1 8-8h1582.2a8 8 0 0 1 8 8v25.16a8 8 0 0 1-8 8H-512a8 8 0 0 1-8-8z" stroke="#000" stroke-opacity="0" stroke-width="2" fill="#fff" fill-opacity="0"/><use xlink:href="#a" transform="matrix(1,0,0,1,-516,44) translate(613.3606172839505 23.657777777777778)"/><use xlink:href="#b" transform="matrix(1,0,0,1,-516,44) translate(671.5593827160493 23.657777777777778)"/><use xlink:href="#c" transform="matrix(1,0,0,1,-516,44) translate(809.5902469135801 23.657777777777778)"/><use xlink:href="#d" transform="matrix(1,0,0,1,-516,44) translate(882.4297530864196 23.657777777777778)"/><path d="M81 80h1598M81.03 80H80M1678.97 80h1.03" stroke="#a9afb8" stroke-width="2" fill="none"/><path d="M720 59.16a8 8 0 0 1 8-8h1584a8 8 0 0 1 8 8V62a8 8 0 0 1-8 8H728a8 8 0 0 1-8-8z" stroke="#000" stroke-opacity="0" stroke-width="2" fill="#fff" fill-opacity="0"/><use xlink:href="#e" transform="matrix(1,0,0,1,724,55.15522395666598) translate(660.3261522633744 14.917037037037037)"/><use xlink:href="#f" transform="matrix(1,0,0,1,724,55.15522395666598) translate(707.6596913580246 14.917037037037037)"/><use xlink:href="#g" transform="matrix(1,0,0,1,724,55.15522395666598) translate(791.7043415637859 14.917037037037037)"/><use xlink:href="#h" transform="matrix(1,0,0,1,724,55.15522395666598) translate(804.1538271604937 14.917037037037037)"/><use xlink:href="#i" transform="matrix(1,0,0,1,724,55.15522395666598) translate(878.8082510288065 14.917037037037037)"/><use xlink:href="#j" transform="matrix(1,0,0,1,724,55.15522395666598) translate(904.3020781893003 14.917037037037037)"/><path d="M1055.45 200h369.1v100h-369.1z" stroke="#333" stroke-width="2" fill="#fff"/><path d="M1055.45 237.6h369.1" stroke="#333" stroke-width="2" fill="none"/><use xlink:href="#k" transform="matrix(1,0,0,1,1063.4485782965776,208) translate(136.75 14.6)"/><use xlink:href="#l" transform="matrix(1,0,0,1,1067.4485782965776,245.6) translate(0 16.299999999999997)"/><use xlink:href="#m" transform="matrix(1,0,0,1,1067.4485782965776,245.6) translate(15.5 16.299999999999997)"/><use xlink:href="#n" transform="matrix(1,0,0,1,1067.4485782965776,245.6) translate(0 37.9)"/><use xlink:href="#o" transform="matrix(1,0,0,1,1067.4485782965776,245.6) translate(10.95 37.9)"/><use xlink:href="#p" transform="matrix(1,0,0,1,1067.4485782965776,245.6) translate(193.75 37.9)"/><path d="M880 440h720v140H880z" stroke="#333" stroke-width="2" fill="#fff"/><path d="M880 477.6h720" stroke="#333" stroke-width="2" fill="none"/><use xlink:href="#q" transform="matrix(1,0,0,1,888,448) translate(279.675 14.6)"/><use xlink:href="#l" transform="matrix(1,0,0,1,892,485.6) translate(0 14.69999999999999)"/><use xlink:href="#r" transform="matrix(1,0,0,1,892,485.6) translate(15.5 14.69999999999999)"/><use xlink:href="#s" transform="matrix(1,0,0,1,892,485.6) translate(292.25 14.69999999999999)"/><use xlink:href="#t" transform="matrix(1,0,0,1,892,485.6) translate(438.1 14.69999999999999)"/><use xlink:href="#u" transform="matrix(1,0,0,1,892,485.6) translate(630.8 14.69999999999999)"/><use xlink:href="#v" transform="matrix(1,0,0,1,892,485.6) translate(646.3 14.69999999999999)"/><use xlink:href="#n" transform="matrix(1,0,0,1,892,485.6) translate(0 36.29999999999999)"/><use xlink:href="#w" transform="matrix(1,0,0,1,892,485.6) translate(10.95 36.29999999999999)"/><use xlink:href="#x" transform="matrix(1,0,0,1,892,485.6) translate(215.74999999999997 36.29999999999999)"/><use xlink:href="#n" transform="matrix(1,0,0,1,892,485.6) translate(0 57.89999999999999)"/><use xlink:href="#y" transform="matrix(1,0,0,1,892,485.6) translate(10.95 57.89999999999999)"/><use xlink:href="#z" transform="matrix(1,0,0,1,892,485.6) translate(191.84999999999997 57.89999999999999)"/><use xlink:href="#A" transform="matrix(1,0,0,1,892,485.6) translate(302.75 57.89999999999999)"/><use xlink:href="#n" transform="matrix(1,0,0,1,892,485.6) translate(0 79.5)"/><use xlink:href="#B" transform="matrix(1,0,0,1,892,485.6) translate(10.95 79.5)"/><path d="M600 210h280v80H600z" stroke="#333" stroke-width="2" fill="#fff"/><path d="M600 247.6h280" stroke="#333" stroke-width="2" fill="none"/><use xlink:href="#C" transform="matrix(1,0,0,1,608,218) translate(84.625 14.6)"/><use xlink:href="#l" transform="matrix(1,0,0,1,612,255.6) translate(0 17.1)"/><use xlink:href="#D" transform="matrix(1,0,0,1,612,255.6) translate(15.5 17.1)"/><use xlink:href="#E" transform="matrix(1,0,0,1,612,255.6) translate(162.35000000000002 17.1)"/><path d="M948.72 250.5H881.5v-1h67.22zm104.82 0h-66.82v-1h66.82z" stroke="#333" stroke-width=".05" fill="#333"/><path d="M881.5 250.5h-.5v-1h.5z" fill="#333"/><path d="M881.54 250.53h-.56v-1.06h.56zm-.5-1v.94h.45v-.94zM1054.45 250l-17.94 10.6-.5-.85 16.48-9.75-16.48-9.75.5-.86z" stroke="#333" stroke-width=".05" fill="#333"/><use xlink:href="#F" transform="matrix(1,0,0,1,948.7242891482888,239.2) translate(0.004999999999999005 14.4)"/><path d="M1240.5 438.1h-1v-57.3h1zm0-78.9h-1v-57.7h1z" stroke="#333" stroke-width=".05" fill="#333"/><path d="M1240.5 301.5h-1v-.5h1z" fill="#333"/><path d="M1240.53 301.54h-1.06v-.56h1.06zm-1-.52v.47h.94V301zM1250.6 421.06L1240 439l-10.6-17.94.85-.5 9.75 16.48 9.75-16.5z" stroke="#333" stroke-width=".05" fill="#333"/><use xlink:href="#F" transform="matrix(1,0,0,1,1221,359.2) translate(0.004999999999999005 14.4)"/><path d="M280 160h176l24 24v96H280z" stroke="#333" stroke-width="2" fill="#fff3d9"/><path d="M456 160.95V184h23.05" stroke="#333" stroke-width="2" fill="#fff3d9"/><use xlink:href="#G" transform="matrix(1,0,0,1,285,165) translate(22.099999999999994 26.19999999999999)"/><use xlink:href="#H" transform="matrix(1,0,0,1,285,165) translate(60.05 26.19999999999999)"/><use xlink:href="#I" transform="matrix(1,0,0,1,285,165) translate(123.9 26.19999999999999)"/><use xlink:href="#J" transform="matrix(1,0,0,1,285,165) translate(43.55 47.79999999999999)"/><use xlink:href="#K" transform="matrix(1,0,0,1,285,165) translate(108.45 47.79999999999999)"/><use xlink:href="#L" transform="matrix(1,0,0,1,285,165) translate(13.099999999999994 69.39999999999999)"/><use xlink:href="#M" transform="matrix(1,0,0,1,285,165) translate(136.9 69.39999999999999)"/><use xlink:href="#N" transform="matrix(1,0,0,1,285,165) translate(156.9 69.39999999999999)"/><use xlink:href="#O" transform="matrix(1,0,0,1,285,165) translate(34.724999999999994 91)"/><use xlink:href="#P" transform="matrix(1,0,0,1,285,165) translate(73.375 91)"/><path d="M481.48 241.46l1.47.37m1.95.5l2.92.74m1.95.5l2.93.74m1.95.5l2.93.75m1.95.5l2.92.74m1.95.5l2.93.73m1.95.5l2.93.74m1.96.5l2.92.74m1.95.5l2.93.75m1.95.5l2.93.74m1.95.5l2.93.73m1.96.5l2.93.74m1.94.5l2.92.74m1.95.5l2.94.76m1.95.5l2.92.74m1.95.5l2.92.74m1.94.5l2.93.74m1.95.5l2.92.74m1.95.5l2.92.74m1.95.5l2.93.74m1.95.5l2.92.74m1.95.5l2.93.74m1.95.5l2.93.74m1.95.5l2.92.74m1.95.5l1.47.37" stroke="#333" fill="none"/><path d="M481.62 240.98l-.25.96-.37-.1v-1.02zM599 270.84v1.03l-.62-.16.25-.96z" stroke="#333" stroke-width=".05" fill="#333"/><path d="M245 472.5h340v75H245z" stroke="#333" stroke-width="2" fill="#fff"/><path d="M245 510.1h340" stroke="#333" stroke-width="2" fill="none"/><g><use xlink:href="#Q" transform="matrix(1,0,0,1,253,480.5) translate(109.15 14.6)"/></g><g><use xlink:href="#l" transform="matrix(1,0,0,1,257,518.1) translate(0 14.6)"/><use xlink:href="#R" transform="matrix(1,0,0,1,257,518.1) translate(15.5 14.6)"/></g><path d="M160 720h510v97H160z" stroke="#333" stroke-width="2" fill="#fff"/><path d="M160 757.6h510" stroke="#333" stroke-width="2" fill="none"/><g><use xlink:href="#S" transform="matrix(1,0,0,1,168,728) translate(162.15 14.6)"/></g><g><use xlink:href="#T" transform="matrix(1,0,0,1,172,765.6) translate(0 14.799999999999999)"/><use xlink:href="#U" transform="matrix(1,0,0,1,172,765.6) translate(233.8 14.799999999999999)"/><use xlink:href="#V" transform="matrix(1,0,0,1,172,765.6) translate(0 36.4)"/></g><path d="M701.5 510.5H586.9v-1h114.6zm147.13 0H730.5v-1h118.13z" stroke="#333" stroke-width=".05" fill="#333"/><path d="M878.3 510l-14.86 14.85L848.3 510l15.14-14.85z" fill="#333"/><path d="M879 510l-15.55 15.55L847.58 510l15.87-15.55zm-30 0l14.44 14.15L877.6 510l-14.16-14.15zM604.45 500.25l-16.5 9.75 16.5 9.75-.5.86L586 510l17.94-10.6z" stroke="#333" stroke-width=".05" fill="#333"/><g><use xlink:href="#W" transform="matrix(1,0,0,1,701.5,499.2) translate(0.005000000000000782 14.4)"/></g><path d="M415.5 718.1h-1v-73.55h1zm0-95.15h-1v-44.08h1z" stroke="#333" stroke-width=".05" fill="#333"/><path d="M429.85 564.06L415 579.2l-14.85-15.14L415 549.2z" fill="#333"/><path d="M430.55 564.05L415 579.92l-15.55-15.87L415 548.5zm-29.7 0L415 578.5l14.15-14.44L415 549.9zM425.6 701.06L415 719l-10.6-17.94.85-.5 9.75 16.47 9.75-16.48z" stroke="#333" stroke-width=".05" fill="#333"/><g><use xlink:href="#W" transform="matrix(1,0,0,1,400.5,622.95) translate(0.005000000000000782 14.4)"/></g><path d="M940 708.5h560v120H940z" stroke="#333" stroke-width="2" fill="#fff"/><path d="M940 746.1h560" stroke="#333" stroke-width="2" fill="none"/><g><use xlink:href="#X" transform="matrix(1,0,0,1,948,716.5) translate(175.7 14.6)"/></g><g><use xlink:href="#l" transform="matrix(1,0,0,1,952,754.1) translate(0 15.500000000000002)"/><use xlink:href="#Y" transform="matrix(1,0,0,1,952,754.1) translate(15.5 15.500000000000002)"/><use xlink:href="#Z" transform="matrix(1,0,0,1,952,754.1) translate(116.35 15.500000000000002)"/><use xlink:href="#aa" transform="matrix(1,0,0,1,952,754.1) translate(234.25 15.500000000000002)"/><use xlink:href="#ab" transform="matrix(1,0,0,1,952,754.1) translate(439 15.500000000000002)"/><use xlink:href="#ac" transform="matrix(1,0,0,1,952,754.1) translate(465 15.500000000000002)"/><use xlink:href="#l" transform="matrix(1,0,0,1,952,754.1) translate(0 37.1)"/><use xlink:href="#ad" transform="matrix(1,0,0,1,952,754.1) translate(15.5 37.1)"/><use xlink:href="#Z" transform="matrix(1,0,0,1,952,754.1) translate(117.5 37.1)"/><use xlink:href="#aa" transform="matrix(1,0,0,1,952,754.1) translate(235.4 37.1)"/><use xlink:href="#ab" transform="matrix(1,0,0,1,952,754.1) translate(440.15 37.1)"/><use xlink:href="#ae" transform="matrix(1,0,0,1,952,754.1) translate(466.15 37.1)"/><use xlink:href="#l" transform="matrix(1,0,0,1,952,754.1) translate(0 58.7)"/><use xlink:href="#af" transform="matrix(1,0,0,1,952,754.1) translate(15.5 58.7)"/><use xlink:href="#Z" transform="matrix(1,0,0,1,952,754.1) translate(132.5 58.7)"/><use xlink:href="#aa" transform="matrix(1,0,0,1,952,754.1) translate(250.4 58.7)"/><use xlink:href="#ab" transform="matrix(1,0,0,1,952,754.1) translate(455.15 58.7)"/><use xlink:href="#ag" transform="matrix(1,0,0,1,952,754.1) translate(481.15 58.7)"/></g><path d="M759.67 769H671.5v-1h88.17zm178.42 0H797.66v-1H938.1z" stroke="#333" stroke-width=".05" fill="#333"/><path d="M939 768.5l-17.94 10.6-.5-.85 16.48-9.75-16.5-9.75.52-.86z" stroke="#333" stroke-width=".05" fill="#333"/><path d="M671.5 769h-.5v-1h.5z" fill="#333"/><path d="M671.54 769.02h-.56V768h.56zm-.5-1v.96h.45V768z" stroke="#333" stroke-width=".05" fill="#333"/><g><use xlink:href="#F" transform="matrix(1,0,0,1,759.6666666666666,757.7) translate(0.004999999999999005 14.4)"/></g><path d="M1014 944v-24h436v216h-24V944h-412z" stroke="#333" stroke-width="2" fill="#fff"/><path d="M990 944h436v216H990z" stroke="#333" stroke-width="2" fill="#fff"/><g><use xlink:href="#ah" transform="matrix(1,0,0,1,990,944) translate(152.055 29.4)"/><use xlink:href="#ai" transform="matrix(1,0,0,1,990,944) translate(103.10500000000002 51)"/><use xlink:href="#aj" transform="matrix(1,0,0,1,990,944) translate(143.105 72.60000000000001)"/><use xlink:href="#ak" transform="matrix(1,0,0,1,990,944) translate(143.055 94.20000000000002)"/><use xlink:href="#al" transform="matrix(1,0,0,1,990,944) translate(135.605 115.80000000000001)"/><use xlink:href="#aj" transform="matrix(1,0,0,1,990,944) translate(143.105 137.4)"/><use xlink:href="#am" transform="matrix(1,0,0,1,990,944) translate(148.57999999999998 159)"/><use xlink:href="#an" transform="matrix(1,0,0,1,990,944) translate(131.755 180.6)"/><use xlink:href="#ao" transform="matrix(1,0,0,1,990,944) translate(151.07999999999998 202.2)"/></g><path d="M1220.5 918.5h-1V913h1zm0-11h-1v-11h1zm0-37.63h-1v-6.37h1zm0-11.87h-1v-5.5h1z" stroke="#333" stroke-width=".05" fill="#333"/><path d="M1232.73 852h-25.46l12.73-21.52z" fill="#fff"/><path d="M1233.6 852.5h-27.2l13.6-23zm-25.45-1h23.7L1220 831.46z" stroke="#333" stroke-width=".05" fill="#333"/><path d="M1220.5 919h-1v-.5h1z" fill="#333"/><path d="M1220.53 919.02h-1.06v-.56h1.06zm-1-.5v.46h.94v-.47z" stroke="#333" stroke-width=".05" fill="#333"/><g><use xlink:href="#ap" transform="matrix(1,0,0,1,1191.075,869.8666666666667) translate(0.004999999999999005 14.4)"/></g><defs><path fill="#a9afb8" d="M169-182c-1-43-94-46-97-3 18 66 151 10 154 114 3 95-165 93-204 36-6-8-10-19-12-30l50-8c3 46 112 56 116 5-17-69-150-10-154-114-4-87 153-88 188-35 5 8 8 18 10 28" id="aq"/><path fill="#a9afb8" d="M24-248c93 1 206-16 204 79-1 75-69 88-152 82V0H24v-248zm52 121c47 0 100 7 100-41 0-47-54-39-100-39v80" id="ar"/><path fill="#a9afb8" d="M199 0l-22-63H83L61 0H9l90-248h61L250 0h-51zm-33-102l-36-108c-10 38-24 72-36 108h72" id="as"/><g id="a"><use transform="matrix(0.0728395061728395,0,0,0.0728395061728395,0,0)" xlink:href="#aq"/><use transform="matrix(0.0728395061728395,0,0,0.0728395061728395,17.48148148148148,0)" xlink:href="#ar"/><use transform="matrix(0.0728395061728395,0,0,0.0728395061728395,32.99629629629629,0)" xlink:href="#as"/></g><path fill="#a9afb8" d="M135-194c87-1 58 113 63 194h-50c-7-57 23-157-34-157-59 0-34 97-39 157H25l-1-190h47c2 12-1 28 3 38 12-26 28-41 61-42" id="at"/><path fill="#a9afb8" d="M133-34C117-15 103 5 69 4 32 3 11-16 11-54c-1-60 55-63 116-61 1-26-3-47-28-47-18 1-26 9-28 27l-52-2c7-38 36-58 82-57s74 22 75 68l1 82c-1 14 12 18 25 15v27c-30 8-71 5-69-32zm-48 3c29 0 43-24 42-57-32 0-66-3-65 30 0 17 8 27 23 27" id="au"/><path fill="#a9afb8" d="M128 0H69L1-190h53L99-40l48-150h52" id="av"/><path fill="#a9afb8" d="M25-224v-37h50v37H25zM25 0v-190h50V0H25" id="aw"/><path fill="#a9afb8" d="M195-6C206 82 75 100 31 46c-4-6-6-13-8-21l49-6c3 16 16 24 34 25 40 0 42-37 40-79-11 22-30 35-61 35-53 0-70-43-70-97 0-56 18-96 73-97 30 0 46 14 59 34l2-30h47zm-90-29c32 0 41-27 41-63 0-35-9-62-40-62-32 0-39 29-40 63 0 36 9 62 39 62" id="ax"/><path fill="#a9afb8" d="M115-3C79 11 28 4 28-45v-112H4v-33h27l15-45h31v45h36v33H77v99c-1 23 16 31 38 25v30" id="ay"/><path fill="#a9afb8" d="M110-194c64 0 96 36 96 99 0 64-35 99-97 99-61 0-95-36-95-99 0-62 34-99 96-99zm-1 164c35 0 45-28 45-65 0-40-10-65-43-65-34 0-45 26-45 65 0 36 10 65 43 65" id="az"/><g id="b"><use transform="matrix(0.0728395061728395,0,0,0.0728395061728395,0,0)" xlink:href="#at"/><use transform="matrix(0.0728395061728395,0,0,0.0728395061728395,15.95185185185185,0)" xlink:href="#au"/><use transform="matrix(0.0728395061728395,0,0,0.0728395061728395,30.51975308641975,0)" xlink:href="#av"/><use transform="matrix(0.0728395061728395,0,0,0.0728395061728395,45.08765432098765,0)" xlink:href="#aw"/><use transform="matrix(0.0728395061728395,0,0,0.0728395061728395,52.3716049382716,0)" xlink:href="#ax"/><use transform="matrix(0.0728395061728395,0,0,0.0728395061728395,68.32345679012346,0)" xlink:href="#au"/><use transform="matrix(0.0728395061728395,0,0,0.0728395061728395,82.89135802469136,0)" xlink:href="#ay"/><use transform="matrix(0.0728395061728395,0,0,0.0728395061728395,91.55925925925926,0)" xlink:href="#aw"/><use transform="matrix(0.0728395061728395,0,0,0.0728395061728395,98.84320987654321,0)" xlink:href="#az"/><use transform="matrix(0.0728395061728395,0,0,0.0728395061728395,114.79506172839508,0)" xlink:href="#at"/></g><path fill="#a9afb8" d="M190-63c-7 42-38 67-86 67-59 0-84-38-90-98-12-110 154-137 174-36l-49 2c-2-19-15-32-35-32-30 0-35 28-38 64-6 74 65 87 74 30" id="aA"/><path fill="#a9afb8" d="M25 0v-261h50V0H25" id="aB"/><path fill="#a9afb8" d="M137-138c1-29-70-34-71-4 15 46 118 7 119 86 1 83-164 76-172 9l43-7c4 19 20 25 44 25 33 8 57-30 24-41C81-84 22-81 20-136c-2-80 154-74 161-7" id="aC"/><g id="c"><use transform="matrix(0.0728395061728395,0,0,0.0728395061728395,0,0)" xlink:href="#aA"/><use transform="matrix(0.0728395061728395,0,0,0.0728395061728395,14.5679012345679,0)" xlink:href="#aB"/><use transform="matrix(0.0728395061728395,0,0,0.0728395061728395,21.85185185185185,0)" xlink:href="#au"/><use transform="matrix(0.0728395061728395,0,0,0.0728395061728395,36.41975308641975,0)" xlink:href="#aC"/><use transform="matrix(0.0728395061728395,0,0,0.0728395061728395,50.98765432098765,0)" xlink:href="#aC"/></g><path fill="#a9afb8" d="M88-194c31-1 46 15 58 34l-1-101h50l1 261h-48c-2-10 0-23-3-31C134-8 116 4 84 4 32 4 16-41 15-95c0-56 19-97 73-99zm17 164c33 0 40-30 41-66 1-37-9-64-41-64s-38 30-39 65c0 43 13 65 39 65" id="aD"/><path fill="#a9afb8" d="M135-150c-39-12-60 13-60 57V0H25l-1-190h47c2 13-1 29 3 40 6-28 27-53 61-41v41" id="aE"/><path fill="#a9afb8" d="M220-157c-53 9-28 100-34 157h-49v-107c1-27-5-49-29-50C55-147 81-57 75 0H25l-1-190h47c2 12-1 28 3 38 10-53 101-56 108 0 13-22 24-43 59-42 82 1 51 116 57 194h-49v-107c-1-25-5-48-29-50" id="aF"/><g id="d"><use transform="matrix(0.0728395061728395,0,0,0.0728395061728395,0,0)" xlink:href="#aD"/><use transform="matrix(0.0728395061728395,0,0,0.0728395061728395,15.95185185185185,0)" xlink:href="#aw"/><use transform="matrix(0.0728395061728395,0,0,0.0728395061728395,23.235802469135802,0)" xlink:href="#au"/><use transform="matrix(0.0728395061728395,0,0,0.0728395061728395,37.803703703703704,0)" xlink:href="#ax"/><use transform="matrix(0.0728395061728395,0,0,0.0728395061728395,53.75555555555555,0)" xlink:href="#aE"/><use transform="matrix(0.0728395061728395,0,0,0.0728395061728395,63.953086419753085,0)" xlink:href="#au"/><use transform="matrix(0.0728395061728395,0,0,0.0728395061728395,78.52098765432099,0)" xlink:href="#aF"/></g><path fill="#a9afb8" d="M30-248c118-7 216 8 213 122C240-48 200 0 122 0H30v-248zM63-27c89 8 146-16 146-99s-60-101-146-95v194" id="aG"/><path fill="#a9afb8" d="M210-169c-67 3-38 105-44 169h-31v-121c0-29-5-50-35-48C34-165 62-65 56 0H25l-1-190h30c1 10-1 24 2 32 10-44 99-50 107 0 11-21 27-35 58-36 85-2 47 119 55 194h-31v-121c0-29-5-49-35-48" id="aH"/><path fill="#a9afb8" d="M24-231v-30h32v30H24zM24 0v-190h32V0H24" id="aI"/><path fill="#a9afb8" d="M59-47c-2 24 18 29 38 22v24C64 9 27 4 27-40v-127H5v-23h24l9-43h21v43h35v23H59v120" id="aJ"/><path fill="#a9afb8" d="M114-163C36-179 61-72 57 0H25l-1-190h30c1 12-1 29 2 39 6-27 23-49 58-41v29" id="aK"/><g id="e"><use transform="matrix(0.04248971193415638,0,0,0.04248971193415638,0,0)" xlink:href="#aG"/><use transform="matrix(0.04248971193415638,0,0,0.04248971193415638,11.004835390946502,0)" xlink:href="#aH"/><use transform="matrix(0.04248971193415638,0,0,0.04248971193415638,23.70925925925926,0)" xlink:href="#aI"/><use transform="matrix(0.04248971193415638,0,0,0.04248971193415638,27.065946502057614,0)" xlink:href="#aJ"/><use transform="matrix(0.04248971193415638,0,0,0.04248971193415638,31.314917695473248,0)" xlink:href="#aK"/><use transform="matrix(0.04248971193415638,0,0,0.04248971193415638,36.37119341563786,0)" xlink:href="#aI"/><use transform="matrix(0.04248971193415638,0,0,0.04248971193415638,39.72788065843621,0)" xlink:href="#aI"/></g><path fill="#a9afb8" d="M233-177c-1 41-23 64-60 70L243 0h-38l-65-103H63V0H30v-248c88 3 205-21 203 71zM63-129c60-2 137 13 137-47 0-61-80-42-137-45v92" id="aL"/><path fill="#a9afb8" d="M141-36C126-15 110 5 73 4 37 3 15-17 15-53c-1-64 63-63 125-63 3-35-9-54-41-54-24 1-41 7-42 31l-33-3c5-37 33-52 76-52 45 0 72 20 72 64v82c-1 20 7 32 28 27v20c-31 9-61-2-59-35zM48-53c0 20 12 33 32 33 41-3 63-29 60-74-43 2-92-5-92 41" id="aM"/><path fill="#a9afb8" d="M9 0v-24l116-142H16v-24h144v24L44-24h123V0H9" id="aN"/><path fill="#a9afb8" d="M117-194c89-4 53 116 60 194h-32v-121c0-31-8-49-39-48C34-167 62-67 57 0H25l-1-190h30c1 10-1 24 2 32 11-22 29-35 61-36" id="aO"/><path fill="#a9afb8" d="M135-143c-3-34-86-38-87 0 15 53 115 12 119 90S17 21 10-45l28-5c4 36 97 45 98 0-10-56-113-15-118-90-4-57 82-63 122-42 12 7 21 19 24 35" id="aP"/><path fill="#a9afb8" d="M100-194c63 0 86 42 84 106H49c0 40 14 67 53 68 26 1 43-12 49-29l28 8c-11 28-37 45-77 45C44 4 14-33 15-96c1-61 26-98 85-98zm52 81c6-60-76-77-97-28-3 7-6 17-6 28h103" id="aQ"/><path fill="#a9afb8" d="M108 0H70L1-190h34L89-25l56-165h34" id="aR"/><g id="f"><use transform="matrix(0.04248971193415638,0,0,0.04248971193415638,0,0)" xlink:href="#aL"/><use transform="matrix(0.04248971193415638,0,0,0.04248971193415638,11.004835390946502,0)" xlink:href="#aI"/><use transform="matrix(0.04248971193415638,0,0,0.04248971193415638,14.361522633744855,0)" xlink:href="#aM"/><use transform="matrix(0.04248971193415638,0,0,0.04248971193415638,22.85946502057613,0)" xlink:href="#aN"/><use transform="matrix(0.04248971193415638,0,0,0.04248971193415638,30.50761316872428,0)" xlink:href="#aM"/><use transform="matrix(0.04248971193415638,0,0,0.04248971193415638,39.00555555555555,0)" xlink:href="#aO"/><use transform="matrix(0.04248971193415638,0,0,0.04248971193415638,47.50349794238683,0)" xlink:href="#aJ"/><use transform="matrix(0.04248971193415638,0,0,0.04248971193415638,51.752469135802464,0)" xlink:href="#aP"/><use transform="matrix(0.04248971193415638,0,0,0.04248971193415638,59.4006172839506,0)" xlink:href="#aQ"/><use transform="matrix(0.04248971193415638,0,0,0.04248971193415638,67.89855967078188,0)" xlink:href="#aR"/></g><path fill="#a9afb8" d="M32 76v-337h29V76H32" id="aS"/><use transform="matrix(0.04248971193415638,0,0,0.04248971193415638,0,0)" xlink:href="#aS" id="g"/><path fill="#a9afb8" d="M190 0L58-211 59 0H30v-248h39L202-35l-2-213h31V0h-41" id="aT"/><path fill="#a9afb8" d="M100-194c62-1 85 37 85 99 1 63-27 99-86 99S16-35 15-95c0-66 28-99 85-99zM99-20c44 1 53-31 53-75 0-43-8-75-51-75s-53 32-53 75 10 74 51 75" id="aU"/><path fill="#a9afb8" d="M115-194c53 0 69 39 70 98 0 66-23 100-70 100C84 3 66-7 56-30L54 0H23l1-261h32v101c10-23 28-34 59-34zm-8 174c40 0 45-34 45-75 0-40-5-75-45-74-42 0-51 32-51 76 0 43 10 73 51 73" id="aV"/><g id="h"><use transform="matrix(0.04248971193415638,0,0,0.04248971193415638,0,0)" xlink:href="#aT"/><use transform="matrix(0.04248971193415638,0,0,0.04248971193415638,11.004835390946502,0)" xlink:href="#aU"/><use transform="matrix(0.04248971193415638,0,0,0.04248971193415638,19.502777777777776,0)" xlink:href="#aR"/><use transform="matrix(0.04248971193415638,0,0,0.04248971193415638,27.150925925925925,0)" xlink:href="#aQ"/><use transform="matrix(0.04248971193415638,0,0,0.04248971193415638,35.6488683127572,0)" xlink:href="#aH"/><use transform="matrix(0.04248971193415638,0,0,0.04248971193415638,48.35329218106995,0)" xlink:href="#aV"/><use transform="matrix(0.04248971193415638,0,0,0.04248971193415638,56.851234567901244,0)" xlink:href="#aQ"/><use transform="matrix(0.04248971193415638,0,0,0.04248971193415638,65.34917695473251,0)" xlink:href="#aK"/></g><path fill="#a9afb8" d="M27 0v-27h64v-190l-56 39v-29l58-41h29v221h61V0H27" id="aW"/><path fill="#a9afb8" d="M110-160c48 1 74 30 74 79 0 53-28 85-80 85-65 0-83-55-86-122-5-90 50-162 133-122 14 7 22 21 27 39l-31 6c-5-40-67-38-82-6-9 19-15 44-15 74 11-20 30-34 60-33zm-7 138c34 0 49-23 49-58s-16-56-50-56c-29 0-50 16-49 49 1 36 15 65 50 65" id="aX"/><path fill="#a9afb8" d="M68-38c1 34 0 65-14 84H32c9-13 17-26 17-46H33v-38h35" id="aY"/><g id="i"><use transform="matrix(0.04248971193415638,0,0,0.04248971193415638,0,0)" xlink:href="#aW"/><use transform="matrix(0.04248971193415638,0,0,0.04248971193415638,8.497942386831275,0)" xlink:href="#aX"/><use transform="matrix(0.04248971193415638,0,0,0.04248971193415638,16.99588477366255,0)" xlink:href="#aY"/></g><path fill="#a9afb8" d="M101-251c82-7 93 87 43 132L82-64C71-53 59-42 53-27h129V0H18c2-99 128-94 128-182 0-28-16-43-45-43s-46 15-49 41l-32-3c6-41 34-60 81-64" id="aZ"/><path fill="#a9afb8" d="M101-251c68 0 85 55 85 127S166 4 100 4C33 4 14-52 14-124c0-73 17-127 87-127zm-1 229c47 0 54-49 54-102s-4-102-53-102c-51 0-55 48-55 102 0 53 5 102 54 102" id="ba"/><g id="j"><use transform="matrix(0.04248971193415638,0,0,0.04248971193415638,0,0)" xlink:href="#aZ"/><use transform="matrix(0.04248971193415638,0,0,0.04248971193415638,8.497942386831275,0)" xlink:href="#ba"/><use transform="matrix(0.04248971193415638,0,0,0.04248971193415638,16.99588477366255,0)" xlink:href="#aZ"/><use transform="matrix(0.04248971193415638,0,0,0.04248971193415638,25.493827160493822,0)" xlink:href="#aZ"/></g><path fill="#333" d="M186 0v-106H76V0H24v-248h52v99h110v-99h50V0h-50" id="bb"/><path fill="#333" d="M25-224v-37h50v37H25zM25 0v-190h50V0H25" id="bc"/><path fill="#333" d="M137-138c1-29-70-34-71-4 15 46 118 7 119 86 1 83-164 76-172 9l43-7c4 19 20 25 44 25 33 8 57-30 24-41C81-84 22-81 20-136c-2-80 154-74 161-7" id="bd"/><path fill="#333" d="M115-3C79 11 28 4 28-45v-112H4v-33h27l15-45h31v45h36v33H77v99c-1 23 16 31 38 25v30" id="be"/><path fill="#333" d="M110-194c64 0 96 36 96 99 0 64-35 99-97 99-61 0-95-36-95-99 0-62 34-99 96-99zm-1 164c35 0 45-28 45-65 0-40-10-65-43-65-34 0-45 26-45 65 0 36 10 65 43 65" id="bf"/><path fill="#333" d="M135-150c-39-12-60 13-60 57V0H25l-1-190h47c2 13-1 29 3 40 6-28 27-53 61-41v41" id="bg"/><path fill="#333" d="M123 10C108 53 80 86 19 72V37c35 8 53-11 59-39L3-190h52l48 148c12-52 28-100 44-148h51" id="bh"/><path fill="#333" d="M24 0v-54h51V0H24" id="bi"/><path fill="#333" d="M25-224v-37h50v37H25zM75 22c2 45-34 59-81 51V38c22 5 31-5 31-27v-201h50V22" id="bj"/><g id="k"><use transform="matrix(0.05,0,0,0.05,0,0)" xlink:href="#bb"/><use transform="matrix(0.05,0,0,0.05,12.950000000000001,0)" xlink:href="#bc"/><use transform="matrix(0.05,0,0,0.05,17.950000000000003,0)" xlink:href="#bd"/><use transform="matrix(0.05,0,0,0.05,27.950000000000003,0)" xlink:href="#be"/><use transform="matrix(0.05,0,0,0.05,33.900000000000006,0)" xlink:href="#bf"/><use transform="matrix(0.05,0,0,0.05,44.85000000000001,0)" xlink:href="#bg"/><use transform="matrix(0.05,0,0,0.05,51.85,0)" xlink:href="#bh"/><use transform="matrix(0.05,0,0,0.05,60.5,0)" xlink:href="#bi"/><use transform="matrix(0.05,0,0,0.05,65.5,0)" xlink:href="#bj"/><use transform="matrix(0.05,0,0,0.05,70.5,0)" xlink:href="#bd"/></g><path fill="#333" d="M118-107v75H92v-75H18v-26h74v-75h26v75h74v26h-74" id="bk"/><use transform="matrix(0.05,0,0,0.05,0,0)" xlink:href="#bk" id="l"/><path fill="#333" d="M85-194c31 0 48 13 60 33l-1-100h32l1 261h-30c-2-10 0-23-3-31C134-8 116 4 85 4 32 4 16-35 15-94c0-66 23-100 70-100zm9 24c-40 0-46 34-46 75 0 40 6 74 45 74 42 0 51-32 51-76 0-42-9-74-50-73" id="bl"/><path fill="#333" d="M100-194c62-1 85 37 85 99 1 63-27 99-86 99S16-35 15-95c0-66 28-99 85-99zM99-20c44 1 53-31 53-75 0-43-8-75-51-75s-53 32-53 75 10 74 51 75" id="bm"/><path fill="#333" d="M185-189c-5-48-123-54-124 2 14 75 158 14 163 119 3 78-121 87-175 55-17-10-28-26-33-46l33-7c5 56 141 63 141-1 0-78-155-14-162-118-5-82 145-84 179-34 5 7 8 16 11 25" id="bn"/><path fill="#333" d="M30-248c87 1 191-15 191 75 0 78-77 80-158 76V0H30v-248zm33 125c57 0 124 11 124-50 0-59-68-47-124-48v98" id="bo"/><path fill="#333" d="M205 0l-28-72H64L36 0H1l101-248h38L239 0h-34zm-38-99l-47-123c-12 45-31 82-46 123h93" id="bp"/><path fill="#333" d="M190 0L58-211 59 0H30v-248h39L202-35l-2-213h31V0h-41" id="bq"/><path fill="#333" d="M141-36C126-15 110 5 73 4 37 3 15-17 15-53c-1-64 63-63 125-63 3-35-9-54-41-54-24 1-41 7-42 31l-33-3c5-37 33-52 76-52 45 0 72 20 72 64v82c-1 20 7 32 28 27v20c-31 9-61-2-59-35zM48-53c0 20 12 33 32 33 41-3 63-29 60-74-43 2-92-5-92 41" id="br"/><path fill="#333" d="M108 0H70L1-190h34L89-25l56-165h34" id="bs"/><path fill="#333" d="M24-231v-30h32v30H24zM24 0v-190h32V0H24" id="bt"/><path fill="#333" d="M177-190C167-65 218 103 67 71c-23-6-38-20-44-43l32-5c15 47 100 32 89-28v-30C133-14 115 1 83 1 29 1 15-40 15-95c0-56 16-97 71-98 29-1 48 16 59 35 1-10 0-23 2-32h30zM94-22c36 0 50-32 50-73 0-42-14-75-50-75-39 0-46 34-46 75s6 73 46 73" id="bu"/><path fill="#333" d="M59-47c-2 24 18 29 38 22v24C64 9 27 4 27-40v-127H5v-23h24l9-43h21v43h35v23H59v120" id="bv"/><path fill="#333" d="M117-194c89-4 53 116 60 194h-32v-121c0-31-8-49-39-48C34-167 62-67 57 0H25l-1-190h30c1 10-1 24 2 32 11-22 29-35 61-36" id="bw"/><path fill="#333" d="M87 75C49 33 22-17 22-94c0-76 28-126 65-167h31c-38 41-64 92-64 168S80 34 118 75H87" id="bx"/><path fill="#333" d="M24 0v-261h32V0H24" id="by"/><path fill="#333" d="M96-169c-40 0-48 33-48 73s9 75 48 75c24 0 41-14 43-38l32 2c-6 37-31 61-74 61-59 0-76-41-82-99-10-93 101-131 147-64 4 7 5 14 7 22l-32 3c-4-21-16-35-41-35" id="bz"/><path fill="#333" d="M140-251c81 0 123 46 123 126C263-46 219 4 140 4 59 4 17-45 17-125s42-126 123-126zm0 227c63 0 89-41 89-101s-29-99-89-99c-61 0-89 39-89 99S79-25 140-24" id="bA"/><path fill="#333" d="M115-194c53 0 69 39 70 98 0 66-23 100-70 100C84 3 66-7 56-30L54 0H23l1-261h32v101c10-23 28-34 59-34zm-8 174c40 0 45-34 45-75 0-40-5-75-45-74-42 0-51 32-51 76 0 43 10 73 51 73" id="bB"/><path fill="#333" d="M24-231v-30h32v30H24zM-9 49c24 4 33-6 33-30v-209h32V24c2 40-23 58-65 49V49" id="bC"/><path fill="#333" d="M33-261c38 41 65 92 65 168S71 34 33 75H2C39 34 66-17 66-93S39-220 2-261h31" id="bD"/><g id="m"><use transform="matrix(0.05,0,0,0.05,0,0)" xlink:href="#bl"/><use transform="matrix(0.05,0,0,0.05,10,0)" xlink:href="#bm"/><use transform="matrix(0.05,0,0,0.05,20,0)" xlink:href="#bn"/><use transform="matrix(0.05,0,0,0.05,32,0)" xlink:href="#bo"/><use transform="matrix(0.05,0,0,0.05,42.65,0)" xlink:href="#bp"/><use transform="matrix(0.05,0,0,0.05,54.650000000000006,0)" xlink:href="#bq"/><use transform="matrix(0.05,0,0,0.05,67.6,0)" xlink:href="#br"/><use transform="matrix(0.05,0,0,0.05,77.6,0)" xlink:href="#bs"/><use transform="matrix(0.05,0,0,0.05,86.6,0)" xlink:href="#bt"/><use transform="matrix(0.05,0,0,0.05,90.55,0)" xlink:href="#bu"/><use transform="matrix(0.05,0,0,0.05,100.55,0)" xlink:href="#br"/><use transform="matrix(0.05,0,0,0.05,110.55000000000001,0)" xlink:href="#bv"/><use transform="matrix(0.05,0,0,0.05,115.55000000000001,0)" xlink:href="#bt"/><use transform="matrix(0.05,0,0,0.05,119.5,0)" xlink:href="#bm"/><use transform="matrix(0.05,0,0,0.05,129.5,0)" xlink:href="#bw"/><use transform="matrix(0.05,0,0,0.05,139.5,0)" xlink:href="#bx"/><use transform="matrix(0.05,0,0,0.05,145.45,0)" xlink:href="#by"/><use transform="matrix(0.05,0,0,0.05,149.39999999999998,0)" xlink:href="#bm"/><use transform="matrix(0.05,0,0,0.05,159.39999999999998,0)" xlink:href="#bz"/><use transform="matrix(0.05,0,0,0.05,168.39999999999998,0)" xlink:href="#br"/><use transform="matrix(0.05,0,0,0.05,178.39999999999998,0)" xlink:href="#bv"/><use transform="matrix(0.05,0,0,0.05,183.39999999999998,0)" xlink:href="#bt"/><use transform="matrix(0.05,0,0,0.05,187.34999999999997,0)" xlink:href="#bm"/><use transform="matrix(0.05,0,0,0.05,197.34999999999997,0)" xlink:href="#bw"/><use transform="matrix(0.05,0,0,0.05,207.34999999999997,0)" xlink:href="#bA"/><use transform="matrix(0.05,0,0,0.05,221.34999999999997,0)" xlink:href="#bB"/><use transform="matrix(0.05,0,0,0.05,231.34999999999997,0)" xlink:href="#bC"/><use transform="matrix(0.05,0,0,0.05,235.29999999999995,0)" xlink:href="#bD"/></g><path fill="#333" d="M16-82v-28h88v28H16" id="bE"/><use transform="matrix(0.05,0,0,0.05,0,0)" xlink:href="#bE" id="n"/><path fill="#333" d="M115-194c55 1 70 41 70 98S169 2 115 4C84 4 66-9 55-30l1 105H24l-1-265h31l2 30c10-21 28-34 59-34zm-8 174c40 0 45-34 45-75s-6-73-45-74c-42 0-51 32-51 76 0 43 10 73 51 73" id="bF"/><path fill="#333" d="M100-194c63 0 86 42 84 106H49c0 40 14 67 53 68 26 1 43-12 49-29l28 8c-11 28-37 45-77 45C44 4 14-33 15-96c1-61 26-98 85-98zm52 81c6-60-76-77-97-28-3 7-6 17-6 28h103" id="bG"/><path fill="#333" d="M206 0h-36l-40-164L89 0H53L-1-190h32L70-26l43-164h34l41 164 42-164h31" id="bH"/><path fill="#333" d="M30 0v-248h33v221h125V0H30" id="bI"/><path fill="#333" d="M68-38c1 34 0 65-14 84H32c9-13 17-26 17-46H33v-38h35" id="bJ"/><g id="o"><use transform="matrix(0.05,0,0,0.05,0,0)" xlink:href="#by"/><use transform="matrix(0.05,0,0,0.05,3.95,0)" xlink:href="#bm"/><use transform="matrix(0.05,0,0,0.05,13.949999999999998,0)" xlink:href="#br"/><use transform="matrix(0.05,0,0,0.05,23.95,0)" xlink:href="#bl"/><use transform="matrix(0.05,0,0,0.05,33.95,0)" xlink:href="#bn"/><use transform="matrix(0.05,0,0,0.05,45.95,0)" xlink:href="#bF"/><use transform="matrix(0.05,0,0,0.05,55.95,0)" xlink:href="#br"/><use transform="matrix(0.05,0,0,0.05,65.95,0)" xlink:href="#bx"/><use transform="matrix(0.05,0,0,0.05,71.9,0)" xlink:href="#bw"/><use transform="matrix(0.05,0,0,0.05,81.9,0)" xlink:href="#bG"/><use transform="matrix(0.05,0,0,0.05,91.9,0)" xlink:href="#bH"/><use transform="matrix(0.05,0,0,0.05,104.85000000000001,0)" xlink:href="#bI"/><use transform="matrix(0.05,0,0,0.05,114.85000000000001,0)" xlink:href="#bm"/><use transform="matrix(0.05,0,0,0.05,124.85000000000001,0)" xlink:href="#bz"/><use transform="matrix(0.05,0,0,0.05,133.85000000000002,0)" xlink:href="#br"/><use transform="matrix(0.05,0,0,0.05,143.85000000000002,0)" xlink:href="#bv"/><use transform="matrix(0.05,0,0,0.05,148.85000000000002,0)" xlink:href="#bt"/><use transform="matrix(0.05,0,0,0.05,152.8,0)" xlink:href="#bm"/><use transform="matrix(0.05,0,0,0.05,162.8,0)" xlink:href="#bw"/><use transform="matrix(0.05,0,0,0.05,172.8,0)" xlink:href="#bJ"/></g><path fill="#333" d="M114-163C36-179 61-72 57 0H25l-1-190h30c1 12-1 29 2 39 6-27 23-49 58-41v29" id="bK"/><path fill="#333" d="M84 4C-5 8 30-112 23-190h32v120c0 31 7 50 39 49 72-2 45-101 50-169h31l1 190h-30c-1-10 1-25-2-33-11 22-28 36-60 37" id="bL"/><path fill="#333" d="M135-143c-3-34-86-38-87 0 15 53 115 12 119 90S17 21 10-45l28-5c4 36 97 45 98 0-10-56-113-15-118-90-4-57 82-63 122-42 12 7 21 19 24 35" id="bM"/><g id="p"><use transform="matrix(0.05,0,0,0.05,0,0)" xlink:href="#bF"/><use transform="matrix(0.05,0,0,0.05,10,0)" xlink:href="#bK"/><use transform="matrix(0.05,0,0,0.05,15.949999999999998,0)" xlink:href="#bG"/><use transform="matrix(0.05,0,0,0.05,25.950000000000003,0)" xlink:href="#bs"/><use transform="matrix(0.05,0,0,0.05,34.95,0)" xlink:href="#bt"/><use transform="matrix(0.05,0,0,0.05,38.900000000000006,0)" xlink:href="#bm"/><use transform="matrix(0.05,0,0,0.05,48.900000000000006,0)" xlink:href="#bL"/><use transform="matrix(0.05,0,0,0.05,58.900000000000006,0)" xlink:href="#bM"/><use transform="matrix(0.05,0,0,0.05,67.9,0)" xlink:href="#bI"/><use transform="matrix(0.05,0,0,0.05,77.9,0)" xlink:href="#bm"/><use transform="matrix(0.05,0,0,0.05,87.9,0)" xlink:href="#bz"/><use transform="matrix(0.05,0,0,0.05,96.9,0)" xlink:href="#br"/><use transform="matrix(0.05,0,0,0.05,106.9,0)" xlink:href="#bv"/><use transform="matrix(0.05,0,0,0.05,111.9,0)" xlink:href="#bt"/><use transform="matrix(0.05,0,0,0.05,115.85000000000001,0)" xlink:href="#bm"/><use transform="matrix(0.05,0,0,0.05,125.85000000000001,0)" xlink:href="#bw"/><use transform="matrix(0.05,0,0,0.05,135.85000000000002,0)" xlink:href="#bD"/></g><path fill="#333" d="M135-194c53 0 70 44 70 98 0 56-19 98-73 100-31 1-45-17-59-34 3 33 2 69 2 105H25l-1-265h48c2 10 0 23 3 31 11-24 29-35 60-35zM114-30c33 0 39-31 40-66 0-38-9-64-40-64-56 0-55 130 0 130" id="bN"/><path fill="#333" d="M185-48c-13 30-37 53-82 52C43 2 14-33 14-96s30-98 90-98c62 0 83 45 84 108H66c0 31 8 55 39 56 18 0 30-7 34-22zm-45-69c5-46-57-63-70-21-2 6-4 13-4 21h74" id="bO"/><path fill="#333" d="M135-194c87-1 58 113 63 194h-50c-7-57 23-157-34-157-59 0-34 97-39 157H25l-1-190h47c2 12-1 28 3 38 12-26 28-41 61-42" id="bP"/><path fill="#333" d="M140-251c80 0 125 45 125 126S219 4 139 4C58 4 15-44 15-125s44-126 125-126zm-1 214c52 0 73-35 73-88 0-50-21-86-72-86-52 0-73 35-73 86s22 88 72 88" id="bQ"/><path fill="#333" d="M238-95c0 69-44 99-111 99C63 4 22-25 22-93v-155h51v151c-1 38 19 59 55 60 90 1 49-130 58-211h52v153" id="bR"/><path fill="#333" d="M88-194c31-1 46 15 58 34l-1-101h50l1 261h-48c-2-10 0-23-3-31C134-8 116 4 84 4 32 4 16-41 15-95c0-56 19-97 73-99zm17 164c33 0 40-30 41-66 1-37-9-64-41-64s-38 30-39 65c0 43 13 65 39 65" id="bS"/><path fill="#333" d="M133-34C117-15 103 5 69 4 32 3 11-16 11-54c-1-60 55-63 116-61 1-26-3-47-28-47-18 1-26 9-28 27l-52-2c7-38 36-58 82-57s74 22 75 68l1 82c-1 14 12 18 25 15v27c-30 8-71 5-69-32zm-48 3c29 0 43-24 42-57-32 0-66-3-65 30 0 17 8 27 23 27" id="bT"/><g id="q"><use transform="matrix(0.05,0,0,0.05,0,0)" xlink:href="#bf"/><use transform="matrix(0.05,0,0,0.05,10.950000000000001,0)" xlink:href="#bN"/><use transform="matrix(0.05,0,0,0.05,21.900000000000002,0)" xlink:href="#bO"/><use transform="matrix(0.05,0,0,0.05,31.900000000000002,0)" xlink:href="#bP"/><use transform="matrix(0.05,0,0,0.05,42.85,0)" xlink:href="#bQ"/><use transform="matrix(0.05,0,0,0.05,56.85,0)" xlink:href="#bg"/><use transform="matrix(0.05,0,0,0.05,63.85,0)" xlink:href="#bR"/><use transform="matrix(0.05,0,0,0.05,76.8,0)" xlink:href="#bN"/><use transform="matrix(0.05,0,0,0.05,87.75,0)" xlink:href="#bS"/><use transform="matrix(0.05,0,0,0.05,98.7,0)" xlink:href="#bT"/><use transform="matrix(0.05,0,0,0.05,108.7,0)" xlink:href="#be"/><use transform="matrix(0.05,0,0,0.05,114.65,0)" xlink:href="#bO"/><use transform="matrix(0.05,0,0,0.05,124.65,0)" xlink:href="#bi"/><use transform="matrix(0.05,0,0,0.05,129.65,0)" xlink:href="#bj"/><use transform="matrix(0.05,0,0,0.05,134.65,0)" xlink:href="#bd"/></g><path fill="#333" d="M232-93c-1 65-40 97-104 97C67 4 28-28 28-90v-158h33c8 89-33 224 67 224 102 0 64-133 71-224h33v155" id="bU"/><g id="r"><use transform="matrix(0.05,0,0,0.05,0,0)" xlink:href="#bm"/><use transform="matrix(0.05,0,0,0.05,10,0)" xlink:href="#bF"/><use transform="matrix(0.05,0,0,0.05,20,0)" xlink:href="#bG"/><use transform="matrix(0.05,0,0,0.05,30,0)" xlink:href="#bw"/><use transform="matrix(0.05,0,0,0.05,40,0)" xlink:href="#bA"/><use transform="matrix(0.05,0,0,0.05,54,0)" xlink:href="#bK"/><use transform="matrix(0.05,0,0,0.05,59.95,0)" xlink:href="#bU"/><use transform="matrix(0.05,0,0,0.05,72.9,0)" xlink:href="#bF"/><use transform="matrix(0.05,0,0,0.05,82.9,0)" xlink:href="#bl"/><use transform="matrix(0.05,0,0,0.05,92.9,0)" xlink:href="#br"/><use transform="matrix(0.05,0,0,0.05,102.9,0)" xlink:href="#bv"/><use transform="matrix(0.05,0,0,0.05,107.9,0)" xlink:href="#bG"/><use transform="matrix(0.05,0,0,0.05,117.9,0)" xlink:href="#bo"/><use transform="matrix(0.05,0,0,0.05,129.9,0)" xlink:href="#br"/><use transform="matrix(0.05,0,0,0.05,139.9,0)" xlink:href="#bu"/><use transform="matrix(0.05,0,0,0.05,149.9,0)" xlink:href="#bG"/><use transform="matrix(0.05,0,0,0.05,159.9,0)" xlink:href="#bx"/><use transform="matrix(0.05,0,0,0.05,165.85,0)" xlink:href="#bw"/><use transform="matrix(0.05,0,0,0.05,175.85,0)" xlink:href="#bG"/><use transform="matrix(0.05,0,0,0.05,185.85,0)" xlink:href="#bH"/><use transform="matrix(0.05,0,0,0.05,198.79999999999998,0)" xlink:href="#bI"/><use transform="matrix(0.05,0,0,0.05,208.79999999999995,0)" xlink:href="#bm"/><use transform="matrix(0.05,0,0,0.05,218.79999999999995,0)" xlink:href="#bz"/><use transform="matrix(0.05,0,0,0.05,227.79999999999995,0)" xlink:href="#br"/><use transform="matrix(0.05,0,0,0.05,237.79999999999995,0)" xlink:href="#bv"/><use transform="matrix(0.05,0,0,0.05,242.79999999999995,0)" xlink:href="#bt"/><use transform="matrix(0.05,0,0,0.05,246.74999999999997,0)" xlink:href="#bm"/><use transform="matrix(0.05,0,0,0.05,256.75,0)" xlink:href="#bw"/><use transform="matrix(0.05,0,0,0.05,266.75,0)" xlink:href="#bJ"/></g><g id="s"><use transform="matrix(0.05,0,0,0.05,0,0)" xlink:href="#bF"/><use transform="matrix(0.05,0,0,0.05,10,0)" xlink:href="#bK"/><use transform="matrix(0.05,0,0,0.05,15.949999999999998,0)" xlink:href="#bG"/><use transform="matrix(0.05,0,0,0.05,25.950000000000003,0)" xlink:href="#bs"/><use transform="matrix(0.05,0,0,0.05,34.95,0)" xlink:href="#bt"/><use transform="matrix(0.05,0,0,0.05,38.900000000000006,0)" xlink:href="#bm"/><use transform="matrix(0.05,0,0,0.05,48.900000000000006,0)" xlink:href="#bL"/><use transform="matrix(0.05,0,0,0.05,58.900000000000006,0)" xlink:href="#bM"/><use transform="matrix(0.05,0,0,0.05,67.9,0)" xlink:href="#bI"/><use transform="matrix(0.05,0,0,0.05,77.9,0)" xlink:href="#bm"/><use transform="matrix(0.05,0,0,0.05,87.9,0)" xlink:href="#bz"/><use transform="matrix(0.05,0,0,0.05,96.9,0)" xlink:href="#br"/><use transform="matrix(0.05,0,0,0.05,106.9,0)" xlink:href="#bv"/><use transform="matrix(0.05,0,0,0.05,111.9,0)" xlink:href="#bt"/><use transform="matrix(0.05,0,0,0.05,115.85000000000001,0)" xlink:href="#bm"/><use transform="matrix(0.05,0,0,0.05,125.85000000000001,0)" xlink:href="#bw"/><use transform="matrix(0.05,0,0,0.05,135.85000000000002,0)" xlink:href="#bJ"/></g><path fill="#333" d="M106-169C34-169 62-67 57 0H25v-261h32l-1 103c12-21 28-36 61-36 89 0 53 116 60 194h-32v-121c2-32-8-49-39-48" id="bV"/><path fill="#333" d="M127-220V0H93v-220H8v-28h204v28h-85" id="bW"/><g id="t"><use transform="matrix(0.05,0,0,0.05,0,0)" xlink:href="#bM"/><use transform="matrix(0.05,0,0,0.05,9,0)" xlink:href="#bV"/><use transform="matrix(0.05,0,0,0.05,19,0)" xlink:href="#bm"/><use transform="matrix(0.05,0,0,0.05,29,0)" xlink:href="#bL"/><use transform="matrix(0.05,0,0,0.05,39,0)" xlink:href="#by"/><use transform="matrix(0.05,0,0,0.05,42.95,0)" xlink:href="#bl"/><use transform="matrix(0.05,0,0,0.05,52.95,0)" xlink:href="#bn"/><use transform="matrix(0.05,0,0,0.05,64.95,0)" xlink:href="#bz"/><use transform="matrix(0.05,0,0,0.05,73.95,0)" xlink:href="#bK"/><use transform="matrix(0.05,0,0,0.05,79.9,0)" xlink:href="#bm"/><use transform="matrix(0.05,0,0,0.05,89.9,0)" xlink:href="#by"/><use transform="matrix(0.05,0,0,0.05,93.85000000000001,0)" xlink:href="#by"/><use transform="matrix(0.05,0,0,0.05,97.80000000000001,0)" xlink:href="#bo"/><use transform="matrix(0.05,0,0,0.05,109.80000000000001,0)" xlink:href="#br"/><use transform="matrix(0.05,0,0,0.05,119.80000000000001,0)" xlink:href="#bu"/><use transform="matrix(0.05,0,0,0.05,129.8,0)" xlink:href="#bG"/><use transform="matrix(0.05,0,0,0.05,139.8,0)" xlink:href="#bW"/><use transform="matrix(0.05,0,0,0.05,148.75,0)" xlink:href="#bm"/><use transform="matrix(0.05,0,0,0.05,158.75,0)" xlink:href="#bW"/><use transform="matrix(0.05,0,0,0.05,167.7,0)" xlink:href="#bm"/><use transform="matrix(0.05,0,0,0.05,177.7,0)" xlink:href="#bF"/></g><path fill="#333" d="M18-150v-26h174v26H18zm0 90v-26h174v26H18" id="bX"/><use transform="matrix(0.05,0,0,0.05,0,0)" xlink:href="#bX" id="u"/><path fill="#333" d="M101-234c-31-9-42 10-38 44h38v23H63V0H32v-167H5v-23h27c-7-52 17-82 69-68v24" id="bY"/><g id="v"><use transform="matrix(0.05,0,0,0.05,0,0)" xlink:href="#bY"/><use transform="matrix(0.05,0,0,0.05,5,0)" xlink:href="#br"/><use transform="matrix(0.05,0,0,0.05,15,0)" xlink:href="#by"/><use transform="matrix(0.05,0,0,0.05,18.95,0)" xlink:href="#bM"/><use transform="matrix(0.05,0,0,0.05,27.950000000000003,0)" xlink:href="#bG"/><use transform="matrix(0.05,0,0,0.05,37.95,0)" xlink:href="#bD"/></g><path fill="#333" d="M30-248c118-7 216 8 213 122C240-48 200 0 122 0H30v-248zM63-27c89 8 146-16 146-99s-60-101-146-95v194" id="bZ"/><g id="w"><use transform="matrix(0.05,0,0,0.05,0,0)" xlink:href="#bm"/><use transform="matrix(0.05,0,0,0.05,10,0)" xlink:href="#bw"/><use transform="matrix(0.05,0,0,0.05,20,0)" xlink:href="#bZ"/><use transform="matrix(0.05,0,0,0.05,32.95,0)" xlink:href="#br"/><use transform="matrix(0.05,0,0,0.05,42.95,0)" xlink:href="#bv"/><use transform="matrix(0.05,0,0,0.05,47.95,0)" xlink:href="#br"/><use transform="matrix(0.05,0,0,0.05,57.95,0)" xlink:href="#bI"/><use transform="matrix(0.05,0,0,0.05,67.95,0)" xlink:href="#bm"/><use transform="matrix(0.05,0,0,0.05,77.95,0)" xlink:href="#br"/><use transform="matrix(0.05,0,0,0.05,87.95,0)" xlink:href="#bl"/><use transform="matrix(0.05,0,0,0.05,97.95,0)" xlink:href="#bG"/><use transform="matrix(0.05,0,0,0.05,107.95,0)" xlink:href="#bl"/><use transform="matrix(0.05,0,0,0.05,117.95,0)" xlink:href="#bx"/><use transform="matrix(0.05,0,0,0.05,123.9,0)" xlink:href="#bw"/><use transform="matrix(0.05,0,0,0.05,133.9,0)" xlink:href="#bG"/><use transform="matrix(0.05,0,0,0.05,143.9,0)" xlink:href="#bH"/><use transform="matrix(0.05,0,0,0.05,156.85,0)" xlink:href="#bZ"/><use transform="matrix(0.05,0,0,0.05,169.79999999999998,0)" xlink:href="#br"/><use transform="matrix(0.05,0,0,0.05,179.79999999999998,0)" xlink:href="#bv"/><use transform="matrix(0.05,0,0,0.05,184.79999999999998,0)" xlink:href="#br"/><use transform="matrix(0.05,0,0,0.05,194.79999999999998,0)" xlink:href="#bJ"/></g><path fill="#333" d="M210-169c-67 3-38 105-44 169h-31v-121c0-29-5-50-35-48C34-165 62-65 56 0H25l-1-190h30c1 10-1 24 2 32 10-44 99-50 107 0 11-21 27-35 58-36 85-2 47 119 55 194h-31v-121c0-29-5-49-35-48" id="ca"/><g id="x"><use transform="matrix(0.05,0,0,0.05,0,0)" xlink:href="#bt"/><use transform="matrix(0.05,0,0,0.05,3.95,0)" xlink:href="#ca"/><use transform="matrix(0.05,0,0,0.05,18.900000000000002,0)" xlink:href="#br"/><use transform="matrix(0.05,0,0,0.05,28.900000000000002,0)" xlink:href="#bu"/><use transform="matrix(0.05,0,0,0.05,38.900000000000006,0)" xlink:href="#bG"/><use transform="matrix(0.05,0,0,0.05,48.900000000000006,0)" xlink:href="#bM"/><use transform="matrix(0.05,0,0,0.05,57.900000000000006,0)" xlink:href="#bW"/><use transform="matrix(0.05,0,0,0.05,66.85000000000001,0)" xlink:href="#bm"/><use transform="matrix(0.05,0,0,0.05,76.85000000000001,0)" xlink:href="#bo"/><use transform="matrix(0.05,0,0,0.05,88.85000000000001,0)" xlink:href="#bK"/><use transform="matrix(0.05,0,0,0.05,94.80000000000001,0)" xlink:href="#bG"/><use transform="matrix(0.05,0,0,0.05,104.80000000000001,0)" xlink:href="#by"/><use transform="matrix(0.05,0,0,0.05,108.75,0)" xlink:href="#bm"/><use transform="matrix(0.05,0,0,0.05,118.75,0)" xlink:href="#br"/><use transform="matrix(0.05,0,0,0.05,128.75,0)" xlink:href="#bl"/><use transform="matrix(0.05,0,0,0.05,138.75,0)" xlink:href="#bD"/></g><g id="y"><use transform="matrix(0.05,0,0,0.05,0,0)" xlink:href="#bm"/><use transform="matrix(0.05,0,0,0.05,10,0)" xlink:href="#bw"/><use transform="matrix(0.05,0,0,0.05,20,0)" xlink:href="#bo"/><use transform="matrix(0.05,0,0,0.05,32,0)" xlink:href="#br"/><use transform="matrix(0.05,0,0,0.05,42,0)" xlink:href="#bu"/><use transform="matrix(0.05,0,0,0.05,52,0)" xlink:href="#bG"/><use transform="matrix(0.05,0,0,0.05,62,0)" xlink:href="#bU"/><use transform="matrix(0.05,0,0,0.05,74.95,0)" xlink:href="#bF"/><use transform="matrix(0.05,0,0,0.05,84.95,0)" xlink:href="#bl"/><use transform="matrix(0.05,0,0,0.05,94.95,0)" xlink:href="#br"/><use transform="matrix(0.05,0,0,0.05,104.95,0)" xlink:href="#bv"/><use transform="matrix(0.05,0,0,0.05,109.95,0)" xlink:href="#bG"/><use transform="matrix(0.05,0,0,0.05,119.95,0)" xlink:href="#bl"/><use transform="matrix(0.05,0,0,0.05,129.95,0)" xlink:href="#bx"/><use transform="matrix(0.05,0,0,0.05,135.89999999999998,0)" xlink:href="#bl"/><use transform="matrix(0.05,0,0,0.05,145.89999999999998,0)" xlink:href="#br"/><use transform="matrix(0.05,0,0,0.05,155.89999999999998,0)" xlink:href="#bv"/><use transform="matrix(0.05,0,0,0.05,160.89999999999998,0)" xlink:href="#br"/><use transform="matrix(0.05,0,0,0.05,170.89999999999998,0)" xlink:href="#bJ"/></g><g id="z"><use transform="matrix(0.05,0,0,0.05,0,0)" xlink:href="#bw"/><use transform="matrix(0.05,0,0,0.05,10,0)" xlink:href="#bG"/><use transform="matrix(0.05,0,0,0.05,20,0)" xlink:href="#bH"/><use transform="matrix(0.05,0,0,0.05,32.95,0)" xlink:href="#bI"/><use transform="matrix(0.05,0,0,0.05,42.95,0)" xlink:href="#bm"/><use transform="matrix(0.05,0,0,0.05,52.95,0)" xlink:href="#bz"/><use transform="matrix(0.05,0,0,0.05,61.95,0)" xlink:href="#br"/><use transform="matrix(0.05,0,0,0.05,71.95,0)" xlink:href="#bv"/><use transform="matrix(0.05,0,0,0.05,76.95,0)" xlink:href="#bt"/><use transform="matrix(0.05,0,0,0.05,80.9,0)" xlink:href="#bm"/><use transform="matrix(0.05,0,0,0.05,90.9,0)" xlink:href="#bw"/><use transform="matrix(0.05,0,0,0.05,100.9,0)" xlink:href="#bJ"/></g><path fill="#333" d="M143 0L79-87 56-68V0H24v-261h32v163l83-92h37l-77 82L181 0h-38" id="cb"/><g id="A"><use transform="matrix(0.05,0,0,0.05,0,0)" xlink:href="#bz"/><use transform="matrix(0.05,0,0,0.05,9,0)" xlink:href="#br"/><use transform="matrix(0.05,0,0,0.05,19,0)" xlink:href="#by"/><use transform="matrix(0.05,0,0,0.05,22.95,0)" xlink:href="#by"/><use transform="matrix(0.05,0,0,0.05,26.899999999999995,0)" xlink:href="#bB"/><use transform="matrix(0.05,0,0,0.05,36.9,0)" xlink:href="#br"/><use transform="matrix(0.05,0,0,0.05,46.9,0)" xlink:href="#bz"/><use transform="matrix(0.05,0,0,0.05,55.900000000000006,0)" xlink:href="#cb"/><use transform="matrix(0.05,0,0,0.05,64.9,0)" xlink:href="#bD"/></g><path fill="#333" d="M30 0v-248h187v28H63v79h144v27H63v87h162V0H30" id="cc"/><g id="B"><use transform="matrix(0.05,0,0,0.05,0,0)" xlink:href="#bm"/><use transform="matrix(0.05,0,0,0.05,10,0)" xlink:href="#bw"/><use transform="matrix(0.05,0,0,0.05,20,0)" xlink:href="#cc"/><use transform="matrix(0.05,0,0,0.05,32,0)" xlink:href="#bK"/><use transform="matrix(0.05,0,0,0.05,37.95,0)" xlink:href="#bK"/><use transform="matrix(0.05,0,0,0.05,43.900000000000006,0)" xlink:href="#bm"/><use transform="matrix(0.05,0,0,0.05,53.900000000000006,0)" xlink:href="#bK"/><use transform="matrix(0.05,0,0,0.05,59.85,0)" xlink:href="#bx"/><use transform="matrix(0.05,0,0,0.05,65.80000000000001,0)" xlink:href="#bG"/><use transform="matrix(0.05,0,0,0.05,75.80000000000001,0)" xlink:href="#bK"/><use transform="matrix(0.05,0,0,0.05,81.75000000000001,0)" xlink:href="#bK"/><use transform="matrix(0.05,0,0,0.05,87.70000000000002,0)" xlink:href="#bm"/><use transform="matrix(0.05,0,0,0.05,97.70000000000002,0)" xlink:href="#bK"/><use transform="matrix(0.05,0,0,0.05,103.65000000000003,0)" xlink:href="#bD"/></g><path fill="#333" d="M24 0v-248h52v208h133V0H24" id="cd"/><path fill="#333" d="M190-63c-7 42-38 67-86 67-59 0-84-38-90-98-12-110 154-137 174-36l-49 2c-2-19-15-32-35-32-30 0-35 28-38 64-6 74 65 87 74 30" id="ce"/><g id="C"><use transform="matrix(0.05,0,0,0.05,0,0)" xlink:href="#cd"/><use transform="matrix(0.05,0,0,0.05,10.950000000000001,0)" xlink:href="#bf"/><use transform="matrix(0.05,0,0,0.05,21.900000000000002,0)" xlink:href="#ce"/><use transform="matrix(0.05,0,0,0.05,31.900000000000002,0)" xlink:href="#bT"/><use transform="matrix(0.05,0,0,0.05,41.900000000000006,0)" xlink:href="#be"/><use transform="matrix(0.05,0,0,0.05,47.85000000000001,0)" xlink:href="#bc"/><use transform="matrix(0.05,0,0,0.05,52.85,0)" xlink:href="#bf"/><use transform="matrix(0.05,0,0,0.05,63.80000000000001,0)" xlink:href="#bP"/><use transform="matrix(0.05,0,0,0.05,74.75000000000001,0)" xlink:href="#bi"/><use transform="matrix(0.05,0,0,0.05,79.75000000000001,0)" xlink:href="#bj"/><use transform="matrix(0.05,0,0,0.05,84.75000000000001,0)" xlink:href="#bd"/></g><g id="D"><use transform="matrix(0.05,0,0,0.05,0,0)" xlink:href="#bw"/><use transform="matrix(0.05,0,0,0.05,10,0)" xlink:href="#br"/><use transform="matrix(0.05,0,0,0.05,20,0)" xlink:href="#bs"/><use transform="matrix(0.05,0,0,0.05,29,0)" xlink:href="#bt"/><use transform="matrix(0.05,0,0,0.05,32.95,0)" xlink:href="#bu"/><use transform="matrix(0.05,0,0,0.05,42.95,0)" xlink:href="#br"/><use transform="matrix(0.05,0,0,0.05,52.95,0)" xlink:href="#bv"/><use transform="matrix(0.05,0,0,0.05,57.95,0)" xlink:href="#bG"/><use transform="matrix(0.05,0,0,0.05,67.95,0)" xlink:href="#bW"/><use transform="matrix(0.05,0,0,0.05,76.9,0)" xlink:href="#bm"/><use transform="matrix(0.05,0,0,0.05,86.9,0)" xlink:href="#bx"/><use transform="matrix(0.05,0,0,0.05,92.85000000000001,0)" xlink:href="#bG"/><use transform="matrix(0.05,0,0,0.05,102.85000000000001,0)" xlink:href="#bs"/><use transform="matrix(0.05,0,0,0.05,111.85000000000001,0)" xlink:href="#bG"/><use transform="matrix(0.05,0,0,0.05,121.85000000000001,0)" xlink:href="#bw"/><use transform="matrix(0.05,0,0,0.05,131.85000000000002,0)" xlink:href="#bv"/><use transform="matrix(0.05,0,0,0.05,136.85000000000002,0)" xlink:href="#bJ"/></g><path fill="#333" d="M233-177c-1 41-23 64-60 70L243 0h-38l-65-103H63V0H30v-248c88 3 205-21 203 71zM63-129c60-2 137 13 137-47 0-61-80-42-137-45v92" id="cf"/><g id="E"><use transform="matrix(0.05,0,0,0.05,0,0)" xlink:href="#bv"/><use transform="matrix(0.05,0,0,0.05,5,0)" xlink:href="#br"/><use transform="matrix(0.05,0,0,0.05,15,0)" xlink:href="#bK"/><use transform="matrix(0.05,0,0,0.05,20.95,0)" xlink:href="#bu"/><use transform="matrix(0.05,0,0,0.05,30.950000000000003,0)" xlink:href="#bG"/><use transform="matrix(0.05,0,0,0.05,40.95,0)" xlink:href="#bv"/><use transform="matrix(0.05,0,0,0.05,45.95,0)" xlink:href="#bU"/><use transform="matrix(0.05,0,0,0.05,58.900000000000006,0)" xlink:href="#cf"/><use transform="matrix(0.05,0,0,0.05,71.85000000000001,0)" xlink:href="#bI"/><use transform="matrix(0.05,0,0,0.05,81.85000000000001,0)" xlink:href="#bD"/></g><g id="F"><use transform="matrix(0.05,0,0,0.05,0,0)" xlink:href="#bL"/><use transform="matrix(0.05,0,0,0.05,10,0)" xlink:href="#bM"/><use transform="matrix(0.05,0,0,0.05,19,0)" xlink:href="#bG"/><use transform="matrix(0.05,0,0,0.05,29,0)" xlink:href="#bM"/></g><g id="G"><use transform="matrix(0.05,0,0,0.05,0,0)" xlink:href="#bI"/><use transform="matrix(0.05,0,0,0.05,10,0)" xlink:href="#bt"/><use transform="matrix(0.05,0,0,0.05,13.949999999999998,0)" xlink:href="#bw"/><use transform="matrix(0.05,0,0,0.05,23.95,0)" xlink:href="#cb"/></g><path fill="#333" d="M212-179c-10-28-35-45-73-45-59 0-87 40-87 99 0 60 29 101 89 101 43 0 62-24 78-52l27 14C228-24 195 4 139 4 59 4 22-46 18-125c-6-104 99-153 187-111 19 9 31 26 39 46" id="cg"/><g id="H"><use transform="matrix(0.05,0,0,0.05,0,0)" xlink:href="#bm"/><use transform="matrix(0.05,0,0,0.05,10,0)" xlink:href="#bw"/><use transform="matrix(0.05,0,0,0.05,20,0)" xlink:href="#cg"/><use transform="matrix(0.05,0,0,0.05,32.95,0)" xlink:href="#by"/><use transform="matrix(0.05,0,0,0.05,36.900000000000006,0)" xlink:href="#bt"/><use transform="matrix(0.05,0,0,0.05,40.85000000000001,0)" xlink:href="#bz"/><use transform="matrix(0.05,0,0,0.05,49.85000000000001,0)" xlink:href="#cb"/></g><g id="I"><use transform="matrix(0.05,0,0,0.05,0,0)" xlink:href="#bG"/><use transform="matrix(0.05,0,0,0.05,10,0)" xlink:href="#bs"/><use transform="matrix(0.05,0,0,0.05,19,0)" xlink:href="#bG"/><use transform="matrix(0.05,0,0,0.05,29,0)" xlink:href="#bw"/><use transform="matrix(0.05,0,0,0.05,39,0)" xlink:href="#bv"/></g><g id="J"><use transform="matrix(0.05,0,0,0.05,0,0)" xlink:href="#bV"/><use transform="matrix(0.05,0,0,0.05,10,0)" xlink:href="#br"/><use transform="matrix(0.05,0,0,0.05,20,0)" xlink:href="#bw"/><use transform="matrix(0.05,0,0,0.05,30,0)" xlink:href="#bl"/><use transform="matrix(0.05,0,0,0.05,40,0)" xlink:href="#by"/><use transform="matrix(0.05,0,0,0.05,43.95,0)" xlink:href="#bG"/><use transform="matrix(0.05,0,0,0.05,53.95,0)" xlink:href="#bK"/></g><g id="K"><use transform="matrix(0.05,0,0,0.05,0,0)" xlink:href="#bL"/><use transform="matrix(0.05,0,0,0.05,10,0)" xlink:href="#bM"/><use transform="matrix(0.05,0,0,0.05,19,0)" xlink:href="#bG"/><use transform="matrix(0.05,0,0,0.05,29,0)" xlink:href="#bM"/></g><path fill="#333" d="M33 0v-38h34V0H33" id="ch"/><g id="L"><use transform="matrix(0.05,0,0,0.05,0,0)" xlink:href="#ch"/><use transform="matrix(0.05,0,0,0.05,5,0)" xlink:href="#bw"/><use transform="matrix(0.05,0,0,0.05,15,0)" xlink:href="#br"/><use transform="matrix(0.05,0,0,0.05,25,0)" xlink:href="#bs"/><use transform="matrix(0.05,0,0,0.05,34,0)" xlink:href="#bt"/><use transform="matrix(0.05,0,0,0.05,37.95,0)" xlink:href="#bu"/><use transform="matrix(0.05,0,0,0.05,47.95,0)" xlink:href="#br"/><use transform="matrix(0.05,0,0,0.05,57.95,0)" xlink:href="#bv"/><use transform="matrix(0.05,0,0,0.05,62.95,0)" xlink:href="#bG"/><use transform="matrix(0.05,0,0,0.05,72.95,0)" xlink:href="#bW"/><use transform="matrix(0.05,0,0,0.05,81.9,0)" xlink:href="#bm"/><use transform="matrix(0.05,0,0,0.05,91.9,0)" xlink:href="#bx"/><use transform="matrix(0.05,0,0,0.05,97.85000000000001,0)" xlink:href="#ch"/><use transform="matrix(0.05,0,0,0.05,102.85000000000001,0)" xlink:href="#ch"/><use transform="matrix(0.05,0,0,0.05,107.85000000000001,0)" xlink:href="#ch"/><use transform="matrix(0.05,0,0,0.05,112.85000000000001,0)" xlink:href="#bD"/></g><g id="M"><use transform="matrix(0.05,0,0,0.05,0,0)" xlink:href="#bv"/><use transform="matrix(0.05,0,0,0.05,5,0)" xlink:href="#bm"/></g><g id="N"><use transform="matrix(0.05,0,0,0.05,0,0)" xlink:href="#bl"/><use transform="matrix(0.05,0,0,0.05,10,0)" xlink:href="#bm"/></g><g id="O"><use transform="matrix(0.05,0,0,0.05,0,0)" xlink:href="#bn"/><use transform="matrix(0.05,0,0,0.05,12,0)" xlink:href="#bo"/><use transform="matrix(0.05,0,0,0.05,22.65,0)" xlink:href="#bp"/></g><g id="P"><use transform="matrix(0.05,0,0,0.05,0,0)" xlink:href="#bw"/><use transform="matrix(0.05,0,0,0.05,10,0)" xlink:href="#br"/><use transform="matrix(0.05,0,0,0.05,20,0)" xlink:href="#bs"/><use transform="matrix(0.05,0,0,0.05,29,0)" xlink:href="#bt"/><use transform="matrix(0.05,0,0,0.05,32.95,0)" xlink:href="#bu"/><use transform="matrix(0.05,0,0,0.05,42.95,0)" xlink:href="#br"/><use transform="matrix(0.05,0,0,0.05,52.95,0)" xlink:href="#bv"/><use transform="matrix(0.05,0,0,0.05,57.95,0)" xlink:href="#bt"/><use transform="matrix(0.05,0,0,0.05,61.900000000000006,0)" xlink:href="#bm"/><use transform="matrix(0.05,0,0,0.05,71.9,0)" xlink:href="#bw"/></g><path fill="#333" d="M24 0v-248h52V0H24" id="ci"/><path fill="#333" d="M121-226c-27-7-43 5-38 36h38v33H83V0H34v-157H6v-33h28c-9-59 32-81 87-68v32" id="cj"/><g id="Q"><use transform="matrix(0.05,0,0,0.05,0,0)" xlink:href="#bT"/><use transform="matrix(0.05,0,0,0.05,10,0)" xlink:href="#ce"/><use transform="matrix(0.05,0,0,0.05,20,0)" xlink:href="#be"/><use transform="matrix(0.05,0,0,0.05,25.950000000000003,0)" xlink:href="#bc"/><use transform="matrix(0.05,0,0,0.05,30.950000000000003,0)" xlink:href="#bf"/><use transform="matrix(0.05,0,0,0.05,41.9,0)" xlink:href="#bP"/><use transform="matrix(0.05,0,0,0.05,52.85,0)" xlink:href="#ci"/><use transform="matrix(0.05,0,0,0.05,57.85,0)" xlink:href="#bP"/><use transform="matrix(0.05,0,0,0.05,68.8,0)" xlink:href="#cj"/><use transform="matrix(0.05,0,0,0.05,74.75,0)" xlink:href="#bf"/><use transform="matrix(0.05,0,0,0.05,85.7,0)" xlink:href="#bi"/><use transform="matrix(0.05,0,0,0.05,90.7,0)" xlink:href="#bj"/><use transform="matrix(0.05,0,0,0.05,95.7,0)" xlink:href="#bd"/></g><path fill="#333" d="M141 0L90-78 38 0H4l68-98-65-92h35l48 74 47-74h35l-64 92 68 98h-35" id="ck"/><g id="R"><use transform="matrix(0.05,0,0,0.05,0,0)" xlink:href="#bz"/><use transform="matrix(0.05,0,0,0.05,9,0)" xlink:href="#bK"/><use transform="matrix(0.05,0,0,0.05,14.949999999999998,0)" xlink:href="#bG"/><use transform="matrix(0.05,0,0,0.05,24.95,0)" xlink:href="#br"/><use transform="matrix(0.05,0,0,0.05,34.95,0)" xlink:href="#bv"/><use transform="matrix(0.05,0,0,0.05,39.95,0)" xlink:href="#bG"/><use transform="matrix(0.05,0,0,0.05,49.95,0)" xlink:href="#bo"/><use transform="matrix(0.05,0,0,0.05,61.95,0)" xlink:href="#br"/><use transform="matrix(0.05,0,0,0.05,71.95,0)" xlink:href="#bu"/><use transform="matrix(0.05,0,0,0.05,81.95,0)" xlink:href="#bG"/><use transform="matrix(0.05,0,0,0.05,91.95,0)" xlink:href="#bp"/><use transform="matrix(0.05,0,0,0.05,103.95,0)" xlink:href="#bz"/><use transform="matrix(0.05,0,0,0.05,112.95,0)" xlink:href="#bv"/><use transform="matrix(0.05,0,0,0.05,117.95,0)" xlink:href="#bt"/><use transform="matrix(0.05,0,0,0.05,121.9,0)" xlink:href="#bm"/><use transform="matrix(0.05,0,0,0.05,131.9,0)" xlink:href="#bw"/><use transform="matrix(0.05,0,0,0.05,141.9,0)" xlink:href="#bW"/><use transform="matrix(0.05,0,0,0.05,152.2,0)" xlink:href="#bL"/><use transform="matrix(0.05,0,0,0.05,162.2,0)" xlink:href="#bF"/><use transform="matrix(0.05,0,0,0.05,172.2,0)" xlink:href="#by"/><use transform="matrix(0.05,0,0,0.05,176.14999999999998,0)" xlink:href="#bG"/><use transform="matrix(0.05,0,0,0.05,186.14999999999998,0)" xlink:href="#bx"/><use transform="matrix(0.05,0,0,0.05,192.09999999999997,0)" xlink:href="#bF"/><use transform="matrix(0.05,0,0,0.05,202.09999999999997,0)" xlink:href="#br"/><use transform="matrix(0.05,0,0,0.05,212.09999999999997,0)" xlink:href="#bu"/><use transform="matrix(0.05,0,0,0.05,222.09999999999997,0)" xlink:href="#bG"/><use transform="matrix(0.05,0,0,0.05,232.09999999999997,0)" xlink:href="#cg"/><use transform="matrix(0.05,0,0,0.05,245.04999999999995,0)" xlink:href="#bm"/><use transform="matrix(0.05,0,0,0.05,255.04999999999995,0)" xlink:href="#bw"/><use transform="matrix(0.05,0,0,0.05,265.04999999999995,0)" xlink:href="#bv"/><use transform="matrix(0.05,0,0,0.05,270.04999999999995,0)" xlink:href="#bG"/><use transform="matrix(0.05,0,0,0.05,280.04999999999995,0)" xlink:href="#ck"/><use transform="matrix(0.05,0,0,0.05,289.04999999999995,0)" xlink:href="#bv"/><use transform="matrix(0.05,0,0,0.05,294.04999999999995,0)" xlink:href="#bD"/></g><path fill="#333" d="M24-248c93 1 206-16 204 79-1 75-69 88-152 82V0H24v-248zm52 121c47 0 100 7 100-41 0-47-54-39-100-39v80" id="cl"/><path fill="#333" d="M195-6C206 82 75 100 31 46c-4-6-6-13-8-21l49-6c3 16 16 24 34 25 40 0 42-37 40-79-11 22-30 35-61 35-53 0-70-43-70-97 0-56 18-96 73-97 30 0 46 14 59 34l2-30h47zm-90-29c32 0 41-27 41-63 0-35-9-62-40-62-32 0-39 29-40 63 0 36 9 62 39 62" id="cm"/><path fill="#333" d="M199 0l-22-63H83L61 0H9l90-248h61L250 0h-51zm-33-102l-36-108c-10 38-24 72-36 108h72" id="cn"/><g id="S"><use transform="matrix(0.05,0,0,0.05,0,0)" xlink:href="#bd"/><use transform="matrix(0.05,0,0,0.05,10,0)" xlink:href="#bN"/><use transform="matrix(0.05,0,0,0.05,20.950000000000003,0)" xlink:href="#bT"/><use transform="matrix(0.05,0,0,0.05,30.950000000000003,0)" xlink:href="#cl"/><use transform="matrix(0.05,0,0,0.05,42.95,0)" xlink:href="#bT"/><use transform="matrix(0.05,0,0,0.05,52.95,0)" xlink:href="#cm"/><use transform="matrix(0.05,0,0,0.05,63.900000000000006,0)" xlink:href="#bO"/><use transform="matrix(0.05,0,0,0.05,73.9,0)" xlink:href="#bd"/><use transform="matrix(0.05,0,0,0.05,83.9,0)" xlink:href="#cn"/><use transform="matrix(0.05,0,0,0.05,96.85000000000001,0)" xlink:href="#ce"/><use transform="matrix(0.05,0,0,0.05,106.85000000000001,0)" xlink:href="#be"/><use transform="matrix(0.05,0,0,0.05,112.80000000000001,0)" xlink:href="#bc"/><use transform="matrix(0.05,0,0,0.05,117.80000000000001,0)" xlink:href="#bf"/><use transform="matrix(0.05,0,0,0.05,128.75,0)" xlink:href="#bP"/><use transform="matrix(0.05,0,0,0.05,139.7,0)" xlink:href="#bd"/><use transform="matrix(0.05,0,0,0.05,149.7,0)" xlink:href="#bi"/><use transform="matrix(0.05,0,0,0.05,154.7,0)" xlink:href="#bj"/><use transform="matrix(0.05,0,0,0.05,159.7,0)" xlink:href="#bd"/></g><path fill="#333" d="M26 75v-336h71v23H56V52h41v23H26" id="co"/><path fill="#333" d="M179-190L93 31C79 59 56 82 12 73V49c39 6 53-20 64-50L1-190h34L92-34l54-156h33" id="cp"/><path fill="#333" d="M160-131c35 5 61 23 61 61C221 17 115-2 30 0v-248c76 3 177-17 177 60 0 33-19 50-47 57zm-97-11c50-1 110 9 110-42 0-47-63-36-110-37v79zm0 115c55-2 124 14 124-45 0-56-70-42-124-44v89" id="cq"/><path fill="#333" d="M3 75V52h41v-290H3v-23h71V75H3" id="cr"/><path fill="#333" d="M33-154v-36h34v36H33zM33 0v-36h34V0H33" id="cs"/><g id="T"><use transform="matrix(0.05,0,0,0.05,0,0)" xlink:href="#co"/><use transform="matrix(0.05,0,0,0.05,5,0)" xlink:href="#bo"/><use transform="matrix(0.05,0,0,0.05,17,0)" xlink:href="#br"/><use transform="matrix(0.05,0,0,0.05,27,0)" xlink:href="#bu"/><use transform="matrix(0.05,0,0,0.05,37,0)" xlink:href="#bG"/><use transform="matrix(0.05,0,0,0.05,47,0)" xlink:href="#bW"/><use transform="matrix(0.05,0,0,0.05,55.95,0)" xlink:href="#bG"/><use transform="matrix(0.05,0,0,0.05,65.95,0)" xlink:href="#ca"/><use transform="matrix(0.05,0,0,0.05,80.9,0)" xlink:href="#bF"/><use transform="matrix(0.05,0,0,0.05,90.9,0)" xlink:href="#by"/><use transform="matrix(0.05,0,0,0.05,94.85000000000001,0)" xlink:href="#br"/><use transform="matrix(0.05,0,0,0.05,104.85000000000001,0)" xlink:href="#bv"/><use transform="matrix(0.05,0,0,0.05,109.85000000000001,0)" xlink:href="#bG"/><use transform="matrix(0.05,0,0,0.05,119.85000000000001,0)" xlink:href="#bW"/><use transform="matrix(0.05,0,0,0.05,129.8,0)" xlink:href="#cp"/><use transform="matrix(0.05,0,0,0.05,138.8,0)" xlink:href="#bF"/><use transform="matrix(0.05,0,0,0.05,148.8,0)" xlink:href="#bG"/><use transform="matrix(0.05,0,0,0.05,158.8,0)" xlink:href="#ch"/><use transform="matrix(0.05,0,0,0.05,163.8,0)" xlink:href="#cq"/><use transform="matrix(0.05,0,0,0.05,175.8,0)" xlink:href="#br"/><use transform="matrix(0.05,0,0,0.05,185.8,0)" xlink:href="#bM"/><use transform="matrix(0.05,0,0,0.05,194.8,0)" xlink:href="#cb"/><use transform="matrix(0.05,0,0,0.05,203.8,0)" xlink:href="#bG"/><use transform="matrix(0.05,0,0,0.05,213.8,0)" xlink:href="#bv"/><use transform="matrix(0.05,0,0,0.05,218.8,0)" xlink:href="#cr"/><use transform="matrix(0.05,0,0,0.05,223.8,0)" xlink:href="#cs"/></g><path fill="#333" d="M145-31C134-9 116 4 85 4 32 4 16-35 15-94c0-59 17-99 70-100 32-1 48 14 60 33 0-11-1-24 2-32h30l-1 268h-32zM93-21c41 0 51-33 51-76s-8-73-50-73c-40 0-46 35-46 75s5 74 45 74" id="ct"/><path fill="#333" d="M47-170H22l-4-78h33" id="cu"/><path fill="#333" d="M0 4l72-265h28L28 4H0" id="cv"/><g id="U"><use transform="matrix(0.05,0,0,0.05,0,0)" xlink:href="#bK"/><use transform="matrix(0.05,0,0,0.05,5.95,0)" xlink:href="#bG"/><use transform="matrix(0.05,0,0,0.05,15.949999999999998,0)" xlink:href="#ct"/><use transform="matrix(0.05,0,0,0.05,25.950000000000003,0)" xlink:href="#bL"/><use transform="matrix(0.05,0,0,0.05,35.95,0)" xlink:href="#bt"/><use transform="matrix(0.05,0,0,0.05,39.900000000000006,0)" xlink:href="#bK"/><use transform="matrix(0.05,0,0,0.05,45.85000000000001,0)" xlink:href="#bG"/><use transform="matrix(0.05,0,0,0.05,55.85,0)" xlink:href="#bx"/><use transform="matrix(0.05,0,0,0.05,61.80000000000001,0)" xlink:href="#cu"/><use transform="matrix(0.05,0,0,0.05,65.20000000000002,0)" xlink:href="#br"/><use transform="matrix(0.05,0,0,0.05,75.20000000000002,0)" xlink:href="#bz"/><use transform="matrix(0.05,0,0,0.05,84.20000000000002,0)" xlink:href="#bv"/><use transform="matrix(0.05,0,0,0.05,89.20000000000002,0)" xlink:href="#bt"/><use transform="matrix(0.05,0,0,0.05,93.15000000000002,0)" xlink:href="#bm"/><use transform="matrix(0.05,0,0,0.05,103.15000000000003,0)" xlink:href="#bw"/><use transform="matrix(0.05,0,0,0.05,113.15000000000003,0)" xlink:href="#bM"/><use transform="matrix(0.05,0,0,0.05,122.15000000000003,0)" xlink:href="#cv"/><use transform="matrix(0.05,0,0,0.05,127.15000000000003,0)" xlink:href="#cq"/><use transform="matrix(0.05,0,0,0.05,139.15000000000003,0)" xlink:href="#br"/><use transform="matrix(0.05,0,0,0.05,149.15000000000003,0)" xlink:href="#bM"/><use transform="matrix(0.05,0,0,0.05,158.15000000000003,0)" xlink:href="#cb"/><use transform="matrix(0.05,0,0,0.05,167.15000000000003,0)" xlink:href="#bG"/><use transform="matrix(0.05,0,0,0.05,177.15000000000003,0)" xlink:href="#bv"/><use transform="matrix(0.05,0,0,0.05,182.15000000000003,0)" xlink:href="#bp"/><use transform="matrix(0.05,0,0,0.05,194.15000000000003,0)" xlink:href="#bz"/><use transform="matrix(0.05,0,0,0.05,203.15000000000003,0)" xlink:href="#bv"/><use transform="matrix(0.05,0,0,0.05,208.15,0)" xlink:href="#bt"/><use transform="matrix(0.05,0,0,0.05,212.10000000000002,0)" xlink:href="#bm"/><use transform="matrix(0.05,0,0,0.05,222.10000000000002,0)" xlink:href="#bw"/><use transform="matrix(0.05,0,0,0.05,232.10000000000002,0)" xlink:href="#bM"/><use transform="matrix(0.05,0,0,0.05,241.10000000000002,0)" xlink:href="#cu"/><use transform="matrix(0.05,0,0,0.05,244.5,0)" xlink:href="#bD"/></g><g id="V"><use transform="matrix(0.05,0,0,0.05,0,0)" xlink:href="#ch"/><use transform="matrix(0.05,0,0,0.05,5,0)" xlink:href="#ch"/><use transform="matrix(0.05,0,0,0.05,10,0)" xlink:href="#ch"/></g><g id="W"><use transform="matrix(0.05,0,0,0.05,0,0)" xlink:href="#bV"/><use transform="matrix(0.05,0,0,0.05,10,0)" xlink:href="#br"/><use transform="matrix(0.05,0,0,0.05,20,0)" xlink:href="#bM"/></g><path fill="#333" d="M67-125c0 53 21 87 73 88 37 1 54-22 65-47l45 17C233-25 199 4 140 4 58 4 20-42 15-125 8-235 124-281 211-232c18 10 29 29 36 50l-46 12c-8-25-30-41-62-41-52 0-71 34-72 86" id="cw"/><g id="X"><use transform="matrix(0.05,0,0,0.05,0,0)" xlink:href="#cl"/><use transform="matrix(0.05,0,0,0.05,12,0)" xlink:href="#bT"/><use transform="matrix(0.05,0,0,0.05,22,0)" xlink:href="#cm"/><use transform="matrix(0.05,0,0,0.05,32.95,0)" xlink:href="#bO"/><use transform="matrix(0.05,0,0,0.05,42.95,0)" xlink:href="#cn"/><use transform="matrix(0.05,0,0,0.05,55.900000000000006,0)" xlink:href="#ce"/><use transform="matrix(0.05,0,0,0.05,65.9,0)" xlink:href="#be"/><use transform="matrix(0.05,0,0,0.05,71.85000000000001,0)" xlink:href="#bc"/><use transform="matrix(0.05,0,0,0.05,76.85000000000001,0)" xlink:href="#bf"/><use transform="matrix(0.05,0,0,0.05,87.80000000000001,0)" xlink:href="#bP"/><use transform="matrix(0.05,0,0,0.05,98.75000000000001,0)" xlink:href="#cw"/><use transform="matrix(0.05,0,0,0.05,111.7,0)" xlink:href="#bg"/><use transform="matrix(0.05,0,0,0.05,118.7,0)" xlink:href="#bO"/><use transform="matrix(0.05,0,0,0.05,128.70000000000002,0)" xlink:href="#bT"/><use transform="matrix(0.05,0,0,0.05,138.70000000000002,0)" xlink:href="#be"/><use transform="matrix(0.05,0,0,0.05,144.65,0)" xlink:href="#bf"/><use transform="matrix(0.05,0,0,0.05,155.6,0)" xlink:href="#bg"/><use transform="matrix(0.05,0,0,0.05,162.6,0)" xlink:href="#bd"/><use transform="matrix(0.05,0,0,0.05,172.6,0)" xlink:href="#bi"/><use transform="matrix(0.05,0,0,0.05,177.6,0)" xlink:href="#bj"/><use transform="matrix(0.05,0,0,0.05,182.6,0)" xlink:href="#bd"/></g><g id="Y"><use transform="matrix(0.05,0,0,0.05,0,0)" xlink:href="#bt"/><use transform="matrix(0.05,0,0,0.05,3.95,0)" xlink:href="#bM"/><use transform="matrix(0.05,0,0,0.05,12.949999999999998,0)" xlink:href="#bq"/><use transform="matrix(0.05,0,0,0.05,25.899999999999995,0)" xlink:href="#bG"/><use transform="matrix(0.05,0,0,0.05,35.9,0)" xlink:href="#bH"/><use transform="matrix(0.05,0,0,0.05,48.85,0)" xlink:href="#bo"/><use transform="matrix(0.05,0,0,0.05,60.85,0)" xlink:href="#br"/><use transform="matrix(0.05,0,0,0.05,70.85,0)" xlink:href="#bu"/><use transform="matrix(0.05,0,0,0.05,80.85,0)" xlink:href="#bG"/><use transform="matrix(0.05,0,0,0.05,90.85,0)" xlink:href="#cs"/></g><g id="Z"><use transform="matrix(0.05,0,0,0.05,0,0)" xlink:href="#bx"/><use transform="matrix(0.05,0,0,0.05,5.95,0)" xlink:href="#bF"/><use transform="matrix(0.05,0,0,0.05,15.949999999999998,0)" xlink:href="#br"/><use transform="matrix(0.05,0,0,0.05,25.950000000000003,0)" xlink:href="#bu"/><use transform="matrix(0.05,0,0,0.05,35.95,0)" xlink:href="#bG"/><use transform="matrix(0.05,0,0,0.05,45.95,0)" xlink:href="#cg"/><use transform="matrix(0.05,0,0,0.05,58.900000000000006,0)" xlink:href="#bm"/><use transform="matrix(0.05,0,0,0.05,68.9,0)" xlink:href="#bw"/><use transform="matrix(0.05,0,0,0.05,78.9,0)" xlink:href="#bv"/><use transform="matrix(0.05,0,0,0.05,83.9,0)" xlink:href="#bG"/><use transform="matrix(0.05,0,0,0.05,93.9,0)" xlink:href="#ck"/><use transform="matrix(0.05,0,0,0.05,102.9,0)" xlink:href="#bv"/><use transform="matrix(0.05,0,0,0.05,107.9,0)" xlink:href="#cs"/></g><path fill="#333" d="M33 0v-248h34V0H33" id="cx"/><g id="aa"><use transform="matrix(0.05,0,0,0.05,0,0)" xlink:href="#cx"/><use transform="matrix(0.05,0,0,0.05,5,0)" xlink:href="#bo"/><use transform="matrix(0.05,0,0,0.05,17,0)" xlink:href="#br"/><use transform="matrix(0.05,0,0,0.05,27,0)" xlink:href="#bu"/><use transform="matrix(0.05,0,0,0.05,37,0)" xlink:href="#bG"/><use transform="matrix(0.05,0,0,0.05,47,0)" xlink:href="#bq"/><use transform="matrix(0.05,0,0,0.05,59.95,0)" xlink:href="#br"/><use transform="matrix(0.05,0,0,0.05,69.95,0)" xlink:href="#bs"/><use transform="matrix(0.05,0,0,0.05,78.95,0)" xlink:href="#bt"/><use transform="matrix(0.05,0,0,0.05,82.9,0)" xlink:href="#bu"/><use transform="matrix(0.05,0,0,0.05,92.9,0)" xlink:href="#br"/><use transform="matrix(0.05,0,0,0.05,102.9,0)" xlink:href="#bv"/><use transform="matrix(0.05,0,0,0.05,107.9,0)" xlink:href="#bt"/><use transform="matrix(0.05,0,0,0.05,111.85000000000001,0)" xlink:href="#bm"/><use transform="matrix(0.05,0,0,0.05,121.85000000000001,0)" xlink:href="#bw"/><use transform="matrix(0.05,0,0,0.05,131.85000000000002,0)" xlink:href="#cg"/><use transform="matrix(0.05,0,0,0.05,144.8,0)" xlink:href="#bm"/><use transform="matrix(0.05,0,0,0.05,154.8,0)" xlink:href="#bw"/><use transform="matrix(0.05,0,0,0.05,164.8,0)" xlink:href="#bv"/><use transform="matrix(0.05,0,0,0.05,169.8,0)" xlink:href="#bG"/><use transform="matrix(0.05,0,0,0.05,179.8,0)" xlink:href="#ck"/><use transform="matrix(0.05,0,0,0.05,188.8,0)" xlink:href="#bv"/><use transform="matrix(0.05,0,0,0.05,193.8,0)" xlink:href="#bD"/></g><path fill="#333" d="M18-27v-27l151-64-151-65v-27l175 74v36" id="cy"/><g id="ab"><use transform="matrix(0.05,0,0,0.05,0,0)" xlink:href="#bX"/><use transform="matrix(0.05,0,0,0.05,10.5,0)" xlink:href="#cy"/></g><path fill="#333" d="M68-36c1 33-1 63-14 82H32c9-13 17-26 17-46H33v-36h35zM33-154v-36h35v36H33" id="cz"/><g id="ac"><use transform="matrix(0.05,0,0,0.05,0,0)" xlink:href="#bB"/><use transform="matrix(0.05,0,0,0.05,10,0)" xlink:href="#bm"/><use transform="matrix(0.05,0,0,0.05,20,0)" xlink:href="#bm"/><use transform="matrix(0.05,0,0,0.05,30,0)" xlink:href="#by"/><use transform="matrix(0.05,0,0,0.05,33.95,0)" xlink:href="#bG"/><use transform="matrix(0.05,0,0,0.05,43.95,0)" xlink:href="#br"/><use transform="matrix(0.05,0,0,0.05,53.95,0)" xlink:href="#bw"/><use transform="matrix(0.05,0,0,0.05,63.95,0)" xlink:href="#cz"/></g><path fill="#333" d="M103-251c84 0 111 97 45 133-19 10-37 24-39 52H78c0-63 77-55 77-114 0-30-21-42-52-43-32 0-53 17-56 46l-32-2c7-45 34-72 88-72zM77 0v-35h34V0H77" id="cA"/><g id="ad"><use transform="matrix(0.05,0,0,0.05,0,0)" xlink:href="#bm"/><use transform="matrix(0.05,0,0,0.05,10,0)" xlink:href="#bF"/><use transform="matrix(0.05,0,0,0.05,20,0)" xlink:href="#bG"/><use transform="matrix(0.05,0,0,0.05,30,0)" xlink:href="#bw"/><use transform="matrix(0.05,0,0,0.05,40,0)" xlink:href="#bo"/><use transform="matrix(0.05,0,0,0.05,52,0)" xlink:href="#br"/><use transform="matrix(0.05,0,0,0.05,62,0)" xlink:href="#bu"/><use transform="matrix(0.05,0,0,0.05,72,0)" xlink:href="#bG"/><use transform="matrix(0.05,0,0,0.05,82,0)" xlink:href="#cA"/><use transform="matrix(0.05,0,0,0.05,92,0)" xlink:href="#cs"/></g><g id="ae"><use transform="matrix(0.05,0,0,0.05,0,0)" xlink:href="#bs"/><use transform="matrix(0.05,0,0,0.05,9,0)" xlink:href="#bm"/><use transform="matrix(0.05,0,0,0.05,19,0)" xlink:href="#bt"/><use transform="matrix(0.05,0,0,0.05,22.95,0)" xlink:href="#bl"/><use transform="matrix(0.05,0,0,0.05,32.95,0)" xlink:href="#cz"/></g><g id="af"><use transform="matrix(0.05,0,0,0.05,0,0)" xlink:href="#bL"/><use transform="matrix(0.05,0,0,0.05,10,0)" xlink:href="#bF"/><use transform="matrix(0.05,0,0,0.05,20,0)" xlink:href="#bl"/><use transform="matrix(0.05,0,0,0.05,30,0)" xlink:href="#br"/><use transform="matrix(0.05,0,0,0.05,40,0)" xlink:href="#bv"/><use transform="matrix(0.05,0,0,0.05,45,0)" xlink:href="#bG"/><use transform="matrix(0.05,0,0,0.05,55,0)" xlink:href="#bo"/><use transform="matrix(0.05,0,0,0.05,67,0)" xlink:href="#br"/><use transform="matrix(0.05,0,0,0.05,77,0)" xlink:href="#bu"/><use transform="matrix(0.05,0,0,0.05,87,0)" xlink:href="#bG"/><use transform="matrix(0.05,0,0,0.05,97,0)" xlink:href="#cA"/><use transform="matrix(0.05,0,0,0.05,107,0)" xlink:href="#cs"/></g><g id="ag"><use transform="matrix(0.05,0,0,0.05,0,0)" xlink:href="#bs"/><use transform="matrix(0.05,0,0,0.05,9,0)" xlink:href="#bm"/><use transform="matrix(0.05,0,0,0.05,19,0)" xlink:href="#bt"/><use transform="matrix(0.05,0,0,0.05,22.95,0)" xlink:href="#bl"/><use transform="matrix(0.05,0,0,0.05,32.95,0)" xlink:href="#cz"/></g><g id="ah"><use transform="matrix(0.05,0,0,0.05,0,0)" xlink:href="#cq"/><use transform="matrix(0.05,0,0,0.05,12,0)" xlink:href="#br"/><use transform="matrix(0.05,0,0,0.05,22,0)" xlink:href="#bM"/><use transform="matrix(0.05,0,0,0.05,31,0)" xlink:href="#cb"/><use transform="matrix(0.05,0,0,0.05,40,0)" xlink:href="#bG"/><use transform="matrix(0.05,0,0,0.05,50,0)" xlink:href="#bv"/><use transform="matrix(0.05,0,0,0.05,55,0)" xlink:href="#bp"/><use transform="matrix(0.05,0,0,0.05,67,0)" xlink:href="#bz"/><use transform="matrix(0.05,0,0,0.05,76,0)" xlink:href="#bv"/><use transform="matrix(0.05,0,0,0.05,81,0)" xlink:href="#bt"/><use transform="matrix(0.05,0,0,0.05,84.95,0)" xlink:href="#bm"/><use transform="matrix(0.05,0,0,0.05,94.95,0)" xlink:href="#bw"/><use transform="matrix(0.05,0,0,0.05,104.95,0)" xlink:href="#bM"/><use transform="matrix(0.05,0,0,0.05,113.95,0)" xlink:href="#ch"/><use transform="matrix(0.05,0,0,0.05,118.95,0)" xlink:href="#bC"/><use transform="matrix(0.05,0,0,0.05,122.9,0)" xlink:href="#bM"/></g><g id="ai"><use transform="matrix(0.05,0,0,0.05,0,0)" xlink:href="#cq"/><use transform="matrix(0.05,0,0,0.05,12,0)" xlink:href="#bG"/><use transform="matrix(0.05,0,0,0.05,22,0)" xlink:href="#br"/><use transform="matrix(0.05,0,0,0.05,32,0)" xlink:href="#bL"/><use transform="matrix(0.05,0,0,0.05,42,0)" xlink:href="#bv"/><use transform="matrix(0.05,0,0,0.05,47,0)" xlink:href="#cp"/><use transform="matrix(0.05,0,0,0.05,56,0)" xlink:href="#bo"/><use transform="matrix(0.05,0,0,0.05,68,0)" xlink:href="#bK"/><use transform="matrix(0.05,0,0,0.05,73.95,0)" xlink:href="#bG"/><use transform="matrix(0.05,0,0,0.05,83.95,0)" xlink:href="#bY"/><use transform="matrix(0.05,0,0,0.05,88.95,0)" xlink:href="#bG"/><use transform="matrix(0.05,0,0,0.05,98.95,0)" xlink:href="#bK"/><use transform="matrix(0.05,0,0,0.05,104.9,0)" xlink:href="#bG"/><use transform="matrix(0.05,0,0,0.05,114.9,0)" xlink:href="#bw"/><use transform="matrix(0.05,0,0,0.05,124.9,0)" xlink:href="#bz"/><use transform="matrix(0.05,0,0,0.05,133.9,0)" xlink:href="#bG"/><use transform="matrix(0.05,0,0,0.05,143.9,0)" xlink:href="#bM"/><use transform="matrix(0.05,0,0,0.05,152.9,0)" xlink:href="#bp"/><use transform="matrix(0.05,0,0,0.05,164.9,0)" xlink:href="#bz"/><use transform="matrix(0.05,0,0,0.05,173.9,0)" xlink:href="#bv"/><use transform="matrix(0.05,0,0,0.05,178.9,0)" xlink:href="#bt"/><use transform="matrix(0.05,0,0,0.05,182.85,0)" xlink:href="#bm"/><use transform="matrix(0.05,0,0,0.05,192.85,0)" xlink:href="#bw"/><use transform="matrix(0.05,0,0,0.05,202.85,0)" xlink:href="#bM"/><use transform="matrix(0.05,0,0,0.05,211.85000000000002,0)" xlink:href="#ch"/><use transform="matrix(0.05,0,0,0.05,216.85000000000002,0)" xlink:href="#bC"/><use transform="matrix(0.05,0,0,0.05,220.79999999999995,0)" xlink:href="#bM"/></g><g id="aj"><use transform="matrix(0.05,0,0,0.05,0,0)" xlink:href="#cg"/><use transform="matrix(0.05,0,0,0.05,12.950000000000001,0)" xlink:href="#br"/><use transform="matrix(0.05,0,0,0.05,22.950000000000003,0)" xlink:href="#bv"/><use transform="matrix(0.05,0,0,0.05,27.950000000000003,0)" xlink:href="#bG"/><use transform="matrix(0.05,0,0,0.05,37.95,0)" xlink:href="#bu"/><use transform="matrix(0.05,0,0,0.05,47.95,0)" xlink:href="#bm"/><use transform="matrix(0.05,0,0,0.05,57.95,0)" xlink:href="#bK"/><use transform="matrix(0.05,0,0,0.05,63.900000000000006,0)" xlink:href="#cp"/><use transform="matrix(0.05,0,0,0.05,72.9,0)" xlink:href="#bp"/><use transform="matrix(0.05,0,0,0.05,84.9,0)" xlink:href="#bz"/><use transform="matrix(0.05,0,0,0.05,93.9,0)" xlink:href="#bv"/><use transform="matrix(0.05,0,0,0.05,98.9,0)" xlink:href="#bt"/><use transform="matrix(0.05,0,0,0.05,102.85000000000001,0)" xlink:href="#bm"/><use transform="matrix(0.05,0,0,0.05,112.85000000000001,0)" xlink:href="#bw"/><use transform="matrix(0.05,0,0,0.05,122.85000000000001,0)" xlink:href="#bM"/><use transform="matrix(0.05,0,0,0.05,131.85000000000002,0)" xlink:href="#ch"/><use transform="matrix(0.05,0,0,0.05,136.85000000000002,0)" xlink:href="#bC"/><use transform="matrix(0.05,0,0,0.05,140.8,0)" xlink:href="#bM"/></g><g id="ak"><use transform="matrix(0.05,0,0,0.05,0,0)" xlink:href="#cq"/><use transform="matrix(0.05,0,0,0.05,12,0)" xlink:href="#bL"/><use transform="matrix(0.05,0,0,0.05,22,0)" xlink:href="#cp"/><use transform="matrix(0.05,0,0,0.05,31,0)" xlink:href="#bo"/><use transform="matrix(0.05,0,0,0.05,43,0)" xlink:href="#br"/><use transform="matrix(0.05,0,0,0.05,53,0)" xlink:href="#bu"/><use transform="matrix(0.05,0,0,0.05,63,0)" xlink:href="#bG"/><use transform="matrix(0.05,0,0,0.05,73,0)" xlink:href="#bp"/><use transform="matrix(0.05,0,0,0.05,85,0)" xlink:href="#bz"/><use transform="matrix(0.05,0,0,0.05,94,0)" xlink:href="#bv"/><use transform="matrix(0.05,0,0,0.05,99,0)" xlink:href="#bt"/><use transform="matrix(0.05,0,0,0.05,102.95,0)" xlink:href="#bm"/><use transform="matrix(0.05,0,0,0.05,112.95,0)" xlink:href="#bw"/><use transform="matrix(0.05,0,0,0.05,122.95,0)" xlink:href="#bM"/><use transform="matrix(0.05,0,0,0.05,131.95,0)" xlink:href="#ch"/><use transform="matrix(0.05,0,0,0.05,136.95,0)" xlink:href="#bC"/><use transform="matrix(0.05,0,0,0.05,140.89999999999998,0)" xlink:href="#bM"/></g><path fill="#333" d="M197 0v-115H63V0H30v-248h33v105h134v-105h34V0h-34" id="cB"/><g id="al"><use transform="matrix(0.05,0,0,0.05,0,0)" xlink:href="#cB"/><use transform="matrix(0.05,0,0,0.05,12.950000000000001,0)" xlink:href="#bm"/><use transform="matrix(0.05,0,0,0.05,22.950000000000003,0)" xlink:href="#ca"/><use transform="matrix(0.05,0,0,0.05,37.900000000000006,0)" xlink:href="#bG"/><use transform="matrix(0.05,0,0,0.05,47.900000000000006,0)" xlink:href="#bF"/><use transform="matrix(0.05,0,0,0.05,57.900000000000006,0)" xlink:href="#br"/><use transform="matrix(0.05,0,0,0.05,67.9,0)" xlink:href="#bu"/><use transform="matrix(0.05,0,0,0.05,77.9,0)" xlink:href="#bG"/><use transform="matrix(0.05,0,0,0.05,87.9,0)" xlink:href="#bp"/><use transform="matrix(0.05,0,0,0.05,99.9,0)" xlink:href="#bz"/><use transform="matrix(0.05,0,0,0.05,108.9,0)" xlink:href="#bv"/><use transform="matrix(0.05,0,0,0.05,113.9,0)" xlink:href="#bt"/><use transform="matrix(0.05,0,0,0.05,117.85000000000001,0)" xlink:href="#bm"/><use transform="matrix(0.05,0,0,0.05,127.85000000000001,0)" xlink:href="#bw"/><use transform="matrix(0.05,0,0,0.05,137.85000000000002,0)" xlink:href="#bM"/><use transform="matrix(0.05,0,0,0.05,146.85000000000002,0)" xlink:href="#ch"/><use transform="matrix(0.05,0,0,0.05,151.85000000000002,0)" xlink:href="#bC"/><use transform="matrix(0.05,0,0,0.05,155.8,0)" xlink:href="#bM"/></g><g id="am"><use transform="matrix(0.05,0,0,0.05,0,0)" xlink:href="#bo"/><use transform="matrix(0.05,0,0,0.05,12,0)" xlink:href="#bK"/><use transform="matrix(0.05,0,0,0.05,17.95,0)" xlink:href="#bm"/><use transform="matrix(0.05,0,0,0.05,27.950000000000003,0)" xlink:href="#bl"/><use transform="matrix(0.05,0,0,0.05,37.95,0)" xlink:href="#bL"/><use transform="matrix(0.05,0,0,0.05,47.95,0)" xlink:href="#bz"/><use transform="matrix(0.05,0,0,0.05,56.95,0)" xlink:href="#bv"/><use transform="matrix(0.05,0,0,0.05,61.95,0)" xlink:href="#bp"/><use transform="matrix(0.05,0,0,0.05,73.95,0)" xlink:href="#bz"/><use transform="matrix(0.05,0,0,0.05,82.95,0)" xlink:href="#bv"/><use transform="matrix(0.05,0,0,0.05,87.95,0)" xlink:href="#bt"/><use transform="matrix(0.05,0,0,0.05,91.9,0)" xlink:href="#bm"/><use transform="matrix(0.05,0,0,0.05,101.9,0)" xlink:href="#bw"/><use transform="matrix(0.05,0,0,0.05,111.9,0)" xlink:href="#bM"/><use transform="matrix(0.05,0,0,0.05,120.9,0)" xlink:href="#ch"/><use transform="matrix(0.05,0,0,0.05,125.9,0)" xlink:href="#bC"/><use transform="matrix(0.05,0,0,0.05,129.85,0)" xlink:href="#bM"/></g><g id="an"><use transform="matrix(0.05,0,0,0.05,0,0)" xlink:href="#cq"/><use transform="matrix(0.05,0,0,0.05,12,0)" xlink:href="#bG"/><use transform="matrix(0.05,0,0,0.05,22,0)" xlink:href="#br"/><use transform="matrix(0.05,0,0,0.05,32,0)" xlink:href="#bL"/><use transform="matrix(0.05,0,0,0.05,42,0)" xlink:href="#bv"/><use transform="matrix(0.05,0,0,0.05,47,0)" xlink:href="#cp"/><use transform="matrix(0.05,0,0,0.05,56,0)" xlink:href="#bA"/><use transform="matrix(0.05,0,0,0.05,70,0)" xlink:href="#bY"/><use transform="matrix(0.05,0,0,0.05,74.65,0)" xlink:href="#bY"/><use transform="matrix(0.05,0,0,0.05,79.65,0)" xlink:href="#bG"/><use transform="matrix(0.05,0,0,0.05,89.65,0)" xlink:href="#bK"/><use transform="matrix(0.05,0,0,0.05,95.60000000000001,0)" xlink:href="#bp"/><use transform="matrix(0.05,0,0,0.05,107.60000000000001,0)" xlink:href="#bz"/><use transform="matrix(0.05,0,0,0.05,116.60000000000001,0)" xlink:href="#bv"/><use transform="matrix(0.05,0,0,0.05,121.60000000000001,0)" xlink:href="#bt"/><use transform="matrix(0.05,0,0,0.05,125.55000000000001,0)" xlink:href="#bm"/><use transform="matrix(0.05,0,0,0.05,135.55,0)" xlink:href="#bw"/><use transform="matrix(0.05,0,0,0.05,145.55,0)" xlink:href="#bM"/><use transform="matrix(0.05,0,0,0.05,154.55,0)" xlink:href="#ch"/><use transform="matrix(0.05,0,0,0.05,159.55,0)" xlink:href="#bC"/><use transform="matrix(0.05,0,0,0.05,163.5,0)" xlink:href="#bM"/></g><g id="ao"><use transform="matrix(0.05,0,0,0.05,0,0)" xlink:href="#bn"/><use transform="matrix(0.05,0,0,0.05,12,0)" xlink:href="#bG"/><use transform="matrix(0.05,0,0,0.05,22,0)" xlink:href="#br"/><use transform="matrix(0.05,0,0,0.05,32,0)" xlink:href="#bK"/><use transform="matrix(0.05,0,0,0.05,37.95,0)" xlink:href="#bz"/><use transform="matrix(0.05,0,0,0.05,46.95,0)" xlink:href="#bV"/><use transform="matrix(0.05,0,0,0.05,56.95,0)" xlink:href="#bp"/><use transform="matrix(0.05,0,0,0.05,68.95,0)" xlink:href="#bz"/><use transform="matrix(0.05,0,0,0.05,77.95,0)" xlink:href="#bv"/><use transform="matrix(0.05,0,0,0.05,82.95,0)" xlink:href="#bt"/><use transform="matrix(0.05,0,0,0.05,86.9,0)" xlink:href="#bm"/><use transform="matrix(0.05,0,0,0.05,96.9,0)" xlink:href="#bw"/><use transform="matrix(0.05,0,0,0.05,106.9,0)" xlink:href="#bM"/><use transform="matrix(0.05,0,0,0.05,115.9,0)" xlink:href="#ch"/><use transform="matrix(0.05,0,0,0.05,120.9,0)" xlink:href="#bC"/><use transform="matrix(0.05,0,0,0.05,124.85000000000001,0)" xlink:href="#bM"/></g><g id="ap"><use transform="matrix(0.05,0,0,0.05,0,0)" xlink:href="#bt"/><use transform="matrix(0.05,0,0,0.05,3.95,0)" xlink:href="#bw"/><use transform="matrix(0.05,0,0,0.05,13.949999999999998,0)" xlink:href="#bV"/><use transform="matrix(0.05,0,0,0.05,23.95,0)" xlink:href="#bG"/><use transform="matrix(0.05,0,0,0.05,33.95,0)" xlink:href="#bK"/><use transform="matrix(0.05,0,0,0.05,39.900000000000006,0)" xlink:href="#bt"/><use transform="matrix(0.05,0,0,0.05,43.85000000000001,0)" xlink:href="#bv"/><use transform="matrix(0.05,0,0,0.05,48.85000000000001,0)" xlink:href="#bM"/></g></defs></g></svg>