<svg xmlns="http://www.w3.org/2000/svg" xmlns:xlink="http://www.w3.org/1999/xlink" width="128" height="128" viewBox="0 0 128 128">
    <defs>
        <path id="a" d="M1.94 12.31c-.97 0-1.757-.785-1.757-1.757C.183 4.738 4.91.01 10.723.01a1.756 1.756 0 1 1 0 3.515c-3.875 0-7.027 3.152-7.027 7.03 0 .971-.787 1.757-1.756 1.757z"/>
        <path id="c" d="M.07.099h148.989v116.216H.069z"/>
        <path id="e" d="M1.826 12.384a1.757 1.757 0 0 1 0-3.515c3.875 0 7.027-3.152 7.027-7.03a1.757 1.757 0 1 1 3.513 0c0 5.815-4.727 10.545-10.54 10.545z"/>
        <path id="g" d="M.07.099h148.989v116.216H.069z"/>
        <path id="i" d="M10.61 12.31c-.97 0-1.757-.785-1.757-1.757 0-3.877-3.152-7.03-7.027-7.03a1.757 1.757 0 0 1 0-3.514c5.813 0 10.54 4.729 10.54 10.544 0 .972-.786 1.758-1.755 1.758z"/>
        <path id="k" d="M.07.099h148.989v116.217H.07z"/>
        <path id="m" d="M10.723 12.384C4.91 12.384.183 7.654.183 1.84a1.757 1.757 0 1 1 3.512 0c0 3.877 3.153 7.03 7.028 7.03a1.756 1.756 0 1 1 0 3.515z"/>
        <path id="o" d="M.07.099h148.989v116.216H.069z"/>
        <path id="q" d="M1.93 8.963c-.97 0-1.758-.788-1.758-1.758V1.933C.172.963.96.176 1.929.176c.97 0 1.757.787 1.757 1.757v5.272c0 .97-.787 1.758-1.757 1.758z"/>
        <path id="s" d="M.131.031h148.99v116.217H.13z"/>
        <path id="u" d="M1.93 8.905c-.97 0-1.758-.787-1.758-1.757V1.875C.172.905.96.117 1.929.117c.97 0 1.757.788 1.757 1.758v5.273c0 .97-.787 1.757-1.757 1.757z"/>
        <path id="w" d="M.131.031h148.99v116.217H.13z"/>
        <path id="y" d="M7.175 3.528H1.904a1.756 1.756 0 1 1 0-3.515h5.27a1.758 1.758 0 0 1 0 3.515z"/>
        <path id="A" d="M.131.031h148.99v116.217H.13z"/>
        <path id="C" d="M7.12 3.528H1.85a1.757 1.757 0 0 1 0-3.515h5.27a1.757 1.757 0 0 1 0 3.515z"/>
        <path id="E" d="M.131.031h148.99v116.217H.13z"/>
        <path id="G" d="M1.93 3.528c-.457 0-.915-.193-1.248-.509a1.85 1.85 0 0 1-.51-1.249c0-.455.194-.913.51-1.247.668-.65 1.827-.65 2.495 0 .316.334.51.792.51 1.247 0 .458-.194.916-.51 1.25a1.847 1.847 0 0 1-1.248.508z"/>
        <path id="I" d="M.131.031h148.99v116.217H.13z"/>
        <path id="K" d="M1.805 3.552c-.457 0-.914-.192-1.248-.509a1.85 1.85 0 0 1-.51-1.248c0-.476.194-.931.51-1.248.668-.65 1.845-.65 2.495 0 .316.333.51.772.51 1.248 0 .457-.194.914-.51 1.248a1.81 1.81 0 0 1-1.247.509z"/>
        <path id="M" d="M.036.138h148.99v116.217H.035z"/>
        <path id="O" d="M1.812 3.593c-.458 0-.917-.193-1.249-.51a1.843 1.843 0 0 1-.509-1.248c0-.457.192-.915.51-1.247.668-.65 1.844-.65 2.494 0 .316.332.51.79.51 1.247 0 .457-.194.915-.51 1.249-.333.316-.79.509-1.246.509z"/>
        <path id="Q" d="M.14.041h148.99v116.217H.14z"/>
        <path id="S" d="M1.848 3.665c-.476 0-.916-.193-1.248-.51a1.842 1.842 0 0 1-.509-1.247c0-.477.192-.916.51-1.249.65-.65 1.844-.65 2.494 0 .316.333.509.772.509 1.249 0 .456-.193.914-.509 1.247-.334.317-.79.51-1.247.51z"/>
        <path id="U" d="M.092.134h148.99V116.35H.092z"/>
        <path id="W" d="M1.774 3.573c-.477 0-.916-.194-1.248-.51a1.843 1.843 0 0 1-.51-1.247c0-.475.193-.914.51-1.25.631-.63 1.828-.649 2.494 0 .316.336.511.775.511 1.25 0 .456-.195.913-.51 1.247-.334.317-.791.51-1.247.51z"/>
        <path id="Y" d="M.056.005h148.99V116.22H.056z"/>
        <path id="aa" d="M1.934 3.508a1.85 1.85 0 0 1-1.248-.51A1.848 1.848 0 0 1 .178 1.75c0-.458.192-.914.508-1.249.668-.65 1.828-.65 2.496 0 .316.335.508.79.508 1.249 0 .456-.192.913-.508 1.247-.335.316-.791.51-1.248.51z"/>
        <path id="ac" d="M.017.118h148.99v116.216H.017z"/>
        <path id="ae" d="M1.78 12.397a1.757 1.757 0 0 1-1.757-1.758C.023 4.824 4.75.093 10.565.093c.972 0 1.756.788 1.756 1.758s-.784 1.757-1.756 1.757c-3.877 0-7.028 3.154-7.028 7.031 0 .97-.786 1.758-1.757 1.758z"/>
        <path id="ag" d="M.039.167h148.99v116.217H.038z"/>
        <path id="ai" d="M1.85 12.469a1.755 1.755 0 0 1-1.756-1.757c0-.97.784-1.758 1.756-1.758 3.877 0 7.027-3.152 7.027-7.03a1.757 1.757 0 1 1 3.515 0c0 5.816-4.728 10.545-10.542 10.545z"/>
        <path id="ak" d="M.039.167h148.99v116.217H.038z"/>
        <path id="am" d="M10.635 12.397a1.757 1.757 0 0 1-1.758-1.758c0-3.877-3.15-7.03-7.027-7.03A1.755 1.755 0 0 1 .094 1.85C.094.881.878.093 1.85.093c5.814 0 10.542 4.73 10.542 10.546 0 .97-.786 1.758-1.757 1.758z"/>
        <path id="ao" d="M.039.167h148.99v116.217H.038z"/>
        <path id="aq" d="M10.565 12.469C4.75 12.469.023 7.74.023 1.924a1.757 1.757 0 1 1 3.514 0c0 3.878 3.151 7.03 7.027 7.03.972 0 1.757.788 1.757 1.758s-.785 1.757-1.756 1.757z"/>
        <path id="as" d="M.039.167h148.99v116.217H.038z"/>
    </defs>
    <g fill="none" fill-rule="evenodd">
        <g fill-rule="nonzero">
            <path fill="#000" d="M15.974 103l-4.386-2.243c-.944-.483-2.142-1.506-2.491-3.638-.338-2.064.215-4.851 1.558-7.848 1.24-2.769 3.025-5.419 4.897-7.271L18 84.272c-3.343 3.308-6.033 9.305-5.536 12.34.159.971.588 1.191.729 1.263l4.386 2.243L15.974 103zM48.888 120a4.64 4.64 0 0 1-2.157-.509c-3.497-1.811-3.654-7.687-.365-13.668 2.573-4.68 6.49-7.823 9.746-7.823.78 0 1.505.171 2.157.51 3.497 1.81 3.654 7.686.365 13.668-2.573 4.678-6.49 7.822-9.746 7.822zm7.224-18.761c-1.669 0-4.62 2.14-6.802 6.108-2.562 4.66-2.308 8.613-1.008 9.286.166.086.358.128.586.128 1.669 0 4.62-2.14 6.802-6.109 2.562-4.66 2.309-8.612 1.008-9.285a1.248 1.248 0 0 0-.586-.128z"/>
            <path fill="#000" d="M27 124c-5.973 0-12-1.975-12-6.388V78.108h3.268v39.504c0 1.003 1.547 1.738 2.212 2.008 1.667.676 4.044 1.064 6.52 1.064s4.853-.388 6.52-1.064c.665-.27 2.212-1.005 2.212-2.008V78H39v39.612c0 4.413-6.027 6.388-12 6.388z"/>
            <path fill="#000" d="M15 102h3v14h-3zM18.47 102H15V76.2c0-3.018 2.99-4.554 4.774-5.2L21 74.115c-.76.276-2.53 1.031-2.53 2.085V102zM39 116h-3.293V76.331c0-1.131-1.893-1.908-2.707-2.19L34.07 71c4.29 1.485 4.93 3.977 4.93 5.331V116z"/>
            <path fill="#000" d="M27 83c-6.841 0-12-2.85-12-6.631 0-2.083 1.605-3.979 4.405-5.202l1.338 2.904c-1.526.667-2.475 1.547-2.475 2.298 0 1.406 3.402 3.448 8.732 3.448 5.33 0 8.731-2.042 8.731-3.448 0-.799-1.09-1.75-2.776-2.424L34.195 71C37.25 72.22 39 74.176 39 76.369 39 80.149 33.841 83 27 83z"/>
            <path fill="#000" d="M26.605 77c-5.099 0-8.394-1.75-8.394-4.458 0-2.08-.046-4.679-.095-7.43-.11-6.153-.233-13.128.1-17.379.24-3.073 3.927-6.383 5.5-7.663 2.42-1.967 5.838-4.07 8.175-4.07 1.683 0 2.813 1.116 2.813 2.778 0 2.134.049 6.183.105 10.87.083 6.871.186 15.422.19 22.355l.001.539C35 75.25 31.705 77 26.605 77zm5.082-37.984c-1.124.136-3.518 1.31-6.06 3.379-2.927 2.38-4.32 4.513-4.403 5.571-.322 4.108-.2 11.007-.091 17.094.049 2.764.095 5.375.095 7.482 0 .422 1.885 1.456 5.377 1.456 3.493 0 5.377-1.034 5.377-1.456v-.536c-.005-6.916-.108-15.458-.19-22.322-.055-4.53-.102-8.463-.105-10.668z"/>
            <path fill="#FFF" d="M37.945 112.512l9.682 4.817"/>
            <path fill="#000" d="M38.698 110.966l9.682 5.167-1.475 2.764-9.682-5.166z"/>
            <g>
                <path fill="#FFF" d="M57.495 100.303L37.932 89.52"/>
                <path fill="#000" d="M38.753 88.192l19.563 10.44-1.614 3.023-19.562-10.44z"/>
            </g>
        </g>
        <g transform="translate(103.365 91.238)">
            <mask id="b" fill="#fff">
                <use xlink:href="#a"/>
            </mask>
            <g mask="url(#b)">
                <g transform="translate(-23.429 -86.207)">
                    <mask id="d" fill="#fff">
                        <use xlink:href="#c"/>
                    </mask>
                    <path fill="#000" fill-rule="nonzero" d="M17.745 80.346h24.03v24.041h-24.03z" mask="url(#d)"/>
                </g>
            </g>
        </g>
        <g transform="translate(94.695 82.377)">
            <mask id="f" fill="#fff">
                <use xlink:href="#e"/>
            </mask>
            <g mask="url(#f)">
                <g transform="translate(-14.758 -77.346)">
                    <mask id="h" fill="#fff">
                        <use xlink:href="#g"/>
                    </mask>
                    <path fill="#000" fill-rule="nonzero" d="M8.96 71.559h24.03v24.04H8.96z" mask="url(#h)"/>
                </g>
            </g>
        </g>
        <g transform="translate(94.695 91.238)">
            <mask id="j" fill="#fff">
                <use xlink:href="#i"/>
            </mask>
            <g mask="url(#j)">
                <g transform="translate(-14.758 -86.207)">
                    <mask id="l" fill="#fff">
                        <use xlink:href="#k"/>
                    </mask>
                    <path fill="#000" fill-rule="nonzero" d="M8.96 80.346h24.03v24.041H8.96z" mask="url(#l)"/>
                </g>
            </g>
        </g>
        <g transform="translate(103.365 82.377)">
            <mask id="n" fill="#fff">
                <use xlink:href="#m"/>
            </mask>
            <g mask="url(#n)">
                <g transform="translate(-23.429 -77.346)">
                    <mask id="p" fill="#fff">
                        <use xlink:href="#o"/>
                    </mask>
                    <path fill="#000" fill-rule="nonzero" d="M17.745 71.559h24.03v24.04h-24.03z" mask="url(#p)"/>
                </g>
            </g>
        </g>
        <g transform="translate(38.43 4.662)">
            <mask id="r" fill="#fff">
                <use xlink:href="#q"/>
            </mask>
            <g mask="url(#r)">
                <g transform="translate(-47.042 -15.322)">
                    <mask id="t" fill="#fff">
                        <use xlink:href="#s"/>
                    </mask>
                    <path fill="#000" fill-rule="nonzero" d="M41.348 9.627h15.246v20.526H41.348z" mask="url(#t)"/>
                </g>
            </g>
        </g>
        <g transform="translate(38.43 20.537)">
            <mask id="v" fill="#fff">
                <use xlink:href="#u"/>
            </mask>
            <g mask="url(#v)">
                <g transform="translate(-47.042 -31.197)">
                    <mask id="x" fill="#fff">
                        <use xlink:href="#w"/>
                    </mask>
                    <path fill="#000" fill-rule="nonzero" d="M41.348 25.444h15.246v20.528H41.348z" mask="url(#x)"/>
                </g>
            </g>
        </g>
        <g transform="translate(27.914 15.368)">
            <mask id="z" fill="#fff">
                <use xlink:href="#y"/>
            </mask>
            <g mask="url(#z)">
                <g transform="translate(-36.527 -26.028)">
                    <mask id="B" fill="#fff">
                        <use xlink:href="#A"/>
                    </mask>
                    <path fill="#000" fill-rule="nonzero" d="M30.808 20.172h20.515v15.254H30.808z" mask="url(#B)"/>
                </g>
            </g>
        </g>
        <g transform="translate(43.78 15.368)">
            <mask id="D" fill="#fff">
                <use xlink:href="#C"/>
            </mask>
            <g mask="url(#D)">
                <g transform="translate(-52.392 -26.028)">
                    <mask id="F" fill="#fff">
                        <use xlink:href="#E"/>
                    </mask>
                    <path fill="#000" fill-rule="nonzero" d="M46.62 20.172h20.514v15.254H46.62z" mask="url(#F)"/>
                </g>
            </g>
        </g>
        <g transform="translate(38.43 15.368)">
            <mask id="H" fill="#fff">
                <use xlink:href="#G"/>
            </mask>
            <g mask="url(#H)">
                <g transform="translate(-47.042 -26.028)">
                    <mask id="J" fill="#fff">
                        <use xlink:href="#I"/>
                    </mask>
                    <path fill="#000" fill-rule="nonzero" d="M41.348 20.194h15.246v15.232H41.348z" mask="url(#J)"/>
                </g>
            </g>
        </g>
        <g transform="translate(123.473 25.89)">
            <mask id="L" fill="#fff">
                <use xlink:href="#K"/>
            </mask>
            <g mask="url(#L)">
                <g transform="translate(-110.317 -38.765)">
                    <mask id="N" fill="#fff">
                        <use xlink:href="#M"/>
                    </mask>
                    <path fill="#000" fill-rule="nonzero" d="M104.5 32.955h15.245v15.232H104.5z" mask="url(#N)"/>
                </g>
            </g>
        </g>
        <g transform="translate(.612 107.113)">
            <mask id="P" fill="#fff">
                <use xlink:href="#O"/>
            </mask>
            <g mask="url(#P)">
                <g transform="translate(-145.553 -101.897)">
                    <mask id="R" fill="#fff">
                        <use xlink:href="#Q"/>
                    </mask>
                    <path fill="#000" fill-rule="nonzero" d="M139.741 96.128h15.246v15.231H139.74z" mask="url(#R)"/>
                </g>
            </g>
        </g>
        <g>
            <g transform="translate(5.223 40.473)">
                <mask id="T" fill="#fff">
                    <use xlink:href="#S"/>
                </mask>
                <g mask="url(#T)">
                    <g transform="translate(-29.516 -109.65)">
                        <mask id="V" fill="#fff">
                            <use xlink:href="#U"/>
                        </mask>
                        <path fill="#000" fill-rule="nonzero" d="M23.742 103.953h15.244v15.232H23.742z" mask="url(#V)"/>
                    </g>
                </g>
            </g>
        </g>
        <g>
            <g transform="translate(67.392 11.676)">
                <mask id="X" fill="#fff">
                    <use xlink:href="#W"/>
                </mask>
                <g mask="url(#X)">
                    <g transform="translate(-89.287 -24.551)">
                        <mask id="Z" fill="#fff">
                            <use xlink:href="#Y"/>
                        </mask>
                        <path fill="#000" fill-rule="nonzero" d="M83.438 18.769h15.246v15.225H83.438z" mask="url(#Z)"/>
                    </g>
                </g>
            </g>
        </g>
        <g>
            <g transform="translate(120.706 95.668)">
                <mask id="ab" fill="#fff">
                    <use xlink:href="#aa"/>
                </mask>
                <g mask="url(#ab)">
                    <g transform="translate(-133.008 -112.604)">
                        <mask id="ad" fill="#fff">
                            <use xlink:href="#ac"/>
                        </mask>
                        <path fill="#000" fill-rule="nonzero" d="M127.32 106.75h15.245v15.231H127.32z" mask="url(#ad)"/>
                    </g>
                </g>
            </g>
        </g>
        <g>
            <g transform="translate(114.065 16.66)">
                <mask id="af" fill="#fff">
                    <use xlink:href="#ae"/>
                </mask>
                <g mask="url(#af)">
                    <g transform="translate(-136.698 -8.86)">
                        <mask id="ah" fill="#fff">
                            <use xlink:href="#ag"/>
                        </mask>
                        <path fill="#000" fill-rule="nonzero" d="M130.854 3.084h24.03v24.043h-24.03z" mask="url(#ah)"/>
                    </g>
                </g>
            </g>
            <g transform="translate(105.21 7.8)">
                <mask id="aj" fill="#fff">
                    <use xlink:href="#ai"/>
                </mask>
                <g mask="url(#aj)">
                    <g transform="translate(-127.843)">
                        <mask id="al" fill="#fff">
                            <use xlink:href="#ak"/>
                        </mask>
                        <path fill="#000" fill-rule="nonzero" d="M122.07-5.703h24.031v24.041h-24.03z" mask="url(#al)"/>
                    </g>
                </g>
            </g>
            <g transform="translate(105.21 16.66)">
                <mask id="an" fill="#fff">
                    <use xlink:href="#am"/>
                </mask>
                <g mask="url(#an)">
                    <g transform="translate(-127.843 -8.86)">
                        <mask id="ap" fill="#fff">
                            <use xlink:href="#ao"/>
                        </mask>
                        <path fill="#000" fill-rule="nonzero" d="M122.07 3.084h24.031v24.043h-24.03z" mask="url(#ap)"/>
                    </g>
                </g>
            </g>
            <g transform="translate(114.065 7.8)">
                <mask id="ar" fill="#fff">
                    <use xlink:href="#aq"/>
                </mask>
                <g mask="url(#ar)">
                    <g transform="translate(-136.698)">
                        <mask id="at" fill="#fff">
                            <use xlink:href="#as"/>
                        </mask>
                        <path fill="#000" fill-rule="nonzero" d="M130.854-5.703h24.03v24.041h-24.03z" mask="url(#at)"/>
                    </g>
                </g>
            </g>
        </g>
        <g fill="#000" fill-rule="nonzero">
            <path d="M75.5 90C60.336 90 48 77.492 48 62.117c0-3.863.765-7.603 2.273-11.117l2.686 1.185a25.036 25.036 0 0 0-2.03 9.932c0 13.737 11.022 24.913 24.57 24.913 13.549 0 24.572-11.176 24.572-24.913 0-3.387-.659-6.67-1.956-9.758l2.695-1.164A28.038 28.038 0 0 1 103 62.117C103 77.492 90.663 90 75.5 90z"/>
            <path d="M76.5 84C64.645 84 55 74.47 55 62.757c0-3.047.64-5.989 1.9-8.745l2.71 1.21a17.98 17.98 0 0 0-1.637 7.535c0 10.094 8.311 18.305 18.527 18.305 10.216 0 18.527-8.211 18.527-18.305 0-2.63-.552-5.17-1.642-7.545L96.093 54A20.866 20.866 0 0 1 98 62.758C98 74.47 88.355 84 76.5 84zM76 52c-7.53 0-14.632-1.132-19.997-3.187C50.197 46.589 47 43.459 47 40c0-3.459 3.197-6.589 9.003-8.813C61.368 29.132 68.47 28 76 28c7.53 0 14.632 1.132 19.997 3.187C101.803 33.411 105 36.541 105 40c0 3.459-3.197 6.589-9.003 8.813C90.632 50.868 83.53 52 76 52zm0-21.09c-15.351 0-26.05 4.79-26.05 9.09 0 4.299 10.699 9.089 26.05 9.089s26.05-4.79 26.05-9.09c0-4.298-10.699-9.088-26.05-9.088z"/>
            <path d="M83.507 60H68.493C67.642 60 67 59.137 67 57.993V56h2.367v1.29h13.266v-1.215H85v1.918C85 59.137 84.358 60 83.507 60zM74 86s.078-.085.215-.2c.137-.114.332-.253.566-.377.235-.125.508-.232.801-.309a3.799 3.799 0 0 1 1.836-.002c.293.075.566.183.8.308.235.125.43.265.567.379.137.115.215.201.215.201s-.078.085-.215.201a3.348 3.348 0 0 1-.566.379A3.619 3.619 0 0 1 76.5 87a3.787 3.787 0 0 1-.918-.114 3.688 3.688 0 0 1-.8-.31 3.388 3.388 0 0 1-.567-.376C74.078 86.085 74 86 74 86z"/>
            <path d="M76 57c-7.504 0-14.58-.966-19.922-2.72-7.401-2.43-9.034-5.513-9.077-7.704H47V41h2.95v5.486c0 3.156 9.91 7.557 26.05 7.557s26.05-4.401 26.05-7.557V41H105v5.576c-.044 2.19-1.677 5.275-9.078 7.704C90.58 56.034 83.504 57 76 57z"/>
        </g>
    </g>
</svg>
