<svg xmlns="http://www.w3.org/2000/svg" viewBox="0 0 138 88"><g fill-rule="nonzero" fill="none"><path d="M8 4a4 4 0 00-4 4v72a4 4 0 004 4h122a4 4 0 004-4V8a4 4 0 00-4-4H8zm0-4h122a8 8 0 018 8v72a8 8 0 01-8 8H8a8 8 0 01-8-8V8a8 8 0 018-8z" fill="#CCC"/><path d="M39.88 65.985c2.465 0 4.237-1.204 5.84-3.591l-.118-.096c-1.504 1.414-2.724 1.767-4.034 1.767-3.408 0-5.409-2.24-5.409-7.05 0-3.863 1.492-6.46 4.263-6.46 1.607 0 2.458.948 2.458 2.057 0 .523-.182 1.017-.465 1.3.29.55.883.826 1.468.826.8 0 1.588-.515 1.588-1.553 0-1.726-1.968-2.9-4.677-2.9-5.086 0-7.794 3.865-7.794 8.094 0 4.413 2.81 7.606 6.88 7.606zM52.423 50.395c3.769 0 6.234.954 6.234 3.948 0 2.467-1.563 3.558-5.181 3.86 7.878.044 3.585 7.065 6.89 7.429l.149.012.014.153c-.782.137-1.448.203-2 .203-2.555 0-2.887-1.728-3.156-3.54l-.074-.494c-.278-1.833-.692-3.599-3.475-3.599h-.739v5.463c0 1.383.358 1.784 1.562 1.784v.174h-6.295v-.174c1.16 0 1.531-.335 1.531-1.674V52.446c0-1.382-.358-1.783-1.561-1.783v-.174h.905c.361 0 .87-.009 1.442-.022l2.592-.06c.43-.007.83-.012 1.162-.012zm-.26.21c-.356 0-.72.054-1.078.15v7.386h1.013c2.532 0 3.225-1.05 3.225-3.733 0-2.888-1.373-3.802-3.16-3.802zM71.433 61.509c-1.397 3.06-2.408 4.039-4.767 4.039h-1.12v-7.547h1.228c1.775 0 2.118.695 2.534 2.735h.183v-5.69h-.183c-.417 2.033-.76 2.728-2.534 2.728h-1.227V50.73h1.482c2.318 0 2.916.856 3.922 3.538h.176l-.015-3.779H60.797v.175c1.203 0 1.561.4 1.561 1.783v11.494c0 1.339-.372 1.674-1.531 1.674v.173H71.12l.488-4.265-.175-.014zM79.24 50.395c5.41 0 7.951 2.493 7.951 7.75 0 5.842-3.235 7.673-7.557 7.736l-.237.002c-.9 0-1.663-.01-2.327-.023l-1.52-.037c-.599-.02-1.199-.031-1.8-.035h-1.117v-.174c1.16 0 1.532-.335 1.532-1.674V52.446c0-1.382-.358-1.783-1.562-1.783v-.174h1.085l.65-.005c1.38-.021 3.197-.089 4.901-.089zm-.262.226a6.271 6.271 0 00-1.611.235v13.307c0 1.043.774 1.48 2.19 1.48 2.989 0 4.307-2.087 4.307-7.143 0-5.546-1.474-7.879-4.886-7.879zM93.338 63.83V52.337c0-1.339.372-1.674 1.531-1.674v-.174h-6.28v.175c1.202 0 1.56.4 1.56 1.783v11.494c0 1.339-.371 1.674-1.531 1.674v.173h6.281v-.174c-1.203 0-1.561-.4-1.561-1.784zM107.84 50.49H95.845l-.16 4.384h.176c1.11-3.065 1.756-4.181 3.474-4.181h.921V63.94c0 1.339-.372 1.674-1.531 1.674v.174h6.28v-.174c-1.204 0-1.562-.4-1.562-1.784V50.693h.906c1.763 0 2.408 1.116 3.476 4.182H108l-.16-4.386zM26.526 22.198l4.809 13.464c.501 1.365.85 1.728 1.757 1.758l.133.002v.176h-6.573v-.176c1.155 0 1.68-.176 1.68-.814 0-.194-.04-.415-.121-.677l-.068-.203-1.029-2.926h-5.943l-.609 1.672c-.252.682-.378 1.254-.378 1.672 0 .855.509 1.235 1.652 1.273l.196.003v.176H18v-.176c.844 0 1.534-.825 2.18-2.572L24.7 22.198h1.827zm-2.352 2.244l-2.919 8.118h5.775l-2.856-8.118zM40.575 37.796c2.373 0 4.074-1.21 5.607-3.608l-.126-.11c-1.428 1.43-2.604 1.782-3.864 1.782-3.276 0-5.187-2.244-5.187-7.084 0-3.894 1.428-6.512 4.095-6.512 1.533 0 2.352.946 2.352 2.068 0 .528-.168 1.034-.441 1.32.273.55.84.836 1.407.836.756 0 1.512-.528 1.512-1.584 0-1.738-1.869-2.904-4.473-2.904-4.893 0-7.497 3.872-7.497 8.14 0 4.444 2.709 7.656 6.615 7.656zM53.952 37.796c2.373 0 4.074-1.21 5.607-3.608l-.126-.11c-1.428 1.43-2.604 1.782-3.864 1.782-3.276 0-5.187-2.244-5.187-7.084 0-3.894 1.428-6.512 4.095-6.512 1.533 0 2.352.946 2.352 2.068 0 .528-.168 1.034-.441 1.32.273.55.84.836 1.407.836.756 0 1.512-.528 1.512-1.584 0-1.738-1.869-2.904-4.473-2.904-4.893 0-7.497 3.872-7.497 8.14 0 4.444 2.709 7.656 6.615 7.656zM68.295 22c4.536 0 7.329 3.08 7.329 7.854 0 4.972-2.877 7.986-7.497 7.986-4.536 0-7.413-2.97-7.413-7.854 0-4.84 2.982-7.986 7.581-7.986zm-.399.308c-2.436 0-3.759 2.552-3.759 7.018 0 5.192 1.764 8.206 4.347 8.206 2.457 0 3.738-2.442 3.738-6.908 0-5.06-1.722-8.316-4.326-8.316zM84.024 37.84c3.78 0 5.502-1.87 5.502-5.368v-6.578c0-2.794.378-3.52 1.512-3.52v-.176h-3.591v.176c1.365 0 1.848.748 1.848 3.63v6.094c0 3.388-1.344 5.038-4.389 5.038-2.688 0-3.654-1.364-3.654-4.84v-8.228c0-1.364.357-1.694 1.47-1.694v-.176h-6.027v.176c1.155 0 1.491.396 1.491 1.804v8.58c0 3.278 1.932 5.082 5.838 5.082zM95.553 37.598v-.176c-1.449 0-2.016-1.034-2.016-3.256v-9.702l8.421 13.134h1.155V25.52c0-2.332.399-3.168 1.47-3.168v-.176h-3.633v.176c1.407 0 1.953.946 1.953 3.278v7.81l-7.14-11.242h-3.927v.176c1.155 0 1.491.396 1.491 1.804v10.098c0 2.178-.441 3.146-1.554 3.146v.176h3.78zM114.306 37.598v-.176c-1.155 0-1.491-.396-1.491-1.804V22.396h.861c1.701 0 2.331 1.122 3.339 4.224h.168l-.147-4.422h-11.508l-.168 4.422h.168c1.071-3.102 1.701-4.224 3.339-4.224h.882v13.332c0 1.364-.357 1.694-1.47 1.694v.176h6.027z" fill="#000"/></g></svg>
