<svg width="50" height="32" viewBox="0 0 50 32" fill="none" xmlns="http://www.w3.org/2000/svg">
<g clip-path="url(#clip0_5659_10760)">
<path d="M44.1176 0H5.88235C2.63362 0 0 2.38781 0 5.33333V26.6667C0 29.6122 2.63362 32 5.88235 32H44.1176C47.3664 32 50 29.6122 50 26.6667V5.33333C50 2.38781 47.3664 0 44.1176 0Z" fill="white"/>
<path d="M26.1869 14.0986C29.9053 14.8211 31.6052 16.2178 31.6052 18.5778C31.6052 21.5363 28.9481 23.7202 24.8003 23.9513L24.3956 25.7013C24.3561 25.8723 24.1896 25.9949 23.9969 25.9949H20.8058C20.5428 25.9949 20.3487 25.7722 20.4094 25.5402L20.9217 23.5833C18.8656 23.0529 17.2112 22.0211 16.2467 20.7475C16.1253 20.5873 16.1656 20.3682 16.3349 20.2487L18.5653 18.6759C18.7492 18.5463 19.0127 18.5843 19.1486 18.7558C20.3303 20.2471 22.1434 21.1305 24.3277 21.1305C26.2931 21.1305 27.7805 20.2635 27.7805 19.0113C27.7805 18.0479 27.0368 17.6145 24.5402 17.1329C20.2374 16.3141 18.5375 14.8693 18.5375 12.5093C18.5375 9.77107 21.0756 7.70262 24.9043 7.43397L25.3222 5.62654C25.3618 5.4555 25.5281 5.33301 25.7209 5.33301H28.8692C29.1289 5.33301 29.3222 5.55041 29.2672 5.78054L28.7833 7.80569C30.4308 8.26547 31.7722 9.08759 32.6072 10.1021C32.7367 10.2593 32.7034 10.482 32.5361 10.6064L30.5012 12.1193C30.3243 12.2508 30.0662 12.2221 29.9224 12.0608C28.8881 10.9011 27.26 10.2456 25.4964 10.2456C23.5309 10.2456 22.3092 11.0162 22.3092 12.124C22.3092 13.0391 23.2653 13.5207 26.1869 14.0986Z" fill="white"/>
<g clip-path="url(#clip1_5659_10760)">
<mask id="mask0_5659_10760" style="mask-type:luminance" maskUnits="userSpaceOnUse" x="6" y="2" width="39" height="28">
<path d="M45 2H6V30H45V2Z" fill="white"/>
</mask>
<g mask="url(#mask0_5659_10760)">
<path d="M40.4118 2H10.5882C8.05422 2 6 4.08934 6 6.66667V25.3333C6 27.9106 8.05422 30 10.5882 30H40.4118C42.9457 30 45 27.9106 45 25.3333V6.66667C45 4.08934 42.9457 2 40.4118 2Z" fill="white"/>
<path fill-rule="evenodd" clip-rule="evenodd" d="M23.4123 5.50054C22.0321 5.50054 21.3415 5.50054 20.6037 5.73378C19.7897 6.03382 19.1478 6.68669 18.8528 7.5157C18.6177 8.27361 18.6177 8.97495 18.6177 10.3793V14.6165C18.6177 16.0282 18.6177 16.7237 18.847 17.48C19.142 18.3085 19.7839 18.9613 20.598 19.2613C21.3425 19.5016 22.0321 19.5016 23.4123 19.5016H27.5825C28.9643 19.5016 29.6533 19.5016 30.3964 19.2613C31.2109 18.9613 31.8522 18.3085 32.1472 17.4799C32.3824 16.722 32.3824 16.0208 32.3824 14.6165V10.3852C32.3824 8.97926 32.3824 8.27792 32.1472 7.52162C31.8522 6.69315 31.2103 6.04028 30.3964 5.74024C29.6464 5.5 28.9643 5.5 27.5756 5.5L23.4123 5.50054Z" fill="#00D633"/>
<path d="M26.0566 11.8208C27.5069 12.1369 28.17 12.748 28.17 13.7806C28.17 15.0751 27.1336 16.0306 25.5157 16.1318L25.3579 16.8975C25.3425 16.9724 25.2776 17.0259 25.2023 17.0259H23.9578C23.8551 17.0259 23.7794 16.9285 23.8032 16.827L24.0029 15.9708C23.201 15.7387 22.5556 15.2872 22.1795 14.73C22.1321 14.6598 22.1478 14.564 22.2139 14.5117L23.0838 13.8235C23.1555 13.7668 23.2583 13.7834 23.3113 13.8585C23.7723 14.511 24.4795 14.8976 25.3314 14.8976C26.0981 14.8976 26.6781 14.5182 26.6781 13.9703C26.6781 13.5488 26.3881 13.3591 25.4143 13.1484C23.7361 12.7901 23.0729 12.1579 23.0729 11.1253C23.0729 9.92723 24.063 9.02217 25.5563 8.90463L25.7193 8.11379C25.7348 8.03895 25.7996 7.98535 25.8749 7.98535H27.1028C27.2041 7.98535 27.2795 8.08047 27.2581 8.18116L27.0693 9.06727C27.7119 9.26845 28.2352 9.62817 28.5608 10.0721C28.6113 10.1409 28.5983 10.2383 28.5331 10.2927L27.7393 10.9547C27.6703 11.0122 27.5696 10.9997 27.5135 10.9291C27.1102 10.4217 26.4751 10.1349 25.7872 10.1349C25.0206 10.1349 24.544 10.472 24.544 10.9567C24.544 11.3571 24.9171 11.5679 26.0566 11.8208Z" fill="white"/>
<path d="M13.782 20.8289C13.7638 20.7797 13.7176 20.7471 13.6659 20.7471H12.6567C12.605 20.7471 12.5587 20.7797 12.5405 20.829L10.5963 26.0874C10.5658 26.17 10.6258 26.2581 10.7125 26.2581H11.477C11.5289 26.2581 11.5753 26.2253 11.5933 26.1757L12.0086 25.0377H14.2951L14.7139 26.176C14.7321 26.2254 14.7784 26.2581 14.8302 26.2581H15.6137C15.7004 26.2581 15.7604 26.1699 15.7298 26.0873L13.782 20.8289ZM12.3406 24.1282L13.1443 21.9176L13.9593 24.1282H12.3406Z" fill="black"/>
<path d="M20.6465 25.4282C20.5764 25.4342 20.5099 25.4373 20.4151 25.4373C20.0982 25.4373 19.9019 25.395 19.9019 25.042V23.0655H20.5966C20.6652 23.0655 20.7207 23.009 20.7207 22.9393V22.3513C20.7207 22.2817 20.6652 22.2251 20.5966 22.2251H19.9019V21.1846C19.9019 21.115 19.8463 21.0584 19.7778 21.0584H19.0601C18.9915 21.0584 18.936 21.115 18.936 21.1846V22.2251H17.3702V22.0486C17.3702 21.6188 17.5551 21.5152 17.8985 21.5152C17.9569 21.5152 18.0002 21.5152 18.0426 21.5162C18.1124 21.518 18.1701 21.4611 18.1701 21.39V20.7975C18.1701 20.7302 18.118 20.6746 18.0518 20.6714C17.9565 20.667 17.8853 20.667 17.7777 20.667C16.8457 20.667 16.3892 21.139 16.3892 21.9833V22.2251H15.9699C15.9014 22.2251 15.8458 22.2817 15.8458 22.3513V22.9393C15.8458 23.009 15.9014 23.0655 15.9699 23.0655H16.3892V26.1322C16.3892 26.202 16.4447 26.2585 16.5133 26.2585H17.2461C17.3146 26.2585 17.3702 26.202 17.3702 26.1322V23.0655H18.936V25.2262C18.936 26.0513 19.351 26.3046 20.1284 26.3046C20.3307 26.3046 20.5183 26.2894 20.6765 26.2651C20.7369 26.2558 20.7812 26.2025 20.7812 26.1404V25.5539C20.7812 25.48 20.7189 25.4219 20.6465 25.4282Z" fill="black"/>
<path d="M23.1097 22.1484C21.9966 22.1484 21.2004 23.058 21.2004 24.2438C21.2004 25.4911 21.9966 26.343 23.1475 26.343C23.8927 26.343 24.5111 25.973 24.8175 25.3288C24.8491 25.2622 24.8157 25.1824 24.7475 25.1569L24.1533 24.9354C24.0926 24.9127 24.0244 24.9411 23.9981 25.0012C23.8524 25.3339 23.5375 25.5102 23.1512 25.5102C22.6003 25.5102 22.2117 25.1149 22.14 24.4625H24.7703C24.8388 24.4625 24.8944 24.4059 24.8944 24.3363V24.1516C24.8944 23.0349 24.2718 22.1484 23.1097 22.1484ZM22.1815 23.7525C22.3135 23.2345 22.6569 22.9658 23.1021 22.9658C23.6455 22.9658 23.9058 23.3304 23.9133 23.7525H22.1815Z" fill="black"/>
<path d="M27.7787 22.206C27.7365 22.203 27.6901 22.2012 27.6369 22.2012C27.1388 22.2012 26.739 22.4429 26.5653 22.8075V22.3504C26.5653 22.2807 26.5098 22.2242 26.4412 22.2242H25.7085C25.6399 22.2242 25.5844 22.2807 25.5844 22.3504V26.1313C25.5844 26.2011 25.6399 26.2576 25.7085 26.2576H26.4412C26.5098 26.2576 26.5653 26.2011 26.5653 26.1313V24.1738C26.5653 23.5405 26.9956 23.1798 27.5577 23.1798C27.6335 23.1798 27.6961 23.1825 27.7587 23.1878C27.8312 23.194 27.8935 23.1361 27.8935 23.0621V22.332C27.8935 22.2658 27.8435 22.2105 27.7787 22.206Z" fill="black"/>
<path d="M30.6397 22.1484C30.1341 22.1484 29.7568 22.3518 29.5153 22.6473V22.3514C29.5153 22.2817 29.4597 22.2251 29.3912 22.2251H28.6584C28.5898 22.2251 28.5343 22.2817 28.5343 22.3514V27.5062C28.5343 27.5759 28.5898 27.6325 28.6584 27.6325H29.3912C29.4597 27.6325 29.5153 27.5759 29.5153 27.5062V25.8402C29.7568 26.1396 30.1341 26.343 30.6397 26.343C31.7415 26.343 32.3753 25.3912 32.3753 24.2438C32.3753 23.1001 31.7415 22.1484 30.6397 22.1484ZM30.4247 25.4795C29.8926 25.4795 29.4927 25.0765 29.4927 24.3628V24.1325C29.4927 23.4072 29.8926 23.0119 30.4247 23.0119C31.0509 23.0119 31.3868 23.5146 31.3868 24.2438C31.3868 24.9768 31.0509 25.4795 30.4247 25.4795Z" fill="black"/>
<path d="M36.3982 25.5051C36.2451 25.4982 36.1829 25.4186 36.1829 25.2378V23.5453C36.1829 22.6128 35.5943 22.1484 34.617 22.1484C33.772 22.1484 33.2006 22.6124 32.9726 23.2201C32.9452 23.2932 32.9879 23.374 33.0632 23.3899L33.7449 23.5336C33.805 23.5463 33.8654 23.5125 33.8863 23.4538C33.9959 23.1464 34.2074 22.9926 34.5793 22.9926C35.0396 22.9926 35.2245 23.2191 35.2245 23.5837V23.6489L34.1831 23.8599C33.402 24.0135 32.8021 24.3512 32.8021 25.1379C32.8021 25.8555 33.3794 26.3277 34.1453 26.3277C34.6623 26.3277 35.0697 26.1626 35.3226 25.8786C35.4683 26.1933 35.8118 26.3307 36.4066 26.2716C36.4702 26.2653 36.5187 26.2107 36.5187 26.1458V25.6312C36.5187 25.5629 36.4651 25.5081 36.3982 25.5051ZM35.2245 24.831C35.2245 25.303 34.783 25.5524 34.3189 25.5524C33.9868 25.5524 33.7718 25.3836 33.7718 25.0881C33.7718 24.7465 34.0435 24.6275 34.4095 24.5507L35.2245 24.3781V24.831Z" fill="black"/>
<path d="M40.3277 22.2246H39.5958C39.5427 22.2246 39.4954 22.259 39.4784 22.3102L38.5938 24.9646L37.687 22.3094C37.6697 22.2586 37.6227 22.2246 37.5698 22.2246H36.8148C36.7281 22.2246 36.6681 22.3127 36.6986 22.3952L38.0693 26.1045L37.9296 26.4537C37.809 26.7607 37.6618 26.8413 37.3712 26.8413C37.3055 26.8413 37.2553 26.8389 37.2031 26.8347C37.131 26.829 37.0694 26.887 37.0694 26.9606V27.53C37.0694 27.595 37.118 27.6496 37.1815 27.6557C37.2558 27.6629 37.3282 27.6664 37.4619 27.6664C38.3108 27.6664 38.6655 27.2251 38.9069 26.5612L40.4439 22.3952C40.4744 22.3126 40.4144 22.2246 40.3277 22.2246Z" fill="black"/>
</g>
</g>
</g>
<rect x="0.5" y="0.5" width="49" height="31" rx="2.5" stroke="#CCCCCC"/>
<defs>
<clipPath id="clip0_5659_10760">
<rect width="50" height="32" rx="3" fill="white"/>
</clipPath>
<clipPath id="clip1_5659_10760">
<rect width="39" height="28" fill="white" transform="translate(6 2)"/>
</clipPath>
</defs>
</svg>
