<svg width="51" height="32" viewBox="0 0 51 32" fill="none" xmlns="http://www.w3.org/2000/svg">
<rect x="0.5" y="0.5" width="49.1818" height="31" rx="3.5" fill="#B2FCE4" stroke="#CCCCCC"/>
<path d="M6.62378 16.0121C6.62378 15.2727 6.06698 14.7525 5.38239 14.7525C4.69779 14.7525 4.14099 15.2819 4.14099 16.0121C4.14099 16.7332 4.69779 17.2718 5.38239 17.2718C6.06698 17.2718 6.62378 16.7515 6.62378 16.0121ZM6.63291 18.2119V17.6369C6.29518 18.0294 5.79314 18.2758 5.1907 18.2758C3.94018 18.2758 3 17.3083 3 16.0121C3 14.7159 3.98582 13.7393 5.21808 13.7393C5.80227 13.7393 6.29518 13.9857 6.63291 14.3691V13.8123H7.74652V18.2119H6.63291V18.2119Z" fill="black"/>
<path d="M13.1868 17.2349C12.7943 17.2349 12.6847 17.098 12.6847 16.7237V14.7795H13.4058V13.8211H12.6847V12.7531H11.5346V13.8211H10.0559V13.5564C10.0559 13.1912 10.2019 13.0452 10.6036 13.0452H10.8591V12.1963H10.3115C9.36216 12.1963 8.91489 12.4975 8.91489 13.4103V13.8302H8.27594V14.7795H8.91489V18.2207H10.065V14.7795H11.5437V16.9337C11.5437 17.8282 11.8997 18.2207 12.8308 18.2207H13.4241V17.244H13.1868V17.2349Z" fill="black"/>
<path d="M17.3034 15.6193C17.2213 15.0442 16.7375 14.7065 16.1716 14.7065C15.6057 14.7065 15.1401 15.0442 15.0215 15.6193H17.3034ZM15.0123 16.3039C15.0945 16.9519 15.5783 17.3262 16.1898 17.3262C16.6736 17.3262 17.0479 17.1071 17.2669 16.7511H18.4444C18.1706 17.6822 17.3034 18.2846 16.1716 18.2846C14.7933 18.2846 13.8348 17.3536 13.8348 16.03C13.8348 14.7065 14.8572 13.748 16.199 13.748C17.559 13.748 18.5357 14.7156 18.5357 16.03C18.5357 16.1304 18.5266 16.2217 18.5083 16.313H15.0123V16.3039Z" fill="black"/>
<path d="M25.8198 16.0118C25.8198 15.2998 25.263 14.7521 24.5784 14.7521C23.8938 14.7521 23.337 15.2815 23.337 16.0118C23.337 16.7329 23.8938 17.2714 24.5784 17.2714C25.2721 17.2714 25.8198 16.7237 25.8198 16.0118ZM22.2143 13.8211H23.337V14.3961C23.6748 13.9945 24.1768 13.748 24.7792 13.748C26.0115 13.748 26.9699 14.7247 26.9699 16.0118C26.9699 17.3079 25.9841 18.2846 24.7519 18.2846C24.1768 18.2846 23.7021 18.0656 23.3735 17.6913V20.0189H22.2143V13.8211Z" fill="black"/>
<path d="M31.0045 16.0121C31.0045 15.2727 30.4477 14.7525 29.7631 14.7525C29.0785 14.7525 28.5217 15.2819 28.5217 16.0121C28.5217 16.7332 29.0785 17.2718 29.7631 17.2718C30.4477 17.2718 31.0045 16.7515 31.0045 16.0121ZM31.0136 18.2119V17.6369C30.6759 18.0294 30.1738 18.2758 29.5714 18.2758C28.3209 18.2758 27.3807 17.3083 27.3807 16.0121C27.3807 14.7159 28.3665 13.7393 29.5988 13.7393C30.1829 13.7393 30.6759 13.9857 31.0136 14.3691V13.8123H32.1363V18.2119H31.0136V18.2119Z" fill="black"/>
<path d="M20.197 14.2504C20.197 14.2504 20.4799 13.7393 21.1828 13.7393C21.484 13.7393 21.6757 13.8397 21.6757 13.8397V14.9624C21.6757 14.9624 21.2558 14.7068 20.8724 14.7616C20.4891 14.8164 20.2426 15.1541 20.2426 15.6105V18.2119H19.0834V13.8123H20.2061V14.2504H20.197Z" fill="black"/>
<path d="M37.3575 13.8213L34.5278 20.01H33.3321L34.4457 17.6185L32.5745 13.8213H33.9254L35.0207 16.3589L36.1435 13.8213H37.3575Z" fill="black"/>
<path d="M46.3759 13.7208L43.5736 12.16C42.7521 11.7036 41.7206 12.2786 41.7206 13.1914V13.3557C41.7206 13.5018 41.8028 13.6387 41.9306 13.7026L42.46 13.9947C42.6152 14.086 42.8069 13.9764 42.8069 13.803V13.4014C42.8069 13.2005 43.0259 13.0819 43.2085 13.1732L45.6365 14.5241C45.8191 14.6245 45.8191 14.871 45.6365 14.9714L43.2176 16.3314C43.0351 16.4318 42.816 16.304 42.816 16.1032V15.8933C42.816 14.9714 41.7845 14.4054 40.963 14.8618L38.1608 16.4227C37.3392 16.8791 37.3392 18.0292 38.1608 18.4856L40.963 20.0465C41.7845 20.5029 42.816 19.9278 42.816 19.015V18.8507C42.816 18.7047 42.7338 18.5769 42.606 18.5039L42.0766 18.2118C41.9215 18.1205 41.7298 18.23 41.7298 18.4035V18.8051C41.7298 19.0059 41.5107 19.1246 41.3281 19.0333L38.9001 17.6824C38.7176 17.5819 38.7176 17.3355 38.9001 17.2351L41.3281 15.8842C41.5107 15.7837 41.7298 15.9115 41.7298 16.1124V16.3223C41.7298 17.2442 42.7612 17.8101 43.5827 17.3537L46.385 15.7929C47.2065 15.3274 47.2065 14.1772 46.3759 13.7208Z" fill="black"/>
</svg>
