<svg width="50" height="32" viewBox="0 0 50 32" fill="none" xmlns="http://www.w3.org/2000/svg">
  <path
    d="M2.89855 0.5H47.1014C48.4244 0.5 49.5 1.57687 49.5 2.90909V29.0909C49.5 30.4231 48.4244 31.5 47.1014 31.5H2.89855C1.57558 31.5 0.5 30.4231 0.5 29.0909V2.90909C0.5 1.57687 1.57558 0.5 2.89855 0.5Z"
    fill="white" stroke="black" />
  <mask id="path-2-inside-1_22573_17453" fill="white">
    <path fill-rule="evenodd" clip-rule="evenodd"
      d="M9 4H41C41 6.76142 43.2386 9 46 9V23C43.2386 23 41 25.2386 41 28H9C9 25.2386 6.76142 23 4 23V9C6.76142 9 9 6.76142 9 4Z" />
  </mask>
  <path
    d="M41 4H42V3H41V4ZM9 4V3H8V4H9ZM46 9H47V8H46V9ZM46 23V24H47V23H46ZM41 28V29H42V28H41ZM9 28H8V29H9V28ZM4 23H3V24H4V23ZM4 9V8H3V9H4ZM41 3H9V5H41V3ZM46 8C43.7909 8 42 6.20914 42 4H40C40 7.31371 42.6863 10 46 10V8ZM47 23V9H45V23H47ZM42 28C42 25.7909 43.7909 24 46 24V22C42.6863 22 40 24.6863 40 28H42ZM9 29H41V27H9V29ZM4 24C6.20914 24 8 25.7909 8 28H10C10 24.6863 7.31371 22 4 22V24ZM3 9V23H5V9H3ZM8 4C8 6.20914 6.20914 8 4 8V10C7.31371 10 10 7.31371 10 4H8Z"
    fill="black" mask="url(#path-2-inside-1_22573_17453)" />
  <path fill-rule="evenodd" clip-rule="evenodd"
    d="M25.9161 21.0984V22.4469L23.9925 22.5125V21.2793C22.8743 21.2136 21.822 20.8518 21 20.408L21.822 18.5992C22.6606 18.9938 23.5484 19.257 24.3704 19.257C25.4393 19.257 25.8833 18.7473 25.8833 18.2046C25.8833 17.6127 25.1597 17.3497 24.2883 17.0372C23.0222 16.5933 21.4602 16.0343 21.4602 14.1928C21.4602 12.8939 22.2331 11.562 24.0418 11.151V10.0658L25.9656 10V11.0852C26.7381 11.1673 27.511 11.3811 28.3002 11.7429L27.6096 13.535C26.8369 13.1734 25.9819 12.9595 25.3242 12.9595C24.4034 12.9595 23.9925 13.4364 23.9925 13.9626C23.9925 14.5216 24.4692 14.834 25.1104 15.0971C26.4586 15.6397 28.5796 15.9685 28.5796 17.9745C28.5796 19.4049 27.5603 20.6382 25.9161 21.0984Z"
    fill="black" />
</svg>
