<svg xmlns="http://www.w3.org/2000/svg" viewBox="0 0 138 88"><style>.st1{fill:none}</style><path fill="#fff" d="M0 15.4h138v57.1H0z"/><path d="M134 0H4C1.8 0 0 1.8 0 4v11.4h138V4c0-2.2-1.8-4-4-4zM0 84c0 2.2 1.8 4 4 4h130c2.2 0 4-1.8 4-4V72.5H0V84z"/><path class="st1" d="M59.4 40.4h-1.9v7.3h1.1v-2.8h1.3c.7 0 2.4-.3 2.3-2.3 0-2.3-2.5-2.2-2.8-2.2zm-10.4 0v7.3h4.5v-.9h-3.4v-2.5h2.4v-.9h-2.4v-2h3.4v-1H49zm-6.5 1.7c0-1.2 1.5-1.2 2.5-.5.3-.9.3-1 .3-1-2.7-1.3-3.9.4-3.9 1.5 0 2.6 3.7 2.1 3.2 3.9-.2.7-1.4 1.1-2.7.2-.1.3-.3.6-.4 1 1.8 1 4.1.5 4.2-1.5 0-2.3-3.2-2.2-3.2-3.6zm27.7 1.2h-3.7v-2.9h-1.1v7.3h1.1v-3.5h3.7v3.5h1.1v-7.3h-1.1zm25.7-2.9l-2.3 7.3h1.1c.3-1.3.5-1.7.5-1.7h2.9c.3 1 .6 1.7.6 1.7h1.2l-2.6-7.3h-1.4zm-6.1 2c-.2-2.2-2.2-2-2.7-2h-1.9v7.3h1.1v-3.1h1.1l2 3.1h1.4l-2.3-3.3c.6-.2 1.3-.8 1.3-2z"/><path class="st1" d="M49 40.4v7.3h4.5v-.9h-3.4v-2.5h2.4v-.9h-2.4v-2h3.4v-1H49zm21.2 2.9h-3.7v-2.9h-1.1v7.3h1.1v-3.5h3.7v3.5h1.1v-7.3h-1.1zm-10.8-2.9h-1.9v7.3h1.1v-2.8h1.3c.7 0 2.4-.3 2.3-2.3 0-2.3-2.5-2.2-2.8-2.2zm-.1 3.5h-.7v-2.6h.6c.3 0 2-.1 2.1 1.2 0 1.4-1.3 1.4-2 1.4zm-16.8-1.8c0-1.2 1.5-1.2 2.5-.5.3-.9.3-1 .3-1-2.7-1.3-3.9.4-3.9 1.5 0 2.6 3.7 2.1 3.2 3.9-.2.7-1.4 1.1-2.7.2-.1.3-.3.6-.4 1 1.8 1 4.1.5 4.2-1.5 0-2.3-3.2-2.2-3.2-3.6zm47.3.3c-.2-2.2-2.2-2-2.7-2h-1.9v7.3h1.1v-3.1h1.1l2 3.1h1.4l-2.3-3.3c.6-.2 1.3-.8 1.3-2zm6.1-2l-2.3 7.3h1.1c.3-1.3.5-1.7.5-1.7h2.9c.3 1 .6 1.7.6 1.7h1.2l-2.6-7.3h-1.4zm-17.7-.2c-2.3 0-3.8 1.7-3.8 3.8 0 2.1 1.5 3.8 3.8 3.8S82 46.1 82 44c0-2.1-1.5-3.8-3.8-3.8z"/><path d="M96.5 41.5l-1.1 3.6h2.3l-1.2-3.6zm-7.7.9c-.1-1.2-1.6-1.1-1.9-1.1h-.6v2.5h.7c.3-.1 1.9 0 1.8-1.4zm-29.6-1.1h-.6v2.6h.7c.7 0 2-.1 2-1.4-.1-1.3-1.8-1.2-2.1-1.2z"/><path d="M0 32.3v23h138v-23H0zm41.4 15c.2-.4.3-.7.4-1 1.4.8 2.5.5 2.7-.2.5-1.9-3.2-1.3-3.2-3.9 0-1.1 1.2-2.8 3.9-1.5 0 0 0 .1-.3 1-.9-.8-2.5-.7-2.5.5 0 1.4 3.2 1.2 3.1 3.7 0 1.9-2.3 2.4-4.1 1.4zm12.1-6h-3.4v2h2.4v.9h-2.4v2.5h3.4v.9H49v-7.3h4.5v1zm6.4 3.5h-1.3v2.8h-1.1v-7.3h1.9c.4 0 2.9-.1 2.9 2.1-.1 2.1-1.8 2.4-2.4 2.4zm11.4 2.9h-1.1v-3.5h-3.7v3.4h-1.1v-7.3h1.1v2.9h3.7v-2.9h1.1v7.4zm6.9.2c-2.3 0-3.8-1.7-3.8-3.8 0-2.1 1.5-3.8 3.8-3.8S82 41.9 82 44s-1.5 3.9-3.8 3.9zm11.2-.3l-2-3.1h-1.1v3.1h-1.1v-7.3h1.9c.4 0 2.5-.1 2.7 2 .1 1.2-.6 1.7-1.2 2l2.3 3.3h-1.5zm9.2.1s-.3-.7-.6-1.7h-2.9s-.1.4-.5 1.7h-1.1l2.3-7.3h1.3l2.6 7.3h-1.1z"/><path d="M78.2 41.2c-1.7 0-2.6 1.3-2.6 2.8 0 1.5.9 2.8 2.6 2.8 1.7 0 2.6-1.3 2.6-2.8 0-1.5-.9-2.8-2.6-2.8z"/></svg>
