<svg xmlns="http://www.w3.org/2000/svg" viewBox="0 0 138 88"><g fill="none" fill-rule="evenodd"><path fill="#CCC" fill-rule="nonzero" d="M8 4a4 4 0 0 0-4 4v72a4 4 0 0 0 4 4h122a4 4 0 0 0 4-4V8a4 4 0 0 0-4-4H8zm0-4h122a8 8 0 0 1 8 8v72a8 8 0 0 1-8 8H8a8 8 0 0 1-8-8V8a8 8 0 0 1 8-8z"/><path d="M58.778 43.01c-.68.421-1.387.617-2.849.617h-4.89v-6.904h4.79c1.663 0 2.598.034 3.305.455.932.57 1.306 1.677 1.306 2.916 0 1.405-.675 2.32-1.662 2.916m1.32-6.773c-.932-.619-2.026-.737-3.917-.737h-6.607V52h1.464v-7.222h5.32c2.927 0 5.472-1.813 5.472-4.645 0-1.685-.496-3.078-1.731-3.896m-26.072 7.664c0-4.789 2.566-7.73 6.415-7.73 2.88 0 4.925 1.357 5.475 3.861h1.486C46.845 36.795 44.168 35 40.52 35c-4.87 0-8.021 3.64-8.021 8.901 0 5.311 3.02 8.699 7.864 8.699 4.19 0 7.134-3.115 7.455-7.056h-1.46c-.418 3.49-2.67 5.846-5.943 5.846-3.793 0-6.39-2.675-6.39-7.489zm-4.67 3.54c0 1.403-.001 1.882-.7 2.818-1.056 1.413-4.164 1.548-5.288-.06-.386-.581-.57-1.307-.57-2.686v-.508h-1.274c-.025.315-.025.436-.025.63 0 .967.097 1.716.29 2.345.505 1.588 2.19 2.62 4.342 2.62 2.113 0 3.483-1.425 3.722-1.784.761-1.179.837-1.93.837-3.375V36.1h-1.335v11.34zM63.584 43.6c1.664-2.678 5.168-2.503 6.685.043.42.705.679 1.58.737 2.6h-8.453c.14-1.113.593-1.94 1.03-2.643m3.313-3.1c-3.246 0-5.697 2.88-5.697 6.815 0 3.378 2.03 6.385 5.627 6.385 2.517 0 4.743-1.74 5.328-4.676H70.84c-.492 2.108-2.034 3.512-4.028 3.512-2.566 0-4.219-2.384-4.284-5.154l9.905-.006c0-4.333-1.969-6.876-5.537-6.876m49.27 0s-3.052 8.961-3.41 10.16c-.478-1.523-3.84-10.16-3.84-10.16h-1.529l4.66 11.758-.627 1.797c-.323.953-1.039 1.653-1.826 1.653-.31 0-.492-.018-1.042-.118v1.273s.704.174 1.243.13c.909-.076 1.72-.62 2.054-1.126.335-.524.642-1.113 1.287-2.91L117.6 40.5h-1.434zm-17.628 3.1c1.664-2.678 5.168-2.503 6.685.043.42.704.68 1.58.737 2.6h-8.453c.14-1.113.593-1.94 1.03-2.644m3.313-3.099c-3.246 0-5.697 2.879-5.697 6.814 0 3.38 2.03 6.386 5.628 6.386 2.517 0 4.742-1.74 5.327-4.676h-1.314c-.491 2.108-2.034 3.512-4.028 3.512-2.565 0-4.219-2.384-4.284-5.154l9.905-.006c0-4.334-1.97-6.876-5.537-6.876m-11.255 0c-1.243 0-2.275.46-3.072 1.242-.352.366-.54.634-.914 1.342v-2.13h-1.29V52.6h1.36v-5.88c0-1.563.117-2.27.516-3.1.54-1.122 1.712-1.83 3.119-1.83 1.29 0 2.185.468 2.58 1.419.21.536.281 1.095.281 2.315V52.6h1.336v-7.515c0-1.562-.07-2.289-.539-3.045-.609-.976-1.9-1.54-3.377-1.54m-11.234 0c-1.243 0-2.275.46-3.072 1.242-.352.366-.54.634-.914 1.342v-2.129h-1.29V52.6h1.36v-5.88c0-1.562.117-2.27.516-3.1.54-1.122 1.712-1.83 3.119-1.83 1.29 0 2.185.468 2.58 1.419.21.537.281 1.095.281 2.315V52.6h1.336v-7.515c0-1.562-.07-2.288-.539-3.045-.609-.976-1.9-1.54-3.377-1.54" fill="#D91920" stroke="#D91920" stroke-width=".6"/></g></svg>
