<svg viewBox="0 0 138 88" xmlns="http://www.w3.org/2000/svg"><g fill-rule="nonzero" fill="none"><path d="M8 4a4 4 0 00-4 4v72a4 4 0 004 4h122a4 4 0 004-4V8a4 4 0 00-4-4H8zm0-4h122a8 8 0 018 8v72a8 8 0 01-8 8H8a8 8 0 01-8-8V8a8 8 0 018-8z" fill="#CCC"/><path d="M8 4a4 4 0 00-4 4v72a4 4 0 004 4h122a4 4 0 004-4V8a4 4 0 00-4-4H8z" fill="#FFB3C7"/><path d="M109.142 38.482a9.03 9.03 0 015.189 1.639v-1.145h5.234v17.889h-5.234V55.72a9.033 9.033 0 01-5.19 1.639c-5.094 0-9.225-4.226-9.225-9.44 0-5.212 4.13-9.438 9.226-9.438zm-55.223 0a9.03 9.03 0 015.189 1.639v-1.145h5.235v17.889h-5.235V55.72a9.033 9.033 0 01-5.189 1.639c-5.095 0-9.226-4.226-9.226-9.44 0-5.212 4.13-9.438 9.226-9.438zm71.204 12.038c1.814 0 3.285 1.505 3.285 3.361 0 1.857-1.47 3.362-3.285 3.362-1.815 0-3.286-1.506-3.286-3.362s1.471-3.361 3.286-3.361zM33.293 31c0 5.601-2.134 10.811-5.935 14.684l8.02 11.189h-7.166l-8.715-12.16 2.249-1.723c3.73-2.86 5.87-7.229 5.87-11.99h5.677zm-14.49 0v25.872H13V31h5.802zm53.637 7.977v2.33c1.05-1.398 3.005-2.329 5.13-2.329v5.205l-.062-.002c-2.07 0-5.056 1.514-5.056 4.332v8.351h-5.37V38.977h5.358zm18.175-.481c4.217 0 7.452 2.83 7.452 6.993v11.376h-5.228v-9.438c0-2.609-1.323-4.015-3.624-4.015-2.146 0-3.93 1.332-3.93 4.052v9.4H80.01V38.979h5.212v2.014c1.323-1.832 3.302-2.497 5.393-2.497zm-48.068-7.491v25.86H37.07v-25.86h5.478zm67.023 12.314c-2.62 0-4.743 2.06-4.743 4.602 0 2.542 2.124 4.602 4.743 4.602 2.62 0 4.743-2.06 4.743-4.602 0-2.542-2.123-4.602-4.743-4.602zm-55.223 0c-2.62 0-4.743 2.06-4.743 4.602 0 2.542 2.124 4.602 4.743 4.602 2.62 0 4.743-2.06 4.743-4.602 0-2.542-2.123-4.602-4.743-4.602z" fill="#0A0B09"/></g></svg>
