<svg width="52" height="34" viewBox="0 0 52 34" fill="none" xmlns="http://www.w3.org/2000/svg">
<path d="M3.89855 1H48.1014C49.7023 1 51 2.30244 51 3.90909V30.0909C51 31.6976 49.7023 33 48.1014 33H3.89855C2.29773 33 1 31.6976 1 30.0909V3.90909C1 2.30244 2.29773 1 3.89855 1Z" fill="white" stroke="#CCCCCC"/>
<path d="M14.999 15.0719C13.263 15.0719 12.167 14.0079 12.167 12.2399C12.167 10.4799 13.303 9.33594 15.063 9.33594C16.791 9.33594 17.863 10.4479 17.863 12.1919C17.863 13.9839 16.759 15.0719 14.999 15.0719ZM15.135 14.9679C16.023 14.9679 16.495 14.0959 16.495 12.4719C16.495 10.6399 15.871 9.43994 14.903 9.43994C14.023 9.43994 13.535 10.3599 13.535 11.9919C13.535 13.8719 14.183 14.9679 15.135 14.9679Z" fill="black"/>
<path d="M21.8399 9.39994H23.2399V9.46394C22.8239 9.46394 22.6799 9.76794 22.6799 10.6239V14.9999H22.2079L19.0159 10.2399V13.7439C19.0159 14.5599 19.2399 14.9359 19.7919 14.9359V14.9999H18.3439V14.9359C18.7679 14.9359 18.9359 14.5839 18.9359 13.7839V10.1279C18.9359 9.61594 18.8079 9.46394 18.3679 9.46394V9.39994H19.9199L22.5999 13.4399V10.6639C22.5999 9.81594 22.3839 9.46394 21.8399 9.46394V9.39994Z" fill="black"/>
<path d="M25.3859 10.0239V14.6639C25.3859 14.8719 25.4579 14.9199 25.7619 14.9199C26.3859 14.9199 26.9619 14.3919 27.3619 13.3119H27.4259L27.2339 14.9999H23.5939V14.9359C24.0179 14.9359 24.1539 14.8239 24.1539 14.3759V10.0639C24.1539 9.59994 24.0259 9.46394 23.5859 9.46394V9.39994H25.9459V9.46394C25.5219 9.46394 25.3859 9.57594 25.3859 10.0239Z" fill="black"/>
<path d="M29.6141 14.2799C29.6141 14.7919 29.7421 14.9359 30.1821 14.9359V14.9999H27.8301V14.9359C28.2541 14.9359 28.3901 14.8159 28.3901 14.3199V10.1279C28.3901 9.61594 28.2621 9.46394 27.8221 9.46394V9.39994H30.1741V9.46394C29.7501 9.46394 29.6141 9.59194 29.6141 10.0879V14.2799Z" fill="black"/>
<path d="M34.1133 9.39994H35.5133V9.46394C35.0973 9.46394 34.9533 9.76794 34.9533 10.6239V14.9999H34.4813L31.2893 10.2399V13.7439C31.2893 14.5599 31.5133 14.9359 32.0653 14.9359V14.9999H30.6173V14.9359C31.0413 14.9359 31.2093 14.5839 31.2093 13.7839V10.1279C31.2093 9.61594 31.0813 9.46394 30.6413 9.46394V9.39994H32.1933L34.8733 13.4399V10.6639C34.8733 9.81594 34.6573 9.46394 34.1133 9.46394V9.39994Z" fill="black"/>
<path d="M39.7793 13.4239L39.8433 13.4319L39.6673 14.9999H35.8673V14.9359C36.2913 14.9359 36.4273 14.8159 36.4273 14.3199V10.1279C36.4273 9.61594 36.2993 9.46394 35.8593 9.46394V9.39994H39.6673V10.7919H39.6033C39.2353 9.81594 39.0193 9.48794 38.1633 9.48794H37.6513V12.0719H38.0753C38.7393 12.0719 38.8593 11.8079 39.0113 11.0639H39.0753V13.1679H39.0113C38.8593 12.4159 38.7393 12.1519 38.0753 12.1519H37.6513V14.9119H38.0273C38.8833 14.9119 39.2593 14.5439 39.7793 13.4239Z" fill="black"/>
<path d="M14.57 25.0799C13.066 25.0799 12.042 23.8959 12.042 22.2879C12.042 20.7599 13.026 19.3279 14.898 19.3279C15.898 19.3279 16.626 19.7599 16.626 20.3919C16.626 20.7839 16.33 20.9759 16.026 20.9759C15.802 20.9759 15.578 20.8719 15.466 20.6639C15.578 20.5519 15.642 20.3679 15.642 20.1759C15.642 19.7759 15.346 19.4239 14.762 19.4239C13.77 19.4239 13.258 20.3919 13.258 21.7759C13.258 23.5359 13.978 24.3439 15.218 24.3439C15.69 24.3439 16.13 24.2239 16.674 23.7119L16.714 23.7439C16.122 24.6399 15.474 25.0799 14.57 25.0799Z" fill="black"/>
<path d="M22.2714 24.9439L22.2794 24.9999C21.9754 25.0559 21.7194 25.0799 21.5034 25.0799C20.5274 25.0799 20.4314 24.3999 20.3354 23.7039C20.2394 22.9999 20.1434 22.2799 19.0874 22.2799H18.8234V24.2799C18.8234 24.7919 18.9514 24.9359 19.3914 24.9359V24.9999H17.0314V24.9359C17.4554 24.9359 17.5914 24.8159 17.5914 24.3199V20.1279C17.5914 19.6159 17.4634 19.4639 17.0234 19.4639V19.3999H17.3514C17.5514 19.3999 17.8794 19.3999 18.2234 19.3839C18.6154 19.3759 19.0234 19.3679 19.3034 19.3679C20.6874 19.3679 21.6074 19.7039 21.6074 20.8159C21.6074 21.7199 21.0314 22.1119 19.7034 22.2159C22.6554 22.2319 20.9594 24.8959 22.2714 24.9439ZM18.8234 22.1999H19.1994C20.0954 22.1999 20.3274 21.8159 20.3274 20.8399C20.3274 19.7759 19.8314 19.4479 19.1994 19.4479C19.0794 19.4479 18.9514 19.4639 18.8234 19.4959V22.1999Z" fill="black"/>
<path d="M26.3809 23.4239L26.4449 23.4319L26.2689 24.9999H22.4689V24.9359C22.8929 24.9359 23.0289 24.8159 23.0289 24.3199V20.1279C23.0289 19.6159 22.9009 19.4639 22.4609 19.4639V19.3999H26.2689V20.7919H26.2049C25.8369 19.8159 25.6209 19.4879 24.7649 19.4879H24.2529V22.0719H24.6769C25.3409 22.0719 25.4609 21.8079 25.6129 21.0639H25.6769V23.1679H25.6129C25.4609 22.4159 25.3409 22.1519 24.6769 22.1519H24.2529V24.9119H24.6289C25.4849 24.9119 25.8609 24.5439 26.3809 23.4239Z" fill="black"/>
<path d="M29.3704 19.3679C31.3464 19.3679 32.2664 20.2799 32.2664 22.2079C32.2664 24.3599 31.0984 25.0399 29.4264 25.0399C28.7944 25.0399 28.3384 25.0239 27.9624 25.0159C27.7144 25.0079 27.4984 24.9999 27.2904 24.9999H26.9064V24.9359C27.3304 24.9359 27.4664 24.8159 27.4664 24.3199V20.1279C27.4664 19.6159 27.3384 19.4639 26.8984 19.4639V19.3999H27.2584C27.2664 19.3999 27.2744 19.3999 27.2824 19.3999C27.8024 19.3999 28.6184 19.3679 29.3704 19.3679ZM29.4904 24.9519C30.5464 24.9519 30.9944 24.1999 30.9944 22.3519C30.9944 20.3039 30.4824 19.4479 29.2664 19.4479C29.0744 19.4479 28.8744 19.4879 28.6984 19.5359V24.4079C28.6984 24.7919 28.9944 24.9519 29.4904 24.9519Z" fill="black"/>
<path d="M34.661 24.2799C34.661 24.7919 34.789 24.9359 35.229 24.9359V24.9999H32.877V24.9359C33.301 24.9359 33.437 24.8159 33.437 24.3199V20.1279C33.437 19.6159 33.309 19.4639 32.869 19.4639V19.3999H35.221V19.4639C34.797 19.4639 34.661 19.5919 34.661 20.0879V24.2799Z" fill="black"/>
<path d="M40.0722 19.3999L40.1362 21.0319H40.0722C39.6642 19.9039 39.4242 19.4799 38.7682 19.4799H38.4802V24.2799C38.4802 24.7919 38.6082 24.9359 39.0482 24.9359V24.9999H36.6962V24.9359C37.1202 24.9359 37.2562 24.8159 37.2562 24.3199V19.4799H36.9682C36.3282 19.4799 36.0882 19.9039 35.6642 21.0319H35.6002L35.6642 19.3999H40.0722Z" fill="black"/>
</svg>
