<svg viewBox="0 0 138 88" xmlns="http://www.w3.org/2000/svg"><g fill-rule="nonzero" fill="none"><path d="M12.021 1.667h16.131v85h-16.13C5.381 86.667 0 80.7 0 73.339V14.995C0 7.634 5.382 1.667 12.021 1.667z" fill="#48489D"/><path d="M125.979 86.667h-16.131v-85h16.13c6.64 0 12.022 5.967 12.022 13.328v58.344c0 7.36-5.382 13.328-12.021 13.328z" fill="#00C1A1"/><path d="M117.024 1.667H33.887a27.52 27.52 0 011.288 11.152c-.982 16.354 14.413 16.048 14.413 16.048 6.604-.795 13.177 1.768 17.879 6.97 4.723 5.208 7.058 12.512 6.348 19.856-.951 16.388 14.444 16.014 14.444 16.014 9.732-1.168 18.99 4.927 22.724 14.96h6.133c6.775 0 12.267-6.09 12.267-13.6v-57.8c0-3.625-1.305-7.1-3.626-9.653-2.32-2.553-5.464-3.974-8.733-3.947z" fill="#00C1A1"/><path d="M106.26 78.847c-4.688-5.231-11.265-7.82-17.879-7.038 0 0-15.333.374-14.444-16.014.67-7.354-1.711-14.647-6.47-19.822-4.68-5.252-11.256-7.866-17.879-7.106 0 0-15.333.34-14.413-16.014a27.517 27.517 0 00-1.288-11.186H20.976c-6.775 0-12.267 6.089-12.267 13.6v57.8c0 7.51 5.492 13.6 12.267 13.6h90.007c-1.097-2.925-2.701-5.582-4.723-7.82z" fill="#48489D"/><path d="M31.25 35.912a4.753 4.753 0 014.262 2.116v-1.104c0-.327.256-.597.583-.613h2.545a.583.583 0 01.583.613v12.819c0 .321-.261.582-.583.582h-2.545a.613.613 0 01-.583-.582v-1.135a4.845 4.845 0 01-4.293 2.116 7.115 7.115 0 01-7.023-7.421 7.084 7.084 0 017.053-7.391zm.52 11.347a3.925 3.925 0 100-7.851 3.925 3.925 0 000 7.85zM16.775 35.912a5.152 5.152 0 00-4.508 2.116v-1.104a.583.583 0 00-.583-.613H9.2a.583.583 0 00-.583.613v18.737c0 .322.261.583.583.583h2.576a.583.583 0 00.49-.583v-6.9a5.213 5.213 0 004.294 1.963 7.053 7.053 0 006.992-7.421 6.992 6.992 0 00-6.777-7.391zm-.614 11.347a3.925 3.925 0 113.772-3.926 3.772 3.772 0 01-3.772 3.926zM53.636 36.341h-2.73a.797.797 0 00-.766.614l-1.073 4.201-1.748 5.428-3.067-9.63c0-.306-.276-.613-.644-.613h-3.067c-.644 0-.705.43-.613.92l4.232 12.451c.084.34.387.579.736.583H46l-1.963 5.029c-.184.552 0 .92.522.92h2.76a.767.767 0 00.736-.613l.184-.644 1.717-4.692 4.201-13.034c.215-.552.031-.92-.521-.92zM79.09 36.096c.337 0 .674 0 .674.705v2.515a.675.675 0 01-.705.705h-.706c-1.84 0-2.913.951-2.913 3.374v6.317a.613.613 0 01-.613.552H72.25a.583.583 0 01-.552-.583V36.863a.583.583 0 01.552-.614h2.422a.552.552 0 01.583.552v1.35a3.925 3.925 0 013.435-2.055h.398zM80.163 32.079a2.33 2.33 0 112.361 2.361 2.361 2.361 0 01-2.361-2.361zm1.073 18.185a.613.613 0 01-.613-.613V36.863c0-.34.274-.614.613-.614h2.515a.583.583 0 01.613.614V49.65a.583.583 0 01-.613.613h-2.515zM129.199 48.21l-.859-1.442a.797.797 0 00-1.135 0c-.396.28-.864.44-1.349.46a1.595 1.595 0 01-1.595-1.81v-6.01h4.079a.644.644 0 00.46-.675v-1.932a.613.613 0 00-.583-.613h-3.956v-3.067a.613.613 0 00-.582-.613h-2.546a.583.583 0 00-.613.613v3.067h-1.932a.613.613 0 00-.583.613v1.932a.644.644 0 00.583.614h1.932v6.716a4.232 4.232 0 004.63 4.416 5.581 5.581 0 003.957-1.38.644.644 0 00.092-.89zM97.244 50.233v-1.87a4.937 4.937 0 01-4.232 2.024 6.9 6.9 0 01-7.145-7.238 6.93 6.93 0 016.93-7.298 4.999 4.999 0 014.386 2.146v-1.134a.613.613 0 01.582-.583h2.515a.583.583 0 01.613.583v13.493a6.685 6.685 0 01-7.513 6.593 7.145 7.145 0 01-7.145-5.06.399.399 0 01.276-.582h2.76c.368 0 .552 0 .674.276.55 1.435 2 2.318 3.527 2.146a3.312 3.312 0 003.772-3.496zm-3.772-3.066a3.864 3.864 0 10-3.741-3.864 3.68 3.68 0 003.741 3.741v.123zM63.664 35.82a4.937 4.937 0 00-4.324 2.055v-6.9a.644.644 0 00-.613-.583H56.18a.613.613 0 00-.613.583V49.65a.613.613 0 00.613.582h2.546a.613.613 0 00.582-.582v-1.135a4.907 4.907 0 004.294 2.116 7.084 7.084 0 006.93-7.421 7.053 7.053 0 00-6.869-7.391zm-.613 11.347a3.925 3.925 0 113.772-3.956 3.803 3.803 0 01-3.772 3.956zM111.535 35.82a5.612 5.612 0 00-4.662 2.055v-6.931a.583.583 0 00-.613-.552h-2.545a.583.583 0 00-.583.583V49.65c0 .321.26.582.583.582h2.545a.583.583 0 00.613-.552v-6.777a3.343 3.343 0 013.527-3.619 3.067 3.067 0 013.373 3.619v6.777a.613.613 0 00.614.552h2.545a.613.613 0 00.613-.552V41.8a5.735 5.735 0 00-6.01-5.98z" fill="#FFF"/><path d="M8 4a4 4 0 00-4 4v72a4 4 0 004 4h122a4 4 0 004-4V8a4 4 0 00-4-4H8zm0-4h122a8 8 0 018 8v72a8 8 0 01-8 8H8a8 8 0 01-8-8V8a8 8 0 018-8z" fill="#CCC"/></g></svg>
