<svg width="51" height="32" viewBox="0 0 51 32" fill="none" xmlns="http://www.w3.org/2000/svg">
<rect width="51" height="32" fill="#E5E5E5"/>
<g filter="url(#filter0_d_0_1)">
<rect x="-168" y="-278" width="343" height="354" rx="6" fill="white"/>
<rect width="50" height="32" fill="white"/>
<rect x="0.5" y="0.5" width="49.1818" height="31" rx="3.5" fill="white" stroke="white"/>
<path d="M46.3305 13.7068L45.0054 12.9485L43.6611 12.1787C42.7726 11.6694 41.6619 12.309 41.6619 13.3354V13.5077C41.6619 13.6034 41.7117 13.6915 41.796 13.7375L42.4203 14.0937C42.5926 14.1932 42.8071 14.0669 42.8071 13.8677V13.4579C42.8071 13.2549 43.0254 13.1285 43.2015 13.2281L44.4271 13.9328L45.6488 14.6337C45.825 14.7332 45.825 14.9898 45.6488 15.0894L44.4271 15.7903L43.2015 16.495C43.0254 16.5945 42.8071 16.4682 42.8071 16.2652V16.0622C42.8071 15.0358 41.6964 14.3924 40.8079 14.9056L39.4636 15.6754L38.1385 16.4337C37.2462 16.9469 37.2462 18.2375 38.1385 18.7507L39.4636 19.509L40.8079 20.2788C41.6964 20.7882 42.8071 20.1486 42.8071 19.1222V18.9499C42.8071 18.8541 42.7573 18.7661 42.673 18.7201L42.0488 18.3639C41.8764 18.2643 41.6619 18.3907 41.6619 18.5899V18.9997C41.6619 19.2027 41.4437 19.329 41.2675 19.2295L40.0419 18.5248L38.8202 17.8239C38.644 17.7243 38.644 17.4677 38.8202 17.3682L40.0419 16.6673L41.2675 15.9626C41.4437 15.863 41.6619 15.9894 41.6619 16.1924V16.3954C41.6619 17.4218 42.7726 18.0652 43.6611 17.552L45.0054 16.7822L46.3305 16.0239C47.2229 15.5069 47.2229 14.22 46.3305 13.7068Z" fill="black"/>
<path d="M37.6369 13.959L34.5348 20.3663H33.2479L34.4084 17.9726L32.5815 13.959H33.9028L35.0748 16.6475L36.3539 13.959H37.6369Z" fill="black"/>
<path d="M6.61919 16.2343C6.61919 15.4683 6.06387 14.9321 5.38216 14.9321C4.70045 14.9321 4.14512 15.4798 4.14512 16.2343C4.14512 16.9811 4.70045 17.5364 5.38216 17.5364C6.06387 17.5364 6.61919 17.0002 6.61919 16.2343ZM6.63068 18.5092V17.9194C6.29366 18.3292 5.79195 18.5819 5.19449 18.5819C3.94597 18.5819 3 17.5824 3 16.2343C3 14.8976 3.98427 13.8789 5.2213 13.8789C5.80344 13.8789 6.29366 14.1355 6.63068 14.5338V13.9593H7.74899V18.5092H6.63068Z" fill="black"/>
<path d="M13.1873 17.4977C12.7966 17.4977 12.6856 17.3522 12.6856 16.9692V14.9509H13.4056V13.959H12.6856V12.8483H11.5404V13.959H10.0621V13.507C10.0621 13.1241 10.2077 12.9785 10.6098 12.9785H10.8626V12.0977H10.3111C9.36509 12.0977 8.917 12.4079 8.917 13.3538V13.9628H8.28125V14.9509H8.917V18.5088H10.0621V14.9509H11.5404V17.1798C11.5404 18.1067 11.8966 18.5088 12.8234 18.5088H13.4132V17.4977H13.1873Z" fill="black"/>
<path d="M17.3007 15.8234C17.2203 15.2336 16.7377 14.8774 16.1709 14.8774C15.6079 14.8774 15.1407 15.2221 15.0258 15.8234H17.3007ZM15.0143 16.5319C15.0947 17.206 15.5773 17.589 16.1901 17.589C16.6726 17.589 17.0441 17.363 17.2624 16.9992H18.4382C18.1663 17.9643 17.3007 18.5809 16.1633 18.5809C14.7884 18.5809 13.8232 17.6158 13.8232 16.2409C13.8232 14.866 14.842 13.874 16.1901 13.874C17.5458 13.874 18.5301 14.8736 18.5301 16.2409C18.5301 16.3404 18.5224 16.44 18.5033 16.5319H15.0143Z" fill="black"/>
<path d="M25.8216 16.2332C25.8216 15.4979 25.2663 14.9311 24.5846 14.9311C23.9029 14.9311 23.3476 15.4787 23.3476 16.2332C23.3476 16.98 23.9029 17.5353 24.5846 17.5353C25.2663 17.5353 25.8216 16.9724 25.8216 16.2332ZM22.2178 20.3656V13.9583H23.3361V14.5481C23.6731 14.1306 24.1748 13.874 24.7723 13.874C26.0016 13.874 26.9668 14.8851 26.9668 16.2217C26.9668 17.5583 25.9825 18.5771 24.7455 18.5771C24.171 18.5771 23.6999 18.3511 23.3706 17.9681V20.3618H22.2178V20.3656Z" fill="black"/>
<path d="M31.0001 16.2343C31.0001 15.4683 30.4447 14.9321 29.763 14.9321C29.0813 14.9321 28.526 15.4798 28.526 16.2343C28.526 16.9811 29.0813 17.5364 29.763 17.5364C30.4447 17.5364 31.0001 17.0002 31.0001 16.2343ZM31.0115 18.5092V17.9194C30.6745 18.3292 30.1728 18.5819 29.5754 18.5819C28.3268 18.5819 27.3809 17.5824 27.3809 16.2343C27.3809 14.8976 28.3651 13.8789 29.6022 13.8789C30.1843 13.8789 30.6745 14.1355 31.0115 14.5338V13.9593H32.1299V18.5092H31.0115Z" fill="black"/>
<path d="M20.1998 14.4025C20.1998 14.4025 20.4832 13.874 21.184 13.874C21.4828 13.874 21.6743 13.9774 21.6743 13.9774V15.1379C21.6743 15.1379 21.253 14.8774 20.8662 14.9311C20.4794 14.9847 20.2342 15.337 20.2342 15.8119V18.5043H19.0776V13.9583H20.1959V14.4025H20.1998Z" fill="black"/>
</g>
<defs>
<filter id="filter0_d_0_1" x="-174" y="-284" width="355" height="366" filterUnits="userSpaceOnUse" color-interpolation-filters="sRGB">
<feFlood flood-opacity="0" result="BackgroundImageFix"/>
<feColorMatrix in="SourceAlpha" type="matrix" values="0 0 0 0 0 0 0 0 0 0 0 0 0 0 0 0 0 0 127 0" result="hardAlpha"/>
<feOffset/>
<feGaussianBlur stdDeviation="3"/>
<feColorMatrix type="matrix" values="0 0 0 0 0 0 0 0 0 0 0 0 0 0 0 0 0 0 0.2 0"/>
<feBlend mode="normal" in2="BackgroundImageFix" result="effect1_dropShadow_0_1"/>
<feBlend mode="normal" in="SourceGraphic" in2="effect1_dropShadow_0_1" result="shape"/>
</filter>
</defs>
</svg>
