<svg xmlns="http://www.w3.org/2000/svg" width="50" height="32" viewBox="0 0 50 32" fill="none">
  <path d="M37.0138 3.86914H12.9141V28.1441H37.0138V20.1327C37.1095 19.9938 37.1568 19.8162 37.1568 19.599C37.1568 19.3503 37.1095 19.1964 37.0138 19.0666" fill="url(#paint0_radial_4783_132)"/>
  <mask id="mask0_4783_132" style="mask-type:luminance" maskUnits="userSpaceOnUse" x="12" y="3" width="26" height="26">
    <path d="M37.0138 3.86914H12.9141V28.1441H37.0138V20.1327C37.1095 19.9938 37.1568 19.8162 37.1568 19.599C37.1568 19.3503 37.1095 19.1964 37.0138 19.0666" fill="white"/>
  </mask>
  <g mask="url(#mask0_4783_132)">
    <path fill-rule="evenodd" clip-rule="evenodd" d="M14.0715 16.1592H12.9141H12.9141V14.0784L13.7344 12.1924H15.5008L15.7284 12.6609V12.1924H17.7996L18.2528 13.2169L18.694 12.1924H25.27C25.5689 12.1924 25.8377 12.2483 26.035 12.424V12.1924H27.8349V12.424C28.145 12.2535 28.5288 12.1924 28.9654 12.1924H31.5737L31.8157 12.6609V12.1924H33.7467L34.0102 12.6609V12.1924H35.8921V16.1592H33.9905L33.6312 15.5591V16.1592H31.2583L31.0006 15.5275H30.4163L30.1528 16.1592H28.9214C28.4382 16.1592 28.071 16.0448 27.8349 15.9178V16.1592H24.908V15.259C24.908 15.132 24.8856 15.1249 24.8089 15.1222H24.6994L24.7021 16.1592H19.0428V15.669L18.8396 16.1613H17.6574L17.4542 15.6762V16.1592H15.177L14.9167 15.5275H14.3325L14.0715 16.1592ZM20.2275 15.6001H19.5331L19.5306 13.3725L18.5484 15.6001H17.9536L16.9689 13.3705V15.6001H15.5911L15.3309 14.9657H13.9205L13.6576 15.6001H12.9219L14.1349 12.7559H15.1413L16.2933 15.4487V12.7559H17.3989L18.2854 14.6853L19.0997 12.7559H20.2275V15.6001ZM15.0867 14.3731L14.6231 13.2393L14.1621 14.3731H15.0867ZM25.3005 13.9218C25.2074 13.9785 25.0974 13.9804 24.9655 13.9804H24.1426V13.3486H24.9767C25.0947 13.3486 25.2179 13.354 25.2979 13.3999C25.3857 13.4414 25.4401 13.5296 25.4401 13.6514C25.4401 13.7757 25.3884 13.8757 25.3005 13.9218ZM30.7015 13.2393L31.1703 14.3731H30.2354L30.7015 13.2393ZM20.7325 15.601H22.9954V15.0128H21.4099V14.4448H22.9573V13.8618H21.4099V13.3491H22.9954V12.7568H20.7325V15.601ZM26.1858 13.5228C26.1858 13.9763 25.8843 14.2106 25.7085 14.2809C25.8567 14.3376 25.9833 14.4376 26.0436 14.5205C26.1392 14.6619 26.1557 14.7883 26.1557 15.0423V15.601H25.4725L25.47 15.2424C25.47 15.2251 25.4701 15.207 25.4703 15.1884L25.4703 15.1882C25.4718 15.0224 25.4738 14.8112 25.363 14.6883C25.264 14.5882 25.1132 14.5665 24.8693 14.5665H24.1422V15.601H23.4648V12.7568H25.0228C25.369 12.7568 25.6241 12.766 25.8431 12.8931C26.0574 13.0201 26.1858 13.2056 26.1858 13.5228ZM26.5781 15.6001H27.2693V12.7559H26.5781V15.6001ZM35.2881 15.6001H34.3282L33.0443 13.4653V15.6001H31.6648L31.4012 14.9657H29.9941L29.7383 15.6001H28.9457C28.6164 15.6001 28.1996 15.527 27.9635 15.2855C27.7254 15.044 27.6016 14.7169 27.6016 14.1997C27.6016 13.7778 27.6756 13.3922 27.9667 13.0875C28.1857 12.8605 28.5286 12.7559 28.9954 12.7559H29.6512V13.3653H29.0092C28.762 13.3653 28.6224 13.4022 28.488 13.5338C28.3725 13.6535 28.2932 13.8799 28.2932 14.178C28.2932 14.4828 28.3536 14.7025 28.4795 14.846C28.5838 14.9585 28.7733 14.9927 28.9516 14.9927H29.2558L30.2105 12.7559H31.2254L32.3723 15.4462V12.7559H33.4036L34.5943 14.7368V12.7559H35.2881V15.6001Z" fill="white"/>
    <path fill-rule="evenodd" clip-rule="evenodd" d="M36.0951 20.4968C36.5292 20.4968 36.8498 20.3743 37.0143 20.1329V20.8723C36.7429 21.0039 36.3862 21.0553 36.021 21.0553H34.2658V20.8013C34.0625 20.9651 33.6953 21.0553 33.344 21.0553H27.8105V20.1379C27.8105 20.0254 27.7995 20.0208 27.6874 20.0208H27.5995V21.0554H25.778V19.9841C25.4731 20.1164 25.1275 20.1282 24.8345 20.1237H24.6174V21.0575L22.409 21.0555L21.8661 20.4383L21.2897 21.0555H17.707V17.0859H21.3584L21.8823 17.6935L22.4417 17.0859H24.886C25.1686 17.0859 25.6323 17.1156 25.8407 17.3183V17.0859H28.0248C28.2301 17.0859 28.6747 17.1275 28.9382 17.3183V17.0859H32.2494V17.3183C32.4141 17.1597 32.7621 17.0859 33.0586 17.0859H34.9129V17.3183C35.1075 17.1769 35.3823 17.0859 35.7606 17.0859H37.0142V17.652H35.665C34.9542 17.652 34.6931 18.0863 34.6931 18.4989C34.6931 19.3403 35.3862 19.3592 35.9961 19.3757C36.0387 19.3769 36.081 19.378 36.1226 19.3795C36.2406 19.3795 36.3121 19.3992 36.3613 19.4426C36.4111 19.4821 36.444 19.5479 36.444 19.6307C36.444 19.7084 36.4111 19.7723 36.3639 19.8163C36.3095 19.8697 36.219 19.8867 36.0898 19.8867H34.787V20.4968H36.0951ZM35.7794 18.2568H37.0139V19.0663L37.0052 19.0549C36.9896 19.0344 36.9742 19.0142 36.9511 18.9959C36.8003 18.84 36.553 18.7761 36.1825 18.7669L35.8154 18.7571C35.7026 18.7571 35.6258 18.7498 35.5544 18.7248C35.4666 18.6932 35.4062 18.6202 35.4062 18.5129C35.4062 18.4227 35.4338 18.3543 35.5052 18.3082C35.5742 18.2615 35.6561 18.2568 35.7794 18.2568ZM34.3125 18.9967C34.4444 19.1337 34.5151 19.3067 34.5151 19.5995C34.5151 20.2115 34.1341 20.4971 33.451 20.4971H32.1317V19.8871H33.4457C33.5742 19.8871 33.6653 19.87 33.7224 19.8167C33.769 19.7727 33.8024 19.7088 33.8024 19.6311C33.8024 19.5482 33.7662 19.4824 33.7197 19.443C33.6679 19.3996 33.5965 19.3798 33.4785 19.3798C33.437 19.3784 33.3949 19.3773 33.3523 19.3761C32.7446 19.3595 32.0518 19.3406 32.0518 18.4993C32.0518 18.0867 32.3101 17.6523 33.0202 17.6523H34.3782V18.2578H33.1356C33.0124 18.2578 32.9323 18.2625 32.8642 18.3092C32.79 18.3553 32.7625 18.4237 32.7625 18.5139C32.7625 18.6212 32.8255 18.6942 32.9107 18.7258C32.9822 18.7508 33.0589 18.7581 33.1743 18.7581L33.539 18.7679C33.9067 18.7769 34.1591 18.8408 34.3125 18.9967ZM27.8658 18.8792C27.9977 18.8792 28.1097 18.8745 28.2003 18.8206C28.2881 18.7673 28.3406 18.6693 28.3406 18.5475C28.3406 18.4258 28.2881 18.3377 28.2003 18.2916C28.1183 18.2428 27.9977 18.2402 27.877 18.2402H27.043V18.8792H27.8658ZM28.6093 19.1752C28.7601 19.231 28.8834 19.3311 28.9411 19.414C29.0368 19.5529 29.0506 19.6825 29.0534 19.9333V20.4972H28.3733V20.1413C28.3733 20.1243 28.3735 20.1065 28.3736 20.0881L28.3736 20.0878C28.3752 19.9208 28.3772 19.7035 28.2638 19.5844C28.1648 19.4825 28.014 19.4582 27.7669 19.4582H27.043V20.4972H26.3623V17.6523H27.9262C28.2691 17.6523 28.5189 17.6675 28.7412 17.7866C28.955 17.9162 29.0894 18.0938 29.0894 18.4183C29.0894 18.8724 28.7876 19.1041 28.6093 19.1752ZM31.7256 17.6523H29.4648V20.4972H31.7256V19.9069L30.1394 19.9044V19.3383H31.6869V18.7579H30.1394V18.2407H31.7256V17.6523ZM24.8949 18.9647H24.0195V18.2402H24.9028C25.1473 18.2402 25.3171 18.3403 25.3171 18.589C25.3171 18.8351 25.1552 18.9647 24.8949 18.9647ZM22.3046 19.0792L23.3446 20.238V17.9572L22.3046 19.0792ZM20.6596 19.9039H18.9941V19.3379H20.4813V18.7574H18.9941V18.2402H20.6924L21.4333 19.0693L20.6596 19.9039ZM24.8642 19.543C25.4563 19.543 26.0437 19.3798 26.0437 18.5896C26.0437 17.8017 25.4398 17.6523 24.9022 17.6523H22.7378L21.8762 18.5849L21.0428 17.6523H18.3184V20.4972H21.0015L21.8683 19.5555L22.7024 20.4972H24.019V19.543H24.8642Z" fill="white"/>
  </g>
  <defs>
    <radialGradient id="paint0_radial_4783_132" cx="0" cy="0" r="1" gradientUnits="userSpaceOnUse" gradientTransform="translate(17.1665 8.10901) scale(22.6154 22.6454)">
      <stop stop-color="#9DD5F6"/>
      <stop offset="0.0711" stop-color="#98D3F5"/>
      <stop offset="0.1575" stop-color="#89CEF3"/>
      <stop offset="0.2516" stop-color="#70C6EF"/>
      <stop offset="0.3514" stop-color="#4EBBEA"/>
      <stop offset="0.4546" stop-color="#23ADE3"/>
      <stop offset="0.5" stop-color="#0DA6E0"/>
      <stop offset="1" stop-color="#2E77BC"/>
    </radialGradient>
  </defs>
</svg>