<svg xmlns="http://www.w3.org/2000/svg" width="50" height="32" viewBox="0 0 50 32" fill="none">
  <path d="M14.0844 10.8011C14.4193 10.3849 14.6635 9.80369 14.6635 9.22245C14.6635 9.14352 14.6565 9.06458 14.6426 9C14.0914 9.02153 13.4285 9.38032 13.0308 9.8611C12.7168 10.2271 12.4307 10.8011 12.4307 11.3895C12.4307 11.4757 12.4447 11.5618 12.4516 11.5905C12.4865 11.5976 12.5424 11.6048 12.5982 11.6048C13.0936 11.6048 13.7146 11.2604 14.0844 10.8011ZM14.4751 11.7268C13.6448 11.7268 12.968 12.2435 12.5424 12.2435C12.0818 12.2435 11.4748 11.7555 10.7561 11.7555C9.38852 11.7555 8 12.918 8 15.1138C8 16.4772 8.51634 17.9195 9.15129 18.8524C9.69553 19.6417 10.17 20.2875 10.8538 20.2875C11.5306 20.2875 11.8306 19.8211 12.6749 19.8211C13.5332 19.8211 13.7215 20.2732 14.4751 20.2732C15.2147 20.2732 15.7101 19.57 16.1776 18.8811C16.7009 18.0917 16.9172 17.3168 16.9312 17.2809C16.8824 17.2665 15.4659 16.6709 15.4659 14.999C15.4659 13.5495 16.5823 12.8965 16.6451 12.8462C15.9055 11.7555 14.7821 11.7268 14.4751 11.7268Z" fill="black"/>
  <path d="M19.2047 9.80369V20.1584H21.0049V16.7355H23.1888C25.2263 16.7355 26.6497 15.3362 26.6497 13.2911C26.6497 11.2101 25.2751 9.80369 23.2656 9.80369H19.2047ZM21.0049 11.3178H22.7911C24.0889 11.3178 24.8216 12.0067 24.8216 13.2911C24.8216 14.5397 24.068 15.243 22.7841 15.243H21.0049V11.3178Z" fill="black"/>
  <path d="M29.3069 20.2875C30.3047 20.2875 31.142 19.8426 31.5676 19.082H31.6862V20.1584H33.3538V14.7981C33.3538 13.1404 32.2514 12.1645 30.2907 12.1645C28.4766 12.1645 27.2136 13.04 27.0741 14.4106H28.7068C28.8673 13.8724 29.4116 13.5782 30.207 13.5782C31.142 13.5782 31.6444 14.0159 31.6444 14.7981V15.4726L29.6767 15.5946C27.8207 15.7022 26.781 16.5274 26.781 17.9339C26.781 19.369 27.8346 20.2875 29.3069 20.2875ZM29.8163 18.917C29.0487 18.917 28.4975 18.5223 28.4975 17.8478C28.4975 17.1948 28.951 16.8288 29.9209 16.7642L31.6444 16.6422V17.2809C31.6444 18.2137 30.8629 18.917 29.8163 18.917Z" fill="black"/>
  <path d="M35.0691 23C36.7786 23 37.595 22.3614 38.2439 20.4311L41 12.3152H39.1719L37.3926 18.4721H37.274L35.4878 12.3152H33.5899L36.3181 20.1871L36.2274 20.553C36.0041 21.2922 35.5924 21.5792 34.8598 21.5792C34.7412 21.5792 34.483 21.572 34.3853 21.5577V22.9713C34.497 22.9928 34.9645 23 35.0691 23Z" fill="black"/>
</svg>