<svg width="51" height="32" viewBox="0 0 51 32" fill="none" xmlns="http://www.w3.org/2000/svg">
<rect width="51" height="32" fill="#E5E5E5"/>
<g filter="url(#filter0_d_0_1)">
<rect x="-116" y="-278" width="343" height="354" rx="6" fill="white"/>
<rect width="50" height="32" fill="white"/>
<rect x="0.5" y="0.5" width="49.1818" height="31" rx="3.5" fill="white" stroke="white"/>
<path d="M14.2739 12H12.5184C12.5184 13.4458 11.8572 14.7652 10.7079 15.6343L10.0151 16.1557L12.7074 19.8374H14.9194L12.4397 16.448C13.6126 15.2788 14.2739 13.6986 14.2739 12Z" fill="black"/>
<path d="M9.79481 12H8V19.8374H9.79481V12Z" fill="black"/>
<path d="M17.1314 12H15.439V19.8374H17.1314V12Z" fill="black"/>
<path d="M31.9779 14.2676C31.3324 14.2676 30.7184 14.4651 30.309 15.026V14.4177H28.7031V19.8375H30.3326V16.9933C30.3326 16.1716 30.8837 15.7687 31.5449 15.7687C32.2534 15.7687 32.6627 16.1953 32.6627 16.9854V19.8454H34.2765V16.3928C34.2765 15.1287 33.2767 14.2676 31.9779 14.2676Z" fill="black"/>
<path d="M22.2485 14.4177V14.7653C21.7919 14.4493 21.2409 14.2676 20.6426 14.2676C19.0682 14.2676 17.793 15.5475 17.793 17.1276C17.793 18.7077 19.0682 19.9876 20.6426 19.9876C21.2409 19.9876 21.7919 19.8059 22.2485 19.4899V19.8375H23.8623V14.4177H22.2485ZM20.7765 18.5181C19.9656 18.5181 19.3123 17.894 19.3123 17.1276C19.3123 16.3612 19.9656 15.7371 20.7765 15.7371C21.5873 15.7371 22.2406 16.3612 22.2406 17.1276C22.2406 17.894 21.5873 18.5181 20.7765 18.5181Z" fill="black"/>
<path d="M26.3655 15.1201V14.417H24.7124V19.8368H26.3734V17.3086C26.3734 16.4553 27.2944 15.9971 27.932 15.9971C27.9399 15.9971 27.9478 15.9971 27.9478 15.9971V14.417C27.2944 14.417 26.6883 14.7014 26.3655 15.1201Z" fill="black"/>
<path d="M39.2988 14.4177V14.7653C38.8422 14.4493 38.2912 14.2676 37.6929 14.2676C36.1185 14.2676 34.8433 15.5475 34.8433 17.1276C34.8433 18.7077 36.1185 19.9876 37.6929 19.9876C38.2912 19.9876 38.8422 19.8059 39.2988 19.4899V19.8375H40.9126V14.4177H39.2988ZM37.8267 18.5181C37.0159 18.5181 36.3626 17.894 36.3626 17.1276C36.3626 16.3612 37.0159 15.7371 37.8267 15.7371C38.6376 15.7371 39.2909 16.3612 39.2909 17.1276C39.2988 17.894 38.6376 18.5181 37.8267 18.5181Z" fill="black"/>
<path d="M42.6366 17.917C42.0777 17.917 41.6211 18.3752 41.6211 18.9362C41.6211 19.4971 42.0777 19.9553 42.6366 19.9553C43.1955 19.9553 43.6521 19.4971 43.6521 18.9362C43.6521 18.3673 43.1955 17.917 42.6366 17.917Z" fill="black"/>
</g>
<defs>
<filter id="filter0_d_0_1" x="-122" y="-284" width="355" height="366" filterUnits="userSpaceOnUse" color-interpolation-filters="sRGB">
<feFlood flood-opacity="0" result="BackgroundImageFix"/>
<feColorMatrix in="SourceAlpha" type="matrix" values="0 0 0 0 0 0 0 0 0 0 0 0 0 0 0 0 0 0 127 0" result="hardAlpha"/>
<feOffset/>
<feGaussianBlur stdDeviation="3"/>
<feColorMatrix type="matrix" values="0 0 0 0 0 0 0 0 0 0 0 0 0 0 0 0 0 0 0.2 0"/>
<feBlend mode="normal" in2="BackgroundImageFix" result="effect1_dropShadow_0_1"/>
<feBlend mode="normal" in="SourceGraphic" in2="effect1_dropShadow_0_1" result="shape"/>
</filter>
</defs>
</svg>
