<svg xmlns="http://www.w3.org/2000/svg" width="50" height="32" viewBox="0 0 50 32" fill="none">
  <path fill-rule="evenodd" clip-rule="evenodd" d="M36.2179 24.2791V22.4677H35.8005V23.5184C35.651 23.3246 35.418 23.2151 35.1744 23.2242C34.5981 23.2242 34.1309 23.6946 34.1309 24.2749C34.1309 24.8552 34.5981 25.3256 35.1744 25.3256C35.418 25.3347 35.651 25.2252 35.8005 25.0314V25.2752H36.2179V24.2791ZM23.2782 23.2743H23.992L23.9962 23.6736H23.2865V24.5898C23.2865 24.7916 23.3659 24.9261 23.5746 24.9261C23.71 24.9216 23.8422 24.8825 23.9586 24.8126L24.0838 25.1867C23.9211 25.2889 23.733 25.3428 23.5412 25.3422C23.0277 25.3422 22.8483 25.0648 22.8483 24.5983V23.6736H22.4434V23.2743H22.8399V22.6649H23.2782V23.2743ZM17.5078 24.0227V25.2836L17.0695 25.292V24.174C17.0695 23.8336 16.9276 23.6445 16.6312 23.6445C16.4922 23.6377 16.3574 23.6933 16.2631 23.7964C16.1688 23.8994 16.1247 24.0393 16.1428 24.1782V25.292H15.7045V24.174C15.7045 23.8336 15.5584 23.6445 15.2704 23.6445C15.1312 23.6369 14.9959 23.6923 14.9014 23.7956C14.8069 23.8988 14.7632 24.0391 14.782 24.1782V25.2836H14.3438V23.2746H14.7779V23.5226C14.9063 23.3258 15.1287 23.2123 15.3623 23.2242C15.6305 23.2126 15.8836 23.3496 16.0218 23.5814C16.1734 23.3425 16.4421 23.2056 16.723 23.2242C16.9362 23.2116 17.1445 23.292 17.2947 23.4448C17.4449 23.5977 17.5225 23.8082 17.5078 24.0227ZM27.6942 23.2241C27.4786 23.2177 27.2767 23.3306 27.1682 23.5183V23.2745H26.7383V25.2835H27.1724V24.1571C27.1724 23.8251 27.3143 23.6402 27.5898 23.6402C27.6827 23.6389 27.7749 23.656 27.8611 23.6906L27.9947 23.2703C27.8956 23.2346 27.7911 23.2161 27.6858 23.2157L27.6942 23.2241ZM21.2834 23.2242C21.5691 23.2143 21.8516 23.2872 22.0973 23.4343L21.9053 23.7874C21.7147 23.6769 21.4991 23.6176 21.2792 23.615C21.0413 23.615 20.8993 23.7159 20.8993 23.8504C20.8993 23.9849 21.0496 24.0227 21.2374 24.0479L21.4462 24.0774C21.8803 24.1404 22.1432 24.2959 22.1432 24.6784C22.1432 25.0608 21.8093 25.334 21.2333 25.334C20.925 25.3426 20.6221 25.2512 20.3692 25.0735L20.5779 24.733C20.7695 24.8761 21.0032 24.9501 21.2416 24.9432C21.538 24.9432 21.6966 24.8549 21.6966 24.6994C21.6966 24.5859 21.5839 24.5229 21.346 24.4892L21.1373 24.4598C20.6906 24.3968 20.4485 24.195 20.4485 23.8672C20.4485 23.4679 20.7783 23.2242 21.2834 23.2242ZM33.7245 23.2242C33.5088 23.2178 33.307 23.3307 33.1985 23.5184V23.2746H32.7686V25.2836H33.2027V24.1572C33.2027 23.8252 33.3446 23.6403 33.6201 23.6403C33.713 23.639 33.8051 23.6561 33.8914 23.6907L34.025 23.2704C33.9259 23.2347 33.8214 23.2162 33.7161 23.2158L33.7245 23.2242ZM28.4332 25.0366C28.2306 24.8367 28.1211 24.56 28.1315 24.2745V24.2661C28.1211 23.9806 28.2306 23.7039 28.4332 23.504C28.6358 23.304 28.9127 23.1992 29.196 23.2154C29.4566 23.202 29.7128 23.2875 29.9139 23.4549L29.7052 23.808C29.5551 23.6928 29.3721 23.6294 29.1834 23.6273C28.8507 23.6544 28.5944 23.9342 28.5944 24.2703C28.5944 24.6064 28.8507 24.8862 29.1834 24.9133C29.3721 24.9112 29.5551 24.8478 29.7052 24.7326L29.9139 25.0857C29.7128 25.2531 29.4566 25.3386 29.196 25.3252C28.9127 25.3414 28.6358 25.2366 28.4332 25.0366ZM32.1966 24.2748V23.2745H31.7624V23.5182C31.6129 23.3245 31.3799 23.215 31.1363 23.224C30.56 23.224 30.0928 23.6945 30.0928 24.2748C30.0928 24.855 30.56 25.3255 31.1363 25.3255C31.3799 25.3345 31.6129 25.225 31.7624 25.0313V25.275H32.1966V24.2748ZM31.206 23.7034C30.8782 23.691 30.6006 23.9448 30.5813 24.2746C30.5702 24.4425 30.6293 24.6073 30.7442 24.7294C30.8591 24.8515 31.0195 24.9198 31.1865 24.9176C31.5146 24.9159 31.7812 24.6505 31.7865 24.3201C31.7918 23.9898 31.5339 23.7158 31.206 23.7034ZM25.3425 23.2245C24.7662 23.2326 24.3055 23.7096 24.3136 24.2899C24.3216 24.8702 24.7954 25.3341 25.3717 25.3259C25.672 25.3415 25.9673 25.2441 26.2003 25.0527L25.9916 24.7291C25.8268 24.8622 25.6226 24.9362 25.4114 24.9393C25.113 24.9651 24.8484 24.7471 24.8145 24.4475H26.2963V24.2794C26.2963 23.649 25.9081 23.2287 25.3488 23.2287L25.3425 23.2245ZM25.696 23.7538C25.6013 23.6624 25.4744 23.6126 25.3432 23.6154H25.3348C25.0559 23.6058 24.8204 23.8224 24.8047 24.103H25.8482C25.8455 23.9709 25.7907 23.8453 25.696 23.7538ZM36.948 24.9913C36.9734 24.9916 36.9986 24.9966 37.0222 25.006C37.0462 25.0158 37.0681 25.0301 37.0869 25.048C37.1053 25.0661 37.1201 25.0875 37.1308 25.111C37.1521 25.1606 37.1521 25.2169 37.1308 25.2665C37.1201 25.2901 37.1053 25.3115 37.0869 25.3296C37.0681 25.3475 37.0462 25.3618 37.0222 25.3716C36.9973 25.3827 36.9702 25.3884 36.9429 25.3884C36.8622 25.3878 36.789 25.3403 36.7551 25.2665C36.734 25.2169 36.734 25.1607 36.7551 25.111C36.7657 25.0875 36.7806 25.0661 36.7989 25.048C36.8177 25.0301 36.8397 25.0158 36.8636 25.006C36.8908 24.9951 36.92 24.9901 36.9492 24.9913H36.948ZM36.945 25.3464C36.9652 25.3463 36.9852 25.342 37.0037 25.3338C37.0217 25.3258 37.038 25.3143 37.0517 25.3002C37.1058 25.2407 37.1058 25.1495 37.0517 25.0901C37.038 25.0759 37.0217 25.0645 37.0037 25.0564C36.9846 25.0481 36.964 25.0438 36.9432 25.0438C36.9224 25.0439 36.9018 25.0482 36.8827 25.0564C36.8639 25.0642 36.8469 25.0756 36.8326 25.0901C36.7785 25.1495 36.7785 25.2407 36.8326 25.3002C36.8469 25.3146 36.8639 25.326 36.8827 25.3338C36.9037 25.343 36.9265 25.3473 36.9495 25.3464H36.945ZM37.0096 25.1135C36.994 25.1017 36.9747 25.0957 36.9552 25.0967L36.8672 25.0988V25.2837H36.907V25.2143H36.9258L36.9824 25.2837H37.0306L36.9698 25.2143C36.9862 25.2131 37.0017 25.2065 37.0138 25.1954C37.0238 25.1854 37.0291 25.1717 37.0285 25.1576C37.0296 25.1407 37.0226 25.1243 37.0096 25.1135ZM36.9092 25.1327V25.1831H36.9553C36.9635 25.1856 36.9722 25.1856 36.9804 25.1831C36.9834 25.1772 36.9834 25.1702 36.9804 25.1642C36.9834 25.1583 36.9834 25.1512 36.9804 25.1453C36.9722 25.1428 36.9635 25.1428 36.9553 25.1453L36.9092 25.1327ZM35.2384 23.7073C34.9105 23.695 34.6329 23.9487 34.6136 24.2785C34.6025 24.4464 34.6616 24.6112 34.7765 24.7333C34.8915 24.8555 35.0518 24.9237 35.2189 24.9215C35.547 24.9198 35.8135 24.6544 35.8188 24.3241C35.8241 23.9937 35.5662 23.7197 35.2384 23.7073ZM19.9563 24.279V23.2745H19.5222V23.5182C19.3727 23.3245 19.1396 23.215 18.8961 23.224C18.3198 23.224 17.8525 23.6945 17.8525 24.2748C17.8525 24.855 18.3198 25.3255 18.8961 25.3255C19.1396 25.3345 19.3727 25.225 19.5222 25.0313V25.275H19.9563V24.279ZM18.9652 23.7073C18.6373 23.695 18.3598 23.9487 18.3405 24.2785H18.3363C18.3251 24.4471 18.3848 24.6127 18.5006 24.7349C18.6165 24.8572 18.7779 24.9249 18.9457 24.9215C19.2738 24.9198 19.5404 24.6544 19.5457 24.3241C19.551 23.9937 19.2931 23.7197 18.9652 23.7073Z" fill="#231F20"/>
  <path d="M22.0156 8.27148H28.6013V20.2446H22.0156V8.27148Z" fill="#FF5F00"/>
  <path d="M22.4353 14.2587C22.4329 11.9219 23.493 9.71383 25.3101 8.27106C22.2241 5.81765 17.7926 6.17501 15.1299 9.092C12.4671 12.009 12.4671 16.5063 15.1299 19.4232C17.7926 22.3402 22.2241 22.6976 25.3101 20.2442C23.4936 18.8019 22.4335 16.5947 22.4353 14.2587Z" fill="#EB001B"/>
  <path d="M37.487 14.2586C37.4869 17.1739 35.8414 19.8331 33.2495 21.1071C30.6575 22.381 27.574 22.0459 25.3086 20.2442C27.1243 18.8006 28.1844 16.5938 28.1844 14.2576C28.1844 11.9214 27.1243 9.71457 25.3086 8.27103C27.574 6.46927 30.6575 6.1342 33.2495 7.40812C35.8414 8.68205 37.4869 11.3413 37.487 14.2565V14.2586Z" fill="#F79E1B"/>
  <path fill-rule="evenodd" clip-rule="evenodd" d="M36.7677 18.7295V18.9748H36.7238V18.7295H36.6172V18.6787H36.866V18.7295H36.7677ZM37.2514 18.6787V18.9748L37.2075 18.9769V18.7527L37.1259 18.9452H37.0695L36.988 18.7527V18.9748H36.9336V18.6787H37.0005L37.0883 18.8902L37.1761 18.6787H37.2514Z" fill="#F79E1B"/>
</svg>