<svg width="50" height="32" viewBox="0 0 50 32" fill="none" xmlns="http://www.w3.org/2000/svg">
<rect width="50" height="32" fill="white"/>
<path d="M24.4565 20.609L32.9187 12.0074H26.4239V9.31619H39.5506L31.1498 17.9642H37.7176C38.0925 18.9841 38.7748 19.9302 39.7115 20.609H24.4565ZM41.4122 16.1597H49.8876C49.955 15.7757 50 15.3917 50 14.9626C50 11.6425 47.6395 9 44.3123 9C40.7828 9 38.3773 11.5974 38.3773 14.9626C38.3773 18.3279 40.7603 20.9252 44.5371 20.9252C46.6953 20.9252 48.3814 20.0444 49.438 18.5086L47.0999 17.1534C46.6054 17.8084 45.7061 18.2827 44.5821 18.2827C43.0534 18.2827 41.8169 17.6503 41.4122 16.1597ZM41.3673 13.9011C41.7045 12.4556 42.7611 11.6199 44.3123 11.6199C45.5263 11.6199 46.7403 12.2749 47.0999 13.9011H41.3673ZM6.54195 9C4.90085 9 3.70934 9.60982 2.90001 10.6487V9.31619H0V24.3846H2.90001V19.2765C3.70934 20.3154 4.90085 20.9252 6.54195 20.9252C9.55441 20.9252 12.0273 18.3279 12.0273 14.9626C12.0273 11.5974 9.55441 9 6.54195 9ZM6.00238 18.1472C4.22639 18.1472 2.90001 16.8598 2.90001 14.9626C2.90001 13.0654 4.22639 11.778 6.00238 11.778C7.8009 11.778 9.12728 13.0654 9.12728 14.9626C9.12728 16.8598 7.8009 18.1472 6.00238 18.1472ZM24.7089 18.7988L22.9281 20.609H21.8088V19.2765C20.9995 20.2928 19.7855 20.9252 18.1444 20.9252C15.1544 20.9252 12.6815 18.3279 12.6815 14.9626C12.6815 11.5974 15.1544 9 18.1444 9C19.7855 9 20.9995 9.6324 21.8088 10.6487V9.31619H24.7089V18.7988ZM21.8088 14.9626C21.8088 13.0654 20.4824 11.778 18.6839 11.778C16.9079 11.778 15.5816 13.0654 15.5816 14.9626C15.5816 16.8598 16.9079 18.1472 18.6839 18.1472C20.4824 18.1472 21.8088 16.8598 21.8088 14.9626Z" fill="#0F42F8"/>
</svg>
