<svg width="64" height="12" viewBox="0 0 64 12" fill="none" xmlns="http://www.w3.org/2000/svg">
<g clip-path="url(#clip0_5205_134588)">
<path d="M10.5196 0C10.9519 0.703985 11.1468 1.4283 11.1468 2.34405C11.1468 5.26446 8.61876 9.05785 6.56718 11.7216H1.8738L0 0.639477L4.10316 0.25523L5.0973 8.14141C6.02602 6.64999 7.17163 4.30595 7.17163 2.70726C7.17163 1.83218 7.01946 1.23688 6.78194 0.746055L10.5196 0ZM15.8388 4.88021C16.594 4.88021 18.4948 4.53944 18.4948 3.47435C18.4948 2.96249 18.1278 2.70726 17.6955 2.70726C16.9389 2.70726 15.9461 3.60196 15.838 4.88092L15.8388 4.88021ZM15.752 6.98376C15.752 8.28445 16.4859 8.79491 17.4587 8.79491C18.5254 8.79491 19.5316 8.53968 20.8507 7.87916L20.3544 11.2028C19.4256 11.6501 17.9792 11.9488 16.5733 11.9488C13.0177 11.9488 11.7342 9.81723 11.7342 7.15414C11.7342 3.70153 13.8085 0.0350585 18.0859 0.0350585C20.4326 0.0350585 21.7574 1.33575 21.7574 3.1483C21.7574 6.06872 17.9558 6.96272 15.752 6.98376ZM33.6011 2.60138C33.6011 3.0277 33.5357 3.65315 33.4702 4.05002L32.2379 11.7209H28.2414L29.3649 4.68809L29.4517 3.89997C29.4517 3.3881 29.1274 3.26049 28.7377 3.26049C28.22 3.26049 27.7009 3.49468 27.3553 3.66577L26.081 11.7293H22.0632L23.8993 0.241907H27.3838L27.4279 1.15905C28.2485 0.626154 29.3287 0.0511861 30.8626 0.0511861C32.8935 0.0511861 33.6075 1.07491 33.6075 2.61049L33.6011 2.60138ZM45.4625 1.29999C46.6003 0.490826 47.6884 0.0427712 49.1774 0.0427712C51.229 0.0427712 51.9508 1.0665 51.9508 2.60208C51.9508 3.0284 51.8854 3.65385 51.82 4.05072L50.5897 11.7216H46.5783L47.7161 4.53944L47.7815 3.96447C47.7815 3.3881 47.4572 3.26049 47.0675 3.26049C46.5712 3.26049 46.0748 3.47365 45.7065 3.66577L44.4264 11.7293H40.43L41.5678 4.54716L41.6389 3.97219C41.6389 3.39582 41.3146 3.2682 40.9263 3.2682C40.4072 3.2682 39.8895 3.5024 39.5439 3.67348L38.2689 11.7371H34.251L36.0857 0.24962H39.5204L39.6285 1.20883C40.4278 0.633866 41.5073 0.0588989 42.9544 0.0588989C44.2074 0.0581977 45.0281 0.591795 45.4391 1.31611L45.4625 1.29999ZM59.8954 4.64602C59.8954 3.70854 59.6579 3.06837 58.9454 3.06837C57.3681 3.06837 57.0445 5.81699 57.0445 7.22356C57.0445 8.29076 57.3475 8.95057 58.0593 8.95057C59.5498 8.95057 59.8954 6.05189 59.8954 4.64602ZM52.9833 7.05458C52.9833 3.43158 54.9268 0.0427712 59.3991 0.0427712C62.7698 0.0427712 64 2.00397 64 4.71123C64 8.29216 62.0771 12 57.4975 12C54.1055 12 52.9819 9.80531 52.9819 7.05528L52.9833 7.05458Z" fill="white"/>
</g>
<defs>
<clipPath id="clip0_5205_134588">
<rect width="64" height="12" fill="white"/>
</clipPath>
</defs>
</svg>
