<svg width="65" height="14" viewBox="0 0 65 14" fill="none" xmlns="http://www.w3.org/2000/svg">
<path d="M10.684 0.850006C11.1231 1.57159 11.321 2.31402 11.321 3.25265C11.321 6.24608 8.75343 10.1343 6.6698 12.8647H1.90308L0 1.50547L4.16727 1.11162L5.17695 9.19495C6.12018 7.66625 7.28369 5.2636 7.28369 3.62494C7.28369 2.728 7.12914 2.11781 6.88791 1.61471L10.684 0.850006ZM16.0862 5.85223C16.8532 5.85223 18.7838 5.50293 18.7838 4.41121C18.7838 3.88656 18.4111 3.62494 17.972 3.62494C17.2035 3.62494 16.1953 4.54202 16.0855 5.85295L16.0862 5.85223ZM15.9981 8.00836C15.9981 9.34156 16.7435 9.86478 17.7315 9.86478C18.8148 9.86478 19.8368 9.60317 21.1765 8.92615L20.6724 12.3328C19.7292 12.7914 18.2601 13.0975 16.8323 13.0975C13.2211 13.0975 11.9175 10.9127 11.9175 8.183C11.9175 4.64408 14.0243 0.885941 18.3685 0.885941C20.7518 0.885941 22.0974 2.21915 22.0974 4.07701C22.0974 7.07044 18.2363 7.98679 15.9981 8.00836ZM34.1261 3.51642C34.1261 3.95339 34.0597 4.59448 33.9932 5.00127L32.7416 12.864H28.6827L29.8238 5.6553L29.9119 4.84747C29.9119 4.32281 29.5826 4.19201 29.1868 4.19201C28.661 4.19201 28.1338 4.43206 27.7828 4.60742L26.4885 12.8726H22.4079L24.2727 1.09796H27.8116L27.8564 2.03803C28.6899 1.49181 29.7869 0.902472 31.3448 0.902472C33.4075 0.902472 34.1326 1.95179 34.1326 3.52576L34.1261 3.51642ZM46.1729 2.18249C47.3285 1.3531 48.4335 0.893847 49.9458 0.893847C52.0295 0.893847 52.7625 1.94316 52.7625 3.51714C52.7625 3.95411 52.6961 4.5952 52.6296 5.00199L51.3802 12.8647H47.3061L48.4617 5.50293L48.5281 4.91359C48.5281 4.32281 48.1988 4.19201 47.803 4.19201C47.2989 4.19201 46.7947 4.4105 46.4206 4.60742L45.1206 12.8726H41.0617L42.2173 5.51084L42.2895 4.9215C42.2895 4.33072 41.9601 4.19991 41.5658 4.19991C41.0386 4.19991 40.5128 4.43996 40.1618 4.61533L38.8668 12.8805H34.7862L36.6496 1.10587H40.1379L40.2477 2.08906C41.0595 1.49972 42.1559 0.910377 43.6256 0.910377C44.8982 0.909659 45.7316 1.4566 46.1491 2.19902L46.1729 2.18249ZM60.8313 5.61218C60.8313 4.65126 60.5901 3.99508 59.8664 3.99508C58.2645 3.99508 57.9359 6.81242 57.9359 8.25416C57.9359 9.34803 58.2435 10.0243 58.9665 10.0243C60.4803 10.0243 60.8313 7.05319 60.8313 5.61218ZM53.8112 8.08095C53.8112 4.36737 55.7851 0.893847 60.3272 0.893847C63.7505 0.893847 65 2.90408 65 5.67902C65 9.34947 63.0471 13.15 58.3959 13.15C54.9509 13.15 53.8098 10.9004 53.8098 8.08167L53.8112 8.08095Z" fill="#666666"/>
</svg>
