<svg xmlns="http://www.w3.org/2000/svg" width="50" height="32" viewBox="0 0 50 32" fill="none">
  <mask id="mask0_4783_88" style="mask-type:luminance" maskUnits="userSpaceOnUse" x="6" y="10" width="37" height="12">
    <path fill-rule="evenodd" clip-rule="evenodd" d="M24.8931 13.9851C24.8729 15.6028 26.3152 16.5056 27.4017 17.0423C28.5181 17.5931 28.893 17.9462 28.8888 18.4386C28.8802 19.1924 27.9982 19.525 27.1727 19.5379C25.7325 19.5606 24.8953 19.1438 24.2295 18.8285L23.7107 21.2895C24.3786 21.6016 25.6153 21.8737 26.8979 21.8856C29.9082 21.8856 31.8778 20.3792 31.8884 18.0434C31.9001 15.0791 27.8438 14.9149 27.8715 13.5899C27.8811 13.1882 28.2592 12.7595 29.088 12.6504C29.4981 12.5953 30.6304 12.5532 31.914 13.1526L32.4178 10.7714C31.7276 10.5165 30.8402 10.2725 29.7356 10.2725C26.9021 10.2725 24.9091 11.7994 24.8931 13.9851ZM37.2592 10.4788C36.7096 10.4788 36.2462 10.8038 36.0395 11.3027L31.7393 21.7118H34.7474L35.3461 20.0347H39.0221L39.3694 21.7118H42.0207L39.7071 10.4788H37.2592ZM37.6803 13.5123L38.5485 17.7303H36.1709L37.6803 13.5123ZM21.2462 10.4788L18.875 21.7118L21.7415 21.7118L24.1116 10.4788H21.2462ZM17.0052 10.4778L14.0215 18.1234L12.8146 11.6225C12.6729 10.8968 12.1137 10.4778 11.4927 10.4778H6.61505L6.54687 10.8039C7.54818 11.0242 8.68583 11.3795 9.37503 11.7596C9.79685 11.9918 9.91722 12.1948 10.0557 12.7466L12.3417 21.7108H15.3711L20.0155 10.4778H17.0052Z" fill="white"/>
  </mask>
  <g mask="url(#mask0_4783_88)">
    <path d="M2.83203 11.6597L37.7843 -1.38969L45.7358 20.4993L10.7839 33.5487" fill="url(#paint0_linear_4783_88)"/>
  </g>
  <defs>
    <linearGradient id="paint0_linear_4783_88" x1="2.90681" y1="9.35642" x2="30.38" y2="-6.11073" gradientUnits="userSpaceOnUse">
      <stop stop-color="#222357"/>
      <stop offset="1" stop-color="#254AA5"/>
    </linearGradient>
  </defs>
</svg>